M48
; DRILL file {KiCad 9.0.5} date 2025-11-30T17:48:18+0100
; FORMAT={-:-/ absolute / metric / decimal}
; #@! TF.CreationDate,2025-11-30T17:48:18+01:00
; #@! TF.GenerationSoftware,Kicad,Pcbnew,9.0.5
; #@! TF.FileFunction,Plated,1,2,PTH
FMAT,2
METRIC
; #@! TA.AperFunction,Plated,PTH,ViaDrill
T1C0.300
; #@! TA.AperFunction,Plated,PTH,ComponentDrill
T2C0.840
; #@! TA.AperFunction,Plated,PTH,ComponentDrill
T3C1.000
; #@! TA.AperFunction,Plated,PTH,ComponentDrill
T4C1.170
; #@! TA.AperFunction,Plated,PTH,ComponentDrill
T5C1.300
%
G90
G05
T1
X146.7Y-39.5
X151.2Y-62.1
X151.9Y-73.6
X156.1Y-44.3
X156.2Y-62.3
X159.9Y-66.0
X164.2Y-79.1
X165.8Y-80.7
X166.1Y-61.0
X171.5Y-45.4
X173.4Y-53.7
X174.7Y-53.2
T2
X154.28Y-61.02
X154.28Y-63.56
X154.28Y-66.1
X154.28Y-68.64
X154.28Y-71.18
X154.28Y-73.72
X154.28Y-76.26
X154.28Y-78.8
X169.52Y-61.02
X169.52Y-63.56
X169.52Y-66.1
X169.52Y-68.64
X169.52Y-71.18
X169.52Y-73.72
X169.52Y-76.26
X169.52Y-78.8
T3
X117.312Y-41.0
X117.312Y-46.0
X146.392Y-36.0
X146.392Y-51.0
X148.0Y-63.42
X148.0Y-65.96
X148.0Y-68.5
X148.0Y-71.04
X148.0Y-73.58
X153.86Y-34.4
X153.86Y-39.2
X156.4Y-34.4
X156.4Y-39.2
X158.94Y-34.4
X158.94Y-39.2
X161.48Y-34.4
X161.48Y-39.2
X164.02Y-34.4
X164.02Y-39.2
X166.56Y-34.4
X166.56Y-39.2
X176.2Y-81.4
X176.3Y-57.12
X176.3Y-59.66
X176.3Y-62.2
X176.3Y-66.12
X176.3Y-68.66
X176.3Y-71.2
X176.3Y-73.74
X176.3Y-76.28
T4
X119.9Y-60.3
X119.9Y-65.3
X137.7Y-60.3
X137.7Y-65.3
T5
X128.9Y-78.572
X133.9Y-78.572
X138.9Y-78.572
M30
