G04 #@! TF.GenerationSoftware,KiCad,Pcbnew,9.0.5*
G04 #@! TF.CreationDate,2025-11-30T17:48:17+01:00*
G04 #@! TF.ProjectId,Sensor_all_Netz_ESP32,53656e73-6f72-45f6-916c-6c5f4e65747a,rev?*
G04 #@! TF.SameCoordinates,Original*
G04 #@! TF.FileFunction,Copper,L1,Top*
G04 #@! TF.FilePolarity,Positive*
%FSLAX46Y46*%
G04 Gerber Fmt 4.6, Leading zero omitted, Abs format (unit mm)*
G04 Created by KiCad (PCBNEW 9.0.5) date 2025-11-30 17:48:17*
%MOMM*%
%LPD*%
G01*
G04 APERTURE LIST*
G04 Aperture macros list*
%AMRoundRect*
0 Rectangle with rounded corners*
0 $1 Rounding radius*
0 $2 $3 $4 $5 $6 $7 $8 $9 X,Y pos of 4 corners*
0 Add a 4 corners polygon primitive as box body*
4,1,4,$2,$3,$4,$5,$6,$7,$8,$9,$2,$3,0*
0 Add four circle primitives for the rounded corners*
1,1,$1+$1,$2,$3*
1,1,$1+$1,$4,$5*
1,1,$1+$1,$6,$7*
1,1,$1+$1,$8,$9*
0 Add four rect primitives between the rounded corners*
20,1,$1+$1,$2,$3,$4,$5,0*
20,1,$1+$1,$4,$5,$6,$7,0*
20,1,$1+$1,$6,$7,$8,$9,0*
20,1,$1+$1,$8,$9,$2,$3,0*%
G04 Aperture macros list end*
G04 #@! TA.AperFunction,Conductor*
%ADD10C,0.200000*%
G04 #@! TD*
G04 #@! TA.AperFunction,ComponentPad*
%ADD11R,1.700000X1.700000*%
G04 #@! TD*
G04 #@! TA.AperFunction,ComponentPad*
%ADD12C,1.700000*%
G04 #@! TD*
G04 #@! TA.AperFunction,SMDPad,CuDef*
%ADD13RoundRect,0.250000X0.450000X-0.350000X0.450000X0.350000X-0.450000X0.350000X-0.450000X-0.350000X0*%
G04 #@! TD*
G04 #@! TA.AperFunction,SMDPad,CuDef*
%ADD14RoundRect,0.250000X-0.475000X0.337500X-0.475000X-0.337500X0.475000X-0.337500X0.475000X0.337500X0*%
G04 #@! TD*
G04 #@! TA.AperFunction,SMDPad,CuDef*
%ADD15R,1.500000X1.000000*%
G04 #@! TD*
G04 #@! TA.AperFunction,WasherPad*
%ADD16C,3.500000*%
G04 #@! TD*
G04 #@! TA.AperFunction,ComponentPad*
%ADD17RoundRect,0.250000X-1.050000X-1.050000X1.050000X-1.050000X1.050000X1.050000X-1.050000X1.050000X0*%
G04 #@! TD*
G04 #@! TA.AperFunction,ComponentPad*
%ADD18C,2.600000*%
G04 #@! TD*
G04 #@! TA.AperFunction,ComponentPad*
%ADD19RoundRect,0.250000X-0.600000X-0.750000X0.600000X-0.750000X0.600000X0.750000X-0.600000X0.750000X0*%
G04 #@! TD*
G04 #@! TA.AperFunction,ComponentPad*
%ADD20O,1.700000X2.000000*%
G04 #@! TD*
G04 #@! TA.AperFunction,SMDPad,CuDef*
%ADD21RoundRect,0.250000X0.550000X-1.500000X0.550000X1.500000X-0.550000X1.500000X-0.550000X-1.500000X0*%
G04 #@! TD*
G04 #@! TA.AperFunction,ComponentPad*
%ADD22RoundRect,0.550000X0.550000X0.550000X-0.550000X0.550000X-0.550000X-0.550000X0.550000X-0.550000X0*%
G04 #@! TD*
G04 #@! TA.AperFunction,ComponentPad*
%ADD23C,2.200000*%
G04 #@! TD*
G04 #@! TA.AperFunction,ComponentPad*
%ADD24C,1.348000*%
G04 #@! TD*
G04 #@! TA.AperFunction,ViaPad*
%ADD25C,0.600000*%
G04 #@! TD*
G04 #@! TA.AperFunction,Conductor*
%ADD26C,1.000000*%
G04 #@! TD*
G04 #@! TA.AperFunction,Conductor*
%ADD27C,0.500000*%
G04 #@! TD*
G04 APERTURE END LIST*
G04 #@! TO.N,3V3*
D10*
X112000000Y-31000000D02*
X180900000Y-31000000D01*
X180900000Y-84600000D01*
X112000000Y-84600000D01*
X112000000Y-31000000D01*
G04 #@! TD*
D11*
G04 #@! TO.P,J6,1,Pin_1*
G04 #@! TO.N,5V0*
X176200000Y-81400000D03*
G04 #@! TD*
G04 #@! TO.P,J4,1,Pin_1*
G04 #@! TO.N,/Steuerstromkreis/GPIO5*
X148000000Y-73580000D03*
D12*
G04 #@! TO.P,J4,2,Pin_2*
G04 #@! TO.N,/Steuerstromkreis/GPIO4*
X148000000Y-71040000D03*
G04 #@! TO.P,J4,3,Pin_3*
G04 #@! TO.N,/Steuerstromkreis/GPIO3*
X148000000Y-68500000D03*
G04 #@! TO.P,J4,4,Pin_4*
G04 #@! TO.N,/Steuerstromkreis/GPIO2*
X148000000Y-65960000D03*
G04 #@! TO.P,J4,5,Pin_5*
G04 #@! TO.N,/Steuerstromkreis/GPIO1*
X148000000Y-63420000D03*
G04 #@! TD*
D11*
G04 #@! TO.P,J3,1,Pin_1*
G04 #@! TO.N,/Steuerstromkreis/GPIO10*
X176300000Y-66120000D03*
D12*
G04 #@! TO.P,J3,2,Pin_2*
G04 #@! TO.N,/Steuerstromkreis/GPIO9*
X176300000Y-68660000D03*
G04 #@! TO.P,J3,3,Pin_3*
G04 #@! TO.N,/Steuerstromkreis/GPIO8*
X176300000Y-71200000D03*
G04 #@! TO.P,J3,4,Pin_4*
G04 #@! TO.N,/Steuerstromkreis/GPIO7*
X176300000Y-73740000D03*
G04 #@! TO.P,J3,5,Pin_5*
G04 #@! TO.N,/Steuerstromkreis/GPIO6*
X176300000Y-76280000D03*
G04 #@! TD*
D13*
G04 #@! TO.P,R3,1*
G04 #@! TO.N,Net-(JP2-B)*
X177000000Y-49100000D03*
G04 #@! TO.P,R3,2*
G04 #@! TO.N,3V3*
X177000000Y-47100000D03*
G04 #@! TD*
D14*
G04 #@! TO.P,C2,1*
G04 #@! TO.N,GND*
X153200000Y-45025000D03*
G04 #@! TO.P,C2,2*
G04 #@! TO.N,3V3*
X153200000Y-47100000D03*
G04 #@! TD*
D11*
G04 #@! TO.P,J7,1,Pin_1*
G04 #@! TO.N,/Steuerstromkreis/GPIO0*
X176300000Y-57120000D03*
D12*
G04 #@! TO.P,J7,2,Pin_2*
G04 #@! TO.N,/Steuerstromkreis/GPIO21{slash}TXD*
X176300000Y-59660000D03*
G04 #@! TO.P,J7,3,Pin_3*
G04 #@! TO.N,/Steuerstromkreis/GPIO20{slash}RXD*
X176300000Y-62200000D03*
G04 #@! TD*
D15*
G04 #@! TO.P,JP1,1,A*
G04 #@! TO.N,/Steuerstromkreis/GPIO1*
X171500000Y-52750000D03*
G04 #@! TO.P,JP1,2,B*
G04 #@! TO.N,Net-(JP1-B)*
X171500000Y-51450000D03*
G04 #@! TD*
D16*
G04 #@! TO.P,H2,*
G04 #@! TO.N,*
X118600000Y-79100000D03*
G04 #@! TD*
D13*
G04 #@! TO.P,R4,1*
G04 #@! TO.N,Net-(JP1-B)*
X171500000Y-49200000D03*
G04 #@! TO.P,R4,2*
G04 #@! TO.N,3V3*
X171500000Y-47200000D03*
G04 #@! TD*
D11*
G04 #@! TO.P,J1,1,Pin_1*
G04 #@! TO.N,GND*
X153860000Y-34400000D03*
D12*
G04 #@! TO.P,J1,2,Pin_2*
X156400000Y-34400000D03*
G04 #@! TO.P,J1,3,Pin_3*
X158940000Y-34400000D03*
G04 #@! TO.P,J1,4,Pin_4*
X161480000Y-34400000D03*
G04 #@! TO.P,J1,5,Pin_5*
X164020000Y-34400000D03*
G04 #@! TO.P,J1,6,Pin_6*
X166560000Y-34400000D03*
G04 #@! TD*
D17*
G04 #@! TO.P,J5,1,Pin_1*
G04 #@! TO.N,N*
X128900000Y-78572500D03*
D18*
G04 #@! TO.P,J5,2,Pin_2*
G04 #@! TO.N,L1 230VAC*
X133900000Y-78572500D03*
G04 #@! TO.P,J5,3,Pin_3*
G04 #@! TO.N,PE*
X138900000Y-78572500D03*
G04 #@! TD*
D15*
G04 #@! TO.P,JP2,1,A*
G04 #@! TO.N,/Steuerstromkreis/GPIO0*
X177000000Y-52750000D03*
G04 #@! TO.P,JP2,2,B*
G04 #@! TO.N,Net-(JP2-B)*
X177000000Y-51450000D03*
G04 #@! TD*
D16*
G04 #@! TO.P,H1,*
G04 #@! TO.N,*
X175000000Y-36800000D03*
G04 #@! TD*
D19*
G04 #@! TO.P,PS1,1,AC/L*
G04 #@! TO.N,Net-(PS1-AC{slash}L)*
X117312500Y-41000000D03*
D20*
G04 #@! TO.P,PS1,2,AC/N*
G04 #@! TO.N,N*
X117312500Y-46000000D03*
G04 #@! TO.P,PS1,3,-Vout*
G04 #@! TO.N,GND*
X146392500Y-36000000D03*
G04 #@! TO.P,PS1,4,+Vout*
G04 #@! TO.N,3V3*
X146392500Y-51000000D03*
G04 #@! TD*
D11*
G04 #@! TO.P,J2,1,Pin_1*
G04 #@! TO.N,3V3*
X153860000Y-39200000D03*
D12*
G04 #@! TO.P,J2,2,Pin_2*
X156400000Y-39200000D03*
G04 #@! TO.P,J2,3,Pin_3*
X158940000Y-39200000D03*
G04 #@! TO.P,J2,4,Pin_4*
X161480000Y-39200000D03*
G04 #@! TO.P,J2,5,Pin_5*
X164020000Y-39200000D03*
G04 #@! TO.P,J2,6,Pin_6*
X166560000Y-39200000D03*
G04 #@! TD*
D21*
G04 #@! TO.P,C1,1*
G04 #@! TO.N,3V3*
X161500000Y-48600000D03*
G04 #@! TO.P,C1,2*
G04 #@! TO.N,GND*
X161500000Y-43200000D03*
G04 #@! TD*
D22*
G04 #@! TO.P,F1,1*
G04 #@! TO.N,L1 230VAC*
X137700000Y-65300000D03*
X137700000Y-60300000D03*
D23*
G04 #@! TO.P,F1,2*
G04 #@! TO.N,Net-(PS1-AC{slash}L)*
X119900000Y-65300000D03*
X119900000Y-60300000D03*
G04 #@! TD*
D24*
G04 #@! TO.P,ESP32-C3_SUPERMINI_TH,0,GPIO0*
G04 #@! TO.N,/Steuerstromkreis/GPIO0*
X154280000Y-61020000D03*
G04 #@! TO.P,ESP32-C3_SUPERMINI_TH,1,GPIO1*
G04 #@! TO.N,/Steuerstromkreis/GPIO1*
X154280000Y-63560000D03*
G04 #@! TO.P,ESP32-C3_SUPERMINI_TH,2,GPIO2*
G04 #@! TO.N,/Steuerstromkreis/GPIO2*
X154280000Y-66100000D03*
G04 #@! TO.P,ESP32-C3_SUPERMINI_TH,3,GPIO3*
G04 #@! TO.N,/Steuerstromkreis/GPIO3*
X154280000Y-68640000D03*
G04 #@! TO.P,ESP32-C3_SUPERMINI_TH,3.3,3V3*
G04 #@! TO.N,3V3*
X154280000Y-73720000D03*
G04 #@! TO.P,ESP32-C3_SUPERMINI_TH,4,GPIO4*
G04 #@! TO.N,/Steuerstromkreis/GPIO4*
X154280000Y-71180000D03*
G04 #@! TO.P,ESP32-C3_SUPERMINI_TH,5,GPIO5*
G04 #@! TO.N,/Steuerstromkreis/GPIO5*
X169520000Y-78800000D03*
G04 #@! TO.P,ESP32-C3_SUPERMINI_TH,5V,5V*
G04 #@! TO.N,5V0*
X154280000Y-78800000D03*
G04 #@! TO.P,ESP32-C3_SUPERMINI_TH,6,GPIO6*
G04 #@! TO.N,/Steuerstromkreis/GPIO6*
X169520000Y-76260000D03*
G04 #@! TO.P,ESP32-C3_SUPERMINI_TH,7,GPIO7*
G04 #@! TO.N,/Steuerstromkreis/GPIO7*
X169520000Y-73720000D03*
G04 #@! TO.P,ESP32-C3_SUPERMINI_TH,8,GPIO8*
G04 #@! TO.N,/Steuerstromkreis/GPIO8*
X169520000Y-71180000D03*
G04 #@! TO.P,ESP32-C3_SUPERMINI_TH,9,GPIO9*
G04 #@! TO.N,/Steuerstromkreis/GPIO9*
X169520000Y-68640000D03*
G04 #@! TO.P,ESP32-C3_SUPERMINI_TH,10,GPIO10*
G04 #@! TO.N,/Steuerstromkreis/GPIO10*
X169520000Y-66100000D03*
G04 #@! TO.P,ESP32-C3_SUPERMINI_TH,20,GPIO20*
G04 #@! TO.N,/Steuerstromkreis/GPIO20{slash}RXD*
X169520000Y-63560000D03*
G04 #@! TO.P,ESP32-C3_SUPERMINI_TH,21,GPIO21*
G04 #@! TO.N,/Steuerstromkreis/GPIO21{slash}TXD*
X169520000Y-61020000D03*
G04 #@! TO.P,ESP32-C3_SUPERMINI_TH,G,GND*
G04 #@! TO.N,GND*
X154280000Y-76260000D03*
G04 #@! TD*
D25*
G04 #@! TO.N,GND*
X156100000Y-44300000D03*
X159900000Y-66000000D03*
X146700000Y-39500000D03*
X156200000Y-62300000D03*
G04 #@! TO.N,3V3*
X151900000Y-73600000D03*
X151200000Y-62100000D03*
X171500000Y-45400000D03*
G04 #@! TO.N,/Steuerstromkreis/GPIO1*
X173400000Y-53700000D03*
G04 #@! TO.N,5V0*
X165800000Y-80700000D03*
X164200000Y-79100000D03*
G04 #@! TO.N,/Steuerstromkreis/GPIO0*
X174700000Y-53200000D03*
X166100000Y-61000000D03*
G04 #@! TD*
D26*
G04 #@! TO.N,GND*
X156200000Y-62300000D02*
X159900000Y-66000000D01*
X146700000Y-39500000D02*
X150400000Y-43200000D01*
X155025000Y-43200000D02*
X153200000Y-45025000D01*
X150400000Y-43200000D02*
X155600000Y-43200000D01*
X155600000Y-43200000D02*
X161500000Y-43200000D01*
X155025000Y-43225000D02*
X156100000Y-44300000D01*
D27*
X155025000Y-43200000D02*
X155025000Y-43225000D01*
X155600000Y-43200000D02*
X155025000Y-43200000D01*
D26*
G04 #@! TO.N,3V3*
X160000000Y-53200000D02*
X161500000Y-51700000D01*
D10*
X176900000Y-47200000D02*
X177000000Y-47100000D01*
D26*
X156100000Y-53200000D02*
X160000000Y-53200000D01*
X151200000Y-71900000D02*
X151200000Y-72900000D01*
X153200000Y-47100000D02*
X153200000Y-50300000D01*
X146392500Y-51000000D02*
X149300000Y-51000000D01*
X153200000Y-50300000D02*
X156100000Y-53200000D01*
X151200000Y-72900000D02*
X151900000Y-73600000D01*
X171500000Y-45400000D02*
X171500000Y-47200000D01*
X151200000Y-71900000D02*
X151200000Y-62100000D01*
X171500000Y-47200000D02*
X176900000Y-47200000D01*
X161500000Y-51700000D02*
X161500000Y-48600000D01*
X149300000Y-51000000D02*
X153200000Y-47100000D01*
D27*
G04 #@! TO.N,/Steuerstromkreis/GPIO1*
X171500000Y-52750000D02*
X172450000Y-52750000D01*
X172450000Y-52750000D02*
X173400000Y-53700000D01*
G04 #@! TO.N,5V0*
X164200000Y-79100000D02*
X165800000Y-80700000D01*
G04 #@! TO.N,/Steuerstromkreis/GPIO0*
X177000000Y-52750000D02*
X175150000Y-52750000D01*
X154280000Y-61020000D02*
X166080000Y-61020000D01*
X175150000Y-52750000D02*
X174700000Y-53200000D01*
D10*
X166080000Y-61020000D02*
X166100000Y-61000000D01*
D27*
G04 #@! TO.N,Net-(JP1-B)*
X171500000Y-51450000D02*
X171500000Y-49200000D01*
G04 #@! TO.N,Net-(JP2-B)*
X177000000Y-51450000D02*
X177000000Y-49100000D01*
G04 #@! TD*
M02*
