G04 #@! TF.GenerationSoftware,KiCad,Pcbnew,9.0.5*
G04 #@! TF.CreationDate,2025-11-30T17:48:18+01:00*
G04 #@! TF.ProjectId,Sensor_all_Netz_ESP32,53656e73-6f72-45f6-916c-6c5f4e65747a,rev?*
G04 #@! TF.SameCoordinates,Original*
G04 #@! TF.FileFunction,Legend,Top*
G04 #@! TF.FilePolarity,Positive*
%FSLAX46Y46*%
G04 Gerber Fmt 4.6, Leading zero omitted, Abs format (unit mm)*
G04 Created by KiCad (PCBNEW 9.0.5) date 2025-11-30 17:48:18*
%MOMM*%
%LPD*%
G01*
G04 APERTURE LIST*
G04 Aperture macros list*
%AMRoundRect*
0 Rectangle with rounded corners*
0 $1 Rounding radius*
0 $2 $3 $4 $5 $6 $7 $8 $9 X,Y pos of 4 corners*
0 Add a 4 corners polygon primitive as box body*
4,1,4,$2,$3,$4,$5,$6,$7,$8,$9,$2,$3,0*
0 Add four circle primitives for the rounded corners*
1,1,$1+$1,$2,$3*
1,1,$1+$1,$4,$5*
1,1,$1+$1,$6,$7*
1,1,$1+$1,$8,$9*
0 Add four rect primitives between the rounded corners*
20,1,$1+$1,$2,$3,$4,$5,0*
20,1,$1+$1,$4,$5,$6,$7,0*
20,1,$1+$1,$6,$7,$8,$9,0*
20,1,$1+$1,$8,$9,$2,$3,0*%
G04 Aperture macros list end*
%ADD10C,0.100000*%
%ADD11C,0.200000*%
%ADD12C,0.125000*%
%ADD13C,0.150000*%
%ADD14C,0.120000*%
%ADD15C,0.127000*%
%ADD16R,1.700000X1.700000*%
%ADD17C,1.700000*%
%ADD18RoundRect,0.250000X0.450000X-0.350000X0.450000X0.350000X-0.450000X0.350000X-0.450000X-0.350000X0*%
%ADD19RoundRect,0.250000X-0.475000X0.337500X-0.475000X-0.337500X0.475000X-0.337500X0.475000X0.337500X0*%
%ADD20R,1.500000X1.000000*%
%ADD21C,3.500000*%
%ADD22RoundRect,0.250000X-1.050000X-1.050000X1.050000X-1.050000X1.050000X1.050000X-1.050000X1.050000X0*%
%ADD23C,2.600000*%
%ADD24RoundRect,0.250000X-0.600000X-0.750000X0.600000X-0.750000X0.600000X0.750000X-0.600000X0.750000X0*%
%ADD25O,1.700000X2.000000*%
%ADD26RoundRect,0.250000X0.550000X-1.500000X0.550000X1.500000X-0.550000X1.500000X-0.550000X-1.500000X0*%
%ADD27RoundRect,0.550000X0.550000X0.550000X-0.550000X0.550000X-0.550000X-0.550000X0.550000X-0.550000X0*%
%ADD28C,2.200000*%
%ADD29C,1.552000*%
G04 APERTURE END LIST*
D10*
X179000000Y-54500000D02*
X179000000Y-45700000D01*
X168500000Y-54500000D02*
X168700000Y-54500000D01*
X168700000Y-54500000D02*
X179000000Y-54500000D01*
X179000000Y-45700000D02*
X172200000Y-45700000D01*
D11*
X114000000Y-58000000D02*
X116200000Y-58000000D01*
X117000000Y-58000000D02*
X119200000Y-58000000D01*
X120000000Y-58000000D02*
X122200000Y-58000000D01*
X123000000Y-58000000D02*
X125200000Y-58000000D01*
X126000000Y-58000000D02*
X128200000Y-58000000D01*
X129000000Y-58000000D02*
X131200000Y-58000000D01*
X132000000Y-58000000D02*
X134200000Y-58000000D01*
X135000000Y-58000000D02*
X137200000Y-58000000D01*
X138000000Y-58000000D02*
X140200000Y-58000000D01*
X141000000Y-58000000D02*
X141000000Y-58000000D01*
X141000000Y-58000000D02*
X141000000Y-60200000D01*
X141000000Y-61000000D02*
X141000000Y-63200000D01*
X141000000Y-64000000D02*
X141000000Y-66200000D01*
X141000000Y-67000000D02*
X141000000Y-69000000D01*
X141000000Y-69000000D02*
X138800000Y-69000000D01*
X138000000Y-69000000D02*
X135800000Y-69000000D01*
X135000000Y-69000000D02*
X132800000Y-69000000D01*
X132000000Y-69000000D02*
X129800000Y-69000000D01*
X129000000Y-69000000D02*
X126800000Y-69000000D01*
X126000000Y-69000000D02*
X123800000Y-69000000D01*
X123000000Y-69000000D02*
X120800000Y-69000000D01*
X120000000Y-69000000D02*
X117800000Y-69000000D01*
X117000000Y-69000000D02*
X114800000Y-69000000D01*
X114000000Y-69000000D02*
X114000000Y-69000000D01*
X114000000Y-69000000D02*
X114000000Y-66800000D01*
X114000000Y-66000000D02*
X114000000Y-63800000D01*
X114000000Y-63000000D02*
X114000000Y-60800000D01*
X114000000Y-60000000D02*
X114000000Y-58000000D01*
D10*
X168500000Y-45700000D02*
X168500000Y-54500000D01*
X170900000Y-45700000D02*
X168500000Y-45700000D01*
D12*
X143506045Y-78899270D02*
X143458426Y-78851651D01*
X143458426Y-78851651D02*
X143363188Y-78851651D01*
X143363188Y-78851651D02*
X143315569Y-78899270D01*
X143315569Y-78899270D02*
X143267950Y-78994508D01*
X143267950Y-78994508D02*
X143244140Y-79089746D01*
X143244140Y-79089746D02*
X143244140Y-79280222D01*
X143244140Y-79280222D02*
X143267950Y-79375460D01*
X143267950Y-79375460D02*
X143315569Y-79470698D01*
X143315569Y-79470698D02*
X143363188Y-79518317D01*
X143363188Y-79518317D02*
X143458426Y-79518317D01*
X143458426Y-79518317D02*
X143506045Y-79470698D01*
X143410807Y-78518317D02*
X143291759Y-78565936D01*
X143291759Y-78565936D02*
X143172712Y-78708794D01*
X143172712Y-78708794D02*
X143101283Y-78946889D01*
X143101283Y-78946889D02*
X143077474Y-79184984D01*
X143077474Y-79184984D02*
X143101283Y-79423079D01*
X143101283Y-79423079D02*
X143172712Y-79661175D01*
X143172712Y-79661175D02*
X143291759Y-79804032D01*
X143291759Y-79804032D02*
X143410807Y-79851651D01*
X143410807Y-79851651D02*
X143529855Y-79804032D01*
X143529855Y-79804032D02*
X143648902Y-79661175D01*
X143648902Y-79661175D02*
X143720331Y-79423079D01*
X143720331Y-79423079D02*
X143744140Y-79184984D01*
X143744140Y-79184984D02*
X143720331Y-78946889D01*
X143720331Y-78946889D02*
X143648902Y-78708794D01*
X143648902Y-78708794D02*
X143529855Y-78565936D01*
X143529855Y-78565936D02*
X143410807Y-78518317D01*
X144315569Y-78756413D02*
X144339378Y-78708794D01*
X144339378Y-78708794D02*
X144386997Y-78661175D01*
X144386997Y-78661175D02*
X144506045Y-78661175D01*
X144506045Y-78661175D02*
X144553664Y-78708794D01*
X144553664Y-78708794D02*
X144577473Y-78756413D01*
X144577473Y-78756413D02*
X144601283Y-78851651D01*
X144601283Y-78851651D02*
X144601283Y-78946889D01*
X144601283Y-78946889D02*
X144577473Y-79089746D01*
X144577473Y-79089746D02*
X144291759Y-79661175D01*
X144291759Y-79661175D02*
X144601283Y-79661175D01*
X144910806Y-78661175D02*
X144958425Y-78661175D01*
X144958425Y-78661175D02*
X145006044Y-78708794D01*
X145006044Y-78708794D02*
X145029854Y-78756413D01*
X145029854Y-78756413D02*
X145053663Y-78851651D01*
X145053663Y-78851651D02*
X145077473Y-79042127D01*
X145077473Y-79042127D02*
X145077473Y-79280222D01*
X145077473Y-79280222D02*
X145053663Y-79470698D01*
X145053663Y-79470698D02*
X145029854Y-79565936D01*
X145029854Y-79565936D02*
X145006044Y-79613556D01*
X145006044Y-79613556D02*
X144958425Y-79661175D01*
X144958425Y-79661175D02*
X144910806Y-79661175D01*
X144910806Y-79661175D02*
X144863187Y-79613556D01*
X144863187Y-79613556D02*
X144839378Y-79565936D01*
X144839378Y-79565936D02*
X144815568Y-79470698D01*
X144815568Y-79470698D02*
X144791759Y-79280222D01*
X144791759Y-79280222D02*
X144791759Y-79042127D01*
X144791759Y-79042127D02*
X144815568Y-78851651D01*
X144815568Y-78851651D02*
X144839378Y-78756413D01*
X144839378Y-78756413D02*
X144863187Y-78708794D01*
X144863187Y-78708794D02*
X144910806Y-78661175D01*
X145267949Y-78756413D02*
X145291758Y-78708794D01*
X145291758Y-78708794D02*
X145339377Y-78661175D01*
X145339377Y-78661175D02*
X145458425Y-78661175D01*
X145458425Y-78661175D02*
X145506044Y-78708794D01*
X145506044Y-78708794D02*
X145529853Y-78756413D01*
X145529853Y-78756413D02*
X145553663Y-78851651D01*
X145553663Y-78851651D02*
X145553663Y-78946889D01*
X145553663Y-78946889D02*
X145529853Y-79089746D01*
X145529853Y-79089746D02*
X145244139Y-79661175D01*
X145244139Y-79661175D02*
X145553663Y-79661175D01*
X146006043Y-78661175D02*
X145767948Y-78661175D01*
X145767948Y-78661175D02*
X145744139Y-79137365D01*
X145744139Y-79137365D02*
X145767948Y-79089746D01*
X145767948Y-79089746D02*
X145815567Y-79042127D01*
X145815567Y-79042127D02*
X145934615Y-79042127D01*
X145934615Y-79042127D02*
X145982234Y-79089746D01*
X145982234Y-79089746D02*
X146006043Y-79137365D01*
X146006043Y-79137365D02*
X146029853Y-79232603D01*
X146029853Y-79232603D02*
X146029853Y-79470698D01*
X146029853Y-79470698D02*
X146006043Y-79565936D01*
X146006043Y-79565936D02*
X145982234Y-79613556D01*
X145982234Y-79613556D02*
X145934615Y-79661175D01*
X145934615Y-79661175D02*
X145815567Y-79661175D01*
X145815567Y-79661175D02*
X145767948Y-79613556D01*
X145767948Y-79613556D02*
X145744139Y-79565936D01*
X146625090Y-79661175D02*
X146625090Y-78661175D01*
X146625090Y-78661175D02*
X146791757Y-79375460D01*
X146791757Y-79375460D02*
X146958423Y-78661175D01*
X146958423Y-78661175D02*
X146958423Y-79661175D01*
X147410805Y-79661175D02*
X147410805Y-79137365D01*
X147410805Y-79137365D02*
X147386995Y-79042127D01*
X147386995Y-79042127D02*
X147339376Y-78994508D01*
X147339376Y-78994508D02*
X147244138Y-78994508D01*
X147244138Y-78994508D02*
X147196519Y-79042127D01*
X147410805Y-79613556D02*
X147363186Y-79661175D01*
X147363186Y-79661175D02*
X147244138Y-79661175D01*
X147244138Y-79661175D02*
X147196519Y-79613556D01*
X147196519Y-79613556D02*
X147172710Y-79518317D01*
X147172710Y-79518317D02*
X147172710Y-79423079D01*
X147172710Y-79423079D02*
X147196519Y-79327841D01*
X147196519Y-79327841D02*
X147244138Y-79280222D01*
X147244138Y-79280222D02*
X147363186Y-79280222D01*
X147363186Y-79280222D02*
X147410805Y-79232603D01*
X147648900Y-78994508D02*
X147648900Y-79661175D01*
X147648900Y-79089746D02*
X147672710Y-79042127D01*
X147672710Y-79042127D02*
X147720329Y-78994508D01*
X147720329Y-78994508D02*
X147791757Y-78994508D01*
X147791757Y-78994508D02*
X147839376Y-79042127D01*
X147839376Y-79042127D02*
X147863186Y-79137365D01*
X147863186Y-79137365D02*
X147863186Y-79661175D01*
X148315567Y-78994508D02*
X148315567Y-79661175D01*
X148101281Y-78994508D02*
X148101281Y-79518317D01*
X148101281Y-79518317D02*
X148125091Y-79613556D01*
X148125091Y-79613556D02*
X148172710Y-79661175D01*
X148172710Y-79661175D02*
X148244138Y-79661175D01*
X148244138Y-79661175D02*
X148291757Y-79613556D01*
X148291757Y-79613556D02*
X148315567Y-79565936D01*
X148744138Y-79613556D02*
X148696519Y-79661175D01*
X148696519Y-79661175D02*
X148601281Y-79661175D01*
X148601281Y-79661175D02*
X148553662Y-79613556D01*
X148553662Y-79613556D02*
X148529853Y-79518317D01*
X148529853Y-79518317D02*
X148529853Y-79137365D01*
X148529853Y-79137365D02*
X148553662Y-79042127D01*
X148553662Y-79042127D02*
X148601281Y-78994508D01*
X148601281Y-78994508D02*
X148696519Y-78994508D01*
X148696519Y-78994508D02*
X148744138Y-79042127D01*
X148744138Y-79042127D02*
X148767948Y-79137365D01*
X148767948Y-79137365D02*
X148767948Y-79232603D01*
X148767948Y-79232603D02*
X148529853Y-79327841D01*
X149053662Y-79661175D02*
X149006043Y-79613556D01*
X149006043Y-79613556D02*
X148982233Y-79518317D01*
X148982233Y-79518317D02*
X148982233Y-78661175D01*
X149910804Y-79661175D02*
X149744138Y-79184984D01*
X149625090Y-79661175D02*
X149625090Y-78661175D01*
X149625090Y-78661175D02*
X149815566Y-78661175D01*
X149815566Y-78661175D02*
X149863185Y-78708794D01*
X149863185Y-78708794D02*
X149886995Y-78756413D01*
X149886995Y-78756413D02*
X149910804Y-78851651D01*
X149910804Y-78851651D02*
X149910804Y-78994508D01*
X149910804Y-78994508D02*
X149886995Y-79089746D01*
X149886995Y-79089746D02*
X149863185Y-79137365D01*
X149863185Y-79137365D02*
X149815566Y-79184984D01*
X149815566Y-79184984D02*
X149625090Y-79184984D01*
X150125090Y-79661175D02*
X150125090Y-78994508D01*
X150125090Y-78661175D02*
X150101281Y-78708794D01*
X150101281Y-78708794D02*
X150125090Y-78756413D01*
X150125090Y-78756413D02*
X150148900Y-78708794D01*
X150148900Y-78708794D02*
X150125090Y-78661175D01*
X150125090Y-78661175D02*
X150125090Y-78756413D01*
X150553661Y-79613556D02*
X150506042Y-79661175D01*
X150506042Y-79661175D02*
X150410804Y-79661175D01*
X150410804Y-79661175D02*
X150363185Y-79613556D01*
X150363185Y-79613556D02*
X150339376Y-79518317D01*
X150339376Y-79518317D02*
X150339376Y-79137365D01*
X150339376Y-79137365D02*
X150363185Y-79042127D01*
X150363185Y-79042127D02*
X150410804Y-78994508D01*
X150410804Y-78994508D02*
X150506042Y-78994508D01*
X150506042Y-78994508D02*
X150553661Y-79042127D01*
X150553661Y-79042127D02*
X150577471Y-79137365D01*
X150577471Y-79137365D02*
X150577471Y-79232603D01*
X150577471Y-79232603D02*
X150339376Y-79327841D01*
X150767947Y-79613556D02*
X150815566Y-79661175D01*
X150815566Y-79661175D02*
X150910804Y-79661175D01*
X150910804Y-79661175D02*
X150958423Y-79613556D01*
X150958423Y-79613556D02*
X150982232Y-79518317D01*
X150982232Y-79518317D02*
X150982232Y-79470698D01*
X150982232Y-79470698D02*
X150958423Y-79375460D01*
X150958423Y-79375460D02*
X150910804Y-79327841D01*
X150910804Y-79327841D02*
X150839375Y-79327841D01*
X150839375Y-79327841D02*
X150791756Y-79280222D01*
X150791756Y-79280222D02*
X150767947Y-79184984D01*
X150767947Y-79184984D02*
X150767947Y-79137365D01*
X150767947Y-79137365D02*
X150791756Y-79042127D01*
X150791756Y-79042127D02*
X150839375Y-78994508D01*
X150839375Y-78994508D02*
X150910804Y-78994508D01*
X150910804Y-78994508D02*
X150958423Y-79042127D01*
X143029855Y-80271119D02*
X143196521Y-81271119D01*
X143196521Y-81271119D02*
X143363188Y-80271119D01*
X143720330Y-81223500D02*
X143672711Y-81271119D01*
X143672711Y-81271119D02*
X143577473Y-81271119D01*
X143577473Y-81271119D02*
X143529854Y-81223500D01*
X143529854Y-81223500D02*
X143506045Y-81128261D01*
X143506045Y-81128261D02*
X143506045Y-80747309D01*
X143506045Y-80747309D02*
X143529854Y-80652071D01*
X143529854Y-80652071D02*
X143577473Y-80604452D01*
X143577473Y-80604452D02*
X143672711Y-80604452D01*
X143672711Y-80604452D02*
X143720330Y-80652071D01*
X143720330Y-80652071D02*
X143744140Y-80747309D01*
X143744140Y-80747309D02*
X143744140Y-80842547D01*
X143744140Y-80842547D02*
X143506045Y-80937785D01*
X143958425Y-81271119D02*
X143958425Y-80604452D01*
X143958425Y-80794928D02*
X143982235Y-80699690D01*
X143982235Y-80699690D02*
X144006044Y-80652071D01*
X144006044Y-80652071D02*
X144053663Y-80604452D01*
X144053663Y-80604452D02*
X144101282Y-80604452D01*
X144244140Y-81223500D02*
X144291759Y-81271119D01*
X144291759Y-81271119D02*
X144386997Y-81271119D01*
X144386997Y-81271119D02*
X144434616Y-81223500D01*
X144434616Y-81223500D02*
X144458425Y-81128261D01*
X144458425Y-81128261D02*
X144458425Y-81080642D01*
X144458425Y-81080642D02*
X144434616Y-80985404D01*
X144434616Y-80985404D02*
X144386997Y-80937785D01*
X144386997Y-80937785D02*
X144315568Y-80937785D01*
X144315568Y-80937785D02*
X144267949Y-80890166D01*
X144267949Y-80890166D02*
X144244140Y-80794928D01*
X144244140Y-80794928D02*
X144244140Y-80747309D01*
X144244140Y-80747309D02*
X144267949Y-80652071D01*
X144267949Y-80652071D02*
X144315568Y-80604452D01*
X144315568Y-80604452D02*
X144386997Y-80604452D01*
X144386997Y-80604452D02*
X144434616Y-80652071D01*
X144672711Y-81271119D02*
X144672711Y-80604452D01*
X144672711Y-80271119D02*
X144648902Y-80318738D01*
X144648902Y-80318738D02*
X144672711Y-80366357D01*
X144672711Y-80366357D02*
X144696521Y-80318738D01*
X144696521Y-80318738D02*
X144672711Y-80271119D01*
X144672711Y-80271119D02*
X144672711Y-80366357D01*
X144982235Y-81271119D02*
X144934616Y-81223500D01*
X144934616Y-81223500D02*
X144910806Y-81175880D01*
X144910806Y-81175880D02*
X144886997Y-81080642D01*
X144886997Y-81080642D02*
X144886997Y-80794928D01*
X144886997Y-80794928D02*
X144910806Y-80699690D01*
X144910806Y-80699690D02*
X144934616Y-80652071D01*
X144934616Y-80652071D02*
X144982235Y-80604452D01*
X144982235Y-80604452D02*
X145053663Y-80604452D01*
X145053663Y-80604452D02*
X145101282Y-80652071D01*
X145101282Y-80652071D02*
X145125092Y-80699690D01*
X145125092Y-80699690D02*
X145148901Y-80794928D01*
X145148901Y-80794928D02*
X145148901Y-81080642D01*
X145148901Y-81080642D02*
X145125092Y-81175880D01*
X145125092Y-81175880D02*
X145101282Y-81223500D01*
X145101282Y-81223500D02*
X145053663Y-81271119D01*
X145053663Y-81271119D02*
X144982235Y-81271119D01*
X145363187Y-80604452D02*
X145363187Y-81271119D01*
X145363187Y-80699690D02*
X145386997Y-80652071D01*
X145386997Y-80652071D02*
X145434616Y-80604452D01*
X145434616Y-80604452D02*
X145506044Y-80604452D01*
X145506044Y-80604452D02*
X145553663Y-80652071D01*
X145553663Y-80652071D02*
X145577473Y-80747309D01*
X145577473Y-80747309D02*
X145577473Y-81271119D01*
X146458425Y-81271119D02*
X146172711Y-81271119D01*
X146315568Y-81271119D02*
X146315568Y-80271119D01*
X146315568Y-80271119D02*
X146267949Y-80413976D01*
X146267949Y-80413976D02*
X146220330Y-80509214D01*
X146220330Y-80509214D02*
X146172711Y-80556833D01*
X146672710Y-81175880D02*
X146696520Y-81223500D01*
X146696520Y-81223500D02*
X146672710Y-81271119D01*
X146672710Y-81271119D02*
X146648901Y-81223500D01*
X146648901Y-81223500D02*
X146672710Y-81175880D01*
X146672710Y-81175880D02*
X146672710Y-81271119D01*
X147006043Y-80271119D02*
X147053662Y-80271119D01*
X147053662Y-80271119D02*
X147101281Y-80318738D01*
X147101281Y-80318738D02*
X147125091Y-80366357D01*
X147125091Y-80366357D02*
X147148900Y-80461595D01*
X147148900Y-80461595D02*
X147172710Y-80652071D01*
X147172710Y-80652071D02*
X147172710Y-80890166D01*
X147172710Y-80890166D02*
X147148900Y-81080642D01*
X147148900Y-81080642D02*
X147125091Y-81175880D01*
X147125091Y-81175880D02*
X147101281Y-81223500D01*
X147101281Y-81223500D02*
X147053662Y-81271119D01*
X147053662Y-81271119D02*
X147006043Y-81271119D01*
X147006043Y-81271119D02*
X146958424Y-81223500D01*
X146958424Y-81223500D02*
X146934615Y-81175880D01*
X146934615Y-81175880D02*
X146910805Y-81080642D01*
X146910805Y-81080642D02*
X146886996Y-80890166D01*
X146886996Y-80890166D02*
X146886996Y-80652071D01*
X146886996Y-80652071D02*
X146910805Y-80461595D01*
X146910805Y-80461595D02*
X146934615Y-80366357D01*
X146934615Y-80366357D02*
X146958424Y-80318738D01*
X146958424Y-80318738D02*
X147006043Y-80271119D01*
X147910804Y-81652071D02*
X147886995Y-81604452D01*
X147886995Y-81604452D02*
X147839376Y-81461595D01*
X147839376Y-81461595D02*
X147815566Y-81366357D01*
X147815566Y-81366357D02*
X147791757Y-81223500D01*
X147791757Y-81223500D02*
X147767947Y-80985404D01*
X147767947Y-80985404D02*
X147767947Y-80794928D01*
X147767947Y-80794928D02*
X147791757Y-80556833D01*
X147791757Y-80556833D02*
X147815566Y-80413976D01*
X147815566Y-80413976D02*
X147839376Y-80318738D01*
X147839376Y-80318738D02*
X147886995Y-80175880D01*
X147886995Y-80175880D02*
X147910804Y-80128261D01*
X148101280Y-80604452D02*
X148101280Y-81604452D01*
X148101280Y-80652071D02*
X148148899Y-80604452D01*
X148148899Y-80604452D02*
X148244137Y-80604452D01*
X148244137Y-80604452D02*
X148291756Y-80652071D01*
X148291756Y-80652071D02*
X148315566Y-80699690D01*
X148315566Y-80699690D02*
X148339375Y-80794928D01*
X148339375Y-80794928D02*
X148339375Y-81080642D01*
X148339375Y-81080642D02*
X148315566Y-81175880D01*
X148315566Y-81175880D02*
X148291756Y-81223500D01*
X148291756Y-81223500D02*
X148244137Y-81271119D01*
X148244137Y-81271119D02*
X148148899Y-81271119D01*
X148148899Y-81271119D02*
X148101280Y-81223500D01*
X148553661Y-81271119D02*
X148553661Y-80604452D01*
X148553661Y-80794928D02*
X148577471Y-80699690D01*
X148577471Y-80699690D02*
X148601280Y-80652071D01*
X148601280Y-80652071D02*
X148648899Y-80604452D01*
X148648899Y-80604452D02*
X148696518Y-80604452D01*
X148934614Y-81271119D02*
X148886995Y-81223500D01*
X148886995Y-81223500D02*
X148863185Y-81175880D01*
X148863185Y-81175880D02*
X148839376Y-81080642D01*
X148839376Y-81080642D02*
X148839376Y-80794928D01*
X148839376Y-80794928D02*
X148863185Y-80699690D01*
X148863185Y-80699690D02*
X148886995Y-80652071D01*
X148886995Y-80652071D02*
X148934614Y-80604452D01*
X148934614Y-80604452D02*
X149006042Y-80604452D01*
X149006042Y-80604452D02*
X149053661Y-80652071D01*
X149053661Y-80652071D02*
X149077471Y-80699690D01*
X149077471Y-80699690D02*
X149101280Y-80794928D01*
X149101280Y-80794928D02*
X149101280Y-81080642D01*
X149101280Y-81080642D02*
X149077471Y-81175880D01*
X149077471Y-81175880D02*
X149053661Y-81223500D01*
X149053661Y-81223500D02*
X149006042Y-81271119D01*
X149006042Y-81271119D02*
X148934614Y-81271119D01*
X149315566Y-81271119D02*
X149315566Y-80271119D01*
X149315566Y-80652071D02*
X149363185Y-80604452D01*
X149363185Y-80604452D02*
X149458423Y-80604452D01*
X149458423Y-80604452D02*
X149506042Y-80652071D01*
X149506042Y-80652071D02*
X149529852Y-80699690D01*
X149529852Y-80699690D02*
X149553661Y-80794928D01*
X149553661Y-80794928D02*
X149553661Y-81080642D01*
X149553661Y-81080642D02*
X149529852Y-81175880D01*
X149529852Y-81175880D02*
X149506042Y-81223500D01*
X149506042Y-81223500D02*
X149458423Y-81271119D01*
X149458423Y-81271119D02*
X149363185Y-81271119D01*
X149363185Y-81271119D02*
X149315566Y-81223500D01*
X149982233Y-81271119D02*
X149982233Y-80747309D01*
X149982233Y-80747309D02*
X149958423Y-80652071D01*
X149958423Y-80652071D02*
X149910804Y-80604452D01*
X149910804Y-80604452D02*
X149815566Y-80604452D01*
X149815566Y-80604452D02*
X149767947Y-80652071D01*
X149982233Y-81223500D02*
X149934614Y-81271119D01*
X149934614Y-81271119D02*
X149815566Y-81271119D01*
X149815566Y-81271119D02*
X149767947Y-81223500D01*
X149767947Y-81223500D02*
X149744138Y-81128261D01*
X149744138Y-81128261D02*
X149744138Y-81033023D01*
X149744138Y-81033023D02*
X149767947Y-80937785D01*
X149767947Y-80937785D02*
X149815566Y-80890166D01*
X149815566Y-80890166D02*
X149934614Y-80890166D01*
X149934614Y-80890166D02*
X149982233Y-80842547D01*
X150220328Y-81271119D02*
X150220328Y-80271119D01*
X150220328Y-80652071D02*
X150267947Y-80604452D01*
X150267947Y-80604452D02*
X150363185Y-80604452D01*
X150363185Y-80604452D02*
X150410804Y-80652071D01*
X150410804Y-80652071D02*
X150434614Y-80699690D01*
X150434614Y-80699690D02*
X150458423Y-80794928D01*
X150458423Y-80794928D02*
X150458423Y-81080642D01*
X150458423Y-81080642D02*
X150434614Y-81175880D01*
X150434614Y-81175880D02*
X150410804Y-81223500D01*
X150410804Y-81223500D02*
X150363185Y-81271119D01*
X150363185Y-81271119D02*
X150267947Y-81271119D01*
X150267947Y-81271119D02*
X150220328Y-81223500D01*
X150744138Y-81271119D02*
X150696519Y-81223500D01*
X150696519Y-81223500D02*
X150672709Y-81128261D01*
X150672709Y-81128261D02*
X150672709Y-80271119D01*
X150886995Y-80604452D02*
X151006043Y-81271119D01*
X151125090Y-80604452D02*
X151006043Y-81271119D01*
X151006043Y-81271119D02*
X150958424Y-81509214D01*
X150958424Y-81509214D02*
X150934614Y-81556833D01*
X150934614Y-81556833D02*
X150886995Y-81604452D01*
X151267947Y-81652071D02*
X151291757Y-81604452D01*
X151291757Y-81604452D02*
X151339376Y-81461595D01*
X151339376Y-81461595D02*
X151363185Y-81366357D01*
X151363185Y-81366357D02*
X151386995Y-81223500D01*
X151386995Y-81223500D02*
X151410804Y-80985404D01*
X151410804Y-80985404D02*
X151410804Y-80794928D01*
X151410804Y-80794928D02*
X151386995Y-80556833D01*
X151386995Y-80556833D02*
X151363185Y-80413976D01*
X151363185Y-80413976D02*
X151339376Y-80318738D01*
X151339376Y-80318738D02*
X151291757Y-80175880D01*
X151291757Y-80175880D02*
X151267947Y-80128261D01*
D11*
X128207768Y-72544838D02*
X128207768Y-70544838D01*
X128207768Y-70544838D02*
X129350625Y-72544838D01*
X129350625Y-72544838D02*
X129350625Y-70544838D01*
X134303007Y-72544838D02*
X133350626Y-72544838D01*
X133350626Y-72544838D02*
X133350626Y-70544838D01*
X138017294Y-72544838D02*
X138017294Y-70544838D01*
X138017294Y-70544838D02*
X138779199Y-70544838D01*
X138779199Y-70544838D02*
X138969675Y-70640076D01*
X138969675Y-70640076D02*
X139064913Y-70735314D01*
X139064913Y-70735314D02*
X139160151Y-70925790D01*
X139160151Y-70925790D02*
X139160151Y-71211504D01*
X139160151Y-71211504D02*
X139064913Y-71401980D01*
X139064913Y-71401980D02*
X138969675Y-71497219D01*
X138969675Y-71497219D02*
X138779199Y-71592457D01*
X138779199Y-71592457D02*
X138017294Y-71592457D01*
X140017294Y-71497219D02*
X140683961Y-71497219D01*
X140969675Y-72544838D02*
X140017294Y-72544838D01*
X140017294Y-72544838D02*
X140017294Y-70544838D01*
X140017294Y-70544838D02*
X140969675Y-70544838D01*
D10*
X173656265Y-84072419D02*
X173608646Y-84024800D01*
X173608646Y-84024800D02*
X173584836Y-83977180D01*
X173584836Y-83977180D02*
X173561027Y-83881942D01*
X173561027Y-83881942D02*
X173561027Y-83596228D01*
X173561027Y-83596228D02*
X173584836Y-83500990D01*
X173584836Y-83500990D02*
X173608646Y-83453371D01*
X173608646Y-83453371D02*
X173656265Y-83405752D01*
X173656265Y-83405752D02*
X173727693Y-83405752D01*
X173727693Y-83405752D02*
X173775312Y-83453371D01*
X173775312Y-83453371D02*
X173799122Y-83500990D01*
X173799122Y-83500990D02*
X173822931Y-83596228D01*
X173822931Y-83596228D02*
X173822931Y-83881942D01*
X173822931Y-83881942D02*
X173799122Y-83977180D01*
X173799122Y-83977180D02*
X173775312Y-84024800D01*
X173775312Y-84024800D02*
X173727693Y-84072419D01*
X173727693Y-84072419D02*
X173656265Y-84072419D01*
X174037217Y-83405752D02*
X174037217Y-84072419D01*
X174037217Y-83500990D02*
X174061027Y-83453371D01*
X174061027Y-83453371D02*
X174108646Y-83405752D01*
X174108646Y-83405752D02*
X174180074Y-83405752D01*
X174180074Y-83405752D02*
X174227693Y-83453371D01*
X174227693Y-83453371D02*
X174251503Y-83548609D01*
X174251503Y-83548609D02*
X174251503Y-84072419D01*
X174561027Y-84072419D02*
X174513408Y-84024800D01*
X174513408Y-84024800D02*
X174489598Y-83929561D01*
X174489598Y-83929561D02*
X174489598Y-83072419D01*
X174703884Y-83405752D02*
X174822932Y-84072419D01*
X174941979Y-83405752D02*
X174822932Y-84072419D01*
X174822932Y-84072419D02*
X174775313Y-84310514D01*
X174775313Y-84310514D02*
X174751503Y-84358133D01*
X174751503Y-84358133D02*
X174703884Y-84405752D01*
X175441979Y-83405752D02*
X175632455Y-83405752D01*
X175513407Y-84072419D02*
X175513407Y-83215276D01*
X175513407Y-83215276D02*
X175537217Y-83120038D01*
X175537217Y-83120038D02*
X175584836Y-83072419D01*
X175584836Y-83072419D02*
X175632455Y-83072419D01*
X175870550Y-84072419D02*
X175822931Y-84024800D01*
X175822931Y-84024800D02*
X175799121Y-83977180D01*
X175799121Y-83977180D02*
X175775312Y-83881942D01*
X175775312Y-83881942D02*
X175775312Y-83596228D01*
X175775312Y-83596228D02*
X175799121Y-83500990D01*
X175799121Y-83500990D02*
X175822931Y-83453371D01*
X175822931Y-83453371D02*
X175870550Y-83405752D01*
X175870550Y-83405752D02*
X175941978Y-83405752D01*
X175941978Y-83405752D02*
X175989597Y-83453371D01*
X175989597Y-83453371D02*
X176013407Y-83500990D01*
X176013407Y-83500990D02*
X176037216Y-83596228D01*
X176037216Y-83596228D02*
X176037216Y-83881942D01*
X176037216Y-83881942D02*
X176013407Y-83977180D01*
X176013407Y-83977180D02*
X175989597Y-84024800D01*
X175989597Y-84024800D02*
X175941978Y-84072419D01*
X175941978Y-84072419D02*
X175870550Y-84072419D01*
X176251502Y-84072419D02*
X176251502Y-83405752D01*
X176251502Y-83596228D02*
X176275312Y-83500990D01*
X176275312Y-83500990D02*
X176299121Y-83453371D01*
X176299121Y-83453371D02*
X176346740Y-83405752D01*
X176346740Y-83405752D02*
X176394359Y-83405752D01*
X177156264Y-84072419D02*
X177156264Y-83072419D01*
X177156264Y-84024800D02*
X177108645Y-84072419D01*
X177108645Y-84072419D02*
X177013407Y-84072419D01*
X177013407Y-84072419D02*
X176965788Y-84024800D01*
X176965788Y-84024800D02*
X176941978Y-83977180D01*
X176941978Y-83977180D02*
X176918169Y-83881942D01*
X176918169Y-83881942D02*
X176918169Y-83596228D01*
X176918169Y-83596228D02*
X176941978Y-83500990D01*
X176941978Y-83500990D02*
X176965788Y-83453371D01*
X176965788Y-83453371D02*
X177013407Y-83405752D01*
X177013407Y-83405752D02*
X177108645Y-83405752D01*
X177108645Y-83405752D02*
X177156264Y-83453371D01*
X177584835Y-84024800D02*
X177537216Y-84072419D01*
X177537216Y-84072419D02*
X177441978Y-84072419D01*
X177441978Y-84072419D02*
X177394359Y-84024800D01*
X177394359Y-84024800D02*
X177370550Y-83929561D01*
X177370550Y-83929561D02*
X177370550Y-83548609D01*
X177370550Y-83548609D02*
X177394359Y-83453371D01*
X177394359Y-83453371D02*
X177441978Y-83405752D01*
X177441978Y-83405752D02*
X177537216Y-83405752D01*
X177537216Y-83405752D02*
X177584835Y-83453371D01*
X177584835Y-83453371D02*
X177608645Y-83548609D01*
X177608645Y-83548609D02*
X177608645Y-83643847D01*
X177608645Y-83643847D02*
X177370550Y-83739085D01*
X177822930Y-84072419D02*
X177822930Y-83072419D01*
X177822930Y-83453371D02*
X177870549Y-83405752D01*
X177870549Y-83405752D02*
X177965787Y-83405752D01*
X177965787Y-83405752D02*
X178013406Y-83453371D01*
X178013406Y-83453371D02*
X178037216Y-83500990D01*
X178037216Y-83500990D02*
X178061025Y-83596228D01*
X178061025Y-83596228D02*
X178061025Y-83881942D01*
X178061025Y-83881942D02*
X178037216Y-83977180D01*
X178037216Y-83977180D02*
X178013406Y-84024800D01*
X178013406Y-84024800D02*
X177965787Y-84072419D01*
X177965787Y-84072419D02*
X177870549Y-84072419D01*
X177870549Y-84072419D02*
X177822930Y-84024800D01*
X178489597Y-83405752D02*
X178489597Y-84072419D01*
X178275311Y-83405752D02*
X178275311Y-83929561D01*
X178275311Y-83929561D02*
X178299121Y-84024800D01*
X178299121Y-84024800D02*
X178346740Y-84072419D01*
X178346740Y-84072419D02*
X178418168Y-84072419D01*
X178418168Y-84072419D02*
X178465787Y-84024800D01*
X178465787Y-84024800D02*
X178489597Y-83977180D01*
X178941978Y-83405752D02*
X178941978Y-84215276D01*
X178941978Y-84215276D02*
X178918168Y-84310514D01*
X178918168Y-84310514D02*
X178894359Y-84358133D01*
X178894359Y-84358133D02*
X178846740Y-84405752D01*
X178846740Y-84405752D02*
X178775311Y-84405752D01*
X178775311Y-84405752D02*
X178727692Y-84358133D01*
X178941978Y-84024800D02*
X178894359Y-84072419D01*
X178894359Y-84072419D02*
X178799121Y-84072419D01*
X178799121Y-84072419D02*
X178751502Y-84024800D01*
X178751502Y-84024800D02*
X178727692Y-83977180D01*
X178727692Y-83977180D02*
X178703883Y-83881942D01*
X178703883Y-83881942D02*
X178703883Y-83596228D01*
X178703883Y-83596228D02*
X178727692Y-83500990D01*
X178727692Y-83500990D02*
X178751502Y-83453371D01*
X178751502Y-83453371D02*
X178799121Y-83405752D01*
X178799121Y-83405752D02*
X178894359Y-83405752D01*
X178894359Y-83405752D02*
X178941978Y-83453371D01*
X169049122Y-49105752D02*
X169049122Y-49772419D01*
X168930074Y-48724800D02*
X168811027Y-49439085D01*
X168811027Y-49439085D02*
X169120550Y-49439085D01*
X169311026Y-49772419D02*
X169311026Y-48772419D01*
X169596740Y-49772419D02*
X169382455Y-49200990D01*
X169596740Y-48772419D02*
X169311026Y-49343847D01*
X169763407Y-48772419D02*
X170096740Y-48772419D01*
X170096740Y-48772419D02*
X169882455Y-49772419D01*
X172384836Y-43562475D02*
X172384836Y-42562475D01*
X172599122Y-42324379D02*
X172646741Y-42276760D01*
X172646741Y-42276760D02*
X172718169Y-42276760D01*
X172718169Y-42276760D02*
X172765788Y-42324379D01*
X172765788Y-42324379D02*
X172789598Y-42419617D01*
X172789598Y-42419617D02*
X172789598Y-42514856D01*
X172789598Y-42514856D02*
X172765788Y-42610094D01*
X172765788Y-42610094D02*
X172599122Y-42943427D01*
X172599122Y-42943427D02*
X172789598Y-42943427D01*
X173289597Y-43467236D02*
X173265788Y-43514856D01*
X173265788Y-43514856D02*
X173194359Y-43562475D01*
X173194359Y-43562475D02*
X173146740Y-43562475D01*
X173146740Y-43562475D02*
X173075312Y-43514856D01*
X173075312Y-43514856D02*
X173027693Y-43419617D01*
X173027693Y-43419617D02*
X173003883Y-43324379D01*
X173003883Y-43324379D02*
X172980074Y-43133903D01*
X172980074Y-43133903D02*
X172980074Y-42991046D01*
X172980074Y-42991046D02*
X173003883Y-42800570D01*
X173003883Y-42800570D02*
X173027693Y-42705332D01*
X173027693Y-42705332D02*
X173075312Y-42610094D01*
X173075312Y-42610094D02*
X173146740Y-42562475D01*
X173146740Y-42562475D02*
X173194359Y-42562475D01*
X173194359Y-42562475D02*
X173265788Y-42610094D01*
X173265788Y-42610094D02*
X173289597Y-42657713D01*
X173884835Y-43038665D02*
X174051502Y-43038665D01*
X174122930Y-43562475D02*
X173884835Y-43562475D01*
X173884835Y-43562475D02*
X173884835Y-42562475D01*
X173884835Y-42562475D02*
X174122930Y-42562475D01*
X174337216Y-43562475D02*
X174337216Y-42562475D01*
X174337216Y-42562475D02*
X174622930Y-43562475D01*
X174622930Y-43562475D02*
X174622930Y-42562475D01*
X172361027Y-45124800D02*
X172432455Y-45172419D01*
X172432455Y-45172419D02*
X172551503Y-45172419D01*
X172551503Y-45172419D02*
X172599122Y-45124800D01*
X172599122Y-45124800D02*
X172622931Y-45077180D01*
X172622931Y-45077180D02*
X172646741Y-44981942D01*
X172646741Y-44981942D02*
X172646741Y-44886704D01*
X172646741Y-44886704D02*
X172622931Y-44791466D01*
X172622931Y-44791466D02*
X172599122Y-44743847D01*
X172599122Y-44743847D02*
X172551503Y-44696228D01*
X172551503Y-44696228D02*
X172456265Y-44648609D01*
X172456265Y-44648609D02*
X172408646Y-44600990D01*
X172408646Y-44600990D02*
X172384836Y-44553371D01*
X172384836Y-44553371D02*
X172361027Y-44458133D01*
X172361027Y-44458133D02*
X172361027Y-44362895D01*
X172361027Y-44362895D02*
X172384836Y-44267657D01*
X172384836Y-44267657D02*
X172408646Y-44220038D01*
X172408646Y-44220038D02*
X172456265Y-44172419D01*
X172456265Y-44172419D02*
X172575312Y-44172419D01*
X172575312Y-44172419D02*
X172646741Y-44220038D01*
X172932455Y-45172419D02*
X172884836Y-45124800D01*
X172884836Y-45124800D02*
X172861026Y-45077180D01*
X172861026Y-45077180D02*
X172837217Y-44981942D01*
X172837217Y-44981942D02*
X172837217Y-44696228D01*
X172837217Y-44696228D02*
X172861026Y-44600990D01*
X172861026Y-44600990D02*
X172884836Y-44553371D01*
X172884836Y-44553371D02*
X172932455Y-44505752D01*
X172932455Y-44505752D02*
X173003883Y-44505752D01*
X173003883Y-44505752D02*
X173051502Y-44553371D01*
X173051502Y-44553371D02*
X173075312Y-44600990D01*
X173075312Y-44600990D02*
X173099121Y-44696228D01*
X173099121Y-44696228D02*
X173099121Y-44981942D01*
X173099121Y-44981942D02*
X173075312Y-45077180D01*
X173075312Y-45077180D02*
X173051502Y-45124800D01*
X173051502Y-45124800D02*
X173003883Y-45172419D01*
X173003883Y-45172419D02*
X172932455Y-45172419D01*
X173384836Y-45172419D02*
X173337217Y-45124800D01*
X173337217Y-45124800D02*
X173313407Y-45029561D01*
X173313407Y-45029561D02*
X173313407Y-44172419D01*
X173789598Y-45172419D02*
X173789598Y-44172419D01*
X173789598Y-45124800D02*
X173741979Y-45172419D01*
X173741979Y-45172419D02*
X173646741Y-45172419D01*
X173646741Y-45172419D02*
X173599122Y-45124800D01*
X173599122Y-45124800D02*
X173575312Y-45077180D01*
X173575312Y-45077180D02*
X173551503Y-44981942D01*
X173551503Y-44981942D02*
X173551503Y-44696228D01*
X173551503Y-44696228D02*
X173575312Y-44600990D01*
X173575312Y-44600990D02*
X173599122Y-44553371D01*
X173599122Y-44553371D02*
X173646741Y-44505752D01*
X173646741Y-44505752D02*
X173741979Y-44505752D01*
X173741979Y-44505752D02*
X173789598Y-44553371D01*
X174218169Y-45124800D02*
X174170550Y-45172419D01*
X174170550Y-45172419D02*
X174075312Y-45172419D01*
X174075312Y-45172419D02*
X174027693Y-45124800D01*
X174027693Y-45124800D02*
X174003884Y-45029561D01*
X174003884Y-45029561D02*
X174003884Y-44648609D01*
X174003884Y-44648609D02*
X174027693Y-44553371D01*
X174027693Y-44553371D02*
X174075312Y-44505752D01*
X174075312Y-44505752D02*
X174170550Y-44505752D01*
X174170550Y-44505752D02*
X174218169Y-44553371D01*
X174218169Y-44553371D02*
X174241979Y-44648609D01*
X174241979Y-44648609D02*
X174241979Y-44743847D01*
X174241979Y-44743847D02*
X174003884Y-44839085D01*
X174456264Y-45172419D02*
X174456264Y-44505752D01*
X174456264Y-44696228D02*
X174480074Y-44600990D01*
X174480074Y-44600990D02*
X174503883Y-44553371D01*
X174503883Y-44553371D02*
X174551502Y-44505752D01*
X174551502Y-44505752D02*
X174599121Y-44505752D01*
X175146740Y-45172419D02*
X175146740Y-44172419D01*
X175146740Y-44553371D02*
X175194359Y-44505752D01*
X175194359Y-44505752D02*
X175289597Y-44505752D01*
X175289597Y-44505752D02*
X175337216Y-44553371D01*
X175337216Y-44553371D02*
X175361026Y-44600990D01*
X175361026Y-44600990D02*
X175384835Y-44696228D01*
X175384835Y-44696228D02*
X175384835Y-44981942D01*
X175384835Y-44981942D02*
X175361026Y-45077180D01*
X175361026Y-45077180D02*
X175337216Y-45124800D01*
X175337216Y-45124800D02*
X175289597Y-45172419D01*
X175289597Y-45172419D02*
X175194359Y-45172419D01*
X175194359Y-45172419D02*
X175146740Y-45124800D01*
X175670550Y-45172419D02*
X175622931Y-45124800D01*
X175622931Y-45124800D02*
X175599121Y-45077180D01*
X175599121Y-45077180D02*
X175575312Y-44981942D01*
X175575312Y-44981942D02*
X175575312Y-44696228D01*
X175575312Y-44696228D02*
X175599121Y-44600990D01*
X175599121Y-44600990D02*
X175622931Y-44553371D01*
X175622931Y-44553371D02*
X175670550Y-44505752D01*
X175670550Y-44505752D02*
X175741978Y-44505752D01*
X175741978Y-44505752D02*
X175789597Y-44553371D01*
X175789597Y-44553371D02*
X175813407Y-44600990D01*
X175813407Y-44600990D02*
X175837216Y-44696228D01*
X175837216Y-44696228D02*
X175837216Y-44981942D01*
X175837216Y-44981942D02*
X175813407Y-45077180D01*
X175813407Y-45077180D02*
X175789597Y-45124800D01*
X175789597Y-45124800D02*
X175741978Y-45172419D01*
X175741978Y-45172419D02*
X175670550Y-45172419D01*
X175980074Y-44505752D02*
X176170550Y-44505752D01*
X176051502Y-44172419D02*
X176051502Y-45029561D01*
X176051502Y-45029561D02*
X176075312Y-45124800D01*
X176075312Y-45124800D02*
X176122931Y-45172419D01*
X176122931Y-45172419D02*
X176170550Y-45172419D01*
X176337216Y-45172419D02*
X176337216Y-44172419D01*
X176551502Y-45172419D02*
X176551502Y-44648609D01*
X176551502Y-44648609D02*
X176527692Y-44553371D01*
X176527692Y-44553371D02*
X176480073Y-44505752D01*
X176480073Y-44505752D02*
X176408645Y-44505752D01*
X176408645Y-44505752D02*
X176361026Y-44553371D01*
X176361026Y-44553371D02*
X176337216Y-44600990D01*
X177170549Y-44648609D02*
X177551502Y-44648609D01*
X177551502Y-44934323D02*
X177170549Y-44934323D01*
X178265787Y-44172419D02*
X178361025Y-44172419D01*
X178361025Y-44172419D02*
X178408644Y-44220038D01*
X178408644Y-44220038D02*
X178456263Y-44315276D01*
X178456263Y-44315276D02*
X178480073Y-44505752D01*
X178480073Y-44505752D02*
X178480073Y-44839085D01*
X178480073Y-44839085D02*
X178456263Y-45029561D01*
X178456263Y-45029561D02*
X178408644Y-45124800D01*
X178408644Y-45124800D02*
X178361025Y-45172419D01*
X178361025Y-45172419D02*
X178265787Y-45172419D01*
X178265787Y-45172419D02*
X178218168Y-45124800D01*
X178218168Y-45124800D02*
X178170549Y-45029561D01*
X178170549Y-45029561D02*
X178146740Y-44839085D01*
X178146740Y-44839085D02*
X178146740Y-44505752D01*
X178146740Y-44505752D02*
X178170549Y-44315276D01*
X178170549Y-44315276D02*
X178218168Y-44220038D01*
X178218168Y-44220038D02*
X178265787Y-44172419D01*
X178694359Y-45172419D02*
X178694359Y-44172419D01*
X178694359Y-44172419D02*
X178980073Y-45172419D01*
X178980073Y-45172419D02*
X178980073Y-44172419D01*
D12*
X115353664Y-70351231D02*
X115472712Y-71351231D01*
X115472712Y-71351231D02*
X115567950Y-70636945D01*
X115567950Y-70636945D02*
X115663188Y-71351231D01*
X115663188Y-71351231D02*
X115782236Y-70351231D01*
X115948903Y-71065516D02*
X116186998Y-71065516D01*
X115901284Y-71351231D02*
X116067950Y-70351231D01*
X116067950Y-70351231D02*
X116234617Y-71351231D01*
X116686997Y-71351231D02*
X116520331Y-70875040D01*
X116401283Y-71351231D02*
X116401283Y-70351231D01*
X116401283Y-70351231D02*
X116591759Y-70351231D01*
X116591759Y-70351231D02*
X116639378Y-70398850D01*
X116639378Y-70398850D02*
X116663188Y-70446469D01*
X116663188Y-70446469D02*
X116686997Y-70541707D01*
X116686997Y-70541707D02*
X116686997Y-70684564D01*
X116686997Y-70684564D02*
X116663188Y-70779802D01*
X116663188Y-70779802D02*
X116639378Y-70827421D01*
X116639378Y-70827421D02*
X116591759Y-70875040D01*
X116591759Y-70875040D02*
X116401283Y-70875040D01*
X116901283Y-71351231D02*
X116901283Y-70351231D01*
X116901283Y-70351231D02*
X117186997Y-71351231D01*
X117186997Y-71351231D02*
X117186997Y-70351231D01*
X117425093Y-71351231D02*
X117425093Y-70351231D01*
X117663188Y-71351231D02*
X117663188Y-70351231D01*
X117663188Y-70351231D02*
X117948902Y-71351231D01*
X117948902Y-71351231D02*
X117948902Y-70351231D01*
X118448903Y-70398850D02*
X118401284Y-70351231D01*
X118401284Y-70351231D02*
X118329855Y-70351231D01*
X118329855Y-70351231D02*
X118258427Y-70398850D01*
X118258427Y-70398850D02*
X118210808Y-70494088D01*
X118210808Y-70494088D02*
X118186998Y-70589326D01*
X118186998Y-70589326D02*
X118163189Y-70779802D01*
X118163189Y-70779802D02*
X118163189Y-70922659D01*
X118163189Y-70922659D02*
X118186998Y-71113135D01*
X118186998Y-71113135D02*
X118210808Y-71208373D01*
X118210808Y-71208373D02*
X118258427Y-71303612D01*
X118258427Y-71303612D02*
X118329855Y-71351231D01*
X118329855Y-71351231D02*
X118377474Y-71351231D01*
X118377474Y-71351231D02*
X118448903Y-71303612D01*
X118448903Y-71303612D02*
X118472712Y-71255992D01*
X118472712Y-71255992D02*
X118472712Y-70922659D01*
X118472712Y-70922659D02*
X118377474Y-70922659D01*
X118686998Y-71255992D02*
X118710808Y-71303612D01*
X118710808Y-71303612D02*
X118686998Y-71351231D01*
X118686998Y-71351231D02*
X118663189Y-71303612D01*
X118663189Y-71303612D02*
X118686998Y-71255992D01*
X118686998Y-71255992D02*
X118686998Y-71351231D01*
X118686998Y-70732183D02*
X118710808Y-70779802D01*
X118710808Y-70779802D02*
X118686998Y-70827421D01*
X118686998Y-70827421D02*
X118663189Y-70779802D01*
X118663189Y-70779802D02*
X118686998Y-70732183D01*
X118686998Y-70732183D02*
X118686998Y-70827421D01*
X119282236Y-70446469D02*
X119306045Y-70398850D01*
X119306045Y-70398850D02*
X119353664Y-70351231D01*
X119353664Y-70351231D02*
X119472712Y-70351231D01*
X119472712Y-70351231D02*
X119520331Y-70398850D01*
X119520331Y-70398850D02*
X119544140Y-70446469D01*
X119544140Y-70446469D02*
X119567950Y-70541707D01*
X119567950Y-70541707D02*
X119567950Y-70636945D01*
X119567950Y-70636945D02*
X119544140Y-70779802D01*
X119544140Y-70779802D02*
X119258426Y-71351231D01*
X119258426Y-71351231D02*
X119567950Y-71351231D01*
X119734616Y-70351231D02*
X120044140Y-70351231D01*
X120044140Y-70351231D02*
X119877473Y-70732183D01*
X119877473Y-70732183D02*
X119948902Y-70732183D01*
X119948902Y-70732183D02*
X119996521Y-70779802D01*
X119996521Y-70779802D02*
X120020330Y-70827421D01*
X120020330Y-70827421D02*
X120044140Y-70922659D01*
X120044140Y-70922659D02*
X120044140Y-71160754D01*
X120044140Y-71160754D02*
X120020330Y-71255992D01*
X120020330Y-71255992D02*
X119996521Y-71303612D01*
X119996521Y-71303612D02*
X119948902Y-71351231D01*
X119948902Y-71351231D02*
X119806045Y-71351231D01*
X119806045Y-71351231D02*
X119758426Y-71303612D01*
X119758426Y-71303612D02*
X119734616Y-71255992D01*
X120353663Y-70351231D02*
X120401282Y-70351231D01*
X120401282Y-70351231D02*
X120448901Y-70398850D01*
X120448901Y-70398850D02*
X120472711Y-70446469D01*
X120472711Y-70446469D02*
X120496520Y-70541707D01*
X120496520Y-70541707D02*
X120520330Y-70732183D01*
X120520330Y-70732183D02*
X120520330Y-70970278D01*
X120520330Y-70970278D02*
X120496520Y-71160754D01*
X120496520Y-71160754D02*
X120472711Y-71255992D01*
X120472711Y-71255992D02*
X120448901Y-71303612D01*
X120448901Y-71303612D02*
X120401282Y-71351231D01*
X120401282Y-71351231D02*
X120353663Y-71351231D01*
X120353663Y-71351231D02*
X120306044Y-71303612D01*
X120306044Y-71303612D02*
X120282235Y-71255992D01*
X120282235Y-71255992D02*
X120258425Y-71160754D01*
X120258425Y-71160754D02*
X120234616Y-70970278D01*
X120234616Y-70970278D02*
X120234616Y-70732183D01*
X120234616Y-70732183D02*
X120258425Y-70541707D01*
X120258425Y-70541707D02*
X120282235Y-70446469D01*
X120282235Y-70446469D02*
X120306044Y-70398850D01*
X120306044Y-70398850D02*
X120353663Y-70351231D01*
X121044139Y-70351231D02*
X121210805Y-71351231D01*
X121210805Y-71351231D02*
X121377472Y-70351231D01*
X121901281Y-71065516D02*
X122139376Y-71065516D01*
X121853662Y-71351231D02*
X122020328Y-70351231D01*
X122020328Y-70351231D02*
X122186995Y-71351231D01*
X122639375Y-71255992D02*
X122615566Y-71303612D01*
X122615566Y-71303612D02*
X122544137Y-71351231D01*
X122544137Y-71351231D02*
X122496518Y-71351231D01*
X122496518Y-71351231D02*
X122425090Y-71303612D01*
X122425090Y-71303612D02*
X122377471Y-71208373D01*
X122377471Y-71208373D02*
X122353661Y-71113135D01*
X122353661Y-71113135D02*
X122329852Y-70922659D01*
X122329852Y-70922659D02*
X122329852Y-70779802D01*
X122329852Y-70779802D02*
X122353661Y-70589326D01*
X122353661Y-70589326D02*
X122377471Y-70494088D01*
X122377471Y-70494088D02*
X122425090Y-70398850D01*
X122425090Y-70398850D02*
X122496518Y-70351231D01*
X122496518Y-70351231D02*
X122544137Y-70351231D01*
X122544137Y-70351231D02*
X122615566Y-70398850D01*
X122615566Y-70398850D02*
X122639375Y-70446469D01*
X115401283Y-74475880D02*
X115425093Y-74523500D01*
X115425093Y-74523500D02*
X115401283Y-74571119D01*
X115401283Y-74571119D02*
X115377474Y-74523500D01*
X115377474Y-74523500D02*
X115401283Y-74475880D01*
X115401283Y-74475880D02*
X115401283Y-74571119D01*
X115401283Y-74190166D02*
X115377474Y-73618738D01*
X115377474Y-73618738D02*
X115401283Y-73571119D01*
X115401283Y-73571119D02*
X115425093Y-73618738D01*
X115425093Y-73618738D02*
X115401283Y-74190166D01*
X115401283Y-74190166D02*
X115401283Y-73571119D01*
X115639378Y-74571119D02*
X115639378Y-73571119D01*
X115639378Y-73571119D02*
X115758426Y-73571119D01*
X115758426Y-73571119D02*
X115829854Y-73618738D01*
X115829854Y-73618738D02*
X115877473Y-73713976D01*
X115877473Y-73713976D02*
X115901283Y-73809214D01*
X115901283Y-73809214D02*
X115925092Y-73999690D01*
X115925092Y-73999690D02*
X115925092Y-74142547D01*
X115925092Y-74142547D02*
X115901283Y-74333023D01*
X115901283Y-74333023D02*
X115877473Y-74428261D01*
X115877473Y-74428261D02*
X115829854Y-74523500D01*
X115829854Y-74523500D02*
X115758426Y-74571119D01*
X115758426Y-74571119D02*
X115639378Y-74571119D01*
X116234616Y-73571119D02*
X116329854Y-73571119D01*
X116329854Y-73571119D02*
X116377473Y-73618738D01*
X116377473Y-73618738D02*
X116425092Y-73713976D01*
X116425092Y-73713976D02*
X116448902Y-73904452D01*
X116448902Y-73904452D02*
X116448902Y-74237785D01*
X116448902Y-74237785D02*
X116425092Y-74428261D01*
X116425092Y-74428261D02*
X116377473Y-74523500D01*
X116377473Y-74523500D02*
X116329854Y-74571119D01*
X116329854Y-74571119D02*
X116234616Y-74571119D01*
X116234616Y-74571119D02*
X116186997Y-74523500D01*
X116186997Y-74523500D02*
X116139378Y-74428261D01*
X116139378Y-74428261D02*
X116115569Y-74237785D01*
X116115569Y-74237785D02*
X116115569Y-73904452D01*
X116115569Y-73904452D02*
X116139378Y-73713976D01*
X116139378Y-73713976D02*
X116186997Y-73618738D01*
X116186997Y-73618738D02*
X116234616Y-73571119D01*
X117044140Y-74571119D02*
X117044140Y-73571119D01*
X117044140Y-73571119D02*
X117329854Y-74571119D01*
X117329854Y-74571119D02*
X117329854Y-73571119D01*
X117663188Y-73571119D02*
X117758426Y-73571119D01*
X117758426Y-73571119D02*
X117806045Y-73618738D01*
X117806045Y-73618738D02*
X117853664Y-73713976D01*
X117853664Y-73713976D02*
X117877474Y-73904452D01*
X117877474Y-73904452D02*
X117877474Y-74237785D01*
X117877474Y-74237785D02*
X117853664Y-74428261D01*
X117853664Y-74428261D02*
X117806045Y-74523500D01*
X117806045Y-74523500D02*
X117758426Y-74571119D01*
X117758426Y-74571119D02*
X117663188Y-74571119D01*
X117663188Y-74571119D02*
X117615569Y-74523500D01*
X117615569Y-74523500D02*
X117567950Y-74428261D01*
X117567950Y-74428261D02*
X117544141Y-74237785D01*
X117544141Y-74237785D02*
X117544141Y-73904452D01*
X117544141Y-73904452D02*
X117567950Y-73713976D01*
X117567950Y-73713976D02*
X117615569Y-73618738D01*
X117615569Y-73618738D02*
X117663188Y-73571119D01*
X118020332Y-73571119D02*
X118306046Y-73571119D01*
X118163189Y-74571119D02*
X118163189Y-73571119D01*
X118782236Y-73571119D02*
X119067950Y-73571119D01*
X118925093Y-74571119D02*
X118925093Y-73571119D01*
X119329854Y-73571119D02*
X119425092Y-73571119D01*
X119425092Y-73571119D02*
X119472711Y-73618738D01*
X119472711Y-73618738D02*
X119520330Y-73713976D01*
X119520330Y-73713976D02*
X119544140Y-73904452D01*
X119544140Y-73904452D02*
X119544140Y-74237785D01*
X119544140Y-74237785D02*
X119520330Y-74428261D01*
X119520330Y-74428261D02*
X119472711Y-74523500D01*
X119472711Y-74523500D02*
X119425092Y-74571119D01*
X119425092Y-74571119D02*
X119329854Y-74571119D01*
X119329854Y-74571119D02*
X119282235Y-74523500D01*
X119282235Y-74523500D02*
X119234616Y-74428261D01*
X119234616Y-74428261D02*
X119210807Y-74237785D01*
X119210807Y-74237785D02*
X119210807Y-73904452D01*
X119210807Y-73904452D02*
X119234616Y-73713976D01*
X119234616Y-73713976D02*
X119282235Y-73618738D01*
X119282235Y-73618738D02*
X119329854Y-73571119D01*
X119758426Y-73571119D02*
X119758426Y-74380642D01*
X119758426Y-74380642D02*
X119782236Y-74475880D01*
X119782236Y-74475880D02*
X119806045Y-74523500D01*
X119806045Y-74523500D02*
X119853664Y-74571119D01*
X119853664Y-74571119D02*
X119948902Y-74571119D01*
X119948902Y-74571119D02*
X119996521Y-74523500D01*
X119996521Y-74523500D02*
X120020331Y-74475880D01*
X120020331Y-74475880D02*
X120044140Y-74380642D01*
X120044140Y-74380642D02*
X120044140Y-73571119D01*
X120567950Y-74475880D02*
X120544141Y-74523500D01*
X120544141Y-74523500D02*
X120472712Y-74571119D01*
X120472712Y-74571119D02*
X120425093Y-74571119D01*
X120425093Y-74571119D02*
X120353665Y-74523500D01*
X120353665Y-74523500D02*
X120306046Y-74428261D01*
X120306046Y-74428261D02*
X120282236Y-74333023D01*
X120282236Y-74333023D02*
X120258427Y-74142547D01*
X120258427Y-74142547D02*
X120258427Y-73999690D01*
X120258427Y-73999690D02*
X120282236Y-73809214D01*
X120282236Y-73809214D02*
X120306046Y-73713976D01*
X120306046Y-73713976D02*
X120353665Y-73618738D01*
X120353665Y-73618738D02*
X120425093Y-73571119D01*
X120425093Y-73571119D02*
X120472712Y-73571119D01*
X120472712Y-73571119D02*
X120544141Y-73618738D01*
X120544141Y-73618738D02*
X120567950Y-73666357D01*
X120782236Y-74571119D02*
X120782236Y-73571119D01*
X120782236Y-74047309D02*
X121067950Y-74047309D01*
X121067950Y-74571119D02*
X121067950Y-73571119D01*
X121306046Y-74475880D02*
X121329856Y-74523500D01*
X121329856Y-74523500D02*
X121306046Y-74571119D01*
X121306046Y-74571119D02*
X121282237Y-74523500D01*
X121282237Y-74523500D02*
X121306046Y-74475880D01*
X121306046Y-74475880D02*
X121306046Y-74571119D01*
X121306046Y-74190166D02*
X121282237Y-73618738D01*
X121282237Y-73618738D02*
X121306046Y-73571119D01*
X121306046Y-73571119D02*
X121329856Y-73618738D01*
X121329856Y-73618738D02*
X121306046Y-74190166D01*
X121306046Y-74190166D02*
X121306046Y-73571119D01*
D11*
X178367219Y-81954136D02*
X178367219Y-82430326D01*
X178367219Y-82430326D02*
X178843409Y-82477945D01*
X178843409Y-82477945D02*
X178795790Y-82430326D01*
X178795790Y-82430326D02*
X178748171Y-82335088D01*
X178748171Y-82335088D02*
X178748171Y-82096993D01*
X178748171Y-82096993D02*
X178795790Y-82001755D01*
X178795790Y-82001755D02*
X178843409Y-81954136D01*
X178843409Y-81954136D02*
X178938647Y-81906517D01*
X178938647Y-81906517D02*
X179176742Y-81906517D01*
X179176742Y-81906517D02*
X179271980Y-81954136D01*
X179271980Y-81954136D02*
X179319600Y-82001755D01*
X179319600Y-82001755D02*
X179367219Y-82096993D01*
X179367219Y-82096993D02*
X179367219Y-82335088D01*
X179367219Y-82335088D02*
X179319600Y-82430326D01*
X179319600Y-82430326D02*
X179271980Y-82477945D01*
X178367219Y-81620802D02*
X179367219Y-81287469D01*
X179367219Y-81287469D02*
X178367219Y-80954136D01*
X178367219Y-80430326D02*
X178367219Y-80335088D01*
X178367219Y-80335088D02*
X178414838Y-80239850D01*
X178414838Y-80239850D02*
X178462457Y-80192231D01*
X178462457Y-80192231D02*
X178557695Y-80144612D01*
X178557695Y-80144612D02*
X178748171Y-80096993D01*
X178748171Y-80096993D02*
X178986266Y-80096993D01*
X178986266Y-80096993D02*
X179176742Y-80144612D01*
X179176742Y-80144612D02*
X179271980Y-80192231D01*
X179271980Y-80192231D02*
X179319600Y-80239850D01*
X179319600Y-80239850D02*
X179367219Y-80335088D01*
X179367219Y-80335088D02*
X179367219Y-80430326D01*
X179367219Y-80430326D02*
X179319600Y-80525564D01*
X179319600Y-80525564D02*
X179271980Y-80573183D01*
X179271980Y-80573183D02*
X179176742Y-80620802D01*
X179176742Y-80620802D02*
X178986266Y-80668421D01*
X178986266Y-80668421D02*
X178748171Y-80668421D01*
X178748171Y-80668421D02*
X178557695Y-80620802D01*
X178557695Y-80620802D02*
X178462457Y-80573183D01*
X178462457Y-80573183D02*
X178414838Y-80525564D01*
X178414838Y-80525564D02*
X178367219Y-80430326D01*
X166267219Y-46458898D02*
X166267219Y-46916041D01*
X166267219Y-46687469D02*
X165267219Y-46687469D01*
X165267219Y-46687469D02*
X165410076Y-46763660D01*
X165410076Y-46763660D02*
X165505314Y-46839850D01*
X165505314Y-46839850D02*
X165552933Y-46916041D01*
X165267219Y-45963659D02*
X165267219Y-45887469D01*
X165267219Y-45887469D02*
X165314838Y-45811278D01*
X165314838Y-45811278D02*
X165362457Y-45773183D01*
X165362457Y-45773183D02*
X165457695Y-45735088D01*
X165457695Y-45735088D02*
X165648171Y-45696993D01*
X165648171Y-45696993D02*
X165886266Y-45696993D01*
X165886266Y-45696993D02*
X166076742Y-45735088D01*
X166076742Y-45735088D02*
X166171980Y-45773183D01*
X166171980Y-45773183D02*
X166219600Y-45811278D01*
X166219600Y-45811278D02*
X166267219Y-45887469D01*
X166267219Y-45887469D02*
X166267219Y-45963659D01*
X166267219Y-45963659D02*
X166219600Y-46039850D01*
X166219600Y-46039850D02*
X166171980Y-46077945D01*
X166171980Y-46077945D02*
X166076742Y-46116040D01*
X166076742Y-46116040D02*
X165886266Y-46154136D01*
X165886266Y-46154136D02*
X165648171Y-46154136D01*
X165648171Y-46154136D02*
X165457695Y-46116040D01*
X165457695Y-46116040D02*
X165362457Y-46077945D01*
X165362457Y-46077945D02*
X165314838Y-46039850D01*
X165314838Y-46039850D02*
X165267219Y-45963659D01*
X165267219Y-45201754D02*
X165267219Y-45125564D01*
X165267219Y-45125564D02*
X165314838Y-45049373D01*
X165314838Y-45049373D02*
X165362457Y-45011278D01*
X165362457Y-45011278D02*
X165457695Y-44973183D01*
X165457695Y-44973183D02*
X165648171Y-44935088D01*
X165648171Y-44935088D02*
X165886266Y-44935088D01*
X165886266Y-44935088D02*
X166076742Y-44973183D01*
X166076742Y-44973183D02*
X166171980Y-45011278D01*
X166171980Y-45011278D02*
X166219600Y-45049373D01*
X166219600Y-45049373D02*
X166267219Y-45125564D01*
X166267219Y-45125564D02*
X166267219Y-45201754D01*
X166267219Y-45201754D02*
X166219600Y-45277945D01*
X166219600Y-45277945D02*
X166171980Y-45316040D01*
X166171980Y-45316040D02*
X166076742Y-45354135D01*
X166076742Y-45354135D02*
X165886266Y-45392231D01*
X165886266Y-45392231D02*
X165648171Y-45392231D01*
X165648171Y-45392231D02*
X165457695Y-45354135D01*
X165457695Y-45354135D02*
X165362457Y-45316040D01*
X165362457Y-45316040D02*
X165314838Y-45277945D01*
X165314838Y-45277945D02*
X165267219Y-45201754D01*
X165600552Y-44249373D02*
X166267219Y-44249373D01*
X165600552Y-44592230D02*
X166124361Y-44592230D01*
X166124361Y-44592230D02*
X166219600Y-44554135D01*
X166219600Y-44554135D02*
X166267219Y-44477945D01*
X166267219Y-44477945D02*
X166267219Y-44363659D01*
X166267219Y-44363659D02*
X166219600Y-44287468D01*
X166219600Y-44287468D02*
X166171980Y-44249373D01*
X165743409Y-43601754D02*
X165743409Y-43868420D01*
X166267219Y-43868420D02*
X165267219Y-43868420D01*
X165267219Y-43868420D02*
X165267219Y-43487468D01*
X178614838Y-75758898D02*
X178567219Y-75835088D01*
X178567219Y-75835088D02*
X178567219Y-75949374D01*
X178567219Y-75949374D02*
X178614838Y-76063660D01*
X178614838Y-76063660D02*
X178710076Y-76139850D01*
X178710076Y-76139850D02*
X178805314Y-76177945D01*
X178805314Y-76177945D02*
X178995790Y-76216041D01*
X178995790Y-76216041D02*
X179138647Y-76216041D01*
X179138647Y-76216041D02*
X179329123Y-76177945D01*
X179329123Y-76177945D02*
X179424361Y-76139850D01*
X179424361Y-76139850D02*
X179519600Y-76063660D01*
X179519600Y-76063660D02*
X179567219Y-75949374D01*
X179567219Y-75949374D02*
X179567219Y-75873183D01*
X179567219Y-75873183D02*
X179519600Y-75758898D01*
X179519600Y-75758898D02*
X179471980Y-75720802D01*
X179471980Y-75720802D02*
X179138647Y-75720802D01*
X179138647Y-75720802D02*
X179138647Y-75873183D01*
X179567219Y-75377945D02*
X178567219Y-75377945D01*
X178567219Y-75377945D02*
X178567219Y-75073183D01*
X178567219Y-75073183D02*
X178614838Y-74996993D01*
X178614838Y-74996993D02*
X178662457Y-74958898D01*
X178662457Y-74958898D02*
X178757695Y-74920802D01*
X178757695Y-74920802D02*
X178900552Y-74920802D01*
X178900552Y-74920802D02*
X178995790Y-74958898D01*
X178995790Y-74958898D02*
X179043409Y-74996993D01*
X179043409Y-74996993D02*
X179091028Y-75073183D01*
X179091028Y-75073183D02*
X179091028Y-75377945D01*
X179567219Y-74577945D02*
X178567219Y-74577945D01*
X178567219Y-74044612D02*
X178567219Y-73892231D01*
X178567219Y-73892231D02*
X178614838Y-73816041D01*
X178614838Y-73816041D02*
X178710076Y-73739850D01*
X178710076Y-73739850D02*
X178900552Y-73701755D01*
X178900552Y-73701755D02*
X179233885Y-73701755D01*
X179233885Y-73701755D02*
X179424361Y-73739850D01*
X179424361Y-73739850D02*
X179519600Y-73816041D01*
X179519600Y-73816041D02*
X179567219Y-73892231D01*
X179567219Y-73892231D02*
X179567219Y-74044612D01*
X179567219Y-74044612D02*
X179519600Y-74120803D01*
X179519600Y-74120803D02*
X179424361Y-74196993D01*
X179424361Y-74196993D02*
X179233885Y-74235089D01*
X179233885Y-74235089D02*
X178900552Y-74235089D01*
X178900552Y-74235089D02*
X178710076Y-74196993D01*
X178710076Y-74196993D02*
X178614838Y-74120803D01*
X178614838Y-74120803D02*
X178567219Y-74044612D01*
X178567219Y-73206517D02*
X178567219Y-73130327D01*
X178567219Y-73130327D02*
X178614838Y-73054136D01*
X178614838Y-73054136D02*
X178662457Y-73016041D01*
X178662457Y-73016041D02*
X178757695Y-72977946D01*
X178757695Y-72977946D02*
X178948171Y-72939851D01*
X178948171Y-72939851D02*
X179186266Y-72939851D01*
X179186266Y-72939851D02*
X179376742Y-72977946D01*
X179376742Y-72977946D02*
X179471980Y-73016041D01*
X179471980Y-73016041D02*
X179519600Y-73054136D01*
X179519600Y-73054136D02*
X179567219Y-73130327D01*
X179567219Y-73130327D02*
X179567219Y-73206517D01*
X179567219Y-73206517D02*
X179519600Y-73282708D01*
X179519600Y-73282708D02*
X179471980Y-73320803D01*
X179471980Y-73320803D02*
X179376742Y-73358898D01*
X179376742Y-73358898D02*
X179186266Y-73396994D01*
X179186266Y-73396994D02*
X178948171Y-73396994D01*
X178948171Y-73396994D02*
X178757695Y-73358898D01*
X178757695Y-73358898D02*
X178662457Y-73320803D01*
X178662457Y-73320803D02*
X178614838Y-73282708D01*
X178614838Y-73282708D02*
X178567219Y-73206517D01*
X178567219Y-72254136D02*
X178567219Y-72406517D01*
X178567219Y-72406517D02*
X178614838Y-72482708D01*
X178614838Y-72482708D02*
X178662457Y-72520803D01*
X178662457Y-72520803D02*
X178805314Y-72596993D01*
X178805314Y-72596993D02*
X178995790Y-72635089D01*
X178995790Y-72635089D02*
X179376742Y-72635089D01*
X179376742Y-72635089D02*
X179471980Y-72596993D01*
X179471980Y-72596993D02*
X179519600Y-72558898D01*
X179519600Y-72558898D02*
X179567219Y-72482708D01*
X179567219Y-72482708D02*
X179567219Y-72330327D01*
X179567219Y-72330327D02*
X179519600Y-72254136D01*
X179519600Y-72254136D02*
X179471980Y-72216041D01*
X179471980Y-72216041D02*
X179376742Y-72177946D01*
X179376742Y-72177946D02*
X179138647Y-72177946D01*
X179138647Y-72177946D02*
X179043409Y-72216041D01*
X179043409Y-72216041D02*
X178995790Y-72254136D01*
X178995790Y-72254136D02*
X178948171Y-72330327D01*
X178948171Y-72330327D02*
X178948171Y-72482708D01*
X178948171Y-72482708D02*
X178995790Y-72558898D01*
X178995790Y-72558898D02*
X179043409Y-72596993D01*
X179043409Y-72596993D02*
X179138647Y-72635089D01*
X179186266Y-71835088D02*
X179186266Y-71225565D01*
X178614838Y-70425565D02*
X178567219Y-70501755D01*
X178567219Y-70501755D02*
X178567219Y-70616041D01*
X178567219Y-70616041D02*
X178614838Y-70730327D01*
X178614838Y-70730327D02*
X178710076Y-70806517D01*
X178710076Y-70806517D02*
X178805314Y-70844612D01*
X178805314Y-70844612D02*
X178995790Y-70882708D01*
X178995790Y-70882708D02*
X179138647Y-70882708D01*
X179138647Y-70882708D02*
X179329123Y-70844612D01*
X179329123Y-70844612D02*
X179424361Y-70806517D01*
X179424361Y-70806517D02*
X179519600Y-70730327D01*
X179519600Y-70730327D02*
X179567219Y-70616041D01*
X179567219Y-70616041D02*
X179567219Y-70539850D01*
X179567219Y-70539850D02*
X179519600Y-70425565D01*
X179519600Y-70425565D02*
X179471980Y-70387469D01*
X179471980Y-70387469D02*
X179138647Y-70387469D01*
X179138647Y-70387469D02*
X179138647Y-70539850D01*
X179567219Y-70044612D02*
X178567219Y-70044612D01*
X178567219Y-70044612D02*
X178567219Y-69739850D01*
X178567219Y-69739850D02*
X178614838Y-69663660D01*
X178614838Y-69663660D02*
X178662457Y-69625565D01*
X178662457Y-69625565D02*
X178757695Y-69587469D01*
X178757695Y-69587469D02*
X178900552Y-69587469D01*
X178900552Y-69587469D02*
X178995790Y-69625565D01*
X178995790Y-69625565D02*
X179043409Y-69663660D01*
X179043409Y-69663660D02*
X179091028Y-69739850D01*
X179091028Y-69739850D02*
X179091028Y-70044612D01*
X179567219Y-69244612D02*
X178567219Y-69244612D01*
X178567219Y-68711279D02*
X178567219Y-68558898D01*
X178567219Y-68558898D02*
X178614838Y-68482708D01*
X178614838Y-68482708D02*
X178710076Y-68406517D01*
X178710076Y-68406517D02*
X178900552Y-68368422D01*
X178900552Y-68368422D02*
X179233885Y-68368422D01*
X179233885Y-68368422D02*
X179424361Y-68406517D01*
X179424361Y-68406517D02*
X179519600Y-68482708D01*
X179519600Y-68482708D02*
X179567219Y-68558898D01*
X179567219Y-68558898D02*
X179567219Y-68711279D01*
X179567219Y-68711279D02*
X179519600Y-68787470D01*
X179519600Y-68787470D02*
X179424361Y-68863660D01*
X179424361Y-68863660D02*
X179233885Y-68901756D01*
X179233885Y-68901756D02*
X178900552Y-68901756D01*
X178900552Y-68901756D02*
X178710076Y-68863660D01*
X178710076Y-68863660D02*
X178614838Y-68787470D01*
X178614838Y-68787470D02*
X178567219Y-68711279D01*
X179567219Y-67606518D02*
X179567219Y-68063661D01*
X179567219Y-67835089D02*
X178567219Y-67835089D01*
X178567219Y-67835089D02*
X178710076Y-67911280D01*
X178710076Y-67911280D02*
X178805314Y-67987470D01*
X178805314Y-67987470D02*
X178852933Y-68063661D01*
X178567219Y-67111279D02*
X178567219Y-67035089D01*
X178567219Y-67035089D02*
X178614838Y-66958898D01*
X178614838Y-66958898D02*
X178662457Y-66920803D01*
X178662457Y-66920803D02*
X178757695Y-66882708D01*
X178757695Y-66882708D02*
X178948171Y-66844613D01*
X178948171Y-66844613D02*
X179186266Y-66844613D01*
X179186266Y-66844613D02*
X179376742Y-66882708D01*
X179376742Y-66882708D02*
X179471980Y-66920803D01*
X179471980Y-66920803D02*
X179519600Y-66958898D01*
X179519600Y-66958898D02*
X179567219Y-67035089D01*
X179567219Y-67035089D02*
X179567219Y-67111279D01*
X179567219Y-67111279D02*
X179519600Y-67187470D01*
X179519600Y-67187470D02*
X179471980Y-67225565D01*
X179471980Y-67225565D02*
X179376742Y-67263660D01*
X179376742Y-67263660D02*
X179186266Y-67301756D01*
X179186266Y-67301756D02*
X178948171Y-67301756D01*
X178948171Y-67301756D02*
X178757695Y-67263660D01*
X178757695Y-67263660D02*
X178662457Y-67225565D01*
X178662457Y-67225565D02*
X178614838Y-67187470D01*
X178614838Y-67187470D02*
X178567219Y-67111279D01*
D10*
X159299122Y-36496895D02*
X159146741Y-36496895D01*
X159146741Y-36496895D02*
X159070550Y-36534990D01*
X159070550Y-36534990D02*
X159032455Y-36573085D01*
X159032455Y-36573085D02*
X158956265Y-36687371D01*
X158956265Y-36687371D02*
X158918169Y-36839752D01*
X158918169Y-36839752D02*
X158918169Y-37144514D01*
X158918169Y-37144514D02*
X158956265Y-37220704D01*
X158956265Y-37220704D02*
X158994360Y-37258800D01*
X158994360Y-37258800D02*
X159070550Y-37296895D01*
X159070550Y-37296895D02*
X159222931Y-37296895D01*
X159222931Y-37296895D02*
X159299122Y-37258800D01*
X159299122Y-37258800D02*
X159337217Y-37220704D01*
X159337217Y-37220704D02*
X159375312Y-37144514D01*
X159375312Y-37144514D02*
X159375312Y-36954038D01*
X159375312Y-36954038D02*
X159337217Y-36877847D01*
X159337217Y-36877847D02*
X159299122Y-36839752D01*
X159299122Y-36839752D02*
X159222931Y-36801657D01*
X159222931Y-36801657D02*
X159070550Y-36801657D01*
X159070550Y-36801657D02*
X158994360Y-36839752D01*
X158994360Y-36839752D02*
X158956265Y-36877847D01*
X158956265Y-36877847D02*
X158918169Y-36954038D01*
X159641979Y-37296895D02*
X160061027Y-36763561D01*
X159641979Y-36763561D02*
X160061027Y-37296895D01*
X160289598Y-36496895D02*
X160784836Y-36496895D01*
X160784836Y-36496895D02*
X160518170Y-36801657D01*
X160518170Y-36801657D02*
X160632455Y-36801657D01*
X160632455Y-36801657D02*
X160708646Y-36839752D01*
X160708646Y-36839752D02*
X160746741Y-36877847D01*
X160746741Y-36877847D02*
X160784836Y-36954038D01*
X160784836Y-36954038D02*
X160784836Y-37144514D01*
X160784836Y-37144514D02*
X160746741Y-37220704D01*
X160746741Y-37220704D02*
X160708646Y-37258800D01*
X160708646Y-37258800D02*
X160632455Y-37296895D01*
X160632455Y-37296895D02*
X160403884Y-37296895D01*
X160403884Y-37296895D02*
X160327693Y-37258800D01*
X160327693Y-37258800D02*
X160289598Y-37220704D01*
X161013408Y-36496895D02*
X161280075Y-37296895D01*
X161280075Y-37296895D02*
X161546741Y-36496895D01*
X161737217Y-36496895D02*
X162232455Y-36496895D01*
X162232455Y-36496895D02*
X161965789Y-36801657D01*
X161965789Y-36801657D02*
X162080074Y-36801657D01*
X162080074Y-36801657D02*
X162156265Y-36839752D01*
X162156265Y-36839752D02*
X162194360Y-36877847D01*
X162194360Y-36877847D02*
X162232455Y-36954038D01*
X162232455Y-36954038D02*
X162232455Y-37144514D01*
X162232455Y-37144514D02*
X162194360Y-37220704D01*
X162194360Y-37220704D02*
X162156265Y-37258800D01*
X162156265Y-37258800D02*
X162080074Y-37296895D01*
X162080074Y-37296895D02*
X161851503Y-37296895D01*
X161851503Y-37296895D02*
X161775312Y-37258800D01*
X161775312Y-37258800D02*
X161737217Y-37220704D01*
X159499122Y-31396895D02*
X159346741Y-31396895D01*
X159346741Y-31396895D02*
X159270550Y-31434990D01*
X159270550Y-31434990D02*
X159232455Y-31473085D01*
X159232455Y-31473085D02*
X159156265Y-31587371D01*
X159156265Y-31587371D02*
X159118169Y-31739752D01*
X159118169Y-31739752D02*
X159118169Y-32044514D01*
X159118169Y-32044514D02*
X159156265Y-32120704D01*
X159156265Y-32120704D02*
X159194360Y-32158800D01*
X159194360Y-32158800D02*
X159270550Y-32196895D01*
X159270550Y-32196895D02*
X159422931Y-32196895D01*
X159422931Y-32196895D02*
X159499122Y-32158800D01*
X159499122Y-32158800D02*
X159537217Y-32120704D01*
X159537217Y-32120704D02*
X159575312Y-32044514D01*
X159575312Y-32044514D02*
X159575312Y-31854038D01*
X159575312Y-31854038D02*
X159537217Y-31777847D01*
X159537217Y-31777847D02*
X159499122Y-31739752D01*
X159499122Y-31739752D02*
X159422931Y-31701657D01*
X159422931Y-31701657D02*
X159270550Y-31701657D01*
X159270550Y-31701657D02*
X159194360Y-31739752D01*
X159194360Y-31739752D02*
X159156265Y-31777847D01*
X159156265Y-31777847D02*
X159118169Y-31854038D01*
X159841979Y-32196895D02*
X160261027Y-31663561D01*
X159841979Y-31663561D02*
X160261027Y-32196895D01*
X160984836Y-31434990D02*
X160908646Y-31396895D01*
X160908646Y-31396895D02*
X160794360Y-31396895D01*
X160794360Y-31396895D02*
X160680074Y-31434990D01*
X160680074Y-31434990D02*
X160603884Y-31511180D01*
X160603884Y-31511180D02*
X160565789Y-31587371D01*
X160565789Y-31587371D02*
X160527693Y-31739752D01*
X160527693Y-31739752D02*
X160527693Y-31854038D01*
X160527693Y-31854038D02*
X160565789Y-32006419D01*
X160565789Y-32006419D02*
X160603884Y-32082609D01*
X160603884Y-32082609D02*
X160680074Y-32158800D01*
X160680074Y-32158800D02*
X160794360Y-32196895D01*
X160794360Y-32196895D02*
X160870551Y-32196895D01*
X160870551Y-32196895D02*
X160984836Y-32158800D01*
X160984836Y-32158800D02*
X161022932Y-32120704D01*
X161022932Y-32120704D02*
X161022932Y-31854038D01*
X161022932Y-31854038D02*
X160870551Y-31854038D01*
X161365789Y-32196895D02*
X161365789Y-31396895D01*
X161365789Y-31396895D02*
X161822932Y-32196895D01*
X161822932Y-32196895D02*
X161822932Y-31396895D01*
X162203884Y-32196895D02*
X162203884Y-31396895D01*
X162203884Y-31396895D02*
X162394360Y-31396895D01*
X162394360Y-31396895D02*
X162508646Y-31434990D01*
X162508646Y-31434990D02*
X162584836Y-31511180D01*
X162584836Y-31511180D02*
X162622931Y-31587371D01*
X162622931Y-31587371D02*
X162661027Y-31739752D01*
X162661027Y-31739752D02*
X162661027Y-31854038D01*
X162661027Y-31854038D02*
X162622931Y-32006419D01*
X162622931Y-32006419D02*
X162584836Y-32082609D01*
X162584836Y-32082609D02*
X162508646Y-32158800D01*
X162508646Y-32158800D02*
X162394360Y-32196895D01*
X162394360Y-32196895D02*
X162203884Y-32196895D01*
X174699122Y-49566679D02*
X174699122Y-50233346D01*
X174580074Y-49185727D02*
X174461027Y-49900012D01*
X174461027Y-49900012D02*
X174770550Y-49900012D01*
X174961026Y-50233346D02*
X174961026Y-49233346D01*
X175246740Y-50233346D02*
X175032455Y-49661917D01*
X175246740Y-49233346D02*
X174961026Y-49804774D01*
X175413407Y-49233346D02*
X175746740Y-49233346D01*
X175746740Y-49233346D02*
X175532455Y-50233346D01*
D12*
X151995626Y-46412304D02*
X151995626Y-46698018D01*
X151995626Y-46555161D02*
X150995626Y-46555161D01*
X150995626Y-46555161D02*
X151138483Y-46602780D01*
X151138483Y-46602780D02*
X151233721Y-46650399D01*
X151233721Y-46650399D02*
X151281340Y-46698018D01*
X150995626Y-46102781D02*
X150995626Y-46055162D01*
X150995626Y-46055162D02*
X151043245Y-46007543D01*
X151043245Y-46007543D02*
X151090864Y-45983733D01*
X151090864Y-45983733D02*
X151186102Y-45959924D01*
X151186102Y-45959924D02*
X151376578Y-45936114D01*
X151376578Y-45936114D02*
X151614673Y-45936114D01*
X151614673Y-45936114D02*
X151805149Y-45959924D01*
X151805149Y-45959924D02*
X151900387Y-45983733D01*
X151900387Y-45983733D02*
X151948007Y-46007543D01*
X151948007Y-46007543D02*
X151995626Y-46055162D01*
X151995626Y-46055162D02*
X151995626Y-46102781D01*
X151995626Y-46102781D02*
X151948007Y-46150400D01*
X151948007Y-46150400D02*
X151900387Y-46174209D01*
X151900387Y-46174209D02*
X151805149Y-46198019D01*
X151805149Y-46198019D02*
X151614673Y-46221828D01*
X151614673Y-46221828D02*
X151376578Y-46221828D01*
X151376578Y-46221828D02*
X151186102Y-46198019D01*
X151186102Y-46198019D02*
X151090864Y-46174209D01*
X151090864Y-46174209D02*
X151043245Y-46150400D01*
X151043245Y-46150400D02*
X150995626Y-46102781D01*
X150995626Y-45626591D02*
X150995626Y-45578972D01*
X150995626Y-45578972D02*
X151043245Y-45531353D01*
X151043245Y-45531353D02*
X151090864Y-45507543D01*
X151090864Y-45507543D02*
X151186102Y-45483734D01*
X151186102Y-45483734D02*
X151376578Y-45459924D01*
X151376578Y-45459924D02*
X151614673Y-45459924D01*
X151614673Y-45459924D02*
X151805149Y-45483734D01*
X151805149Y-45483734D02*
X151900387Y-45507543D01*
X151900387Y-45507543D02*
X151948007Y-45531353D01*
X151948007Y-45531353D02*
X151995626Y-45578972D01*
X151995626Y-45578972D02*
X151995626Y-45626591D01*
X151995626Y-45626591D02*
X151948007Y-45674210D01*
X151948007Y-45674210D02*
X151900387Y-45698019D01*
X151900387Y-45698019D02*
X151805149Y-45721829D01*
X151805149Y-45721829D02*
X151614673Y-45745638D01*
X151614673Y-45745638D02*
X151376578Y-45745638D01*
X151376578Y-45745638D02*
X151186102Y-45721829D01*
X151186102Y-45721829D02*
X151090864Y-45698019D01*
X151090864Y-45698019D02*
X151043245Y-45674210D01*
X151043245Y-45674210D02*
X150995626Y-45626591D01*
X151328959Y-45245639D02*
X151995626Y-45245639D01*
X151424197Y-45245639D02*
X151376578Y-45221829D01*
X151376578Y-45221829D02*
X151328959Y-45174210D01*
X151328959Y-45174210D02*
X151328959Y-45102782D01*
X151328959Y-45102782D02*
X151376578Y-45055163D01*
X151376578Y-45055163D02*
X151471816Y-45031353D01*
X151471816Y-45031353D02*
X151995626Y-45031353D01*
X151471816Y-44626591D02*
X151471816Y-44793258D01*
X151995626Y-44793258D02*
X150995626Y-44793258D01*
X150995626Y-44793258D02*
X150995626Y-44555163D01*
D13*
X119065350Y-67503152D02*
X119065350Y-68169819D01*
X118636779Y-67503152D02*
X118636779Y-68026961D01*
X118636779Y-68026961D02*
X118684398Y-68122200D01*
X118684398Y-68122200D02*
X118779636Y-68169819D01*
X118779636Y-68169819D02*
X118922493Y-68169819D01*
X118922493Y-68169819D02*
X119017731Y-68122200D01*
X119017731Y-68122200D02*
X119065350Y-68074580D01*
X119493922Y-68122200D02*
X119589160Y-68169819D01*
X119589160Y-68169819D02*
X119779636Y-68169819D01*
X119779636Y-68169819D02*
X119874874Y-68122200D01*
X119874874Y-68122200D02*
X119922493Y-68026961D01*
X119922493Y-68026961D02*
X119922493Y-67979342D01*
X119922493Y-67979342D02*
X119874874Y-67884104D01*
X119874874Y-67884104D02*
X119779636Y-67836485D01*
X119779636Y-67836485D02*
X119636779Y-67836485D01*
X119636779Y-67836485D02*
X119541541Y-67788866D01*
X119541541Y-67788866D02*
X119493922Y-67693628D01*
X119493922Y-67693628D02*
X119493922Y-67646009D01*
X119493922Y-67646009D02*
X119541541Y-67550771D01*
X119541541Y-67550771D02*
X119636779Y-67503152D01*
X119636779Y-67503152D02*
X119779636Y-67503152D01*
X119779636Y-67503152D02*
X119874874Y-67550771D01*
X120732017Y-68122200D02*
X120636779Y-68169819D01*
X120636779Y-68169819D02*
X120446303Y-68169819D01*
X120446303Y-68169819D02*
X120351065Y-68122200D01*
X120351065Y-68122200D02*
X120303446Y-68026961D01*
X120303446Y-68026961D02*
X120303446Y-67646009D01*
X120303446Y-67646009D02*
X120351065Y-67550771D01*
X120351065Y-67550771D02*
X120446303Y-67503152D01*
X120446303Y-67503152D02*
X120636779Y-67503152D01*
X120636779Y-67503152D02*
X120732017Y-67550771D01*
X120732017Y-67550771D02*
X120779636Y-67646009D01*
X120779636Y-67646009D02*
X120779636Y-67741247D01*
X120779636Y-67741247D02*
X120303446Y-67836485D01*
X121827256Y-67169819D02*
X122398684Y-67169819D01*
X122112970Y-68169819D02*
X122112970Y-67169819D01*
X123446304Y-67265057D02*
X123493923Y-67217438D01*
X123493923Y-67217438D02*
X123589161Y-67169819D01*
X123589161Y-67169819D02*
X123827256Y-67169819D01*
X123827256Y-67169819D02*
X123922494Y-67217438D01*
X123922494Y-67217438D02*
X123970113Y-67265057D01*
X123970113Y-67265057D02*
X124017732Y-67360295D01*
X124017732Y-67360295D02*
X124017732Y-67455533D01*
X124017732Y-67455533D02*
X123970113Y-67598390D01*
X123970113Y-67598390D02*
X123398685Y-68169819D01*
X123398685Y-68169819D02*
X124017732Y-68169819D01*
X124922494Y-67169819D02*
X124446304Y-67169819D01*
X124446304Y-67169819D02*
X124398685Y-67646009D01*
X124398685Y-67646009D02*
X124446304Y-67598390D01*
X124446304Y-67598390D02*
X124541542Y-67550771D01*
X124541542Y-67550771D02*
X124779637Y-67550771D01*
X124779637Y-67550771D02*
X124874875Y-67598390D01*
X124874875Y-67598390D02*
X124922494Y-67646009D01*
X124922494Y-67646009D02*
X124970113Y-67741247D01*
X124970113Y-67741247D02*
X124970113Y-67979342D01*
X124970113Y-67979342D02*
X124922494Y-68074580D01*
X124922494Y-68074580D02*
X124874875Y-68122200D01*
X124874875Y-68122200D02*
X124779637Y-68169819D01*
X124779637Y-68169819D02*
X124541542Y-68169819D01*
X124541542Y-68169819D02*
X124446304Y-68122200D01*
X124446304Y-68122200D02*
X124398685Y-68074580D01*
X125589161Y-67169819D02*
X125684399Y-67169819D01*
X125684399Y-67169819D02*
X125779637Y-67217438D01*
X125779637Y-67217438D02*
X125827256Y-67265057D01*
X125827256Y-67265057D02*
X125874875Y-67360295D01*
X125874875Y-67360295D02*
X125922494Y-67550771D01*
X125922494Y-67550771D02*
X125922494Y-67788866D01*
X125922494Y-67788866D02*
X125874875Y-67979342D01*
X125874875Y-67979342D02*
X125827256Y-68074580D01*
X125827256Y-68074580D02*
X125779637Y-68122200D01*
X125779637Y-68122200D02*
X125684399Y-68169819D01*
X125684399Y-68169819D02*
X125589161Y-68169819D01*
X125589161Y-68169819D02*
X125493923Y-68122200D01*
X125493923Y-68122200D02*
X125446304Y-68074580D01*
X125446304Y-68074580D02*
X125398685Y-67979342D01*
X125398685Y-67979342D02*
X125351066Y-67788866D01*
X125351066Y-67788866D02*
X125351066Y-67550771D01*
X125351066Y-67550771D02*
X125398685Y-67360295D01*
X125398685Y-67360295D02*
X125446304Y-67265057D01*
X125446304Y-67265057D02*
X125493923Y-67217438D01*
X125493923Y-67217438D02*
X125589161Y-67169819D01*
X127112971Y-68169819D02*
X127112971Y-67503152D01*
X127112971Y-67598390D02*
X127160590Y-67550771D01*
X127160590Y-67550771D02*
X127255828Y-67503152D01*
X127255828Y-67503152D02*
X127398685Y-67503152D01*
X127398685Y-67503152D02*
X127493923Y-67550771D01*
X127493923Y-67550771D02*
X127541542Y-67646009D01*
X127541542Y-67646009D02*
X127541542Y-68169819D01*
X127541542Y-67646009D02*
X127589161Y-67550771D01*
X127589161Y-67550771D02*
X127684399Y-67503152D01*
X127684399Y-67503152D02*
X127827256Y-67503152D01*
X127827256Y-67503152D02*
X127922495Y-67550771D01*
X127922495Y-67550771D02*
X127970114Y-67646009D01*
X127970114Y-67646009D02*
X127970114Y-68169819D01*
X128398685Y-67884104D02*
X128874875Y-67884104D01*
X128303447Y-68169819D02*
X128636780Y-67169819D01*
X128636780Y-67169819D02*
X128970113Y-68169819D01*
X130779637Y-67122200D02*
X129922495Y-68407914D01*
X131827257Y-67265057D02*
X131874876Y-67217438D01*
X131874876Y-67217438D02*
X131970114Y-67169819D01*
X131970114Y-67169819D02*
X132208209Y-67169819D01*
X132208209Y-67169819D02*
X132303447Y-67217438D01*
X132303447Y-67217438D02*
X132351066Y-67265057D01*
X132351066Y-67265057D02*
X132398685Y-67360295D01*
X132398685Y-67360295D02*
X132398685Y-67455533D01*
X132398685Y-67455533D02*
X132351066Y-67598390D01*
X132351066Y-67598390D02*
X131779638Y-68169819D01*
X131779638Y-68169819D02*
X132398685Y-68169819D01*
X133303447Y-67169819D02*
X132827257Y-67169819D01*
X132827257Y-67169819D02*
X132779638Y-67646009D01*
X132779638Y-67646009D02*
X132827257Y-67598390D01*
X132827257Y-67598390D02*
X132922495Y-67550771D01*
X132922495Y-67550771D02*
X133160590Y-67550771D01*
X133160590Y-67550771D02*
X133255828Y-67598390D01*
X133255828Y-67598390D02*
X133303447Y-67646009D01*
X133303447Y-67646009D02*
X133351066Y-67741247D01*
X133351066Y-67741247D02*
X133351066Y-67979342D01*
X133351066Y-67979342D02*
X133303447Y-68074580D01*
X133303447Y-68074580D02*
X133255828Y-68122200D01*
X133255828Y-68122200D02*
X133160590Y-68169819D01*
X133160590Y-68169819D02*
X132922495Y-68169819D01*
X132922495Y-68169819D02*
X132827257Y-68122200D01*
X132827257Y-68122200D02*
X132779638Y-68074580D01*
X133970114Y-67169819D02*
X134065352Y-67169819D01*
X134065352Y-67169819D02*
X134160590Y-67217438D01*
X134160590Y-67217438D02*
X134208209Y-67265057D01*
X134208209Y-67265057D02*
X134255828Y-67360295D01*
X134255828Y-67360295D02*
X134303447Y-67550771D01*
X134303447Y-67550771D02*
X134303447Y-67788866D01*
X134303447Y-67788866D02*
X134255828Y-67979342D01*
X134255828Y-67979342D02*
X134208209Y-68074580D01*
X134208209Y-68074580D02*
X134160590Y-68122200D01*
X134160590Y-68122200D02*
X134065352Y-68169819D01*
X134065352Y-68169819D02*
X133970114Y-68169819D01*
X133970114Y-68169819D02*
X133874876Y-68122200D01*
X133874876Y-68122200D02*
X133827257Y-68074580D01*
X133827257Y-68074580D02*
X133779638Y-67979342D01*
X133779638Y-67979342D02*
X133732019Y-67788866D01*
X133732019Y-67788866D02*
X133732019Y-67550771D01*
X133732019Y-67550771D02*
X133779638Y-67360295D01*
X133779638Y-67360295D02*
X133827257Y-67265057D01*
X133827257Y-67265057D02*
X133874876Y-67217438D01*
X133874876Y-67217438D02*
X133970114Y-67169819D01*
X135351067Y-67169819D02*
X135684400Y-68169819D01*
X135684400Y-68169819D02*
X136017733Y-67169819D01*
X136303448Y-67884104D02*
X136779638Y-67884104D01*
X136208210Y-68169819D02*
X136541543Y-67169819D01*
X136541543Y-67169819D02*
X136874876Y-68169819D01*
X137779638Y-68074580D02*
X137732019Y-68122200D01*
X137732019Y-68122200D02*
X137589162Y-68169819D01*
X137589162Y-68169819D02*
X137493924Y-68169819D01*
X137493924Y-68169819D02*
X137351067Y-68122200D01*
X137351067Y-68122200D02*
X137255829Y-68026961D01*
X137255829Y-68026961D02*
X137208210Y-67931723D01*
X137208210Y-67931723D02*
X137160591Y-67741247D01*
X137160591Y-67741247D02*
X137160591Y-67598390D01*
X137160591Y-67598390D02*
X137208210Y-67407914D01*
X137208210Y-67407914D02*
X137255829Y-67312676D01*
X137255829Y-67312676D02*
X137351067Y-67217438D01*
X137351067Y-67217438D02*
X137493924Y-67169819D01*
X137493924Y-67169819D02*
X137589162Y-67169819D01*
X137589162Y-67169819D02*
X137732019Y-67217438D01*
X137732019Y-67217438D02*
X137779638Y-67265057D01*
D11*
X144614838Y-72458898D02*
X144567219Y-72535088D01*
X144567219Y-72535088D02*
X144567219Y-72649374D01*
X144567219Y-72649374D02*
X144614838Y-72763660D01*
X144614838Y-72763660D02*
X144710076Y-72839850D01*
X144710076Y-72839850D02*
X144805314Y-72877945D01*
X144805314Y-72877945D02*
X144995790Y-72916041D01*
X144995790Y-72916041D02*
X145138647Y-72916041D01*
X145138647Y-72916041D02*
X145329123Y-72877945D01*
X145329123Y-72877945D02*
X145424361Y-72839850D01*
X145424361Y-72839850D02*
X145519600Y-72763660D01*
X145519600Y-72763660D02*
X145567219Y-72649374D01*
X145567219Y-72649374D02*
X145567219Y-72573183D01*
X145567219Y-72573183D02*
X145519600Y-72458898D01*
X145519600Y-72458898D02*
X145471980Y-72420802D01*
X145471980Y-72420802D02*
X145138647Y-72420802D01*
X145138647Y-72420802D02*
X145138647Y-72573183D01*
X145567219Y-72077945D02*
X144567219Y-72077945D01*
X144567219Y-72077945D02*
X144567219Y-71773183D01*
X144567219Y-71773183D02*
X144614838Y-71696993D01*
X144614838Y-71696993D02*
X144662457Y-71658898D01*
X144662457Y-71658898D02*
X144757695Y-71620802D01*
X144757695Y-71620802D02*
X144900552Y-71620802D01*
X144900552Y-71620802D02*
X144995790Y-71658898D01*
X144995790Y-71658898D02*
X145043409Y-71696993D01*
X145043409Y-71696993D02*
X145091028Y-71773183D01*
X145091028Y-71773183D02*
X145091028Y-72077945D01*
X145567219Y-71277945D02*
X144567219Y-71277945D01*
X144567219Y-70744612D02*
X144567219Y-70668422D01*
X144567219Y-70668422D02*
X144614838Y-70592231D01*
X144614838Y-70592231D02*
X144662457Y-70554136D01*
X144662457Y-70554136D02*
X144757695Y-70516041D01*
X144757695Y-70516041D02*
X144948171Y-70477946D01*
X144948171Y-70477946D02*
X145186266Y-70477946D01*
X145186266Y-70477946D02*
X145376742Y-70516041D01*
X145376742Y-70516041D02*
X145471980Y-70554136D01*
X145471980Y-70554136D02*
X145519600Y-70592231D01*
X145519600Y-70592231D02*
X145567219Y-70668422D01*
X145567219Y-70668422D02*
X145567219Y-70744612D01*
X145567219Y-70744612D02*
X145519600Y-70820803D01*
X145519600Y-70820803D02*
X145471980Y-70858898D01*
X145471980Y-70858898D02*
X145376742Y-70896993D01*
X145376742Y-70896993D02*
X145186266Y-70935089D01*
X145186266Y-70935089D02*
X144948171Y-70935089D01*
X144948171Y-70935089D02*
X144757695Y-70896993D01*
X144757695Y-70896993D02*
X144662457Y-70858898D01*
X144662457Y-70858898D02*
X144614838Y-70820803D01*
X144614838Y-70820803D02*
X144567219Y-70744612D01*
X144567219Y-69982707D02*
X144567219Y-69906517D01*
X144567219Y-69906517D02*
X144614838Y-69830326D01*
X144614838Y-69830326D02*
X144662457Y-69792231D01*
X144662457Y-69792231D02*
X144757695Y-69754136D01*
X144757695Y-69754136D02*
X144948171Y-69716041D01*
X144948171Y-69716041D02*
X145186266Y-69716041D01*
X145186266Y-69716041D02*
X145376742Y-69754136D01*
X145376742Y-69754136D02*
X145471980Y-69792231D01*
X145471980Y-69792231D02*
X145519600Y-69830326D01*
X145519600Y-69830326D02*
X145567219Y-69906517D01*
X145567219Y-69906517D02*
X145567219Y-69982707D01*
X145567219Y-69982707D02*
X145519600Y-70058898D01*
X145519600Y-70058898D02*
X145471980Y-70096993D01*
X145471980Y-70096993D02*
X145376742Y-70135088D01*
X145376742Y-70135088D02*
X145186266Y-70173184D01*
X145186266Y-70173184D02*
X144948171Y-70173184D01*
X144948171Y-70173184D02*
X144757695Y-70135088D01*
X144757695Y-70135088D02*
X144662457Y-70096993D01*
X144662457Y-70096993D02*
X144614838Y-70058898D01*
X144614838Y-70058898D02*
X144567219Y-69982707D01*
X144567219Y-68992231D02*
X144567219Y-69373183D01*
X144567219Y-69373183D02*
X145043409Y-69411279D01*
X145043409Y-69411279D02*
X144995790Y-69373183D01*
X144995790Y-69373183D02*
X144948171Y-69296993D01*
X144948171Y-69296993D02*
X144948171Y-69106517D01*
X144948171Y-69106517D02*
X144995790Y-69030326D01*
X144995790Y-69030326D02*
X145043409Y-68992231D01*
X145043409Y-68992231D02*
X145138647Y-68954136D01*
X145138647Y-68954136D02*
X145376742Y-68954136D01*
X145376742Y-68954136D02*
X145471980Y-68992231D01*
X145471980Y-68992231D02*
X145519600Y-69030326D01*
X145519600Y-69030326D02*
X145567219Y-69106517D01*
X145567219Y-69106517D02*
X145567219Y-69296993D01*
X145567219Y-69296993D02*
X145519600Y-69373183D01*
X145519600Y-69373183D02*
X145471980Y-69411279D01*
X145186266Y-68611278D02*
X145186266Y-68001755D01*
X144614838Y-67201755D02*
X144567219Y-67277945D01*
X144567219Y-67277945D02*
X144567219Y-67392231D01*
X144567219Y-67392231D02*
X144614838Y-67506517D01*
X144614838Y-67506517D02*
X144710076Y-67582707D01*
X144710076Y-67582707D02*
X144805314Y-67620802D01*
X144805314Y-67620802D02*
X144995790Y-67658898D01*
X144995790Y-67658898D02*
X145138647Y-67658898D01*
X145138647Y-67658898D02*
X145329123Y-67620802D01*
X145329123Y-67620802D02*
X145424361Y-67582707D01*
X145424361Y-67582707D02*
X145519600Y-67506517D01*
X145519600Y-67506517D02*
X145567219Y-67392231D01*
X145567219Y-67392231D02*
X145567219Y-67316040D01*
X145567219Y-67316040D02*
X145519600Y-67201755D01*
X145519600Y-67201755D02*
X145471980Y-67163659D01*
X145471980Y-67163659D02*
X145138647Y-67163659D01*
X145138647Y-67163659D02*
X145138647Y-67316040D01*
X145567219Y-66820802D02*
X144567219Y-66820802D01*
X144567219Y-66820802D02*
X144567219Y-66516040D01*
X144567219Y-66516040D02*
X144614838Y-66439850D01*
X144614838Y-66439850D02*
X144662457Y-66401755D01*
X144662457Y-66401755D02*
X144757695Y-66363659D01*
X144757695Y-66363659D02*
X144900552Y-66363659D01*
X144900552Y-66363659D02*
X144995790Y-66401755D01*
X144995790Y-66401755D02*
X145043409Y-66439850D01*
X145043409Y-66439850D02*
X145091028Y-66516040D01*
X145091028Y-66516040D02*
X145091028Y-66820802D01*
X145567219Y-66020802D02*
X144567219Y-66020802D01*
X144567219Y-65487469D02*
X144567219Y-65411279D01*
X144567219Y-65411279D02*
X144614838Y-65335088D01*
X144614838Y-65335088D02*
X144662457Y-65296993D01*
X144662457Y-65296993D02*
X144757695Y-65258898D01*
X144757695Y-65258898D02*
X144948171Y-65220803D01*
X144948171Y-65220803D02*
X145186266Y-65220803D01*
X145186266Y-65220803D02*
X145376742Y-65258898D01*
X145376742Y-65258898D02*
X145471980Y-65296993D01*
X145471980Y-65296993D02*
X145519600Y-65335088D01*
X145519600Y-65335088D02*
X145567219Y-65411279D01*
X145567219Y-65411279D02*
X145567219Y-65487469D01*
X145567219Y-65487469D02*
X145519600Y-65563660D01*
X145519600Y-65563660D02*
X145471980Y-65601755D01*
X145471980Y-65601755D02*
X145376742Y-65639850D01*
X145376742Y-65639850D02*
X145186266Y-65677946D01*
X145186266Y-65677946D02*
X144948171Y-65677946D01*
X144948171Y-65677946D02*
X144757695Y-65639850D01*
X144757695Y-65639850D02*
X144662457Y-65601755D01*
X144662457Y-65601755D02*
X144614838Y-65563660D01*
X144614838Y-65563660D02*
X144567219Y-65487469D01*
X144567219Y-64725564D02*
X144567219Y-64649374D01*
X144567219Y-64649374D02*
X144614838Y-64573183D01*
X144614838Y-64573183D02*
X144662457Y-64535088D01*
X144662457Y-64535088D02*
X144757695Y-64496993D01*
X144757695Y-64496993D02*
X144948171Y-64458898D01*
X144948171Y-64458898D02*
X145186266Y-64458898D01*
X145186266Y-64458898D02*
X145376742Y-64496993D01*
X145376742Y-64496993D02*
X145471980Y-64535088D01*
X145471980Y-64535088D02*
X145519600Y-64573183D01*
X145519600Y-64573183D02*
X145567219Y-64649374D01*
X145567219Y-64649374D02*
X145567219Y-64725564D01*
X145567219Y-64725564D02*
X145519600Y-64801755D01*
X145519600Y-64801755D02*
X145471980Y-64839850D01*
X145471980Y-64839850D02*
X145376742Y-64877945D01*
X145376742Y-64877945D02*
X145186266Y-64916041D01*
X145186266Y-64916041D02*
X144948171Y-64916041D01*
X144948171Y-64916041D02*
X144757695Y-64877945D01*
X144757695Y-64877945D02*
X144662457Y-64839850D01*
X144662457Y-64839850D02*
X144614838Y-64801755D01*
X144614838Y-64801755D02*
X144567219Y-64725564D01*
X145567219Y-63696993D02*
X145567219Y-64154136D01*
X145567219Y-63925564D02*
X144567219Y-63925564D01*
X144567219Y-63925564D02*
X144710076Y-64001755D01*
X144710076Y-64001755D02*
X144805314Y-64077945D01*
X144805314Y-64077945D02*
X144852933Y-64154136D01*
X179567219Y-63120802D02*
X179091028Y-63387469D01*
X179567219Y-63577945D02*
X178567219Y-63577945D01*
X178567219Y-63577945D02*
X178567219Y-63273183D01*
X178567219Y-63273183D02*
X178614838Y-63196993D01*
X178614838Y-63196993D02*
X178662457Y-63158898D01*
X178662457Y-63158898D02*
X178757695Y-63120802D01*
X178757695Y-63120802D02*
X178900552Y-63120802D01*
X178900552Y-63120802D02*
X178995790Y-63158898D01*
X178995790Y-63158898D02*
X179043409Y-63196993D01*
X179043409Y-63196993D02*
X179091028Y-63273183D01*
X179091028Y-63273183D02*
X179091028Y-63577945D01*
X178567219Y-62854136D02*
X179567219Y-62320802D01*
X178567219Y-62320802D02*
X179567219Y-62854136D01*
X178567219Y-61520802D02*
X178567219Y-61063659D01*
X179567219Y-61292231D02*
X178567219Y-61292231D01*
X178567219Y-60873183D02*
X179567219Y-60339849D01*
X178567219Y-60339849D02*
X179567219Y-60873183D01*
X178614838Y-59006516D02*
X178567219Y-59082706D01*
X178567219Y-59082706D02*
X178567219Y-59196992D01*
X178567219Y-59196992D02*
X178614838Y-59311278D01*
X178614838Y-59311278D02*
X178710076Y-59387468D01*
X178710076Y-59387468D02*
X178805314Y-59425563D01*
X178805314Y-59425563D02*
X178995790Y-59463659D01*
X178995790Y-59463659D02*
X179138647Y-59463659D01*
X179138647Y-59463659D02*
X179329123Y-59425563D01*
X179329123Y-59425563D02*
X179424361Y-59387468D01*
X179424361Y-59387468D02*
X179519600Y-59311278D01*
X179519600Y-59311278D02*
X179567219Y-59196992D01*
X179567219Y-59196992D02*
X179567219Y-59120801D01*
X179567219Y-59120801D02*
X179519600Y-59006516D01*
X179519600Y-59006516D02*
X179471980Y-58968420D01*
X179471980Y-58968420D02*
X179138647Y-58968420D01*
X179138647Y-58968420D02*
X179138647Y-59120801D01*
X179567219Y-58625563D02*
X178567219Y-58625563D01*
X178567219Y-58625563D02*
X178567219Y-58320801D01*
X178567219Y-58320801D02*
X178614838Y-58244611D01*
X178614838Y-58244611D02*
X178662457Y-58206516D01*
X178662457Y-58206516D02*
X178757695Y-58168420D01*
X178757695Y-58168420D02*
X178900552Y-58168420D01*
X178900552Y-58168420D02*
X178995790Y-58206516D01*
X178995790Y-58206516D02*
X179043409Y-58244611D01*
X179043409Y-58244611D02*
X179091028Y-58320801D01*
X179091028Y-58320801D02*
X179091028Y-58625563D01*
X179567219Y-57825563D02*
X178567219Y-57825563D01*
X178567219Y-57292230D02*
X178567219Y-57216040D01*
X178567219Y-57216040D02*
X178614838Y-57139849D01*
X178614838Y-57139849D02*
X178662457Y-57101754D01*
X178662457Y-57101754D02*
X178757695Y-57063659D01*
X178757695Y-57063659D02*
X178948171Y-57025564D01*
X178948171Y-57025564D02*
X179186266Y-57025564D01*
X179186266Y-57025564D02*
X179376742Y-57063659D01*
X179376742Y-57063659D02*
X179471980Y-57101754D01*
X179471980Y-57101754D02*
X179519600Y-57139849D01*
X179519600Y-57139849D02*
X179567219Y-57216040D01*
X179567219Y-57216040D02*
X179567219Y-57292230D01*
X179567219Y-57292230D02*
X179519600Y-57368421D01*
X179519600Y-57368421D02*
X179471980Y-57406516D01*
X179471980Y-57406516D02*
X179376742Y-57444611D01*
X179376742Y-57444611D02*
X179186266Y-57482707D01*
X179186266Y-57482707D02*
X178948171Y-57482707D01*
X178948171Y-57482707D02*
X178757695Y-57444611D01*
X178757695Y-57444611D02*
X178662457Y-57406516D01*
X178662457Y-57406516D02*
X178614838Y-57368421D01*
X178614838Y-57368421D02*
X178567219Y-57292230D01*
X178567219Y-56530325D02*
X178567219Y-56454135D01*
X178567219Y-56454135D02*
X178614838Y-56377944D01*
X178614838Y-56377944D02*
X178662457Y-56339849D01*
X178662457Y-56339849D02*
X178757695Y-56301754D01*
X178757695Y-56301754D02*
X178948171Y-56263659D01*
X178948171Y-56263659D02*
X179186266Y-56263659D01*
X179186266Y-56263659D02*
X179376742Y-56301754D01*
X179376742Y-56301754D02*
X179471980Y-56339849D01*
X179471980Y-56339849D02*
X179519600Y-56377944D01*
X179519600Y-56377944D02*
X179567219Y-56454135D01*
X179567219Y-56454135D02*
X179567219Y-56530325D01*
X179567219Y-56530325D02*
X179519600Y-56606516D01*
X179519600Y-56606516D02*
X179471980Y-56644611D01*
X179471980Y-56644611D02*
X179376742Y-56682706D01*
X179376742Y-56682706D02*
X179186266Y-56720802D01*
X179186266Y-56720802D02*
X178948171Y-56720802D01*
X178948171Y-56720802D02*
X178757695Y-56682706D01*
X178757695Y-56682706D02*
X178662457Y-56644611D01*
X178662457Y-56644611D02*
X178614838Y-56606516D01*
X178614838Y-56606516D02*
X178567219Y-56530325D01*
X178567219Y-55768420D02*
X178567219Y-55692230D01*
X178567219Y-55692230D02*
X178614838Y-55616039D01*
X178614838Y-55616039D02*
X178662457Y-55577944D01*
X178662457Y-55577944D02*
X178757695Y-55539849D01*
X178757695Y-55539849D02*
X178948171Y-55501754D01*
X178948171Y-55501754D02*
X179186266Y-55501754D01*
X179186266Y-55501754D02*
X179376742Y-55539849D01*
X179376742Y-55539849D02*
X179471980Y-55577944D01*
X179471980Y-55577944D02*
X179519600Y-55616039D01*
X179519600Y-55616039D02*
X179567219Y-55692230D01*
X179567219Y-55692230D02*
X179567219Y-55768420D01*
X179567219Y-55768420D02*
X179519600Y-55844611D01*
X179519600Y-55844611D02*
X179471980Y-55882706D01*
X179471980Y-55882706D02*
X179376742Y-55920801D01*
X179376742Y-55920801D02*
X179186266Y-55958897D01*
X179186266Y-55958897D02*
X178948171Y-55958897D01*
X178948171Y-55958897D02*
X178757695Y-55920801D01*
X178757695Y-55920801D02*
X178662457Y-55882706D01*
X178662457Y-55882706D02*
X178614838Y-55844611D01*
X178614838Y-55844611D02*
X178567219Y-55768420D01*
D13*
X172466666Y-78454819D02*
X172466666Y-79169104D01*
X172466666Y-79169104D02*
X172419047Y-79311961D01*
X172419047Y-79311961D02*
X172323809Y-79407200D01*
X172323809Y-79407200D02*
X172180952Y-79454819D01*
X172180952Y-79454819D02*
X172085714Y-79454819D01*
X173371428Y-78454819D02*
X173180952Y-78454819D01*
X173180952Y-78454819D02*
X173085714Y-78502438D01*
X173085714Y-78502438D02*
X173038095Y-78550057D01*
X173038095Y-78550057D02*
X172942857Y-78692914D01*
X172942857Y-78692914D02*
X172895238Y-78883390D01*
X172895238Y-78883390D02*
X172895238Y-79264342D01*
X172895238Y-79264342D02*
X172942857Y-79359580D01*
X172942857Y-79359580D02*
X172990476Y-79407200D01*
X172990476Y-79407200D02*
X173085714Y-79454819D01*
X173085714Y-79454819D02*
X173276190Y-79454819D01*
X173276190Y-79454819D02*
X173371428Y-79407200D01*
X173371428Y-79407200D02*
X173419047Y-79359580D01*
X173419047Y-79359580D02*
X173466666Y-79264342D01*
X173466666Y-79264342D02*
X173466666Y-79026247D01*
X173466666Y-79026247D02*
X173419047Y-78931009D01*
X173419047Y-78931009D02*
X173371428Y-78883390D01*
X173371428Y-78883390D02*
X173276190Y-78835771D01*
X173276190Y-78835771D02*
X173085714Y-78835771D01*
X173085714Y-78835771D02*
X172990476Y-78883390D01*
X172990476Y-78883390D02*
X172942857Y-78931009D01*
X172942857Y-78931009D02*
X172895238Y-79026247D01*
X147666666Y-75414819D02*
X147666666Y-76129104D01*
X147666666Y-76129104D02*
X147619047Y-76271961D01*
X147619047Y-76271961D02*
X147523809Y-76367200D01*
X147523809Y-76367200D02*
X147380952Y-76414819D01*
X147380952Y-76414819D02*
X147285714Y-76414819D01*
X148571428Y-75748152D02*
X148571428Y-76414819D01*
X148333333Y-75367200D02*
X148095238Y-76081485D01*
X148095238Y-76081485D02*
X148714285Y-76081485D01*
X172466666Y-65754819D02*
X172466666Y-66469104D01*
X172466666Y-66469104D02*
X172419047Y-66611961D01*
X172419047Y-66611961D02*
X172323809Y-66707200D01*
X172323809Y-66707200D02*
X172180952Y-66754819D01*
X172180952Y-66754819D02*
X172085714Y-66754819D01*
X172847619Y-65754819D02*
X173466666Y-65754819D01*
X173466666Y-65754819D02*
X173133333Y-66135771D01*
X173133333Y-66135771D02*
X173276190Y-66135771D01*
X173276190Y-66135771D02*
X173371428Y-66183390D01*
X173371428Y-66183390D02*
X173419047Y-66231009D01*
X173419047Y-66231009D02*
X173466666Y-66326247D01*
X173466666Y-66326247D02*
X173466666Y-66564342D01*
X173466666Y-66564342D02*
X173419047Y-66659580D01*
X173419047Y-66659580D02*
X173371428Y-66707200D01*
X173371428Y-66707200D02*
X173276190Y-66754819D01*
X173276190Y-66754819D02*
X172990476Y-66754819D01*
X172990476Y-66754819D02*
X172895238Y-66707200D01*
X172895238Y-66707200D02*
X172847619Y-66659580D01*
D12*
X175116666Y-49056119D02*
X174950000Y-48579928D01*
X174830952Y-49056119D02*
X174830952Y-48056119D01*
X174830952Y-48056119D02*
X175021428Y-48056119D01*
X175021428Y-48056119D02*
X175069047Y-48103738D01*
X175069047Y-48103738D02*
X175092857Y-48151357D01*
X175092857Y-48151357D02*
X175116666Y-48246595D01*
X175116666Y-48246595D02*
X175116666Y-48389452D01*
X175116666Y-48389452D02*
X175092857Y-48484690D01*
X175092857Y-48484690D02*
X175069047Y-48532309D01*
X175069047Y-48532309D02*
X175021428Y-48579928D01*
X175021428Y-48579928D02*
X174830952Y-48579928D01*
X175283333Y-48056119D02*
X175592857Y-48056119D01*
X175592857Y-48056119D02*
X175426190Y-48437071D01*
X175426190Y-48437071D02*
X175497619Y-48437071D01*
X175497619Y-48437071D02*
X175545238Y-48484690D01*
X175545238Y-48484690D02*
X175569047Y-48532309D01*
X175569047Y-48532309D02*
X175592857Y-48627547D01*
X175592857Y-48627547D02*
X175592857Y-48865642D01*
X175592857Y-48865642D02*
X175569047Y-48960880D01*
X175569047Y-48960880D02*
X175545238Y-49008500D01*
X175545238Y-49008500D02*
X175497619Y-49056119D01*
X175497619Y-49056119D02*
X175354762Y-49056119D01*
X175354762Y-49056119D02*
X175307143Y-49008500D01*
X175307143Y-49008500D02*
X175283333Y-48960880D01*
D10*
X155388704Y-46233332D02*
X155426800Y-46271428D01*
X155426800Y-46271428D02*
X155464895Y-46385713D01*
X155464895Y-46385713D02*
X155464895Y-46461904D01*
X155464895Y-46461904D02*
X155426800Y-46576190D01*
X155426800Y-46576190D02*
X155350609Y-46652380D01*
X155350609Y-46652380D02*
X155274419Y-46690475D01*
X155274419Y-46690475D02*
X155122038Y-46728571D01*
X155122038Y-46728571D02*
X155007752Y-46728571D01*
X155007752Y-46728571D02*
X154855371Y-46690475D01*
X154855371Y-46690475D02*
X154779180Y-46652380D01*
X154779180Y-46652380D02*
X154702990Y-46576190D01*
X154702990Y-46576190D02*
X154664895Y-46461904D01*
X154664895Y-46461904D02*
X154664895Y-46385713D01*
X154664895Y-46385713D02*
X154702990Y-46271428D01*
X154702990Y-46271428D02*
X154741085Y-46233332D01*
X154741085Y-45928571D02*
X154702990Y-45890475D01*
X154702990Y-45890475D02*
X154664895Y-45814285D01*
X154664895Y-45814285D02*
X154664895Y-45623809D01*
X154664895Y-45623809D02*
X154702990Y-45547618D01*
X154702990Y-45547618D02*
X154741085Y-45509523D01*
X154741085Y-45509523D02*
X154817276Y-45471428D01*
X154817276Y-45471428D02*
X154893466Y-45471428D01*
X154893466Y-45471428D02*
X155007752Y-45509523D01*
X155007752Y-45509523D02*
X155464895Y-45966666D01*
X155464895Y-45966666D02*
X155464895Y-45471428D01*
D13*
X172466666Y-57654819D02*
X172466666Y-58369104D01*
X172466666Y-58369104D02*
X172419047Y-58511961D01*
X172419047Y-58511961D02*
X172323809Y-58607200D01*
X172323809Y-58607200D02*
X172180952Y-58654819D01*
X172180952Y-58654819D02*
X172085714Y-58654819D01*
X172847619Y-57654819D02*
X173514285Y-57654819D01*
X173514285Y-57654819D02*
X173085714Y-58654819D01*
D12*
X169416666Y-48556119D02*
X169250000Y-48079928D01*
X169130952Y-48556119D02*
X169130952Y-47556119D01*
X169130952Y-47556119D02*
X169321428Y-47556119D01*
X169321428Y-47556119D02*
X169369047Y-47603738D01*
X169369047Y-47603738D02*
X169392857Y-47651357D01*
X169392857Y-47651357D02*
X169416666Y-47746595D01*
X169416666Y-47746595D02*
X169416666Y-47889452D01*
X169416666Y-47889452D02*
X169392857Y-47984690D01*
X169392857Y-47984690D02*
X169369047Y-48032309D01*
X169369047Y-48032309D02*
X169321428Y-48079928D01*
X169321428Y-48079928D02*
X169130952Y-48079928D01*
X169845238Y-47889452D02*
X169845238Y-48556119D01*
X169726190Y-47508500D02*
X169607143Y-48222785D01*
X169607143Y-48222785D02*
X169916666Y-48222785D01*
D13*
X150934819Y-34733333D02*
X151649104Y-34733333D01*
X151649104Y-34733333D02*
X151791961Y-34780952D01*
X151791961Y-34780952D02*
X151887200Y-34876190D01*
X151887200Y-34876190D02*
X151934819Y-35019047D01*
X151934819Y-35019047D02*
X151934819Y-35114285D01*
X151934819Y-33733333D02*
X151934819Y-34304761D01*
X151934819Y-34019047D02*
X150934819Y-34019047D01*
X150934819Y-34019047D02*
X151077676Y-34114285D01*
X151077676Y-34114285D02*
X151172914Y-34209523D01*
X151172914Y-34209523D02*
X151220533Y-34304761D01*
X123966666Y-81354819D02*
X123966666Y-82069104D01*
X123966666Y-82069104D02*
X123919047Y-82211961D01*
X123919047Y-82211961D02*
X123823809Y-82307200D01*
X123823809Y-82307200D02*
X123680952Y-82354819D01*
X123680952Y-82354819D02*
X123585714Y-82354819D01*
X124919047Y-81354819D02*
X124442857Y-81354819D01*
X124442857Y-81354819D02*
X124395238Y-81831009D01*
X124395238Y-81831009D02*
X124442857Y-81783390D01*
X124442857Y-81783390D02*
X124538095Y-81735771D01*
X124538095Y-81735771D02*
X124776190Y-81735771D01*
X124776190Y-81735771D02*
X124871428Y-81783390D01*
X124871428Y-81783390D02*
X124919047Y-81831009D01*
X124919047Y-81831009D02*
X124966666Y-81926247D01*
X124966666Y-81926247D02*
X124966666Y-82164342D01*
X124966666Y-82164342D02*
X124919047Y-82259580D01*
X124919047Y-82259580D02*
X124871428Y-82307200D01*
X124871428Y-82307200D02*
X124776190Y-82354819D01*
X124776190Y-82354819D02*
X124538095Y-82354819D01*
X124538095Y-82354819D02*
X124442857Y-82307200D01*
X124442857Y-82307200D02*
X124395238Y-82259580D01*
X130928571Y-57462295D02*
X130928571Y-56662295D01*
X130928571Y-56662295D02*
X131233333Y-56662295D01*
X131233333Y-56662295D02*
X131309523Y-56700390D01*
X131309523Y-56700390D02*
X131347618Y-56738485D01*
X131347618Y-56738485D02*
X131385714Y-56814676D01*
X131385714Y-56814676D02*
X131385714Y-56928961D01*
X131385714Y-56928961D02*
X131347618Y-57005152D01*
X131347618Y-57005152D02*
X131309523Y-57043247D01*
X131309523Y-57043247D02*
X131233333Y-57081342D01*
X131233333Y-57081342D02*
X130928571Y-57081342D01*
X131690475Y-57424200D02*
X131804761Y-57462295D01*
X131804761Y-57462295D02*
X131995237Y-57462295D01*
X131995237Y-57462295D02*
X132071428Y-57424200D01*
X132071428Y-57424200D02*
X132109523Y-57386104D01*
X132109523Y-57386104D02*
X132147618Y-57309914D01*
X132147618Y-57309914D02*
X132147618Y-57233723D01*
X132147618Y-57233723D02*
X132109523Y-57157533D01*
X132109523Y-57157533D02*
X132071428Y-57119438D01*
X132071428Y-57119438D02*
X131995237Y-57081342D01*
X131995237Y-57081342D02*
X131842856Y-57043247D01*
X131842856Y-57043247D02*
X131766666Y-57005152D01*
X131766666Y-57005152D02*
X131728571Y-56967057D01*
X131728571Y-56967057D02*
X131690475Y-56890866D01*
X131690475Y-56890866D02*
X131690475Y-56814676D01*
X131690475Y-56814676D02*
X131728571Y-56738485D01*
X131728571Y-56738485D02*
X131766666Y-56700390D01*
X131766666Y-56700390D02*
X131842856Y-56662295D01*
X131842856Y-56662295D02*
X132033333Y-56662295D01*
X132033333Y-56662295D02*
X132147618Y-56700390D01*
X132909523Y-57462295D02*
X132452380Y-57462295D01*
X132680952Y-57462295D02*
X132680952Y-56662295D01*
X132680952Y-56662295D02*
X132604761Y-56776580D01*
X132604761Y-56776580D02*
X132528571Y-56852771D01*
X132528571Y-56852771D02*
X132452380Y-56890866D01*
X128594166Y-56254819D02*
X128594166Y-55254819D01*
X128594166Y-55731009D02*
X129079881Y-55731009D01*
X129079881Y-56254819D02*
X129079881Y-55254819D01*
X129889404Y-56254819D02*
X129484642Y-56254819D01*
X129484642Y-56254819D02*
X129484642Y-55254819D01*
X130172737Y-56254819D02*
X130172737Y-55254819D01*
X130658452Y-56254819D02*
X130294166Y-55683390D01*
X130658452Y-55254819D02*
X130172737Y-55826247D01*
X131022737Y-55873866D02*
X131670357Y-55873866D01*
X132075118Y-56254819D02*
X132075118Y-55254819D01*
X132075118Y-55254819D02*
X132398928Y-55254819D01*
X132398928Y-55254819D02*
X132479880Y-55302438D01*
X132479880Y-55302438D02*
X132520357Y-55350057D01*
X132520357Y-55350057D02*
X132560833Y-55445295D01*
X132560833Y-55445295D02*
X132560833Y-55588152D01*
X132560833Y-55588152D02*
X132520357Y-55683390D01*
X132520357Y-55683390D02*
X132479880Y-55731009D01*
X132479880Y-55731009D02*
X132398928Y-55778628D01*
X132398928Y-55778628D02*
X132075118Y-55778628D01*
X132925118Y-56254819D02*
X132925118Y-55254819D01*
X132925118Y-55254819D02*
X133208452Y-55969104D01*
X133208452Y-55969104D02*
X133491785Y-55254819D01*
X133491785Y-55254819D02*
X133491785Y-56254819D01*
X134058452Y-55254819D02*
X134139405Y-55254819D01*
X134139405Y-55254819D02*
X134220357Y-55302438D01*
X134220357Y-55302438D02*
X134260833Y-55350057D01*
X134260833Y-55350057D02*
X134301309Y-55445295D01*
X134301309Y-55445295D02*
X134341786Y-55635771D01*
X134341786Y-55635771D02*
X134341786Y-55873866D01*
X134341786Y-55873866D02*
X134301309Y-56064342D01*
X134301309Y-56064342D02*
X134260833Y-56159580D01*
X134260833Y-56159580D02*
X134220357Y-56207200D01*
X134220357Y-56207200D02*
X134139405Y-56254819D01*
X134139405Y-56254819D02*
X134058452Y-56254819D01*
X134058452Y-56254819D02*
X133977500Y-56207200D01*
X133977500Y-56207200D02*
X133937024Y-56159580D01*
X133937024Y-56159580D02*
X133896547Y-56064342D01*
X133896547Y-56064342D02*
X133856071Y-55873866D01*
X133856071Y-55873866D02*
X133856071Y-55635771D01*
X133856071Y-55635771D02*
X133896547Y-55445295D01*
X133896547Y-55445295D02*
X133937024Y-55350057D01*
X133937024Y-55350057D02*
X133977500Y-55302438D01*
X133977500Y-55302438D02*
X134058452Y-55254819D01*
X134625119Y-55254819D02*
X135151310Y-55254819D01*
X135151310Y-55254819D02*
X134867976Y-55635771D01*
X134867976Y-55635771D02*
X134989405Y-55635771D01*
X134989405Y-55635771D02*
X135070357Y-55683390D01*
X135070357Y-55683390D02*
X135110833Y-55731009D01*
X135110833Y-55731009D02*
X135151310Y-55826247D01*
X135151310Y-55826247D02*
X135151310Y-56064342D01*
X135151310Y-56064342D02*
X135110833Y-56159580D01*
X135110833Y-56159580D02*
X135070357Y-56207200D01*
X135070357Y-56207200D02*
X134989405Y-56254819D01*
X134989405Y-56254819D02*
X134746548Y-56254819D01*
X134746548Y-56254819D02*
X134665595Y-56207200D01*
X134665595Y-56207200D02*
X134625119Y-56159580D01*
X150934819Y-39533333D02*
X151649104Y-39533333D01*
X151649104Y-39533333D02*
X151791961Y-39580952D01*
X151791961Y-39580952D02*
X151887200Y-39676190D01*
X151887200Y-39676190D02*
X151934819Y-39819047D01*
X151934819Y-39819047D02*
X151934819Y-39914285D01*
X151030057Y-39104761D02*
X150982438Y-39057142D01*
X150982438Y-39057142D02*
X150934819Y-38961904D01*
X150934819Y-38961904D02*
X150934819Y-38723809D01*
X150934819Y-38723809D02*
X150982438Y-38628571D01*
X150982438Y-38628571D02*
X151030057Y-38580952D01*
X151030057Y-38580952D02*
X151125295Y-38533333D01*
X151125295Y-38533333D02*
X151220533Y-38533333D01*
X151220533Y-38533333D02*
X151363390Y-38580952D01*
X151363390Y-38580952D02*
X151934819Y-39152380D01*
X151934819Y-39152380D02*
X151934819Y-38533333D01*
D10*
X157488704Y-46233332D02*
X157526800Y-46271428D01*
X157526800Y-46271428D02*
X157564895Y-46385713D01*
X157564895Y-46385713D02*
X157564895Y-46461904D01*
X157564895Y-46461904D02*
X157526800Y-46576190D01*
X157526800Y-46576190D02*
X157450609Y-46652380D01*
X157450609Y-46652380D02*
X157374419Y-46690475D01*
X157374419Y-46690475D02*
X157222038Y-46728571D01*
X157222038Y-46728571D02*
X157107752Y-46728571D01*
X157107752Y-46728571D02*
X156955371Y-46690475D01*
X156955371Y-46690475D02*
X156879180Y-46652380D01*
X156879180Y-46652380D02*
X156802990Y-46576190D01*
X156802990Y-46576190D02*
X156764895Y-46461904D01*
X156764895Y-46461904D02*
X156764895Y-46385713D01*
X156764895Y-46385713D02*
X156802990Y-46271428D01*
X156802990Y-46271428D02*
X156841085Y-46233332D01*
X157564895Y-45471428D02*
X157564895Y-45928571D01*
X157564895Y-45699999D02*
X156764895Y-45699999D01*
X156764895Y-45699999D02*
X156879180Y-45776190D01*
X156879180Y-45776190D02*
X156955371Y-45852380D01*
X156955371Y-45852380D02*
X156993466Y-45928571D01*
D13*
X115766666Y-62731009D02*
X115433333Y-62731009D01*
X115433333Y-63254819D02*
X115433333Y-62254819D01*
X115433333Y-62254819D02*
X115909523Y-62254819D01*
X116814285Y-63254819D02*
X116242857Y-63254819D01*
X116528571Y-63254819D02*
X116528571Y-62254819D01*
X116528571Y-62254819D02*
X116433333Y-62397676D01*
X116433333Y-62397676D02*
X116338095Y-62492914D01*
X116338095Y-62492914D02*
X116242857Y-62540533D01*
X152671429Y-82731009D02*
X153004762Y-82731009D01*
X153147619Y-83254819D02*
X152671429Y-83254819D01*
X152671429Y-83254819D02*
X152671429Y-82254819D01*
X152671429Y-82254819D02*
X153147619Y-82254819D01*
X153528572Y-83207200D02*
X153671429Y-83254819D01*
X153671429Y-83254819D02*
X153909524Y-83254819D01*
X153909524Y-83254819D02*
X154004762Y-83207200D01*
X154004762Y-83207200D02*
X154052381Y-83159580D01*
X154052381Y-83159580D02*
X154100000Y-83064342D01*
X154100000Y-83064342D02*
X154100000Y-82969104D01*
X154100000Y-82969104D02*
X154052381Y-82873866D01*
X154052381Y-82873866D02*
X154004762Y-82826247D01*
X154004762Y-82826247D02*
X153909524Y-82778628D01*
X153909524Y-82778628D02*
X153719048Y-82731009D01*
X153719048Y-82731009D02*
X153623810Y-82683390D01*
X153623810Y-82683390D02*
X153576191Y-82635771D01*
X153576191Y-82635771D02*
X153528572Y-82540533D01*
X153528572Y-82540533D02*
X153528572Y-82445295D01*
X153528572Y-82445295D02*
X153576191Y-82350057D01*
X153576191Y-82350057D02*
X153623810Y-82302438D01*
X153623810Y-82302438D02*
X153719048Y-82254819D01*
X153719048Y-82254819D02*
X153957143Y-82254819D01*
X153957143Y-82254819D02*
X154100000Y-82302438D01*
X154528572Y-83254819D02*
X154528572Y-82254819D01*
X154528572Y-82254819D02*
X154909524Y-82254819D01*
X154909524Y-82254819D02*
X155004762Y-82302438D01*
X155004762Y-82302438D02*
X155052381Y-82350057D01*
X155052381Y-82350057D02*
X155100000Y-82445295D01*
X155100000Y-82445295D02*
X155100000Y-82588152D01*
X155100000Y-82588152D02*
X155052381Y-82683390D01*
X155052381Y-82683390D02*
X155004762Y-82731009D01*
X155004762Y-82731009D02*
X154909524Y-82778628D01*
X154909524Y-82778628D02*
X154528572Y-82778628D01*
X155433334Y-82254819D02*
X156052381Y-82254819D01*
X156052381Y-82254819D02*
X155719048Y-82635771D01*
X155719048Y-82635771D02*
X155861905Y-82635771D01*
X155861905Y-82635771D02*
X155957143Y-82683390D01*
X155957143Y-82683390D02*
X156004762Y-82731009D01*
X156004762Y-82731009D02*
X156052381Y-82826247D01*
X156052381Y-82826247D02*
X156052381Y-83064342D01*
X156052381Y-83064342D02*
X156004762Y-83159580D01*
X156004762Y-83159580D02*
X155957143Y-83207200D01*
X155957143Y-83207200D02*
X155861905Y-83254819D01*
X155861905Y-83254819D02*
X155576191Y-83254819D01*
X155576191Y-83254819D02*
X155480953Y-83207200D01*
X155480953Y-83207200D02*
X155433334Y-83159580D01*
X156433334Y-82350057D02*
X156480953Y-82302438D01*
X156480953Y-82302438D02*
X156576191Y-82254819D01*
X156576191Y-82254819D02*
X156814286Y-82254819D01*
X156814286Y-82254819D02*
X156909524Y-82302438D01*
X156909524Y-82302438D02*
X156957143Y-82350057D01*
X156957143Y-82350057D02*
X157004762Y-82445295D01*
X157004762Y-82445295D02*
X157004762Y-82540533D01*
X157004762Y-82540533D02*
X156957143Y-82683390D01*
X156957143Y-82683390D02*
X156385715Y-83254819D01*
X156385715Y-83254819D02*
X157004762Y-83254819D01*
X157433334Y-82873866D02*
X158195239Y-82873866D01*
X159242857Y-83159580D02*
X159195238Y-83207200D01*
X159195238Y-83207200D02*
X159052381Y-83254819D01*
X159052381Y-83254819D02*
X158957143Y-83254819D01*
X158957143Y-83254819D02*
X158814286Y-83207200D01*
X158814286Y-83207200D02*
X158719048Y-83111961D01*
X158719048Y-83111961D02*
X158671429Y-83016723D01*
X158671429Y-83016723D02*
X158623810Y-82826247D01*
X158623810Y-82826247D02*
X158623810Y-82683390D01*
X158623810Y-82683390D02*
X158671429Y-82492914D01*
X158671429Y-82492914D02*
X158719048Y-82397676D01*
X158719048Y-82397676D02*
X158814286Y-82302438D01*
X158814286Y-82302438D02*
X158957143Y-82254819D01*
X158957143Y-82254819D02*
X159052381Y-82254819D01*
X159052381Y-82254819D02*
X159195238Y-82302438D01*
X159195238Y-82302438D02*
X159242857Y-82350057D01*
X159576191Y-82254819D02*
X160195238Y-82254819D01*
X160195238Y-82254819D02*
X159861905Y-82635771D01*
X159861905Y-82635771D02*
X160004762Y-82635771D01*
X160004762Y-82635771D02*
X160100000Y-82683390D01*
X160100000Y-82683390D02*
X160147619Y-82731009D01*
X160147619Y-82731009D02*
X160195238Y-82826247D01*
X160195238Y-82826247D02*
X160195238Y-83064342D01*
X160195238Y-83064342D02*
X160147619Y-83159580D01*
X160147619Y-83159580D02*
X160100000Y-83207200D01*
X160100000Y-83207200D02*
X160004762Y-83254819D01*
X160004762Y-83254819D02*
X159719048Y-83254819D01*
X159719048Y-83254819D02*
X159623810Y-83207200D01*
X159623810Y-83207200D02*
X159576191Y-83159580D01*
X160385715Y-83350057D02*
X161147619Y-83350057D01*
X161338096Y-83207200D02*
X161480953Y-83254819D01*
X161480953Y-83254819D02*
X161719048Y-83254819D01*
X161719048Y-83254819D02*
X161814286Y-83207200D01*
X161814286Y-83207200D02*
X161861905Y-83159580D01*
X161861905Y-83159580D02*
X161909524Y-83064342D01*
X161909524Y-83064342D02*
X161909524Y-82969104D01*
X161909524Y-82969104D02*
X161861905Y-82873866D01*
X161861905Y-82873866D02*
X161814286Y-82826247D01*
X161814286Y-82826247D02*
X161719048Y-82778628D01*
X161719048Y-82778628D02*
X161528572Y-82731009D01*
X161528572Y-82731009D02*
X161433334Y-82683390D01*
X161433334Y-82683390D02*
X161385715Y-82635771D01*
X161385715Y-82635771D02*
X161338096Y-82540533D01*
X161338096Y-82540533D02*
X161338096Y-82445295D01*
X161338096Y-82445295D02*
X161385715Y-82350057D01*
X161385715Y-82350057D02*
X161433334Y-82302438D01*
X161433334Y-82302438D02*
X161528572Y-82254819D01*
X161528572Y-82254819D02*
X161766667Y-82254819D01*
X161766667Y-82254819D02*
X161909524Y-82302438D01*
X162338096Y-82254819D02*
X162338096Y-83064342D01*
X162338096Y-83064342D02*
X162385715Y-83159580D01*
X162385715Y-83159580D02*
X162433334Y-83207200D01*
X162433334Y-83207200D02*
X162528572Y-83254819D01*
X162528572Y-83254819D02*
X162719048Y-83254819D01*
X162719048Y-83254819D02*
X162814286Y-83207200D01*
X162814286Y-83207200D02*
X162861905Y-83159580D01*
X162861905Y-83159580D02*
X162909524Y-83064342D01*
X162909524Y-83064342D02*
X162909524Y-82254819D01*
X163385715Y-83254819D02*
X163385715Y-82254819D01*
X163385715Y-82254819D02*
X163766667Y-82254819D01*
X163766667Y-82254819D02*
X163861905Y-82302438D01*
X163861905Y-82302438D02*
X163909524Y-82350057D01*
X163909524Y-82350057D02*
X163957143Y-82445295D01*
X163957143Y-82445295D02*
X163957143Y-82588152D01*
X163957143Y-82588152D02*
X163909524Y-82683390D01*
X163909524Y-82683390D02*
X163861905Y-82731009D01*
X163861905Y-82731009D02*
X163766667Y-82778628D01*
X163766667Y-82778628D02*
X163385715Y-82778628D01*
X164385715Y-82731009D02*
X164719048Y-82731009D01*
X164861905Y-83254819D02*
X164385715Y-83254819D01*
X164385715Y-83254819D02*
X164385715Y-82254819D01*
X164385715Y-82254819D02*
X164861905Y-82254819D01*
X165861905Y-83254819D02*
X165528572Y-82778628D01*
X165290477Y-83254819D02*
X165290477Y-82254819D01*
X165290477Y-82254819D02*
X165671429Y-82254819D01*
X165671429Y-82254819D02*
X165766667Y-82302438D01*
X165766667Y-82302438D02*
X165814286Y-82350057D01*
X165814286Y-82350057D02*
X165861905Y-82445295D01*
X165861905Y-82445295D02*
X165861905Y-82588152D01*
X165861905Y-82588152D02*
X165814286Y-82683390D01*
X165814286Y-82683390D02*
X165766667Y-82731009D01*
X165766667Y-82731009D02*
X165671429Y-82778628D01*
X165671429Y-82778628D02*
X165290477Y-82778628D01*
X166290477Y-83254819D02*
X166290477Y-82254819D01*
X166290477Y-82254819D02*
X166623810Y-82969104D01*
X166623810Y-82969104D02*
X166957143Y-82254819D01*
X166957143Y-82254819D02*
X166957143Y-83254819D01*
X167433334Y-83254819D02*
X167433334Y-82254819D01*
X167909524Y-83254819D02*
X167909524Y-82254819D01*
X167909524Y-82254819D02*
X168480952Y-83254819D01*
X168480952Y-83254819D02*
X168480952Y-82254819D01*
X168957143Y-83254819D02*
X168957143Y-82254819D01*
X169195238Y-83350057D02*
X169957142Y-83350057D01*
X170052381Y-82254819D02*
X170623809Y-82254819D01*
X170338095Y-83254819D02*
X170338095Y-82254819D01*
X170957143Y-83254819D02*
X170957143Y-82254819D01*
X170957143Y-82731009D02*
X171528571Y-82731009D01*
X171528571Y-83254819D02*
X171528571Y-82254819D01*
D14*
G04 #@! TO.C,J6*
X174820000Y-80020000D02*
X176200000Y-80020000D01*
X174820000Y-81400000D02*
X174820000Y-80020000D01*
X174820000Y-82670000D02*
X174820000Y-82780000D01*
X174820000Y-82670000D02*
X177580000Y-82670000D01*
X174820000Y-82780000D02*
X177580000Y-82780000D01*
X177580000Y-82670000D02*
X177580000Y-82780000D01*
G04 #@! TO.C,J4*
X146620000Y-72310000D02*
X146620000Y-62040000D01*
X149380000Y-62040000D02*
X146620000Y-62040000D01*
X149380000Y-72310000D02*
X146620000Y-72310000D01*
X149380000Y-72310000D02*
X149380000Y-62040000D01*
X149380000Y-73580000D02*
X149380000Y-74960000D01*
X149380000Y-74960000D02*
X148000000Y-74960000D01*
G04 #@! TO.C,J3*
X174920000Y-64740000D02*
X176300000Y-64740000D01*
X174920000Y-66120000D02*
X174920000Y-64740000D01*
X174920000Y-67390000D02*
X174920000Y-77660000D01*
X174920000Y-67390000D02*
X177680000Y-67390000D01*
X174920000Y-77660000D02*
X177680000Y-77660000D01*
X177680000Y-67390000D02*
X177680000Y-77660000D01*
G04 #@! TO.C,R3*
X176265000Y-48327064D02*
X176265000Y-47872936D01*
X177735000Y-48327064D02*
X177735000Y-47872936D01*
G04 #@! TO.C,C2*
X152465000Y-45801248D02*
X152465000Y-46323752D01*
X153935000Y-45801248D02*
X153935000Y-46323752D01*
G04 #@! TO.C,J7*
X174920000Y-55740000D02*
X176300000Y-55740000D01*
X174920000Y-57120000D02*
X174920000Y-55740000D01*
X174920000Y-58390000D02*
X174920000Y-63580000D01*
X174920000Y-58390000D02*
X177680000Y-58390000D01*
X174920000Y-63580000D02*
X177680000Y-63580000D01*
X177680000Y-58390000D02*
X177680000Y-63580000D01*
G04 #@! TO.C,JP1*
X170500000Y-50700000D02*
X172500000Y-50700000D01*
X170500000Y-53500000D02*
X170500000Y-50700000D01*
X172500000Y-50700000D02*
X172500000Y-53500000D01*
X172500000Y-53500000D02*
X170500000Y-53500000D01*
G04 #@! TO.C,R4*
X170765000Y-48427064D02*
X170765000Y-47972936D01*
X172235000Y-48427064D02*
X172235000Y-47972936D01*
G04 #@! TO.C,J1*
X152480000Y-35780000D02*
X152480000Y-34400000D01*
X153860000Y-35780000D02*
X152480000Y-35780000D01*
X155130000Y-33020000D02*
X167940000Y-33020000D01*
X155130000Y-35780000D02*
X155130000Y-33020000D01*
X155130000Y-35780000D02*
X167940000Y-35780000D01*
X167940000Y-35780000D02*
X167940000Y-33020000D01*
G04 #@! TO.C,J5*
X126280000Y-73252500D02*
X141520000Y-73252500D01*
X126280000Y-76272500D02*
X141520000Y-76272500D01*
X126280000Y-81172500D02*
X141520000Y-81172500D01*
X126280000Y-82672500D02*
X141520000Y-82672500D01*
X126280000Y-83292500D02*
X126280000Y-73252500D01*
X128600000Y-83292500D02*
X126280000Y-83292500D01*
X141520000Y-73252500D02*
X141520000Y-83292500D01*
X141520000Y-83292500D02*
X129200000Y-83292500D01*
X129340000Y-83902500D02*
X128460000Y-83902500D01*
X128900000Y-83292500D01*
X129340000Y-83902500D01*
G36*
X129340000Y-83902500D02*
G01*
X128460000Y-83902500D01*
X128900000Y-83292500D01*
X129340000Y-83902500D01*
G37*
G04 #@! TO.C,JP2*
X176000000Y-50700000D02*
X178000000Y-50700000D01*
X176000000Y-53500000D02*
X176000000Y-50700000D01*
X178000000Y-50700000D02*
X178000000Y-53500000D01*
X178000000Y-53500000D02*
X176000000Y-53500000D01*
G04 #@! TO.C,PS1*
X113342500Y-32140000D02*
X150362500Y-32140000D01*
X113342500Y-40704000D02*
X113342500Y-32140000D01*
X113342500Y-54860000D02*
X113342500Y-41296000D01*
X150362500Y-32140000D02*
X150362500Y-54860000D01*
X150362500Y-54860000D02*
X113342500Y-54860000D01*
X113342500Y-41000000D02*
X112732500Y-41440000D01*
X112732500Y-40560000D01*
X113342500Y-41000000D01*
G36*
X113342500Y-41000000D02*
G01*
X112732500Y-41440000D01*
X112732500Y-40560000D01*
X113342500Y-41000000D01*
G37*
G04 #@! TO.C,J2*
X152480000Y-40580000D02*
X152480000Y-39200000D01*
X153860000Y-40580000D02*
X152480000Y-40580000D01*
X155130000Y-37820000D02*
X167940000Y-37820000D01*
X155130000Y-40580000D02*
X155130000Y-37820000D01*
X155130000Y-40580000D02*
X167940000Y-40580000D01*
X167940000Y-40580000D02*
X167940000Y-37820000D01*
G04 #@! TO.C,C1*
X158090000Y-42490000D02*
X160440000Y-42490000D01*
X158090000Y-48245563D02*
X158090000Y-42490000D01*
X159154437Y-49310000D02*
X158090000Y-48245563D01*
X159154437Y-49310000D02*
X160440000Y-49310000D01*
X159258750Y-49943750D02*
X160046250Y-49943750D01*
X159652500Y-50337500D02*
X159652500Y-49550000D01*
X163845563Y-49310000D02*
X162560000Y-49310000D01*
X163845563Y-49310000D02*
X164910000Y-48245563D01*
X164910000Y-42490000D02*
X162560000Y-42490000D01*
X164910000Y-48245563D02*
X164910000Y-42490000D01*
G04 #@! TO.C,F1*
X117830000Y-65340000D02*
X117830000Y-60260000D01*
X118600000Y-60260000D02*
X117830000Y-60260000D01*
X118600000Y-65340000D02*
X117830000Y-65340000D01*
X121200000Y-60260000D02*
X122830000Y-60260000D01*
X121200000Y-65340000D02*
X122830000Y-65340000D01*
X122830000Y-60300000D02*
X134770000Y-60300000D01*
X122830000Y-65300000D02*
X134770000Y-65300000D01*
X122830000Y-65340000D02*
X122830000Y-60260000D01*
X134770000Y-60260000D02*
X136400000Y-60260000D01*
X134770000Y-65340000D02*
X134770000Y-60260000D01*
X134770000Y-65340000D02*
X136400000Y-65340000D01*
X139000000Y-60260000D02*
X139770000Y-60260000D01*
X139000000Y-65340000D02*
X139770000Y-65340000D01*
X139770000Y-60260000D02*
X139770000Y-65340000D01*
D15*
G04 #@! TO.C,ESP32-C3_SUPERMINI_TH*
X152900000Y-57550000D02*
X152900000Y-80250000D01*
X152900000Y-57550000D02*
X170900000Y-57550000D01*
X152900000Y-80250000D02*
X157400000Y-80250000D01*
X157400000Y-81550000D02*
X157400000Y-80250000D01*
X157400000Y-81550000D02*
X166400000Y-81550000D01*
X166400000Y-80250000D02*
X170900000Y-80250000D01*
X166400000Y-81550000D02*
X166400000Y-80250000D01*
X170900000Y-57550000D02*
X170900000Y-80250000D01*
G04 #@! TD*
%LPC*%
G04 #@! TO.C,JP1*
G36*
X170750000Y-52250000D02*
G01*
X172250000Y-52250000D01*
X172250000Y-51950000D01*
X170750000Y-51950000D01*
X170750000Y-52250000D01*
G37*
G04 #@! TO.C,JP2*
G36*
X176250000Y-52250000D02*
G01*
X177750000Y-52250000D01*
X177750000Y-51950000D01*
X176250000Y-51950000D01*
X176250000Y-52250000D01*
G37*
G04 #@! TD*
D16*
G04 #@! TO.C,J6*
X176200000Y-81400000D03*
G04 #@! TD*
G04 #@! TO.C,J4*
X148000000Y-73580000D03*
D17*
X148000000Y-71040000D03*
X148000000Y-68500000D03*
X148000000Y-65960000D03*
X148000000Y-63420000D03*
G04 #@! TD*
D16*
G04 #@! TO.C,J3*
X176300000Y-66120000D03*
D17*
X176300000Y-68660000D03*
X176300000Y-71200000D03*
X176300000Y-73740000D03*
X176300000Y-76280000D03*
G04 #@! TD*
D18*
G04 #@! TO.C,R3*
X177000000Y-49100000D03*
X177000000Y-47100000D03*
G04 #@! TD*
D19*
G04 #@! TO.C,C2*
X153200000Y-45025000D03*
X153200000Y-47100000D03*
G04 #@! TD*
D16*
G04 #@! TO.C,J7*
X176300000Y-57120000D03*
D17*
X176300000Y-59660000D03*
X176300000Y-62200000D03*
G04 #@! TD*
D20*
G04 #@! TO.C,JP1*
X171500000Y-52750000D03*
X171500000Y-51450000D03*
G04 #@! TD*
D21*
G04 #@! TO.C,H2*
X118600000Y-79100000D03*
G04 #@! TD*
D18*
G04 #@! TO.C,R4*
X171500000Y-49200000D03*
X171500000Y-47200000D03*
G04 #@! TD*
D16*
G04 #@! TO.C,J1*
X153860000Y-34400000D03*
D17*
X156400000Y-34400000D03*
X158940000Y-34400000D03*
X161480000Y-34400000D03*
X164020000Y-34400000D03*
X166560000Y-34400000D03*
G04 #@! TD*
D22*
G04 #@! TO.C,J5*
X128900000Y-78572500D03*
D23*
X133900000Y-78572500D03*
X138900000Y-78572500D03*
G04 #@! TD*
D20*
G04 #@! TO.C,JP2*
X177000000Y-52750000D03*
X177000000Y-51450000D03*
G04 #@! TD*
D21*
G04 #@! TO.C,H1*
X175000000Y-36800000D03*
G04 #@! TD*
D24*
G04 #@! TO.C,PS1*
X117312500Y-41000000D03*
D25*
X117312500Y-46000000D03*
X146392500Y-36000000D03*
X146392500Y-51000000D03*
G04 #@! TD*
D16*
G04 #@! TO.C,J2*
X153860000Y-39200000D03*
D17*
X156400000Y-39200000D03*
X158940000Y-39200000D03*
X161480000Y-39200000D03*
X164020000Y-39200000D03*
X166560000Y-39200000D03*
G04 #@! TD*
D26*
G04 #@! TO.C,C1*
X161500000Y-48600000D03*
X161500000Y-43200000D03*
G04 #@! TD*
D27*
G04 #@! TO.C,F1*
X137700000Y-65300000D03*
X137700000Y-60300000D03*
D28*
X119900000Y-65300000D03*
X119900000Y-60300000D03*
G04 #@! TD*
D29*
G04 #@! TO.C,ESP32-C3_SUPERMINI_TH*
X154280000Y-61020000D03*
X154280000Y-63560000D03*
X154280000Y-66100000D03*
X154280000Y-68640000D03*
X154280000Y-73720000D03*
X154280000Y-71180000D03*
X169520000Y-78800000D03*
X154280000Y-78800000D03*
X169520000Y-76260000D03*
X169520000Y-73720000D03*
X169520000Y-71180000D03*
X169520000Y-68640000D03*
X169520000Y-66100000D03*
X169520000Y-63560000D03*
X169520000Y-61020000D03*
X154280000Y-76260000D03*
G04 #@! TD*
%LPD*%
M02*
