G04 #@! TF.GenerationSoftware,KiCad,Pcbnew,9.0.5*
G04 #@! TF.CreationDate,2025-11-30T17:48:18+01:00*
G04 #@! TF.ProjectId,Sensor_all_Netz_ESP32,53656e73-6f72-45f6-916c-6c5f4e65747a,rev?*
G04 #@! TF.SameCoordinates,Original*
G04 #@! TF.FileFunction,Copper,L2,Bot*
G04 #@! TF.FilePolarity,Positive*
%FSLAX46Y46*%
G04 Gerber Fmt 4.6, Leading zero omitted, Abs format (unit mm)*
G04 Created by KiCad (PCBNEW 9.0.5) date 2025-11-30 17:48:18*
%MOMM*%
%LPD*%
G01*
G04 APERTURE LIST*
G04 Aperture macros list*
%AMRoundRect*
0 Rectangle with rounded corners*
0 $1 Rounding radius*
0 $2 $3 $4 $5 $6 $7 $8 $9 X,Y pos of 4 corners*
0 Add a 4 corners polygon primitive as box body*
4,1,4,$2,$3,$4,$5,$6,$7,$8,$9,$2,$3,0*
0 Add four circle primitives for the rounded corners*
1,1,$1+$1,$2,$3*
1,1,$1+$1,$4,$5*
1,1,$1+$1,$6,$7*
1,1,$1+$1,$8,$9*
0 Add four rect primitives between the rounded corners*
20,1,$1+$1,$2,$3,$4,$5,0*
20,1,$1+$1,$4,$5,$6,$7,0*
20,1,$1+$1,$6,$7,$8,$9,0*
20,1,$1+$1,$8,$9,$2,$3,0*%
G04 Aperture macros list end*
G04 #@! TA.AperFunction,NonConductor*
%ADD10C,0.200000*%
G04 #@! TD*
G04 #@! TA.AperFunction,ComponentPad*
%ADD11R,1.700000X1.700000*%
G04 #@! TD*
G04 #@! TA.AperFunction,ComponentPad*
%ADD12C,1.700000*%
G04 #@! TD*
G04 #@! TA.AperFunction,WasherPad*
%ADD13C,3.500000*%
G04 #@! TD*
G04 #@! TA.AperFunction,ComponentPad*
%ADD14RoundRect,0.250000X-1.050000X-1.050000X1.050000X-1.050000X1.050000X1.050000X-1.050000X1.050000X0*%
G04 #@! TD*
G04 #@! TA.AperFunction,ComponentPad*
%ADD15C,2.600000*%
G04 #@! TD*
G04 #@! TA.AperFunction,ComponentPad*
%ADD16RoundRect,0.250000X-0.600000X-0.750000X0.600000X-0.750000X0.600000X0.750000X-0.600000X0.750000X0*%
G04 #@! TD*
G04 #@! TA.AperFunction,ComponentPad*
%ADD17O,1.700000X2.000000*%
G04 #@! TD*
G04 #@! TA.AperFunction,ComponentPad*
%ADD18RoundRect,0.550000X0.550000X0.550000X-0.550000X0.550000X-0.550000X-0.550000X0.550000X-0.550000X0*%
G04 #@! TD*
G04 #@! TA.AperFunction,ComponentPad*
%ADD19C,2.200000*%
G04 #@! TD*
G04 #@! TA.AperFunction,ComponentPad*
%ADD20C,1.348000*%
G04 #@! TD*
G04 #@! TA.AperFunction,ViaPad*
%ADD21C,0.600000*%
G04 #@! TD*
G04 #@! TA.AperFunction,Conductor*
%ADD22C,1.000000*%
G04 #@! TD*
G04 #@! TA.AperFunction,Conductor*
%ADD23C,0.500000*%
G04 #@! TD*
G04 #@! TA.AperFunction,Conductor*
%ADD24C,0.200000*%
G04 #@! TD*
G04 APERTURE END LIST*
D10*
X112000000Y-30900000D02*
X180900000Y-30900000D01*
X180900000Y-84600000D01*
X112000000Y-84600000D01*
X112000000Y-30900000D01*
D11*
G04 #@! TO.P,J6,1,Pin_1*
G04 #@! TO.N,5V0*
X176200000Y-81400000D03*
G04 #@! TD*
G04 #@! TO.P,J4,1,Pin_1*
G04 #@! TO.N,/Steuerstromkreis/GPIO5*
X148000000Y-73580000D03*
D12*
G04 #@! TO.P,J4,2,Pin_2*
G04 #@! TO.N,/Steuerstromkreis/GPIO4*
X148000000Y-71040000D03*
G04 #@! TO.P,J4,3,Pin_3*
G04 #@! TO.N,/Steuerstromkreis/GPIO3*
X148000000Y-68500000D03*
G04 #@! TO.P,J4,4,Pin_4*
G04 #@! TO.N,/Steuerstromkreis/GPIO2*
X148000000Y-65960000D03*
G04 #@! TO.P,J4,5,Pin_5*
G04 #@! TO.N,/Steuerstromkreis/GPIO1*
X148000000Y-63420000D03*
G04 #@! TD*
D11*
G04 #@! TO.P,J3,1,Pin_1*
G04 #@! TO.N,/Steuerstromkreis/GPIO10*
X176300000Y-66120000D03*
D12*
G04 #@! TO.P,J3,2,Pin_2*
G04 #@! TO.N,/Steuerstromkreis/GPIO9*
X176300000Y-68660000D03*
G04 #@! TO.P,J3,3,Pin_3*
G04 #@! TO.N,/Steuerstromkreis/GPIO8*
X176300000Y-71200000D03*
G04 #@! TO.P,J3,4,Pin_4*
G04 #@! TO.N,/Steuerstromkreis/GPIO7*
X176300000Y-73740000D03*
G04 #@! TO.P,J3,5,Pin_5*
G04 #@! TO.N,/Steuerstromkreis/GPIO6*
X176300000Y-76280000D03*
G04 #@! TD*
D11*
G04 #@! TO.P,J7,1,Pin_1*
G04 #@! TO.N,/Steuerstromkreis/GPIO0*
X176300000Y-57120000D03*
D12*
G04 #@! TO.P,J7,2,Pin_2*
G04 #@! TO.N,/Steuerstromkreis/GPIO21{slash}TXD*
X176300000Y-59660000D03*
G04 #@! TO.P,J7,3,Pin_3*
G04 #@! TO.N,/Steuerstromkreis/GPIO20{slash}RXD*
X176300000Y-62200000D03*
G04 #@! TD*
D13*
G04 #@! TO.P,H2,*
G04 #@! TO.N,*
X118600000Y-79100000D03*
G04 #@! TD*
D11*
G04 #@! TO.P,J1,1,Pin_1*
G04 #@! TO.N,GND*
X153860000Y-34400000D03*
D12*
G04 #@! TO.P,J1,2,Pin_2*
X156400000Y-34400000D03*
G04 #@! TO.P,J1,3,Pin_3*
X158940000Y-34400000D03*
G04 #@! TO.P,J1,4,Pin_4*
X161480000Y-34400000D03*
G04 #@! TO.P,J1,5,Pin_5*
X164020000Y-34400000D03*
G04 #@! TO.P,J1,6,Pin_6*
X166560000Y-34400000D03*
G04 #@! TD*
D14*
G04 #@! TO.P,J5,1,Pin_1*
G04 #@! TO.N,N*
X128900000Y-78572500D03*
D15*
G04 #@! TO.P,J5,2,Pin_2*
G04 #@! TO.N,L1 230VAC*
X133900000Y-78572500D03*
G04 #@! TO.P,J5,3,Pin_3*
G04 #@! TO.N,PE*
X138900000Y-78572500D03*
G04 #@! TD*
D13*
G04 #@! TO.P,H1,*
G04 #@! TO.N,*
X175000000Y-36800000D03*
G04 #@! TD*
D16*
G04 #@! TO.P,PS1,1,AC/L*
G04 #@! TO.N,Net-(PS1-AC{slash}L)*
X117312500Y-41000000D03*
D17*
G04 #@! TO.P,PS1,2,AC/N*
G04 #@! TO.N,N*
X117312500Y-46000000D03*
G04 #@! TO.P,PS1,3,-Vout*
G04 #@! TO.N,GND*
X146392500Y-36000000D03*
G04 #@! TO.P,PS1,4,+Vout*
G04 #@! TO.N,3V3*
X146392500Y-51000000D03*
G04 #@! TD*
D11*
G04 #@! TO.P,J2,1,Pin_1*
G04 #@! TO.N,3V3*
X153860000Y-39200000D03*
D12*
G04 #@! TO.P,J2,2,Pin_2*
X156400000Y-39200000D03*
G04 #@! TO.P,J2,3,Pin_3*
X158940000Y-39200000D03*
G04 #@! TO.P,J2,4,Pin_4*
X161480000Y-39200000D03*
G04 #@! TO.P,J2,5,Pin_5*
X164020000Y-39200000D03*
G04 #@! TO.P,J2,6,Pin_6*
X166560000Y-39200000D03*
G04 #@! TD*
D18*
G04 #@! TO.P,F1,1*
G04 #@! TO.N,L1 230VAC*
X137700000Y-65300000D03*
X137700000Y-60300000D03*
D19*
G04 #@! TO.P,F1,2*
G04 #@! TO.N,Net-(PS1-AC{slash}L)*
X119900000Y-65300000D03*
X119900000Y-60300000D03*
G04 #@! TD*
D20*
G04 #@! TO.P,ESP32-C3_SUPERMINI_TH,0,GPIO0*
G04 #@! TO.N,/Steuerstromkreis/GPIO0*
X154280000Y-61020000D03*
G04 #@! TO.P,ESP32-C3_SUPERMINI_TH,1,GPIO1*
G04 #@! TO.N,/Steuerstromkreis/GPIO1*
X154280000Y-63560000D03*
G04 #@! TO.P,ESP32-C3_SUPERMINI_TH,2,GPIO2*
G04 #@! TO.N,/Steuerstromkreis/GPIO2*
X154280000Y-66100000D03*
G04 #@! TO.P,ESP32-C3_SUPERMINI_TH,3,GPIO3*
G04 #@! TO.N,/Steuerstromkreis/GPIO3*
X154280000Y-68640000D03*
G04 #@! TO.P,ESP32-C3_SUPERMINI_TH,3.3,3V3*
G04 #@! TO.N,3V3*
X154280000Y-73720000D03*
G04 #@! TO.P,ESP32-C3_SUPERMINI_TH,4,GPIO4*
G04 #@! TO.N,/Steuerstromkreis/GPIO4*
X154280000Y-71180000D03*
G04 #@! TO.P,ESP32-C3_SUPERMINI_TH,5,GPIO5*
G04 #@! TO.N,/Steuerstromkreis/GPIO5*
X169520000Y-78800000D03*
G04 #@! TO.P,ESP32-C3_SUPERMINI_TH,5V,5V*
G04 #@! TO.N,5V0*
X154280000Y-78800000D03*
G04 #@! TO.P,ESP32-C3_SUPERMINI_TH,6,GPIO6*
G04 #@! TO.N,/Steuerstromkreis/GPIO6*
X169520000Y-76260000D03*
G04 #@! TO.P,ESP32-C3_SUPERMINI_TH,7,GPIO7*
G04 #@! TO.N,/Steuerstromkreis/GPIO7*
X169520000Y-73720000D03*
G04 #@! TO.P,ESP32-C3_SUPERMINI_TH,8,GPIO8*
G04 #@! TO.N,/Steuerstromkreis/GPIO8*
X169520000Y-71180000D03*
G04 #@! TO.P,ESP32-C3_SUPERMINI_TH,9,GPIO9*
G04 #@! TO.N,/Steuerstromkreis/GPIO9*
X169520000Y-68640000D03*
G04 #@! TO.P,ESP32-C3_SUPERMINI_TH,10,GPIO10*
G04 #@! TO.N,/Steuerstromkreis/GPIO10*
X169520000Y-66100000D03*
G04 #@! TO.P,ESP32-C3_SUPERMINI_TH,20,GPIO20*
G04 #@! TO.N,/Steuerstromkreis/GPIO20{slash}RXD*
X169520000Y-63560000D03*
G04 #@! TO.P,ESP32-C3_SUPERMINI_TH,21,GPIO21*
G04 #@! TO.N,/Steuerstromkreis/GPIO21{slash}TXD*
X169520000Y-61020000D03*
G04 #@! TO.P,ESP32-C3_SUPERMINI_TH,G,GND*
G04 #@! TO.N,GND*
X154280000Y-76260000D03*
G04 #@! TD*
D21*
G04 #@! TO.N,GND*
X156100000Y-44300000D03*
X159900000Y-66000000D03*
X146700000Y-39500000D03*
X156200000Y-62300000D03*
G04 #@! TO.N,3V3*
X151900000Y-73600000D03*
X151200000Y-62100000D03*
X171500000Y-45400000D03*
G04 #@! TO.N,/Steuerstromkreis/GPIO1*
X173400000Y-53700000D03*
G04 #@! TO.N,5V0*
X165800000Y-80700000D03*
X164200000Y-79100000D03*
G04 #@! TO.N,/Steuerstromkreis/GPIO0*
X174700000Y-53200000D03*
X166100000Y-61000000D03*
G04 #@! TD*
D22*
G04 #@! TO.N,Net-(PS1-AC{slash}L)*
X119900000Y-60300000D02*
X119900000Y-65300000D01*
X119900000Y-56100000D02*
X126100000Y-49900000D01*
X119900000Y-56100000D02*
X119900000Y-60300000D01*
X126100000Y-49900000D02*
X126100000Y-44000000D01*
X123100000Y-41000000D02*
X117312500Y-41000000D01*
X126100000Y-44000000D02*
X123100000Y-41000000D01*
G04 #@! TO.N,L1 230VAC*
X137700000Y-65300000D02*
X137700000Y-60300000D01*
X136600000Y-65300000D02*
X137700000Y-65300000D01*
X133900000Y-68000000D02*
X136600000Y-65300000D01*
X133900000Y-78572500D02*
X133900000Y-68000000D01*
G04 #@! TO.N,GND*
X152260000Y-36000000D02*
X153860000Y-34400000D01*
X153860000Y-34400000D02*
X156400000Y-34400000D01*
X156400000Y-34400000D02*
X158940000Y-34400000D01*
X157140000Y-76260000D02*
X154280000Y-76260000D01*
X146392500Y-36000000D02*
X152260000Y-36000000D01*
X164020000Y-34400000D02*
X166560000Y-34400000D01*
X159900000Y-73500000D02*
X157140000Y-76260000D01*
D23*
X156100000Y-62200000D02*
X156200000Y-62300000D01*
D22*
X158940000Y-34400000D02*
X161480000Y-34400000D01*
X161480000Y-34400000D02*
X164020000Y-34400000D01*
X146392500Y-39192500D02*
X146700000Y-39500000D01*
X146392500Y-36000000D02*
X146392500Y-39192500D01*
X159900000Y-66000000D02*
X159900000Y-73500000D01*
X156100000Y-44300000D02*
X156100000Y-62200000D01*
G04 #@! TO.N,3V3*
X146392500Y-51000000D02*
X146392500Y-43507500D01*
X164020000Y-39200000D02*
X166560000Y-39200000D01*
X151200000Y-62100000D02*
X146392500Y-57292500D01*
X151900000Y-73600000D02*
X152900000Y-73600000D01*
X146392500Y-43507500D02*
X150700000Y-39200000D01*
X146392500Y-57292500D02*
X146392500Y-51000000D01*
X150700000Y-39200000D02*
X153860000Y-39200000D01*
X161480000Y-39200000D02*
X164020000Y-39200000D01*
X153860000Y-39200000D02*
X156400000Y-39200000D01*
X152900000Y-73600000D02*
X153020000Y-73720000D01*
X166560000Y-39200000D02*
X171500000Y-44140000D01*
X154280000Y-73720000D02*
X153020000Y-73720000D01*
X158940000Y-39200000D02*
X161480000Y-39200000D01*
X156400000Y-39200000D02*
X158940000Y-39200000D01*
X171500000Y-44140000D02*
X171500000Y-45400000D01*
D24*
G04 #@! TO.N,/Steuerstromkreis/GPIO9*
X176280000Y-68640000D02*
X176300000Y-68660000D01*
D23*
X169520000Y-68640000D02*
X176280000Y-68640000D01*
G04 #@! TO.N,/Steuerstromkreis/GPIO10*
X169520000Y-66100000D02*
X176280000Y-66100000D01*
D24*
X176280000Y-66100000D02*
X176300000Y-66120000D01*
D23*
G04 #@! TO.N,/Steuerstromkreis/GPIO7*
X169520000Y-73720000D02*
X176280000Y-73720000D01*
D24*
X176280000Y-73720000D02*
X176300000Y-73740000D01*
D23*
G04 #@! TO.N,/Steuerstromkreis/GPIO6*
X169520000Y-76260000D02*
X176280000Y-76260000D01*
D24*
X176280000Y-76260000D02*
X176300000Y-76280000D01*
G04 #@! TO.N,/Steuerstromkreis/GPIO8*
X176280000Y-71180000D02*
X176300000Y-71200000D01*
D23*
X169520000Y-71180000D02*
X176280000Y-71180000D01*
D24*
G04 #@! TO.N,/Steuerstromkreis/GPIO5*
X148000000Y-73580000D02*
X148000000Y-78200000D01*
X148000000Y-78200000D02*
X150900000Y-81100000D01*
X166500000Y-78800000D02*
X169520000Y-78800000D01*
X150900000Y-81100000D02*
X164200000Y-81100000D01*
X164200000Y-81100000D02*
X166500000Y-78800000D01*
D23*
G04 #@! TO.N,/Steuerstromkreis/GPIO2*
X148000000Y-65960000D02*
X154140000Y-65960000D01*
D24*
X154140000Y-65960000D02*
X154280000Y-66100000D01*
G04 #@! TO.N,/Steuerstromkreis/GPIO3*
X154140000Y-68500000D02*
X154280000Y-68640000D01*
D23*
X148000000Y-68500000D02*
X154140000Y-68500000D01*
G04 #@! TO.N,/Steuerstromkreis/GPIO1*
X161700000Y-59000000D02*
X157140000Y-63560000D01*
X173400000Y-53700000D02*
X173400000Y-55800000D01*
X170200000Y-59000000D02*
X161700000Y-59000000D01*
D24*
X154140000Y-63420000D02*
X154280000Y-63560000D01*
D23*
X157140000Y-63560000D02*
X154280000Y-63560000D01*
X148000000Y-63420000D02*
X154140000Y-63420000D01*
X173400000Y-55800000D02*
X170200000Y-59000000D01*
G04 #@! TO.N,/Steuerstromkreis/GPIO4*
X148000000Y-71040000D02*
X154140000Y-71040000D01*
D24*
X154140000Y-71040000D02*
X154280000Y-71180000D01*
D22*
G04 #@! TO.N,N*
X114500000Y-54200000D02*
X114500000Y-66600000D01*
X128900000Y-74600000D02*
X128900000Y-78572500D01*
X114400000Y-66700000D02*
X118300000Y-70600000D01*
D24*
X114500000Y-66600000D02*
X114400000Y-66700000D01*
D22*
X118300000Y-70600000D02*
X124900000Y-70600000D01*
X117312500Y-46000000D02*
X117312500Y-51387500D01*
X124900000Y-70600000D02*
X128900000Y-74600000D01*
X117312500Y-51387500D02*
X114500000Y-54200000D01*
D23*
G04 #@! TO.N,5V0*
X166500000Y-81400000D02*
X176200000Y-81400000D01*
X165800000Y-80700000D02*
X166500000Y-81400000D01*
X154280000Y-78800000D02*
X163900000Y-78800000D01*
X163900000Y-78800000D02*
X164200000Y-79100000D01*
G04 #@! TO.N,/Steuerstromkreis/GPIO21{slash}TXD*
X172380000Y-61020000D02*
X173740000Y-59660000D01*
X173740000Y-59660000D02*
X176300000Y-59660000D01*
X169520000Y-61020000D02*
X172380000Y-61020000D01*
G04 #@! TO.N,/Steuerstromkreis/GPIO20{slash}RXD*
X169520000Y-63560000D02*
X171740000Y-63560000D01*
X173100000Y-62200000D02*
X176300000Y-62200000D01*
X171740000Y-63560000D02*
X173100000Y-62200000D01*
G04 #@! TO.N,/Steuerstromkreis/GPIO0*
X166100000Y-61000000D02*
X166900000Y-61000000D01*
X174700000Y-53200000D02*
X176300000Y-54800000D01*
X174020000Y-57120000D02*
X176300000Y-57120000D01*
X166900000Y-61000000D02*
X168100000Y-59800000D01*
D24*
X174000000Y-57100000D02*
X174020000Y-57120000D01*
D23*
X171300000Y-59800000D02*
X174000000Y-57100000D01*
X168100000Y-59800000D02*
X171300000Y-59800000D01*
X176300000Y-54800000D02*
X176300000Y-57120000D01*
G04 #@! TD*
M02*
