G04 #@! TF.GenerationSoftware,KiCad,Pcbnew,9.0.5*
G04 #@! TF.CreationDate,2025-11-30T17:48:18+01:00*
G04 #@! TF.ProjectId,Sensor_all_Netz_ESP32,53656e73-6f72-45f6-916c-6c5f4e65747a,rev?*
G04 #@! TF.SameCoordinates,Original*
G04 #@! TF.FileFunction,Soldermask,Bot*
G04 #@! TF.FilePolarity,Negative*
%FSLAX46Y46*%
G04 Gerber Fmt 4.6, Leading zero omitted, Abs format (unit mm)*
G04 Created by KiCad (PCBNEW 9.0.5) date 2025-11-30 17:48:18*
%MOMM*%
%LPD*%
G01*
G04 APERTURE LIST*
G04 Aperture macros list*
%AMRoundRect*
0 Rectangle with rounded corners*
0 $1 Rounding radius*
0 $2 $3 $4 $5 $6 $7 $8 $9 X,Y pos of 4 corners*
0 Add a 4 corners polygon primitive as box body*
4,1,4,$2,$3,$4,$5,$6,$7,$8,$9,$2,$3,0*
0 Add four circle primitives for the rounded corners*
1,1,$1+$1,$2,$3*
1,1,$1+$1,$4,$5*
1,1,$1+$1,$6,$7*
1,1,$1+$1,$8,$9*
0 Add four rect primitives between the rounded corners*
20,1,$1+$1,$2,$3,$4,$5,0*
20,1,$1+$1,$4,$5,$6,$7,0*
20,1,$1+$1,$6,$7,$8,$9,0*
20,1,$1+$1,$8,$9,$2,$3,0*%
G04 Aperture macros list end*
%ADD10R,1.700000X1.700000*%
%ADD11C,1.700000*%
%ADD12C,3.500000*%
%ADD13RoundRect,0.250000X-1.050000X-1.050000X1.050000X-1.050000X1.050000X1.050000X-1.050000X1.050000X0*%
%ADD14C,2.600000*%
%ADD15RoundRect,0.250000X-0.600000X-0.750000X0.600000X-0.750000X0.600000X0.750000X-0.600000X0.750000X0*%
%ADD16O,1.700000X2.000000*%
%ADD17RoundRect,0.550000X0.550000X0.550000X-0.550000X0.550000X-0.550000X-0.550000X0.550000X-0.550000X0*%
%ADD18C,2.200000*%
%ADD19C,1.552000*%
G04 APERTURE END LIST*
D10*
G04 #@! TO.C,J6*
X176200000Y-81400000D03*
G04 #@! TD*
G04 #@! TO.C,J4*
X148000000Y-73580000D03*
D11*
X148000000Y-71040000D03*
X148000000Y-68500000D03*
X148000000Y-65960000D03*
X148000000Y-63420000D03*
G04 #@! TD*
D10*
G04 #@! TO.C,J3*
X176300000Y-66120000D03*
D11*
X176300000Y-68660000D03*
X176300000Y-71200000D03*
X176300000Y-73740000D03*
X176300000Y-76280000D03*
G04 #@! TD*
D10*
G04 #@! TO.C,J7*
X176300000Y-57120000D03*
D11*
X176300000Y-59660000D03*
X176300000Y-62200000D03*
G04 #@! TD*
D12*
G04 #@! TO.C,H2*
X118600000Y-79100000D03*
G04 #@! TD*
D10*
G04 #@! TO.C,J1*
X153860000Y-34400000D03*
D11*
X156400000Y-34400000D03*
X158940000Y-34400000D03*
X161480000Y-34400000D03*
X164020000Y-34400000D03*
X166560000Y-34400000D03*
G04 #@! TD*
D13*
G04 #@! TO.C,J5*
X128900000Y-78572500D03*
D14*
X133900000Y-78572500D03*
X138900000Y-78572500D03*
G04 #@! TD*
D12*
G04 #@! TO.C,H1*
X175000000Y-36800000D03*
G04 #@! TD*
D15*
G04 #@! TO.C,PS1*
X117312500Y-41000000D03*
D16*
X117312500Y-46000000D03*
X146392500Y-36000000D03*
X146392500Y-51000000D03*
G04 #@! TD*
D10*
G04 #@! TO.C,J2*
X153860000Y-39200000D03*
D11*
X156400000Y-39200000D03*
X158940000Y-39200000D03*
X161480000Y-39200000D03*
X164020000Y-39200000D03*
X166560000Y-39200000D03*
G04 #@! TD*
D17*
G04 #@! TO.C,F1*
X137700000Y-65300000D03*
X137700000Y-60300000D03*
D18*
X119900000Y-65300000D03*
X119900000Y-60300000D03*
G04 #@! TD*
D19*
G04 #@! TO.C,ESP32-C3_SUPERMINI_TH*
X154280000Y-61020000D03*
X154280000Y-63560000D03*
X154280000Y-66100000D03*
X154280000Y-68640000D03*
X154280000Y-73720000D03*
X154280000Y-71180000D03*
X169520000Y-78800000D03*
X154280000Y-78800000D03*
X169520000Y-76260000D03*
X169520000Y-73720000D03*
X169520000Y-71180000D03*
X169520000Y-68640000D03*
X169520000Y-66100000D03*
X169520000Y-63560000D03*
X169520000Y-61020000D03*
X154280000Y-76260000D03*
G04 #@! TD*
M02*
