%TF.GenerationSoftware,KiCad,Pcbnew,9.0.5*%
%TF.CreationDate,2025-11-30T17:48:18+01:00*%
%TF.ProjectId,Sensor_all_Netz_ESP32,53656e73-6f72-45f6-916c-6c5f4e65747a,rev?*%
%TF.SameCoordinates,Original*%
%TF.FileFunction,Drillmap*%
%TF.FilePolarity,Positive*%
%FSLAX45Y45*%
G04 Gerber Fmt 4.5, Leading zero omitted, Abs format (unit mm)*
G04 Created by KiCad (PCBNEW 9.0.5) date 2025-11-30 17:48:18*
%MOMM*%
%LPD*%
G01*
G04 APERTURE LIST*
%ADD10C,0.050000*%
%ADD11C,0.200000*%
%ADD12C,0.320000*%
G04 APERTURE END LIST*
D10*
X11130000Y-3020000D02*
X18160000Y-3020000D01*
X18160000Y-8530000D01*
X11130000Y-8530000D01*
X11130000Y-3020000D01*
D11*
D12*
X11700000Y-7750000D02*
X12020000Y-8070000D01*
X12020000Y-7750000D02*
X11700000Y-8070000D01*
X17340000Y-3520000D02*
X17660000Y-3840000D01*
X17660000Y-3520000D02*
X17340000Y-3840000D01*
D11*
X11388277Y-8843984D02*
X11388277Y-8643984D01*
X11388277Y-8643984D02*
X11435896Y-8643984D01*
X11435896Y-8643984D02*
X11464467Y-8653508D01*
X11464467Y-8653508D02*
X11483515Y-8672555D01*
X11483515Y-8672555D02*
X11493039Y-8691603D01*
X11493039Y-8691603D02*
X11502562Y-8729698D01*
X11502562Y-8729698D02*
X11502562Y-8758270D01*
X11502562Y-8758270D02*
X11493039Y-8796365D01*
X11493039Y-8796365D02*
X11483515Y-8815412D01*
X11483515Y-8815412D02*
X11464467Y-8834460D01*
X11464467Y-8834460D02*
X11435896Y-8843984D01*
X11435896Y-8843984D02*
X11388277Y-8843984D01*
X11588277Y-8843984D02*
X11588277Y-8710650D01*
X11588277Y-8748746D02*
X11597801Y-8729698D01*
X11597801Y-8729698D02*
X11607324Y-8720174D01*
X11607324Y-8720174D02*
X11626372Y-8710650D01*
X11626372Y-8710650D02*
X11645420Y-8710650D01*
X11712086Y-8843984D02*
X11712086Y-8710650D01*
X11712086Y-8643984D02*
X11702562Y-8653508D01*
X11702562Y-8653508D02*
X11712086Y-8663031D01*
X11712086Y-8663031D02*
X11721610Y-8653508D01*
X11721610Y-8653508D02*
X11712086Y-8643984D01*
X11712086Y-8643984D02*
X11712086Y-8663031D01*
X11835896Y-8843984D02*
X11816848Y-8834460D01*
X11816848Y-8834460D02*
X11807324Y-8815412D01*
X11807324Y-8815412D02*
X11807324Y-8643984D01*
X11940658Y-8843984D02*
X11921610Y-8834460D01*
X11921610Y-8834460D02*
X11912086Y-8815412D01*
X11912086Y-8815412D02*
X11912086Y-8643984D01*
X12169229Y-8843984D02*
X12169229Y-8643984D01*
X12169229Y-8643984D02*
X12235896Y-8786841D01*
X12235896Y-8786841D02*
X12302562Y-8643984D01*
X12302562Y-8643984D02*
X12302562Y-8843984D01*
X12483515Y-8843984D02*
X12483515Y-8739222D01*
X12483515Y-8739222D02*
X12473991Y-8720174D01*
X12473991Y-8720174D02*
X12454943Y-8710650D01*
X12454943Y-8710650D02*
X12416848Y-8710650D01*
X12416848Y-8710650D02*
X12397801Y-8720174D01*
X12483515Y-8834460D02*
X12464467Y-8843984D01*
X12464467Y-8843984D02*
X12416848Y-8843984D01*
X12416848Y-8843984D02*
X12397801Y-8834460D01*
X12397801Y-8834460D02*
X12388277Y-8815412D01*
X12388277Y-8815412D02*
X12388277Y-8796365D01*
X12388277Y-8796365D02*
X12397801Y-8777317D01*
X12397801Y-8777317D02*
X12416848Y-8767793D01*
X12416848Y-8767793D02*
X12464467Y-8767793D01*
X12464467Y-8767793D02*
X12483515Y-8758270D01*
X12578753Y-8710650D02*
X12578753Y-8910650D01*
X12578753Y-8720174D02*
X12597801Y-8710650D01*
X12597801Y-8710650D02*
X12635896Y-8710650D01*
X12635896Y-8710650D02*
X12654943Y-8720174D01*
X12654943Y-8720174D02*
X12664467Y-8729698D01*
X12664467Y-8729698D02*
X12673991Y-8748746D01*
X12673991Y-8748746D02*
X12673991Y-8805889D01*
X12673991Y-8805889D02*
X12664467Y-8824936D01*
X12664467Y-8824936D02*
X12654943Y-8834460D01*
X12654943Y-8834460D02*
X12635896Y-8843984D01*
X12635896Y-8843984D02*
X12597801Y-8843984D01*
X12597801Y-8843984D02*
X12578753Y-8834460D01*
X12759705Y-8824936D02*
X12769229Y-8834460D01*
X12769229Y-8834460D02*
X12759705Y-8843984D01*
X12759705Y-8843984D02*
X12750182Y-8834460D01*
X12750182Y-8834460D02*
X12759705Y-8824936D01*
X12759705Y-8824936D02*
X12759705Y-8843984D01*
X12759705Y-8720174D02*
X12769229Y-8729698D01*
X12769229Y-8729698D02*
X12759705Y-8739222D01*
X12759705Y-8739222D02*
X12750182Y-8729698D01*
X12750182Y-8729698D02*
X12759705Y-8720174D01*
X12759705Y-8720174D02*
X12759705Y-8739222D01*
X10927500Y-9072500D02*
X11127500Y-9272500D01*
X11127500Y-9072500D02*
X10927500Y-9272500D01*
X11369229Y-9063984D02*
X11493039Y-9063984D01*
X11493039Y-9063984D02*
X11426372Y-9140174D01*
X11426372Y-9140174D02*
X11454943Y-9140174D01*
X11454943Y-9140174D02*
X11473991Y-9149698D01*
X11473991Y-9149698D02*
X11483515Y-9159222D01*
X11483515Y-9159222D02*
X11493039Y-9178270D01*
X11493039Y-9178270D02*
X11493039Y-9225889D01*
X11493039Y-9225889D02*
X11483515Y-9244936D01*
X11483515Y-9244936D02*
X11473991Y-9254460D01*
X11473991Y-9254460D02*
X11454943Y-9263984D01*
X11454943Y-9263984D02*
X11397801Y-9263984D01*
X11397801Y-9263984D02*
X11378753Y-9254460D01*
X11378753Y-9254460D02*
X11369229Y-9244936D01*
X11578753Y-9244936D02*
X11588277Y-9254460D01*
X11588277Y-9254460D02*
X11578753Y-9263984D01*
X11578753Y-9263984D02*
X11569229Y-9254460D01*
X11569229Y-9254460D02*
X11578753Y-9244936D01*
X11578753Y-9244936D02*
X11578753Y-9263984D01*
X11664467Y-9083031D02*
X11673991Y-9073508D01*
X11673991Y-9073508D02*
X11693039Y-9063984D01*
X11693039Y-9063984D02*
X11740658Y-9063984D01*
X11740658Y-9063984D02*
X11759705Y-9073508D01*
X11759705Y-9073508D02*
X11769229Y-9083031D01*
X11769229Y-9083031D02*
X11778753Y-9102079D01*
X11778753Y-9102079D02*
X11778753Y-9121127D01*
X11778753Y-9121127D02*
X11769229Y-9149698D01*
X11769229Y-9149698D02*
X11654943Y-9263984D01*
X11654943Y-9263984D02*
X11778753Y-9263984D01*
X11902562Y-9063984D02*
X11921610Y-9063984D01*
X11921610Y-9063984D02*
X11940658Y-9073508D01*
X11940658Y-9073508D02*
X11950182Y-9083031D01*
X11950182Y-9083031D02*
X11959705Y-9102079D01*
X11959705Y-9102079D02*
X11969229Y-9140174D01*
X11969229Y-9140174D02*
X11969229Y-9187793D01*
X11969229Y-9187793D02*
X11959705Y-9225889D01*
X11959705Y-9225889D02*
X11950182Y-9244936D01*
X11950182Y-9244936D02*
X11940658Y-9254460D01*
X11940658Y-9254460D02*
X11921610Y-9263984D01*
X11921610Y-9263984D02*
X11902562Y-9263984D01*
X11902562Y-9263984D02*
X11883515Y-9254460D01*
X11883515Y-9254460D02*
X11873991Y-9244936D01*
X11873991Y-9244936D02*
X11864467Y-9225889D01*
X11864467Y-9225889D02*
X11854943Y-9187793D01*
X11854943Y-9187793D02*
X11854943Y-9140174D01*
X11854943Y-9140174D02*
X11864467Y-9102079D01*
X11864467Y-9102079D02*
X11873991Y-9083031D01*
X11873991Y-9083031D02*
X11883515Y-9073508D01*
X11883515Y-9073508D02*
X11902562Y-9063984D01*
X12093039Y-9063984D02*
X12112086Y-9063984D01*
X12112086Y-9063984D02*
X12131134Y-9073508D01*
X12131134Y-9073508D02*
X12140658Y-9083031D01*
X12140658Y-9083031D02*
X12150182Y-9102079D01*
X12150182Y-9102079D02*
X12159705Y-9140174D01*
X12159705Y-9140174D02*
X12159705Y-9187793D01*
X12159705Y-9187793D02*
X12150182Y-9225889D01*
X12150182Y-9225889D02*
X12140658Y-9244936D01*
X12140658Y-9244936D02*
X12131134Y-9254460D01*
X12131134Y-9254460D02*
X12112086Y-9263984D01*
X12112086Y-9263984D02*
X12093039Y-9263984D01*
X12093039Y-9263984D02*
X12073991Y-9254460D01*
X12073991Y-9254460D02*
X12064467Y-9244936D01*
X12064467Y-9244936D02*
X12054943Y-9225889D01*
X12054943Y-9225889D02*
X12045420Y-9187793D01*
X12045420Y-9187793D02*
X12045420Y-9140174D01*
X12045420Y-9140174D02*
X12054943Y-9102079D01*
X12054943Y-9102079D02*
X12064467Y-9083031D01*
X12064467Y-9083031D02*
X12073991Y-9073508D01*
X12073991Y-9073508D02*
X12093039Y-9063984D01*
X12245420Y-9263984D02*
X12245420Y-9130650D01*
X12245420Y-9149698D02*
X12254943Y-9140174D01*
X12254943Y-9140174D02*
X12273991Y-9130650D01*
X12273991Y-9130650D02*
X12302563Y-9130650D01*
X12302563Y-9130650D02*
X12321610Y-9140174D01*
X12321610Y-9140174D02*
X12331134Y-9159222D01*
X12331134Y-9159222D02*
X12331134Y-9263984D01*
X12331134Y-9159222D02*
X12340658Y-9140174D01*
X12340658Y-9140174D02*
X12359705Y-9130650D01*
X12359705Y-9130650D02*
X12388277Y-9130650D01*
X12388277Y-9130650D02*
X12407324Y-9140174D01*
X12407324Y-9140174D02*
X12416848Y-9159222D01*
X12416848Y-9159222D02*
X12416848Y-9263984D01*
X12512086Y-9263984D02*
X12512086Y-9130650D01*
X12512086Y-9149698D02*
X12521610Y-9140174D01*
X12521610Y-9140174D02*
X12540658Y-9130650D01*
X12540658Y-9130650D02*
X12569229Y-9130650D01*
X12569229Y-9130650D02*
X12588277Y-9140174D01*
X12588277Y-9140174D02*
X12597801Y-9159222D01*
X12597801Y-9159222D02*
X12597801Y-9263984D01*
X12597801Y-9159222D02*
X12607324Y-9140174D01*
X12607324Y-9140174D02*
X12626372Y-9130650D01*
X12626372Y-9130650D02*
X12654943Y-9130650D01*
X12654943Y-9130650D02*
X12673991Y-9140174D01*
X12673991Y-9140174D02*
X12683515Y-9159222D01*
X12683515Y-9159222D02*
X12683515Y-9263984D01*
X13073991Y-9054460D02*
X12902563Y-9311603D01*
X13331134Y-9063984D02*
X13350182Y-9063984D01*
X13350182Y-9063984D02*
X13369229Y-9073508D01*
X13369229Y-9073508D02*
X13378753Y-9083031D01*
X13378753Y-9083031D02*
X13388277Y-9102079D01*
X13388277Y-9102079D02*
X13397801Y-9140174D01*
X13397801Y-9140174D02*
X13397801Y-9187793D01*
X13397801Y-9187793D02*
X13388277Y-9225889D01*
X13388277Y-9225889D02*
X13378753Y-9244936D01*
X13378753Y-9244936D02*
X13369229Y-9254460D01*
X13369229Y-9254460D02*
X13350182Y-9263984D01*
X13350182Y-9263984D02*
X13331134Y-9263984D01*
X13331134Y-9263984D02*
X13312086Y-9254460D01*
X13312086Y-9254460D02*
X13302563Y-9244936D01*
X13302563Y-9244936D02*
X13293039Y-9225889D01*
X13293039Y-9225889D02*
X13283515Y-9187793D01*
X13283515Y-9187793D02*
X13283515Y-9140174D01*
X13283515Y-9140174D02*
X13293039Y-9102079D01*
X13293039Y-9102079D02*
X13302563Y-9083031D01*
X13302563Y-9083031D02*
X13312086Y-9073508D01*
X13312086Y-9073508D02*
X13331134Y-9063984D01*
X13483515Y-9244936D02*
X13493039Y-9254460D01*
X13493039Y-9254460D02*
X13483515Y-9263984D01*
X13483515Y-9263984D02*
X13473991Y-9254460D01*
X13473991Y-9254460D02*
X13483515Y-9244936D01*
X13483515Y-9244936D02*
X13483515Y-9263984D01*
X13683515Y-9263984D02*
X13569229Y-9263984D01*
X13626372Y-9263984D02*
X13626372Y-9063984D01*
X13626372Y-9063984D02*
X13607325Y-9092555D01*
X13607325Y-9092555D02*
X13588277Y-9111603D01*
X13588277Y-9111603D02*
X13569229Y-9121127D01*
X13759706Y-9083031D02*
X13769229Y-9073508D01*
X13769229Y-9073508D02*
X13788277Y-9063984D01*
X13788277Y-9063984D02*
X13835896Y-9063984D01*
X13835896Y-9063984D02*
X13854944Y-9073508D01*
X13854944Y-9073508D02*
X13864467Y-9083031D01*
X13864467Y-9083031D02*
X13873991Y-9102079D01*
X13873991Y-9102079D02*
X13873991Y-9121127D01*
X13873991Y-9121127D02*
X13864467Y-9149698D01*
X13864467Y-9149698D02*
X13750182Y-9263984D01*
X13750182Y-9263984D02*
X13873991Y-9263984D01*
X14045420Y-9063984D02*
X14007325Y-9063984D01*
X14007325Y-9063984D02*
X13988277Y-9073508D01*
X13988277Y-9073508D02*
X13978753Y-9083031D01*
X13978753Y-9083031D02*
X13959706Y-9111603D01*
X13959706Y-9111603D02*
X13950182Y-9149698D01*
X13950182Y-9149698D02*
X13950182Y-9225889D01*
X13950182Y-9225889D02*
X13959706Y-9244936D01*
X13959706Y-9244936D02*
X13969229Y-9254460D01*
X13969229Y-9254460D02*
X13988277Y-9263984D01*
X13988277Y-9263984D02*
X14026372Y-9263984D01*
X14026372Y-9263984D02*
X14045420Y-9254460D01*
X14045420Y-9254460D02*
X14054944Y-9244936D01*
X14054944Y-9244936D02*
X14064467Y-9225889D01*
X14064467Y-9225889D02*
X14064467Y-9178270D01*
X14064467Y-9178270D02*
X14054944Y-9159222D01*
X14054944Y-9159222D02*
X14045420Y-9149698D01*
X14045420Y-9149698D02*
X14026372Y-9140174D01*
X14026372Y-9140174D02*
X13988277Y-9140174D01*
X13988277Y-9140174D02*
X13969229Y-9149698D01*
X13969229Y-9149698D02*
X13959706Y-9159222D01*
X13959706Y-9159222D02*
X13950182Y-9178270D01*
X14188277Y-9063984D02*
X14207325Y-9063984D01*
X14207325Y-9063984D02*
X14226372Y-9073508D01*
X14226372Y-9073508D02*
X14235896Y-9083031D01*
X14235896Y-9083031D02*
X14245420Y-9102079D01*
X14245420Y-9102079D02*
X14254944Y-9140174D01*
X14254944Y-9140174D02*
X14254944Y-9187793D01*
X14254944Y-9187793D02*
X14245420Y-9225889D01*
X14245420Y-9225889D02*
X14235896Y-9244936D01*
X14235896Y-9244936D02*
X14226372Y-9254460D01*
X14226372Y-9254460D02*
X14207325Y-9263984D01*
X14207325Y-9263984D02*
X14188277Y-9263984D01*
X14188277Y-9263984D02*
X14169229Y-9254460D01*
X14169229Y-9254460D02*
X14159706Y-9244936D01*
X14159706Y-9244936D02*
X14150182Y-9225889D01*
X14150182Y-9225889D02*
X14140658Y-9187793D01*
X14140658Y-9187793D02*
X14140658Y-9140174D01*
X14140658Y-9140174D02*
X14150182Y-9102079D01*
X14150182Y-9102079D02*
X14159706Y-9083031D01*
X14159706Y-9083031D02*
X14169229Y-9073508D01*
X14169229Y-9073508D02*
X14188277Y-9063984D01*
X14331134Y-9063984D02*
X14331134Y-9102079D01*
X14407325Y-9063984D02*
X14407325Y-9102079D01*
X14702563Y-9340174D02*
X14693039Y-9330650D01*
X14693039Y-9330650D02*
X14673991Y-9302079D01*
X14673991Y-9302079D02*
X14664468Y-9283031D01*
X14664468Y-9283031D02*
X14654944Y-9254460D01*
X14654944Y-9254460D02*
X14645420Y-9206841D01*
X14645420Y-9206841D02*
X14645420Y-9168746D01*
X14645420Y-9168746D02*
X14654944Y-9121127D01*
X14654944Y-9121127D02*
X14664468Y-9092555D01*
X14664468Y-9092555D02*
X14673991Y-9073508D01*
X14673991Y-9073508D02*
X14693039Y-9044936D01*
X14693039Y-9044936D02*
X14702563Y-9035412D01*
X14769229Y-9083031D02*
X14778753Y-9073508D01*
X14778753Y-9073508D02*
X14797801Y-9063984D01*
X14797801Y-9063984D02*
X14845420Y-9063984D01*
X14845420Y-9063984D02*
X14864468Y-9073508D01*
X14864468Y-9073508D02*
X14873991Y-9083031D01*
X14873991Y-9083031D02*
X14883515Y-9102079D01*
X14883515Y-9102079D02*
X14883515Y-9121127D01*
X14883515Y-9121127D02*
X14873991Y-9149698D01*
X14873991Y-9149698D02*
X14759706Y-9263984D01*
X14759706Y-9263984D02*
X14883515Y-9263984D01*
X15121610Y-9263984D02*
X15121610Y-9063984D01*
X15207325Y-9263984D02*
X15207325Y-9159222D01*
X15207325Y-9159222D02*
X15197801Y-9140174D01*
X15197801Y-9140174D02*
X15178753Y-9130650D01*
X15178753Y-9130650D02*
X15150182Y-9130650D01*
X15150182Y-9130650D02*
X15131134Y-9140174D01*
X15131134Y-9140174D02*
X15121610Y-9149698D01*
X15331134Y-9263984D02*
X15312087Y-9254460D01*
X15312087Y-9254460D02*
X15302563Y-9244936D01*
X15302563Y-9244936D02*
X15293039Y-9225889D01*
X15293039Y-9225889D02*
X15293039Y-9168746D01*
X15293039Y-9168746D02*
X15302563Y-9149698D01*
X15302563Y-9149698D02*
X15312087Y-9140174D01*
X15312087Y-9140174D02*
X15331134Y-9130650D01*
X15331134Y-9130650D02*
X15359706Y-9130650D01*
X15359706Y-9130650D02*
X15378753Y-9140174D01*
X15378753Y-9140174D02*
X15388277Y-9149698D01*
X15388277Y-9149698D02*
X15397801Y-9168746D01*
X15397801Y-9168746D02*
X15397801Y-9225889D01*
X15397801Y-9225889D02*
X15388277Y-9244936D01*
X15388277Y-9244936D02*
X15378753Y-9254460D01*
X15378753Y-9254460D02*
X15359706Y-9263984D01*
X15359706Y-9263984D02*
X15331134Y-9263984D01*
X15512087Y-9263984D02*
X15493039Y-9254460D01*
X15493039Y-9254460D02*
X15483515Y-9235412D01*
X15483515Y-9235412D02*
X15483515Y-9063984D01*
X15664468Y-9254460D02*
X15645420Y-9263984D01*
X15645420Y-9263984D02*
X15607325Y-9263984D01*
X15607325Y-9263984D02*
X15588277Y-9254460D01*
X15588277Y-9254460D02*
X15578753Y-9235412D01*
X15578753Y-9235412D02*
X15578753Y-9159222D01*
X15578753Y-9159222D02*
X15588277Y-9140174D01*
X15588277Y-9140174D02*
X15607325Y-9130650D01*
X15607325Y-9130650D02*
X15645420Y-9130650D01*
X15645420Y-9130650D02*
X15664468Y-9140174D01*
X15664468Y-9140174D02*
X15673991Y-9159222D01*
X15673991Y-9159222D02*
X15673991Y-9178270D01*
X15673991Y-9178270D02*
X15578753Y-9197317D01*
X15750182Y-9254460D02*
X15769230Y-9263984D01*
X15769230Y-9263984D02*
X15807325Y-9263984D01*
X15807325Y-9263984D02*
X15826372Y-9254460D01*
X15826372Y-9254460D02*
X15835896Y-9235412D01*
X15835896Y-9235412D02*
X15835896Y-9225889D01*
X15835896Y-9225889D02*
X15826372Y-9206841D01*
X15826372Y-9206841D02*
X15807325Y-9197317D01*
X15807325Y-9197317D02*
X15778753Y-9197317D01*
X15778753Y-9197317D02*
X15759706Y-9187793D01*
X15759706Y-9187793D02*
X15750182Y-9168746D01*
X15750182Y-9168746D02*
X15750182Y-9159222D01*
X15750182Y-9159222D02*
X15759706Y-9140174D01*
X15759706Y-9140174D02*
X15778753Y-9130650D01*
X15778753Y-9130650D02*
X15807325Y-9130650D01*
X15807325Y-9130650D02*
X15826372Y-9140174D01*
X15902563Y-9340174D02*
X15912087Y-9330650D01*
X15912087Y-9330650D02*
X15931134Y-9302079D01*
X15931134Y-9302079D02*
X15940658Y-9283031D01*
X15940658Y-9283031D02*
X15950182Y-9254460D01*
X15950182Y-9254460D02*
X15959706Y-9206841D01*
X15959706Y-9206841D02*
X15959706Y-9168746D01*
X15959706Y-9168746D02*
X15950182Y-9121127D01*
X15950182Y-9121127D02*
X15940658Y-9092555D01*
X15940658Y-9092555D02*
X15931134Y-9073508D01*
X15931134Y-9073508D02*
X15912087Y-9044936D01*
X15912087Y-9044936D02*
X15902563Y-9035412D01*
X16264468Y-9340174D02*
X16254944Y-9330650D01*
X16254944Y-9330650D02*
X16235896Y-9302079D01*
X16235896Y-9302079D02*
X16226372Y-9283031D01*
X16226372Y-9283031D02*
X16216849Y-9254460D01*
X16216849Y-9254460D02*
X16207325Y-9206841D01*
X16207325Y-9206841D02*
X16207325Y-9168746D01*
X16207325Y-9168746D02*
X16216849Y-9121127D01*
X16216849Y-9121127D02*
X16226372Y-9092555D01*
X16226372Y-9092555D02*
X16235896Y-9073508D01*
X16235896Y-9073508D02*
X16254944Y-9044936D01*
X16254944Y-9044936D02*
X16264468Y-9035412D01*
X16340658Y-9130650D02*
X16340658Y-9263984D01*
X16340658Y-9149698D02*
X16350182Y-9140174D01*
X16350182Y-9140174D02*
X16369230Y-9130650D01*
X16369230Y-9130650D02*
X16397801Y-9130650D01*
X16397801Y-9130650D02*
X16416849Y-9140174D01*
X16416849Y-9140174D02*
X16426372Y-9159222D01*
X16426372Y-9159222D02*
X16426372Y-9263984D01*
X16550182Y-9263984D02*
X16531134Y-9254460D01*
X16531134Y-9254460D02*
X16521611Y-9244936D01*
X16521611Y-9244936D02*
X16512087Y-9225889D01*
X16512087Y-9225889D02*
X16512087Y-9168746D01*
X16512087Y-9168746D02*
X16521611Y-9149698D01*
X16521611Y-9149698D02*
X16531134Y-9140174D01*
X16531134Y-9140174D02*
X16550182Y-9130650D01*
X16550182Y-9130650D02*
X16578753Y-9130650D01*
X16578753Y-9130650D02*
X16597801Y-9140174D01*
X16597801Y-9140174D02*
X16607325Y-9149698D01*
X16607325Y-9149698D02*
X16616849Y-9168746D01*
X16616849Y-9168746D02*
X16616849Y-9225889D01*
X16616849Y-9225889D02*
X16607325Y-9244936D01*
X16607325Y-9244936D02*
X16597801Y-9254460D01*
X16597801Y-9254460D02*
X16578753Y-9263984D01*
X16578753Y-9263984D02*
X16550182Y-9263984D01*
X16673992Y-9130650D02*
X16750182Y-9130650D01*
X16702563Y-9063984D02*
X16702563Y-9235412D01*
X16702563Y-9235412D02*
X16712087Y-9254460D01*
X16712087Y-9254460D02*
X16731134Y-9263984D01*
X16731134Y-9263984D02*
X16750182Y-9263984D01*
X16969230Y-9130650D02*
X16969230Y-9330650D01*
X16969230Y-9140174D02*
X16988277Y-9130650D01*
X16988277Y-9130650D02*
X17026373Y-9130650D01*
X17026373Y-9130650D02*
X17045420Y-9140174D01*
X17045420Y-9140174D02*
X17054944Y-9149698D01*
X17054944Y-9149698D02*
X17064468Y-9168746D01*
X17064468Y-9168746D02*
X17064468Y-9225889D01*
X17064468Y-9225889D02*
X17054944Y-9244936D01*
X17054944Y-9244936D02*
X17045420Y-9254460D01*
X17045420Y-9254460D02*
X17026373Y-9263984D01*
X17026373Y-9263984D02*
X16988277Y-9263984D01*
X16988277Y-9263984D02*
X16969230Y-9254460D01*
X17178754Y-9263984D02*
X17159706Y-9254460D01*
X17159706Y-9254460D02*
X17150182Y-9235412D01*
X17150182Y-9235412D02*
X17150182Y-9063984D01*
X17340658Y-9263984D02*
X17340658Y-9159222D01*
X17340658Y-9159222D02*
X17331135Y-9140174D01*
X17331135Y-9140174D02*
X17312087Y-9130650D01*
X17312087Y-9130650D02*
X17273992Y-9130650D01*
X17273992Y-9130650D02*
X17254944Y-9140174D01*
X17340658Y-9254460D02*
X17321611Y-9263984D01*
X17321611Y-9263984D02*
X17273992Y-9263984D01*
X17273992Y-9263984D02*
X17254944Y-9254460D01*
X17254944Y-9254460D02*
X17245420Y-9235412D01*
X17245420Y-9235412D02*
X17245420Y-9216365D01*
X17245420Y-9216365D02*
X17254944Y-9197317D01*
X17254944Y-9197317D02*
X17273992Y-9187793D01*
X17273992Y-9187793D02*
X17321611Y-9187793D01*
X17321611Y-9187793D02*
X17340658Y-9178270D01*
X17407325Y-9130650D02*
X17483515Y-9130650D01*
X17435896Y-9063984D02*
X17435896Y-9235412D01*
X17435896Y-9235412D02*
X17445420Y-9254460D01*
X17445420Y-9254460D02*
X17464468Y-9263984D01*
X17464468Y-9263984D02*
X17483515Y-9263984D01*
X17626373Y-9254460D02*
X17607325Y-9263984D01*
X17607325Y-9263984D02*
X17569230Y-9263984D01*
X17569230Y-9263984D02*
X17550182Y-9254460D01*
X17550182Y-9254460D02*
X17540658Y-9235412D01*
X17540658Y-9235412D02*
X17540658Y-9159222D01*
X17540658Y-9159222D02*
X17550182Y-9140174D01*
X17550182Y-9140174D02*
X17569230Y-9130650D01*
X17569230Y-9130650D02*
X17607325Y-9130650D01*
X17607325Y-9130650D02*
X17626373Y-9140174D01*
X17626373Y-9140174D02*
X17635896Y-9159222D01*
X17635896Y-9159222D02*
X17635896Y-9178270D01*
X17635896Y-9178270D02*
X17540658Y-9197317D01*
X17807325Y-9263984D02*
X17807325Y-9063984D01*
X17807325Y-9254460D02*
X17788277Y-9263984D01*
X17788277Y-9263984D02*
X17750182Y-9263984D01*
X17750182Y-9263984D02*
X17731135Y-9254460D01*
X17731135Y-9254460D02*
X17721611Y-9244936D01*
X17721611Y-9244936D02*
X17712087Y-9225889D01*
X17712087Y-9225889D02*
X17712087Y-9168746D01*
X17712087Y-9168746D02*
X17721611Y-9149698D01*
X17721611Y-9149698D02*
X17731135Y-9140174D01*
X17731135Y-9140174D02*
X17750182Y-9130650D01*
X17750182Y-9130650D02*
X17788277Y-9130650D01*
X17788277Y-9130650D02*
X17807325Y-9140174D01*
X17883516Y-9340174D02*
X17893039Y-9330650D01*
X17893039Y-9330650D02*
X17912087Y-9302079D01*
X17912087Y-9302079D02*
X17921611Y-9283031D01*
X17921611Y-9283031D02*
X17931135Y-9254460D01*
X17931135Y-9254460D02*
X17940658Y-9206841D01*
X17940658Y-9206841D02*
X17940658Y-9168746D01*
X17940658Y-9168746D02*
X17931135Y-9121127D01*
X17931135Y-9121127D02*
X17921611Y-9092555D01*
X17921611Y-9092555D02*
X17912087Y-9073508D01*
X17912087Y-9073508D02*
X17893039Y-9044936D01*
X17893039Y-9044936D02*
X17883516Y-9035412D01*
M02*
