M48
; DRILL file {KiCad 9.0.5} date 2025-11-30T17:43:59+0100
; FORMAT={-:-/ absolute / metric / decimal}
; #@! TF.CreationDate,2025-11-30T17:43:59+01:00
; #@! TF.GenerationSoftware,Kicad,Pcbnew,9.0.5
; #@! TF.FileFunction,Plated,1,2,PTH
FMAT,2
METRIC
; #@! TA.AperFunction,Plated,PTH,ViaDrill
T1C0.300
; #@! TA.AperFunction,Plated,PTH,ComponentDrill
T2C0.750
; #@! TA.AperFunction,Plated,PTH,ComponentDrill
T3C1.100
; #@! TA.AperFunction,Plated,PTH,ComponentDrill
T4C1.300
; #@! TA.AperFunction,Plated,PTH,ComponentDrill
T5C1.600
%
G90
G05
T1
X144.3Y-98.9
X149.6Y-100.4
X151.0Y-96.6
X151.2Y-91.8
X153.0Y-96.5
X153.1Y-91.8
X156.1Y-100.3
X158.2Y-100.3
X159.2Y-97.9
X161.9Y-96.6
X162.1Y-99.3
X165.1Y-98.9
X167.6Y-99.9
T2
X161.1Y-93.4
X163.1Y-93.4
X165.1Y-93.4
X167.1Y-93.4
X169.1Y-93.4
T3
X135.86Y-93.85
X138.4Y-93.85
X140.94Y-93.85
X145.15Y-103.05
X145.15Y-114.55
X145.15Y-121.55
X147.06Y-93.95
X149.6Y-93.95
X149.85Y-103.05
X152.14Y-93.95
X153.45Y-103.05
X153.45Y-114.55
X153.45Y-121.55
X158.15Y-103.05
T4
X137.8Y-102.3
X137.8Y-107.3
X137.827Y-114.5
X137.827Y-119.5
X165.5Y-116.3
X165.5Y-121.3
X165.5Y-126.3
T5
X145.1Y-126.3
X157.2Y-126.3
X161.7Y-102.8
X169.8Y-102.7
M30
