%TF.GenerationSoftware,KiCad,Pcbnew,9.0.5*%
%TF.CreationDate,2025-11-30T17:43:59+01:00*%
%TF.ProjectId,Leistungskreis,4c656973-7475-46e6-9773-6b726569732e,rev?*%
%TF.SameCoordinates,Original*%
%TF.FileFunction,Drillmap*%
%TF.FilePolarity,Positive*%
%FSLAX45Y45*%
G04 Gerber Fmt 4.5, Leading zero omitted, Abs format (unit mm)*
G04 Created by KiCad (PCBNEW 9.0.5) date 2025-11-30 17:43:59*
%MOMM*%
%LPD*%
G01*
G04 APERTURE LIST*
%ADD10C,0.050000*%
%ADD11C,0.200000*%
%ADD12C,0.100000*%
%ADD13C,0.110000*%
%ADD14C,0.130000*%
%ADD15C,0.160000*%
G04 APERTURE END LIST*
D10*
X13130000Y-8930000D02*
X17240000Y-8930000D01*
X17240000Y-13040000D01*
X13130000Y-13040000D01*
X13130000Y-8930000D01*
D11*
D12*
X14415000Y-9875000D02*
X14445000Y-9905000D01*
X14445000Y-9875000D02*
X14415000Y-9905000D01*
X14945000Y-10025000D02*
X14975000Y-10055000D01*
X14975000Y-10025000D02*
X14945000Y-10055000D01*
X15085000Y-9645000D02*
X15115000Y-9675000D01*
X15115000Y-9645000D02*
X15085000Y-9675000D01*
X15105000Y-9165000D02*
X15135000Y-9195000D01*
X15135000Y-9165000D02*
X15105000Y-9195000D01*
X15285000Y-9635000D02*
X15315000Y-9665000D01*
X15315000Y-9635000D02*
X15285000Y-9665000D01*
X15295000Y-9165000D02*
X15325000Y-9195000D01*
X15325000Y-9165000D02*
X15295000Y-9195000D01*
X15595000Y-10015000D02*
X15625000Y-10045000D01*
X15625000Y-10015000D02*
X15595000Y-10045000D01*
X15805000Y-10015000D02*
X15835000Y-10045000D01*
X15835000Y-10015000D02*
X15805000Y-10045000D01*
X15905000Y-9775000D02*
X15935000Y-9805000D01*
X15935000Y-9775000D02*
X15905000Y-9805000D01*
X16175000Y-9645000D02*
X16205000Y-9675000D01*
X16205000Y-9645000D02*
X16175000Y-9675000D01*
X16195000Y-9915000D02*
X16225000Y-9945000D01*
X16225000Y-9915000D02*
X16195000Y-9945000D01*
X16495000Y-9875000D02*
X16525000Y-9905000D01*
X16525000Y-9875000D02*
X16495000Y-9905000D01*
X16745000Y-9975000D02*
X16775000Y-10005000D01*
X16775000Y-9975000D02*
X16745000Y-10005000D01*
X16147500Y-9340000D02*
G75*
G02*
X16072500Y-9340000I-37500J0D01*
G01*
X16072500Y-9340000D02*
G75*
G02*
X16147500Y-9340000I37500J0D01*
G01*
X16347500Y-9340000D02*
G75*
G02*
X16272500Y-9340000I-37500J0D01*
G01*
X16272500Y-9340000D02*
G75*
G02*
X16347500Y-9340000I37500J0D01*
G01*
X16547500Y-9340000D02*
G75*
G02*
X16472500Y-9340000I-37500J0D01*
G01*
X16472500Y-9340000D02*
G75*
G02*
X16547500Y-9340000I37500J0D01*
G01*
X16747500Y-9340000D02*
G75*
G02*
X16672500Y-9340000I-37500J0D01*
G01*
X16672500Y-9340000D02*
G75*
G02*
X16747500Y-9340000I37500J0D01*
G01*
X16947500Y-9340000D02*
G75*
G02*
X16872500Y-9340000I-37500J0D01*
G01*
X16872500Y-9340000D02*
G75*
G02*
X16947500Y-9340000I37500J0D01*
G01*
D13*
X13586000Y-9330000D02*
X13586000Y-9440000D01*
X13531000Y-9385000D02*
X13641000Y-9385000D01*
X13840000Y-9330000D02*
X13840000Y-9440000D01*
X13785000Y-9385000D02*
X13895000Y-9385000D01*
X14094000Y-9330000D02*
X14094000Y-9440000D01*
X14039000Y-9385000D02*
X14149000Y-9385000D01*
X14515000Y-10250000D02*
X14515000Y-10360000D01*
X14460000Y-10305000D02*
X14570000Y-10305000D01*
X14515000Y-11400000D02*
X14515000Y-11510000D01*
X14460000Y-11455000D02*
X14570000Y-11455000D01*
X14515000Y-12100000D02*
X14515000Y-12210000D01*
X14460000Y-12155000D02*
X14570000Y-12155000D01*
X14706000Y-9340000D02*
X14706000Y-9450000D01*
X14651000Y-9395000D02*
X14761000Y-9395000D01*
X14960000Y-9340000D02*
X14960000Y-9450000D01*
X14905000Y-9395000D02*
X15015000Y-9395000D01*
X14985000Y-10250000D02*
X14985000Y-10360000D01*
X14930000Y-10305000D02*
X15040000Y-10305000D01*
X15214000Y-9340000D02*
X15214000Y-9450000D01*
X15159000Y-9395000D02*
X15269000Y-9395000D01*
X15345000Y-10250000D02*
X15345000Y-10360000D01*
X15290000Y-10305000D02*
X15400000Y-10305000D01*
X15345000Y-11400000D02*
X15345000Y-11510000D01*
X15290000Y-11455000D02*
X15400000Y-11455000D01*
X15345000Y-12100000D02*
X15345000Y-12210000D01*
X15290000Y-12155000D02*
X15400000Y-12155000D01*
X15815000Y-10250000D02*
X15815000Y-10360000D01*
X15760000Y-10305000D02*
X15870000Y-10305000D01*
D14*
X13825962Y-10275962D02*
X13825962Y-10184038D01*
X13734038Y-10184038D01*
X13734038Y-10275962D01*
X13825962Y-10275962D01*
X13825962Y-10775962D02*
X13825962Y-10684038D01*
X13734038Y-10684038D01*
X13734038Y-10775962D01*
X13825962Y-10775962D01*
X13828712Y-11495962D02*
X13828712Y-11404038D01*
X13736788Y-11404038D01*
X13736788Y-11495962D01*
X13828712Y-11495962D01*
X13828712Y-11995962D02*
X13828712Y-11904038D01*
X13736788Y-11904038D01*
X13736788Y-11995962D01*
X13828712Y-11995962D01*
X16595962Y-11675962D02*
X16595962Y-11584038D01*
X16504038Y-11584038D01*
X16504038Y-11675962D01*
X16595962Y-11675962D01*
X16595962Y-12175962D02*
X16595962Y-12084038D01*
X16504038Y-12084038D01*
X16504038Y-12175962D01*
X16595962Y-12175962D01*
X16595962Y-12675962D02*
X16595962Y-12584038D01*
X16504038Y-12584038D01*
X16504038Y-12675962D01*
X16595962Y-12675962D01*
D15*
X14510000Y-12710000D02*
X14590000Y-12630000D01*
X14510000Y-12550000D01*
X14430000Y-12630000D01*
X14510000Y-12710000D01*
X15720000Y-12710000D02*
X15800000Y-12630000D01*
X15720000Y-12550000D01*
X15640000Y-12630000D01*
X15720000Y-12710000D01*
X16170000Y-10360000D02*
X16250000Y-10280000D01*
X16170000Y-10200000D01*
X16090000Y-10280000D01*
X16170000Y-10360000D01*
X16980000Y-10350000D02*
X17060000Y-10270000D01*
X16980000Y-10190000D01*
X16900000Y-10270000D01*
X16980000Y-10350000D01*
D11*
X13388277Y-13353984D02*
X13388277Y-13153984D01*
X13388277Y-13153984D02*
X13435896Y-13153984D01*
X13435896Y-13153984D02*
X13464467Y-13163508D01*
X13464467Y-13163508D02*
X13483515Y-13182555D01*
X13483515Y-13182555D02*
X13493039Y-13201603D01*
X13493039Y-13201603D02*
X13502562Y-13239698D01*
X13502562Y-13239698D02*
X13502562Y-13268269D01*
X13502562Y-13268269D02*
X13493039Y-13306365D01*
X13493039Y-13306365D02*
X13483515Y-13325412D01*
X13483515Y-13325412D02*
X13464467Y-13344460D01*
X13464467Y-13344460D02*
X13435896Y-13353984D01*
X13435896Y-13353984D02*
X13388277Y-13353984D01*
X13588277Y-13353984D02*
X13588277Y-13220650D01*
X13588277Y-13258746D02*
X13597801Y-13239698D01*
X13597801Y-13239698D02*
X13607324Y-13230174D01*
X13607324Y-13230174D02*
X13626372Y-13220650D01*
X13626372Y-13220650D02*
X13645420Y-13220650D01*
X13712086Y-13353984D02*
X13712086Y-13220650D01*
X13712086Y-13153984D02*
X13702562Y-13163508D01*
X13702562Y-13163508D02*
X13712086Y-13173031D01*
X13712086Y-13173031D02*
X13721610Y-13163508D01*
X13721610Y-13163508D02*
X13712086Y-13153984D01*
X13712086Y-13153984D02*
X13712086Y-13173031D01*
X13835896Y-13353984D02*
X13816848Y-13344460D01*
X13816848Y-13344460D02*
X13807324Y-13325412D01*
X13807324Y-13325412D02*
X13807324Y-13153984D01*
X13940658Y-13353984D02*
X13921610Y-13344460D01*
X13921610Y-13344460D02*
X13912086Y-13325412D01*
X13912086Y-13325412D02*
X13912086Y-13153984D01*
X14169229Y-13353984D02*
X14169229Y-13153984D01*
X14169229Y-13153984D02*
X14235896Y-13296841D01*
X14235896Y-13296841D02*
X14302562Y-13153984D01*
X14302562Y-13153984D02*
X14302562Y-13353984D01*
X14483515Y-13353984D02*
X14483515Y-13249222D01*
X14483515Y-13249222D02*
X14473991Y-13230174D01*
X14473991Y-13230174D02*
X14454943Y-13220650D01*
X14454943Y-13220650D02*
X14416848Y-13220650D01*
X14416848Y-13220650D02*
X14397801Y-13230174D01*
X14483515Y-13344460D02*
X14464467Y-13353984D01*
X14464467Y-13353984D02*
X14416848Y-13353984D01*
X14416848Y-13353984D02*
X14397801Y-13344460D01*
X14397801Y-13344460D02*
X14388277Y-13325412D01*
X14388277Y-13325412D02*
X14388277Y-13306365D01*
X14388277Y-13306365D02*
X14397801Y-13287317D01*
X14397801Y-13287317D02*
X14416848Y-13277793D01*
X14416848Y-13277793D02*
X14464467Y-13277793D01*
X14464467Y-13277793D02*
X14483515Y-13268269D01*
X14578753Y-13220650D02*
X14578753Y-13420650D01*
X14578753Y-13230174D02*
X14597801Y-13220650D01*
X14597801Y-13220650D02*
X14635896Y-13220650D01*
X14635896Y-13220650D02*
X14654943Y-13230174D01*
X14654943Y-13230174D02*
X14664467Y-13239698D01*
X14664467Y-13239698D02*
X14673991Y-13258746D01*
X14673991Y-13258746D02*
X14673991Y-13315888D01*
X14673991Y-13315888D02*
X14664467Y-13334936D01*
X14664467Y-13334936D02*
X14654943Y-13344460D01*
X14654943Y-13344460D02*
X14635896Y-13353984D01*
X14635896Y-13353984D02*
X14597801Y-13353984D01*
X14597801Y-13353984D02*
X14578753Y-13344460D01*
X14759705Y-13334936D02*
X14769229Y-13344460D01*
X14769229Y-13344460D02*
X14759705Y-13353984D01*
X14759705Y-13353984D02*
X14750182Y-13344460D01*
X14750182Y-13344460D02*
X14759705Y-13334936D01*
X14759705Y-13334936D02*
X14759705Y-13353984D01*
X14759705Y-13230174D02*
X14769229Y-13239698D01*
X14769229Y-13239698D02*
X14759705Y-13249222D01*
X14759705Y-13249222D02*
X14750182Y-13239698D01*
X14750182Y-13239698D02*
X14759705Y-13230174D01*
X14759705Y-13230174D02*
X14759705Y-13249222D01*
D12*
X13097500Y-13667500D02*
X13127500Y-13697500D01*
X13127500Y-13667500D02*
X13097500Y-13697500D01*
D11*
X13426372Y-13573984D02*
X13445420Y-13573984D01*
X13445420Y-13573984D02*
X13464467Y-13583508D01*
X13464467Y-13583508D02*
X13473991Y-13593031D01*
X13473991Y-13593031D02*
X13483515Y-13612079D01*
X13483515Y-13612079D02*
X13493039Y-13650174D01*
X13493039Y-13650174D02*
X13493039Y-13697793D01*
X13493039Y-13697793D02*
X13483515Y-13735888D01*
X13483515Y-13735888D02*
X13473991Y-13754936D01*
X13473991Y-13754936D02*
X13464467Y-13764460D01*
X13464467Y-13764460D02*
X13445420Y-13773984D01*
X13445420Y-13773984D02*
X13426372Y-13773984D01*
X13426372Y-13773984D02*
X13407324Y-13764460D01*
X13407324Y-13764460D02*
X13397801Y-13754936D01*
X13397801Y-13754936D02*
X13388277Y-13735888D01*
X13388277Y-13735888D02*
X13378753Y-13697793D01*
X13378753Y-13697793D02*
X13378753Y-13650174D01*
X13378753Y-13650174D02*
X13388277Y-13612079D01*
X13388277Y-13612079D02*
X13397801Y-13593031D01*
X13397801Y-13593031D02*
X13407324Y-13583508D01*
X13407324Y-13583508D02*
X13426372Y-13573984D01*
X13578753Y-13754936D02*
X13588277Y-13764460D01*
X13588277Y-13764460D02*
X13578753Y-13773984D01*
X13578753Y-13773984D02*
X13569229Y-13764460D01*
X13569229Y-13764460D02*
X13578753Y-13754936D01*
X13578753Y-13754936D02*
X13578753Y-13773984D01*
X13654943Y-13573984D02*
X13778753Y-13573984D01*
X13778753Y-13573984D02*
X13712086Y-13650174D01*
X13712086Y-13650174D02*
X13740658Y-13650174D01*
X13740658Y-13650174D02*
X13759705Y-13659698D01*
X13759705Y-13659698D02*
X13769229Y-13669222D01*
X13769229Y-13669222D02*
X13778753Y-13688269D01*
X13778753Y-13688269D02*
X13778753Y-13735888D01*
X13778753Y-13735888D02*
X13769229Y-13754936D01*
X13769229Y-13754936D02*
X13759705Y-13764460D01*
X13759705Y-13764460D02*
X13740658Y-13773984D01*
X13740658Y-13773984D02*
X13683515Y-13773984D01*
X13683515Y-13773984D02*
X13664467Y-13764460D01*
X13664467Y-13764460D02*
X13654943Y-13754936D01*
X13902562Y-13573984D02*
X13921610Y-13573984D01*
X13921610Y-13573984D02*
X13940658Y-13583508D01*
X13940658Y-13583508D02*
X13950182Y-13593031D01*
X13950182Y-13593031D02*
X13959705Y-13612079D01*
X13959705Y-13612079D02*
X13969229Y-13650174D01*
X13969229Y-13650174D02*
X13969229Y-13697793D01*
X13969229Y-13697793D02*
X13959705Y-13735888D01*
X13959705Y-13735888D02*
X13950182Y-13754936D01*
X13950182Y-13754936D02*
X13940658Y-13764460D01*
X13940658Y-13764460D02*
X13921610Y-13773984D01*
X13921610Y-13773984D02*
X13902562Y-13773984D01*
X13902562Y-13773984D02*
X13883515Y-13764460D01*
X13883515Y-13764460D02*
X13873991Y-13754936D01*
X13873991Y-13754936D02*
X13864467Y-13735888D01*
X13864467Y-13735888D02*
X13854943Y-13697793D01*
X13854943Y-13697793D02*
X13854943Y-13650174D01*
X13854943Y-13650174D02*
X13864467Y-13612079D01*
X13864467Y-13612079D02*
X13873991Y-13593031D01*
X13873991Y-13593031D02*
X13883515Y-13583508D01*
X13883515Y-13583508D02*
X13902562Y-13573984D01*
X14093039Y-13573984D02*
X14112086Y-13573984D01*
X14112086Y-13573984D02*
X14131134Y-13583508D01*
X14131134Y-13583508D02*
X14140658Y-13593031D01*
X14140658Y-13593031D02*
X14150182Y-13612079D01*
X14150182Y-13612079D02*
X14159705Y-13650174D01*
X14159705Y-13650174D02*
X14159705Y-13697793D01*
X14159705Y-13697793D02*
X14150182Y-13735888D01*
X14150182Y-13735888D02*
X14140658Y-13754936D01*
X14140658Y-13754936D02*
X14131134Y-13764460D01*
X14131134Y-13764460D02*
X14112086Y-13773984D01*
X14112086Y-13773984D02*
X14093039Y-13773984D01*
X14093039Y-13773984D02*
X14073991Y-13764460D01*
X14073991Y-13764460D02*
X14064467Y-13754936D01*
X14064467Y-13754936D02*
X14054943Y-13735888D01*
X14054943Y-13735888D02*
X14045420Y-13697793D01*
X14045420Y-13697793D02*
X14045420Y-13650174D01*
X14045420Y-13650174D02*
X14054943Y-13612079D01*
X14054943Y-13612079D02*
X14064467Y-13593031D01*
X14064467Y-13593031D02*
X14073991Y-13583508D01*
X14073991Y-13583508D02*
X14093039Y-13573984D01*
X14245420Y-13773984D02*
X14245420Y-13640650D01*
X14245420Y-13659698D02*
X14254943Y-13650174D01*
X14254943Y-13650174D02*
X14273991Y-13640650D01*
X14273991Y-13640650D02*
X14302563Y-13640650D01*
X14302563Y-13640650D02*
X14321610Y-13650174D01*
X14321610Y-13650174D02*
X14331134Y-13669222D01*
X14331134Y-13669222D02*
X14331134Y-13773984D01*
X14331134Y-13669222D02*
X14340658Y-13650174D01*
X14340658Y-13650174D02*
X14359705Y-13640650D01*
X14359705Y-13640650D02*
X14388277Y-13640650D01*
X14388277Y-13640650D02*
X14407324Y-13650174D01*
X14407324Y-13650174D02*
X14416848Y-13669222D01*
X14416848Y-13669222D02*
X14416848Y-13773984D01*
X14512086Y-13773984D02*
X14512086Y-13640650D01*
X14512086Y-13659698D02*
X14521610Y-13650174D01*
X14521610Y-13650174D02*
X14540658Y-13640650D01*
X14540658Y-13640650D02*
X14569229Y-13640650D01*
X14569229Y-13640650D02*
X14588277Y-13650174D01*
X14588277Y-13650174D02*
X14597801Y-13669222D01*
X14597801Y-13669222D02*
X14597801Y-13773984D01*
X14597801Y-13669222D02*
X14607324Y-13650174D01*
X14607324Y-13650174D02*
X14626372Y-13640650D01*
X14626372Y-13640650D02*
X14654943Y-13640650D01*
X14654943Y-13640650D02*
X14673991Y-13650174D01*
X14673991Y-13650174D02*
X14683515Y-13669222D01*
X14683515Y-13669222D02*
X14683515Y-13773984D01*
X15073991Y-13564460D02*
X14902563Y-13821603D01*
X15331134Y-13573984D02*
X15350182Y-13573984D01*
X15350182Y-13573984D02*
X15369229Y-13583508D01*
X15369229Y-13583508D02*
X15378753Y-13593031D01*
X15378753Y-13593031D02*
X15388277Y-13612079D01*
X15388277Y-13612079D02*
X15397801Y-13650174D01*
X15397801Y-13650174D02*
X15397801Y-13697793D01*
X15397801Y-13697793D02*
X15388277Y-13735888D01*
X15388277Y-13735888D02*
X15378753Y-13754936D01*
X15378753Y-13754936D02*
X15369229Y-13764460D01*
X15369229Y-13764460D02*
X15350182Y-13773984D01*
X15350182Y-13773984D02*
X15331134Y-13773984D01*
X15331134Y-13773984D02*
X15312086Y-13764460D01*
X15312086Y-13764460D02*
X15302563Y-13754936D01*
X15302563Y-13754936D02*
X15293039Y-13735888D01*
X15293039Y-13735888D02*
X15283515Y-13697793D01*
X15283515Y-13697793D02*
X15283515Y-13650174D01*
X15283515Y-13650174D02*
X15293039Y-13612079D01*
X15293039Y-13612079D02*
X15302563Y-13593031D01*
X15302563Y-13593031D02*
X15312086Y-13583508D01*
X15312086Y-13583508D02*
X15331134Y-13573984D01*
X15483515Y-13754936D02*
X15493039Y-13764460D01*
X15493039Y-13764460D02*
X15483515Y-13773984D01*
X15483515Y-13773984D02*
X15473991Y-13764460D01*
X15473991Y-13764460D02*
X15483515Y-13754936D01*
X15483515Y-13754936D02*
X15483515Y-13773984D01*
X15616848Y-13573984D02*
X15635896Y-13573984D01*
X15635896Y-13573984D02*
X15654944Y-13583508D01*
X15654944Y-13583508D02*
X15664467Y-13593031D01*
X15664467Y-13593031D02*
X15673991Y-13612079D01*
X15673991Y-13612079D02*
X15683515Y-13650174D01*
X15683515Y-13650174D02*
X15683515Y-13697793D01*
X15683515Y-13697793D02*
X15673991Y-13735888D01*
X15673991Y-13735888D02*
X15664467Y-13754936D01*
X15664467Y-13754936D02*
X15654944Y-13764460D01*
X15654944Y-13764460D02*
X15635896Y-13773984D01*
X15635896Y-13773984D02*
X15616848Y-13773984D01*
X15616848Y-13773984D02*
X15597801Y-13764460D01*
X15597801Y-13764460D02*
X15588277Y-13754936D01*
X15588277Y-13754936D02*
X15578753Y-13735888D01*
X15578753Y-13735888D02*
X15569229Y-13697793D01*
X15569229Y-13697793D02*
X15569229Y-13650174D01*
X15569229Y-13650174D02*
X15578753Y-13612079D01*
X15578753Y-13612079D02*
X15588277Y-13593031D01*
X15588277Y-13593031D02*
X15597801Y-13583508D01*
X15597801Y-13583508D02*
X15616848Y-13573984D01*
X15873991Y-13773984D02*
X15759706Y-13773984D01*
X15816848Y-13773984D02*
X15816848Y-13573984D01*
X15816848Y-13573984D02*
X15797801Y-13602555D01*
X15797801Y-13602555D02*
X15778753Y-13621603D01*
X15778753Y-13621603D02*
X15759706Y-13631127D01*
X16064467Y-13773984D02*
X15950182Y-13773984D01*
X16007325Y-13773984D02*
X16007325Y-13573984D01*
X16007325Y-13573984D02*
X15988277Y-13602555D01*
X15988277Y-13602555D02*
X15969229Y-13621603D01*
X15969229Y-13621603D02*
X15950182Y-13631127D01*
X16178753Y-13659698D02*
X16159706Y-13650174D01*
X16159706Y-13650174D02*
X16150182Y-13640650D01*
X16150182Y-13640650D02*
X16140658Y-13621603D01*
X16140658Y-13621603D02*
X16140658Y-13612079D01*
X16140658Y-13612079D02*
X16150182Y-13593031D01*
X16150182Y-13593031D02*
X16159706Y-13583508D01*
X16159706Y-13583508D02*
X16178753Y-13573984D01*
X16178753Y-13573984D02*
X16216848Y-13573984D01*
X16216848Y-13573984D02*
X16235896Y-13583508D01*
X16235896Y-13583508D02*
X16245420Y-13593031D01*
X16245420Y-13593031D02*
X16254944Y-13612079D01*
X16254944Y-13612079D02*
X16254944Y-13621603D01*
X16254944Y-13621603D02*
X16245420Y-13640650D01*
X16245420Y-13640650D02*
X16235896Y-13650174D01*
X16235896Y-13650174D02*
X16216848Y-13659698D01*
X16216848Y-13659698D02*
X16178753Y-13659698D01*
X16178753Y-13659698D02*
X16159706Y-13669222D01*
X16159706Y-13669222D02*
X16150182Y-13678746D01*
X16150182Y-13678746D02*
X16140658Y-13697793D01*
X16140658Y-13697793D02*
X16140658Y-13735888D01*
X16140658Y-13735888D02*
X16150182Y-13754936D01*
X16150182Y-13754936D02*
X16159706Y-13764460D01*
X16159706Y-13764460D02*
X16178753Y-13773984D01*
X16178753Y-13773984D02*
X16216848Y-13773984D01*
X16216848Y-13773984D02*
X16235896Y-13764460D01*
X16235896Y-13764460D02*
X16245420Y-13754936D01*
X16245420Y-13754936D02*
X16254944Y-13735888D01*
X16254944Y-13735888D02*
X16254944Y-13697793D01*
X16254944Y-13697793D02*
X16245420Y-13678746D01*
X16245420Y-13678746D02*
X16235896Y-13669222D01*
X16235896Y-13669222D02*
X16216848Y-13659698D01*
X16331134Y-13573984D02*
X16331134Y-13612079D01*
X16407325Y-13573984D02*
X16407325Y-13612079D01*
X16702563Y-13850174D02*
X16693039Y-13840650D01*
X16693039Y-13840650D02*
X16673991Y-13812079D01*
X16673991Y-13812079D02*
X16664468Y-13793031D01*
X16664468Y-13793031D02*
X16654944Y-13764460D01*
X16654944Y-13764460D02*
X16645420Y-13716841D01*
X16645420Y-13716841D02*
X16645420Y-13678746D01*
X16645420Y-13678746D02*
X16654944Y-13631127D01*
X16654944Y-13631127D02*
X16664468Y-13602555D01*
X16664468Y-13602555D02*
X16673991Y-13583508D01*
X16673991Y-13583508D02*
X16693039Y-13554936D01*
X16693039Y-13554936D02*
X16702563Y-13545412D01*
X16883515Y-13773984D02*
X16769229Y-13773984D01*
X16826372Y-13773984D02*
X16826372Y-13573984D01*
X16826372Y-13573984D02*
X16807325Y-13602555D01*
X16807325Y-13602555D02*
X16788277Y-13621603D01*
X16788277Y-13621603D02*
X16769229Y-13631127D01*
X16950182Y-13573984D02*
X17073991Y-13573984D01*
X17073991Y-13573984D02*
X17007325Y-13650174D01*
X17007325Y-13650174D02*
X17035896Y-13650174D01*
X17035896Y-13650174D02*
X17054944Y-13659698D01*
X17054944Y-13659698D02*
X17064468Y-13669222D01*
X17064468Y-13669222D02*
X17073991Y-13688269D01*
X17073991Y-13688269D02*
X17073991Y-13735888D01*
X17073991Y-13735888D02*
X17064468Y-13754936D01*
X17064468Y-13754936D02*
X17054944Y-13764460D01*
X17054944Y-13764460D02*
X17035896Y-13773984D01*
X17035896Y-13773984D02*
X16978753Y-13773984D01*
X16978753Y-13773984D02*
X16959706Y-13764460D01*
X16959706Y-13764460D02*
X16950182Y-13754936D01*
X17312087Y-13773984D02*
X17312087Y-13573984D01*
X17397801Y-13773984D02*
X17397801Y-13669222D01*
X17397801Y-13669222D02*
X17388277Y-13650174D01*
X17388277Y-13650174D02*
X17369230Y-13640650D01*
X17369230Y-13640650D02*
X17340658Y-13640650D01*
X17340658Y-13640650D02*
X17321611Y-13650174D01*
X17321611Y-13650174D02*
X17312087Y-13659698D01*
X17521611Y-13773984D02*
X17502563Y-13764460D01*
X17502563Y-13764460D02*
X17493039Y-13754936D01*
X17493039Y-13754936D02*
X17483515Y-13735888D01*
X17483515Y-13735888D02*
X17483515Y-13678746D01*
X17483515Y-13678746D02*
X17493039Y-13659698D01*
X17493039Y-13659698D02*
X17502563Y-13650174D01*
X17502563Y-13650174D02*
X17521611Y-13640650D01*
X17521611Y-13640650D02*
X17550182Y-13640650D01*
X17550182Y-13640650D02*
X17569230Y-13650174D01*
X17569230Y-13650174D02*
X17578753Y-13659698D01*
X17578753Y-13659698D02*
X17588277Y-13678746D01*
X17588277Y-13678746D02*
X17588277Y-13735888D01*
X17588277Y-13735888D02*
X17578753Y-13754936D01*
X17578753Y-13754936D02*
X17569230Y-13764460D01*
X17569230Y-13764460D02*
X17550182Y-13773984D01*
X17550182Y-13773984D02*
X17521611Y-13773984D01*
X17702563Y-13773984D02*
X17683515Y-13764460D01*
X17683515Y-13764460D02*
X17673992Y-13745412D01*
X17673992Y-13745412D02*
X17673992Y-13573984D01*
X17854944Y-13764460D02*
X17835896Y-13773984D01*
X17835896Y-13773984D02*
X17797801Y-13773984D01*
X17797801Y-13773984D02*
X17778753Y-13764460D01*
X17778753Y-13764460D02*
X17769230Y-13745412D01*
X17769230Y-13745412D02*
X17769230Y-13669222D01*
X17769230Y-13669222D02*
X17778753Y-13650174D01*
X17778753Y-13650174D02*
X17797801Y-13640650D01*
X17797801Y-13640650D02*
X17835896Y-13640650D01*
X17835896Y-13640650D02*
X17854944Y-13650174D01*
X17854944Y-13650174D02*
X17864468Y-13669222D01*
X17864468Y-13669222D02*
X17864468Y-13688269D01*
X17864468Y-13688269D02*
X17769230Y-13707317D01*
X17940658Y-13764460D02*
X17959706Y-13773984D01*
X17959706Y-13773984D02*
X17997801Y-13773984D01*
X17997801Y-13773984D02*
X18016849Y-13764460D01*
X18016849Y-13764460D02*
X18026373Y-13745412D01*
X18026373Y-13745412D02*
X18026373Y-13735888D01*
X18026373Y-13735888D02*
X18016849Y-13716841D01*
X18016849Y-13716841D02*
X17997801Y-13707317D01*
X17997801Y-13707317D02*
X17969230Y-13707317D01*
X17969230Y-13707317D02*
X17950182Y-13697793D01*
X17950182Y-13697793D02*
X17940658Y-13678746D01*
X17940658Y-13678746D02*
X17940658Y-13669222D01*
X17940658Y-13669222D02*
X17950182Y-13650174D01*
X17950182Y-13650174D02*
X17969230Y-13640650D01*
X17969230Y-13640650D02*
X17997801Y-13640650D01*
X17997801Y-13640650D02*
X18016849Y-13650174D01*
X18093039Y-13850174D02*
X18102563Y-13840650D01*
X18102563Y-13840650D02*
X18121611Y-13812079D01*
X18121611Y-13812079D02*
X18131134Y-13793031D01*
X18131134Y-13793031D02*
X18140658Y-13764460D01*
X18140658Y-13764460D02*
X18150182Y-13716841D01*
X18150182Y-13716841D02*
X18150182Y-13678746D01*
X18150182Y-13678746D02*
X18140658Y-13631127D01*
X18140658Y-13631127D02*
X18131134Y-13602555D01*
X18131134Y-13602555D02*
X18121611Y-13583508D01*
X18121611Y-13583508D02*
X18102563Y-13554936D01*
X18102563Y-13554936D02*
X18093039Y-13545412D01*
D12*
X13127500Y-13946500D02*
G75*
G02*
X13052500Y-13946500I-37500J0D01*
G01*
X13052500Y-13946500D02*
G75*
G02*
X13127500Y-13946500I37500J0D01*
G01*
D11*
X13426372Y-13837984D02*
X13445420Y-13837984D01*
X13445420Y-13837984D02*
X13464467Y-13847508D01*
X13464467Y-13847508D02*
X13473991Y-13857031D01*
X13473991Y-13857031D02*
X13483515Y-13876079D01*
X13483515Y-13876079D02*
X13493039Y-13914174D01*
X13493039Y-13914174D02*
X13493039Y-13961793D01*
X13493039Y-13961793D02*
X13483515Y-13999888D01*
X13483515Y-13999888D02*
X13473991Y-14018936D01*
X13473991Y-14018936D02*
X13464467Y-14028460D01*
X13464467Y-14028460D02*
X13445420Y-14037984D01*
X13445420Y-14037984D02*
X13426372Y-14037984D01*
X13426372Y-14037984D02*
X13407324Y-14028460D01*
X13407324Y-14028460D02*
X13397801Y-14018936D01*
X13397801Y-14018936D02*
X13388277Y-13999888D01*
X13388277Y-13999888D02*
X13378753Y-13961793D01*
X13378753Y-13961793D02*
X13378753Y-13914174D01*
X13378753Y-13914174D02*
X13388277Y-13876079D01*
X13388277Y-13876079D02*
X13397801Y-13857031D01*
X13397801Y-13857031D02*
X13407324Y-13847508D01*
X13407324Y-13847508D02*
X13426372Y-13837984D01*
X13578753Y-14018936D02*
X13588277Y-14028460D01*
X13588277Y-14028460D02*
X13578753Y-14037984D01*
X13578753Y-14037984D02*
X13569229Y-14028460D01*
X13569229Y-14028460D02*
X13578753Y-14018936D01*
X13578753Y-14018936D02*
X13578753Y-14037984D01*
X13654943Y-13837984D02*
X13788277Y-13837984D01*
X13788277Y-13837984D02*
X13702562Y-14037984D01*
X13959705Y-13837984D02*
X13864467Y-13837984D01*
X13864467Y-13837984D02*
X13854943Y-13933222D01*
X13854943Y-13933222D02*
X13864467Y-13923698D01*
X13864467Y-13923698D02*
X13883515Y-13914174D01*
X13883515Y-13914174D02*
X13931134Y-13914174D01*
X13931134Y-13914174D02*
X13950182Y-13923698D01*
X13950182Y-13923698D02*
X13959705Y-13933222D01*
X13959705Y-13933222D02*
X13969229Y-13952269D01*
X13969229Y-13952269D02*
X13969229Y-13999888D01*
X13969229Y-13999888D02*
X13959705Y-14018936D01*
X13959705Y-14018936D02*
X13950182Y-14028460D01*
X13950182Y-14028460D02*
X13931134Y-14037984D01*
X13931134Y-14037984D02*
X13883515Y-14037984D01*
X13883515Y-14037984D02*
X13864467Y-14028460D01*
X13864467Y-14028460D02*
X13854943Y-14018936D01*
X14093039Y-13837984D02*
X14112086Y-13837984D01*
X14112086Y-13837984D02*
X14131134Y-13847508D01*
X14131134Y-13847508D02*
X14140658Y-13857031D01*
X14140658Y-13857031D02*
X14150182Y-13876079D01*
X14150182Y-13876079D02*
X14159705Y-13914174D01*
X14159705Y-13914174D02*
X14159705Y-13961793D01*
X14159705Y-13961793D02*
X14150182Y-13999888D01*
X14150182Y-13999888D02*
X14140658Y-14018936D01*
X14140658Y-14018936D02*
X14131134Y-14028460D01*
X14131134Y-14028460D02*
X14112086Y-14037984D01*
X14112086Y-14037984D02*
X14093039Y-14037984D01*
X14093039Y-14037984D02*
X14073991Y-14028460D01*
X14073991Y-14028460D02*
X14064467Y-14018936D01*
X14064467Y-14018936D02*
X14054943Y-13999888D01*
X14054943Y-13999888D02*
X14045420Y-13961793D01*
X14045420Y-13961793D02*
X14045420Y-13914174D01*
X14045420Y-13914174D02*
X14054943Y-13876079D01*
X14054943Y-13876079D02*
X14064467Y-13857031D01*
X14064467Y-13857031D02*
X14073991Y-13847508D01*
X14073991Y-13847508D02*
X14093039Y-13837984D01*
X14245420Y-14037984D02*
X14245420Y-13904650D01*
X14245420Y-13923698D02*
X14254943Y-13914174D01*
X14254943Y-13914174D02*
X14273991Y-13904650D01*
X14273991Y-13904650D02*
X14302563Y-13904650D01*
X14302563Y-13904650D02*
X14321610Y-13914174D01*
X14321610Y-13914174D02*
X14331134Y-13933222D01*
X14331134Y-13933222D02*
X14331134Y-14037984D01*
X14331134Y-13933222D02*
X14340658Y-13914174D01*
X14340658Y-13914174D02*
X14359705Y-13904650D01*
X14359705Y-13904650D02*
X14388277Y-13904650D01*
X14388277Y-13904650D02*
X14407324Y-13914174D01*
X14407324Y-13914174D02*
X14416848Y-13933222D01*
X14416848Y-13933222D02*
X14416848Y-14037984D01*
X14512086Y-14037984D02*
X14512086Y-13904650D01*
X14512086Y-13923698D02*
X14521610Y-13914174D01*
X14521610Y-13914174D02*
X14540658Y-13904650D01*
X14540658Y-13904650D02*
X14569229Y-13904650D01*
X14569229Y-13904650D02*
X14588277Y-13914174D01*
X14588277Y-13914174D02*
X14597801Y-13933222D01*
X14597801Y-13933222D02*
X14597801Y-14037984D01*
X14597801Y-13933222D02*
X14607324Y-13914174D01*
X14607324Y-13914174D02*
X14626372Y-13904650D01*
X14626372Y-13904650D02*
X14654943Y-13904650D01*
X14654943Y-13904650D02*
X14673991Y-13914174D01*
X14673991Y-13914174D02*
X14683515Y-13933222D01*
X14683515Y-13933222D02*
X14683515Y-14037984D01*
X15073991Y-13828460D02*
X14902563Y-14085603D01*
X15331134Y-13837984D02*
X15350182Y-13837984D01*
X15350182Y-13837984D02*
X15369229Y-13847508D01*
X15369229Y-13847508D02*
X15378753Y-13857031D01*
X15378753Y-13857031D02*
X15388277Y-13876079D01*
X15388277Y-13876079D02*
X15397801Y-13914174D01*
X15397801Y-13914174D02*
X15397801Y-13961793D01*
X15397801Y-13961793D02*
X15388277Y-13999888D01*
X15388277Y-13999888D02*
X15378753Y-14018936D01*
X15378753Y-14018936D02*
X15369229Y-14028460D01*
X15369229Y-14028460D02*
X15350182Y-14037984D01*
X15350182Y-14037984D02*
X15331134Y-14037984D01*
X15331134Y-14037984D02*
X15312086Y-14028460D01*
X15312086Y-14028460D02*
X15302563Y-14018936D01*
X15302563Y-14018936D02*
X15293039Y-13999888D01*
X15293039Y-13999888D02*
X15283515Y-13961793D01*
X15283515Y-13961793D02*
X15283515Y-13914174D01*
X15283515Y-13914174D02*
X15293039Y-13876079D01*
X15293039Y-13876079D02*
X15302563Y-13857031D01*
X15302563Y-13857031D02*
X15312086Y-13847508D01*
X15312086Y-13847508D02*
X15331134Y-13837984D01*
X15483515Y-14018936D02*
X15493039Y-14028460D01*
X15493039Y-14028460D02*
X15483515Y-14037984D01*
X15483515Y-14037984D02*
X15473991Y-14028460D01*
X15473991Y-14028460D02*
X15483515Y-14018936D01*
X15483515Y-14018936D02*
X15483515Y-14037984D01*
X15616848Y-13837984D02*
X15635896Y-13837984D01*
X15635896Y-13837984D02*
X15654944Y-13847508D01*
X15654944Y-13847508D02*
X15664467Y-13857031D01*
X15664467Y-13857031D02*
X15673991Y-13876079D01*
X15673991Y-13876079D02*
X15683515Y-13914174D01*
X15683515Y-13914174D02*
X15683515Y-13961793D01*
X15683515Y-13961793D02*
X15673991Y-13999888D01*
X15673991Y-13999888D02*
X15664467Y-14018936D01*
X15664467Y-14018936D02*
X15654944Y-14028460D01*
X15654944Y-14028460D02*
X15635896Y-14037984D01*
X15635896Y-14037984D02*
X15616848Y-14037984D01*
X15616848Y-14037984D02*
X15597801Y-14028460D01*
X15597801Y-14028460D02*
X15588277Y-14018936D01*
X15588277Y-14018936D02*
X15578753Y-13999888D01*
X15578753Y-13999888D02*
X15569229Y-13961793D01*
X15569229Y-13961793D02*
X15569229Y-13914174D01*
X15569229Y-13914174D02*
X15578753Y-13876079D01*
X15578753Y-13876079D02*
X15588277Y-13857031D01*
X15588277Y-13857031D02*
X15597801Y-13847508D01*
X15597801Y-13847508D02*
X15616848Y-13837984D01*
X15759706Y-13857031D02*
X15769229Y-13847508D01*
X15769229Y-13847508D02*
X15788277Y-13837984D01*
X15788277Y-13837984D02*
X15835896Y-13837984D01*
X15835896Y-13837984D02*
X15854944Y-13847508D01*
X15854944Y-13847508D02*
X15864467Y-13857031D01*
X15864467Y-13857031D02*
X15873991Y-13876079D01*
X15873991Y-13876079D02*
X15873991Y-13895127D01*
X15873991Y-13895127D02*
X15864467Y-13923698D01*
X15864467Y-13923698D02*
X15750182Y-14037984D01*
X15750182Y-14037984D02*
X15873991Y-14037984D01*
X15969229Y-14037984D02*
X16007325Y-14037984D01*
X16007325Y-14037984D02*
X16026372Y-14028460D01*
X16026372Y-14028460D02*
X16035896Y-14018936D01*
X16035896Y-14018936D02*
X16054944Y-13990365D01*
X16054944Y-13990365D02*
X16064467Y-13952269D01*
X16064467Y-13952269D02*
X16064467Y-13876079D01*
X16064467Y-13876079D02*
X16054944Y-13857031D01*
X16054944Y-13857031D02*
X16045420Y-13847508D01*
X16045420Y-13847508D02*
X16026372Y-13837984D01*
X16026372Y-13837984D02*
X15988277Y-13837984D01*
X15988277Y-13837984D02*
X15969229Y-13847508D01*
X15969229Y-13847508D02*
X15959706Y-13857031D01*
X15959706Y-13857031D02*
X15950182Y-13876079D01*
X15950182Y-13876079D02*
X15950182Y-13923698D01*
X15950182Y-13923698D02*
X15959706Y-13942746D01*
X15959706Y-13942746D02*
X15969229Y-13952269D01*
X15969229Y-13952269D02*
X15988277Y-13961793D01*
X15988277Y-13961793D02*
X16026372Y-13961793D01*
X16026372Y-13961793D02*
X16045420Y-13952269D01*
X16045420Y-13952269D02*
X16054944Y-13942746D01*
X16054944Y-13942746D02*
X16064467Y-13923698D01*
X16245420Y-13837984D02*
X16150182Y-13837984D01*
X16150182Y-13837984D02*
X16140658Y-13933222D01*
X16140658Y-13933222D02*
X16150182Y-13923698D01*
X16150182Y-13923698D02*
X16169229Y-13914174D01*
X16169229Y-13914174D02*
X16216848Y-13914174D01*
X16216848Y-13914174D02*
X16235896Y-13923698D01*
X16235896Y-13923698D02*
X16245420Y-13933222D01*
X16245420Y-13933222D02*
X16254944Y-13952269D01*
X16254944Y-13952269D02*
X16254944Y-13999888D01*
X16254944Y-13999888D02*
X16245420Y-14018936D01*
X16245420Y-14018936D02*
X16235896Y-14028460D01*
X16235896Y-14028460D02*
X16216848Y-14037984D01*
X16216848Y-14037984D02*
X16169229Y-14037984D01*
X16169229Y-14037984D02*
X16150182Y-14028460D01*
X16150182Y-14028460D02*
X16140658Y-14018936D01*
X16331134Y-13837984D02*
X16331134Y-13876079D01*
X16407325Y-13837984D02*
X16407325Y-13876079D01*
X16702563Y-14114174D02*
X16693039Y-14104650D01*
X16693039Y-14104650D02*
X16673991Y-14076079D01*
X16673991Y-14076079D02*
X16664468Y-14057031D01*
X16664468Y-14057031D02*
X16654944Y-14028460D01*
X16654944Y-14028460D02*
X16645420Y-13980841D01*
X16645420Y-13980841D02*
X16645420Y-13942746D01*
X16645420Y-13942746D02*
X16654944Y-13895127D01*
X16654944Y-13895127D02*
X16664468Y-13866555D01*
X16664468Y-13866555D02*
X16673991Y-13847508D01*
X16673991Y-13847508D02*
X16693039Y-13818936D01*
X16693039Y-13818936D02*
X16702563Y-13809412D01*
X16873991Y-13837984D02*
X16778753Y-13837984D01*
X16778753Y-13837984D02*
X16769229Y-13933222D01*
X16769229Y-13933222D02*
X16778753Y-13923698D01*
X16778753Y-13923698D02*
X16797801Y-13914174D01*
X16797801Y-13914174D02*
X16845420Y-13914174D01*
X16845420Y-13914174D02*
X16864468Y-13923698D01*
X16864468Y-13923698D02*
X16873991Y-13933222D01*
X16873991Y-13933222D02*
X16883515Y-13952269D01*
X16883515Y-13952269D02*
X16883515Y-13999888D01*
X16883515Y-13999888D02*
X16873991Y-14018936D01*
X16873991Y-14018936D02*
X16864468Y-14028460D01*
X16864468Y-14028460D02*
X16845420Y-14037984D01*
X16845420Y-14037984D02*
X16797801Y-14037984D01*
X16797801Y-14037984D02*
X16778753Y-14028460D01*
X16778753Y-14028460D02*
X16769229Y-14018936D01*
X17121611Y-14037984D02*
X17121611Y-13837984D01*
X17207325Y-14037984D02*
X17207325Y-13933222D01*
X17207325Y-13933222D02*
X17197801Y-13914174D01*
X17197801Y-13914174D02*
X17178753Y-13904650D01*
X17178753Y-13904650D02*
X17150182Y-13904650D01*
X17150182Y-13904650D02*
X17131134Y-13914174D01*
X17131134Y-13914174D02*
X17121611Y-13923698D01*
X17331134Y-14037984D02*
X17312087Y-14028460D01*
X17312087Y-14028460D02*
X17302563Y-14018936D01*
X17302563Y-14018936D02*
X17293039Y-13999888D01*
X17293039Y-13999888D02*
X17293039Y-13942746D01*
X17293039Y-13942746D02*
X17302563Y-13923698D01*
X17302563Y-13923698D02*
X17312087Y-13914174D01*
X17312087Y-13914174D02*
X17331134Y-13904650D01*
X17331134Y-13904650D02*
X17359706Y-13904650D01*
X17359706Y-13904650D02*
X17378753Y-13914174D01*
X17378753Y-13914174D02*
X17388277Y-13923698D01*
X17388277Y-13923698D02*
X17397801Y-13942746D01*
X17397801Y-13942746D02*
X17397801Y-13999888D01*
X17397801Y-13999888D02*
X17388277Y-14018936D01*
X17388277Y-14018936D02*
X17378753Y-14028460D01*
X17378753Y-14028460D02*
X17359706Y-14037984D01*
X17359706Y-14037984D02*
X17331134Y-14037984D01*
X17512087Y-14037984D02*
X17493039Y-14028460D01*
X17493039Y-14028460D02*
X17483515Y-14009412D01*
X17483515Y-14009412D02*
X17483515Y-13837984D01*
X17664468Y-14028460D02*
X17645420Y-14037984D01*
X17645420Y-14037984D02*
X17607325Y-14037984D01*
X17607325Y-14037984D02*
X17588277Y-14028460D01*
X17588277Y-14028460D02*
X17578753Y-14009412D01*
X17578753Y-14009412D02*
X17578753Y-13933222D01*
X17578753Y-13933222D02*
X17588277Y-13914174D01*
X17588277Y-13914174D02*
X17607325Y-13904650D01*
X17607325Y-13904650D02*
X17645420Y-13904650D01*
X17645420Y-13904650D02*
X17664468Y-13914174D01*
X17664468Y-13914174D02*
X17673992Y-13933222D01*
X17673992Y-13933222D02*
X17673992Y-13952269D01*
X17673992Y-13952269D02*
X17578753Y-13971317D01*
X17750182Y-14028460D02*
X17769230Y-14037984D01*
X17769230Y-14037984D02*
X17807325Y-14037984D01*
X17807325Y-14037984D02*
X17826373Y-14028460D01*
X17826373Y-14028460D02*
X17835896Y-14009412D01*
X17835896Y-14009412D02*
X17835896Y-13999888D01*
X17835896Y-13999888D02*
X17826373Y-13980841D01*
X17826373Y-13980841D02*
X17807325Y-13971317D01*
X17807325Y-13971317D02*
X17778753Y-13971317D01*
X17778753Y-13971317D02*
X17759706Y-13961793D01*
X17759706Y-13961793D02*
X17750182Y-13942746D01*
X17750182Y-13942746D02*
X17750182Y-13933222D01*
X17750182Y-13933222D02*
X17759706Y-13914174D01*
X17759706Y-13914174D02*
X17778753Y-13904650D01*
X17778753Y-13904650D02*
X17807325Y-13904650D01*
X17807325Y-13904650D02*
X17826373Y-13914174D01*
X17902563Y-14114174D02*
X17912087Y-14104650D01*
X17912087Y-14104650D02*
X17931134Y-14076079D01*
X17931134Y-14076079D02*
X17940658Y-14057031D01*
X17940658Y-14057031D02*
X17950182Y-14028460D01*
X17950182Y-14028460D02*
X17959706Y-13980841D01*
X17959706Y-13980841D02*
X17959706Y-13942746D01*
X17959706Y-13942746D02*
X17950182Y-13895127D01*
X17950182Y-13895127D02*
X17940658Y-13866555D01*
X17940658Y-13866555D02*
X17931134Y-13847508D01*
X17931134Y-13847508D02*
X17912087Y-13818936D01*
X17912087Y-13818936D02*
X17902563Y-13809412D01*
D13*
X13072500Y-14155500D02*
X13072500Y-14265500D01*
X13017500Y-14210500D02*
X13127500Y-14210500D01*
D11*
X13493039Y-14301984D02*
X13378753Y-14301984D01*
X13435896Y-14301984D02*
X13435896Y-14101984D01*
X13435896Y-14101984D02*
X13416848Y-14130555D01*
X13416848Y-14130555D02*
X13397801Y-14149603D01*
X13397801Y-14149603D02*
X13378753Y-14159127D01*
X13578753Y-14282936D02*
X13588277Y-14292460D01*
X13588277Y-14292460D02*
X13578753Y-14301984D01*
X13578753Y-14301984D02*
X13569229Y-14292460D01*
X13569229Y-14292460D02*
X13578753Y-14282936D01*
X13578753Y-14282936D02*
X13578753Y-14301984D01*
X13778753Y-14301984D02*
X13664467Y-14301984D01*
X13721610Y-14301984D02*
X13721610Y-14101984D01*
X13721610Y-14101984D02*
X13702562Y-14130555D01*
X13702562Y-14130555D02*
X13683515Y-14149603D01*
X13683515Y-14149603D02*
X13664467Y-14159127D01*
X13902562Y-14101984D02*
X13921610Y-14101984D01*
X13921610Y-14101984D02*
X13940658Y-14111508D01*
X13940658Y-14111508D02*
X13950182Y-14121031D01*
X13950182Y-14121031D02*
X13959705Y-14140079D01*
X13959705Y-14140079D02*
X13969229Y-14178174D01*
X13969229Y-14178174D02*
X13969229Y-14225793D01*
X13969229Y-14225793D02*
X13959705Y-14263888D01*
X13959705Y-14263888D02*
X13950182Y-14282936D01*
X13950182Y-14282936D02*
X13940658Y-14292460D01*
X13940658Y-14292460D02*
X13921610Y-14301984D01*
X13921610Y-14301984D02*
X13902562Y-14301984D01*
X13902562Y-14301984D02*
X13883515Y-14292460D01*
X13883515Y-14292460D02*
X13873991Y-14282936D01*
X13873991Y-14282936D02*
X13864467Y-14263888D01*
X13864467Y-14263888D02*
X13854943Y-14225793D01*
X13854943Y-14225793D02*
X13854943Y-14178174D01*
X13854943Y-14178174D02*
X13864467Y-14140079D01*
X13864467Y-14140079D02*
X13873991Y-14121031D01*
X13873991Y-14121031D02*
X13883515Y-14111508D01*
X13883515Y-14111508D02*
X13902562Y-14101984D01*
X14093039Y-14101984D02*
X14112086Y-14101984D01*
X14112086Y-14101984D02*
X14131134Y-14111508D01*
X14131134Y-14111508D02*
X14140658Y-14121031D01*
X14140658Y-14121031D02*
X14150182Y-14140079D01*
X14150182Y-14140079D02*
X14159705Y-14178174D01*
X14159705Y-14178174D02*
X14159705Y-14225793D01*
X14159705Y-14225793D02*
X14150182Y-14263888D01*
X14150182Y-14263888D02*
X14140658Y-14282936D01*
X14140658Y-14282936D02*
X14131134Y-14292460D01*
X14131134Y-14292460D02*
X14112086Y-14301984D01*
X14112086Y-14301984D02*
X14093039Y-14301984D01*
X14093039Y-14301984D02*
X14073991Y-14292460D01*
X14073991Y-14292460D02*
X14064467Y-14282936D01*
X14064467Y-14282936D02*
X14054943Y-14263888D01*
X14054943Y-14263888D02*
X14045420Y-14225793D01*
X14045420Y-14225793D02*
X14045420Y-14178174D01*
X14045420Y-14178174D02*
X14054943Y-14140079D01*
X14054943Y-14140079D02*
X14064467Y-14121031D01*
X14064467Y-14121031D02*
X14073991Y-14111508D01*
X14073991Y-14111508D02*
X14093039Y-14101984D01*
X14245420Y-14301984D02*
X14245420Y-14168650D01*
X14245420Y-14187698D02*
X14254943Y-14178174D01*
X14254943Y-14178174D02*
X14273991Y-14168650D01*
X14273991Y-14168650D02*
X14302563Y-14168650D01*
X14302563Y-14168650D02*
X14321610Y-14178174D01*
X14321610Y-14178174D02*
X14331134Y-14197222D01*
X14331134Y-14197222D02*
X14331134Y-14301984D01*
X14331134Y-14197222D02*
X14340658Y-14178174D01*
X14340658Y-14178174D02*
X14359705Y-14168650D01*
X14359705Y-14168650D02*
X14388277Y-14168650D01*
X14388277Y-14168650D02*
X14407324Y-14178174D01*
X14407324Y-14178174D02*
X14416848Y-14197222D01*
X14416848Y-14197222D02*
X14416848Y-14301984D01*
X14512086Y-14301984D02*
X14512086Y-14168650D01*
X14512086Y-14187698D02*
X14521610Y-14178174D01*
X14521610Y-14178174D02*
X14540658Y-14168650D01*
X14540658Y-14168650D02*
X14569229Y-14168650D01*
X14569229Y-14168650D02*
X14588277Y-14178174D01*
X14588277Y-14178174D02*
X14597801Y-14197222D01*
X14597801Y-14197222D02*
X14597801Y-14301984D01*
X14597801Y-14197222D02*
X14607324Y-14178174D01*
X14607324Y-14178174D02*
X14626372Y-14168650D01*
X14626372Y-14168650D02*
X14654943Y-14168650D01*
X14654943Y-14168650D02*
X14673991Y-14178174D01*
X14673991Y-14178174D02*
X14683515Y-14197222D01*
X14683515Y-14197222D02*
X14683515Y-14301984D01*
X15073991Y-14092460D02*
X14902563Y-14349603D01*
X15331134Y-14101984D02*
X15350182Y-14101984D01*
X15350182Y-14101984D02*
X15369229Y-14111508D01*
X15369229Y-14111508D02*
X15378753Y-14121031D01*
X15378753Y-14121031D02*
X15388277Y-14140079D01*
X15388277Y-14140079D02*
X15397801Y-14178174D01*
X15397801Y-14178174D02*
X15397801Y-14225793D01*
X15397801Y-14225793D02*
X15388277Y-14263888D01*
X15388277Y-14263888D02*
X15378753Y-14282936D01*
X15378753Y-14282936D02*
X15369229Y-14292460D01*
X15369229Y-14292460D02*
X15350182Y-14301984D01*
X15350182Y-14301984D02*
X15331134Y-14301984D01*
X15331134Y-14301984D02*
X15312086Y-14292460D01*
X15312086Y-14292460D02*
X15302563Y-14282936D01*
X15302563Y-14282936D02*
X15293039Y-14263888D01*
X15293039Y-14263888D02*
X15283515Y-14225793D01*
X15283515Y-14225793D02*
X15283515Y-14178174D01*
X15283515Y-14178174D02*
X15293039Y-14140079D01*
X15293039Y-14140079D02*
X15302563Y-14121031D01*
X15302563Y-14121031D02*
X15312086Y-14111508D01*
X15312086Y-14111508D02*
X15331134Y-14101984D01*
X15483515Y-14282936D02*
X15493039Y-14292460D01*
X15493039Y-14292460D02*
X15483515Y-14301984D01*
X15483515Y-14301984D02*
X15473991Y-14292460D01*
X15473991Y-14292460D02*
X15483515Y-14282936D01*
X15483515Y-14282936D02*
X15483515Y-14301984D01*
X15616848Y-14101984D02*
X15635896Y-14101984D01*
X15635896Y-14101984D02*
X15654944Y-14111508D01*
X15654944Y-14111508D02*
X15664467Y-14121031D01*
X15664467Y-14121031D02*
X15673991Y-14140079D01*
X15673991Y-14140079D02*
X15683515Y-14178174D01*
X15683515Y-14178174D02*
X15683515Y-14225793D01*
X15683515Y-14225793D02*
X15673991Y-14263888D01*
X15673991Y-14263888D02*
X15664467Y-14282936D01*
X15664467Y-14282936D02*
X15654944Y-14292460D01*
X15654944Y-14292460D02*
X15635896Y-14301984D01*
X15635896Y-14301984D02*
X15616848Y-14301984D01*
X15616848Y-14301984D02*
X15597801Y-14292460D01*
X15597801Y-14292460D02*
X15588277Y-14282936D01*
X15588277Y-14282936D02*
X15578753Y-14263888D01*
X15578753Y-14263888D02*
X15569229Y-14225793D01*
X15569229Y-14225793D02*
X15569229Y-14178174D01*
X15569229Y-14178174D02*
X15578753Y-14140079D01*
X15578753Y-14140079D02*
X15588277Y-14121031D01*
X15588277Y-14121031D02*
X15597801Y-14111508D01*
X15597801Y-14111508D02*
X15616848Y-14101984D01*
X15854944Y-14168650D02*
X15854944Y-14301984D01*
X15807325Y-14092460D02*
X15759706Y-14235317D01*
X15759706Y-14235317D02*
X15883515Y-14235317D01*
X15940658Y-14101984D02*
X16064467Y-14101984D01*
X16064467Y-14101984D02*
X15997801Y-14178174D01*
X15997801Y-14178174D02*
X16026372Y-14178174D01*
X16026372Y-14178174D02*
X16045420Y-14187698D01*
X16045420Y-14187698D02*
X16054944Y-14197222D01*
X16054944Y-14197222D02*
X16064467Y-14216269D01*
X16064467Y-14216269D02*
X16064467Y-14263888D01*
X16064467Y-14263888D02*
X16054944Y-14282936D01*
X16054944Y-14282936D02*
X16045420Y-14292460D01*
X16045420Y-14292460D02*
X16026372Y-14301984D01*
X16026372Y-14301984D02*
X15969229Y-14301984D01*
X15969229Y-14301984D02*
X15950182Y-14292460D01*
X15950182Y-14292460D02*
X15940658Y-14282936D01*
X16131134Y-14101984D02*
X16254944Y-14101984D01*
X16254944Y-14101984D02*
X16188277Y-14178174D01*
X16188277Y-14178174D02*
X16216848Y-14178174D01*
X16216848Y-14178174D02*
X16235896Y-14187698D01*
X16235896Y-14187698D02*
X16245420Y-14197222D01*
X16245420Y-14197222D02*
X16254944Y-14216269D01*
X16254944Y-14216269D02*
X16254944Y-14263888D01*
X16254944Y-14263888D02*
X16245420Y-14282936D01*
X16245420Y-14282936D02*
X16235896Y-14292460D01*
X16235896Y-14292460D02*
X16216848Y-14301984D01*
X16216848Y-14301984D02*
X16159706Y-14301984D01*
X16159706Y-14301984D02*
X16140658Y-14292460D01*
X16140658Y-14292460D02*
X16131134Y-14282936D01*
X16331134Y-14101984D02*
X16331134Y-14140079D01*
X16407325Y-14101984D02*
X16407325Y-14140079D01*
X16702563Y-14378174D02*
X16693039Y-14368650D01*
X16693039Y-14368650D02*
X16673991Y-14340079D01*
X16673991Y-14340079D02*
X16664468Y-14321031D01*
X16664468Y-14321031D02*
X16654944Y-14292460D01*
X16654944Y-14292460D02*
X16645420Y-14244841D01*
X16645420Y-14244841D02*
X16645420Y-14206746D01*
X16645420Y-14206746D02*
X16654944Y-14159127D01*
X16654944Y-14159127D02*
X16664468Y-14130555D01*
X16664468Y-14130555D02*
X16673991Y-14111508D01*
X16673991Y-14111508D02*
X16693039Y-14082936D01*
X16693039Y-14082936D02*
X16702563Y-14073412D01*
X16883515Y-14301984D02*
X16769229Y-14301984D01*
X16826372Y-14301984D02*
X16826372Y-14101984D01*
X16826372Y-14101984D02*
X16807325Y-14130555D01*
X16807325Y-14130555D02*
X16788277Y-14149603D01*
X16788277Y-14149603D02*
X16769229Y-14159127D01*
X17054944Y-14168650D02*
X17054944Y-14301984D01*
X17007325Y-14092460D02*
X16959706Y-14235317D01*
X16959706Y-14235317D02*
X17083515Y-14235317D01*
X17312087Y-14301984D02*
X17312087Y-14101984D01*
X17397801Y-14301984D02*
X17397801Y-14197222D01*
X17397801Y-14197222D02*
X17388277Y-14178174D01*
X17388277Y-14178174D02*
X17369230Y-14168650D01*
X17369230Y-14168650D02*
X17340658Y-14168650D01*
X17340658Y-14168650D02*
X17321611Y-14178174D01*
X17321611Y-14178174D02*
X17312087Y-14187698D01*
X17521611Y-14301984D02*
X17502563Y-14292460D01*
X17502563Y-14292460D02*
X17493039Y-14282936D01*
X17493039Y-14282936D02*
X17483515Y-14263888D01*
X17483515Y-14263888D02*
X17483515Y-14206746D01*
X17483515Y-14206746D02*
X17493039Y-14187698D01*
X17493039Y-14187698D02*
X17502563Y-14178174D01*
X17502563Y-14178174D02*
X17521611Y-14168650D01*
X17521611Y-14168650D02*
X17550182Y-14168650D01*
X17550182Y-14168650D02*
X17569230Y-14178174D01*
X17569230Y-14178174D02*
X17578753Y-14187698D01*
X17578753Y-14187698D02*
X17588277Y-14206746D01*
X17588277Y-14206746D02*
X17588277Y-14263888D01*
X17588277Y-14263888D02*
X17578753Y-14282936D01*
X17578753Y-14282936D02*
X17569230Y-14292460D01*
X17569230Y-14292460D02*
X17550182Y-14301984D01*
X17550182Y-14301984D02*
X17521611Y-14301984D01*
X17702563Y-14301984D02*
X17683515Y-14292460D01*
X17683515Y-14292460D02*
X17673992Y-14273412D01*
X17673992Y-14273412D02*
X17673992Y-14101984D01*
X17854944Y-14292460D02*
X17835896Y-14301984D01*
X17835896Y-14301984D02*
X17797801Y-14301984D01*
X17797801Y-14301984D02*
X17778753Y-14292460D01*
X17778753Y-14292460D02*
X17769230Y-14273412D01*
X17769230Y-14273412D02*
X17769230Y-14197222D01*
X17769230Y-14197222D02*
X17778753Y-14178174D01*
X17778753Y-14178174D02*
X17797801Y-14168650D01*
X17797801Y-14168650D02*
X17835896Y-14168650D01*
X17835896Y-14168650D02*
X17854944Y-14178174D01*
X17854944Y-14178174D02*
X17864468Y-14197222D01*
X17864468Y-14197222D02*
X17864468Y-14216269D01*
X17864468Y-14216269D02*
X17769230Y-14235317D01*
X17940658Y-14292460D02*
X17959706Y-14301984D01*
X17959706Y-14301984D02*
X17997801Y-14301984D01*
X17997801Y-14301984D02*
X18016849Y-14292460D01*
X18016849Y-14292460D02*
X18026373Y-14273412D01*
X18026373Y-14273412D02*
X18026373Y-14263888D01*
X18026373Y-14263888D02*
X18016849Y-14244841D01*
X18016849Y-14244841D02*
X17997801Y-14235317D01*
X17997801Y-14235317D02*
X17969230Y-14235317D01*
X17969230Y-14235317D02*
X17950182Y-14225793D01*
X17950182Y-14225793D02*
X17940658Y-14206746D01*
X17940658Y-14206746D02*
X17940658Y-14197222D01*
X17940658Y-14197222D02*
X17950182Y-14178174D01*
X17950182Y-14178174D02*
X17969230Y-14168650D01*
X17969230Y-14168650D02*
X17997801Y-14168650D01*
X17997801Y-14168650D02*
X18016849Y-14178174D01*
X18093039Y-14378174D02*
X18102563Y-14368650D01*
X18102563Y-14368650D02*
X18121611Y-14340079D01*
X18121611Y-14340079D02*
X18131134Y-14321031D01*
X18131134Y-14321031D02*
X18140658Y-14292460D01*
X18140658Y-14292460D02*
X18150182Y-14244841D01*
X18150182Y-14244841D02*
X18150182Y-14206746D01*
X18150182Y-14206746D02*
X18140658Y-14159127D01*
X18140658Y-14159127D02*
X18131134Y-14130555D01*
X18131134Y-14130555D02*
X18121611Y-14111508D01*
X18121611Y-14111508D02*
X18102563Y-14082936D01*
X18102563Y-14082936D02*
X18093039Y-14073412D01*
D14*
X13108462Y-14520462D02*
X13108462Y-14428538D01*
X13016538Y-14428538D01*
X13016538Y-14520462D01*
X13108462Y-14520462D01*
D11*
X13493039Y-14565984D02*
X13378753Y-14565984D01*
X13435896Y-14565984D02*
X13435896Y-14365984D01*
X13435896Y-14365984D02*
X13416848Y-14394555D01*
X13416848Y-14394555D02*
X13397801Y-14413603D01*
X13397801Y-14413603D02*
X13378753Y-14423127D01*
X13578753Y-14546936D02*
X13588277Y-14556460D01*
X13588277Y-14556460D02*
X13578753Y-14565984D01*
X13578753Y-14565984D02*
X13569229Y-14556460D01*
X13569229Y-14556460D02*
X13578753Y-14546936D01*
X13578753Y-14546936D02*
X13578753Y-14565984D01*
X13654943Y-14365984D02*
X13778753Y-14365984D01*
X13778753Y-14365984D02*
X13712086Y-14442174D01*
X13712086Y-14442174D02*
X13740658Y-14442174D01*
X13740658Y-14442174D02*
X13759705Y-14451698D01*
X13759705Y-14451698D02*
X13769229Y-14461222D01*
X13769229Y-14461222D02*
X13778753Y-14480269D01*
X13778753Y-14480269D02*
X13778753Y-14527888D01*
X13778753Y-14527888D02*
X13769229Y-14546936D01*
X13769229Y-14546936D02*
X13759705Y-14556460D01*
X13759705Y-14556460D02*
X13740658Y-14565984D01*
X13740658Y-14565984D02*
X13683515Y-14565984D01*
X13683515Y-14565984D02*
X13664467Y-14556460D01*
X13664467Y-14556460D02*
X13654943Y-14546936D01*
X13902562Y-14365984D02*
X13921610Y-14365984D01*
X13921610Y-14365984D02*
X13940658Y-14375508D01*
X13940658Y-14375508D02*
X13950182Y-14385031D01*
X13950182Y-14385031D02*
X13959705Y-14404079D01*
X13959705Y-14404079D02*
X13969229Y-14442174D01*
X13969229Y-14442174D02*
X13969229Y-14489793D01*
X13969229Y-14489793D02*
X13959705Y-14527888D01*
X13959705Y-14527888D02*
X13950182Y-14546936D01*
X13950182Y-14546936D02*
X13940658Y-14556460D01*
X13940658Y-14556460D02*
X13921610Y-14565984D01*
X13921610Y-14565984D02*
X13902562Y-14565984D01*
X13902562Y-14565984D02*
X13883515Y-14556460D01*
X13883515Y-14556460D02*
X13873991Y-14546936D01*
X13873991Y-14546936D02*
X13864467Y-14527888D01*
X13864467Y-14527888D02*
X13854943Y-14489793D01*
X13854943Y-14489793D02*
X13854943Y-14442174D01*
X13854943Y-14442174D02*
X13864467Y-14404079D01*
X13864467Y-14404079D02*
X13873991Y-14385031D01*
X13873991Y-14385031D02*
X13883515Y-14375508D01*
X13883515Y-14375508D02*
X13902562Y-14365984D01*
X14093039Y-14365984D02*
X14112086Y-14365984D01*
X14112086Y-14365984D02*
X14131134Y-14375508D01*
X14131134Y-14375508D02*
X14140658Y-14385031D01*
X14140658Y-14385031D02*
X14150182Y-14404079D01*
X14150182Y-14404079D02*
X14159705Y-14442174D01*
X14159705Y-14442174D02*
X14159705Y-14489793D01*
X14159705Y-14489793D02*
X14150182Y-14527888D01*
X14150182Y-14527888D02*
X14140658Y-14546936D01*
X14140658Y-14546936D02*
X14131134Y-14556460D01*
X14131134Y-14556460D02*
X14112086Y-14565984D01*
X14112086Y-14565984D02*
X14093039Y-14565984D01*
X14093039Y-14565984D02*
X14073991Y-14556460D01*
X14073991Y-14556460D02*
X14064467Y-14546936D01*
X14064467Y-14546936D02*
X14054943Y-14527888D01*
X14054943Y-14527888D02*
X14045420Y-14489793D01*
X14045420Y-14489793D02*
X14045420Y-14442174D01*
X14045420Y-14442174D02*
X14054943Y-14404079D01*
X14054943Y-14404079D02*
X14064467Y-14385031D01*
X14064467Y-14385031D02*
X14073991Y-14375508D01*
X14073991Y-14375508D02*
X14093039Y-14365984D01*
X14245420Y-14565984D02*
X14245420Y-14432650D01*
X14245420Y-14451698D02*
X14254943Y-14442174D01*
X14254943Y-14442174D02*
X14273991Y-14432650D01*
X14273991Y-14432650D02*
X14302563Y-14432650D01*
X14302563Y-14432650D02*
X14321610Y-14442174D01*
X14321610Y-14442174D02*
X14331134Y-14461222D01*
X14331134Y-14461222D02*
X14331134Y-14565984D01*
X14331134Y-14461222D02*
X14340658Y-14442174D01*
X14340658Y-14442174D02*
X14359705Y-14432650D01*
X14359705Y-14432650D02*
X14388277Y-14432650D01*
X14388277Y-14432650D02*
X14407324Y-14442174D01*
X14407324Y-14442174D02*
X14416848Y-14461222D01*
X14416848Y-14461222D02*
X14416848Y-14565984D01*
X14512086Y-14565984D02*
X14512086Y-14432650D01*
X14512086Y-14451698D02*
X14521610Y-14442174D01*
X14521610Y-14442174D02*
X14540658Y-14432650D01*
X14540658Y-14432650D02*
X14569229Y-14432650D01*
X14569229Y-14432650D02*
X14588277Y-14442174D01*
X14588277Y-14442174D02*
X14597801Y-14461222D01*
X14597801Y-14461222D02*
X14597801Y-14565984D01*
X14597801Y-14461222D02*
X14607324Y-14442174D01*
X14607324Y-14442174D02*
X14626372Y-14432650D01*
X14626372Y-14432650D02*
X14654943Y-14432650D01*
X14654943Y-14432650D02*
X14673991Y-14442174D01*
X14673991Y-14442174D02*
X14683515Y-14461222D01*
X14683515Y-14461222D02*
X14683515Y-14565984D01*
X15073991Y-14356460D02*
X14902563Y-14613603D01*
X15331134Y-14365984D02*
X15350182Y-14365984D01*
X15350182Y-14365984D02*
X15369229Y-14375508D01*
X15369229Y-14375508D02*
X15378753Y-14385031D01*
X15378753Y-14385031D02*
X15388277Y-14404079D01*
X15388277Y-14404079D02*
X15397801Y-14442174D01*
X15397801Y-14442174D02*
X15397801Y-14489793D01*
X15397801Y-14489793D02*
X15388277Y-14527888D01*
X15388277Y-14527888D02*
X15378753Y-14546936D01*
X15378753Y-14546936D02*
X15369229Y-14556460D01*
X15369229Y-14556460D02*
X15350182Y-14565984D01*
X15350182Y-14565984D02*
X15331134Y-14565984D01*
X15331134Y-14565984D02*
X15312086Y-14556460D01*
X15312086Y-14556460D02*
X15302563Y-14546936D01*
X15302563Y-14546936D02*
X15293039Y-14527888D01*
X15293039Y-14527888D02*
X15283515Y-14489793D01*
X15283515Y-14489793D02*
X15283515Y-14442174D01*
X15283515Y-14442174D02*
X15293039Y-14404079D01*
X15293039Y-14404079D02*
X15302563Y-14385031D01*
X15302563Y-14385031D02*
X15312086Y-14375508D01*
X15312086Y-14375508D02*
X15331134Y-14365984D01*
X15483515Y-14546936D02*
X15493039Y-14556460D01*
X15493039Y-14556460D02*
X15483515Y-14565984D01*
X15483515Y-14565984D02*
X15473991Y-14556460D01*
X15473991Y-14556460D02*
X15483515Y-14546936D01*
X15483515Y-14546936D02*
X15483515Y-14565984D01*
X15616848Y-14365984D02*
X15635896Y-14365984D01*
X15635896Y-14365984D02*
X15654944Y-14375508D01*
X15654944Y-14375508D02*
X15664467Y-14385031D01*
X15664467Y-14385031D02*
X15673991Y-14404079D01*
X15673991Y-14404079D02*
X15683515Y-14442174D01*
X15683515Y-14442174D02*
X15683515Y-14489793D01*
X15683515Y-14489793D02*
X15673991Y-14527888D01*
X15673991Y-14527888D02*
X15664467Y-14546936D01*
X15664467Y-14546936D02*
X15654944Y-14556460D01*
X15654944Y-14556460D02*
X15635896Y-14565984D01*
X15635896Y-14565984D02*
X15616848Y-14565984D01*
X15616848Y-14565984D02*
X15597801Y-14556460D01*
X15597801Y-14556460D02*
X15588277Y-14546936D01*
X15588277Y-14546936D02*
X15578753Y-14527888D01*
X15578753Y-14527888D02*
X15569229Y-14489793D01*
X15569229Y-14489793D02*
X15569229Y-14442174D01*
X15569229Y-14442174D02*
X15578753Y-14404079D01*
X15578753Y-14404079D02*
X15588277Y-14385031D01*
X15588277Y-14385031D02*
X15597801Y-14375508D01*
X15597801Y-14375508D02*
X15616848Y-14365984D01*
X15864467Y-14365984D02*
X15769229Y-14365984D01*
X15769229Y-14365984D02*
X15759706Y-14461222D01*
X15759706Y-14461222D02*
X15769229Y-14451698D01*
X15769229Y-14451698D02*
X15788277Y-14442174D01*
X15788277Y-14442174D02*
X15835896Y-14442174D01*
X15835896Y-14442174D02*
X15854944Y-14451698D01*
X15854944Y-14451698D02*
X15864467Y-14461222D01*
X15864467Y-14461222D02*
X15873991Y-14480269D01*
X15873991Y-14480269D02*
X15873991Y-14527888D01*
X15873991Y-14527888D02*
X15864467Y-14546936D01*
X15864467Y-14546936D02*
X15854944Y-14556460D01*
X15854944Y-14556460D02*
X15835896Y-14565984D01*
X15835896Y-14565984D02*
X15788277Y-14565984D01*
X15788277Y-14565984D02*
X15769229Y-14556460D01*
X15769229Y-14556460D02*
X15759706Y-14546936D01*
X16064467Y-14565984D02*
X15950182Y-14565984D01*
X16007325Y-14565984D02*
X16007325Y-14365984D01*
X16007325Y-14365984D02*
X15988277Y-14394555D01*
X15988277Y-14394555D02*
X15969229Y-14413603D01*
X15969229Y-14413603D02*
X15950182Y-14423127D01*
X16140658Y-14385031D02*
X16150182Y-14375508D01*
X16150182Y-14375508D02*
X16169229Y-14365984D01*
X16169229Y-14365984D02*
X16216848Y-14365984D01*
X16216848Y-14365984D02*
X16235896Y-14375508D01*
X16235896Y-14375508D02*
X16245420Y-14385031D01*
X16245420Y-14385031D02*
X16254944Y-14404079D01*
X16254944Y-14404079D02*
X16254944Y-14423127D01*
X16254944Y-14423127D02*
X16245420Y-14451698D01*
X16245420Y-14451698D02*
X16131134Y-14565984D01*
X16131134Y-14565984D02*
X16254944Y-14565984D01*
X16331134Y-14365984D02*
X16331134Y-14404079D01*
X16407325Y-14365984D02*
X16407325Y-14404079D01*
X16702563Y-14642174D02*
X16693039Y-14632650D01*
X16693039Y-14632650D02*
X16673991Y-14604079D01*
X16673991Y-14604079D02*
X16664468Y-14585031D01*
X16664468Y-14585031D02*
X16654944Y-14556460D01*
X16654944Y-14556460D02*
X16645420Y-14508841D01*
X16645420Y-14508841D02*
X16645420Y-14470746D01*
X16645420Y-14470746D02*
X16654944Y-14423127D01*
X16654944Y-14423127D02*
X16664468Y-14394555D01*
X16664468Y-14394555D02*
X16673991Y-14375508D01*
X16673991Y-14375508D02*
X16693039Y-14346936D01*
X16693039Y-14346936D02*
X16702563Y-14337412D01*
X16759706Y-14365984D02*
X16893039Y-14365984D01*
X16893039Y-14365984D02*
X16807325Y-14565984D01*
X17121611Y-14565984D02*
X17121611Y-14365984D01*
X17207325Y-14565984D02*
X17207325Y-14461222D01*
X17207325Y-14461222D02*
X17197801Y-14442174D01*
X17197801Y-14442174D02*
X17178753Y-14432650D01*
X17178753Y-14432650D02*
X17150182Y-14432650D01*
X17150182Y-14432650D02*
X17131134Y-14442174D01*
X17131134Y-14442174D02*
X17121611Y-14451698D01*
X17331134Y-14565984D02*
X17312087Y-14556460D01*
X17312087Y-14556460D02*
X17302563Y-14546936D01*
X17302563Y-14546936D02*
X17293039Y-14527888D01*
X17293039Y-14527888D02*
X17293039Y-14470746D01*
X17293039Y-14470746D02*
X17302563Y-14451698D01*
X17302563Y-14451698D02*
X17312087Y-14442174D01*
X17312087Y-14442174D02*
X17331134Y-14432650D01*
X17331134Y-14432650D02*
X17359706Y-14432650D01*
X17359706Y-14432650D02*
X17378753Y-14442174D01*
X17378753Y-14442174D02*
X17388277Y-14451698D01*
X17388277Y-14451698D02*
X17397801Y-14470746D01*
X17397801Y-14470746D02*
X17397801Y-14527888D01*
X17397801Y-14527888D02*
X17388277Y-14546936D01*
X17388277Y-14546936D02*
X17378753Y-14556460D01*
X17378753Y-14556460D02*
X17359706Y-14565984D01*
X17359706Y-14565984D02*
X17331134Y-14565984D01*
X17512087Y-14565984D02*
X17493039Y-14556460D01*
X17493039Y-14556460D02*
X17483515Y-14537412D01*
X17483515Y-14537412D02*
X17483515Y-14365984D01*
X17664468Y-14556460D02*
X17645420Y-14565984D01*
X17645420Y-14565984D02*
X17607325Y-14565984D01*
X17607325Y-14565984D02*
X17588277Y-14556460D01*
X17588277Y-14556460D02*
X17578753Y-14537412D01*
X17578753Y-14537412D02*
X17578753Y-14461222D01*
X17578753Y-14461222D02*
X17588277Y-14442174D01*
X17588277Y-14442174D02*
X17607325Y-14432650D01*
X17607325Y-14432650D02*
X17645420Y-14432650D01*
X17645420Y-14432650D02*
X17664468Y-14442174D01*
X17664468Y-14442174D02*
X17673992Y-14461222D01*
X17673992Y-14461222D02*
X17673992Y-14480269D01*
X17673992Y-14480269D02*
X17578753Y-14499317D01*
X17750182Y-14556460D02*
X17769230Y-14565984D01*
X17769230Y-14565984D02*
X17807325Y-14565984D01*
X17807325Y-14565984D02*
X17826373Y-14556460D01*
X17826373Y-14556460D02*
X17835896Y-14537412D01*
X17835896Y-14537412D02*
X17835896Y-14527888D01*
X17835896Y-14527888D02*
X17826373Y-14508841D01*
X17826373Y-14508841D02*
X17807325Y-14499317D01*
X17807325Y-14499317D02*
X17778753Y-14499317D01*
X17778753Y-14499317D02*
X17759706Y-14489793D01*
X17759706Y-14489793D02*
X17750182Y-14470746D01*
X17750182Y-14470746D02*
X17750182Y-14461222D01*
X17750182Y-14461222D02*
X17759706Y-14442174D01*
X17759706Y-14442174D02*
X17778753Y-14432650D01*
X17778753Y-14432650D02*
X17807325Y-14432650D01*
X17807325Y-14432650D02*
X17826373Y-14442174D01*
X17902563Y-14642174D02*
X17912087Y-14632650D01*
X17912087Y-14632650D02*
X17931134Y-14604079D01*
X17931134Y-14604079D02*
X17940658Y-14585031D01*
X17940658Y-14585031D02*
X17950182Y-14556460D01*
X17950182Y-14556460D02*
X17959706Y-14508841D01*
X17959706Y-14508841D02*
X17959706Y-14470746D01*
X17959706Y-14470746D02*
X17950182Y-14423127D01*
X17950182Y-14423127D02*
X17940658Y-14394555D01*
X17940658Y-14394555D02*
X17931134Y-14375508D01*
X17931134Y-14375508D02*
X17912087Y-14346936D01*
X17912087Y-14346936D02*
X17902563Y-14337412D01*
D15*
X13047500Y-14818500D02*
X13127500Y-14738500D01*
X13047500Y-14658500D01*
X12967500Y-14738500D01*
X13047500Y-14818500D01*
D11*
X13493039Y-14829984D02*
X13378753Y-14829984D01*
X13435896Y-14829984D02*
X13435896Y-14629984D01*
X13435896Y-14629984D02*
X13416848Y-14658555D01*
X13416848Y-14658555D02*
X13397801Y-14677603D01*
X13397801Y-14677603D02*
X13378753Y-14687127D01*
X13578753Y-14810936D02*
X13588277Y-14820460D01*
X13588277Y-14820460D02*
X13578753Y-14829984D01*
X13578753Y-14829984D02*
X13569229Y-14820460D01*
X13569229Y-14820460D02*
X13578753Y-14810936D01*
X13578753Y-14810936D02*
X13578753Y-14829984D01*
X13759705Y-14629984D02*
X13721610Y-14629984D01*
X13721610Y-14629984D02*
X13702562Y-14639508D01*
X13702562Y-14639508D02*
X13693039Y-14649031D01*
X13693039Y-14649031D02*
X13673991Y-14677603D01*
X13673991Y-14677603D02*
X13664467Y-14715698D01*
X13664467Y-14715698D02*
X13664467Y-14791888D01*
X13664467Y-14791888D02*
X13673991Y-14810936D01*
X13673991Y-14810936D02*
X13683515Y-14820460D01*
X13683515Y-14820460D02*
X13702562Y-14829984D01*
X13702562Y-14829984D02*
X13740658Y-14829984D01*
X13740658Y-14829984D02*
X13759705Y-14820460D01*
X13759705Y-14820460D02*
X13769229Y-14810936D01*
X13769229Y-14810936D02*
X13778753Y-14791888D01*
X13778753Y-14791888D02*
X13778753Y-14744269D01*
X13778753Y-14744269D02*
X13769229Y-14725222D01*
X13769229Y-14725222D02*
X13759705Y-14715698D01*
X13759705Y-14715698D02*
X13740658Y-14706174D01*
X13740658Y-14706174D02*
X13702562Y-14706174D01*
X13702562Y-14706174D02*
X13683515Y-14715698D01*
X13683515Y-14715698D02*
X13673991Y-14725222D01*
X13673991Y-14725222D02*
X13664467Y-14744269D01*
X13902562Y-14629984D02*
X13921610Y-14629984D01*
X13921610Y-14629984D02*
X13940658Y-14639508D01*
X13940658Y-14639508D02*
X13950182Y-14649031D01*
X13950182Y-14649031D02*
X13959705Y-14668079D01*
X13959705Y-14668079D02*
X13969229Y-14706174D01*
X13969229Y-14706174D02*
X13969229Y-14753793D01*
X13969229Y-14753793D02*
X13959705Y-14791888D01*
X13959705Y-14791888D02*
X13950182Y-14810936D01*
X13950182Y-14810936D02*
X13940658Y-14820460D01*
X13940658Y-14820460D02*
X13921610Y-14829984D01*
X13921610Y-14829984D02*
X13902562Y-14829984D01*
X13902562Y-14829984D02*
X13883515Y-14820460D01*
X13883515Y-14820460D02*
X13873991Y-14810936D01*
X13873991Y-14810936D02*
X13864467Y-14791888D01*
X13864467Y-14791888D02*
X13854943Y-14753793D01*
X13854943Y-14753793D02*
X13854943Y-14706174D01*
X13854943Y-14706174D02*
X13864467Y-14668079D01*
X13864467Y-14668079D02*
X13873991Y-14649031D01*
X13873991Y-14649031D02*
X13883515Y-14639508D01*
X13883515Y-14639508D02*
X13902562Y-14629984D01*
X14093039Y-14629984D02*
X14112086Y-14629984D01*
X14112086Y-14629984D02*
X14131134Y-14639508D01*
X14131134Y-14639508D02*
X14140658Y-14649031D01*
X14140658Y-14649031D02*
X14150182Y-14668079D01*
X14150182Y-14668079D02*
X14159705Y-14706174D01*
X14159705Y-14706174D02*
X14159705Y-14753793D01*
X14159705Y-14753793D02*
X14150182Y-14791888D01*
X14150182Y-14791888D02*
X14140658Y-14810936D01*
X14140658Y-14810936D02*
X14131134Y-14820460D01*
X14131134Y-14820460D02*
X14112086Y-14829984D01*
X14112086Y-14829984D02*
X14093039Y-14829984D01*
X14093039Y-14829984D02*
X14073991Y-14820460D01*
X14073991Y-14820460D02*
X14064467Y-14810936D01*
X14064467Y-14810936D02*
X14054943Y-14791888D01*
X14054943Y-14791888D02*
X14045420Y-14753793D01*
X14045420Y-14753793D02*
X14045420Y-14706174D01*
X14045420Y-14706174D02*
X14054943Y-14668079D01*
X14054943Y-14668079D02*
X14064467Y-14649031D01*
X14064467Y-14649031D02*
X14073991Y-14639508D01*
X14073991Y-14639508D02*
X14093039Y-14629984D01*
X14245420Y-14829984D02*
X14245420Y-14696650D01*
X14245420Y-14715698D02*
X14254943Y-14706174D01*
X14254943Y-14706174D02*
X14273991Y-14696650D01*
X14273991Y-14696650D02*
X14302563Y-14696650D01*
X14302563Y-14696650D02*
X14321610Y-14706174D01*
X14321610Y-14706174D02*
X14331134Y-14725222D01*
X14331134Y-14725222D02*
X14331134Y-14829984D01*
X14331134Y-14725222D02*
X14340658Y-14706174D01*
X14340658Y-14706174D02*
X14359705Y-14696650D01*
X14359705Y-14696650D02*
X14388277Y-14696650D01*
X14388277Y-14696650D02*
X14407324Y-14706174D01*
X14407324Y-14706174D02*
X14416848Y-14725222D01*
X14416848Y-14725222D02*
X14416848Y-14829984D01*
X14512086Y-14829984D02*
X14512086Y-14696650D01*
X14512086Y-14715698D02*
X14521610Y-14706174D01*
X14521610Y-14706174D02*
X14540658Y-14696650D01*
X14540658Y-14696650D02*
X14569229Y-14696650D01*
X14569229Y-14696650D02*
X14588277Y-14706174D01*
X14588277Y-14706174D02*
X14597801Y-14725222D01*
X14597801Y-14725222D02*
X14597801Y-14829984D01*
X14597801Y-14725222D02*
X14607324Y-14706174D01*
X14607324Y-14706174D02*
X14626372Y-14696650D01*
X14626372Y-14696650D02*
X14654943Y-14696650D01*
X14654943Y-14696650D02*
X14673991Y-14706174D01*
X14673991Y-14706174D02*
X14683515Y-14725222D01*
X14683515Y-14725222D02*
X14683515Y-14829984D01*
X15073991Y-14620460D02*
X14902563Y-14877603D01*
X15331134Y-14629984D02*
X15350182Y-14629984D01*
X15350182Y-14629984D02*
X15369229Y-14639508D01*
X15369229Y-14639508D02*
X15378753Y-14649031D01*
X15378753Y-14649031D02*
X15388277Y-14668079D01*
X15388277Y-14668079D02*
X15397801Y-14706174D01*
X15397801Y-14706174D02*
X15397801Y-14753793D01*
X15397801Y-14753793D02*
X15388277Y-14791888D01*
X15388277Y-14791888D02*
X15378753Y-14810936D01*
X15378753Y-14810936D02*
X15369229Y-14820460D01*
X15369229Y-14820460D02*
X15350182Y-14829984D01*
X15350182Y-14829984D02*
X15331134Y-14829984D01*
X15331134Y-14829984D02*
X15312086Y-14820460D01*
X15312086Y-14820460D02*
X15302563Y-14810936D01*
X15302563Y-14810936D02*
X15293039Y-14791888D01*
X15293039Y-14791888D02*
X15283515Y-14753793D01*
X15283515Y-14753793D02*
X15283515Y-14706174D01*
X15283515Y-14706174D02*
X15293039Y-14668079D01*
X15293039Y-14668079D02*
X15302563Y-14649031D01*
X15302563Y-14649031D02*
X15312086Y-14639508D01*
X15312086Y-14639508D02*
X15331134Y-14629984D01*
X15483515Y-14810936D02*
X15493039Y-14820460D01*
X15493039Y-14820460D02*
X15483515Y-14829984D01*
X15483515Y-14829984D02*
X15473991Y-14820460D01*
X15473991Y-14820460D02*
X15483515Y-14810936D01*
X15483515Y-14810936D02*
X15483515Y-14829984D01*
X15616848Y-14629984D02*
X15635896Y-14629984D01*
X15635896Y-14629984D02*
X15654944Y-14639508D01*
X15654944Y-14639508D02*
X15664467Y-14649031D01*
X15664467Y-14649031D02*
X15673991Y-14668079D01*
X15673991Y-14668079D02*
X15683515Y-14706174D01*
X15683515Y-14706174D02*
X15683515Y-14753793D01*
X15683515Y-14753793D02*
X15673991Y-14791888D01*
X15673991Y-14791888D02*
X15664467Y-14810936D01*
X15664467Y-14810936D02*
X15654944Y-14820460D01*
X15654944Y-14820460D02*
X15635896Y-14829984D01*
X15635896Y-14829984D02*
X15616848Y-14829984D01*
X15616848Y-14829984D02*
X15597801Y-14820460D01*
X15597801Y-14820460D02*
X15588277Y-14810936D01*
X15588277Y-14810936D02*
X15578753Y-14791888D01*
X15578753Y-14791888D02*
X15569229Y-14753793D01*
X15569229Y-14753793D02*
X15569229Y-14706174D01*
X15569229Y-14706174D02*
X15578753Y-14668079D01*
X15578753Y-14668079D02*
X15588277Y-14649031D01*
X15588277Y-14649031D02*
X15597801Y-14639508D01*
X15597801Y-14639508D02*
X15616848Y-14629984D01*
X15854944Y-14629984D02*
X15816848Y-14629984D01*
X15816848Y-14629984D02*
X15797801Y-14639508D01*
X15797801Y-14639508D02*
X15788277Y-14649031D01*
X15788277Y-14649031D02*
X15769229Y-14677603D01*
X15769229Y-14677603D02*
X15759706Y-14715698D01*
X15759706Y-14715698D02*
X15759706Y-14791888D01*
X15759706Y-14791888D02*
X15769229Y-14810936D01*
X15769229Y-14810936D02*
X15778753Y-14820460D01*
X15778753Y-14820460D02*
X15797801Y-14829984D01*
X15797801Y-14829984D02*
X15835896Y-14829984D01*
X15835896Y-14829984D02*
X15854944Y-14820460D01*
X15854944Y-14820460D02*
X15864467Y-14810936D01*
X15864467Y-14810936D02*
X15873991Y-14791888D01*
X15873991Y-14791888D02*
X15873991Y-14744269D01*
X15873991Y-14744269D02*
X15864467Y-14725222D01*
X15864467Y-14725222D02*
X15854944Y-14715698D01*
X15854944Y-14715698D02*
X15835896Y-14706174D01*
X15835896Y-14706174D02*
X15797801Y-14706174D01*
X15797801Y-14706174D02*
X15778753Y-14715698D01*
X15778753Y-14715698D02*
X15769229Y-14725222D01*
X15769229Y-14725222D02*
X15759706Y-14744269D01*
X15940658Y-14629984D02*
X16064467Y-14629984D01*
X16064467Y-14629984D02*
X15997801Y-14706174D01*
X15997801Y-14706174D02*
X16026372Y-14706174D01*
X16026372Y-14706174D02*
X16045420Y-14715698D01*
X16045420Y-14715698D02*
X16054944Y-14725222D01*
X16054944Y-14725222D02*
X16064467Y-14744269D01*
X16064467Y-14744269D02*
X16064467Y-14791888D01*
X16064467Y-14791888D02*
X16054944Y-14810936D01*
X16054944Y-14810936D02*
X16045420Y-14820460D01*
X16045420Y-14820460D02*
X16026372Y-14829984D01*
X16026372Y-14829984D02*
X15969229Y-14829984D01*
X15969229Y-14829984D02*
X15950182Y-14820460D01*
X15950182Y-14820460D02*
X15940658Y-14810936D01*
X16188277Y-14629984D02*
X16207325Y-14629984D01*
X16207325Y-14629984D02*
X16226372Y-14639508D01*
X16226372Y-14639508D02*
X16235896Y-14649031D01*
X16235896Y-14649031D02*
X16245420Y-14668079D01*
X16245420Y-14668079D02*
X16254944Y-14706174D01*
X16254944Y-14706174D02*
X16254944Y-14753793D01*
X16254944Y-14753793D02*
X16245420Y-14791888D01*
X16245420Y-14791888D02*
X16235896Y-14810936D01*
X16235896Y-14810936D02*
X16226372Y-14820460D01*
X16226372Y-14820460D02*
X16207325Y-14829984D01*
X16207325Y-14829984D02*
X16188277Y-14829984D01*
X16188277Y-14829984D02*
X16169229Y-14820460D01*
X16169229Y-14820460D02*
X16159706Y-14810936D01*
X16159706Y-14810936D02*
X16150182Y-14791888D01*
X16150182Y-14791888D02*
X16140658Y-14753793D01*
X16140658Y-14753793D02*
X16140658Y-14706174D01*
X16140658Y-14706174D02*
X16150182Y-14668079D01*
X16150182Y-14668079D02*
X16159706Y-14649031D01*
X16159706Y-14649031D02*
X16169229Y-14639508D01*
X16169229Y-14639508D02*
X16188277Y-14629984D01*
X16331134Y-14629984D02*
X16331134Y-14668079D01*
X16407325Y-14629984D02*
X16407325Y-14668079D01*
X16702563Y-14906174D02*
X16693039Y-14896650D01*
X16693039Y-14896650D02*
X16673991Y-14868079D01*
X16673991Y-14868079D02*
X16664468Y-14849031D01*
X16664468Y-14849031D02*
X16654944Y-14820460D01*
X16654944Y-14820460D02*
X16645420Y-14772841D01*
X16645420Y-14772841D02*
X16645420Y-14734746D01*
X16645420Y-14734746D02*
X16654944Y-14687127D01*
X16654944Y-14687127D02*
X16664468Y-14658555D01*
X16664468Y-14658555D02*
X16673991Y-14639508D01*
X16673991Y-14639508D02*
X16693039Y-14610936D01*
X16693039Y-14610936D02*
X16702563Y-14601412D01*
X16864468Y-14696650D02*
X16864468Y-14829984D01*
X16816849Y-14620460D02*
X16769229Y-14763317D01*
X16769229Y-14763317D02*
X16893039Y-14763317D01*
X17121611Y-14829984D02*
X17121611Y-14629984D01*
X17207325Y-14829984D02*
X17207325Y-14725222D01*
X17207325Y-14725222D02*
X17197801Y-14706174D01*
X17197801Y-14706174D02*
X17178753Y-14696650D01*
X17178753Y-14696650D02*
X17150182Y-14696650D01*
X17150182Y-14696650D02*
X17131134Y-14706174D01*
X17131134Y-14706174D02*
X17121611Y-14715698D01*
X17331134Y-14829984D02*
X17312087Y-14820460D01*
X17312087Y-14820460D02*
X17302563Y-14810936D01*
X17302563Y-14810936D02*
X17293039Y-14791888D01*
X17293039Y-14791888D02*
X17293039Y-14734746D01*
X17293039Y-14734746D02*
X17302563Y-14715698D01*
X17302563Y-14715698D02*
X17312087Y-14706174D01*
X17312087Y-14706174D02*
X17331134Y-14696650D01*
X17331134Y-14696650D02*
X17359706Y-14696650D01*
X17359706Y-14696650D02*
X17378753Y-14706174D01*
X17378753Y-14706174D02*
X17388277Y-14715698D01*
X17388277Y-14715698D02*
X17397801Y-14734746D01*
X17397801Y-14734746D02*
X17397801Y-14791888D01*
X17397801Y-14791888D02*
X17388277Y-14810936D01*
X17388277Y-14810936D02*
X17378753Y-14820460D01*
X17378753Y-14820460D02*
X17359706Y-14829984D01*
X17359706Y-14829984D02*
X17331134Y-14829984D01*
X17512087Y-14829984D02*
X17493039Y-14820460D01*
X17493039Y-14820460D02*
X17483515Y-14801412D01*
X17483515Y-14801412D02*
X17483515Y-14629984D01*
X17664468Y-14820460D02*
X17645420Y-14829984D01*
X17645420Y-14829984D02*
X17607325Y-14829984D01*
X17607325Y-14829984D02*
X17588277Y-14820460D01*
X17588277Y-14820460D02*
X17578753Y-14801412D01*
X17578753Y-14801412D02*
X17578753Y-14725222D01*
X17578753Y-14725222D02*
X17588277Y-14706174D01*
X17588277Y-14706174D02*
X17607325Y-14696650D01*
X17607325Y-14696650D02*
X17645420Y-14696650D01*
X17645420Y-14696650D02*
X17664468Y-14706174D01*
X17664468Y-14706174D02*
X17673992Y-14725222D01*
X17673992Y-14725222D02*
X17673992Y-14744269D01*
X17673992Y-14744269D02*
X17578753Y-14763317D01*
X17750182Y-14820460D02*
X17769230Y-14829984D01*
X17769230Y-14829984D02*
X17807325Y-14829984D01*
X17807325Y-14829984D02*
X17826373Y-14820460D01*
X17826373Y-14820460D02*
X17835896Y-14801412D01*
X17835896Y-14801412D02*
X17835896Y-14791888D01*
X17835896Y-14791888D02*
X17826373Y-14772841D01*
X17826373Y-14772841D02*
X17807325Y-14763317D01*
X17807325Y-14763317D02*
X17778753Y-14763317D01*
X17778753Y-14763317D02*
X17759706Y-14753793D01*
X17759706Y-14753793D02*
X17750182Y-14734746D01*
X17750182Y-14734746D02*
X17750182Y-14725222D01*
X17750182Y-14725222D02*
X17759706Y-14706174D01*
X17759706Y-14706174D02*
X17778753Y-14696650D01*
X17778753Y-14696650D02*
X17807325Y-14696650D01*
X17807325Y-14696650D02*
X17826373Y-14706174D01*
X17902563Y-14906174D02*
X17912087Y-14896650D01*
X17912087Y-14896650D02*
X17931134Y-14868079D01*
X17931134Y-14868079D02*
X17940658Y-14849031D01*
X17940658Y-14849031D02*
X17950182Y-14820460D01*
X17950182Y-14820460D02*
X17959706Y-14772841D01*
X17959706Y-14772841D02*
X17959706Y-14734746D01*
X17959706Y-14734746D02*
X17950182Y-14687127D01*
X17950182Y-14687127D02*
X17940658Y-14658555D01*
X17940658Y-14658555D02*
X17931134Y-14639508D01*
X17931134Y-14639508D02*
X17912087Y-14610936D01*
X17912087Y-14610936D02*
X17902563Y-14601412D01*
M02*
