G04 #@! TF.GenerationSoftware,KiCad,Pcbnew,9.0.5*
G04 #@! TF.CreationDate,2025-11-30T17:43:59+01:00*
G04 #@! TF.ProjectId,Leistungskreis,4c656973-7475-46e6-9773-6b726569732e,rev?*
G04 #@! TF.SameCoordinates,Original*
G04 #@! TF.FileFunction,Copper,L1,Top*
G04 #@! TF.FilePolarity,Positive*
%FSLAX46Y46*%
G04 Gerber Fmt 4.6, Leading zero omitted, Abs format (unit mm)*
G04 Created by KiCad (PCBNEW 9.0.5) date 2025-11-30 17:43:59*
%MOMM*%
%LPD*%
G01*
G04 APERTURE LIST*
G04 Aperture macros list*
%AMRoundRect*
0 Rectangle with rounded corners*
0 $1 Rounding radius*
0 $2 $3 $4 $5 $6 $7 $8 $9 X,Y pos of 4 corners*
0 Add a 4 corners polygon primitive as box body*
4,1,4,$2,$3,$4,$5,$6,$7,$8,$9,$2,$3,0*
0 Add four circle primitives for the rounded corners*
1,1,$1+$1,$2,$3*
1,1,$1+$1,$4,$5*
1,1,$1+$1,$6,$7*
1,1,$1+$1,$8,$9*
0 Add four rect primitives between the rounded corners*
20,1,$1+$1,$2,$3,$4,$5,0*
20,1,$1+$1,$4,$5,$6,$7,0*
20,1,$1+$1,$6,$7,$8,$9,0*
20,1,$1+$1,$8,$9,$2,$3,0*%
G04 Aperture macros list end*
G04 #@! TA.AperFunction,NonConductor*
%ADD10C,0.200000*%
G04 #@! TD*
G04 #@! TA.AperFunction,ComponentPad*
%ADD11RoundRect,0.250000X-1.050000X-1.050000X1.050000X-1.050000X1.050000X1.050000X-1.050000X1.050000X0*%
G04 #@! TD*
G04 #@! TA.AperFunction,ComponentPad*
%ADD12R,1.905000X2.000000*%
G04 #@! TD*
G04 #@! TA.AperFunction,ComponentPad*
%ADD13O,1.905000X2.000000*%
G04 #@! TD*
G04 #@! TA.AperFunction,ComponentPad*
%ADD14RoundRect,0.250000X0.350000X0.625000X-0.350000X0.625000X-0.350000X-0.625000X0.350000X-0.625000X0*%
G04 #@! TD*
G04 #@! TA.AperFunction,ComponentPad*
%ADD15O,1.200000X1.750000*%
G04 #@! TD*
G04 #@! TA.AperFunction,SMDPad,CuDef*
%ADD16RoundRect,0.225000X0.225000X0.375000X-0.225000X0.375000X-0.225000X-0.375000X0.225000X-0.375000X0*%
G04 #@! TD*
G04 #@! TA.AperFunction,SMDPad,CuDef*
%ADD17RoundRect,0.250000X-1.500000X-0.550000X1.500000X-0.550000X1.500000X0.550000X-1.500000X0.550000X0*%
G04 #@! TD*
G04 #@! TA.AperFunction,ComponentPad*
%ADD18RoundRect,0.250000X-1.050000X1.050000X-1.050000X-1.050000X1.050000X-1.050000X1.050000X1.050000X0*%
G04 #@! TD*
G04 #@! TA.AperFunction,ComponentPad*
%ADD19C,2.600000*%
G04 #@! TD*
G04 #@! TA.AperFunction,ComponentPad*
%ADD20R,1.650000X1.650000*%
G04 #@! TD*
G04 #@! TA.AperFunction,ComponentPad*
%ADD21C,1.650000*%
G04 #@! TD*
G04 #@! TA.AperFunction,ComponentPad*
%ADD22RoundRect,0.250000X1.050000X-1.050000X1.050000X1.050000X-1.050000X1.050000X-1.050000X-1.050000X0*%
G04 #@! TD*
G04 #@! TA.AperFunction,ViaPad*
%ADD23C,0.600000*%
G04 #@! TD*
G04 #@! TA.AperFunction,Conductor*
%ADD24C,0.500000*%
G04 #@! TD*
G04 #@! TA.AperFunction,Conductor*
%ADD25C,0.200000*%
G04 #@! TD*
G04 #@! TA.AperFunction,Conductor*
%ADD26C,1.000000*%
G04 #@! TD*
G04 APERTURE END LIST*
D10*
X131821807Y-89878193D02*
X171821807Y-89878193D01*
X171821807Y-129878193D01*
X131821807Y-129878193D01*
X131821807Y-89878193D01*
D11*
G04 #@! TO.P,J4,1,Pin_1*
G04 #@! TO.N,N*
X157200000Y-126300000D03*
G04 #@! TD*
G04 #@! TO.P,J7,1,Pin_1*
G04 #@! TO.N,5V0*
X161700000Y-102800000D03*
G04 #@! TD*
G04 #@! TO.P,J6,1,Pin_1*
G04 #@! TO.N,GND*
X169800000Y-102700000D03*
G04 #@! TD*
D12*
G04 #@! TO.P,Q2,1,G*
G04 #@! TO.N,Net-(Q2-G)*
X147060000Y-93950000D03*
D13*
G04 #@! TO.P,Q2,2,D*
G04 #@! TO.N,Net-(D2-K)*
X149600000Y-93950000D03*
G04 #@! TO.P,Q2,3,S*
G04 #@! TO.N,GND*
X152140000Y-93950000D03*
G04 #@! TD*
D11*
G04 #@! TO.P,J2,1,Pin_1*
G04 #@! TO.N,L1*
X145100000Y-126300000D03*
G04 #@! TD*
D14*
G04 #@! TO.P,J3,1,Pin_1*
G04 #@! TO.N,GPIO10_Trigger_PIN1*
X169100000Y-93400000D03*
D15*
G04 #@! TO.P,J3,2,Pin_2*
G04 #@! TO.N,GPIO05_Trigger_PIN2*
X167100000Y-93400000D03*
G04 #@! TO.P,J3,3,Pin_3*
G04 #@! TO.N,GND*
X165100000Y-93400000D03*
G04 #@! TO.P,J3,4,Pin_4*
G04 #@! TO.N,5V0*
X163100000Y-93400000D03*
G04 #@! TO.P,J3,5,Pin_5*
G04 #@! TO.N,3V3*
X161100000Y-93400000D03*
G04 #@! TD*
D16*
G04 #@! TO.P,D1,1,K*
G04 #@! TO.N,Net-(D1-K)*
X148650000Y-100300000D03*
G04 #@! TO.P,D1,2,A*
G04 #@! TO.N,GND*
X145350000Y-100300000D03*
G04 #@! TD*
D17*
G04 #@! TO.P,C1,1*
G04 #@! TO.N,5V0*
X163900000Y-108400000D03*
G04 #@! TO.P,C1,2*
G04 #@! TO.N,GND*
X169300000Y-108400000D03*
G04 #@! TD*
D18*
G04 #@! TO.P,J1,1,Pin_1*
G04 #@! TO.N,L''*
X137827500Y-114500000D03*
D19*
G04 #@! TO.P,J1,2,Pin_2*
G04 #@! TO.N,L'*
X137827500Y-119500000D03*
G04 #@! TD*
D16*
G04 #@! TO.P,D2,1,K*
G04 #@! TO.N,Net-(D2-K)*
X157150000Y-100300000D03*
G04 #@! TO.P,D2,2,A*
G04 #@! TO.N,GND*
X153850000Y-100300000D03*
G04 #@! TD*
D18*
G04 #@! TO.P,J5,1,Pin_1*
G04 #@! TO.N,PE*
X137800000Y-102300000D03*
D19*
G04 #@! TO.P,J5,2,Pin_2*
X137800000Y-107300000D03*
G04 #@! TD*
D12*
G04 #@! TO.P,Q1,1,G*
G04 #@! TO.N,Net-(Q1-G)*
X135860000Y-93850000D03*
D13*
G04 #@! TO.P,Q1,2,D*
G04 #@! TO.N,Net-(D1-K)*
X138400000Y-93850000D03*
G04 #@! TO.P,Q1,3,S*
G04 #@! TO.N,GND*
X140940000Y-93850000D03*
G04 #@! TD*
D20*
G04 #@! TO.P,K1,1*
G04 #@! TO.N,Net-(D1-K)*
X149850000Y-103050000D03*
D21*
G04 #@! TO.P,K1,2*
G04 #@! TO.N,GND*
X145150000Y-103050000D03*
G04 #@! TO.P,K1,3*
G04 #@! TO.N,L'*
X145150000Y-114550000D03*
G04 #@! TO.P,K1,4*
G04 #@! TO.N,L1*
X145150000Y-121550000D03*
G04 #@! TD*
D22*
G04 #@! TO.P,J8,1,Pin_1*
G04 #@! TO.N,N*
X165500000Y-126300000D03*
D19*
G04 #@! TO.P,J8,2,Pin_2*
X165500000Y-121300000D03*
G04 #@! TO.P,J8,3,Pin_3*
G04 #@! TO.N,L1*
X165500000Y-116300000D03*
G04 #@! TD*
D20*
G04 #@! TO.P,K2,1*
G04 #@! TO.N,Net-(D2-K)*
X158150000Y-103050000D03*
D21*
G04 #@! TO.P,K2,2*
G04 #@! TO.N,GND*
X153450000Y-103050000D03*
G04 #@! TO.P,K2,3*
G04 #@! TO.N,L''*
X153450000Y-114550000D03*
G04 #@! TO.P,K2,4*
G04 #@! TO.N,L1*
X153450000Y-121550000D03*
G04 #@! TD*
D23*
G04 #@! TO.N,Net-(Q2-G)*
X159200000Y-97900000D03*
X151000000Y-96600000D03*
G04 #@! TO.N,GND*
X153000000Y-96500000D03*
X165100000Y-98900000D03*
X144300000Y-98900000D03*
X161900000Y-96600000D03*
G04 #@! TO.N,Net-(D1-K)*
X149600000Y-100400000D03*
G04 #@! TO.N,Net-(D2-K)*
X158200000Y-100300000D03*
X156100000Y-100300000D03*
G04 #@! TO.N,Net-(R1-Pad2)*
X151200000Y-91800000D03*
X153100000Y-91800000D03*
G04 #@! TO.N,Net-(R3-Pad2)*
X167600000Y-99900000D03*
X162100000Y-99300000D03*
G04 #@! TD*
D24*
G04 #@! TO.N,Net-(Q2-G)*
X155100000Y-95600000D02*
X156900000Y-95600000D01*
X151000000Y-96600000D02*
X152000000Y-95600000D01*
X152000000Y-95600000D02*
X155100000Y-95600000D01*
X156900000Y-95600000D02*
X159200000Y-97900000D01*
G04 #@! TO.N,GND*
X145350000Y-99950000D02*
X144300000Y-98900000D01*
X153850000Y-100300000D02*
X153850000Y-99250000D01*
X153850000Y-99250000D02*
X153000000Y-98400000D01*
D25*
X145350000Y-100300000D02*
X145350000Y-99950000D01*
X153850000Y-102650000D02*
X153450000Y-103050000D01*
D24*
X153850000Y-100300000D02*
X153850000Y-102650000D01*
X153000000Y-98400000D02*
X153000000Y-96500000D01*
D25*
X169800000Y-107900000D02*
X169300000Y-108400000D01*
D26*
X169800000Y-102700000D02*
X169800000Y-107900000D01*
D24*
X161900000Y-96600000D02*
X162800000Y-96600000D01*
D25*
X145350000Y-102850000D02*
X145150000Y-103050000D01*
D24*
X145350000Y-100300000D02*
X145350000Y-102850000D01*
X162800000Y-96600000D02*
X165100000Y-98900000D01*
D26*
G04 #@! TO.N,5V0*
X161700000Y-106200000D02*
X163900000Y-108400000D01*
X161700000Y-102800000D02*
X161700000Y-106200000D01*
D25*
G04 #@! TO.N,Net-(D1-K)*
X148750000Y-100400000D02*
X148650000Y-100300000D01*
D24*
X143500000Y-96300000D02*
X140850000Y-96300000D01*
X148650000Y-100300000D02*
X147500000Y-100300000D01*
X147500000Y-100300000D02*
X143500000Y-96300000D01*
X149600000Y-100400000D02*
X148750000Y-100400000D01*
X140850000Y-96300000D02*
X138400000Y-93850000D01*
G04 #@! TO.N,Net-(D2-K)*
X158200000Y-100300000D02*
X157150000Y-100300000D01*
X156100000Y-100300000D02*
X157150000Y-100300000D01*
G04 #@! TO.N,Net-(R1-Pad2)*
X151200000Y-91800000D02*
X153100000Y-91800000D01*
G04 #@! TO.N,Net-(R3-Pad2)*
X162100000Y-99300000D02*
X162700000Y-99900000D01*
X162700000Y-99900000D02*
X167600000Y-99900000D01*
G04 #@! TD*
M02*
