G04 #@! TF.GenerationSoftware,KiCad,Pcbnew,9.0.5*
G04 #@! TF.CreationDate,2025-11-30T17:43:59+01:00*
G04 #@! TF.ProjectId,Leistungskreis,4c656973-7475-46e6-9773-6b726569732e,rev?*
G04 #@! TF.SameCoordinates,Original*
G04 #@! TF.FileFunction,Legend,Top*
G04 #@! TF.FilePolarity,Positive*
%FSLAX46Y46*%
G04 Gerber Fmt 4.6, Leading zero omitted, Abs format (unit mm)*
G04 Created by KiCad (PCBNEW 9.0.5) date 2025-11-30 17:43:59*
%MOMM*%
%LPD*%
G01*
G04 APERTURE LIST*
G04 Aperture macros list*
%AMRoundRect*
0 Rectangle with rounded corners*
0 $1 Rounding radius*
0 $2 $3 $4 $5 $6 $7 $8 $9 X,Y pos of 4 corners*
0 Add a 4 corners polygon primitive as box body*
4,1,4,$2,$3,$4,$5,$6,$7,$8,$9,$2,$3,0*
0 Add four circle primitives for the rounded corners*
1,1,$1+$1,$2,$3*
1,1,$1+$1,$4,$5*
1,1,$1+$1,$6,$7*
1,1,$1+$1,$8,$9*
0 Add four rect primitives between the rounded corners*
20,1,$1+$1,$2,$3,$4,$5,0*
20,1,$1+$1,$4,$5,$6,$7,0*
20,1,$1+$1,$6,$7,$8,$9,0*
20,1,$1+$1,$8,$9,$2,$3,0*%
G04 Aperture macros list end*
%ADD10C,0.125000*%
%ADD11C,0.250000*%
%ADD12C,0.100000*%
%ADD13C,0.200000*%
%ADD14C,0.150000*%
%ADD15C,0.120000*%
%ADD16C,0.127000*%
%ADD17RoundRect,0.250000X-1.050000X-1.050000X1.050000X-1.050000X1.050000X1.050000X-1.050000X1.050000X0*%
%ADD18R,1.905000X2.000000*%
%ADD19O,1.905000X2.000000*%
%ADD20RoundRect,0.250000X0.350000X0.625000X-0.350000X0.625000X-0.350000X-0.625000X0.350000X-0.625000X0*%
%ADD21O,1.200000X1.750000*%
%ADD22RoundRect,0.225000X0.225000X0.375000X-0.225000X0.375000X-0.225000X-0.375000X0.225000X-0.375000X0*%
%ADD23RoundRect,0.250000X-1.500000X-0.550000X1.500000X-0.550000X1.500000X0.550000X-1.500000X0.550000X0*%
%ADD24RoundRect,0.250000X-1.050000X1.050000X-1.050000X-1.050000X1.050000X-1.050000X1.050000X1.050000X0*%
%ADD25C,2.600000*%
%ADD26RoundRect,0.102000X-0.825000X0.825000X-0.825000X-0.825000X0.825000X-0.825000X0.825000X0.825000X0*%
%ADD27C,1.854000*%
%ADD28RoundRect,0.250000X1.050000X-1.050000X1.050000X1.050000X-1.050000X1.050000X-1.050000X-1.050000X0*%
G04 APERTURE END LIST*
D10*
X133506045Y-124399270D02*
X133458426Y-124351651D01*
X133458426Y-124351651D02*
X133363188Y-124351651D01*
X133363188Y-124351651D02*
X133315569Y-124399270D01*
X133315569Y-124399270D02*
X133267950Y-124494508D01*
X133267950Y-124494508D02*
X133244140Y-124589746D01*
X133244140Y-124589746D02*
X133244140Y-124780222D01*
X133244140Y-124780222D02*
X133267950Y-124875460D01*
X133267950Y-124875460D02*
X133315569Y-124970698D01*
X133315569Y-124970698D02*
X133363188Y-125018317D01*
X133363188Y-125018317D02*
X133458426Y-125018317D01*
X133458426Y-125018317D02*
X133506045Y-124970698D01*
X133410807Y-124018317D02*
X133291759Y-124065936D01*
X133291759Y-124065936D02*
X133172712Y-124208794D01*
X133172712Y-124208794D02*
X133101283Y-124446889D01*
X133101283Y-124446889D02*
X133077474Y-124684984D01*
X133077474Y-124684984D02*
X133101283Y-124923079D01*
X133101283Y-124923079D02*
X133172712Y-125161175D01*
X133172712Y-125161175D02*
X133291759Y-125304032D01*
X133291759Y-125304032D02*
X133410807Y-125351651D01*
X133410807Y-125351651D02*
X133529855Y-125304032D01*
X133529855Y-125304032D02*
X133648902Y-125161175D01*
X133648902Y-125161175D02*
X133720331Y-124923079D01*
X133720331Y-124923079D02*
X133744140Y-124684984D01*
X133744140Y-124684984D02*
X133720331Y-124446889D01*
X133720331Y-124446889D02*
X133648902Y-124208794D01*
X133648902Y-124208794D02*
X133529855Y-124065936D01*
X133529855Y-124065936D02*
X133410807Y-124018317D01*
X134315569Y-124256413D02*
X134339378Y-124208794D01*
X134339378Y-124208794D02*
X134386997Y-124161175D01*
X134386997Y-124161175D02*
X134506045Y-124161175D01*
X134506045Y-124161175D02*
X134553664Y-124208794D01*
X134553664Y-124208794D02*
X134577473Y-124256413D01*
X134577473Y-124256413D02*
X134601283Y-124351651D01*
X134601283Y-124351651D02*
X134601283Y-124446889D01*
X134601283Y-124446889D02*
X134577473Y-124589746D01*
X134577473Y-124589746D02*
X134291759Y-125161175D01*
X134291759Y-125161175D02*
X134601283Y-125161175D01*
X134910806Y-124161175D02*
X134958425Y-124161175D01*
X134958425Y-124161175D02*
X135006044Y-124208794D01*
X135006044Y-124208794D02*
X135029854Y-124256413D01*
X135029854Y-124256413D02*
X135053663Y-124351651D01*
X135053663Y-124351651D02*
X135077473Y-124542127D01*
X135077473Y-124542127D02*
X135077473Y-124780222D01*
X135077473Y-124780222D02*
X135053663Y-124970698D01*
X135053663Y-124970698D02*
X135029854Y-125065936D01*
X135029854Y-125065936D02*
X135006044Y-125113556D01*
X135006044Y-125113556D02*
X134958425Y-125161175D01*
X134958425Y-125161175D02*
X134910806Y-125161175D01*
X134910806Y-125161175D02*
X134863187Y-125113556D01*
X134863187Y-125113556D02*
X134839378Y-125065936D01*
X134839378Y-125065936D02*
X134815568Y-124970698D01*
X134815568Y-124970698D02*
X134791759Y-124780222D01*
X134791759Y-124780222D02*
X134791759Y-124542127D01*
X134791759Y-124542127D02*
X134815568Y-124351651D01*
X134815568Y-124351651D02*
X134839378Y-124256413D01*
X134839378Y-124256413D02*
X134863187Y-124208794D01*
X134863187Y-124208794D02*
X134910806Y-124161175D01*
X135267949Y-124256413D02*
X135291758Y-124208794D01*
X135291758Y-124208794D02*
X135339377Y-124161175D01*
X135339377Y-124161175D02*
X135458425Y-124161175D01*
X135458425Y-124161175D02*
X135506044Y-124208794D01*
X135506044Y-124208794D02*
X135529853Y-124256413D01*
X135529853Y-124256413D02*
X135553663Y-124351651D01*
X135553663Y-124351651D02*
X135553663Y-124446889D01*
X135553663Y-124446889D02*
X135529853Y-124589746D01*
X135529853Y-124589746D02*
X135244139Y-125161175D01*
X135244139Y-125161175D02*
X135553663Y-125161175D01*
X136006043Y-124161175D02*
X135767948Y-124161175D01*
X135767948Y-124161175D02*
X135744139Y-124637365D01*
X135744139Y-124637365D02*
X135767948Y-124589746D01*
X135767948Y-124589746D02*
X135815567Y-124542127D01*
X135815567Y-124542127D02*
X135934615Y-124542127D01*
X135934615Y-124542127D02*
X135982234Y-124589746D01*
X135982234Y-124589746D02*
X136006043Y-124637365D01*
X136006043Y-124637365D02*
X136029853Y-124732603D01*
X136029853Y-124732603D02*
X136029853Y-124970698D01*
X136029853Y-124970698D02*
X136006043Y-125065936D01*
X136006043Y-125065936D02*
X135982234Y-125113556D01*
X135982234Y-125113556D02*
X135934615Y-125161175D01*
X135934615Y-125161175D02*
X135815567Y-125161175D01*
X135815567Y-125161175D02*
X135767948Y-125113556D01*
X135767948Y-125113556D02*
X135744139Y-125065936D01*
X136625090Y-125161175D02*
X136625090Y-124161175D01*
X136625090Y-124161175D02*
X136791757Y-124875460D01*
X136791757Y-124875460D02*
X136958423Y-124161175D01*
X136958423Y-124161175D02*
X136958423Y-125161175D01*
X137410805Y-125161175D02*
X137410805Y-124637365D01*
X137410805Y-124637365D02*
X137386995Y-124542127D01*
X137386995Y-124542127D02*
X137339376Y-124494508D01*
X137339376Y-124494508D02*
X137244138Y-124494508D01*
X137244138Y-124494508D02*
X137196519Y-124542127D01*
X137410805Y-125113556D02*
X137363186Y-125161175D01*
X137363186Y-125161175D02*
X137244138Y-125161175D01*
X137244138Y-125161175D02*
X137196519Y-125113556D01*
X137196519Y-125113556D02*
X137172710Y-125018317D01*
X137172710Y-125018317D02*
X137172710Y-124923079D01*
X137172710Y-124923079D02*
X137196519Y-124827841D01*
X137196519Y-124827841D02*
X137244138Y-124780222D01*
X137244138Y-124780222D02*
X137363186Y-124780222D01*
X137363186Y-124780222D02*
X137410805Y-124732603D01*
X137648900Y-124494508D02*
X137648900Y-125161175D01*
X137648900Y-124589746D02*
X137672710Y-124542127D01*
X137672710Y-124542127D02*
X137720329Y-124494508D01*
X137720329Y-124494508D02*
X137791757Y-124494508D01*
X137791757Y-124494508D02*
X137839376Y-124542127D01*
X137839376Y-124542127D02*
X137863186Y-124637365D01*
X137863186Y-124637365D02*
X137863186Y-125161175D01*
X138315567Y-124494508D02*
X138315567Y-125161175D01*
X138101281Y-124494508D02*
X138101281Y-125018317D01*
X138101281Y-125018317D02*
X138125091Y-125113556D01*
X138125091Y-125113556D02*
X138172710Y-125161175D01*
X138172710Y-125161175D02*
X138244138Y-125161175D01*
X138244138Y-125161175D02*
X138291757Y-125113556D01*
X138291757Y-125113556D02*
X138315567Y-125065936D01*
X138744138Y-125113556D02*
X138696519Y-125161175D01*
X138696519Y-125161175D02*
X138601281Y-125161175D01*
X138601281Y-125161175D02*
X138553662Y-125113556D01*
X138553662Y-125113556D02*
X138529853Y-125018317D01*
X138529853Y-125018317D02*
X138529853Y-124637365D01*
X138529853Y-124637365D02*
X138553662Y-124542127D01*
X138553662Y-124542127D02*
X138601281Y-124494508D01*
X138601281Y-124494508D02*
X138696519Y-124494508D01*
X138696519Y-124494508D02*
X138744138Y-124542127D01*
X138744138Y-124542127D02*
X138767948Y-124637365D01*
X138767948Y-124637365D02*
X138767948Y-124732603D01*
X138767948Y-124732603D02*
X138529853Y-124827841D01*
X139053662Y-125161175D02*
X139006043Y-125113556D01*
X139006043Y-125113556D02*
X138982233Y-125018317D01*
X138982233Y-125018317D02*
X138982233Y-124161175D01*
X139910804Y-125161175D02*
X139744138Y-124684984D01*
X139625090Y-125161175D02*
X139625090Y-124161175D01*
X139625090Y-124161175D02*
X139815566Y-124161175D01*
X139815566Y-124161175D02*
X139863185Y-124208794D01*
X139863185Y-124208794D02*
X139886995Y-124256413D01*
X139886995Y-124256413D02*
X139910804Y-124351651D01*
X139910804Y-124351651D02*
X139910804Y-124494508D01*
X139910804Y-124494508D02*
X139886995Y-124589746D01*
X139886995Y-124589746D02*
X139863185Y-124637365D01*
X139863185Y-124637365D02*
X139815566Y-124684984D01*
X139815566Y-124684984D02*
X139625090Y-124684984D01*
X140125090Y-125161175D02*
X140125090Y-124494508D01*
X140125090Y-124161175D02*
X140101281Y-124208794D01*
X140101281Y-124208794D02*
X140125090Y-124256413D01*
X140125090Y-124256413D02*
X140148900Y-124208794D01*
X140148900Y-124208794D02*
X140125090Y-124161175D01*
X140125090Y-124161175D02*
X140125090Y-124256413D01*
X140553661Y-125113556D02*
X140506042Y-125161175D01*
X140506042Y-125161175D02*
X140410804Y-125161175D01*
X140410804Y-125161175D02*
X140363185Y-125113556D01*
X140363185Y-125113556D02*
X140339376Y-125018317D01*
X140339376Y-125018317D02*
X140339376Y-124637365D01*
X140339376Y-124637365D02*
X140363185Y-124542127D01*
X140363185Y-124542127D02*
X140410804Y-124494508D01*
X140410804Y-124494508D02*
X140506042Y-124494508D01*
X140506042Y-124494508D02*
X140553661Y-124542127D01*
X140553661Y-124542127D02*
X140577471Y-124637365D01*
X140577471Y-124637365D02*
X140577471Y-124732603D01*
X140577471Y-124732603D02*
X140339376Y-124827841D01*
X140767947Y-125113556D02*
X140815566Y-125161175D01*
X140815566Y-125161175D02*
X140910804Y-125161175D01*
X140910804Y-125161175D02*
X140958423Y-125113556D01*
X140958423Y-125113556D02*
X140982232Y-125018317D01*
X140982232Y-125018317D02*
X140982232Y-124970698D01*
X140982232Y-124970698D02*
X140958423Y-124875460D01*
X140958423Y-124875460D02*
X140910804Y-124827841D01*
X140910804Y-124827841D02*
X140839375Y-124827841D01*
X140839375Y-124827841D02*
X140791756Y-124780222D01*
X140791756Y-124780222D02*
X140767947Y-124684984D01*
X140767947Y-124684984D02*
X140767947Y-124637365D01*
X140767947Y-124637365D02*
X140791756Y-124542127D01*
X140791756Y-124542127D02*
X140839375Y-124494508D01*
X140839375Y-124494508D02*
X140910804Y-124494508D01*
X140910804Y-124494508D02*
X140958423Y-124542127D01*
X141196518Y-125065936D02*
X141220328Y-125113556D01*
X141220328Y-125113556D02*
X141196518Y-125161175D01*
X141196518Y-125161175D02*
X141172709Y-125113556D01*
X141172709Y-125113556D02*
X141196518Y-125065936D01*
X141196518Y-125065936D02*
X141196518Y-125161175D01*
X133458426Y-126485404D02*
X133696521Y-126485404D01*
X133410807Y-126771119D02*
X133577473Y-125771119D01*
X133577473Y-125771119D02*
X133744140Y-126771119D01*
X133982235Y-126771119D02*
X133934616Y-126723500D01*
X133934616Y-126723500D02*
X133910806Y-126628261D01*
X133910806Y-126628261D02*
X133910806Y-125771119D01*
X134244140Y-126771119D02*
X134196521Y-126723500D01*
X134196521Y-126723500D02*
X134172711Y-126628261D01*
X134172711Y-126628261D02*
X134172711Y-125771119D01*
X135101282Y-126771119D02*
X134934616Y-126294928D01*
X134815568Y-126771119D02*
X134815568Y-125771119D01*
X134815568Y-125771119D02*
X135006044Y-125771119D01*
X135006044Y-125771119D02*
X135053663Y-125818738D01*
X135053663Y-125818738D02*
X135077473Y-125866357D01*
X135077473Y-125866357D02*
X135101282Y-125961595D01*
X135101282Y-125961595D02*
X135101282Y-126104452D01*
X135101282Y-126104452D02*
X135077473Y-126199690D01*
X135077473Y-126199690D02*
X135053663Y-126247309D01*
X135053663Y-126247309D02*
X135006044Y-126294928D01*
X135006044Y-126294928D02*
X134815568Y-126294928D01*
X135315568Y-126771119D02*
X135315568Y-126104452D01*
X135315568Y-125771119D02*
X135291759Y-125818738D01*
X135291759Y-125818738D02*
X135315568Y-125866357D01*
X135315568Y-125866357D02*
X135339378Y-125818738D01*
X135339378Y-125818738D02*
X135315568Y-125771119D01*
X135315568Y-125771119D02*
X135315568Y-125866357D01*
X135767949Y-126104452D02*
X135767949Y-126913976D01*
X135767949Y-126913976D02*
X135744139Y-127009214D01*
X135744139Y-127009214D02*
X135720330Y-127056833D01*
X135720330Y-127056833D02*
X135672711Y-127104452D01*
X135672711Y-127104452D02*
X135601282Y-127104452D01*
X135601282Y-127104452D02*
X135553663Y-127056833D01*
X135767949Y-126723500D02*
X135720330Y-126771119D01*
X135720330Y-126771119D02*
X135625092Y-126771119D01*
X135625092Y-126771119D02*
X135577473Y-126723500D01*
X135577473Y-126723500D02*
X135553663Y-126675880D01*
X135553663Y-126675880D02*
X135529854Y-126580642D01*
X135529854Y-126580642D02*
X135529854Y-126294928D01*
X135529854Y-126294928D02*
X135553663Y-126199690D01*
X135553663Y-126199690D02*
X135577473Y-126152071D01*
X135577473Y-126152071D02*
X135625092Y-126104452D01*
X135625092Y-126104452D02*
X135720330Y-126104452D01*
X135720330Y-126104452D02*
X135767949Y-126152071D01*
X136006044Y-126771119D02*
X136006044Y-125771119D01*
X136220330Y-126771119D02*
X136220330Y-126247309D01*
X136220330Y-126247309D02*
X136196520Y-126152071D01*
X136196520Y-126152071D02*
X136148901Y-126104452D01*
X136148901Y-126104452D02*
X136077473Y-126104452D01*
X136077473Y-126104452D02*
X136029854Y-126152071D01*
X136029854Y-126152071D02*
X136006044Y-126199690D01*
X136386997Y-126104452D02*
X136577473Y-126104452D01*
X136458425Y-125771119D02*
X136458425Y-126628261D01*
X136458425Y-126628261D02*
X136482235Y-126723500D01*
X136482235Y-126723500D02*
X136529854Y-126771119D01*
X136529854Y-126771119D02*
X136577473Y-126771119D01*
X136720330Y-126723500D02*
X136767949Y-126771119D01*
X136767949Y-126771119D02*
X136863187Y-126771119D01*
X136863187Y-126771119D02*
X136910806Y-126723500D01*
X136910806Y-126723500D02*
X136934615Y-126628261D01*
X136934615Y-126628261D02*
X136934615Y-126580642D01*
X136934615Y-126580642D02*
X136910806Y-126485404D01*
X136910806Y-126485404D02*
X136863187Y-126437785D01*
X136863187Y-126437785D02*
X136791758Y-126437785D01*
X136791758Y-126437785D02*
X136744139Y-126390166D01*
X136744139Y-126390166D02*
X136720330Y-126294928D01*
X136720330Y-126294928D02*
X136720330Y-126247309D01*
X136720330Y-126247309D02*
X136744139Y-126152071D01*
X136744139Y-126152071D02*
X136791758Y-126104452D01*
X136791758Y-126104452D02*
X136863187Y-126104452D01*
X136863187Y-126104452D02*
X136910806Y-126152071D01*
X137815567Y-126771119D02*
X137648901Y-126294928D01*
X137529853Y-126771119D02*
X137529853Y-125771119D01*
X137529853Y-125771119D02*
X137720329Y-125771119D01*
X137720329Y-125771119D02*
X137767948Y-125818738D01*
X137767948Y-125818738D02*
X137791758Y-125866357D01*
X137791758Y-125866357D02*
X137815567Y-125961595D01*
X137815567Y-125961595D02*
X137815567Y-126104452D01*
X137815567Y-126104452D02*
X137791758Y-126199690D01*
X137791758Y-126199690D02*
X137767948Y-126247309D01*
X137767948Y-126247309D02*
X137720329Y-126294928D01*
X137720329Y-126294928D02*
X137529853Y-126294928D01*
X138220329Y-126723500D02*
X138172710Y-126771119D01*
X138172710Y-126771119D02*
X138077472Y-126771119D01*
X138077472Y-126771119D02*
X138029853Y-126723500D01*
X138029853Y-126723500D02*
X138006044Y-126628261D01*
X138006044Y-126628261D02*
X138006044Y-126247309D01*
X138006044Y-126247309D02*
X138029853Y-126152071D01*
X138029853Y-126152071D02*
X138077472Y-126104452D01*
X138077472Y-126104452D02*
X138172710Y-126104452D01*
X138172710Y-126104452D02*
X138220329Y-126152071D01*
X138220329Y-126152071D02*
X138244139Y-126247309D01*
X138244139Y-126247309D02*
X138244139Y-126342547D01*
X138244139Y-126342547D02*
X138006044Y-126437785D01*
X138434615Y-126723500D02*
X138482234Y-126771119D01*
X138482234Y-126771119D02*
X138577472Y-126771119D01*
X138577472Y-126771119D02*
X138625091Y-126723500D01*
X138625091Y-126723500D02*
X138648900Y-126628261D01*
X138648900Y-126628261D02*
X138648900Y-126580642D01*
X138648900Y-126580642D02*
X138625091Y-126485404D01*
X138625091Y-126485404D02*
X138577472Y-126437785D01*
X138577472Y-126437785D02*
X138506043Y-126437785D01*
X138506043Y-126437785D02*
X138458424Y-126390166D01*
X138458424Y-126390166D02*
X138434615Y-126294928D01*
X138434615Y-126294928D02*
X138434615Y-126247309D01*
X138434615Y-126247309D02*
X138458424Y-126152071D01*
X138458424Y-126152071D02*
X138506043Y-126104452D01*
X138506043Y-126104452D02*
X138577472Y-126104452D01*
X138577472Y-126104452D02*
X138625091Y-126152071D01*
X139053662Y-126723500D02*
X139006043Y-126771119D01*
X139006043Y-126771119D02*
X138910805Y-126771119D01*
X138910805Y-126771119D02*
X138863186Y-126723500D01*
X138863186Y-126723500D02*
X138839377Y-126628261D01*
X138839377Y-126628261D02*
X138839377Y-126247309D01*
X138839377Y-126247309D02*
X138863186Y-126152071D01*
X138863186Y-126152071D02*
X138910805Y-126104452D01*
X138910805Y-126104452D02*
X139006043Y-126104452D01*
X139006043Y-126104452D02*
X139053662Y-126152071D01*
X139053662Y-126152071D02*
X139077472Y-126247309D01*
X139077472Y-126247309D02*
X139077472Y-126342547D01*
X139077472Y-126342547D02*
X138839377Y-126437785D01*
X139291757Y-126771119D02*
X139291757Y-126104452D01*
X139291757Y-126294928D02*
X139315567Y-126199690D01*
X139315567Y-126199690D02*
X139339376Y-126152071D01*
X139339376Y-126152071D02*
X139386995Y-126104452D01*
X139386995Y-126104452D02*
X139434614Y-126104452D01*
X139553662Y-126104452D02*
X139672710Y-126771119D01*
X139672710Y-126771119D02*
X139791757Y-126104452D01*
X140172709Y-126723500D02*
X140125090Y-126771119D01*
X140125090Y-126771119D02*
X140029852Y-126771119D01*
X140029852Y-126771119D02*
X139982233Y-126723500D01*
X139982233Y-126723500D02*
X139958424Y-126628261D01*
X139958424Y-126628261D02*
X139958424Y-126247309D01*
X139958424Y-126247309D02*
X139982233Y-126152071D01*
X139982233Y-126152071D02*
X140029852Y-126104452D01*
X140029852Y-126104452D02*
X140125090Y-126104452D01*
X140125090Y-126104452D02*
X140172709Y-126152071D01*
X140172709Y-126152071D02*
X140196519Y-126247309D01*
X140196519Y-126247309D02*
X140196519Y-126342547D01*
X140196519Y-126342547D02*
X139958424Y-126437785D01*
X140625090Y-126771119D02*
X140625090Y-125771119D01*
X140625090Y-126723500D02*
X140577471Y-126771119D01*
X140577471Y-126771119D02*
X140482233Y-126771119D01*
X140482233Y-126771119D02*
X140434614Y-126723500D01*
X140434614Y-126723500D02*
X140410804Y-126675880D01*
X140410804Y-126675880D02*
X140386995Y-126580642D01*
X140386995Y-126580642D02*
X140386995Y-126294928D01*
X140386995Y-126294928D02*
X140410804Y-126199690D01*
X140410804Y-126199690D02*
X140434614Y-126152071D01*
X140434614Y-126152071D02*
X140482233Y-126104452D01*
X140482233Y-126104452D02*
X140577471Y-126104452D01*
X140577471Y-126104452D02*
X140625090Y-126152071D01*
X146901283Y-124271119D02*
X146901283Y-123271119D01*
X146901283Y-123747309D02*
X147186997Y-123747309D01*
X147186997Y-124271119D02*
X147186997Y-123271119D01*
X147425093Y-124271119D02*
X147425093Y-123271119D01*
X147925093Y-123318738D02*
X147877474Y-123271119D01*
X147877474Y-123271119D02*
X147806045Y-123271119D01*
X147806045Y-123271119D02*
X147734617Y-123318738D01*
X147734617Y-123318738D02*
X147686998Y-123413976D01*
X147686998Y-123413976D02*
X147663188Y-123509214D01*
X147663188Y-123509214D02*
X147639379Y-123699690D01*
X147639379Y-123699690D02*
X147639379Y-123842547D01*
X147639379Y-123842547D02*
X147663188Y-124033023D01*
X147663188Y-124033023D02*
X147686998Y-124128261D01*
X147686998Y-124128261D02*
X147734617Y-124223500D01*
X147734617Y-124223500D02*
X147806045Y-124271119D01*
X147806045Y-124271119D02*
X147853664Y-124271119D01*
X147853664Y-124271119D02*
X147925093Y-124223500D01*
X147925093Y-124223500D02*
X147948902Y-124175880D01*
X147948902Y-124175880D02*
X147948902Y-123842547D01*
X147948902Y-123842547D02*
X147853664Y-123842547D01*
X148163188Y-124271119D02*
X148163188Y-123271119D01*
X148163188Y-123747309D02*
X148448902Y-123747309D01*
X148448902Y-124271119D02*
X148448902Y-123271119D01*
X148996522Y-123271119D02*
X149163188Y-124271119D01*
X149163188Y-124271119D02*
X149329855Y-123271119D01*
X149591759Y-123271119D02*
X149686997Y-123271119D01*
X149686997Y-123271119D02*
X149734616Y-123318738D01*
X149734616Y-123318738D02*
X149782235Y-123413976D01*
X149782235Y-123413976D02*
X149806045Y-123604452D01*
X149806045Y-123604452D02*
X149806045Y-123937785D01*
X149806045Y-123937785D02*
X149782235Y-124128261D01*
X149782235Y-124128261D02*
X149734616Y-124223500D01*
X149734616Y-124223500D02*
X149686997Y-124271119D01*
X149686997Y-124271119D02*
X149591759Y-124271119D01*
X149591759Y-124271119D02*
X149544140Y-124223500D01*
X149544140Y-124223500D02*
X149496521Y-124128261D01*
X149496521Y-124128261D02*
X149472712Y-123937785D01*
X149472712Y-123937785D02*
X149472712Y-123604452D01*
X149472712Y-123604452D02*
X149496521Y-123413976D01*
X149496521Y-123413976D02*
X149544140Y-123318738D01*
X149544140Y-123318738D02*
X149591759Y-123271119D01*
X150258426Y-124271119D02*
X150020331Y-124271119D01*
X150020331Y-124271119D02*
X150020331Y-123271119D01*
X150353665Y-123271119D02*
X150639379Y-123271119D01*
X150496522Y-124271119D02*
X150496522Y-123271119D01*
X150782236Y-123985404D02*
X151020331Y-123985404D01*
X150734617Y-124271119D02*
X150901283Y-123271119D01*
X150901283Y-123271119D02*
X151067950Y-124271119D01*
X151496521Y-123318738D02*
X151448902Y-123271119D01*
X151448902Y-123271119D02*
X151377473Y-123271119D01*
X151377473Y-123271119D02*
X151306045Y-123318738D01*
X151306045Y-123318738D02*
X151258426Y-123413976D01*
X151258426Y-123413976D02*
X151234616Y-123509214D01*
X151234616Y-123509214D02*
X151210807Y-123699690D01*
X151210807Y-123699690D02*
X151210807Y-123842547D01*
X151210807Y-123842547D02*
X151234616Y-124033023D01*
X151234616Y-124033023D02*
X151258426Y-124128261D01*
X151258426Y-124128261D02*
X151306045Y-124223500D01*
X151306045Y-124223500D02*
X151377473Y-124271119D01*
X151377473Y-124271119D02*
X151425092Y-124271119D01*
X151425092Y-124271119D02*
X151496521Y-124223500D01*
X151496521Y-124223500D02*
X151520330Y-124175880D01*
X151520330Y-124175880D02*
X151520330Y-123842547D01*
X151520330Y-123842547D02*
X151425092Y-123842547D01*
X151734616Y-123747309D02*
X151901283Y-123747309D01*
X151972711Y-124271119D02*
X151734616Y-124271119D01*
X151734616Y-124271119D02*
X151734616Y-123271119D01*
X151734616Y-123271119D02*
X151972711Y-123271119D01*
X152567949Y-123890166D02*
X152948902Y-123890166D01*
X153567949Y-124271119D02*
X153567949Y-123271119D01*
X153567949Y-123271119D02*
X153686997Y-123271119D01*
X153686997Y-123271119D02*
X153758425Y-123318738D01*
X153758425Y-123318738D02*
X153806044Y-123413976D01*
X153806044Y-123413976D02*
X153829854Y-123509214D01*
X153829854Y-123509214D02*
X153853663Y-123699690D01*
X153853663Y-123699690D02*
X153853663Y-123842547D01*
X153853663Y-123842547D02*
X153829854Y-124033023D01*
X153829854Y-124033023D02*
X153806044Y-124128261D01*
X153806044Y-124128261D02*
X153758425Y-124223500D01*
X153758425Y-124223500D02*
X153686997Y-124271119D01*
X153686997Y-124271119D02*
X153567949Y-124271119D01*
X154163187Y-123271119D02*
X154258425Y-123271119D01*
X154258425Y-123271119D02*
X154306044Y-123318738D01*
X154306044Y-123318738D02*
X154353663Y-123413976D01*
X154353663Y-123413976D02*
X154377473Y-123604452D01*
X154377473Y-123604452D02*
X154377473Y-123937785D01*
X154377473Y-123937785D02*
X154353663Y-124128261D01*
X154353663Y-124128261D02*
X154306044Y-124223500D01*
X154306044Y-124223500D02*
X154258425Y-124271119D01*
X154258425Y-124271119D02*
X154163187Y-124271119D01*
X154163187Y-124271119D02*
X154115568Y-124223500D01*
X154115568Y-124223500D02*
X154067949Y-124128261D01*
X154067949Y-124128261D02*
X154044140Y-123937785D01*
X154044140Y-123937785D02*
X154044140Y-123604452D01*
X154044140Y-123604452D02*
X154067949Y-123413976D01*
X154067949Y-123413976D02*
X154115568Y-123318738D01*
X154115568Y-123318738D02*
X154163187Y-123271119D01*
X154972711Y-124271119D02*
X154972711Y-123271119D01*
X154972711Y-123271119D02*
X155258425Y-124271119D01*
X155258425Y-124271119D02*
X155258425Y-123271119D01*
X155591759Y-123271119D02*
X155686997Y-123271119D01*
X155686997Y-123271119D02*
X155734616Y-123318738D01*
X155734616Y-123318738D02*
X155782235Y-123413976D01*
X155782235Y-123413976D02*
X155806045Y-123604452D01*
X155806045Y-123604452D02*
X155806045Y-123937785D01*
X155806045Y-123937785D02*
X155782235Y-124128261D01*
X155782235Y-124128261D02*
X155734616Y-124223500D01*
X155734616Y-124223500D02*
X155686997Y-124271119D01*
X155686997Y-124271119D02*
X155591759Y-124271119D01*
X155591759Y-124271119D02*
X155544140Y-124223500D01*
X155544140Y-124223500D02*
X155496521Y-124128261D01*
X155496521Y-124128261D02*
X155472712Y-123937785D01*
X155472712Y-123937785D02*
X155472712Y-123604452D01*
X155472712Y-123604452D02*
X155496521Y-123413976D01*
X155496521Y-123413976D02*
X155544140Y-123318738D01*
X155544140Y-123318738D02*
X155591759Y-123271119D01*
X155948903Y-123271119D02*
X156234617Y-123271119D01*
X156091760Y-124271119D02*
X156091760Y-123271119D01*
X156710807Y-123271119D02*
X156996521Y-123271119D01*
X156853664Y-124271119D02*
X156853664Y-123271119D01*
X157258425Y-123271119D02*
X157353663Y-123271119D01*
X157353663Y-123271119D02*
X157401282Y-123318738D01*
X157401282Y-123318738D02*
X157448901Y-123413976D01*
X157448901Y-123413976D02*
X157472711Y-123604452D01*
X157472711Y-123604452D02*
X157472711Y-123937785D01*
X157472711Y-123937785D02*
X157448901Y-124128261D01*
X157448901Y-124128261D02*
X157401282Y-124223500D01*
X157401282Y-124223500D02*
X157353663Y-124271119D01*
X157353663Y-124271119D02*
X157258425Y-124271119D01*
X157258425Y-124271119D02*
X157210806Y-124223500D01*
X157210806Y-124223500D02*
X157163187Y-124128261D01*
X157163187Y-124128261D02*
X157139378Y-123937785D01*
X157139378Y-123937785D02*
X157139378Y-123604452D01*
X157139378Y-123604452D02*
X157163187Y-123413976D01*
X157163187Y-123413976D02*
X157210806Y-123318738D01*
X157210806Y-123318738D02*
X157258425Y-123271119D01*
X157686997Y-123271119D02*
X157686997Y-124080642D01*
X157686997Y-124080642D02*
X157710807Y-124175880D01*
X157710807Y-124175880D02*
X157734616Y-124223500D01*
X157734616Y-124223500D02*
X157782235Y-124271119D01*
X157782235Y-124271119D02*
X157877473Y-124271119D01*
X157877473Y-124271119D02*
X157925092Y-124223500D01*
X157925092Y-124223500D02*
X157948902Y-124175880D01*
X157948902Y-124175880D02*
X157972711Y-124080642D01*
X157972711Y-124080642D02*
X157972711Y-123271119D01*
X158496521Y-124175880D02*
X158472712Y-124223500D01*
X158472712Y-124223500D02*
X158401283Y-124271119D01*
X158401283Y-124271119D02*
X158353664Y-124271119D01*
X158353664Y-124271119D02*
X158282236Y-124223500D01*
X158282236Y-124223500D02*
X158234617Y-124128261D01*
X158234617Y-124128261D02*
X158210807Y-124033023D01*
X158210807Y-124033023D02*
X158186998Y-123842547D01*
X158186998Y-123842547D02*
X158186998Y-123699690D01*
X158186998Y-123699690D02*
X158210807Y-123509214D01*
X158210807Y-123509214D02*
X158234617Y-123413976D01*
X158234617Y-123413976D02*
X158282236Y-123318738D01*
X158282236Y-123318738D02*
X158353664Y-123271119D01*
X158353664Y-123271119D02*
X158401283Y-123271119D01*
X158401283Y-123271119D02*
X158472712Y-123318738D01*
X158472712Y-123318738D02*
X158496521Y-123366357D01*
X158710807Y-124271119D02*
X158710807Y-123271119D01*
X158710807Y-123747309D02*
X158996521Y-123747309D01*
X158996521Y-124271119D02*
X158996521Y-123271119D01*
D11*
X148078758Y-126764619D02*
X147602568Y-126764619D01*
X147602568Y-126764619D02*
X147602568Y-125764619D01*
X154202568Y-126764619D02*
X154202568Y-125764619D01*
X154202568Y-125764619D02*
X154773996Y-126764619D01*
X154773996Y-126764619D02*
X154773996Y-125764619D01*
D10*
X132104404Y-115696521D02*
X132104404Y-115220331D01*
X132104404Y-115220331D02*
X132904404Y-115220331D01*
X132904404Y-116077474D02*
X132752023Y-115982236D01*
X132904404Y-116553664D02*
X132752023Y-116458426D01*
X132104404Y-118220330D02*
X132104404Y-117744140D01*
X132104404Y-117744140D02*
X132904404Y-117744140D01*
X132904404Y-118601283D02*
X132752023Y-118506045D01*
D12*
X160346741Y-110772419D02*
X160061027Y-110772419D01*
X160203884Y-110772419D02*
X160203884Y-109772419D01*
X160203884Y-109772419D02*
X160156265Y-109915276D01*
X160156265Y-109915276D02*
X160108646Y-110010514D01*
X160108646Y-110010514D02*
X160061027Y-110058133D01*
X160656264Y-109772419D02*
X160703883Y-109772419D01*
X160703883Y-109772419D02*
X160751502Y-109820038D01*
X160751502Y-109820038D02*
X160775312Y-109867657D01*
X160775312Y-109867657D02*
X160799121Y-109962895D01*
X160799121Y-109962895D02*
X160822931Y-110153371D01*
X160822931Y-110153371D02*
X160822931Y-110391466D01*
X160822931Y-110391466D02*
X160799121Y-110581942D01*
X160799121Y-110581942D02*
X160775312Y-110677180D01*
X160775312Y-110677180D02*
X160751502Y-110724800D01*
X160751502Y-110724800D02*
X160703883Y-110772419D01*
X160703883Y-110772419D02*
X160656264Y-110772419D01*
X160656264Y-110772419D02*
X160608645Y-110724800D01*
X160608645Y-110724800D02*
X160584836Y-110677180D01*
X160584836Y-110677180D02*
X160561026Y-110581942D01*
X160561026Y-110581942D02*
X160537217Y-110391466D01*
X160537217Y-110391466D02*
X160537217Y-110153371D01*
X160537217Y-110153371D02*
X160561026Y-109962895D01*
X160561026Y-109962895D02*
X160584836Y-109867657D01*
X160584836Y-109867657D02*
X160608645Y-109820038D01*
X160608645Y-109820038D02*
X160656264Y-109772419D01*
X161132454Y-109772419D02*
X161180073Y-109772419D01*
X161180073Y-109772419D02*
X161227692Y-109820038D01*
X161227692Y-109820038D02*
X161251502Y-109867657D01*
X161251502Y-109867657D02*
X161275311Y-109962895D01*
X161275311Y-109962895D02*
X161299121Y-110153371D01*
X161299121Y-110153371D02*
X161299121Y-110391466D01*
X161299121Y-110391466D02*
X161275311Y-110581942D01*
X161275311Y-110581942D02*
X161251502Y-110677180D01*
X161251502Y-110677180D02*
X161227692Y-110724800D01*
X161227692Y-110724800D02*
X161180073Y-110772419D01*
X161180073Y-110772419D02*
X161132454Y-110772419D01*
X161132454Y-110772419D02*
X161084835Y-110724800D01*
X161084835Y-110724800D02*
X161061026Y-110677180D01*
X161061026Y-110677180D02*
X161037216Y-110581942D01*
X161037216Y-110581942D02*
X161013407Y-110391466D01*
X161013407Y-110391466D02*
X161013407Y-110153371D01*
X161013407Y-110153371D02*
X161037216Y-109962895D01*
X161037216Y-109962895D02*
X161061026Y-109867657D01*
X161061026Y-109867657D02*
X161084835Y-109820038D01*
X161084835Y-109820038D02*
X161132454Y-109772419D01*
X161727692Y-110105752D02*
X161727692Y-110772419D01*
X161513406Y-110105752D02*
X161513406Y-110629561D01*
X161513406Y-110629561D02*
X161537216Y-110724800D01*
X161537216Y-110724800D02*
X161584835Y-110772419D01*
X161584835Y-110772419D02*
X161656263Y-110772419D01*
X161656263Y-110772419D02*
X161703882Y-110724800D01*
X161703882Y-110724800D02*
X161727692Y-110677180D01*
X162132454Y-110248609D02*
X161965787Y-110248609D01*
X161965787Y-110772419D02*
X161965787Y-109772419D01*
X161965787Y-109772419D02*
X162203882Y-109772419D01*
D10*
X163639378Y-102271119D02*
X163401283Y-102271119D01*
X163401283Y-102271119D02*
X163377474Y-102747309D01*
X163377474Y-102747309D02*
X163401283Y-102699690D01*
X163401283Y-102699690D02*
X163448902Y-102652071D01*
X163448902Y-102652071D02*
X163567950Y-102652071D01*
X163567950Y-102652071D02*
X163615569Y-102699690D01*
X163615569Y-102699690D02*
X163639378Y-102747309D01*
X163639378Y-102747309D02*
X163663188Y-102842547D01*
X163663188Y-102842547D02*
X163663188Y-103080642D01*
X163663188Y-103080642D02*
X163639378Y-103175880D01*
X163639378Y-103175880D02*
X163615569Y-103223500D01*
X163615569Y-103223500D02*
X163567950Y-103271119D01*
X163567950Y-103271119D02*
X163448902Y-103271119D01*
X163448902Y-103271119D02*
X163401283Y-103223500D01*
X163401283Y-103223500D02*
X163377474Y-103175880D01*
X163806045Y-102271119D02*
X163972711Y-103271119D01*
X163972711Y-103271119D02*
X164139378Y-102271119D01*
X159589378Y-95395595D02*
X160053664Y-95395595D01*
X160053664Y-95395595D02*
X159803664Y-95700357D01*
X159803664Y-95700357D02*
X159910807Y-95700357D01*
X159910807Y-95700357D02*
X159982236Y-95738452D01*
X159982236Y-95738452D02*
X160017950Y-95776547D01*
X160017950Y-95776547D02*
X160053664Y-95852738D01*
X160053664Y-95852738D02*
X160053664Y-96043214D01*
X160053664Y-96043214D02*
X160017950Y-96119404D01*
X160017950Y-96119404D02*
X159982236Y-96157500D01*
X159982236Y-96157500D02*
X159910807Y-96195595D01*
X159910807Y-96195595D02*
X159696521Y-96195595D01*
X159696521Y-96195595D02*
X159625093Y-96157500D01*
X159625093Y-96157500D02*
X159589378Y-96119404D01*
X160267950Y-95395595D02*
X160517950Y-96195595D01*
X160517950Y-96195595D02*
X160767950Y-95395595D01*
X160946521Y-95395595D02*
X161410807Y-95395595D01*
X161410807Y-95395595D02*
X161160807Y-95700357D01*
X161160807Y-95700357D02*
X161267950Y-95700357D01*
X161267950Y-95700357D02*
X161339379Y-95738452D01*
X161339379Y-95738452D02*
X161375093Y-95776547D01*
X161375093Y-95776547D02*
X161410807Y-95852738D01*
X161410807Y-95852738D02*
X161410807Y-96043214D01*
X161410807Y-96043214D02*
X161375093Y-96119404D01*
X161375093Y-96119404D02*
X161339379Y-96157500D01*
X161339379Y-96157500D02*
X161267950Y-96195595D01*
X161267950Y-96195595D02*
X161053664Y-96195595D01*
X161053664Y-96195595D02*
X160982236Y-96157500D01*
X160982236Y-96157500D02*
X160946521Y-96119404D01*
X162660808Y-95395595D02*
X162303665Y-95395595D01*
X162303665Y-95395595D02*
X162267951Y-95776547D01*
X162267951Y-95776547D02*
X162303665Y-95738452D01*
X162303665Y-95738452D02*
X162375094Y-95700357D01*
X162375094Y-95700357D02*
X162553665Y-95700357D01*
X162553665Y-95700357D02*
X162625094Y-95738452D01*
X162625094Y-95738452D02*
X162660808Y-95776547D01*
X162660808Y-95776547D02*
X162696522Y-95852738D01*
X162696522Y-95852738D02*
X162696522Y-96043214D01*
X162696522Y-96043214D02*
X162660808Y-96119404D01*
X162660808Y-96119404D02*
X162625094Y-96157500D01*
X162625094Y-96157500D02*
X162553665Y-96195595D01*
X162553665Y-96195595D02*
X162375094Y-96195595D01*
X162375094Y-96195595D02*
X162303665Y-96157500D01*
X162303665Y-96157500D02*
X162267951Y-96119404D01*
X162910808Y-95395595D02*
X163160808Y-96195595D01*
X163160808Y-96195595D02*
X163410808Y-95395595D01*
X164625094Y-95433690D02*
X164553666Y-95395595D01*
X164553666Y-95395595D02*
X164446523Y-95395595D01*
X164446523Y-95395595D02*
X164339380Y-95433690D01*
X164339380Y-95433690D02*
X164267951Y-95509880D01*
X164267951Y-95509880D02*
X164232237Y-95586071D01*
X164232237Y-95586071D02*
X164196523Y-95738452D01*
X164196523Y-95738452D02*
X164196523Y-95852738D01*
X164196523Y-95852738D02*
X164232237Y-96005119D01*
X164232237Y-96005119D02*
X164267951Y-96081309D01*
X164267951Y-96081309D02*
X164339380Y-96157500D01*
X164339380Y-96157500D02*
X164446523Y-96195595D01*
X164446523Y-96195595D02*
X164517951Y-96195595D01*
X164517951Y-96195595D02*
X164625094Y-96157500D01*
X164625094Y-96157500D02*
X164660808Y-96119404D01*
X164660808Y-96119404D02*
X164660808Y-95852738D01*
X164660808Y-95852738D02*
X164517951Y-95852738D01*
X164982237Y-96195595D02*
X164982237Y-95395595D01*
X164982237Y-95395595D02*
X165410808Y-96195595D01*
X165410808Y-96195595D02*
X165410808Y-95395595D01*
X165767951Y-96195595D02*
X165767951Y-95395595D01*
X165767951Y-95395595D02*
X165946522Y-95395595D01*
X165946522Y-95395595D02*
X166053665Y-95433690D01*
X166053665Y-95433690D02*
X166125094Y-95509880D01*
X166125094Y-95509880D02*
X166160808Y-95586071D01*
X166160808Y-95586071D02*
X166196522Y-95738452D01*
X166196522Y-95738452D02*
X166196522Y-95852738D01*
X166196522Y-95852738D02*
X166160808Y-96005119D01*
X166160808Y-96005119D02*
X166125094Y-96081309D01*
X166125094Y-96081309D02*
X166053665Y-96157500D01*
X166053665Y-96157500D02*
X165946522Y-96195595D01*
X165946522Y-96195595D02*
X165767951Y-96195595D01*
X166982237Y-95395595D02*
X167410809Y-95395595D01*
X167196523Y-96195595D02*
X167196523Y-95395595D01*
X168053666Y-96195595D02*
X167625095Y-96195595D01*
X167839380Y-96195595D02*
X167839380Y-95395595D01*
X167839380Y-95395595D02*
X167767952Y-95509880D01*
X167767952Y-95509880D02*
X167696523Y-95586071D01*
X167696523Y-95586071D02*
X167625095Y-95624166D01*
X168839381Y-95395595D02*
X169267953Y-95395595D01*
X169053667Y-96195595D02*
X169053667Y-95395595D01*
X169482239Y-95471785D02*
X169517953Y-95433690D01*
X169517953Y-95433690D02*
X169589382Y-95395595D01*
X169589382Y-95395595D02*
X169767953Y-95395595D01*
X169767953Y-95395595D02*
X169839382Y-95433690D01*
X169839382Y-95433690D02*
X169875096Y-95471785D01*
X169875096Y-95471785D02*
X169910810Y-95547976D01*
X169910810Y-95547976D02*
X169910810Y-95624166D01*
X169910810Y-95624166D02*
X169875096Y-95738452D01*
X169875096Y-95738452D02*
X169446524Y-96195595D01*
X169446524Y-96195595D02*
X169910810Y-96195595D01*
X132828214Y-103072712D02*
X132866309Y-103120331D01*
X132866309Y-103120331D02*
X132904404Y-103215569D01*
X132904404Y-103215569D02*
X132904404Y-103453664D01*
X132904404Y-103453664D02*
X132866309Y-103548902D01*
X132866309Y-103548902D02*
X132828214Y-103596521D01*
X132828214Y-103596521D02*
X132752023Y-103644140D01*
X132752023Y-103644140D02*
X132675833Y-103644140D01*
X132675833Y-103644140D02*
X132561547Y-103596521D01*
X132561547Y-103596521D02*
X132104404Y-103025093D01*
X132104404Y-103025093D02*
X132104404Y-103644140D01*
X132104404Y-103977474D02*
X132637738Y-104501283D01*
X132637738Y-103977474D02*
X132104404Y-104501283D01*
X132104404Y-104882236D02*
X132904404Y-104882236D01*
X132904404Y-104882236D02*
X132904404Y-105263188D01*
X132904404Y-105263188D02*
X132866309Y-105358426D01*
X132866309Y-105358426D02*
X132828214Y-105406045D01*
X132828214Y-105406045D02*
X132752023Y-105453664D01*
X132752023Y-105453664D02*
X132637738Y-105453664D01*
X132637738Y-105453664D02*
X132561547Y-105406045D01*
X132561547Y-105406045D02*
X132523452Y-105358426D01*
X132523452Y-105358426D02*
X132485357Y-105263188D01*
X132485357Y-105263188D02*
X132485357Y-104882236D01*
X132523452Y-105882236D02*
X132523452Y-106215569D01*
X132104404Y-106358426D02*
X132104404Y-105882236D01*
X132104404Y-105882236D02*
X132904404Y-105882236D01*
X132904404Y-105882236D02*
X132904404Y-106358426D01*
X167263188Y-102318738D02*
X167215569Y-102271119D01*
X167215569Y-102271119D02*
X167144140Y-102271119D01*
X167144140Y-102271119D02*
X167072712Y-102318738D01*
X167072712Y-102318738D02*
X167025093Y-102413976D01*
X167025093Y-102413976D02*
X167001283Y-102509214D01*
X167001283Y-102509214D02*
X166977474Y-102699690D01*
X166977474Y-102699690D02*
X166977474Y-102842547D01*
X166977474Y-102842547D02*
X167001283Y-103033023D01*
X167001283Y-103033023D02*
X167025093Y-103128261D01*
X167025093Y-103128261D02*
X167072712Y-103223500D01*
X167072712Y-103223500D02*
X167144140Y-103271119D01*
X167144140Y-103271119D02*
X167191759Y-103271119D01*
X167191759Y-103271119D02*
X167263188Y-103223500D01*
X167263188Y-103223500D02*
X167286997Y-103175880D01*
X167286997Y-103175880D02*
X167286997Y-102842547D01*
X167286997Y-102842547D02*
X167191759Y-102842547D01*
X167501283Y-103271119D02*
X167501283Y-102271119D01*
X167501283Y-102271119D02*
X167786997Y-103271119D01*
X167786997Y-103271119D02*
X167786997Y-102271119D01*
X168025093Y-103271119D02*
X168025093Y-102271119D01*
X168025093Y-102271119D02*
X168144141Y-102271119D01*
X168144141Y-102271119D02*
X168215569Y-102318738D01*
X168215569Y-102318738D02*
X168263188Y-102413976D01*
X168263188Y-102413976D02*
X168286998Y-102509214D01*
X168286998Y-102509214D02*
X168310807Y-102699690D01*
X168310807Y-102699690D02*
X168310807Y-102842547D01*
X168310807Y-102842547D02*
X168286998Y-103033023D01*
X168286998Y-103033023D02*
X168263188Y-103128261D01*
X168263188Y-103128261D02*
X168215569Y-103223500D01*
X168215569Y-103223500D02*
X168144141Y-103271119D01*
X168144141Y-103271119D02*
X168025093Y-103271119D01*
D13*
X171467219Y-121677945D02*
X170467219Y-121677945D01*
X170467219Y-121677945D02*
X171467219Y-121220802D01*
X171467219Y-121220802D02*
X170467219Y-121220802D01*
X171467219Y-115963658D02*
X170467219Y-115963658D01*
X170467219Y-115963658D02*
X171467219Y-115506515D01*
X171467219Y-115506515D02*
X170467219Y-115506515D01*
X170467219Y-115087468D02*
X170657695Y-115163659D01*
X171467219Y-110096991D02*
X171467219Y-110477943D01*
X171467219Y-110477943D02*
X170467219Y-110477943D01*
X171467219Y-109411277D02*
X171467219Y-109868420D01*
X171467219Y-109639848D02*
X170467219Y-109639848D01*
X170467219Y-109639848D02*
X170610076Y-109716039D01*
X170610076Y-109716039D02*
X170705314Y-109792229D01*
X170705314Y-109792229D02*
X170752933Y-109868420D01*
D14*
X155904761Y-91650057D02*
X155809523Y-91602438D01*
X155809523Y-91602438D02*
X155714285Y-91507200D01*
X155714285Y-91507200D02*
X155571428Y-91364342D01*
X155571428Y-91364342D02*
X155476190Y-91316723D01*
X155476190Y-91316723D02*
X155380952Y-91316723D01*
X155428571Y-91554819D02*
X155333333Y-91507200D01*
X155333333Y-91507200D02*
X155238095Y-91411961D01*
X155238095Y-91411961D02*
X155190476Y-91221485D01*
X155190476Y-91221485D02*
X155190476Y-90888152D01*
X155190476Y-90888152D02*
X155238095Y-90697676D01*
X155238095Y-90697676D02*
X155333333Y-90602438D01*
X155333333Y-90602438D02*
X155428571Y-90554819D01*
X155428571Y-90554819D02*
X155619047Y-90554819D01*
X155619047Y-90554819D02*
X155714285Y-90602438D01*
X155714285Y-90602438D02*
X155809523Y-90697676D01*
X155809523Y-90697676D02*
X155857142Y-90888152D01*
X155857142Y-90888152D02*
X155857142Y-91221485D01*
X155857142Y-91221485D02*
X155809523Y-91411961D01*
X155809523Y-91411961D02*
X155714285Y-91507200D01*
X155714285Y-91507200D02*
X155619047Y-91554819D01*
X155619047Y-91554819D02*
X155428571Y-91554819D01*
X156238095Y-90650057D02*
X156285714Y-90602438D01*
X156285714Y-90602438D02*
X156380952Y-90554819D01*
X156380952Y-90554819D02*
X156619047Y-90554819D01*
X156619047Y-90554819D02*
X156714285Y-90602438D01*
X156714285Y-90602438D02*
X156761904Y-90650057D01*
X156761904Y-90650057D02*
X156809523Y-90745295D01*
X156809523Y-90745295D02*
X156809523Y-90840533D01*
X156809523Y-90840533D02*
X156761904Y-90983390D01*
X156761904Y-90983390D02*
X156190476Y-91554819D01*
X156190476Y-91554819D02*
X156809523Y-91554819D01*
X146561905Y-98754819D02*
X146561905Y-97754819D01*
X146561905Y-97754819D02*
X146800000Y-97754819D01*
X146800000Y-97754819D02*
X146942857Y-97802438D01*
X146942857Y-97802438D02*
X147038095Y-97897676D01*
X147038095Y-97897676D02*
X147085714Y-97992914D01*
X147085714Y-97992914D02*
X147133333Y-98183390D01*
X147133333Y-98183390D02*
X147133333Y-98326247D01*
X147133333Y-98326247D02*
X147085714Y-98516723D01*
X147085714Y-98516723D02*
X147038095Y-98611961D01*
X147038095Y-98611961D02*
X146942857Y-98707200D01*
X146942857Y-98707200D02*
X146800000Y-98754819D01*
X146800000Y-98754819D02*
X146561905Y-98754819D01*
X148085714Y-98754819D02*
X147514286Y-98754819D01*
X147800000Y-98754819D02*
X147800000Y-97754819D01*
X147800000Y-97754819D02*
X147704762Y-97897676D01*
X147704762Y-97897676D02*
X147609524Y-97992914D01*
X147609524Y-97992914D02*
X147514286Y-98040533D01*
X160633333Y-109059580D02*
X160585714Y-109107200D01*
X160585714Y-109107200D02*
X160442857Y-109154819D01*
X160442857Y-109154819D02*
X160347619Y-109154819D01*
X160347619Y-109154819D02*
X160204762Y-109107200D01*
X160204762Y-109107200D02*
X160109524Y-109011961D01*
X160109524Y-109011961D02*
X160061905Y-108916723D01*
X160061905Y-108916723D02*
X160014286Y-108726247D01*
X160014286Y-108726247D02*
X160014286Y-108583390D01*
X160014286Y-108583390D02*
X160061905Y-108392914D01*
X160061905Y-108392914D02*
X160109524Y-108297676D01*
X160109524Y-108297676D02*
X160204762Y-108202438D01*
X160204762Y-108202438D02*
X160347619Y-108154819D01*
X160347619Y-108154819D02*
X160442857Y-108154819D01*
X160442857Y-108154819D02*
X160585714Y-108202438D01*
X160585714Y-108202438D02*
X160633333Y-108250057D01*
X161585714Y-109154819D02*
X161014286Y-109154819D01*
X161300000Y-109154819D02*
X161300000Y-108154819D01*
X161300000Y-108154819D02*
X161204762Y-108297676D01*
X161204762Y-108297676D02*
X161109524Y-108392914D01*
X161109524Y-108392914D02*
X161014286Y-108440533D01*
X154856401Y-98854819D02*
X154856401Y-97854819D01*
X154856401Y-97854819D02*
X155094496Y-97854819D01*
X155094496Y-97854819D02*
X155237353Y-97902438D01*
X155237353Y-97902438D02*
X155332591Y-97997676D01*
X155332591Y-97997676D02*
X155380210Y-98092914D01*
X155380210Y-98092914D02*
X155427829Y-98283390D01*
X155427829Y-98283390D02*
X155427829Y-98426247D01*
X155427829Y-98426247D02*
X155380210Y-98616723D01*
X155380210Y-98616723D02*
X155332591Y-98711961D01*
X155332591Y-98711961D02*
X155237353Y-98807200D01*
X155237353Y-98807200D02*
X155094496Y-98854819D01*
X155094496Y-98854819D02*
X154856401Y-98854819D01*
X155808782Y-97950057D02*
X155856401Y-97902438D01*
X155856401Y-97902438D02*
X155951639Y-97854819D01*
X155951639Y-97854819D02*
X156189734Y-97854819D01*
X156189734Y-97854819D02*
X156284972Y-97902438D01*
X156284972Y-97902438D02*
X156332591Y-97950057D01*
X156332591Y-97950057D02*
X156380210Y-98045295D01*
X156380210Y-98045295D02*
X156380210Y-98140533D01*
X156380210Y-98140533D02*
X156332591Y-98283390D01*
X156332591Y-98283390D02*
X155761163Y-98854819D01*
X155761163Y-98854819D02*
X156380210Y-98854819D01*
X132904761Y-96650057D02*
X132809523Y-96602438D01*
X132809523Y-96602438D02*
X132714285Y-96507200D01*
X132714285Y-96507200D02*
X132571428Y-96364342D01*
X132571428Y-96364342D02*
X132476190Y-96316723D01*
X132476190Y-96316723D02*
X132380952Y-96316723D01*
X132428571Y-96554819D02*
X132333333Y-96507200D01*
X132333333Y-96507200D02*
X132238095Y-96411961D01*
X132238095Y-96411961D02*
X132190476Y-96221485D01*
X132190476Y-96221485D02*
X132190476Y-95888152D01*
X132190476Y-95888152D02*
X132238095Y-95697676D01*
X132238095Y-95697676D02*
X132333333Y-95602438D01*
X132333333Y-95602438D02*
X132428571Y-95554819D01*
X132428571Y-95554819D02*
X132619047Y-95554819D01*
X132619047Y-95554819D02*
X132714285Y-95602438D01*
X132714285Y-95602438D02*
X132809523Y-95697676D01*
X132809523Y-95697676D02*
X132857142Y-95888152D01*
X132857142Y-95888152D02*
X132857142Y-96221485D01*
X132857142Y-96221485D02*
X132809523Y-96411961D01*
X132809523Y-96411961D02*
X132714285Y-96507200D01*
X132714285Y-96507200D02*
X132619047Y-96554819D01*
X132619047Y-96554819D02*
X132428571Y-96554819D01*
X133809523Y-96554819D02*
X133238095Y-96554819D01*
X133523809Y-96554819D02*
X133523809Y-95554819D01*
X133523809Y-95554819D02*
X133428571Y-95697676D01*
X133428571Y-95697676D02*
X133333333Y-95792914D01*
X133333333Y-95792914D02*
X133238095Y-95840533D01*
X147754819Y-107638094D02*
X146754819Y-107638094D01*
X147754819Y-107066666D02*
X147183390Y-107495237D01*
X146754819Y-107066666D02*
X147326247Y-107638094D01*
X147754819Y-106114285D02*
X147754819Y-106685713D01*
X147754819Y-106399999D02*
X146754819Y-106399999D01*
X146754819Y-106399999D02*
X146897676Y-106495237D01*
X146897676Y-106495237D02*
X146992914Y-106590475D01*
X146992914Y-106590475D02*
X147040533Y-106685713D01*
X156054819Y-108338094D02*
X155054819Y-108338094D01*
X156054819Y-107766666D02*
X155483390Y-108195237D01*
X155054819Y-107766666D02*
X155626247Y-108338094D01*
X155150057Y-107385713D02*
X155102438Y-107338094D01*
X155102438Y-107338094D02*
X155054819Y-107242856D01*
X155054819Y-107242856D02*
X155054819Y-107004761D01*
X155054819Y-107004761D02*
X155102438Y-106909523D01*
X155102438Y-106909523D02*
X155150057Y-106861904D01*
X155150057Y-106861904D02*
X155245295Y-106814285D01*
X155245295Y-106814285D02*
X155340533Y-106814285D01*
X155340533Y-106814285D02*
X155483390Y-106861904D01*
X155483390Y-106861904D02*
X156054819Y-107433332D01*
X156054819Y-107433332D02*
X156054819Y-106814285D01*
D15*
G04 #@! TO.C,Q2*
X144490000Y-90690000D02*
X154710000Y-90690000D01*
X144490000Y-92070000D02*
X154710000Y-92070000D01*
X144490000Y-95310000D02*
X144490000Y-90690000D01*
X147750000Y-90690000D02*
X147750000Y-92070000D01*
X151450000Y-90690000D02*
X151450000Y-92070000D01*
X154710000Y-90690000D02*
X154710000Y-95310000D01*
X154710000Y-95310000D02*
X144490000Y-95310000D01*
G04 #@! TO.C,J3*
X159040000Y-90490000D02*
X159040000Y-95210000D01*
X159040000Y-92600000D02*
X159650000Y-92600000D01*
X159040000Y-93900000D02*
X159650000Y-93900000D01*
X159040000Y-95210000D02*
X171160000Y-95210000D01*
X159650000Y-91100000D02*
X159650000Y-94600000D01*
X159650000Y-94600000D02*
X161600000Y-94600000D01*
X161600000Y-94600000D02*
X161600000Y-95210000D01*
X162000000Y-91600000D02*
X162000000Y-91100000D01*
X162100000Y-91100000D02*
X162100000Y-91600000D01*
X162200000Y-91100000D02*
X162200000Y-91600000D01*
X162200000Y-91600000D02*
X162000000Y-91600000D01*
X164000000Y-91600000D02*
X164000000Y-91100000D01*
X164100000Y-91100000D02*
X164100000Y-91600000D01*
X164200000Y-91100000D02*
X164200000Y-91600000D01*
X164200000Y-91600000D02*
X164000000Y-91600000D01*
X166000000Y-91600000D02*
X166000000Y-91100000D01*
X166100000Y-91100000D02*
X166100000Y-91600000D01*
X166200000Y-91100000D02*
X166200000Y-91600000D01*
X166200000Y-91600000D02*
X166000000Y-91600000D01*
X168000000Y-91600000D02*
X168000000Y-91100000D01*
X168100000Y-91100000D02*
X168100000Y-91600000D01*
X168200000Y-91100000D02*
X168200000Y-91600000D01*
X168200000Y-91600000D02*
X168000000Y-91600000D01*
X168600000Y-94600000D02*
X170550000Y-94600000D01*
X168600000Y-95210000D02*
X168600000Y-94600000D01*
X170550000Y-91100000D02*
X159650000Y-91100000D01*
X170550000Y-94600000D02*
X170550000Y-91100000D01*
X171160000Y-90490000D02*
X159040000Y-90490000D01*
X171160000Y-92600000D02*
X170550000Y-92600000D01*
X171160000Y-93900000D02*
X170550000Y-93900000D01*
X171160000Y-95210000D02*
X171160000Y-90490000D01*
G04 #@! TO.C,D1*
X149360000Y-99300000D02*
X145350000Y-99300000D01*
X149360000Y-101300000D02*
X145350000Y-101300000D01*
X149360000Y-101300000D02*
X149360000Y-99300000D01*
G04 #@! TO.C,C1*
X162162500Y-106552500D02*
X162950000Y-106552500D01*
X162556250Y-106158750D02*
X162556250Y-106946250D01*
X163190000Y-106054437D02*
X163190000Y-107340000D01*
X163190000Y-106054437D02*
X164254437Y-104990000D01*
X163190000Y-110745563D02*
X163190000Y-109460000D01*
X163190000Y-110745563D02*
X164254437Y-111810000D01*
X164254437Y-104990000D02*
X170010000Y-104990000D01*
X164254437Y-111810000D02*
X170010000Y-111810000D01*
X170010000Y-104990000D02*
X170010000Y-107340000D01*
X170010000Y-111810000D02*
X170010000Y-109460000D01*
G04 #@! TO.C,J1*
X133107500Y-111880000D02*
X143147500Y-111880000D01*
X133107500Y-114200000D02*
X133107500Y-111880000D01*
X133107500Y-122120000D02*
X133107500Y-114800000D01*
X133727500Y-111880000D02*
X133727500Y-122120000D01*
X135227500Y-111880000D02*
X135227500Y-122120000D01*
X140127500Y-111880000D02*
X140127500Y-122120000D01*
X143147500Y-111880000D02*
X143147500Y-122120000D01*
X143147500Y-122120000D02*
X133107500Y-122120000D01*
X133107500Y-114500000D02*
X132497500Y-114940000D01*
X132497500Y-114060000D01*
X133107500Y-114500000D01*
G36*
X133107500Y-114500000D02*
G01*
X132497500Y-114940000D01*
X132497500Y-114060000D01*
X133107500Y-114500000D01*
G37*
G04 #@! TO.C,D2*
X157860000Y-99300000D02*
X153850000Y-99300000D01*
X157860000Y-101300000D02*
X153850000Y-101300000D01*
X157860000Y-101300000D02*
X157860000Y-99300000D01*
G04 #@! TO.C,J5*
X133080000Y-99680000D02*
X143120000Y-99680000D01*
X133080000Y-102000000D02*
X133080000Y-99680000D01*
X133080000Y-109920000D02*
X133080000Y-102600000D01*
X133700000Y-99680000D02*
X133700000Y-109920000D01*
X135200000Y-99680000D02*
X135200000Y-109920000D01*
X140100000Y-99680000D02*
X140100000Y-109920000D01*
X143120000Y-99680000D02*
X143120000Y-109920000D01*
X143120000Y-109920000D02*
X133080000Y-109920000D01*
X133080000Y-102300000D02*
X132470000Y-102740000D01*
X132470000Y-101860000D01*
X133080000Y-102300000D01*
G36*
X133080000Y-102300000D02*
G01*
X132470000Y-102740000D01*
X132470000Y-101860000D01*
X133080000Y-102300000D01*
G37*
G04 #@! TO.C,Q1*
X133290000Y-90590000D02*
X143510000Y-90590000D01*
X133290000Y-91970000D02*
X143510000Y-91970000D01*
X133290000Y-95210000D02*
X133290000Y-90590000D01*
X136550000Y-90590000D02*
X136550000Y-91970000D01*
X140250000Y-90590000D02*
X140250000Y-91970000D01*
X143510000Y-90590000D02*
X143510000Y-95210000D01*
X143510000Y-95210000D02*
X133290000Y-95210000D01*
D16*
G04 #@! TO.C,K1*
X144000000Y-102000000D02*
X144000000Y-122500000D01*
X144000000Y-102000000D02*
X144005000Y-102000000D01*
X144000000Y-122500000D02*
X144005000Y-122500000D01*
X146295000Y-122500000D02*
X151000000Y-122500000D01*
X148705000Y-102000000D02*
X146295000Y-102000000D01*
X151000000Y-102000000D02*
X150995000Y-102000000D01*
X151000000Y-122500000D02*
X151000000Y-102000000D01*
D13*
X149950000Y-101225000D02*
G75*
G02*
X149750000Y-101225000I-100000J0D01*
G01*
X149750000Y-101225000D02*
G75*
G02*
X149950000Y-101225000I100000J0D01*
G01*
D15*
G04 #@! TO.C,J8*
X160180000Y-113680000D02*
X170220000Y-113680000D01*
X160180000Y-128920000D02*
X160180000Y-113680000D01*
X163200000Y-128920000D02*
X163200000Y-113680000D01*
X168100000Y-128920000D02*
X168100000Y-113680000D01*
X169600000Y-128920000D02*
X169600000Y-113680000D01*
X170220000Y-113680000D02*
X170220000Y-126000000D01*
X170220000Y-126600000D02*
X170220000Y-128920000D01*
X170220000Y-128920000D02*
X160180000Y-128920000D01*
X170830000Y-126740000D02*
X170220000Y-126300000D01*
X170830000Y-125860000D01*
X170830000Y-126740000D01*
G36*
X170830000Y-126740000D02*
G01*
X170220000Y-126300000D01*
X170830000Y-125860000D01*
X170830000Y-126740000D01*
G37*
D16*
G04 #@! TO.C,K2*
X152300000Y-102000000D02*
X152300000Y-122500000D01*
X152300000Y-102000000D02*
X152305000Y-102000000D01*
X152300000Y-122500000D02*
X152305000Y-122500000D01*
X154595000Y-122500000D02*
X159300000Y-122500000D01*
X157005000Y-102000000D02*
X154595000Y-102000000D01*
X159300000Y-102000000D02*
X159295000Y-102000000D01*
X159300000Y-122500000D02*
X159300000Y-102000000D01*
D13*
X158250000Y-101225000D02*
G75*
G02*
X158050000Y-101225000I-100000J0D01*
G01*
X158050000Y-101225000D02*
G75*
G02*
X158250000Y-101225000I100000J0D01*
G01*
G04 #@! TD*
%LPC*%
D17*
G04 #@! TO.C,J4*
X157200000Y-126300000D03*
G04 #@! TD*
G04 #@! TO.C,J7*
X161700000Y-102800000D03*
G04 #@! TD*
G04 #@! TO.C,J6*
X169800000Y-102700000D03*
G04 #@! TD*
D18*
G04 #@! TO.C,Q2*
X147060000Y-93950000D03*
D19*
X149600000Y-93950000D03*
X152140000Y-93950000D03*
G04 #@! TD*
D17*
G04 #@! TO.C,J2*
X145100000Y-126300000D03*
G04 #@! TD*
D20*
G04 #@! TO.C,J3*
X169100000Y-93400000D03*
D21*
X167100000Y-93400000D03*
X165100000Y-93400000D03*
X163100000Y-93400000D03*
X161100000Y-93400000D03*
G04 #@! TD*
D22*
G04 #@! TO.C,D1*
X148650000Y-100300000D03*
X145350000Y-100300000D03*
G04 #@! TD*
D23*
G04 #@! TO.C,C1*
X163900000Y-108400000D03*
X169300000Y-108400000D03*
G04 #@! TD*
D24*
G04 #@! TO.C,J1*
X137827500Y-114500000D03*
D25*
X137827500Y-119500000D03*
G04 #@! TD*
D22*
G04 #@! TO.C,D2*
X157150000Y-100300000D03*
X153850000Y-100300000D03*
G04 #@! TD*
D24*
G04 #@! TO.C,J5*
X137800000Y-102300000D03*
D25*
X137800000Y-107300000D03*
G04 #@! TD*
D18*
G04 #@! TO.C,Q1*
X135860000Y-93850000D03*
D19*
X138400000Y-93850000D03*
X140940000Y-93850000D03*
G04 #@! TD*
D26*
G04 #@! TO.C,K1*
X149850000Y-103050000D03*
D27*
X145150000Y-103050000D03*
X145150000Y-114550000D03*
X145150000Y-121550000D03*
G04 #@! TD*
D28*
G04 #@! TO.C,J8*
X165500000Y-126300000D03*
D25*
X165500000Y-121300000D03*
X165500000Y-116300000D03*
G04 #@! TD*
D26*
G04 #@! TO.C,K2*
X158150000Y-103050000D03*
D27*
X153450000Y-103050000D03*
X153450000Y-114550000D03*
X153450000Y-121550000D03*
G04 #@! TD*
%LPD*%
M02*
