G04 #@! TF.GenerationSoftware,KiCad,Pcbnew,9.0.5*
G04 #@! TF.CreationDate,2025-11-30T17:43:59+01:00*
G04 #@! TF.ProjectId,Leistungskreis,4c656973-7475-46e6-9773-6b726569732e,rev?*
G04 #@! TF.SameCoordinates,Original*
G04 #@! TF.FileFunction,Soldermask,Bot*
G04 #@! TF.FilePolarity,Negative*
%FSLAX46Y46*%
G04 Gerber Fmt 4.6, Leading zero omitted, Abs format (unit mm)*
G04 Created by KiCad (PCBNEW 9.0.5) date 2025-11-30 17:43:59*
%MOMM*%
%LPD*%
G01*
G04 APERTURE LIST*
G04 Aperture macros list*
%AMRoundRect*
0 Rectangle with rounded corners*
0 $1 Rounding radius*
0 $2 $3 $4 $5 $6 $7 $8 $9 X,Y pos of 4 corners*
0 Add a 4 corners polygon primitive as box body*
4,1,4,$2,$3,$4,$5,$6,$7,$8,$9,$2,$3,0*
0 Add four circle primitives for the rounded corners*
1,1,$1+$1,$2,$3*
1,1,$1+$1,$4,$5*
1,1,$1+$1,$6,$7*
1,1,$1+$1,$8,$9*
0 Add four rect primitives between the rounded corners*
20,1,$1+$1,$2,$3,$4,$5,0*
20,1,$1+$1,$4,$5,$6,$7,0*
20,1,$1+$1,$6,$7,$8,$9,0*
20,1,$1+$1,$8,$9,$2,$3,0*%
G04 Aperture macros list end*
%ADD10RoundRect,0.250000X-1.050000X-1.050000X1.050000X-1.050000X1.050000X1.050000X-1.050000X1.050000X0*%
%ADD11R,1.905000X2.000000*%
%ADD12O,1.905000X2.000000*%
%ADD13RoundRect,0.250000X0.350000X0.625000X-0.350000X0.625000X-0.350000X-0.625000X0.350000X-0.625000X0*%
%ADD14O,1.200000X1.750000*%
%ADD15RoundRect,0.250000X-1.050000X1.050000X-1.050000X-1.050000X1.050000X-1.050000X1.050000X1.050000X0*%
%ADD16C,2.600000*%
%ADD17RoundRect,0.102000X-0.825000X0.825000X-0.825000X-0.825000X0.825000X-0.825000X0.825000X0.825000X0*%
%ADD18C,1.854000*%
%ADD19RoundRect,0.250000X1.050000X-1.050000X1.050000X1.050000X-1.050000X1.050000X-1.050000X-1.050000X0*%
%ADD20RoundRect,0.250000X0.450000X-0.350000X0.450000X0.350000X-0.450000X0.350000X-0.450000X-0.350000X0*%
%ADD21RoundRect,0.250000X-0.450000X0.350000X-0.450000X-0.350000X0.450000X-0.350000X0.450000X0.350000X0*%
%ADD22RoundRect,0.250000X-0.337500X-0.475000X0.337500X-0.475000X0.337500X0.475000X-0.337500X0.475000X0*%
%ADD23RoundRect,0.150000X0.662500X0.150000X-0.662500X0.150000X-0.662500X-0.150000X0.662500X-0.150000X0*%
%ADD24RoundRect,0.150000X-0.662500X-0.150000X0.662500X-0.150000X0.662500X0.150000X-0.662500X0.150000X0*%
G04 APERTURE END LIST*
D10*
G04 #@! TO.C,J4*
X157200000Y-126300000D03*
G04 #@! TD*
G04 #@! TO.C,J7*
X161700000Y-102800000D03*
G04 #@! TD*
G04 #@! TO.C,J6*
X169800000Y-102700000D03*
G04 #@! TD*
D11*
G04 #@! TO.C,Q2*
X147060000Y-93950000D03*
D12*
X149600000Y-93950000D03*
X152140000Y-93950000D03*
G04 #@! TD*
D10*
G04 #@! TO.C,J2*
X145100000Y-126300000D03*
G04 #@! TD*
D13*
G04 #@! TO.C,J3*
X169100000Y-93400000D03*
D14*
X167100000Y-93400000D03*
X165100000Y-93400000D03*
X163100000Y-93400000D03*
X161100000Y-93400000D03*
G04 #@! TD*
D15*
G04 #@! TO.C,J1*
X137827500Y-114500000D03*
D16*
X137827500Y-119500000D03*
G04 #@! TD*
D15*
G04 #@! TO.C,J5*
X137800000Y-102300000D03*
D16*
X137800000Y-107300000D03*
G04 #@! TD*
D11*
G04 #@! TO.C,Q1*
X135860000Y-93850000D03*
D12*
X138400000Y-93850000D03*
X140940000Y-93850000D03*
G04 #@! TD*
D17*
G04 #@! TO.C,K1*
X149850000Y-103050000D03*
D18*
X145150000Y-103050000D03*
X145150000Y-114550000D03*
X145150000Y-121550000D03*
G04 #@! TD*
D19*
G04 #@! TO.C,J8*
X165500000Y-126300000D03*
D16*
X165500000Y-121300000D03*
X165500000Y-116300000D03*
G04 #@! TD*
D17*
G04 #@! TO.C,K2*
X158150000Y-103050000D03*
D18*
X153450000Y-103050000D03*
X153450000Y-114550000D03*
X153450000Y-121550000D03*
G04 #@! TD*
D20*
G04 #@! TO.C,R2*
X135900000Y-98100000D03*
X135900000Y-96100000D03*
G04 #@! TD*
D21*
G04 #@! TO.C,R1*
X169800000Y-96500000D03*
X169800000Y-98500000D03*
G04 #@! TD*
D22*
G04 #@! TO.C,C2*
X165525000Y-106200000D03*
X167600000Y-106200000D03*
G04 #@! TD*
D20*
G04 #@! TO.C,R4*
X149100000Y-98200000D03*
X149100000Y-96200000D03*
G04 #@! TD*
D23*
G04 #@! TO.C,U2*
X144687500Y-96365000D03*
X144687500Y-97635000D03*
X138312500Y-97635000D03*
X138312500Y-96365000D03*
G04 #@! TD*
D24*
G04 #@! TO.C,U1*
X154425000Y-97870000D03*
X154425000Y-96600000D03*
X160800000Y-96600000D03*
X160800000Y-97870000D03*
G04 #@! TD*
D21*
G04 #@! TO.C,R3*
X167200000Y-96600000D03*
X167200000Y-98600000D03*
G04 #@! TD*
M02*
