G04 #@! TF.GenerationSoftware,KiCad,Pcbnew,9.0.5*
G04 #@! TF.CreationDate,2025-11-30T17:43:59+01:00*
G04 #@! TF.ProjectId,Leistungskreis,4c656973-7475-46e6-9773-6b726569732e,rev?*
G04 #@! TF.SameCoordinates,Original*
G04 #@! TF.FileFunction,Copper,L2,Bot*
G04 #@! TF.FilePolarity,Positive*
%FSLAX46Y46*%
G04 Gerber Fmt 4.6, Leading zero omitted, Abs format (unit mm)*
G04 Created by KiCad (PCBNEW 9.0.5) date 2025-11-30 17:43:59*
%MOMM*%
%LPD*%
G01*
G04 APERTURE LIST*
G04 Aperture macros list*
%AMRoundRect*
0 Rectangle with rounded corners*
0 $1 Rounding radius*
0 $2 $3 $4 $5 $6 $7 $8 $9 X,Y pos of 4 corners*
0 Add a 4 corners polygon primitive as box body*
4,1,4,$2,$3,$4,$5,$6,$7,$8,$9,$2,$3,0*
0 Add four circle primitives for the rounded corners*
1,1,$1+$1,$2,$3*
1,1,$1+$1,$4,$5*
1,1,$1+$1,$6,$7*
1,1,$1+$1,$8,$9*
0 Add four rect primitives between the rounded corners*
20,1,$1+$1,$2,$3,$4,$5,0*
20,1,$1+$1,$4,$5,$6,$7,0*
20,1,$1+$1,$6,$7,$8,$9,0*
20,1,$1+$1,$8,$9,$2,$3,0*%
G04 Aperture macros list end*
G04 #@! TA.AperFunction,NonConductor*
%ADD10C,0.200000*%
G04 #@! TD*
G04 #@! TA.AperFunction,ComponentPad*
%ADD11RoundRect,0.250000X-1.050000X-1.050000X1.050000X-1.050000X1.050000X1.050000X-1.050000X1.050000X0*%
G04 #@! TD*
G04 #@! TA.AperFunction,ComponentPad*
%ADD12R,1.905000X2.000000*%
G04 #@! TD*
G04 #@! TA.AperFunction,ComponentPad*
%ADD13O,1.905000X2.000000*%
G04 #@! TD*
G04 #@! TA.AperFunction,ComponentPad*
%ADD14RoundRect,0.250000X0.350000X0.625000X-0.350000X0.625000X-0.350000X-0.625000X0.350000X-0.625000X0*%
G04 #@! TD*
G04 #@! TA.AperFunction,ComponentPad*
%ADD15O,1.200000X1.750000*%
G04 #@! TD*
G04 #@! TA.AperFunction,ComponentPad*
%ADD16RoundRect,0.250000X-1.050000X1.050000X-1.050000X-1.050000X1.050000X-1.050000X1.050000X1.050000X0*%
G04 #@! TD*
G04 #@! TA.AperFunction,ComponentPad*
%ADD17C,2.600000*%
G04 #@! TD*
G04 #@! TA.AperFunction,ComponentPad*
%ADD18R,1.650000X1.650000*%
G04 #@! TD*
G04 #@! TA.AperFunction,ComponentPad*
%ADD19C,1.650000*%
G04 #@! TD*
G04 #@! TA.AperFunction,ComponentPad*
%ADD20RoundRect,0.250000X1.050000X-1.050000X1.050000X1.050000X-1.050000X1.050000X-1.050000X-1.050000X0*%
G04 #@! TD*
G04 #@! TA.AperFunction,SMDPad,CuDef*
%ADD21RoundRect,0.250000X0.450000X-0.350000X0.450000X0.350000X-0.450000X0.350000X-0.450000X-0.350000X0*%
G04 #@! TD*
G04 #@! TA.AperFunction,SMDPad,CuDef*
%ADD22RoundRect,0.250000X-0.450000X0.350000X-0.450000X-0.350000X0.450000X-0.350000X0.450000X0.350000X0*%
G04 #@! TD*
G04 #@! TA.AperFunction,SMDPad,CuDef*
%ADD23RoundRect,0.250000X-0.337500X-0.475000X0.337500X-0.475000X0.337500X0.475000X-0.337500X0.475000X0*%
G04 #@! TD*
G04 #@! TA.AperFunction,SMDPad,CuDef*
%ADD24RoundRect,0.150000X0.662500X0.150000X-0.662500X0.150000X-0.662500X-0.150000X0.662500X-0.150000X0*%
G04 #@! TD*
G04 #@! TA.AperFunction,SMDPad,CuDef*
%ADD25RoundRect,0.150000X-0.662500X-0.150000X0.662500X-0.150000X0.662500X0.150000X-0.662500X0.150000X0*%
G04 #@! TD*
G04 #@! TA.AperFunction,ViaPad*
%ADD26C,0.600000*%
G04 #@! TD*
G04 #@! TA.AperFunction,Conductor*
%ADD27C,0.500000*%
G04 #@! TD*
G04 #@! TA.AperFunction,Conductor*
%ADD28C,0.200000*%
G04 #@! TD*
G04 #@! TA.AperFunction,Conductor*
%ADD29C,1.000000*%
G04 #@! TD*
G04 #@! TA.AperFunction,Conductor*
%ADD30C,2.000000*%
G04 #@! TD*
G04 APERTURE END LIST*
D10*
X131800000Y-89900000D02*
X171800000Y-89900000D01*
X171800000Y-129900000D01*
X131800000Y-129900000D01*
X131800000Y-89900000D01*
D11*
G04 #@! TO.P,J4,1,Pin_1*
G04 #@! TO.N,N*
X157200000Y-126300000D03*
G04 #@! TD*
G04 #@! TO.P,J7,1,Pin_1*
G04 #@! TO.N,5V0*
X161700000Y-102800000D03*
G04 #@! TD*
G04 #@! TO.P,J6,1,Pin_1*
G04 #@! TO.N,GND*
X169800000Y-102700000D03*
G04 #@! TD*
D12*
G04 #@! TO.P,Q2,1,G*
G04 #@! TO.N,Net-(Q2-G)*
X147060000Y-93950000D03*
D13*
G04 #@! TO.P,Q2,2,D*
G04 #@! TO.N,Net-(D2-K)*
X149600000Y-93950000D03*
G04 #@! TO.P,Q2,3,S*
G04 #@! TO.N,GND*
X152140000Y-93950000D03*
G04 #@! TD*
D11*
G04 #@! TO.P,J2,1,Pin_1*
G04 #@! TO.N,L1*
X145100000Y-126300000D03*
G04 #@! TD*
D14*
G04 #@! TO.P,J3,1,Pin_1*
G04 #@! TO.N,GPIO10_Trigger_PIN1*
X169100000Y-93400000D03*
D15*
G04 #@! TO.P,J3,2,Pin_2*
G04 #@! TO.N,GPIO05_Trigger_PIN2*
X167100000Y-93400000D03*
G04 #@! TO.P,J3,3,Pin_3*
G04 #@! TO.N,GND*
X165100000Y-93400000D03*
G04 #@! TO.P,J3,4,Pin_4*
G04 #@! TO.N,5V0*
X163100000Y-93400000D03*
G04 #@! TO.P,J3,5,Pin_5*
G04 #@! TO.N,3V3*
X161100000Y-93400000D03*
G04 #@! TD*
D16*
G04 #@! TO.P,J1,1,Pin_1*
G04 #@! TO.N,L''*
X137827500Y-114500000D03*
D17*
G04 #@! TO.P,J1,2,Pin_2*
G04 #@! TO.N,L'*
X137827500Y-119500000D03*
G04 #@! TD*
D16*
G04 #@! TO.P,J5,1,Pin_1*
G04 #@! TO.N,PE*
X137800000Y-102300000D03*
D17*
G04 #@! TO.P,J5,2,Pin_2*
X137800000Y-107300000D03*
G04 #@! TD*
D12*
G04 #@! TO.P,Q1,1,G*
G04 #@! TO.N,Net-(Q1-G)*
X135860000Y-93850000D03*
D13*
G04 #@! TO.P,Q1,2,D*
G04 #@! TO.N,Net-(D1-K)*
X138400000Y-93850000D03*
G04 #@! TO.P,Q1,3,S*
G04 #@! TO.N,GND*
X140940000Y-93850000D03*
G04 #@! TD*
D18*
G04 #@! TO.P,K1,1*
G04 #@! TO.N,Net-(D1-K)*
X149850000Y-103050000D03*
D19*
G04 #@! TO.P,K1,2*
G04 #@! TO.N,GND*
X145150000Y-103050000D03*
G04 #@! TO.P,K1,3*
G04 #@! TO.N,L'*
X145150000Y-114550000D03*
G04 #@! TO.P,K1,4*
G04 #@! TO.N,L1*
X145150000Y-121550000D03*
G04 #@! TD*
D20*
G04 #@! TO.P,J8,1,Pin_1*
G04 #@! TO.N,N*
X165500000Y-126300000D03*
D17*
G04 #@! TO.P,J8,2,Pin_2*
X165500000Y-121300000D03*
G04 #@! TO.P,J8,3,Pin_3*
G04 #@! TO.N,L1*
X165500000Y-116300000D03*
G04 #@! TD*
D18*
G04 #@! TO.P,K2,1*
G04 #@! TO.N,Net-(D2-K)*
X158150000Y-103050000D03*
D19*
G04 #@! TO.P,K2,2*
G04 #@! TO.N,GND*
X153450000Y-103050000D03*
G04 #@! TO.P,K2,3*
G04 #@! TO.N,L''*
X153450000Y-114550000D03*
G04 #@! TO.P,K2,4*
G04 #@! TO.N,L1*
X153450000Y-121550000D03*
G04 #@! TD*
D21*
G04 #@! TO.P,R2,1*
G04 #@! TO.N,5V0*
X135900000Y-98100000D03*
G04 #@! TO.P,R2,2*
G04 #@! TO.N,Net-(Q1-G)*
X135900000Y-96100000D03*
G04 #@! TD*
D22*
G04 #@! TO.P,R1,1*
G04 #@! TO.N,GPIO10_Trigger_PIN1*
X169800000Y-96500000D03*
G04 #@! TO.P,R1,2*
G04 #@! TO.N,Net-(R1-Pad2)*
X169800000Y-98500000D03*
G04 #@! TD*
D23*
G04 #@! TO.P,C2,1*
G04 #@! TO.N,5V0*
X165525000Y-106200000D03*
G04 #@! TO.P,C2,2*
G04 #@! TO.N,GND*
X167600000Y-106200000D03*
G04 #@! TD*
D21*
G04 #@! TO.P,R4,1*
G04 #@! TO.N,5V0*
X149100000Y-98200000D03*
G04 #@! TO.P,R4,2*
G04 #@! TO.N,Net-(Q2-G)*
X149100000Y-96200000D03*
G04 #@! TD*
D24*
G04 #@! TO.P,U2,1*
G04 #@! TO.N,Net-(R1-Pad2)*
X144687500Y-96365000D03*
G04 #@! TO.P,U2,2*
G04 #@! TO.N,GND*
X144687500Y-97635000D03*
G04 #@! TO.P,U2,3*
X138312500Y-97635000D03*
G04 #@! TO.P,U2,4*
G04 #@! TO.N,Net-(Q1-G)*
X138312500Y-96365000D03*
G04 #@! TD*
D25*
G04 #@! TO.P,U1,1*
G04 #@! TO.N,Net-(R3-Pad2)*
X154425000Y-97870000D03*
G04 #@! TO.P,U1,2*
G04 #@! TO.N,GND*
X154425000Y-96600000D03*
G04 #@! TO.P,U1,3*
X160800000Y-96600000D03*
G04 #@! TO.P,U1,4*
G04 #@! TO.N,Net-(Q2-G)*
X160800000Y-97870000D03*
G04 #@! TD*
D22*
G04 #@! TO.P,R3,1*
G04 #@! TO.N,GPIO05_Trigger_PIN2*
X167200000Y-96600000D03*
G04 #@! TO.P,R3,2*
G04 #@! TO.N,Net-(R3-Pad2)*
X167200000Y-98600000D03*
G04 #@! TD*
D26*
G04 #@! TO.N,Net-(Q2-G)*
X159200000Y-97900000D03*
X151000000Y-96600000D03*
G04 #@! TO.N,GND*
X153000000Y-96500000D03*
X165100000Y-98900000D03*
X144300000Y-98900000D03*
X161900000Y-96600000D03*
G04 #@! TO.N,Net-(D1-K)*
X149600000Y-100400000D03*
G04 #@! TO.N,Net-(D2-K)*
X158200000Y-100300000D03*
X156100000Y-100300000D03*
G04 #@! TO.N,Net-(R1-Pad2)*
X151200000Y-91800000D03*
X153100000Y-91800000D03*
G04 #@! TO.N,Net-(R3-Pad2)*
X167600000Y-99900000D03*
X162100000Y-99300000D03*
G04 #@! TD*
D27*
G04 #@! TO.N,Net-(Q2-G)*
X159200000Y-97900000D02*
X160770000Y-97900000D01*
X150600000Y-96200000D02*
X151000000Y-96600000D01*
X160770000Y-97900000D02*
X160800000Y-97870000D01*
X149100000Y-96200000D02*
X150600000Y-96200000D01*
X147060000Y-94160000D02*
X149100000Y-96200000D01*
D28*
X147060000Y-93950000D02*
X147060000Y-94160000D01*
D27*
G04 #@! TO.N,GND*
X154425000Y-96600000D02*
X152140000Y-94315000D01*
X154425000Y-96600000D02*
X160800000Y-96600000D01*
X144687500Y-97635000D02*
X141600000Y-97635000D01*
D28*
X168900000Y-102700000D02*
X169800000Y-102700000D01*
D27*
X144300000Y-98022500D02*
X144687500Y-97635000D01*
X140940000Y-93850000D02*
X140940000Y-96975000D01*
X160800000Y-96600000D02*
X161900000Y-96600000D01*
X151400000Y-90700000D02*
X143000000Y-90700000D01*
X152140000Y-91440000D02*
X151400000Y-90700000D01*
D29*
X165100000Y-98900000D02*
X168900000Y-102700000D01*
D27*
X143000000Y-90700000D02*
X143000000Y-91790000D01*
D28*
X154325000Y-96500000D02*
X154425000Y-96600000D01*
D27*
X152140000Y-93950000D02*
X152140000Y-91440000D01*
X153000000Y-96500000D02*
X154325000Y-96500000D01*
X140940000Y-96975000D02*
X141600000Y-97635000D01*
D28*
X152140000Y-94315000D02*
X152140000Y-93950000D01*
D27*
X141600000Y-97635000D02*
X138312500Y-97635000D01*
D29*
X165100000Y-93400000D02*
X165100000Y-96600000D01*
D27*
X143000000Y-91790000D02*
X140940000Y-93850000D01*
D29*
X165100000Y-96600000D02*
X165100000Y-98900000D01*
D28*
X169800000Y-102700000D02*
X169800000Y-104000000D01*
D29*
X169800000Y-104000000D02*
X167600000Y-106200000D01*
D27*
X144300000Y-98900000D02*
X144300000Y-98022500D01*
D29*
G04 #@! TO.N,5V0*
X163100000Y-101400000D02*
X161700000Y-102800000D01*
D27*
X149100000Y-98200000D02*
X151700000Y-100800000D01*
X135900000Y-98100000D02*
X136900000Y-99100000D01*
D28*
X165100000Y-106200000D02*
X165525000Y-106200000D01*
D27*
X148700000Y-98200000D02*
X149100000Y-98200000D01*
X159300000Y-105200000D02*
X161700000Y-102800000D01*
X143500000Y-100600000D02*
X146300000Y-100600000D01*
X136900000Y-99100000D02*
X142000000Y-99100000D01*
X151700000Y-104100000D02*
X152800000Y-105200000D01*
X146300000Y-100600000D02*
X148700000Y-98200000D01*
X152800000Y-105200000D02*
X159300000Y-105200000D01*
X142000000Y-99100000D02*
X143500000Y-100600000D01*
D29*
X163100000Y-93400000D02*
X163100000Y-101400000D01*
X161700000Y-102800000D02*
X165100000Y-106200000D01*
D27*
X151700000Y-100800000D02*
X151700000Y-104100000D01*
G04 #@! TO.N,Net-(D1-K)*
X149850000Y-103050000D02*
X149850000Y-100650000D01*
X149850000Y-100650000D02*
X149600000Y-100400000D01*
G04 #@! TO.N,Net-(D2-K)*
X158150000Y-103050000D02*
X158150000Y-100350000D01*
D28*
X158150000Y-100350000D02*
X158200000Y-100300000D01*
D27*
X152200000Y-96550000D02*
X152200000Y-99000000D01*
X152200000Y-99000000D02*
X153500000Y-100300000D01*
X153500000Y-100300000D02*
X156100000Y-100300000D01*
X149600000Y-93950000D02*
X152200000Y-96550000D01*
D30*
G04 #@! TO.N,L''*
X142727500Y-109600000D02*
X137827500Y-114500000D01*
X148500000Y-109600000D02*
X142727500Y-109600000D01*
X153450000Y-114550000D02*
X148500000Y-109600000D01*
G04 #@! TO.N,L'*
X140200000Y-119500000D02*
X137827500Y-119500000D01*
X140200000Y-119500000D02*
X145150000Y-114550000D01*
G04 #@! TO.N,L1*
X145100000Y-126300000D02*
X145100000Y-121600000D01*
X161200000Y-116300000D02*
X165500000Y-116300000D01*
X155950000Y-121550000D02*
X161200000Y-116300000D01*
X153450000Y-121550000D02*
X155950000Y-121550000D01*
D28*
X145100000Y-121600000D02*
X145150000Y-121550000D01*
D30*
X145150000Y-121550000D02*
X153450000Y-121550000D01*
D27*
G04 #@! TO.N,GPIO05_Trigger_PIN2*
X167200000Y-93500000D02*
X167100000Y-93400000D01*
X167200000Y-96600000D02*
X167200000Y-93500000D01*
G04 #@! TO.N,GPIO10_Trigger_PIN1*
X169100000Y-95800000D02*
X169800000Y-96500000D01*
X169100000Y-93400000D02*
X169100000Y-95800000D01*
D30*
G04 #@! TO.N,N*
X165500000Y-126300000D02*
X165500000Y-121300000D01*
X157200000Y-126300000D02*
X165500000Y-126300000D01*
G04 #@! TO.N,PE*
X137800000Y-107300000D02*
X137800000Y-102300000D01*
D28*
G04 #@! TO.N,Net-(Q1-G)*
X135860000Y-96060000D02*
X135900000Y-96100000D01*
X136000000Y-96100000D02*
X136265000Y-96365000D01*
X135860000Y-93850000D02*
X135860000Y-96060000D01*
X135900000Y-96100000D02*
X136000000Y-96100000D01*
D27*
X136265000Y-96365000D02*
X138312500Y-96365000D01*
G04 #@! TO.N,Net-(R1-Pad2)*
X153100000Y-91800000D02*
X159200000Y-91800000D01*
X171000000Y-92700000D02*
X169300000Y-91000000D01*
X145200000Y-92400000D02*
X145800000Y-91800000D01*
X169800000Y-98500000D02*
X171000000Y-97300000D01*
X145200000Y-95852500D02*
X145200000Y-92400000D01*
X160000000Y-91000000D02*
X159200000Y-91800000D01*
X145800000Y-91800000D02*
X151200000Y-91800000D01*
X144687500Y-96365000D02*
X145200000Y-95852500D01*
X169300000Y-91000000D02*
X160000000Y-91000000D01*
X171000000Y-97300000D02*
X171000000Y-92700000D01*
G04 #@! TO.N,Net-(R3-Pad2)*
X154425000Y-97870000D02*
X154425000Y-99025000D01*
X167600000Y-99900000D02*
X167600000Y-99000000D01*
X154700000Y-99300000D02*
X162100000Y-99300000D01*
D28*
X167600000Y-99000000D02*
X167200000Y-98600000D01*
D27*
X154425000Y-99025000D02*
X154700000Y-99300000D01*
G04 #@! TD*
M02*
