G04 #@! TF.GenerationSoftware,KiCad,Pcbnew,9.0.5*
G04 #@! TF.CreationDate,2025-11-30T17:46:52+01:00*
G04 #@! TF.ProjectId,Sensor_all_ESP32,53656e73-6f72-45f6-916c-6c5f45535033,rev?*
G04 #@! TF.SameCoordinates,Original*
G04 #@! TF.FileFunction,Legend,Bot*
G04 #@! TF.FilePolarity,Positive*
%FSLAX46Y46*%
G04 Gerber Fmt 4.6, Leading zero omitted, Abs format (unit mm)*
G04 Created by KiCad (PCBNEW 9.0.5) date 2025-11-30 17:46:52*
%MOMM*%
%LPD*%
G01*
G04 APERTURE LIST*
G04 Aperture macros list*
%AMRoundRect*
0 Rectangle with rounded corners*
0 $1 Rounding radius*
0 $2 $3 $4 $5 $6 $7 $8 $9 X,Y pos of 4 corners*
0 Add a 4 corners polygon primitive as box body*
4,1,4,$2,$3,$4,$5,$6,$7,$8,$9,$2,$3,0*
0 Add four circle primitives for the rounded corners*
1,1,$1+$1,$2,$3*
1,1,$1+$1,$4,$5*
1,1,$1+$1,$6,$7*
1,1,$1+$1,$8,$9*
0 Add four rect primitives between the rounded corners*
20,1,$1+$1,$2,$3,$4,$5,0*
20,1,$1+$1,$4,$5,$6,$7,0*
20,1,$1+$1,$6,$7,$8,$9,0*
20,1,$1+$1,$8,$9,$2,$3,0*%
G04 Aperture macros list end*
%ADD10C,0.200000*%
%ADD11C,0.150000*%
%ADD12C,0.120000*%
%ADD13C,6.400000*%
%ADD14R,1.700000X1.700000*%
%ADD15C,1.700000*%
%ADD16RoundRect,0.250000X-0.350000X-0.625000X0.350000X-0.625000X0.350000X0.625000X-0.350000X0.625000X0*%
%ADD17O,1.200000X1.750000*%
%ADD18C,1.552000*%
%ADD19RoundRect,0.250000X0.550000X-0.550000X0.550000X0.550000X-0.550000X0.550000X-0.550000X-0.550000X0*%
%ADD20C,1.600000*%
%ADD21RoundRect,0.237500X-0.250000X-0.237500X0.250000X-0.237500X0.250000X0.237500X-0.250000X0.237500X0*%
%ADD22RoundRect,0.237500X0.300000X0.237500X-0.300000X0.237500X-0.300000X-0.237500X0.300000X-0.237500X0*%
%ADD23RoundRect,0.237500X0.237500X-0.250000X0.237500X0.250000X-0.237500X0.250000X-0.237500X-0.250000X0*%
G04 APERTURE END LIST*
D10*
X157477945Y-56757275D02*
X157477945Y-55757275D01*
X157477945Y-55757275D02*
X157287469Y-55757275D01*
X157287469Y-55757275D02*
X157173183Y-55804894D01*
X157173183Y-55804894D02*
X157096993Y-55900132D01*
X157096993Y-55900132D02*
X157058898Y-55995370D01*
X157058898Y-55995370D02*
X157020802Y-56185846D01*
X157020802Y-56185846D02*
X157020802Y-56328703D01*
X157020802Y-56328703D02*
X157058898Y-56519179D01*
X157058898Y-56519179D02*
X157096993Y-56614417D01*
X157096993Y-56614417D02*
X157173183Y-56709656D01*
X157173183Y-56709656D02*
X157287469Y-56757275D01*
X157287469Y-56757275D02*
X157477945Y-56757275D01*
X156373183Y-56709656D02*
X156449374Y-56757275D01*
X156449374Y-56757275D02*
X156601755Y-56757275D01*
X156601755Y-56757275D02*
X156677945Y-56709656D01*
X156677945Y-56709656D02*
X156716041Y-56614417D01*
X156716041Y-56614417D02*
X156716041Y-56233465D01*
X156716041Y-56233465D02*
X156677945Y-56138227D01*
X156677945Y-56138227D02*
X156601755Y-56090608D01*
X156601755Y-56090608D02*
X156449374Y-56090608D01*
X156449374Y-56090608D02*
X156373183Y-56138227D01*
X156373183Y-56138227D02*
X156335088Y-56233465D01*
X156335088Y-56233465D02*
X156335088Y-56328703D01*
X156335088Y-56328703D02*
X156716041Y-56423941D01*
X156030327Y-56709656D02*
X155954136Y-56757275D01*
X155954136Y-56757275D02*
X155801755Y-56757275D01*
X155801755Y-56757275D02*
X155725565Y-56709656D01*
X155725565Y-56709656D02*
X155687469Y-56614417D01*
X155687469Y-56614417D02*
X155687469Y-56566798D01*
X155687469Y-56566798D02*
X155725565Y-56471560D01*
X155725565Y-56471560D02*
X155801755Y-56423941D01*
X155801755Y-56423941D02*
X155916041Y-56423941D01*
X155916041Y-56423941D02*
X155992231Y-56376322D01*
X155992231Y-56376322D02*
X156030327Y-56281084D01*
X156030327Y-56281084D02*
X156030327Y-56233465D01*
X156030327Y-56233465D02*
X155992231Y-56138227D01*
X155992231Y-56138227D02*
X155916041Y-56090608D01*
X155916041Y-56090608D02*
X155801755Y-56090608D01*
X155801755Y-56090608D02*
X155725565Y-56138227D01*
X155344612Y-56757275D02*
X155344612Y-56090608D01*
X155344612Y-55757275D02*
X155382708Y-55804894D01*
X155382708Y-55804894D02*
X155344612Y-55852513D01*
X155344612Y-55852513D02*
X155306517Y-55804894D01*
X155306517Y-55804894D02*
X155344612Y-55757275D01*
X155344612Y-55757275D02*
X155344612Y-55852513D01*
X154620803Y-56090608D02*
X154620803Y-56900132D01*
X154620803Y-56900132D02*
X154658898Y-56995370D01*
X154658898Y-56995370D02*
X154696994Y-57042989D01*
X154696994Y-57042989D02*
X154773184Y-57090608D01*
X154773184Y-57090608D02*
X154887470Y-57090608D01*
X154887470Y-57090608D02*
X154963660Y-57042989D01*
X154620803Y-56709656D02*
X154696994Y-56757275D01*
X154696994Y-56757275D02*
X154849375Y-56757275D01*
X154849375Y-56757275D02*
X154925565Y-56709656D01*
X154925565Y-56709656D02*
X154963660Y-56662036D01*
X154963660Y-56662036D02*
X155001756Y-56566798D01*
X155001756Y-56566798D02*
X155001756Y-56281084D01*
X155001756Y-56281084D02*
X154963660Y-56185846D01*
X154963660Y-56185846D02*
X154925565Y-56138227D01*
X154925565Y-56138227D02*
X154849375Y-56090608D01*
X154849375Y-56090608D02*
X154696994Y-56090608D01*
X154696994Y-56090608D02*
X154620803Y-56138227D01*
X154239850Y-56090608D02*
X154239850Y-56757275D01*
X154239850Y-56185846D02*
X154201755Y-56138227D01*
X154201755Y-56138227D02*
X154125565Y-56090608D01*
X154125565Y-56090608D02*
X154011279Y-56090608D01*
X154011279Y-56090608D02*
X153935088Y-56138227D01*
X153935088Y-56138227D02*
X153896993Y-56233465D01*
X153896993Y-56233465D02*
X153896993Y-56757275D01*
X153211278Y-56709656D02*
X153287469Y-56757275D01*
X153287469Y-56757275D02*
X153439850Y-56757275D01*
X153439850Y-56757275D02*
X153516040Y-56709656D01*
X153516040Y-56709656D02*
X153554136Y-56614417D01*
X153554136Y-56614417D02*
X153554136Y-56233465D01*
X153554136Y-56233465D02*
X153516040Y-56138227D01*
X153516040Y-56138227D02*
X153439850Y-56090608D01*
X153439850Y-56090608D02*
X153287469Y-56090608D01*
X153287469Y-56090608D02*
X153211278Y-56138227D01*
X153211278Y-56138227D02*
X153173183Y-56233465D01*
X153173183Y-56233465D02*
X153173183Y-56328703D01*
X153173183Y-56328703D02*
X153554136Y-56423941D01*
X152487469Y-56757275D02*
X152487469Y-55757275D01*
X152487469Y-56709656D02*
X152563660Y-56757275D01*
X152563660Y-56757275D02*
X152716041Y-56757275D01*
X152716041Y-56757275D02*
X152792231Y-56709656D01*
X152792231Y-56709656D02*
X152830326Y-56662036D01*
X152830326Y-56662036D02*
X152868422Y-56566798D01*
X152868422Y-56566798D02*
X152868422Y-56281084D01*
X152868422Y-56281084D02*
X152830326Y-56185846D01*
X152830326Y-56185846D02*
X152792231Y-56138227D01*
X152792231Y-56138227D02*
X152716041Y-56090608D01*
X152716041Y-56090608D02*
X152563660Y-56090608D01*
X152563660Y-56090608D02*
X152487469Y-56138227D01*
X151496992Y-56757275D02*
X151496992Y-55757275D01*
X151496992Y-56138227D02*
X151420802Y-56090608D01*
X151420802Y-56090608D02*
X151268421Y-56090608D01*
X151268421Y-56090608D02*
X151192230Y-56138227D01*
X151192230Y-56138227D02*
X151154135Y-56185846D01*
X151154135Y-56185846D02*
X151116040Y-56281084D01*
X151116040Y-56281084D02*
X151116040Y-56566798D01*
X151116040Y-56566798D02*
X151154135Y-56662036D01*
X151154135Y-56662036D02*
X151192230Y-56709656D01*
X151192230Y-56709656D02*
X151268421Y-56757275D01*
X151268421Y-56757275D02*
X151420802Y-56757275D01*
X151420802Y-56757275D02*
X151496992Y-56709656D01*
X150849373Y-56090608D02*
X150658897Y-56757275D01*
X150468420Y-56090608D02*
X150658897Y-56757275D01*
X150658897Y-56757275D02*
X150735087Y-56995370D01*
X150735087Y-56995370D02*
X150773182Y-57042989D01*
X150773182Y-57042989D02*
X150849373Y-57090608D01*
X149554134Y-56757275D02*
X149554134Y-55757275D01*
X149554134Y-55757275D02*
X149287468Y-56471560D01*
X149287468Y-56471560D02*
X149020801Y-55757275D01*
X149020801Y-55757275D02*
X149020801Y-56757275D01*
X148296991Y-56757275D02*
X148296991Y-56233465D01*
X148296991Y-56233465D02*
X148335086Y-56138227D01*
X148335086Y-56138227D02*
X148411277Y-56090608D01*
X148411277Y-56090608D02*
X148563658Y-56090608D01*
X148563658Y-56090608D02*
X148639848Y-56138227D01*
X148296991Y-56709656D02*
X148373182Y-56757275D01*
X148373182Y-56757275D02*
X148563658Y-56757275D01*
X148563658Y-56757275D02*
X148639848Y-56709656D01*
X148639848Y-56709656D02*
X148677944Y-56614417D01*
X148677944Y-56614417D02*
X148677944Y-56519179D01*
X148677944Y-56519179D02*
X148639848Y-56423941D01*
X148639848Y-56423941D02*
X148563658Y-56376322D01*
X148563658Y-56376322D02*
X148373182Y-56376322D01*
X148373182Y-56376322D02*
X148296991Y-56328703D01*
X147916038Y-56090608D02*
X147916038Y-56757275D01*
X147916038Y-56185846D02*
X147877943Y-56138227D01*
X147877943Y-56138227D02*
X147801753Y-56090608D01*
X147801753Y-56090608D02*
X147687467Y-56090608D01*
X147687467Y-56090608D02*
X147611276Y-56138227D01*
X147611276Y-56138227D02*
X147573181Y-56233465D01*
X147573181Y-56233465D02*
X147573181Y-56757275D01*
X146849371Y-56090608D02*
X146849371Y-56757275D01*
X147192228Y-56090608D02*
X147192228Y-56614417D01*
X147192228Y-56614417D02*
X147154133Y-56709656D01*
X147154133Y-56709656D02*
X147077943Y-56757275D01*
X147077943Y-56757275D02*
X146963657Y-56757275D01*
X146963657Y-56757275D02*
X146887466Y-56709656D01*
X146887466Y-56709656D02*
X146849371Y-56662036D01*
X146163656Y-56709656D02*
X146239847Y-56757275D01*
X146239847Y-56757275D02*
X146392228Y-56757275D01*
X146392228Y-56757275D02*
X146468418Y-56709656D01*
X146468418Y-56709656D02*
X146506514Y-56614417D01*
X146506514Y-56614417D02*
X146506514Y-56233465D01*
X146506514Y-56233465D02*
X146468418Y-56138227D01*
X146468418Y-56138227D02*
X146392228Y-56090608D01*
X146392228Y-56090608D02*
X146239847Y-56090608D01*
X146239847Y-56090608D02*
X146163656Y-56138227D01*
X146163656Y-56138227D02*
X146125561Y-56233465D01*
X146125561Y-56233465D02*
X146125561Y-56328703D01*
X146125561Y-56328703D02*
X146506514Y-56423941D01*
X145668419Y-56757275D02*
X145744609Y-56709656D01*
X145744609Y-56709656D02*
X145782704Y-56614417D01*
X145782704Y-56614417D02*
X145782704Y-55757275D01*
X144296989Y-56757275D02*
X144563656Y-56281084D01*
X144754132Y-56757275D02*
X144754132Y-55757275D01*
X144754132Y-55757275D02*
X144449370Y-55757275D01*
X144449370Y-55757275D02*
X144373180Y-55804894D01*
X144373180Y-55804894D02*
X144335085Y-55852513D01*
X144335085Y-55852513D02*
X144296989Y-55947751D01*
X144296989Y-55947751D02*
X144296989Y-56090608D01*
X144296989Y-56090608D02*
X144335085Y-56185846D01*
X144335085Y-56185846D02*
X144373180Y-56233465D01*
X144373180Y-56233465D02*
X144449370Y-56281084D01*
X144449370Y-56281084D02*
X144754132Y-56281084D01*
X143954132Y-56757275D02*
X143954132Y-56090608D01*
X143954132Y-55757275D02*
X143992228Y-55804894D01*
X143992228Y-55804894D02*
X143954132Y-55852513D01*
X143954132Y-55852513D02*
X143916037Y-55804894D01*
X143916037Y-55804894D02*
X143954132Y-55757275D01*
X143954132Y-55757275D02*
X143954132Y-55852513D01*
X143268418Y-56709656D02*
X143344609Y-56757275D01*
X143344609Y-56757275D02*
X143496990Y-56757275D01*
X143496990Y-56757275D02*
X143573180Y-56709656D01*
X143573180Y-56709656D02*
X143611276Y-56614417D01*
X143611276Y-56614417D02*
X143611276Y-56233465D01*
X143611276Y-56233465D02*
X143573180Y-56138227D01*
X143573180Y-56138227D02*
X143496990Y-56090608D01*
X143496990Y-56090608D02*
X143344609Y-56090608D01*
X143344609Y-56090608D02*
X143268418Y-56138227D01*
X143268418Y-56138227D02*
X143230323Y-56233465D01*
X143230323Y-56233465D02*
X143230323Y-56328703D01*
X143230323Y-56328703D02*
X143611276Y-56423941D01*
X142925562Y-56709656D02*
X142849371Y-56757275D01*
X142849371Y-56757275D02*
X142696990Y-56757275D01*
X142696990Y-56757275D02*
X142620800Y-56709656D01*
X142620800Y-56709656D02*
X142582704Y-56614417D01*
X142582704Y-56614417D02*
X142582704Y-56566798D01*
X142582704Y-56566798D02*
X142620800Y-56471560D01*
X142620800Y-56471560D02*
X142696990Y-56423941D01*
X142696990Y-56423941D02*
X142811276Y-56423941D01*
X142811276Y-56423941D02*
X142887466Y-56376322D01*
X142887466Y-56376322D02*
X142925562Y-56281084D01*
X142925562Y-56281084D02*
X142925562Y-56233465D01*
X142925562Y-56233465D02*
X142887466Y-56138227D01*
X142887466Y-56138227D02*
X142811276Y-56090608D01*
X142811276Y-56090608D02*
X142696990Y-56090608D01*
X142696990Y-56090608D02*
X142620800Y-56138227D01*
X140982704Y-55995370D02*
X141058895Y-55947751D01*
X141058895Y-55947751D02*
X141211276Y-55947751D01*
X141211276Y-55947751D02*
X141287466Y-55995370D01*
X141287466Y-55995370D02*
X141363657Y-56090608D01*
X141363657Y-56090608D02*
X141401752Y-56185846D01*
X141401752Y-56185846D02*
X141401752Y-56376322D01*
X141401752Y-56376322D02*
X141363657Y-56471560D01*
X141363657Y-56471560D02*
X141287466Y-56566798D01*
X141287466Y-56566798D02*
X141211276Y-56614417D01*
X141211276Y-56614417D02*
X141058895Y-56614417D01*
X141058895Y-56614417D02*
X140982704Y-56566798D01*
X141135085Y-55614417D02*
X141325561Y-55662036D01*
X141325561Y-55662036D02*
X141516038Y-55804894D01*
X141516038Y-55804894D02*
X141630323Y-56042989D01*
X141630323Y-56042989D02*
X141668419Y-56281084D01*
X141668419Y-56281084D02*
X141630323Y-56519179D01*
X141630323Y-56519179D02*
X141516038Y-56757275D01*
X141516038Y-56757275D02*
X141325561Y-56900132D01*
X141325561Y-56900132D02*
X141135085Y-56947751D01*
X141135085Y-56947751D02*
X140944609Y-56900132D01*
X140944609Y-56900132D02*
X140754133Y-56757275D01*
X140754133Y-56757275D02*
X140639847Y-56519179D01*
X140639847Y-56519179D02*
X140601752Y-56281084D01*
X140601752Y-56281084D02*
X140639847Y-56042989D01*
X140639847Y-56042989D02*
X140754133Y-55804894D01*
X140754133Y-55804894D02*
X140944609Y-55662036D01*
X140944609Y-55662036D02*
X141135085Y-55614417D01*
X140296990Y-55852513D02*
X140258894Y-55804894D01*
X140258894Y-55804894D02*
X140182704Y-55757275D01*
X140182704Y-55757275D02*
X139992228Y-55757275D01*
X139992228Y-55757275D02*
X139916037Y-55804894D01*
X139916037Y-55804894D02*
X139877942Y-55852513D01*
X139877942Y-55852513D02*
X139839847Y-55947751D01*
X139839847Y-55947751D02*
X139839847Y-56042989D01*
X139839847Y-56042989D02*
X139877942Y-56185846D01*
X139877942Y-56185846D02*
X140335085Y-56757275D01*
X140335085Y-56757275D02*
X139839847Y-56757275D01*
X139344608Y-55757275D02*
X139268418Y-55757275D01*
X139268418Y-55757275D02*
X139192227Y-55804894D01*
X139192227Y-55804894D02*
X139154132Y-55852513D01*
X139154132Y-55852513D02*
X139116037Y-55947751D01*
X139116037Y-55947751D02*
X139077942Y-56138227D01*
X139077942Y-56138227D02*
X139077942Y-56376322D01*
X139077942Y-56376322D02*
X139116037Y-56566798D01*
X139116037Y-56566798D02*
X139154132Y-56662036D01*
X139154132Y-56662036D02*
X139192227Y-56709656D01*
X139192227Y-56709656D02*
X139268418Y-56757275D01*
X139268418Y-56757275D02*
X139344608Y-56757275D01*
X139344608Y-56757275D02*
X139420799Y-56709656D01*
X139420799Y-56709656D02*
X139458894Y-56662036D01*
X139458894Y-56662036D02*
X139496989Y-56566798D01*
X139496989Y-56566798D02*
X139535085Y-56376322D01*
X139535085Y-56376322D02*
X139535085Y-56138227D01*
X139535085Y-56138227D02*
X139496989Y-55947751D01*
X139496989Y-55947751D02*
X139458894Y-55852513D01*
X139458894Y-55852513D02*
X139420799Y-55804894D01*
X139420799Y-55804894D02*
X139344608Y-55757275D01*
X138773180Y-55852513D02*
X138735084Y-55804894D01*
X138735084Y-55804894D02*
X138658894Y-55757275D01*
X138658894Y-55757275D02*
X138468418Y-55757275D01*
X138468418Y-55757275D02*
X138392227Y-55804894D01*
X138392227Y-55804894D02*
X138354132Y-55852513D01*
X138354132Y-55852513D02*
X138316037Y-55947751D01*
X138316037Y-55947751D02*
X138316037Y-56042989D01*
X138316037Y-56042989D02*
X138354132Y-56185846D01*
X138354132Y-56185846D02*
X138811275Y-56757275D01*
X138811275Y-56757275D02*
X138316037Y-56757275D01*
X137592227Y-55757275D02*
X137973179Y-55757275D01*
X137973179Y-55757275D02*
X138011275Y-56233465D01*
X138011275Y-56233465D02*
X137973179Y-56185846D01*
X137973179Y-56185846D02*
X137896989Y-56138227D01*
X137896989Y-56138227D02*
X137706513Y-56138227D01*
X137706513Y-56138227D02*
X137630322Y-56185846D01*
X137630322Y-56185846D02*
X137592227Y-56233465D01*
X137592227Y-56233465D02*
X137554132Y-56328703D01*
X137554132Y-56328703D02*
X137554132Y-56566798D01*
X137554132Y-56566798D02*
X137592227Y-56662036D01*
X137592227Y-56662036D02*
X137630322Y-56709656D01*
X137630322Y-56709656D02*
X137706513Y-56757275D01*
X137706513Y-56757275D02*
X137896989Y-56757275D01*
X137896989Y-56757275D02*
X137973179Y-56709656D01*
X137973179Y-56709656D02*
X138011275Y-56662036D01*
X153858898Y-58367219D02*
X153858898Y-57367219D01*
X153858898Y-57843409D02*
X153401755Y-57843409D01*
X153401755Y-58367219D02*
X153401755Y-57367219D01*
X152677946Y-58367219D02*
X152677946Y-57843409D01*
X152677946Y-57843409D02*
X152716041Y-57748171D01*
X152716041Y-57748171D02*
X152792232Y-57700552D01*
X152792232Y-57700552D02*
X152944613Y-57700552D01*
X152944613Y-57700552D02*
X153020803Y-57748171D01*
X152677946Y-58319600D02*
X152754137Y-58367219D01*
X152754137Y-58367219D02*
X152944613Y-58367219D01*
X152944613Y-58367219D02*
X153020803Y-58319600D01*
X153020803Y-58319600D02*
X153058899Y-58224361D01*
X153058899Y-58224361D02*
X153058899Y-58129123D01*
X153058899Y-58129123D02*
X153020803Y-58033885D01*
X153020803Y-58033885D02*
X152944613Y-57986266D01*
X152944613Y-57986266D02*
X152754137Y-57986266D01*
X152754137Y-57986266D02*
X152677946Y-57938647D01*
X152296993Y-57700552D02*
X152296993Y-58367219D01*
X152296993Y-57795790D02*
X152258898Y-57748171D01*
X152258898Y-57748171D02*
X152182708Y-57700552D01*
X152182708Y-57700552D02*
X152068422Y-57700552D01*
X152068422Y-57700552D02*
X151992231Y-57748171D01*
X151992231Y-57748171D02*
X151954136Y-57843409D01*
X151954136Y-57843409D02*
X151954136Y-58367219D01*
X151230326Y-58367219D02*
X151230326Y-57367219D01*
X151230326Y-58319600D02*
X151306517Y-58367219D01*
X151306517Y-58367219D02*
X151458898Y-58367219D01*
X151458898Y-58367219D02*
X151535088Y-58319600D01*
X151535088Y-58319600D02*
X151573183Y-58271980D01*
X151573183Y-58271980D02*
X151611279Y-58176742D01*
X151611279Y-58176742D02*
X151611279Y-57891028D01*
X151611279Y-57891028D02*
X151573183Y-57795790D01*
X151573183Y-57795790D02*
X151535088Y-57748171D01*
X151535088Y-57748171D02*
X151458898Y-57700552D01*
X151458898Y-57700552D02*
X151306517Y-57700552D01*
X151306517Y-57700552D02*
X151230326Y-57748171D01*
X150735088Y-58367219D02*
X150811278Y-58319600D01*
X150811278Y-58319600D02*
X150849373Y-58224361D01*
X150849373Y-58224361D02*
X150849373Y-57367219D01*
X150125563Y-58319600D02*
X150201754Y-58367219D01*
X150201754Y-58367219D02*
X150354135Y-58367219D01*
X150354135Y-58367219D02*
X150430325Y-58319600D01*
X150430325Y-58319600D02*
X150468421Y-58224361D01*
X150468421Y-58224361D02*
X150468421Y-57843409D01*
X150468421Y-57843409D02*
X150430325Y-57748171D01*
X150430325Y-57748171D02*
X150354135Y-57700552D01*
X150354135Y-57700552D02*
X150201754Y-57700552D01*
X150201754Y-57700552D02*
X150125563Y-57748171D01*
X150125563Y-57748171D02*
X150087468Y-57843409D01*
X150087468Y-57843409D02*
X150087468Y-57938647D01*
X150087468Y-57938647D02*
X150468421Y-58033885D01*
X149211278Y-57700552D02*
X149058897Y-58367219D01*
X149058897Y-58367219D02*
X148906516Y-57891028D01*
X148906516Y-57891028D02*
X148754135Y-58367219D01*
X148754135Y-58367219D02*
X148601754Y-57700552D01*
X148296992Y-58367219D02*
X148296992Y-57700552D01*
X148296992Y-57367219D02*
X148335088Y-57414838D01*
X148335088Y-57414838D02*
X148296992Y-57462457D01*
X148296992Y-57462457D02*
X148258897Y-57414838D01*
X148258897Y-57414838D02*
X148296992Y-57367219D01*
X148296992Y-57367219D02*
X148296992Y-57462457D01*
X148030326Y-57700552D02*
X147725564Y-57700552D01*
X147916040Y-57367219D02*
X147916040Y-58224361D01*
X147916040Y-58224361D02*
X147877945Y-58319600D01*
X147877945Y-58319600D02*
X147801755Y-58367219D01*
X147801755Y-58367219D02*
X147725564Y-58367219D01*
X147458897Y-58367219D02*
X147458897Y-57367219D01*
X147116040Y-58367219D02*
X147116040Y-57843409D01*
X147116040Y-57843409D02*
X147154135Y-57748171D01*
X147154135Y-57748171D02*
X147230326Y-57700552D01*
X147230326Y-57700552D02*
X147344612Y-57700552D01*
X147344612Y-57700552D02*
X147420802Y-57748171D01*
X147420802Y-57748171D02*
X147458897Y-57795790D01*
X146201754Y-57700552D02*
X146011278Y-58367219D01*
X146011278Y-58367219D02*
X145820801Y-57700552D01*
X145401754Y-58367219D02*
X145477944Y-58319600D01*
X145477944Y-58319600D02*
X145516039Y-58271980D01*
X145516039Y-58271980D02*
X145554135Y-58176742D01*
X145554135Y-58176742D02*
X145554135Y-57891028D01*
X145554135Y-57891028D02*
X145516039Y-57795790D01*
X145516039Y-57795790D02*
X145477944Y-57748171D01*
X145477944Y-57748171D02*
X145401754Y-57700552D01*
X145401754Y-57700552D02*
X145287468Y-57700552D01*
X145287468Y-57700552D02*
X145211277Y-57748171D01*
X145211277Y-57748171D02*
X145173182Y-57795790D01*
X145173182Y-57795790D02*
X145135087Y-57891028D01*
X145135087Y-57891028D02*
X145135087Y-58176742D01*
X145135087Y-58176742D02*
X145173182Y-58271980D01*
X145173182Y-58271980D02*
X145211277Y-58319600D01*
X145211277Y-58319600D02*
X145287468Y-58367219D01*
X145287468Y-58367219D02*
X145401754Y-58367219D01*
X144677944Y-58367219D02*
X144754134Y-58319600D01*
X144754134Y-58319600D02*
X144792229Y-58224361D01*
X144792229Y-58224361D02*
X144792229Y-57367219D01*
X144487467Y-57700552D02*
X144182705Y-57700552D01*
X144373181Y-57367219D02*
X144373181Y-58224361D01*
X144373181Y-58224361D02*
X144335086Y-58319600D01*
X144335086Y-58319600D02*
X144258896Y-58367219D01*
X144258896Y-58367219D02*
X144182705Y-58367219D01*
X143573181Y-58367219D02*
X143573181Y-57843409D01*
X143573181Y-57843409D02*
X143611276Y-57748171D01*
X143611276Y-57748171D02*
X143687467Y-57700552D01*
X143687467Y-57700552D02*
X143839848Y-57700552D01*
X143839848Y-57700552D02*
X143916038Y-57748171D01*
X143573181Y-58319600D02*
X143649372Y-58367219D01*
X143649372Y-58367219D02*
X143839848Y-58367219D01*
X143839848Y-58367219D02*
X143916038Y-58319600D01*
X143916038Y-58319600D02*
X143954134Y-58224361D01*
X143954134Y-58224361D02*
X143954134Y-58129123D01*
X143954134Y-58129123D02*
X143916038Y-58033885D01*
X143916038Y-58033885D02*
X143839848Y-57986266D01*
X143839848Y-57986266D02*
X143649372Y-57986266D01*
X143649372Y-57986266D02*
X143573181Y-57938647D01*
X142849371Y-57700552D02*
X142849371Y-58510076D01*
X142849371Y-58510076D02*
X142887466Y-58605314D01*
X142887466Y-58605314D02*
X142925562Y-58652933D01*
X142925562Y-58652933D02*
X143001752Y-58700552D01*
X143001752Y-58700552D02*
X143116038Y-58700552D01*
X143116038Y-58700552D02*
X143192228Y-58652933D01*
X142849371Y-58319600D02*
X142925562Y-58367219D01*
X142925562Y-58367219D02*
X143077943Y-58367219D01*
X143077943Y-58367219D02*
X143154133Y-58319600D01*
X143154133Y-58319600D02*
X143192228Y-58271980D01*
X143192228Y-58271980D02*
X143230324Y-58176742D01*
X143230324Y-58176742D02*
X143230324Y-57891028D01*
X143230324Y-57891028D02*
X143192228Y-57795790D01*
X143192228Y-57795790D02*
X143154133Y-57748171D01*
X143154133Y-57748171D02*
X143077943Y-57700552D01*
X143077943Y-57700552D02*
X142925562Y-57700552D01*
X142925562Y-57700552D02*
X142849371Y-57748171D01*
X142163656Y-58319600D02*
X142239847Y-58367219D01*
X142239847Y-58367219D02*
X142392228Y-58367219D01*
X142392228Y-58367219D02*
X142468418Y-58319600D01*
X142468418Y-58319600D02*
X142506514Y-58224361D01*
X142506514Y-58224361D02*
X142506514Y-57843409D01*
X142506514Y-57843409D02*
X142468418Y-57748171D01*
X142468418Y-57748171D02*
X142392228Y-57700552D01*
X142392228Y-57700552D02*
X142239847Y-57700552D01*
X142239847Y-57700552D02*
X142163656Y-57748171D01*
X142163656Y-57748171D02*
X142125561Y-57843409D01*
X142125561Y-57843409D02*
X142125561Y-57938647D01*
X142125561Y-57938647D02*
X142506514Y-58033885D01*
D11*
X143266666Y-80684819D02*
X143599999Y-80208628D01*
X143838094Y-80684819D02*
X143838094Y-79684819D01*
X143838094Y-79684819D02*
X143457142Y-79684819D01*
X143457142Y-79684819D02*
X143361904Y-79732438D01*
X143361904Y-79732438D02*
X143314285Y-79780057D01*
X143314285Y-79780057D02*
X143266666Y-79875295D01*
X143266666Y-79875295D02*
X143266666Y-80018152D01*
X143266666Y-80018152D02*
X143314285Y-80113390D01*
X143314285Y-80113390D02*
X143361904Y-80161009D01*
X143361904Y-80161009D02*
X143457142Y-80208628D01*
X143457142Y-80208628D02*
X143838094Y-80208628D01*
X142361904Y-79684819D02*
X142838094Y-79684819D01*
X142838094Y-79684819D02*
X142885713Y-80161009D01*
X142885713Y-80161009D02*
X142838094Y-80113390D01*
X142838094Y-80113390D02*
X142742856Y-80065771D01*
X142742856Y-80065771D02*
X142504761Y-80065771D01*
X142504761Y-80065771D02*
X142409523Y-80113390D01*
X142409523Y-80113390D02*
X142361904Y-80161009D01*
X142361904Y-80161009D02*
X142314285Y-80256247D01*
X142314285Y-80256247D02*
X142314285Y-80494342D01*
X142314285Y-80494342D02*
X142361904Y-80589580D01*
X142361904Y-80589580D02*
X142409523Y-80637200D01*
X142409523Y-80637200D02*
X142504761Y-80684819D01*
X142504761Y-80684819D02*
X142742856Y-80684819D01*
X142742856Y-80684819D02*
X142838094Y-80637200D01*
X142838094Y-80637200D02*
X142885713Y-80589580D01*
X140166666Y-74729580D02*
X140214285Y-74777200D01*
X140214285Y-74777200D02*
X140357142Y-74824819D01*
X140357142Y-74824819D02*
X140452380Y-74824819D01*
X140452380Y-74824819D02*
X140595237Y-74777200D01*
X140595237Y-74777200D02*
X140690475Y-74681961D01*
X140690475Y-74681961D02*
X140738094Y-74586723D01*
X140738094Y-74586723D02*
X140785713Y-74396247D01*
X140785713Y-74396247D02*
X140785713Y-74253390D01*
X140785713Y-74253390D02*
X140738094Y-74062914D01*
X140738094Y-74062914D02*
X140690475Y-73967676D01*
X140690475Y-73967676D02*
X140595237Y-73872438D01*
X140595237Y-73872438D02*
X140452380Y-73824819D01*
X140452380Y-73824819D02*
X140357142Y-73824819D01*
X140357142Y-73824819D02*
X140214285Y-73872438D01*
X140214285Y-73872438D02*
X140166666Y-73920057D01*
X139214285Y-74824819D02*
X139785713Y-74824819D01*
X139499999Y-74824819D02*
X139499999Y-73824819D01*
X139499999Y-73824819D02*
X139595237Y-73967676D01*
X139595237Y-73967676D02*
X139690475Y-74062914D01*
X139690475Y-74062914D02*
X139785713Y-74110533D01*
X140084819Y-79633333D02*
X139608628Y-79300000D01*
X140084819Y-79061905D02*
X139084819Y-79061905D01*
X139084819Y-79061905D02*
X139084819Y-79442857D01*
X139084819Y-79442857D02*
X139132438Y-79538095D01*
X139132438Y-79538095D02*
X139180057Y-79585714D01*
X139180057Y-79585714D02*
X139275295Y-79633333D01*
X139275295Y-79633333D02*
X139418152Y-79633333D01*
X139418152Y-79633333D02*
X139513390Y-79585714D01*
X139513390Y-79585714D02*
X139561009Y-79538095D01*
X139561009Y-79538095D02*
X139608628Y-79442857D01*
X139608628Y-79442857D02*
X139608628Y-79061905D01*
X139180057Y-80014286D02*
X139132438Y-80061905D01*
X139132438Y-80061905D02*
X139084819Y-80157143D01*
X139084819Y-80157143D02*
X139084819Y-80395238D01*
X139084819Y-80395238D02*
X139132438Y-80490476D01*
X139132438Y-80490476D02*
X139180057Y-80538095D01*
X139180057Y-80538095D02*
X139275295Y-80585714D01*
X139275295Y-80585714D02*
X139370533Y-80585714D01*
X139370533Y-80585714D02*
X139513390Y-80538095D01*
X139513390Y-80538095D02*
X140084819Y-79966667D01*
X140084819Y-79966667D02*
X140084819Y-80585714D01*
D12*
G04 #@! TO.C,R5*
X142845276Y-78277500D02*
X143354724Y-78277500D01*
X142845276Y-79322500D02*
X143354724Y-79322500D01*
G04 #@! TO.C,C1*
X140146267Y-75290000D02*
X139853733Y-75290000D01*
X140146267Y-76310000D02*
X139853733Y-76310000D01*
G04 #@! TO.C,R2*
X137677500Y-80054724D02*
X137677500Y-79545276D01*
X138722500Y-80054724D02*
X138722500Y-79545276D01*
G04 #@! TD*
%LPC*%
D13*
G04 #@! TO.C,H2*
X124100000Y-91300000D03*
G04 #@! TD*
D14*
G04 #@! TO.C,J4*
X156500000Y-70820000D03*
D15*
X156500000Y-73360000D03*
X156500000Y-75900000D03*
X156500000Y-78440000D03*
X156500000Y-80980000D03*
G04 #@! TD*
D16*
G04 #@! TO.C,J5*
X146000000Y-90050000D03*
D17*
X148000000Y-90050000D03*
G04 #@! TD*
D18*
G04 #@! TO.C,U1*
X150120000Y-83530000D03*
X150120000Y-80990000D03*
X150120000Y-78450000D03*
X150120000Y-75910000D03*
X150120000Y-70830000D03*
X150120000Y-73370000D03*
X134880000Y-65750000D03*
X150120000Y-65750000D03*
X134880000Y-68290000D03*
X134880000Y-70830000D03*
X134880000Y-73370000D03*
X134880000Y-75910000D03*
X134880000Y-78450000D03*
X134880000Y-80990000D03*
X134880000Y-83530000D03*
X150120000Y-68290000D03*
G04 #@! TD*
D14*
G04 #@! TO.C,J1*
X161800000Y-67020000D03*
D15*
X161800000Y-69560000D03*
X161800000Y-72100000D03*
X161800000Y-74640000D03*
X161800000Y-77180000D03*
X161800000Y-79720000D03*
G04 #@! TD*
D14*
G04 #@! TO.C,J2*
X123700000Y-66850000D03*
D15*
X123700000Y-69390000D03*
X123700000Y-71930000D03*
X123700000Y-74470000D03*
X123700000Y-77010000D03*
X123700000Y-79550000D03*
G04 #@! TD*
D19*
G04 #@! TO.C,D1*
X139300000Y-91714315D03*
D20*
X139300000Y-89174315D03*
G04 #@! TD*
D13*
G04 #@! TO.C,H1*
X160500000Y-59300000D03*
G04 #@! TD*
D14*
G04 #@! TO.C,J7*
X128740000Y-83900000D03*
D15*
X126200000Y-83900000D03*
X123660000Y-83900000D03*
G04 #@! TD*
D14*
G04 #@! TO.C,J3*
X128700000Y-78480000D03*
D15*
X128700000Y-75940000D03*
X128700000Y-73400000D03*
X128700000Y-70860000D03*
X128700000Y-68320000D03*
G04 #@! TD*
D14*
G04 #@! TO.C,J6*
X156500000Y-65900000D03*
G04 #@! TD*
D21*
G04 #@! TO.C,R5*
X142187500Y-78800000D03*
X144012500Y-78800000D03*
G04 #@! TD*
D22*
G04 #@! TO.C,C1*
X140862500Y-75800000D03*
X139137500Y-75800000D03*
G04 #@! TD*
D23*
G04 #@! TO.C,R2*
X138200000Y-80712500D03*
X138200000Y-78887500D03*
G04 #@! TD*
%LPD*%
M02*
