G04 #@! TF.GenerationSoftware,KiCad,Pcbnew,9.0.5*
G04 #@! TF.CreationDate,2025-11-30T17:46:52+01:00*
G04 #@! TF.ProjectId,Sensor_all_ESP32,53656e73-6f72-45f6-916c-6c5f45535033,rev?*
G04 #@! TF.SameCoordinates,Original*
G04 #@! TF.FileFunction,Legend,Top*
G04 #@! TF.FilePolarity,Positive*
%FSLAX46Y46*%
G04 Gerber Fmt 4.6, Leading zero omitted, Abs format (unit mm)*
G04 Created by KiCad (PCBNEW 9.0.5) date 2025-11-30 17:46:52*
%MOMM*%
%LPD*%
G01*
G04 APERTURE LIST*
G04 Aperture macros list*
%AMRoundRect*
0 Rectangle with rounded corners*
0 $1 Rounding radius*
0 $2 $3 $4 $5 $6 $7 $8 $9 X,Y pos of 4 corners*
0 Add a 4 corners polygon primitive as box body*
4,1,4,$2,$3,$4,$5,$6,$7,$8,$9,$2,$3,0*
0 Add four circle primitives for the rounded corners*
1,1,$1+$1,$2,$3*
1,1,$1+$1,$4,$5*
1,1,$1+$1,$6,$7*
1,1,$1+$1,$8,$9*
0 Add four rect primitives between the rounded corners*
20,1,$1+$1,$2,$3,$4,$5,0*
20,1,$1+$1,$4,$5,$6,$7,0*
20,1,$1+$1,$6,$7,$8,$9,0*
20,1,$1+$1,$8,$9,$2,$3,0*%
G04 Aperture macros list end*
%ADD10C,0.100000*%
%ADD11C,0.200000*%
%ADD12C,0.125000*%
%ADD13C,0.150000*%
%ADD14C,0.120000*%
%ADD15C,0.127000*%
%ADD16C,6.400000*%
%ADD17R,1.000000X1.500000*%
%ADD18R,1.700000X1.700000*%
%ADD19C,1.700000*%
%ADD20RoundRect,0.250000X-0.350000X-0.450000X0.350000X-0.450000X0.350000X0.450000X-0.350000X0.450000X0*%
%ADD21RoundRect,0.250000X-0.350000X-0.625000X0.350000X-0.625000X0.350000X0.625000X-0.350000X0.625000X0*%
%ADD22O,1.200000X1.750000*%
%ADD23C,1.552000*%
%ADD24RoundRect,0.250000X0.550000X-0.550000X0.550000X0.550000X-0.550000X0.550000X-0.550000X-0.550000X0*%
%ADD25C,1.600000*%
%ADD26RoundRect,0.150000X-0.150000X0.587500X-0.150000X-0.587500X0.150000X-0.587500X0.150000X0.587500X0*%
%ADD27RoundRect,0.200000X0.200000X0.275000X-0.200000X0.275000X-0.200000X-0.275000X0.200000X-0.275000X0*%
G04 APERTURE END LIST*
D10*
X120150000Y-54900000D02*
X165250000Y-54900000D01*
X165250000Y-95100000D01*
X120150000Y-95100000D01*
X120150000Y-54900000D01*
X153900000Y-84800000D02*
X158300000Y-84800000D01*
X158300000Y-91700000D01*
X153900000Y-91700000D01*
X153900000Y-84800000D01*
X140572419Y-83196115D02*
X139572419Y-83196115D01*
X139572419Y-83196115D02*
X140286704Y-82862782D01*
X140286704Y-82862782D02*
X139572419Y-82529449D01*
X139572419Y-82529449D02*
X140572419Y-82529449D01*
X140572419Y-81624687D02*
X140048609Y-81624687D01*
X140048609Y-81624687D02*
X139953371Y-81672306D01*
X139953371Y-81672306D02*
X139905752Y-81767544D01*
X139905752Y-81767544D02*
X139905752Y-81958020D01*
X139905752Y-81958020D02*
X139953371Y-82053258D01*
X140524800Y-81624687D02*
X140572419Y-81719925D01*
X140572419Y-81719925D02*
X140572419Y-81958020D01*
X140572419Y-81958020D02*
X140524800Y-82053258D01*
X140524800Y-82053258D02*
X140429561Y-82100877D01*
X140429561Y-82100877D02*
X140334323Y-82100877D01*
X140334323Y-82100877D02*
X140239085Y-82053258D01*
X140239085Y-82053258D02*
X140191466Y-81958020D01*
X140191466Y-81958020D02*
X140191466Y-81719925D01*
X140191466Y-81719925D02*
X140143847Y-81624687D01*
X139905752Y-81243734D02*
X140572419Y-81005639D01*
X139905752Y-80767544D02*
X140572419Y-81005639D01*
X140572419Y-81005639D02*
X140810514Y-81100877D01*
X140810514Y-81100877D02*
X140858133Y-81148496D01*
X140858133Y-81148496D02*
X140905752Y-81243734D01*
X140524800Y-79196115D02*
X140572419Y-79291353D01*
X140572419Y-79291353D02*
X140572419Y-79481829D01*
X140572419Y-79481829D02*
X140524800Y-79577067D01*
X140524800Y-79577067D02*
X140477180Y-79624686D01*
X140477180Y-79624686D02*
X140381942Y-79672305D01*
X140381942Y-79672305D02*
X140096228Y-79672305D01*
X140096228Y-79672305D02*
X140000990Y-79624686D01*
X140000990Y-79624686D02*
X139953371Y-79577067D01*
X139953371Y-79577067D02*
X139905752Y-79481829D01*
X139905752Y-79481829D02*
X139905752Y-79291353D01*
X139905752Y-79291353D02*
X139953371Y-79196115D01*
X140572419Y-78624686D02*
X140524800Y-78719924D01*
X140524800Y-78719924D02*
X140477180Y-78767543D01*
X140477180Y-78767543D02*
X140381942Y-78815162D01*
X140381942Y-78815162D02*
X140096228Y-78815162D01*
X140096228Y-78815162D02*
X140000990Y-78767543D01*
X140000990Y-78767543D02*
X139953371Y-78719924D01*
X139953371Y-78719924D02*
X139905752Y-78624686D01*
X139905752Y-78624686D02*
X139905752Y-78481829D01*
X139905752Y-78481829D02*
X139953371Y-78386591D01*
X139953371Y-78386591D02*
X140000990Y-78338972D01*
X140000990Y-78338972D02*
X140096228Y-78291353D01*
X140096228Y-78291353D02*
X140381942Y-78291353D01*
X140381942Y-78291353D02*
X140477180Y-78338972D01*
X140477180Y-78338972D02*
X140524800Y-78386591D01*
X140524800Y-78386591D02*
X140572419Y-78481829D01*
X140572419Y-78481829D02*
X140572419Y-78624686D01*
X139905752Y-77862781D02*
X140572419Y-77862781D01*
X140000990Y-77862781D02*
X139953371Y-77815162D01*
X139953371Y-77815162D02*
X139905752Y-77719924D01*
X139905752Y-77719924D02*
X139905752Y-77577067D01*
X139905752Y-77577067D02*
X139953371Y-77481829D01*
X139953371Y-77481829D02*
X140048609Y-77434210D01*
X140048609Y-77434210D02*
X140572419Y-77434210D01*
X139905752Y-77100876D02*
X139905752Y-76719924D01*
X139572419Y-76958019D02*
X140429561Y-76958019D01*
X140429561Y-76958019D02*
X140524800Y-76910400D01*
X140524800Y-76910400D02*
X140572419Y-76815162D01*
X140572419Y-76815162D02*
X140572419Y-76719924D01*
X140572419Y-75958019D02*
X140048609Y-75958019D01*
X140048609Y-75958019D02*
X139953371Y-76005638D01*
X139953371Y-76005638D02*
X139905752Y-76100876D01*
X139905752Y-76100876D02*
X139905752Y-76291352D01*
X139905752Y-76291352D02*
X139953371Y-76386590D01*
X140524800Y-75958019D02*
X140572419Y-76053257D01*
X140572419Y-76053257D02*
X140572419Y-76291352D01*
X140572419Y-76291352D02*
X140524800Y-76386590D01*
X140524800Y-76386590D02*
X140429561Y-76434209D01*
X140429561Y-76434209D02*
X140334323Y-76434209D01*
X140334323Y-76434209D02*
X140239085Y-76386590D01*
X140239085Y-76386590D02*
X140191466Y-76291352D01*
X140191466Y-76291352D02*
X140191466Y-76053257D01*
X140191466Y-76053257D02*
X140143847Y-75958019D01*
X140572419Y-75481828D02*
X139905752Y-75481828D01*
X139572419Y-75481828D02*
X139620038Y-75529447D01*
X139620038Y-75529447D02*
X139667657Y-75481828D01*
X139667657Y-75481828D02*
X139620038Y-75434209D01*
X139620038Y-75434209D02*
X139572419Y-75481828D01*
X139572419Y-75481828D02*
X139667657Y-75481828D01*
X139905752Y-75005638D02*
X140572419Y-75005638D01*
X140000990Y-75005638D02*
X139953371Y-74958019D01*
X139953371Y-74958019D02*
X139905752Y-74862781D01*
X139905752Y-74862781D02*
X139905752Y-74719924D01*
X139905752Y-74719924D02*
X139953371Y-74624686D01*
X139953371Y-74624686D02*
X140048609Y-74577067D01*
X140048609Y-74577067D02*
X140572419Y-74577067D01*
X140572419Y-73196114D02*
X140524800Y-73291352D01*
X140524800Y-73291352D02*
X140429561Y-73338971D01*
X140429561Y-73338971D02*
X139572419Y-73338971D01*
X140572419Y-72672304D02*
X140524800Y-72767542D01*
X140524800Y-72767542D02*
X140477180Y-72815161D01*
X140477180Y-72815161D02*
X140381942Y-72862780D01*
X140381942Y-72862780D02*
X140096228Y-72862780D01*
X140096228Y-72862780D02*
X140000990Y-72815161D01*
X140000990Y-72815161D02*
X139953371Y-72767542D01*
X139953371Y-72767542D02*
X139905752Y-72672304D01*
X139905752Y-72672304D02*
X139905752Y-72529447D01*
X139905752Y-72529447D02*
X139953371Y-72434209D01*
X139953371Y-72434209D02*
X140000990Y-72386590D01*
X140000990Y-72386590D02*
X140096228Y-72338971D01*
X140096228Y-72338971D02*
X140381942Y-72338971D01*
X140381942Y-72338971D02*
X140477180Y-72386590D01*
X140477180Y-72386590D02*
X140524800Y-72434209D01*
X140524800Y-72434209D02*
X140572419Y-72529447D01*
X140572419Y-72529447D02*
X140572419Y-72672304D01*
X139905752Y-71481828D02*
X140715276Y-71481828D01*
X140715276Y-71481828D02*
X140810514Y-71529447D01*
X140810514Y-71529447D02*
X140858133Y-71577066D01*
X140858133Y-71577066D02*
X140905752Y-71672304D01*
X140905752Y-71672304D02*
X140905752Y-71815161D01*
X140905752Y-71815161D02*
X140858133Y-71910399D01*
X140524800Y-71481828D02*
X140572419Y-71577066D01*
X140572419Y-71577066D02*
X140572419Y-71767542D01*
X140572419Y-71767542D02*
X140524800Y-71862780D01*
X140524800Y-71862780D02*
X140477180Y-71910399D01*
X140477180Y-71910399D02*
X140381942Y-71958018D01*
X140381942Y-71958018D02*
X140096228Y-71958018D01*
X140096228Y-71958018D02*
X140000990Y-71910399D01*
X140000990Y-71910399D02*
X139953371Y-71862780D01*
X139953371Y-71862780D02*
X139905752Y-71767542D01*
X139905752Y-71767542D02*
X139905752Y-71577066D01*
X139905752Y-71577066D02*
X139953371Y-71481828D01*
X140572419Y-71005637D02*
X139905752Y-71005637D01*
X139572419Y-71005637D02*
X139620038Y-71053256D01*
X139620038Y-71053256D02*
X139667657Y-71005637D01*
X139667657Y-71005637D02*
X139620038Y-70958018D01*
X139620038Y-70958018D02*
X139572419Y-71005637D01*
X139572419Y-71005637D02*
X139667657Y-71005637D01*
X140524800Y-70100876D02*
X140572419Y-70196114D01*
X140572419Y-70196114D02*
X140572419Y-70386590D01*
X140572419Y-70386590D02*
X140524800Y-70481828D01*
X140524800Y-70481828D02*
X140477180Y-70529447D01*
X140477180Y-70529447D02*
X140381942Y-70577066D01*
X140381942Y-70577066D02*
X140096228Y-70577066D01*
X140096228Y-70577066D02*
X140000990Y-70529447D01*
X140000990Y-70529447D02*
X139953371Y-70481828D01*
X139953371Y-70481828D02*
X139905752Y-70386590D01*
X139905752Y-70386590D02*
X139905752Y-70196114D01*
X139905752Y-70196114D02*
X139953371Y-70100876D01*
X155900074Y-62672419D02*
X155423884Y-62672419D01*
X155423884Y-62672419D02*
X155376265Y-63148609D01*
X155376265Y-63148609D02*
X155423884Y-63100990D01*
X155423884Y-63100990D02*
X155519122Y-63053371D01*
X155519122Y-63053371D02*
X155757217Y-63053371D01*
X155757217Y-63053371D02*
X155852455Y-63100990D01*
X155852455Y-63100990D02*
X155900074Y-63148609D01*
X155900074Y-63148609D02*
X155947693Y-63243847D01*
X155947693Y-63243847D02*
X155947693Y-63481942D01*
X155947693Y-63481942D02*
X155900074Y-63577180D01*
X155900074Y-63577180D02*
X155852455Y-63624800D01*
X155852455Y-63624800D02*
X155757217Y-63672419D01*
X155757217Y-63672419D02*
X155519122Y-63672419D01*
X155519122Y-63672419D02*
X155423884Y-63624800D01*
X155423884Y-63624800D02*
X155376265Y-63577180D01*
X156233408Y-62672419D02*
X156566741Y-63672419D01*
X156566741Y-63672419D02*
X156900074Y-62672419D01*
X157423884Y-62672419D02*
X157519122Y-62672419D01*
X157519122Y-62672419D02*
X157614360Y-62720038D01*
X157614360Y-62720038D02*
X157661979Y-62767657D01*
X157661979Y-62767657D02*
X157709598Y-62862895D01*
X157709598Y-62862895D02*
X157757217Y-63053371D01*
X157757217Y-63053371D02*
X157757217Y-63291466D01*
X157757217Y-63291466D02*
X157709598Y-63481942D01*
X157709598Y-63481942D02*
X157661979Y-63577180D01*
X157661979Y-63577180D02*
X157614360Y-63624800D01*
X157614360Y-63624800D02*
X157519122Y-63672419D01*
X157519122Y-63672419D02*
X157423884Y-63672419D01*
X157423884Y-63672419D02*
X157328646Y-63624800D01*
X157328646Y-63624800D02*
X157281027Y-63577180D01*
X157281027Y-63577180D02*
X157233408Y-63481942D01*
X157233408Y-63481942D02*
X157185789Y-63291466D01*
X157185789Y-63291466D02*
X157185789Y-63053371D01*
X157185789Y-63053371D02*
X157233408Y-62862895D01*
X157233408Y-62862895D02*
X157281027Y-62767657D01*
X157281027Y-62767657D02*
X157328646Y-62720038D01*
X157328646Y-62720038D02*
X157423884Y-62672419D01*
D11*
X147007768Y-56757275D02*
X147464911Y-56757275D01*
X147236339Y-57757275D02*
X147236339Y-56757275D01*
X147731578Y-57757275D02*
X147731578Y-57090608D01*
X147731578Y-57281084D02*
X147769673Y-57185846D01*
X147769673Y-57185846D02*
X147807768Y-57138227D01*
X147807768Y-57138227D02*
X147883959Y-57090608D01*
X147883959Y-57090608D02*
X147960149Y-57090608D01*
X148569673Y-57090608D02*
X148569673Y-57757275D01*
X148226816Y-57090608D02*
X148226816Y-57614417D01*
X148226816Y-57614417D02*
X148264911Y-57709656D01*
X148264911Y-57709656D02*
X148341101Y-57757275D01*
X148341101Y-57757275D02*
X148455387Y-57757275D01*
X148455387Y-57757275D02*
X148531578Y-57709656D01*
X148531578Y-57709656D02*
X148569673Y-57662036D01*
X148912530Y-57709656D02*
X148988721Y-57757275D01*
X148988721Y-57757275D02*
X149141102Y-57757275D01*
X149141102Y-57757275D02*
X149217292Y-57709656D01*
X149217292Y-57709656D02*
X149255388Y-57614417D01*
X149255388Y-57614417D02*
X149255388Y-57566798D01*
X149255388Y-57566798D02*
X149217292Y-57471560D01*
X149217292Y-57471560D02*
X149141102Y-57423941D01*
X149141102Y-57423941D02*
X149026816Y-57423941D01*
X149026816Y-57423941D02*
X148950626Y-57376322D01*
X148950626Y-57376322D02*
X148912530Y-57281084D01*
X148912530Y-57281084D02*
X148912530Y-57233465D01*
X148912530Y-57233465D02*
X148950626Y-57138227D01*
X148950626Y-57138227D02*
X149026816Y-57090608D01*
X149026816Y-57090608D02*
X149141102Y-57090608D01*
X149141102Y-57090608D02*
X149217292Y-57138227D01*
X149483959Y-57090608D02*
X149788721Y-57090608D01*
X149598245Y-56757275D02*
X149598245Y-57614417D01*
X149598245Y-57614417D02*
X149636340Y-57709656D01*
X149636340Y-57709656D02*
X149712530Y-57757275D01*
X149712530Y-57757275D02*
X149788721Y-57757275D01*
X150664912Y-57757275D02*
X150664912Y-57090608D01*
X150664912Y-57185846D02*
X150703007Y-57138227D01*
X150703007Y-57138227D02*
X150779197Y-57090608D01*
X150779197Y-57090608D02*
X150893483Y-57090608D01*
X150893483Y-57090608D02*
X150969674Y-57138227D01*
X150969674Y-57138227D02*
X151007769Y-57233465D01*
X151007769Y-57233465D02*
X151007769Y-57757275D01*
X151007769Y-57233465D02*
X151045864Y-57138227D01*
X151045864Y-57138227D02*
X151122055Y-57090608D01*
X151122055Y-57090608D02*
X151236340Y-57090608D01*
X151236340Y-57090608D02*
X151312531Y-57138227D01*
X151312531Y-57138227D02*
X151350626Y-57233465D01*
X151350626Y-57233465D02*
X151350626Y-57757275D01*
X152036341Y-57709656D02*
X151960150Y-57757275D01*
X151960150Y-57757275D02*
X151807769Y-57757275D01*
X151807769Y-57757275D02*
X151731579Y-57709656D01*
X151731579Y-57709656D02*
X151693483Y-57614417D01*
X151693483Y-57614417D02*
X151693483Y-57233465D01*
X151693483Y-57233465D02*
X151731579Y-57138227D01*
X151731579Y-57138227D02*
X151807769Y-57090608D01*
X151807769Y-57090608D02*
X151960150Y-57090608D01*
X151960150Y-57090608D02*
X152036341Y-57138227D01*
X152036341Y-57138227D02*
X152074436Y-57233465D01*
X152074436Y-57233465D02*
X152074436Y-57328703D01*
X152074436Y-57328703D02*
X151693483Y-57423941D01*
X152455388Y-57709656D02*
X152455388Y-57757275D01*
X152455388Y-57757275D02*
X152417293Y-57852513D01*
X152417293Y-57852513D02*
X152379197Y-57900132D01*
X147122054Y-59367219D02*
X147122054Y-58367219D01*
X147541101Y-58367219D02*
X147464910Y-58557695D01*
X147883958Y-59367219D02*
X147883958Y-58700552D01*
X147883958Y-58795790D02*
X147922053Y-58748171D01*
X147922053Y-58748171D02*
X147998243Y-58700552D01*
X147998243Y-58700552D02*
X148112529Y-58700552D01*
X148112529Y-58700552D02*
X148188720Y-58748171D01*
X148188720Y-58748171D02*
X148226815Y-58843409D01*
X148226815Y-58843409D02*
X148226815Y-59367219D01*
X148226815Y-58843409D02*
X148264910Y-58748171D01*
X148264910Y-58748171D02*
X148341101Y-58700552D01*
X148341101Y-58700552D02*
X148455386Y-58700552D01*
X148455386Y-58700552D02*
X148531577Y-58748171D01*
X148531577Y-58748171D02*
X148569672Y-58843409D01*
X148569672Y-58843409D02*
X148569672Y-59367219D01*
X149903006Y-58700552D02*
X149903006Y-59510076D01*
X149903006Y-59510076D02*
X149864911Y-59605314D01*
X149864911Y-59605314D02*
X149826815Y-59652933D01*
X149826815Y-59652933D02*
X149750625Y-59700552D01*
X149750625Y-59700552D02*
X149636339Y-59700552D01*
X149636339Y-59700552D02*
X149560149Y-59652933D01*
X149903006Y-59319600D02*
X149826815Y-59367219D01*
X149826815Y-59367219D02*
X149674434Y-59367219D01*
X149674434Y-59367219D02*
X149598244Y-59319600D01*
X149598244Y-59319600D02*
X149560149Y-59271980D01*
X149560149Y-59271980D02*
X149522053Y-59176742D01*
X149522053Y-59176742D02*
X149522053Y-58891028D01*
X149522053Y-58891028D02*
X149560149Y-58795790D01*
X149560149Y-58795790D02*
X149598244Y-58748171D01*
X149598244Y-58748171D02*
X149674434Y-58700552D01*
X149674434Y-58700552D02*
X149826815Y-58700552D01*
X149826815Y-58700552D02*
X149903006Y-58748171D01*
X150283959Y-59367219D02*
X150283959Y-58700552D01*
X150283959Y-58891028D02*
X150322054Y-58795790D01*
X150322054Y-58795790D02*
X150360149Y-58748171D01*
X150360149Y-58748171D02*
X150436340Y-58700552D01*
X150436340Y-58700552D02*
X150512530Y-58700552D01*
X150893482Y-59367219D02*
X150817292Y-59319600D01*
X150817292Y-59319600D02*
X150779197Y-59271980D01*
X150779197Y-59271980D02*
X150741101Y-59176742D01*
X150741101Y-59176742D02*
X150741101Y-58891028D01*
X150741101Y-58891028D02*
X150779197Y-58795790D01*
X150779197Y-58795790D02*
X150817292Y-58748171D01*
X150817292Y-58748171D02*
X150893482Y-58700552D01*
X150893482Y-58700552D02*
X151007768Y-58700552D01*
X151007768Y-58700552D02*
X151083959Y-58748171D01*
X151083959Y-58748171D02*
X151122054Y-58795790D01*
X151122054Y-58795790D02*
X151160149Y-58891028D01*
X151160149Y-58891028D02*
X151160149Y-59176742D01*
X151160149Y-59176742D02*
X151122054Y-59271980D01*
X151122054Y-59271980D02*
X151083959Y-59319600D01*
X151083959Y-59319600D02*
X151007768Y-59367219D01*
X151007768Y-59367219D02*
X150893482Y-59367219D01*
X151845864Y-58700552D02*
X151845864Y-59367219D01*
X151503007Y-58700552D02*
X151503007Y-59224361D01*
X151503007Y-59224361D02*
X151541102Y-59319600D01*
X151541102Y-59319600D02*
X151617292Y-59367219D01*
X151617292Y-59367219D02*
X151731578Y-59367219D01*
X151731578Y-59367219D02*
X151807769Y-59319600D01*
X151807769Y-59319600D02*
X151845864Y-59271980D01*
X152226817Y-58700552D02*
X152226817Y-59367219D01*
X152226817Y-58795790D02*
X152264912Y-58748171D01*
X152264912Y-58748171D02*
X152341102Y-58700552D01*
X152341102Y-58700552D02*
X152455388Y-58700552D01*
X152455388Y-58700552D02*
X152531579Y-58748171D01*
X152531579Y-58748171D02*
X152569674Y-58843409D01*
X152569674Y-58843409D02*
X152569674Y-59367219D01*
X153293484Y-59367219D02*
X153293484Y-58367219D01*
X153293484Y-59319600D02*
X153217293Y-59367219D01*
X153217293Y-59367219D02*
X153064912Y-59367219D01*
X153064912Y-59367219D02*
X152988722Y-59319600D01*
X152988722Y-59319600D02*
X152950627Y-59271980D01*
X152950627Y-59271980D02*
X152912531Y-59176742D01*
X152912531Y-59176742D02*
X152912531Y-58891028D01*
X152912531Y-58891028D02*
X152950627Y-58795790D01*
X152950627Y-58795790D02*
X152988722Y-58748171D01*
X152988722Y-58748171D02*
X153064912Y-58700552D01*
X153064912Y-58700552D02*
X153217293Y-58700552D01*
X153217293Y-58700552D02*
X153293484Y-58748171D01*
X153979199Y-59319600D02*
X153903008Y-59367219D01*
X153903008Y-59367219D02*
X153750627Y-59367219D01*
X153750627Y-59367219D02*
X153674437Y-59319600D01*
X153674437Y-59319600D02*
X153636341Y-59224361D01*
X153636341Y-59224361D02*
X153636341Y-58843409D01*
X153636341Y-58843409D02*
X153674437Y-58748171D01*
X153674437Y-58748171D02*
X153750627Y-58700552D01*
X153750627Y-58700552D02*
X153903008Y-58700552D01*
X153903008Y-58700552D02*
X153979199Y-58748171D01*
X153979199Y-58748171D02*
X154017294Y-58843409D01*
X154017294Y-58843409D02*
X154017294Y-58938647D01*
X154017294Y-58938647D02*
X153636341Y-59033885D01*
X154703008Y-59367219D02*
X154703008Y-58367219D01*
X154703008Y-59319600D02*
X154626817Y-59367219D01*
X154626817Y-59367219D02*
X154474436Y-59367219D01*
X154474436Y-59367219D02*
X154398246Y-59319600D01*
X154398246Y-59319600D02*
X154360151Y-59271980D01*
X154360151Y-59271980D02*
X154322055Y-59176742D01*
X154322055Y-59176742D02*
X154322055Y-58891028D01*
X154322055Y-58891028D02*
X154360151Y-58795790D01*
X154360151Y-58795790D02*
X154398246Y-58748171D01*
X154398246Y-58748171D02*
X154474436Y-58700552D01*
X154474436Y-58700552D02*
X154626817Y-58700552D01*
X154626817Y-58700552D02*
X154703008Y-58748171D01*
D10*
X163672419Y-74878694D02*
X163672419Y-75031075D01*
X163672419Y-75031075D02*
X163720038Y-75107266D01*
X163720038Y-75107266D02*
X163767657Y-75145361D01*
X163767657Y-75145361D02*
X163910514Y-75221551D01*
X163910514Y-75221551D02*
X164100990Y-75259647D01*
X164100990Y-75259647D02*
X164481942Y-75259647D01*
X164481942Y-75259647D02*
X164577180Y-75221551D01*
X164577180Y-75221551D02*
X164624800Y-75183456D01*
X164624800Y-75183456D02*
X164672419Y-75107266D01*
X164672419Y-75107266D02*
X164672419Y-74954885D01*
X164672419Y-74954885D02*
X164624800Y-74878694D01*
X164624800Y-74878694D02*
X164577180Y-74840599D01*
X164577180Y-74840599D02*
X164481942Y-74802504D01*
X164481942Y-74802504D02*
X164243847Y-74802504D01*
X164243847Y-74802504D02*
X164148609Y-74840599D01*
X164148609Y-74840599D02*
X164100990Y-74878694D01*
X164100990Y-74878694D02*
X164053371Y-74954885D01*
X164053371Y-74954885D02*
X164053371Y-75107266D01*
X164053371Y-75107266D02*
X164100990Y-75183456D01*
X164100990Y-75183456D02*
X164148609Y-75221551D01*
X164148609Y-75221551D02*
X164243847Y-75259647D01*
X164672419Y-74535837D02*
X164005752Y-74116789D01*
X164005752Y-74535837D02*
X164672419Y-74116789D01*
X163720038Y-73392980D02*
X163672419Y-73469170D01*
X163672419Y-73469170D02*
X163672419Y-73583456D01*
X163672419Y-73583456D02*
X163720038Y-73697742D01*
X163720038Y-73697742D02*
X163815276Y-73773932D01*
X163815276Y-73773932D02*
X163910514Y-73812027D01*
X163910514Y-73812027D02*
X164100990Y-73850123D01*
X164100990Y-73850123D02*
X164243847Y-73850123D01*
X164243847Y-73850123D02*
X164434323Y-73812027D01*
X164434323Y-73812027D02*
X164529561Y-73773932D01*
X164529561Y-73773932D02*
X164624800Y-73697742D01*
X164624800Y-73697742D02*
X164672419Y-73583456D01*
X164672419Y-73583456D02*
X164672419Y-73507265D01*
X164672419Y-73507265D02*
X164624800Y-73392980D01*
X164624800Y-73392980D02*
X164577180Y-73354884D01*
X164577180Y-73354884D02*
X164243847Y-73354884D01*
X164243847Y-73354884D02*
X164243847Y-73507265D01*
X164672419Y-73012027D02*
X163672419Y-73012027D01*
X163672419Y-73012027D02*
X164672419Y-72554884D01*
X164672419Y-72554884D02*
X163672419Y-72554884D01*
X164672419Y-72173932D02*
X163672419Y-72173932D01*
X163672419Y-72173932D02*
X163672419Y-71983456D01*
X163672419Y-71983456D02*
X163720038Y-71869170D01*
X163720038Y-71869170D02*
X163815276Y-71792980D01*
X163815276Y-71792980D02*
X163910514Y-71754885D01*
X163910514Y-71754885D02*
X164100990Y-71716789D01*
X164100990Y-71716789D02*
X164243847Y-71716789D01*
X164243847Y-71716789D02*
X164434323Y-71754885D01*
X164434323Y-71754885D02*
X164529561Y-71792980D01*
X164529561Y-71792980D02*
X164624800Y-71869170D01*
X164624800Y-71869170D02*
X164672419Y-71983456D01*
X164672419Y-71983456D02*
X164672419Y-72173932D01*
D12*
X125734616Y-63423500D02*
X125848902Y-63471119D01*
X125848902Y-63471119D02*
X126039378Y-63471119D01*
X126039378Y-63471119D02*
X126115569Y-63423500D01*
X126115569Y-63423500D02*
X126153664Y-63375880D01*
X126153664Y-63375880D02*
X126191759Y-63280642D01*
X126191759Y-63280642D02*
X126191759Y-63185404D01*
X126191759Y-63185404D02*
X126153664Y-63090166D01*
X126153664Y-63090166D02*
X126115569Y-63042547D01*
X126115569Y-63042547D02*
X126039378Y-62994928D01*
X126039378Y-62994928D02*
X125886997Y-62947309D01*
X125886997Y-62947309D02*
X125810807Y-62899690D01*
X125810807Y-62899690D02*
X125772712Y-62852071D01*
X125772712Y-62852071D02*
X125734616Y-62756833D01*
X125734616Y-62756833D02*
X125734616Y-62661595D01*
X125734616Y-62661595D02*
X125772712Y-62566357D01*
X125772712Y-62566357D02*
X125810807Y-62518738D01*
X125810807Y-62518738D02*
X125886997Y-62471119D01*
X125886997Y-62471119D02*
X126077474Y-62471119D01*
X126077474Y-62471119D02*
X126191759Y-62518738D01*
X126839379Y-63423500D02*
X126763188Y-63471119D01*
X126763188Y-63471119D02*
X126610807Y-63471119D01*
X126610807Y-63471119D02*
X126534617Y-63423500D01*
X126534617Y-63423500D02*
X126496521Y-63328261D01*
X126496521Y-63328261D02*
X126496521Y-62947309D01*
X126496521Y-62947309D02*
X126534617Y-62852071D01*
X126534617Y-62852071D02*
X126610807Y-62804452D01*
X126610807Y-62804452D02*
X126763188Y-62804452D01*
X126763188Y-62804452D02*
X126839379Y-62852071D01*
X126839379Y-62852071D02*
X126877474Y-62947309D01*
X126877474Y-62947309D02*
X126877474Y-63042547D01*
X126877474Y-63042547D02*
X126496521Y-63137785D01*
X127220331Y-62804452D02*
X127220331Y-63471119D01*
X127220331Y-62899690D02*
X127258426Y-62852071D01*
X127258426Y-62852071D02*
X127334616Y-62804452D01*
X127334616Y-62804452D02*
X127448902Y-62804452D01*
X127448902Y-62804452D02*
X127525093Y-62852071D01*
X127525093Y-62852071D02*
X127563188Y-62947309D01*
X127563188Y-62947309D02*
X127563188Y-63471119D01*
X127906045Y-63423500D02*
X127982236Y-63471119D01*
X127982236Y-63471119D02*
X128134617Y-63471119D01*
X128134617Y-63471119D02*
X128210807Y-63423500D01*
X128210807Y-63423500D02*
X128248903Y-63328261D01*
X128248903Y-63328261D02*
X128248903Y-63280642D01*
X128248903Y-63280642D02*
X128210807Y-63185404D01*
X128210807Y-63185404D02*
X128134617Y-63137785D01*
X128134617Y-63137785D02*
X128020331Y-63137785D01*
X128020331Y-63137785D02*
X127944141Y-63090166D01*
X127944141Y-63090166D02*
X127906045Y-62994928D01*
X127906045Y-62994928D02*
X127906045Y-62947309D01*
X127906045Y-62947309D02*
X127944141Y-62852071D01*
X127944141Y-62852071D02*
X128020331Y-62804452D01*
X128020331Y-62804452D02*
X128134617Y-62804452D01*
X128134617Y-62804452D02*
X128210807Y-62852071D01*
X128706045Y-63471119D02*
X128629855Y-63423500D01*
X128629855Y-63423500D02*
X128591760Y-63375880D01*
X128591760Y-63375880D02*
X128553664Y-63280642D01*
X128553664Y-63280642D02*
X128553664Y-62994928D01*
X128553664Y-62994928D02*
X128591760Y-62899690D01*
X128591760Y-62899690D02*
X128629855Y-62852071D01*
X128629855Y-62852071D02*
X128706045Y-62804452D01*
X128706045Y-62804452D02*
X128820331Y-62804452D01*
X128820331Y-62804452D02*
X128896522Y-62852071D01*
X128896522Y-62852071D02*
X128934617Y-62899690D01*
X128934617Y-62899690D02*
X128972712Y-62994928D01*
X128972712Y-62994928D02*
X128972712Y-63280642D01*
X128972712Y-63280642D02*
X128934617Y-63375880D01*
X128934617Y-63375880D02*
X128896522Y-63423500D01*
X128896522Y-63423500D02*
X128820331Y-63471119D01*
X128820331Y-63471119D02*
X128706045Y-63471119D01*
X129315570Y-63471119D02*
X129315570Y-62804452D01*
X129315570Y-62994928D02*
X129353665Y-62899690D01*
X129353665Y-62899690D02*
X129391760Y-62852071D01*
X129391760Y-62852071D02*
X129467951Y-62804452D01*
X129467951Y-62804452D02*
X129544141Y-62804452D01*
X129620332Y-63566357D02*
X130229855Y-63566357D01*
X130686998Y-62947309D02*
X130801284Y-62994928D01*
X130801284Y-62994928D02*
X130839379Y-63042547D01*
X130839379Y-63042547D02*
X130877475Y-63137785D01*
X130877475Y-63137785D02*
X130877475Y-63280642D01*
X130877475Y-63280642D02*
X130839379Y-63375880D01*
X130839379Y-63375880D02*
X130801284Y-63423500D01*
X130801284Y-63423500D02*
X130725094Y-63471119D01*
X130725094Y-63471119D02*
X130420332Y-63471119D01*
X130420332Y-63471119D02*
X130420332Y-62471119D01*
X130420332Y-62471119D02*
X130686998Y-62471119D01*
X130686998Y-62471119D02*
X130763189Y-62518738D01*
X130763189Y-62518738D02*
X130801284Y-62566357D01*
X130801284Y-62566357D02*
X130839379Y-62661595D01*
X130839379Y-62661595D02*
X130839379Y-62756833D01*
X130839379Y-62756833D02*
X130801284Y-62852071D01*
X130801284Y-62852071D02*
X130763189Y-62899690D01*
X130763189Y-62899690D02*
X130686998Y-62947309D01*
X130686998Y-62947309D02*
X130420332Y-62947309D01*
X131182236Y-63185404D02*
X131563189Y-63185404D01*
X131106046Y-63471119D02*
X131372713Y-62471119D01*
X131372713Y-62471119D02*
X131639379Y-63471119D01*
X131791760Y-62471119D02*
X132248903Y-62471119D01*
X132020331Y-63471119D02*
X132020331Y-62471119D01*
D10*
X151284836Y-91762475D02*
X151284836Y-90762475D01*
X151499122Y-90524379D02*
X151546741Y-90476760D01*
X151546741Y-90476760D02*
X151618169Y-90476760D01*
X151618169Y-90476760D02*
X151665788Y-90524379D01*
X151665788Y-90524379D02*
X151689598Y-90619617D01*
X151689598Y-90619617D02*
X151689598Y-90714856D01*
X151689598Y-90714856D02*
X151665788Y-90810094D01*
X151665788Y-90810094D02*
X151499122Y-91143427D01*
X151499122Y-91143427D02*
X151689598Y-91143427D01*
X152189597Y-91667236D02*
X152165788Y-91714856D01*
X152165788Y-91714856D02*
X152094359Y-91762475D01*
X152094359Y-91762475D02*
X152046740Y-91762475D01*
X152046740Y-91762475D02*
X151975312Y-91714856D01*
X151975312Y-91714856D02*
X151927693Y-91619617D01*
X151927693Y-91619617D02*
X151903883Y-91524379D01*
X151903883Y-91524379D02*
X151880074Y-91333903D01*
X151880074Y-91333903D02*
X151880074Y-91191046D01*
X151880074Y-91191046D02*
X151903883Y-91000570D01*
X151903883Y-91000570D02*
X151927693Y-90905332D01*
X151927693Y-90905332D02*
X151975312Y-90810094D01*
X151975312Y-90810094D02*
X152046740Y-90762475D01*
X152046740Y-90762475D02*
X152094359Y-90762475D01*
X152094359Y-90762475D02*
X152165788Y-90810094D01*
X152165788Y-90810094D02*
X152189597Y-90857713D01*
X152784835Y-91238665D02*
X152951502Y-91238665D01*
X153022930Y-91762475D02*
X152784835Y-91762475D01*
X152784835Y-91762475D02*
X152784835Y-90762475D01*
X152784835Y-90762475D02*
X153022930Y-90762475D01*
X153237216Y-91762475D02*
X153237216Y-90762475D01*
X153237216Y-90762475D02*
X153522930Y-91762475D01*
X153522930Y-91762475D02*
X153522930Y-90762475D01*
X151427693Y-93753371D02*
X151403884Y-93705752D01*
X151403884Y-93705752D02*
X151356265Y-93562895D01*
X151356265Y-93562895D02*
X151332455Y-93467657D01*
X151332455Y-93467657D02*
X151308646Y-93324800D01*
X151308646Y-93324800D02*
X151284836Y-93086704D01*
X151284836Y-93086704D02*
X151284836Y-92896228D01*
X151284836Y-92896228D02*
X151308646Y-92658133D01*
X151308646Y-92658133D02*
X151332455Y-92515276D01*
X151332455Y-92515276D02*
X151356265Y-92420038D01*
X151356265Y-92420038D02*
X151403884Y-92277180D01*
X151403884Y-92277180D02*
X151427693Y-92229561D01*
X151594360Y-93324800D02*
X151665788Y-93372419D01*
X151665788Y-93372419D02*
X151784836Y-93372419D01*
X151784836Y-93372419D02*
X151832455Y-93324800D01*
X151832455Y-93324800D02*
X151856264Y-93277180D01*
X151856264Y-93277180D02*
X151880074Y-93181942D01*
X151880074Y-93181942D02*
X151880074Y-93086704D01*
X151880074Y-93086704D02*
X151856264Y-92991466D01*
X151856264Y-92991466D02*
X151832455Y-92943847D01*
X151832455Y-92943847D02*
X151784836Y-92896228D01*
X151784836Y-92896228D02*
X151689598Y-92848609D01*
X151689598Y-92848609D02*
X151641979Y-92800990D01*
X151641979Y-92800990D02*
X151618169Y-92753371D01*
X151618169Y-92753371D02*
X151594360Y-92658133D01*
X151594360Y-92658133D02*
X151594360Y-92562895D01*
X151594360Y-92562895D02*
X151618169Y-92467657D01*
X151618169Y-92467657D02*
X151641979Y-92420038D01*
X151641979Y-92420038D02*
X151689598Y-92372419D01*
X151689598Y-92372419D02*
X151808645Y-92372419D01*
X151808645Y-92372419D02*
X151880074Y-92420038D01*
X152165788Y-93372419D02*
X152118169Y-93324800D01*
X152118169Y-93324800D02*
X152094359Y-93277180D01*
X152094359Y-93277180D02*
X152070550Y-93181942D01*
X152070550Y-93181942D02*
X152070550Y-92896228D01*
X152070550Y-92896228D02*
X152094359Y-92800990D01*
X152094359Y-92800990D02*
X152118169Y-92753371D01*
X152118169Y-92753371D02*
X152165788Y-92705752D01*
X152165788Y-92705752D02*
X152237216Y-92705752D01*
X152237216Y-92705752D02*
X152284835Y-92753371D01*
X152284835Y-92753371D02*
X152308645Y-92800990D01*
X152308645Y-92800990D02*
X152332454Y-92896228D01*
X152332454Y-92896228D02*
X152332454Y-93181942D01*
X152332454Y-93181942D02*
X152308645Y-93277180D01*
X152308645Y-93277180D02*
X152284835Y-93324800D01*
X152284835Y-93324800D02*
X152237216Y-93372419D01*
X152237216Y-93372419D02*
X152165788Y-93372419D01*
X152618169Y-93372419D02*
X152570550Y-93324800D01*
X152570550Y-93324800D02*
X152546740Y-93229561D01*
X152546740Y-93229561D02*
X152546740Y-92372419D01*
X153022931Y-93372419D02*
X153022931Y-92372419D01*
X153022931Y-93324800D02*
X152975312Y-93372419D01*
X152975312Y-93372419D02*
X152880074Y-93372419D01*
X152880074Y-93372419D02*
X152832455Y-93324800D01*
X152832455Y-93324800D02*
X152808645Y-93277180D01*
X152808645Y-93277180D02*
X152784836Y-93181942D01*
X152784836Y-93181942D02*
X152784836Y-92896228D01*
X152784836Y-92896228D02*
X152808645Y-92800990D01*
X152808645Y-92800990D02*
X152832455Y-92753371D01*
X152832455Y-92753371D02*
X152880074Y-92705752D01*
X152880074Y-92705752D02*
X152975312Y-92705752D01*
X152975312Y-92705752D02*
X153022931Y-92753371D01*
X153451502Y-93324800D02*
X153403883Y-93372419D01*
X153403883Y-93372419D02*
X153308645Y-93372419D01*
X153308645Y-93372419D02*
X153261026Y-93324800D01*
X153261026Y-93324800D02*
X153237217Y-93229561D01*
X153237217Y-93229561D02*
X153237217Y-92848609D01*
X153237217Y-92848609D02*
X153261026Y-92753371D01*
X153261026Y-92753371D02*
X153308645Y-92705752D01*
X153308645Y-92705752D02*
X153403883Y-92705752D01*
X153403883Y-92705752D02*
X153451502Y-92753371D01*
X153451502Y-92753371D02*
X153475312Y-92848609D01*
X153475312Y-92848609D02*
X153475312Y-92943847D01*
X153475312Y-92943847D02*
X153237217Y-93039085D01*
X153689597Y-93372419D02*
X153689597Y-92705752D01*
X153689597Y-92896228D02*
X153713407Y-92800990D01*
X153713407Y-92800990D02*
X153737216Y-92753371D01*
X153737216Y-92753371D02*
X153784835Y-92705752D01*
X153784835Y-92705752D02*
X153832454Y-92705752D01*
X154380073Y-93372419D02*
X154380073Y-92372419D01*
X154380073Y-92753371D02*
X154427692Y-92705752D01*
X154427692Y-92705752D02*
X154522930Y-92705752D01*
X154522930Y-92705752D02*
X154570549Y-92753371D01*
X154570549Y-92753371D02*
X154594359Y-92800990D01*
X154594359Y-92800990D02*
X154618168Y-92896228D01*
X154618168Y-92896228D02*
X154618168Y-93181942D01*
X154618168Y-93181942D02*
X154594359Y-93277180D01*
X154594359Y-93277180D02*
X154570549Y-93324800D01*
X154570549Y-93324800D02*
X154522930Y-93372419D01*
X154522930Y-93372419D02*
X154427692Y-93372419D01*
X154427692Y-93372419D02*
X154380073Y-93324800D01*
X154903883Y-93372419D02*
X154856264Y-93324800D01*
X154856264Y-93324800D02*
X154832454Y-93277180D01*
X154832454Y-93277180D02*
X154808645Y-93181942D01*
X154808645Y-93181942D02*
X154808645Y-92896228D01*
X154808645Y-92896228D02*
X154832454Y-92800990D01*
X154832454Y-92800990D02*
X154856264Y-92753371D01*
X154856264Y-92753371D02*
X154903883Y-92705752D01*
X154903883Y-92705752D02*
X154975311Y-92705752D01*
X154975311Y-92705752D02*
X155022930Y-92753371D01*
X155022930Y-92753371D02*
X155046740Y-92800990D01*
X155046740Y-92800990D02*
X155070549Y-92896228D01*
X155070549Y-92896228D02*
X155070549Y-93181942D01*
X155070549Y-93181942D02*
X155046740Y-93277180D01*
X155046740Y-93277180D02*
X155022930Y-93324800D01*
X155022930Y-93324800D02*
X154975311Y-93372419D01*
X154975311Y-93372419D02*
X154903883Y-93372419D01*
X155213407Y-92705752D02*
X155403883Y-92705752D01*
X155284835Y-92372419D02*
X155284835Y-93229561D01*
X155284835Y-93229561D02*
X155308645Y-93324800D01*
X155308645Y-93324800D02*
X155356264Y-93372419D01*
X155356264Y-93372419D02*
X155403883Y-93372419D01*
X155570549Y-93372419D02*
X155570549Y-92372419D01*
X155784835Y-93372419D02*
X155784835Y-92848609D01*
X155784835Y-92848609D02*
X155761025Y-92753371D01*
X155761025Y-92753371D02*
X155713406Y-92705752D01*
X155713406Y-92705752D02*
X155641978Y-92705752D01*
X155641978Y-92705752D02*
X155594359Y-92753371D01*
X155594359Y-92753371D02*
X155570549Y-92800990D01*
X156403882Y-92848609D02*
X156784835Y-92848609D01*
X156784835Y-93134323D02*
X156403882Y-93134323D01*
X157499120Y-92372419D02*
X157594358Y-92372419D01*
X157594358Y-92372419D02*
X157641977Y-92420038D01*
X157641977Y-92420038D02*
X157689596Y-92515276D01*
X157689596Y-92515276D02*
X157713406Y-92705752D01*
X157713406Y-92705752D02*
X157713406Y-93039085D01*
X157713406Y-93039085D02*
X157689596Y-93229561D01*
X157689596Y-93229561D02*
X157641977Y-93324800D01*
X157641977Y-93324800D02*
X157594358Y-93372419D01*
X157594358Y-93372419D02*
X157499120Y-93372419D01*
X157499120Y-93372419D02*
X157451501Y-93324800D01*
X157451501Y-93324800D02*
X157403882Y-93229561D01*
X157403882Y-93229561D02*
X157380073Y-93039085D01*
X157380073Y-93039085D02*
X157380073Y-92705752D01*
X157380073Y-92705752D02*
X157403882Y-92515276D01*
X157403882Y-92515276D02*
X157451501Y-92420038D01*
X157451501Y-92420038D02*
X157499120Y-92372419D01*
X157927692Y-93372419D02*
X157927692Y-92372419D01*
X157927692Y-92372419D02*
X158213406Y-93372419D01*
X158213406Y-93372419D02*
X158213406Y-92372419D01*
X158403883Y-93753371D02*
X158427693Y-93705752D01*
X158427693Y-93705752D02*
X158475312Y-93562895D01*
X158475312Y-93562895D02*
X158499121Y-93467657D01*
X158499121Y-93467657D02*
X158522931Y-93324800D01*
X158522931Y-93324800D02*
X158546740Y-93086704D01*
X158546740Y-93086704D02*
X158546740Y-92896228D01*
X158546740Y-92896228D02*
X158522931Y-92658133D01*
X158522931Y-92658133D02*
X158499121Y-92515276D01*
X158499121Y-92515276D02*
X158475312Y-92420038D01*
X158475312Y-92420038D02*
X158427693Y-92277180D01*
X158427693Y-92277180D02*
X158403883Y-92229561D01*
D12*
X134591759Y-94671119D02*
X134134616Y-94671119D01*
X134363188Y-94671119D02*
X134363188Y-93671119D01*
X134363188Y-93671119D02*
X134286997Y-93813976D01*
X134286997Y-93813976D02*
X134210807Y-93909214D01*
X134210807Y-93909214D02*
X134134616Y-93956833D01*
X135086998Y-93671119D02*
X135163188Y-93671119D01*
X135163188Y-93671119D02*
X135239379Y-93718738D01*
X135239379Y-93718738D02*
X135277474Y-93766357D01*
X135277474Y-93766357D02*
X135315569Y-93861595D01*
X135315569Y-93861595D02*
X135353664Y-94052071D01*
X135353664Y-94052071D02*
X135353664Y-94290166D01*
X135353664Y-94290166D02*
X135315569Y-94480642D01*
X135315569Y-94480642D02*
X135277474Y-94575880D01*
X135277474Y-94575880D02*
X135239379Y-94623500D01*
X135239379Y-94623500D02*
X135163188Y-94671119D01*
X135163188Y-94671119D02*
X135086998Y-94671119D01*
X135086998Y-94671119D02*
X135010807Y-94623500D01*
X135010807Y-94623500D02*
X134972712Y-94575880D01*
X134972712Y-94575880D02*
X134934617Y-94480642D01*
X134934617Y-94480642D02*
X134896521Y-94290166D01*
X134896521Y-94290166D02*
X134896521Y-94052071D01*
X134896521Y-94052071D02*
X134934617Y-93861595D01*
X134934617Y-93861595D02*
X134972712Y-93766357D01*
X134972712Y-93766357D02*
X135010807Y-93718738D01*
X135010807Y-93718738D02*
X135086998Y-93671119D01*
X135696522Y-94671119D02*
X135696522Y-93671119D01*
X136153665Y-94671119D02*
X135810807Y-94099690D01*
X136153665Y-93671119D02*
X135696522Y-94242547D01*
D10*
X158620038Y-80524687D02*
X158572419Y-80600877D01*
X158572419Y-80600877D02*
X158572419Y-80715163D01*
X158572419Y-80715163D02*
X158620038Y-80829449D01*
X158620038Y-80829449D02*
X158715276Y-80905639D01*
X158715276Y-80905639D02*
X158810514Y-80943734D01*
X158810514Y-80943734D02*
X159000990Y-80981830D01*
X159000990Y-80981830D02*
X159143847Y-80981830D01*
X159143847Y-80981830D02*
X159334323Y-80943734D01*
X159334323Y-80943734D02*
X159429561Y-80905639D01*
X159429561Y-80905639D02*
X159524800Y-80829449D01*
X159524800Y-80829449D02*
X159572419Y-80715163D01*
X159572419Y-80715163D02*
X159572419Y-80638972D01*
X159572419Y-80638972D02*
X159524800Y-80524687D01*
X159524800Y-80524687D02*
X159477180Y-80486591D01*
X159477180Y-80486591D02*
X159143847Y-80486591D01*
X159143847Y-80486591D02*
X159143847Y-80638972D01*
X159572419Y-80143734D02*
X158572419Y-80143734D01*
X158572419Y-80143734D02*
X158572419Y-79838972D01*
X158572419Y-79838972D02*
X158620038Y-79762782D01*
X158620038Y-79762782D02*
X158667657Y-79724687D01*
X158667657Y-79724687D02*
X158762895Y-79686591D01*
X158762895Y-79686591D02*
X158905752Y-79686591D01*
X158905752Y-79686591D02*
X159000990Y-79724687D01*
X159000990Y-79724687D02*
X159048609Y-79762782D01*
X159048609Y-79762782D02*
X159096228Y-79838972D01*
X159096228Y-79838972D02*
X159096228Y-80143734D01*
X159572419Y-79343734D02*
X158572419Y-79343734D01*
X158572419Y-78810401D02*
X158572419Y-78658020D01*
X158572419Y-78658020D02*
X158620038Y-78581830D01*
X158620038Y-78581830D02*
X158715276Y-78505639D01*
X158715276Y-78505639D02*
X158905752Y-78467544D01*
X158905752Y-78467544D02*
X159239085Y-78467544D01*
X159239085Y-78467544D02*
X159429561Y-78505639D01*
X159429561Y-78505639D02*
X159524800Y-78581830D01*
X159524800Y-78581830D02*
X159572419Y-78658020D01*
X159572419Y-78658020D02*
X159572419Y-78810401D01*
X159572419Y-78810401D02*
X159524800Y-78886592D01*
X159524800Y-78886592D02*
X159429561Y-78962782D01*
X159429561Y-78962782D02*
X159239085Y-79000878D01*
X159239085Y-79000878D02*
X158905752Y-79000878D01*
X158905752Y-79000878D02*
X158715276Y-78962782D01*
X158715276Y-78962782D02*
X158620038Y-78886592D01*
X158620038Y-78886592D02*
X158572419Y-78810401D01*
X158572419Y-77972306D02*
X158572419Y-77896116D01*
X158572419Y-77896116D02*
X158620038Y-77819925D01*
X158620038Y-77819925D02*
X158667657Y-77781830D01*
X158667657Y-77781830D02*
X158762895Y-77743735D01*
X158762895Y-77743735D02*
X158953371Y-77705640D01*
X158953371Y-77705640D02*
X159191466Y-77705640D01*
X159191466Y-77705640D02*
X159381942Y-77743735D01*
X159381942Y-77743735D02*
X159477180Y-77781830D01*
X159477180Y-77781830D02*
X159524800Y-77819925D01*
X159524800Y-77819925D02*
X159572419Y-77896116D01*
X159572419Y-77896116D02*
X159572419Y-77972306D01*
X159572419Y-77972306D02*
X159524800Y-78048497D01*
X159524800Y-78048497D02*
X159477180Y-78086592D01*
X159477180Y-78086592D02*
X159381942Y-78124687D01*
X159381942Y-78124687D02*
X159191466Y-78162783D01*
X159191466Y-78162783D02*
X158953371Y-78162783D01*
X158953371Y-78162783D02*
X158762895Y-78124687D01*
X158762895Y-78124687D02*
X158667657Y-78086592D01*
X158667657Y-78086592D02*
X158620038Y-78048497D01*
X158620038Y-78048497D02*
X158572419Y-77972306D01*
X159572419Y-76943735D02*
X159572419Y-77400878D01*
X159572419Y-77172306D02*
X158572419Y-77172306D01*
X158572419Y-77172306D02*
X158715276Y-77248497D01*
X158715276Y-77248497D02*
X158810514Y-77324687D01*
X158810514Y-77324687D02*
X158858133Y-77400878D01*
X159191466Y-76600877D02*
X159191466Y-75991354D01*
X158620038Y-75191354D02*
X158572419Y-75267544D01*
X158572419Y-75267544D02*
X158572419Y-75381830D01*
X158572419Y-75381830D02*
X158620038Y-75496116D01*
X158620038Y-75496116D02*
X158715276Y-75572306D01*
X158715276Y-75572306D02*
X158810514Y-75610401D01*
X158810514Y-75610401D02*
X159000990Y-75648497D01*
X159000990Y-75648497D02*
X159143847Y-75648497D01*
X159143847Y-75648497D02*
X159334323Y-75610401D01*
X159334323Y-75610401D02*
X159429561Y-75572306D01*
X159429561Y-75572306D02*
X159524800Y-75496116D01*
X159524800Y-75496116D02*
X159572419Y-75381830D01*
X159572419Y-75381830D02*
X159572419Y-75305639D01*
X159572419Y-75305639D02*
X159524800Y-75191354D01*
X159524800Y-75191354D02*
X159477180Y-75153258D01*
X159477180Y-75153258D02*
X159143847Y-75153258D01*
X159143847Y-75153258D02*
X159143847Y-75305639D01*
X159572419Y-74810401D02*
X158572419Y-74810401D01*
X158572419Y-74810401D02*
X158572419Y-74505639D01*
X158572419Y-74505639D02*
X158620038Y-74429449D01*
X158620038Y-74429449D02*
X158667657Y-74391354D01*
X158667657Y-74391354D02*
X158762895Y-74353258D01*
X158762895Y-74353258D02*
X158905752Y-74353258D01*
X158905752Y-74353258D02*
X159000990Y-74391354D01*
X159000990Y-74391354D02*
X159048609Y-74429449D01*
X159048609Y-74429449D02*
X159096228Y-74505639D01*
X159096228Y-74505639D02*
X159096228Y-74810401D01*
X159572419Y-74010401D02*
X158572419Y-74010401D01*
X158572419Y-73477068D02*
X158572419Y-73324687D01*
X158572419Y-73324687D02*
X158620038Y-73248497D01*
X158620038Y-73248497D02*
X158715276Y-73172306D01*
X158715276Y-73172306D02*
X158905752Y-73134211D01*
X158905752Y-73134211D02*
X159239085Y-73134211D01*
X159239085Y-73134211D02*
X159429561Y-73172306D01*
X159429561Y-73172306D02*
X159524800Y-73248497D01*
X159524800Y-73248497D02*
X159572419Y-73324687D01*
X159572419Y-73324687D02*
X159572419Y-73477068D01*
X159572419Y-73477068D02*
X159524800Y-73553259D01*
X159524800Y-73553259D02*
X159429561Y-73629449D01*
X159429561Y-73629449D02*
X159239085Y-73667545D01*
X159239085Y-73667545D02*
X158905752Y-73667545D01*
X158905752Y-73667545D02*
X158715276Y-73629449D01*
X158715276Y-73629449D02*
X158620038Y-73553259D01*
X158620038Y-73553259D02*
X158572419Y-73477068D01*
X158572419Y-72638973D02*
X158572419Y-72562783D01*
X158572419Y-72562783D02*
X158620038Y-72486592D01*
X158620038Y-72486592D02*
X158667657Y-72448497D01*
X158667657Y-72448497D02*
X158762895Y-72410402D01*
X158762895Y-72410402D02*
X158953371Y-72372307D01*
X158953371Y-72372307D02*
X159191466Y-72372307D01*
X159191466Y-72372307D02*
X159381942Y-72410402D01*
X159381942Y-72410402D02*
X159477180Y-72448497D01*
X159477180Y-72448497D02*
X159524800Y-72486592D01*
X159524800Y-72486592D02*
X159572419Y-72562783D01*
X159572419Y-72562783D02*
X159572419Y-72638973D01*
X159572419Y-72638973D02*
X159524800Y-72715164D01*
X159524800Y-72715164D02*
X159477180Y-72753259D01*
X159477180Y-72753259D02*
X159381942Y-72791354D01*
X159381942Y-72791354D02*
X159191466Y-72829450D01*
X159191466Y-72829450D02*
X158953371Y-72829450D01*
X158953371Y-72829450D02*
X158762895Y-72791354D01*
X158762895Y-72791354D02*
X158667657Y-72753259D01*
X158667657Y-72753259D02*
X158620038Y-72715164D01*
X158620038Y-72715164D02*
X158572419Y-72638973D01*
X158572419Y-71648497D02*
X158572419Y-72029449D01*
X158572419Y-72029449D02*
X159048609Y-72067545D01*
X159048609Y-72067545D02*
X159000990Y-72029449D01*
X159000990Y-72029449D02*
X158953371Y-71953259D01*
X158953371Y-71953259D02*
X158953371Y-71762783D01*
X158953371Y-71762783D02*
X159000990Y-71686592D01*
X159000990Y-71686592D02*
X159048609Y-71648497D01*
X159048609Y-71648497D02*
X159143847Y-71610402D01*
X159143847Y-71610402D02*
X159381942Y-71610402D01*
X159381942Y-71610402D02*
X159477180Y-71648497D01*
X159477180Y-71648497D02*
X159524800Y-71686592D01*
X159524800Y-71686592D02*
X159572419Y-71762783D01*
X159572419Y-71762783D02*
X159572419Y-71953259D01*
X159572419Y-71953259D02*
X159524800Y-72029449D01*
X159524800Y-72029449D02*
X159477180Y-72067545D01*
X139084836Y-64028721D02*
X139251503Y-64028721D01*
X139322931Y-64552531D02*
X139084836Y-64552531D01*
X139084836Y-64552531D02*
X139084836Y-63552531D01*
X139084836Y-63552531D02*
X139322931Y-63552531D01*
X139513408Y-64504912D02*
X139584836Y-64552531D01*
X139584836Y-64552531D02*
X139703884Y-64552531D01*
X139703884Y-64552531D02*
X139751503Y-64504912D01*
X139751503Y-64504912D02*
X139775312Y-64457292D01*
X139775312Y-64457292D02*
X139799122Y-64362054D01*
X139799122Y-64362054D02*
X139799122Y-64266816D01*
X139799122Y-64266816D02*
X139775312Y-64171578D01*
X139775312Y-64171578D02*
X139751503Y-64123959D01*
X139751503Y-64123959D02*
X139703884Y-64076340D01*
X139703884Y-64076340D02*
X139608646Y-64028721D01*
X139608646Y-64028721D02*
X139561027Y-63981102D01*
X139561027Y-63981102D02*
X139537217Y-63933483D01*
X139537217Y-63933483D02*
X139513408Y-63838245D01*
X139513408Y-63838245D02*
X139513408Y-63743007D01*
X139513408Y-63743007D02*
X139537217Y-63647769D01*
X139537217Y-63647769D02*
X139561027Y-63600150D01*
X139561027Y-63600150D02*
X139608646Y-63552531D01*
X139608646Y-63552531D02*
X139727693Y-63552531D01*
X139727693Y-63552531D02*
X139799122Y-63600150D01*
X140013407Y-64552531D02*
X140013407Y-63552531D01*
X140013407Y-63552531D02*
X140203883Y-63552531D01*
X140203883Y-63552531D02*
X140251502Y-63600150D01*
X140251502Y-63600150D02*
X140275312Y-63647769D01*
X140275312Y-63647769D02*
X140299121Y-63743007D01*
X140299121Y-63743007D02*
X140299121Y-63885864D01*
X140299121Y-63885864D02*
X140275312Y-63981102D01*
X140275312Y-63981102D02*
X140251502Y-64028721D01*
X140251502Y-64028721D02*
X140203883Y-64076340D01*
X140203883Y-64076340D02*
X140013407Y-64076340D01*
X140465788Y-63552531D02*
X140775312Y-63552531D01*
X140775312Y-63552531D02*
X140608645Y-63933483D01*
X140608645Y-63933483D02*
X140680074Y-63933483D01*
X140680074Y-63933483D02*
X140727693Y-63981102D01*
X140727693Y-63981102D02*
X140751502Y-64028721D01*
X140751502Y-64028721D02*
X140775312Y-64123959D01*
X140775312Y-64123959D02*
X140775312Y-64362054D01*
X140775312Y-64362054D02*
X140751502Y-64457292D01*
X140751502Y-64457292D02*
X140727693Y-64504912D01*
X140727693Y-64504912D02*
X140680074Y-64552531D01*
X140680074Y-64552531D02*
X140537217Y-64552531D01*
X140537217Y-64552531D02*
X140489598Y-64504912D01*
X140489598Y-64504912D02*
X140465788Y-64457292D01*
X140965788Y-63647769D02*
X140989597Y-63600150D01*
X140989597Y-63600150D02*
X141037216Y-63552531D01*
X141037216Y-63552531D02*
X141156264Y-63552531D01*
X141156264Y-63552531D02*
X141203883Y-63600150D01*
X141203883Y-63600150D02*
X141227692Y-63647769D01*
X141227692Y-63647769D02*
X141251502Y-63743007D01*
X141251502Y-63743007D02*
X141251502Y-63838245D01*
X141251502Y-63838245D02*
X141227692Y-63981102D01*
X141227692Y-63981102D02*
X140941978Y-64552531D01*
X140941978Y-64552531D02*
X141251502Y-64552531D01*
X141465787Y-64171578D02*
X141846740Y-64171578D01*
X142370549Y-64457292D02*
X142346740Y-64504912D01*
X142346740Y-64504912D02*
X142275311Y-64552531D01*
X142275311Y-64552531D02*
X142227692Y-64552531D01*
X142227692Y-64552531D02*
X142156264Y-64504912D01*
X142156264Y-64504912D02*
X142108645Y-64409673D01*
X142108645Y-64409673D02*
X142084835Y-64314435D01*
X142084835Y-64314435D02*
X142061026Y-64123959D01*
X142061026Y-64123959D02*
X142061026Y-63981102D01*
X142061026Y-63981102D02*
X142084835Y-63790626D01*
X142084835Y-63790626D02*
X142108645Y-63695388D01*
X142108645Y-63695388D02*
X142156264Y-63600150D01*
X142156264Y-63600150D02*
X142227692Y-63552531D01*
X142227692Y-63552531D02*
X142275311Y-63552531D01*
X142275311Y-63552531D02*
X142346740Y-63600150D01*
X142346740Y-63600150D02*
X142370549Y-63647769D01*
X142537216Y-63552531D02*
X142846740Y-63552531D01*
X142846740Y-63552531D02*
X142680073Y-63933483D01*
X142680073Y-63933483D02*
X142751502Y-63933483D01*
X142751502Y-63933483D02*
X142799121Y-63981102D01*
X142799121Y-63981102D02*
X142822930Y-64028721D01*
X142822930Y-64028721D02*
X142846740Y-64123959D01*
X142846740Y-64123959D02*
X142846740Y-64362054D01*
X142846740Y-64362054D02*
X142822930Y-64457292D01*
X142822930Y-64457292D02*
X142799121Y-64504912D01*
X142799121Y-64504912D02*
X142751502Y-64552531D01*
X142751502Y-64552531D02*
X142608645Y-64552531D01*
X142608645Y-64552531D02*
X142561026Y-64504912D01*
X142561026Y-64504912D02*
X142537216Y-64457292D01*
X143608644Y-64028721D02*
X143680072Y-64076340D01*
X143680072Y-64076340D02*
X143703882Y-64123959D01*
X143703882Y-64123959D02*
X143727691Y-64219197D01*
X143727691Y-64219197D02*
X143727691Y-64362054D01*
X143727691Y-64362054D02*
X143703882Y-64457292D01*
X143703882Y-64457292D02*
X143680072Y-64504912D01*
X143680072Y-64504912D02*
X143632453Y-64552531D01*
X143632453Y-64552531D02*
X143441977Y-64552531D01*
X143441977Y-64552531D02*
X143441977Y-63552531D01*
X143441977Y-63552531D02*
X143608644Y-63552531D01*
X143608644Y-63552531D02*
X143656263Y-63600150D01*
X143656263Y-63600150D02*
X143680072Y-63647769D01*
X143680072Y-63647769D02*
X143703882Y-63743007D01*
X143703882Y-63743007D02*
X143703882Y-63838245D01*
X143703882Y-63838245D02*
X143680072Y-63933483D01*
X143680072Y-63933483D02*
X143656263Y-63981102D01*
X143656263Y-63981102D02*
X143608644Y-64028721D01*
X143608644Y-64028721D02*
X143441977Y-64028721D01*
X144227691Y-64552531D02*
X144061025Y-64076340D01*
X143941977Y-64552531D02*
X143941977Y-63552531D01*
X143941977Y-63552531D02*
X144132453Y-63552531D01*
X144132453Y-63552531D02*
X144180072Y-63600150D01*
X144180072Y-63600150D02*
X144203882Y-63647769D01*
X144203882Y-63647769D02*
X144227691Y-63743007D01*
X144227691Y-63743007D02*
X144227691Y-63885864D01*
X144227691Y-63885864D02*
X144203882Y-63981102D01*
X144203882Y-63981102D02*
X144180072Y-64028721D01*
X144180072Y-64028721D02*
X144132453Y-64076340D01*
X144132453Y-64076340D02*
X143941977Y-64076340D01*
X144441977Y-64552531D02*
X144441977Y-63552531D01*
X144441977Y-63552531D02*
X144561025Y-63552531D01*
X144561025Y-63552531D02*
X144632453Y-63600150D01*
X144632453Y-63600150D02*
X144680072Y-63695388D01*
X144680072Y-63695388D02*
X144703882Y-63790626D01*
X144703882Y-63790626D02*
X144727691Y-63981102D01*
X144727691Y-63981102D02*
X144727691Y-64123959D01*
X144727691Y-64123959D02*
X144703882Y-64314435D01*
X144703882Y-64314435D02*
X144680072Y-64409673D01*
X144680072Y-64409673D02*
X144632453Y-64504912D01*
X144632453Y-64504912D02*
X144561025Y-64552531D01*
X144561025Y-64552531D02*
X144441977Y-64552531D01*
X139061027Y-66114856D02*
X139132455Y-66162475D01*
X139132455Y-66162475D02*
X139251503Y-66162475D01*
X139251503Y-66162475D02*
X139299122Y-66114856D01*
X139299122Y-66114856D02*
X139322931Y-66067236D01*
X139322931Y-66067236D02*
X139346741Y-65971998D01*
X139346741Y-65971998D02*
X139346741Y-65876760D01*
X139346741Y-65876760D02*
X139322931Y-65781522D01*
X139322931Y-65781522D02*
X139299122Y-65733903D01*
X139299122Y-65733903D02*
X139251503Y-65686284D01*
X139251503Y-65686284D02*
X139156265Y-65638665D01*
X139156265Y-65638665D02*
X139108646Y-65591046D01*
X139108646Y-65591046D02*
X139084836Y-65543427D01*
X139084836Y-65543427D02*
X139061027Y-65448189D01*
X139061027Y-65448189D02*
X139061027Y-65352951D01*
X139061027Y-65352951D02*
X139084836Y-65257713D01*
X139084836Y-65257713D02*
X139108646Y-65210094D01*
X139108646Y-65210094D02*
X139156265Y-65162475D01*
X139156265Y-65162475D02*
X139275312Y-65162475D01*
X139275312Y-65162475D02*
X139346741Y-65210094D01*
X139775312Y-65495808D02*
X139775312Y-66162475D01*
X139561026Y-65495808D02*
X139561026Y-66019617D01*
X139561026Y-66019617D02*
X139584836Y-66114856D01*
X139584836Y-66114856D02*
X139632455Y-66162475D01*
X139632455Y-66162475D02*
X139703883Y-66162475D01*
X139703883Y-66162475D02*
X139751502Y-66114856D01*
X139751502Y-66114856D02*
X139775312Y-66067236D01*
X140013407Y-65495808D02*
X140013407Y-66495808D01*
X140013407Y-65543427D02*
X140061026Y-65495808D01*
X140061026Y-65495808D02*
X140156264Y-65495808D01*
X140156264Y-65495808D02*
X140203883Y-65543427D01*
X140203883Y-65543427D02*
X140227693Y-65591046D01*
X140227693Y-65591046D02*
X140251502Y-65686284D01*
X140251502Y-65686284D02*
X140251502Y-65971998D01*
X140251502Y-65971998D02*
X140227693Y-66067236D01*
X140227693Y-66067236D02*
X140203883Y-66114856D01*
X140203883Y-66114856D02*
X140156264Y-66162475D01*
X140156264Y-66162475D02*
X140061026Y-66162475D01*
X140061026Y-66162475D02*
X140013407Y-66114856D01*
X140656264Y-66114856D02*
X140608645Y-66162475D01*
X140608645Y-66162475D02*
X140513407Y-66162475D01*
X140513407Y-66162475D02*
X140465788Y-66114856D01*
X140465788Y-66114856D02*
X140441979Y-66019617D01*
X140441979Y-66019617D02*
X140441979Y-65638665D01*
X140441979Y-65638665D02*
X140465788Y-65543427D01*
X140465788Y-65543427D02*
X140513407Y-65495808D01*
X140513407Y-65495808D02*
X140608645Y-65495808D01*
X140608645Y-65495808D02*
X140656264Y-65543427D01*
X140656264Y-65543427D02*
X140680074Y-65638665D01*
X140680074Y-65638665D02*
X140680074Y-65733903D01*
X140680074Y-65733903D02*
X140441979Y-65829141D01*
X140894359Y-66162475D02*
X140894359Y-65495808D01*
X140894359Y-65686284D02*
X140918169Y-65591046D01*
X140918169Y-65591046D02*
X140941978Y-65543427D01*
X140941978Y-65543427D02*
X140989597Y-65495808D01*
X140989597Y-65495808D02*
X141037216Y-65495808D01*
X141584835Y-66162475D02*
X141584835Y-65162475D01*
X141584835Y-65162475D02*
X141751502Y-65876760D01*
X141751502Y-65876760D02*
X141918168Y-65162475D01*
X141918168Y-65162475D02*
X141918168Y-66162475D01*
X142156264Y-66162475D02*
X142156264Y-65495808D01*
X142156264Y-65162475D02*
X142132455Y-65210094D01*
X142132455Y-65210094D02*
X142156264Y-65257713D01*
X142156264Y-65257713D02*
X142180074Y-65210094D01*
X142180074Y-65210094D02*
X142156264Y-65162475D01*
X142156264Y-65162475D02*
X142156264Y-65257713D01*
X142394359Y-65495808D02*
X142394359Y-66162475D01*
X142394359Y-65591046D02*
X142418169Y-65543427D01*
X142418169Y-65543427D02*
X142465788Y-65495808D01*
X142465788Y-65495808D02*
X142537216Y-65495808D01*
X142537216Y-65495808D02*
X142584835Y-65543427D01*
X142584835Y-65543427D02*
X142608645Y-65638665D01*
X142608645Y-65638665D02*
X142608645Y-66162475D01*
X142846740Y-66162475D02*
X142846740Y-65495808D01*
X142846740Y-65162475D02*
X142822931Y-65210094D01*
X142822931Y-65210094D02*
X142846740Y-65257713D01*
X142846740Y-65257713D02*
X142870550Y-65210094D01*
X142870550Y-65210094D02*
X142846740Y-65162475D01*
X142846740Y-65162475D02*
X142846740Y-65257713D01*
X139084836Y-67724800D02*
X139084836Y-67772419D01*
X139108646Y-67629561D02*
X139108646Y-67772419D01*
X139132455Y-67534323D02*
X139132455Y-67772419D01*
X139156265Y-67439085D02*
X139156265Y-67772419D01*
X139180074Y-67391466D02*
X139180074Y-67772419D01*
X139203884Y-67296228D02*
X139203884Y-67772419D01*
X139227693Y-67200990D02*
X139227693Y-67772419D01*
X139251503Y-67105752D02*
X139251503Y-67772419D01*
X139275312Y-67010514D02*
X139275312Y-67772419D01*
X139299122Y-67105752D02*
X139299122Y-67772419D01*
X139322931Y-67200990D02*
X139322931Y-67772419D01*
X139346741Y-67296228D02*
X139346741Y-67772419D01*
X139370550Y-67391466D02*
X139370550Y-67772419D01*
X139394360Y-67439085D02*
X139394360Y-67772419D01*
X139418169Y-67534323D02*
X139418169Y-67772419D01*
X139441979Y-67629561D02*
X139441979Y-67772419D01*
X139465789Y-67772419D02*
X139275312Y-67058133D01*
X139275312Y-67058133D02*
X139084836Y-67772419D01*
X139465789Y-67724800D02*
X139465789Y-67772419D01*
X139275312Y-67010514D02*
X139489598Y-67772419D01*
X139489598Y-67772419D02*
X139061027Y-67772419D01*
X139061027Y-67772419D02*
X139275312Y-67010514D01*
X140084836Y-66772419D02*
X140084836Y-67581942D01*
X140084836Y-67581942D02*
X140108646Y-67677180D01*
X140108646Y-67677180D02*
X140132455Y-67724800D01*
X140132455Y-67724800D02*
X140180074Y-67772419D01*
X140180074Y-67772419D02*
X140275312Y-67772419D01*
X140275312Y-67772419D02*
X140322931Y-67724800D01*
X140322931Y-67724800D02*
X140346741Y-67677180D01*
X140346741Y-67677180D02*
X140370550Y-67581942D01*
X140370550Y-67581942D02*
X140370550Y-66772419D01*
X140584837Y-67724800D02*
X140656265Y-67772419D01*
X140656265Y-67772419D02*
X140775313Y-67772419D01*
X140775313Y-67772419D02*
X140822932Y-67724800D01*
X140822932Y-67724800D02*
X140846741Y-67677180D01*
X140846741Y-67677180D02*
X140870551Y-67581942D01*
X140870551Y-67581942D02*
X140870551Y-67486704D01*
X140870551Y-67486704D02*
X140846741Y-67391466D01*
X140846741Y-67391466D02*
X140822932Y-67343847D01*
X140822932Y-67343847D02*
X140775313Y-67296228D01*
X140775313Y-67296228D02*
X140680075Y-67248609D01*
X140680075Y-67248609D02*
X140632456Y-67200990D01*
X140632456Y-67200990D02*
X140608646Y-67153371D01*
X140608646Y-67153371D02*
X140584837Y-67058133D01*
X140584837Y-67058133D02*
X140584837Y-66962895D01*
X140584837Y-66962895D02*
X140608646Y-66867657D01*
X140608646Y-66867657D02*
X140632456Y-66820038D01*
X140632456Y-66820038D02*
X140680075Y-66772419D01*
X140680075Y-66772419D02*
X140799122Y-66772419D01*
X140799122Y-66772419D02*
X140870551Y-66820038D01*
X141251503Y-67248609D02*
X141322931Y-67296228D01*
X141322931Y-67296228D02*
X141346741Y-67343847D01*
X141346741Y-67343847D02*
X141370550Y-67439085D01*
X141370550Y-67439085D02*
X141370550Y-67581942D01*
X141370550Y-67581942D02*
X141346741Y-67677180D01*
X141346741Y-67677180D02*
X141322931Y-67724800D01*
X141322931Y-67724800D02*
X141275312Y-67772419D01*
X141275312Y-67772419D02*
X141084836Y-67772419D01*
X141084836Y-67772419D02*
X141084836Y-66772419D01*
X141084836Y-66772419D02*
X141251503Y-66772419D01*
X141251503Y-66772419D02*
X141299122Y-66820038D01*
X141299122Y-66820038D02*
X141322931Y-66867657D01*
X141322931Y-66867657D02*
X141346741Y-66962895D01*
X141346741Y-66962895D02*
X141346741Y-67058133D01*
X141346741Y-67058133D02*
X141322931Y-67153371D01*
X141322931Y-67153371D02*
X141299122Y-67200990D01*
X141299122Y-67200990D02*
X141251503Y-67248609D01*
X141251503Y-67248609D02*
X141084836Y-67248609D01*
D11*
X121522054Y-57957275D02*
X121522054Y-56957275D01*
X121522054Y-56957275D02*
X121712530Y-56957275D01*
X121712530Y-56957275D02*
X121826816Y-57004894D01*
X121826816Y-57004894D02*
X121903006Y-57100132D01*
X121903006Y-57100132D02*
X121941101Y-57195370D01*
X121941101Y-57195370D02*
X121979197Y-57385846D01*
X121979197Y-57385846D02*
X121979197Y-57528703D01*
X121979197Y-57528703D02*
X121941101Y-57719179D01*
X121941101Y-57719179D02*
X121903006Y-57814417D01*
X121903006Y-57814417D02*
X121826816Y-57909656D01*
X121826816Y-57909656D02*
X121712530Y-57957275D01*
X121712530Y-57957275D02*
X121522054Y-57957275D01*
X122626816Y-57909656D02*
X122550625Y-57957275D01*
X122550625Y-57957275D02*
X122398244Y-57957275D01*
X122398244Y-57957275D02*
X122322054Y-57909656D01*
X122322054Y-57909656D02*
X122283958Y-57814417D01*
X122283958Y-57814417D02*
X122283958Y-57433465D01*
X122283958Y-57433465D02*
X122322054Y-57338227D01*
X122322054Y-57338227D02*
X122398244Y-57290608D01*
X122398244Y-57290608D02*
X122550625Y-57290608D01*
X122550625Y-57290608D02*
X122626816Y-57338227D01*
X122626816Y-57338227D02*
X122664911Y-57433465D01*
X122664911Y-57433465D02*
X122664911Y-57528703D01*
X122664911Y-57528703D02*
X122283958Y-57623941D01*
X122969672Y-57909656D02*
X123045863Y-57957275D01*
X123045863Y-57957275D02*
X123198244Y-57957275D01*
X123198244Y-57957275D02*
X123274434Y-57909656D01*
X123274434Y-57909656D02*
X123312530Y-57814417D01*
X123312530Y-57814417D02*
X123312530Y-57766798D01*
X123312530Y-57766798D02*
X123274434Y-57671560D01*
X123274434Y-57671560D02*
X123198244Y-57623941D01*
X123198244Y-57623941D02*
X123083958Y-57623941D01*
X123083958Y-57623941D02*
X123007768Y-57576322D01*
X123007768Y-57576322D02*
X122969672Y-57481084D01*
X122969672Y-57481084D02*
X122969672Y-57433465D01*
X122969672Y-57433465D02*
X123007768Y-57338227D01*
X123007768Y-57338227D02*
X123083958Y-57290608D01*
X123083958Y-57290608D02*
X123198244Y-57290608D01*
X123198244Y-57290608D02*
X123274434Y-57338227D01*
X123655387Y-57957275D02*
X123655387Y-57290608D01*
X123655387Y-56957275D02*
X123617291Y-57004894D01*
X123617291Y-57004894D02*
X123655387Y-57052513D01*
X123655387Y-57052513D02*
X123693482Y-57004894D01*
X123693482Y-57004894D02*
X123655387Y-56957275D01*
X123655387Y-56957275D02*
X123655387Y-57052513D01*
X124379196Y-57290608D02*
X124379196Y-58100132D01*
X124379196Y-58100132D02*
X124341101Y-58195370D01*
X124341101Y-58195370D02*
X124303005Y-58242989D01*
X124303005Y-58242989D02*
X124226815Y-58290608D01*
X124226815Y-58290608D02*
X124112529Y-58290608D01*
X124112529Y-58290608D02*
X124036339Y-58242989D01*
X124379196Y-57909656D02*
X124303005Y-57957275D01*
X124303005Y-57957275D02*
X124150624Y-57957275D01*
X124150624Y-57957275D02*
X124074434Y-57909656D01*
X124074434Y-57909656D02*
X124036339Y-57862036D01*
X124036339Y-57862036D02*
X123998243Y-57766798D01*
X123998243Y-57766798D02*
X123998243Y-57481084D01*
X123998243Y-57481084D02*
X124036339Y-57385846D01*
X124036339Y-57385846D02*
X124074434Y-57338227D01*
X124074434Y-57338227D02*
X124150624Y-57290608D01*
X124150624Y-57290608D02*
X124303005Y-57290608D01*
X124303005Y-57290608D02*
X124379196Y-57338227D01*
X124760149Y-57290608D02*
X124760149Y-57957275D01*
X124760149Y-57385846D02*
X124798244Y-57338227D01*
X124798244Y-57338227D02*
X124874434Y-57290608D01*
X124874434Y-57290608D02*
X124988720Y-57290608D01*
X124988720Y-57290608D02*
X125064911Y-57338227D01*
X125064911Y-57338227D02*
X125103006Y-57433465D01*
X125103006Y-57433465D02*
X125103006Y-57957275D01*
X125788721Y-57909656D02*
X125712530Y-57957275D01*
X125712530Y-57957275D02*
X125560149Y-57957275D01*
X125560149Y-57957275D02*
X125483959Y-57909656D01*
X125483959Y-57909656D02*
X125445863Y-57814417D01*
X125445863Y-57814417D02*
X125445863Y-57433465D01*
X125445863Y-57433465D02*
X125483959Y-57338227D01*
X125483959Y-57338227D02*
X125560149Y-57290608D01*
X125560149Y-57290608D02*
X125712530Y-57290608D01*
X125712530Y-57290608D02*
X125788721Y-57338227D01*
X125788721Y-57338227D02*
X125826816Y-57433465D01*
X125826816Y-57433465D02*
X125826816Y-57528703D01*
X125826816Y-57528703D02*
X125445863Y-57623941D01*
X126512530Y-57957275D02*
X126512530Y-56957275D01*
X126512530Y-57909656D02*
X126436339Y-57957275D01*
X126436339Y-57957275D02*
X126283958Y-57957275D01*
X126283958Y-57957275D02*
X126207768Y-57909656D01*
X126207768Y-57909656D02*
X126169673Y-57862036D01*
X126169673Y-57862036D02*
X126131577Y-57766798D01*
X126131577Y-57766798D02*
X126131577Y-57481084D01*
X126131577Y-57481084D02*
X126169673Y-57385846D01*
X126169673Y-57385846D02*
X126207768Y-57338227D01*
X126207768Y-57338227D02*
X126283958Y-57290608D01*
X126283958Y-57290608D02*
X126436339Y-57290608D01*
X126436339Y-57290608D02*
X126512530Y-57338227D01*
X127503007Y-57957275D02*
X127503007Y-56957275D01*
X127503007Y-57338227D02*
X127579197Y-57290608D01*
X127579197Y-57290608D02*
X127731578Y-57290608D01*
X127731578Y-57290608D02*
X127807769Y-57338227D01*
X127807769Y-57338227D02*
X127845864Y-57385846D01*
X127845864Y-57385846D02*
X127883959Y-57481084D01*
X127883959Y-57481084D02*
X127883959Y-57766798D01*
X127883959Y-57766798D02*
X127845864Y-57862036D01*
X127845864Y-57862036D02*
X127807769Y-57909656D01*
X127807769Y-57909656D02*
X127731578Y-57957275D01*
X127731578Y-57957275D02*
X127579197Y-57957275D01*
X127579197Y-57957275D02*
X127503007Y-57909656D01*
X128150626Y-57290608D02*
X128341102Y-57957275D01*
X128531579Y-57290608D02*
X128341102Y-57957275D01*
X128341102Y-57957275D02*
X128264912Y-58195370D01*
X128264912Y-58195370D02*
X128226817Y-58242989D01*
X128226817Y-58242989D02*
X128150626Y-58290608D01*
X129445865Y-57957275D02*
X129445865Y-56957275D01*
X129445865Y-56957275D02*
X129712531Y-57671560D01*
X129712531Y-57671560D02*
X129979198Y-56957275D01*
X129979198Y-56957275D02*
X129979198Y-57957275D01*
X130703008Y-57957275D02*
X130703008Y-57433465D01*
X130703008Y-57433465D02*
X130664913Y-57338227D01*
X130664913Y-57338227D02*
X130588722Y-57290608D01*
X130588722Y-57290608D02*
X130436341Y-57290608D01*
X130436341Y-57290608D02*
X130360151Y-57338227D01*
X130703008Y-57909656D02*
X130626817Y-57957275D01*
X130626817Y-57957275D02*
X130436341Y-57957275D01*
X130436341Y-57957275D02*
X130360151Y-57909656D01*
X130360151Y-57909656D02*
X130322055Y-57814417D01*
X130322055Y-57814417D02*
X130322055Y-57719179D01*
X130322055Y-57719179D02*
X130360151Y-57623941D01*
X130360151Y-57623941D02*
X130436341Y-57576322D01*
X130436341Y-57576322D02*
X130626817Y-57576322D01*
X130626817Y-57576322D02*
X130703008Y-57528703D01*
X131083961Y-57290608D02*
X131083961Y-57957275D01*
X131083961Y-57385846D02*
X131122056Y-57338227D01*
X131122056Y-57338227D02*
X131198246Y-57290608D01*
X131198246Y-57290608D02*
X131312532Y-57290608D01*
X131312532Y-57290608D02*
X131388723Y-57338227D01*
X131388723Y-57338227D02*
X131426818Y-57433465D01*
X131426818Y-57433465D02*
X131426818Y-57957275D01*
X132150628Y-57290608D02*
X132150628Y-57957275D01*
X131807771Y-57290608D02*
X131807771Y-57814417D01*
X131807771Y-57814417D02*
X131845866Y-57909656D01*
X131845866Y-57909656D02*
X131922056Y-57957275D01*
X131922056Y-57957275D02*
X132036342Y-57957275D01*
X132036342Y-57957275D02*
X132112533Y-57909656D01*
X132112533Y-57909656D02*
X132150628Y-57862036D01*
X132836343Y-57909656D02*
X132760152Y-57957275D01*
X132760152Y-57957275D02*
X132607771Y-57957275D01*
X132607771Y-57957275D02*
X132531581Y-57909656D01*
X132531581Y-57909656D02*
X132493485Y-57814417D01*
X132493485Y-57814417D02*
X132493485Y-57433465D01*
X132493485Y-57433465D02*
X132531581Y-57338227D01*
X132531581Y-57338227D02*
X132607771Y-57290608D01*
X132607771Y-57290608D02*
X132760152Y-57290608D01*
X132760152Y-57290608D02*
X132836343Y-57338227D01*
X132836343Y-57338227D02*
X132874438Y-57433465D01*
X132874438Y-57433465D02*
X132874438Y-57528703D01*
X132874438Y-57528703D02*
X132493485Y-57623941D01*
X133331580Y-57957275D02*
X133255390Y-57909656D01*
X133255390Y-57909656D02*
X133217295Y-57814417D01*
X133217295Y-57814417D02*
X133217295Y-56957275D01*
X134703010Y-57957275D02*
X134436343Y-57481084D01*
X134245867Y-57957275D02*
X134245867Y-56957275D01*
X134245867Y-56957275D02*
X134550629Y-56957275D01*
X134550629Y-56957275D02*
X134626819Y-57004894D01*
X134626819Y-57004894D02*
X134664914Y-57052513D01*
X134664914Y-57052513D02*
X134703010Y-57147751D01*
X134703010Y-57147751D02*
X134703010Y-57290608D01*
X134703010Y-57290608D02*
X134664914Y-57385846D01*
X134664914Y-57385846D02*
X134626819Y-57433465D01*
X134626819Y-57433465D02*
X134550629Y-57481084D01*
X134550629Y-57481084D02*
X134245867Y-57481084D01*
X135045867Y-57957275D02*
X135045867Y-57290608D01*
X135045867Y-56957275D02*
X135007771Y-57004894D01*
X135007771Y-57004894D02*
X135045867Y-57052513D01*
X135045867Y-57052513D02*
X135083962Y-57004894D01*
X135083962Y-57004894D02*
X135045867Y-56957275D01*
X135045867Y-56957275D02*
X135045867Y-57052513D01*
X135731581Y-57909656D02*
X135655390Y-57957275D01*
X135655390Y-57957275D02*
X135503009Y-57957275D01*
X135503009Y-57957275D02*
X135426819Y-57909656D01*
X135426819Y-57909656D02*
X135388723Y-57814417D01*
X135388723Y-57814417D02*
X135388723Y-57433465D01*
X135388723Y-57433465D02*
X135426819Y-57338227D01*
X135426819Y-57338227D02*
X135503009Y-57290608D01*
X135503009Y-57290608D02*
X135655390Y-57290608D01*
X135655390Y-57290608D02*
X135731581Y-57338227D01*
X135731581Y-57338227D02*
X135769676Y-57433465D01*
X135769676Y-57433465D02*
X135769676Y-57528703D01*
X135769676Y-57528703D02*
X135388723Y-57623941D01*
X136074437Y-57909656D02*
X136150628Y-57957275D01*
X136150628Y-57957275D02*
X136303009Y-57957275D01*
X136303009Y-57957275D02*
X136379199Y-57909656D01*
X136379199Y-57909656D02*
X136417295Y-57814417D01*
X136417295Y-57814417D02*
X136417295Y-57766798D01*
X136417295Y-57766798D02*
X136379199Y-57671560D01*
X136379199Y-57671560D02*
X136303009Y-57623941D01*
X136303009Y-57623941D02*
X136188723Y-57623941D01*
X136188723Y-57623941D02*
X136112533Y-57576322D01*
X136112533Y-57576322D02*
X136074437Y-57481084D01*
X136074437Y-57481084D02*
X136074437Y-57433465D01*
X136074437Y-57433465D02*
X136112533Y-57338227D01*
X136112533Y-57338227D02*
X136188723Y-57290608D01*
X136188723Y-57290608D02*
X136303009Y-57290608D01*
X136303009Y-57290608D02*
X136379199Y-57338227D01*
X138017295Y-57195370D02*
X137941104Y-57147751D01*
X137941104Y-57147751D02*
X137788723Y-57147751D01*
X137788723Y-57147751D02*
X137712533Y-57195370D01*
X137712533Y-57195370D02*
X137636342Y-57290608D01*
X137636342Y-57290608D02*
X137598247Y-57385846D01*
X137598247Y-57385846D02*
X137598247Y-57576322D01*
X137598247Y-57576322D02*
X137636342Y-57671560D01*
X137636342Y-57671560D02*
X137712533Y-57766798D01*
X137712533Y-57766798D02*
X137788723Y-57814417D01*
X137788723Y-57814417D02*
X137941104Y-57814417D01*
X137941104Y-57814417D02*
X138017295Y-57766798D01*
X137864914Y-56814417D02*
X137674438Y-56862036D01*
X137674438Y-56862036D02*
X137483961Y-57004894D01*
X137483961Y-57004894D02*
X137369676Y-57242989D01*
X137369676Y-57242989D02*
X137331580Y-57481084D01*
X137331580Y-57481084D02*
X137369676Y-57719179D01*
X137369676Y-57719179D02*
X137483961Y-57957275D01*
X137483961Y-57957275D02*
X137674438Y-58100132D01*
X137674438Y-58100132D02*
X137864914Y-58147751D01*
X137864914Y-58147751D02*
X138055390Y-58100132D01*
X138055390Y-58100132D02*
X138245866Y-57957275D01*
X138245866Y-57957275D02*
X138360152Y-57719179D01*
X138360152Y-57719179D02*
X138398247Y-57481084D01*
X138398247Y-57481084D02*
X138360152Y-57242989D01*
X138360152Y-57242989D02*
X138245866Y-57004894D01*
X138245866Y-57004894D02*
X138055390Y-56862036D01*
X138055390Y-56862036D02*
X137864914Y-56814417D01*
X138703009Y-57052513D02*
X138741105Y-57004894D01*
X138741105Y-57004894D02*
X138817295Y-56957275D01*
X138817295Y-56957275D02*
X139007771Y-56957275D01*
X139007771Y-56957275D02*
X139083962Y-57004894D01*
X139083962Y-57004894D02*
X139122057Y-57052513D01*
X139122057Y-57052513D02*
X139160152Y-57147751D01*
X139160152Y-57147751D02*
X139160152Y-57242989D01*
X139160152Y-57242989D02*
X139122057Y-57385846D01*
X139122057Y-57385846D02*
X138664914Y-57957275D01*
X138664914Y-57957275D02*
X139160152Y-57957275D01*
X139655391Y-56957275D02*
X139731581Y-56957275D01*
X139731581Y-56957275D02*
X139807772Y-57004894D01*
X139807772Y-57004894D02*
X139845867Y-57052513D01*
X139845867Y-57052513D02*
X139883962Y-57147751D01*
X139883962Y-57147751D02*
X139922057Y-57338227D01*
X139922057Y-57338227D02*
X139922057Y-57576322D01*
X139922057Y-57576322D02*
X139883962Y-57766798D01*
X139883962Y-57766798D02*
X139845867Y-57862036D01*
X139845867Y-57862036D02*
X139807772Y-57909656D01*
X139807772Y-57909656D02*
X139731581Y-57957275D01*
X139731581Y-57957275D02*
X139655391Y-57957275D01*
X139655391Y-57957275D02*
X139579200Y-57909656D01*
X139579200Y-57909656D02*
X139541105Y-57862036D01*
X139541105Y-57862036D02*
X139503010Y-57766798D01*
X139503010Y-57766798D02*
X139464914Y-57576322D01*
X139464914Y-57576322D02*
X139464914Y-57338227D01*
X139464914Y-57338227D02*
X139503010Y-57147751D01*
X139503010Y-57147751D02*
X139541105Y-57052513D01*
X139541105Y-57052513D02*
X139579200Y-57004894D01*
X139579200Y-57004894D02*
X139655391Y-56957275D01*
X140226819Y-57052513D02*
X140264915Y-57004894D01*
X140264915Y-57004894D02*
X140341105Y-56957275D01*
X140341105Y-56957275D02*
X140531581Y-56957275D01*
X140531581Y-56957275D02*
X140607772Y-57004894D01*
X140607772Y-57004894D02*
X140645867Y-57052513D01*
X140645867Y-57052513D02*
X140683962Y-57147751D01*
X140683962Y-57147751D02*
X140683962Y-57242989D01*
X140683962Y-57242989D02*
X140645867Y-57385846D01*
X140645867Y-57385846D02*
X140188724Y-57957275D01*
X140188724Y-57957275D02*
X140683962Y-57957275D01*
X141407772Y-56957275D02*
X141026820Y-56957275D01*
X141026820Y-56957275D02*
X140988724Y-57433465D01*
X140988724Y-57433465D02*
X141026820Y-57385846D01*
X141026820Y-57385846D02*
X141103010Y-57338227D01*
X141103010Y-57338227D02*
X141293486Y-57338227D01*
X141293486Y-57338227D02*
X141369677Y-57385846D01*
X141369677Y-57385846D02*
X141407772Y-57433465D01*
X141407772Y-57433465D02*
X141445867Y-57528703D01*
X141445867Y-57528703D02*
X141445867Y-57766798D01*
X141445867Y-57766798D02*
X141407772Y-57862036D01*
X141407772Y-57862036D02*
X141369677Y-57909656D01*
X141369677Y-57909656D02*
X141293486Y-57957275D01*
X141293486Y-57957275D02*
X141103010Y-57957275D01*
X141103010Y-57957275D02*
X141026820Y-57909656D01*
X141026820Y-57909656D02*
X140988724Y-57862036D01*
X125141101Y-59567219D02*
X125141101Y-58567219D01*
X125141101Y-59043409D02*
X125598244Y-59043409D01*
X125598244Y-59567219D02*
X125598244Y-58567219D01*
X126322053Y-59567219D02*
X126322053Y-59043409D01*
X126322053Y-59043409D02*
X126283958Y-58948171D01*
X126283958Y-58948171D02*
X126207767Y-58900552D01*
X126207767Y-58900552D02*
X126055386Y-58900552D01*
X126055386Y-58900552D02*
X125979196Y-58948171D01*
X126322053Y-59519600D02*
X126245862Y-59567219D01*
X126245862Y-59567219D02*
X126055386Y-59567219D01*
X126055386Y-59567219D02*
X125979196Y-59519600D01*
X125979196Y-59519600D02*
X125941100Y-59424361D01*
X125941100Y-59424361D02*
X125941100Y-59329123D01*
X125941100Y-59329123D02*
X125979196Y-59233885D01*
X125979196Y-59233885D02*
X126055386Y-59186266D01*
X126055386Y-59186266D02*
X126245862Y-59186266D01*
X126245862Y-59186266D02*
X126322053Y-59138647D01*
X126703006Y-58900552D02*
X126703006Y-59567219D01*
X126703006Y-58995790D02*
X126741101Y-58948171D01*
X126741101Y-58948171D02*
X126817291Y-58900552D01*
X126817291Y-58900552D02*
X126931577Y-58900552D01*
X126931577Y-58900552D02*
X127007768Y-58948171D01*
X127007768Y-58948171D02*
X127045863Y-59043409D01*
X127045863Y-59043409D02*
X127045863Y-59567219D01*
X127769673Y-59567219D02*
X127769673Y-58567219D01*
X127769673Y-59519600D02*
X127693482Y-59567219D01*
X127693482Y-59567219D02*
X127541101Y-59567219D01*
X127541101Y-59567219D02*
X127464911Y-59519600D01*
X127464911Y-59519600D02*
X127426816Y-59471980D01*
X127426816Y-59471980D02*
X127388720Y-59376742D01*
X127388720Y-59376742D02*
X127388720Y-59091028D01*
X127388720Y-59091028D02*
X127426816Y-58995790D01*
X127426816Y-58995790D02*
X127464911Y-58948171D01*
X127464911Y-58948171D02*
X127541101Y-58900552D01*
X127541101Y-58900552D02*
X127693482Y-58900552D01*
X127693482Y-58900552D02*
X127769673Y-58948171D01*
X128264911Y-59567219D02*
X128188721Y-59519600D01*
X128188721Y-59519600D02*
X128150626Y-59424361D01*
X128150626Y-59424361D02*
X128150626Y-58567219D01*
X128874436Y-59519600D02*
X128798245Y-59567219D01*
X128798245Y-59567219D02*
X128645864Y-59567219D01*
X128645864Y-59567219D02*
X128569674Y-59519600D01*
X128569674Y-59519600D02*
X128531578Y-59424361D01*
X128531578Y-59424361D02*
X128531578Y-59043409D01*
X128531578Y-59043409D02*
X128569674Y-58948171D01*
X128569674Y-58948171D02*
X128645864Y-58900552D01*
X128645864Y-58900552D02*
X128798245Y-58900552D01*
X128798245Y-58900552D02*
X128874436Y-58948171D01*
X128874436Y-58948171D02*
X128912531Y-59043409D01*
X128912531Y-59043409D02*
X128912531Y-59138647D01*
X128912531Y-59138647D02*
X128531578Y-59233885D01*
X129788721Y-58900552D02*
X129941102Y-59567219D01*
X129941102Y-59567219D02*
X130093483Y-59091028D01*
X130093483Y-59091028D02*
X130245864Y-59567219D01*
X130245864Y-59567219D02*
X130398245Y-58900552D01*
X130703007Y-59567219D02*
X130703007Y-58900552D01*
X130703007Y-58567219D02*
X130664911Y-58614838D01*
X130664911Y-58614838D02*
X130703007Y-58662457D01*
X130703007Y-58662457D02*
X130741102Y-58614838D01*
X130741102Y-58614838D02*
X130703007Y-58567219D01*
X130703007Y-58567219D02*
X130703007Y-58662457D01*
X130969673Y-58900552D02*
X131274435Y-58900552D01*
X131083959Y-58567219D02*
X131083959Y-59424361D01*
X131083959Y-59424361D02*
X131122054Y-59519600D01*
X131122054Y-59519600D02*
X131198244Y-59567219D01*
X131198244Y-59567219D02*
X131274435Y-59567219D01*
X131541102Y-59567219D02*
X131541102Y-58567219D01*
X131883959Y-59567219D02*
X131883959Y-59043409D01*
X131883959Y-59043409D02*
X131845864Y-58948171D01*
X131845864Y-58948171D02*
X131769673Y-58900552D01*
X131769673Y-58900552D02*
X131655387Y-58900552D01*
X131655387Y-58900552D02*
X131579197Y-58948171D01*
X131579197Y-58948171D02*
X131541102Y-58995790D01*
X132798245Y-58900552D02*
X132988721Y-59567219D01*
X132988721Y-59567219D02*
X133179198Y-58900552D01*
X133598245Y-59567219D02*
X133522055Y-59519600D01*
X133522055Y-59519600D02*
X133483960Y-59471980D01*
X133483960Y-59471980D02*
X133445864Y-59376742D01*
X133445864Y-59376742D02*
X133445864Y-59091028D01*
X133445864Y-59091028D02*
X133483960Y-58995790D01*
X133483960Y-58995790D02*
X133522055Y-58948171D01*
X133522055Y-58948171D02*
X133598245Y-58900552D01*
X133598245Y-58900552D02*
X133712531Y-58900552D01*
X133712531Y-58900552D02*
X133788722Y-58948171D01*
X133788722Y-58948171D02*
X133826817Y-58995790D01*
X133826817Y-58995790D02*
X133864912Y-59091028D01*
X133864912Y-59091028D02*
X133864912Y-59376742D01*
X133864912Y-59376742D02*
X133826817Y-59471980D01*
X133826817Y-59471980D02*
X133788722Y-59519600D01*
X133788722Y-59519600D02*
X133712531Y-59567219D01*
X133712531Y-59567219D02*
X133598245Y-59567219D01*
X134322055Y-59567219D02*
X134245865Y-59519600D01*
X134245865Y-59519600D02*
X134207770Y-59424361D01*
X134207770Y-59424361D02*
X134207770Y-58567219D01*
X134512532Y-58900552D02*
X134817294Y-58900552D01*
X134626818Y-58567219D02*
X134626818Y-59424361D01*
X134626818Y-59424361D02*
X134664913Y-59519600D01*
X134664913Y-59519600D02*
X134741103Y-59567219D01*
X134741103Y-59567219D02*
X134817294Y-59567219D01*
X135426818Y-59567219D02*
X135426818Y-59043409D01*
X135426818Y-59043409D02*
X135388723Y-58948171D01*
X135388723Y-58948171D02*
X135312532Y-58900552D01*
X135312532Y-58900552D02*
X135160151Y-58900552D01*
X135160151Y-58900552D02*
X135083961Y-58948171D01*
X135426818Y-59519600D02*
X135350627Y-59567219D01*
X135350627Y-59567219D02*
X135160151Y-59567219D01*
X135160151Y-59567219D02*
X135083961Y-59519600D01*
X135083961Y-59519600D02*
X135045865Y-59424361D01*
X135045865Y-59424361D02*
X135045865Y-59329123D01*
X135045865Y-59329123D02*
X135083961Y-59233885D01*
X135083961Y-59233885D02*
X135160151Y-59186266D01*
X135160151Y-59186266D02*
X135350627Y-59186266D01*
X135350627Y-59186266D02*
X135426818Y-59138647D01*
X136150628Y-58900552D02*
X136150628Y-59710076D01*
X136150628Y-59710076D02*
X136112533Y-59805314D01*
X136112533Y-59805314D02*
X136074437Y-59852933D01*
X136074437Y-59852933D02*
X135998247Y-59900552D01*
X135998247Y-59900552D02*
X135883961Y-59900552D01*
X135883961Y-59900552D02*
X135807771Y-59852933D01*
X136150628Y-59519600D02*
X136074437Y-59567219D01*
X136074437Y-59567219D02*
X135922056Y-59567219D01*
X135922056Y-59567219D02*
X135845866Y-59519600D01*
X135845866Y-59519600D02*
X135807771Y-59471980D01*
X135807771Y-59471980D02*
X135769675Y-59376742D01*
X135769675Y-59376742D02*
X135769675Y-59091028D01*
X135769675Y-59091028D02*
X135807771Y-58995790D01*
X135807771Y-58995790D02*
X135845866Y-58948171D01*
X135845866Y-58948171D02*
X135922056Y-58900552D01*
X135922056Y-58900552D02*
X136074437Y-58900552D01*
X136074437Y-58900552D02*
X136150628Y-58948171D01*
X136836343Y-59519600D02*
X136760152Y-59567219D01*
X136760152Y-59567219D02*
X136607771Y-59567219D01*
X136607771Y-59567219D02*
X136531581Y-59519600D01*
X136531581Y-59519600D02*
X136493485Y-59424361D01*
X136493485Y-59424361D02*
X136493485Y-59043409D01*
X136493485Y-59043409D02*
X136531581Y-58948171D01*
X136531581Y-58948171D02*
X136607771Y-58900552D01*
X136607771Y-58900552D02*
X136760152Y-58900552D01*
X136760152Y-58900552D02*
X136836343Y-58948171D01*
X136836343Y-58948171D02*
X136874438Y-59043409D01*
X136874438Y-59043409D02*
X136874438Y-59138647D01*
X136874438Y-59138647D02*
X136493485Y-59233885D01*
D10*
X120572419Y-74400877D02*
X120572419Y-74553258D01*
X120572419Y-74553258D02*
X120620038Y-74629449D01*
X120620038Y-74629449D02*
X120667657Y-74667544D01*
X120667657Y-74667544D02*
X120810514Y-74743734D01*
X120810514Y-74743734D02*
X121000990Y-74781830D01*
X121000990Y-74781830D02*
X121381942Y-74781830D01*
X121381942Y-74781830D02*
X121477180Y-74743734D01*
X121477180Y-74743734D02*
X121524800Y-74705639D01*
X121524800Y-74705639D02*
X121572419Y-74629449D01*
X121572419Y-74629449D02*
X121572419Y-74477068D01*
X121572419Y-74477068D02*
X121524800Y-74400877D01*
X121524800Y-74400877D02*
X121477180Y-74362782D01*
X121477180Y-74362782D02*
X121381942Y-74324687D01*
X121381942Y-74324687D02*
X121143847Y-74324687D01*
X121143847Y-74324687D02*
X121048609Y-74362782D01*
X121048609Y-74362782D02*
X121000990Y-74400877D01*
X121000990Y-74400877D02*
X120953371Y-74477068D01*
X120953371Y-74477068D02*
X120953371Y-74629449D01*
X120953371Y-74629449D02*
X121000990Y-74705639D01*
X121000990Y-74705639D02*
X121048609Y-74743734D01*
X121048609Y-74743734D02*
X121143847Y-74781830D01*
X121572419Y-74058020D02*
X120905752Y-73638972D01*
X120905752Y-74058020D02*
X121572419Y-73638972D01*
X120572419Y-73410401D02*
X120572419Y-72915163D01*
X120572419Y-72915163D02*
X120953371Y-73181829D01*
X120953371Y-73181829D02*
X120953371Y-73067544D01*
X120953371Y-73067544D02*
X121000990Y-72991353D01*
X121000990Y-72991353D02*
X121048609Y-72953258D01*
X121048609Y-72953258D02*
X121143847Y-72915163D01*
X121143847Y-72915163D02*
X121381942Y-72915163D01*
X121381942Y-72915163D02*
X121477180Y-72953258D01*
X121477180Y-72953258D02*
X121524800Y-72991353D01*
X121524800Y-72991353D02*
X121572419Y-73067544D01*
X121572419Y-73067544D02*
X121572419Y-73296115D01*
X121572419Y-73296115D02*
X121524800Y-73372306D01*
X121524800Y-73372306D02*
X121477180Y-73410401D01*
X120572419Y-72686591D02*
X121572419Y-72419924D01*
X121572419Y-72419924D02*
X120572419Y-72153258D01*
X120572419Y-71962782D02*
X120572419Y-71467544D01*
X120572419Y-71467544D02*
X120953371Y-71734210D01*
X120953371Y-71734210D02*
X120953371Y-71619925D01*
X120953371Y-71619925D02*
X121000990Y-71543734D01*
X121000990Y-71543734D02*
X121048609Y-71505639D01*
X121048609Y-71505639D02*
X121143847Y-71467544D01*
X121143847Y-71467544D02*
X121381942Y-71467544D01*
X121381942Y-71467544D02*
X121477180Y-71505639D01*
X121477180Y-71505639D02*
X121524800Y-71543734D01*
X121524800Y-71543734D02*
X121572419Y-71619925D01*
X121572419Y-71619925D02*
X121572419Y-71848496D01*
X121572419Y-71848496D02*
X121524800Y-71924687D01*
X121524800Y-71924687D02*
X121477180Y-71962782D01*
D12*
X159848902Y-88104452D02*
X159848902Y-88771119D01*
X159610807Y-87723500D02*
X159372712Y-88437785D01*
X159372712Y-88437785D02*
X159991759Y-88437785D01*
X160372712Y-88771119D02*
X160372712Y-87771119D01*
X160944140Y-88771119D02*
X160515569Y-88199690D01*
X160944140Y-87771119D02*
X160372712Y-88342547D01*
X161277474Y-87771119D02*
X161944140Y-87771119D01*
X161944140Y-87771119D02*
X161515569Y-88771119D01*
D10*
X143584836Y-94372419D02*
X143584836Y-93372419D01*
X143584836Y-93753371D02*
X143632455Y-93705752D01*
X143632455Y-93705752D02*
X143727693Y-93705752D01*
X143727693Y-93705752D02*
X143775312Y-93753371D01*
X143775312Y-93753371D02*
X143799122Y-93800990D01*
X143799122Y-93800990D02*
X143822931Y-93896228D01*
X143822931Y-93896228D02*
X143822931Y-94181942D01*
X143822931Y-94181942D02*
X143799122Y-94277180D01*
X143799122Y-94277180D02*
X143775312Y-94324800D01*
X143775312Y-94324800D02*
X143727693Y-94372419D01*
X143727693Y-94372419D02*
X143632455Y-94372419D01*
X143632455Y-94372419D02*
X143584836Y-94324800D01*
X144251503Y-94372419D02*
X144251503Y-93848609D01*
X144251503Y-93848609D02*
X144227693Y-93753371D01*
X144227693Y-93753371D02*
X144180074Y-93705752D01*
X144180074Y-93705752D02*
X144084836Y-93705752D01*
X144084836Y-93705752D02*
X144037217Y-93753371D01*
X144251503Y-94324800D02*
X144203884Y-94372419D01*
X144203884Y-94372419D02*
X144084836Y-94372419D01*
X144084836Y-94372419D02*
X144037217Y-94324800D01*
X144037217Y-94324800D02*
X144013408Y-94229561D01*
X144013408Y-94229561D02*
X144013408Y-94134323D01*
X144013408Y-94134323D02*
X144037217Y-94039085D01*
X144037217Y-94039085D02*
X144084836Y-93991466D01*
X144084836Y-93991466D02*
X144203884Y-93991466D01*
X144203884Y-93991466D02*
X144251503Y-93943847D01*
X144418170Y-93705752D02*
X144608646Y-93705752D01*
X144489598Y-93372419D02*
X144489598Y-94229561D01*
X144489598Y-94229561D02*
X144513408Y-94324800D01*
X144513408Y-94324800D02*
X144561027Y-94372419D01*
X144561027Y-94372419D02*
X144608646Y-94372419D01*
X144703884Y-93705752D02*
X144894360Y-93705752D01*
X144775312Y-93372419D02*
X144775312Y-94229561D01*
X144775312Y-94229561D02*
X144799122Y-94324800D01*
X144799122Y-94324800D02*
X144846741Y-94372419D01*
X144846741Y-94372419D02*
X144894360Y-94372419D01*
X145251502Y-94324800D02*
X145203883Y-94372419D01*
X145203883Y-94372419D02*
X145108645Y-94372419D01*
X145108645Y-94372419D02*
X145061026Y-94324800D01*
X145061026Y-94324800D02*
X145037217Y-94229561D01*
X145037217Y-94229561D02*
X145037217Y-93848609D01*
X145037217Y-93848609D02*
X145061026Y-93753371D01*
X145061026Y-93753371D02*
X145108645Y-93705752D01*
X145108645Y-93705752D02*
X145203883Y-93705752D01*
X145203883Y-93705752D02*
X145251502Y-93753371D01*
X145251502Y-93753371D02*
X145275312Y-93848609D01*
X145275312Y-93848609D02*
X145275312Y-93943847D01*
X145275312Y-93943847D02*
X145037217Y-94039085D01*
X145489597Y-94372419D02*
X145489597Y-93705752D01*
X145489597Y-93896228D02*
X145513407Y-93800990D01*
X145513407Y-93800990D02*
X145537216Y-93753371D01*
X145537216Y-93753371D02*
X145584835Y-93705752D01*
X145584835Y-93705752D02*
X145632454Y-93705752D01*
X145751502Y-93705752D02*
X145870550Y-94372419D01*
X145989597Y-93705752D02*
X145870550Y-94372419D01*
X145870550Y-94372419D02*
X145822931Y-94610514D01*
X145822931Y-94610514D02*
X145799121Y-94658133D01*
X145799121Y-94658133D02*
X145751502Y-94705752D01*
X146703882Y-94753371D02*
X146680073Y-94705752D01*
X146680073Y-94705752D02*
X146632454Y-94562895D01*
X146632454Y-94562895D02*
X146608644Y-94467657D01*
X146608644Y-94467657D02*
X146584835Y-94324800D01*
X146584835Y-94324800D02*
X146561025Y-94086704D01*
X146561025Y-94086704D02*
X146561025Y-93896228D01*
X146561025Y-93896228D02*
X146584835Y-93658133D01*
X146584835Y-93658133D02*
X146608644Y-93515276D01*
X146608644Y-93515276D02*
X146632454Y-93420038D01*
X146632454Y-93420038D02*
X146680073Y-93277180D01*
X146680073Y-93277180D02*
X146703882Y-93229561D01*
X146846739Y-93372419D02*
X147156263Y-93372419D01*
X147156263Y-93372419D02*
X146989596Y-93753371D01*
X146989596Y-93753371D02*
X147061025Y-93753371D01*
X147061025Y-93753371D02*
X147108644Y-93800990D01*
X147108644Y-93800990D02*
X147132453Y-93848609D01*
X147132453Y-93848609D02*
X147156263Y-93943847D01*
X147156263Y-93943847D02*
X147156263Y-94181942D01*
X147156263Y-94181942D02*
X147132453Y-94277180D01*
X147132453Y-94277180D02*
X147108644Y-94324800D01*
X147108644Y-94324800D02*
X147061025Y-94372419D01*
X147061025Y-94372419D02*
X146918168Y-94372419D01*
X146918168Y-94372419D02*
X146870549Y-94324800D01*
X146870549Y-94324800D02*
X146846739Y-94277180D01*
X147751500Y-93991466D02*
X148132453Y-93991466D01*
X148703881Y-93372419D02*
X149013405Y-93372419D01*
X149013405Y-93372419D02*
X148846738Y-93753371D01*
X148846738Y-93753371D02*
X148918167Y-93753371D01*
X148918167Y-93753371D02*
X148965786Y-93800990D01*
X148965786Y-93800990D02*
X148989595Y-93848609D01*
X148989595Y-93848609D02*
X149013405Y-93943847D01*
X149013405Y-93943847D02*
X149013405Y-94181942D01*
X149013405Y-94181942D02*
X148989595Y-94277180D01*
X148989595Y-94277180D02*
X148965786Y-94324800D01*
X148965786Y-94324800D02*
X148918167Y-94372419D01*
X148918167Y-94372419D02*
X148775310Y-94372419D01*
X148775310Y-94372419D02*
X148727691Y-94324800D01*
X148727691Y-94324800D02*
X148703881Y-94277180D01*
X149251500Y-94324800D02*
X149251500Y-94372419D01*
X149251500Y-94372419D02*
X149227690Y-94467657D01*
X149227690Y-94467657D02*
X149203881Y-94515276D01*
X149418166Y-93372419D02*
X149727690Y-93372419D01*
X149727690Y-93372419D02*
X149561023Y-93753371D01*
X149561023Y-93753371D02*
X149632452Y-93753371D01*
X149632452Y-93753371D02*
X149680071Y-93800990D01*
X149680071Y-93800990D02*
X149703880Y-93848609D01*
X149703880Y-93848609D02*
X149727690Y-93943847D01*
X149727690Y-93943847D02*
X149727690Y-94181942D01*
X149727690Y-94181942D02*
X149703880Y-94277180D01*
X149703880Y-94277180D02*
X149680071Y-94324800D01*
X149680071Y-94324800D02*
X149632452Y-94372419D01*
X149632452Y-94372419D02*
X149489595Y-94372419D01*
X149489595Y-94372419D02*
X149441976Y-94324800D01*
X149441976Y-94324800D02*
X149418166Y-94277180D01*
X149870547Y-93372419D02*
X150037213Y-94372419D01*
X150037213Y-94372419D02*
X150203880Y-93372419D01*
X150322927Y-94753371D02*
X150346737Y-94705752D01*
X150346737Y-94705752D02*
X150394356Y-94562895D01*
X150394356Y-94562895D02*
X150418165Y-94467657D01*
X150418165Y-94467657D02*
X150441975Y-94324800D01*
X150441975Y-94324800D02*
X150465784Y-94086704D01*
X150465784Y-94086704D02*
X150465784Y-93896228D01*
X150465784Y-93896228D02*
X150441975Y-93658133D01*
X150441975Y-93658133D02*
X150418165Y-93515276D01*
X150418165Y-93515276D02*
X150394356Y-93420038D01*
X150394356Y-93420038D02*
X150346737Y-93277180D01*
X150346737Y-93277180D02*
X150322927Y-93229561D01*
X123413408Y-87072419D02*
X123146741Y-86596228D01*
X122956265Y-87072419D02*
X122956265Y-86072419D01*
X122956265Y-86072419D02*
X123261027Y-86072419D01*
X123261027Y-86072419D02*
X123337217Y-86120038D01*
X123337217Y-86120038D02*
X123375312Y-86167657D01*
X123375312Y-86167657D02*
X123413408Y-86262895D01*
X123413408Y-86262895D02*
X123413408Y-86405752D01*
X123413408Y-86405752D02*
X123375312Y-86500990D01*
X123375312Y-86500990D02*
X123337217Y-86548609D01*
X123337217Y-86548609D02*
X123261027Y-86596228D01*
X123261027Y-86596228D02*
X122956265Y-86596228D01*
X123680074Y-86072419D02*
X124213408Y-87072419D01*
X124213408Y-86072419D02*
X123680074Y-87072419D01*
X125013408Y-86072419D02*
X125470551Y-86072419D01*
X125241979Y-87072419D02*
X125241979Y-86072419D01*
X125661027Y-86072419D02*
X126194361Y-87072419D01*
X126194361Y-86072419D02*
X125661027Y-87072419D01*
X127527694Y-86120038D02*
X127451504Y-86072419D01*
X127451504Y-86072419D02*
X127337218Y-86072419D01*
X127337218Y-86072419D02*
X127222932Y-86120038D01*
X127222932Y-86120038D02*
X127146742Y-86215276D01*
X127146742Y-86215276D02*
X127108647Y-86310514D01*
X127108647Y-86310514D02*
X127070551Y-86500990D01*
X127070551Y-86500990D02*
X127070551Y-86643847D01*
X127070551Y-86643847D02*
X127108647Y-86834323D01*
X127108647Y-86834323D02*
X127146742Y-86929561D01*
X127146742Y-86929561D02*
X127222932Y-87024800D01*
X127222932Y-87024800D02*
X127337218Y-87072419D01*
X127337218Y-87072419D02*
X127413409Y-87072419D01*
X127413409Y-87072419D02*
X127527694Y-87024800D01*
X127527694Y-87024800D02*
X127565790Y-86977180D01*
X127565790Y-86977180D02*
X127565790Y-86643847D01*
X127565790Y-86643847D02*
X127413409Y-86643847D01*
X127908647Y-87072419D02*
X127908647Y-86072419D01*
X127908647Y-86072419D02*
X128213409Y-86072419D01*
X128213409Y-86072419D02*
X128289599Y-86120038D01*
X128289599Y-86120038D02*
X128327694Y-86167657D01*
X128327694Y-86167657D02*
X128365790Y-86262895D01*
X128365790Y-86262895D02*
X128365790Y-86405752D01*
X128365790Y-86405752D02*
X128327694Y-86500990D01*
X128327694Y-86500990D02*
X128289599Y-86548609D01*
X128289599Y-86548609D02*
X128213409Y-86596228D01*
X128213409Y-86596228D02*
X127908647Y-86596228D01*
X128708647Y-87072419D02*
X128708647Y-86072419D01*
X129241980Y-86072419D02*
X129394361Y-86072419D01*
X129394361Y-86072419D02*
X129470551Y-86120038D01*
X129470551Y-86120038D02*
X129546742Y-86215276D01*
X129546742Y-86215276D02*
X129584837Y-86405752D01*
X129584837Y-86405752D02*
X129584837Y-86739085D01*
X129584837Y-86739085D02*
X129546742Y-86929561D01*
X129546742Y-86929561D02*
X129470551Y-87024800D01*
X129470551Y-87024800D02*
X129394361Y-87072419D01*
X129394361Y-87072419D02*
X129241980Y-87072419D01*
X129241980Y-87072419D02*
X129165789Y-87024800D01*
X129165789Y-87024800D02*
X129089599Y-86929561D01*
X129089599Y-86929561D02*
X129051503Y-86739085D01*
X129051503Y-86739085D02*
X129051503Y-86405752D01*
X129051503Y-86405752D02*
X129089599Y-86215276D01*
X129089599Y-86215276D02*
X129165789Y-86120038D01*
X129165789Y-86120038D02*
X129241980Y-86072419D01*
X130080075Y-86072419D02*
X130156265Y-86072419D01*
X130156265Y-86072419D02*
X130232456Y-86120038D01*
X130232456Y-86120038D02*
X130270551Y-86167657D01*
X130270551Y-86167657D02*
X130308646Y-86262895D01*
X130308646Y-86262895D02*
X130346741Y-86453371D01*
X130346741Y-86453371D02*
X130346741Y-86691466D01*
X130346741Y-86691466D02*
X130308646Y-86881942D01*
X130308646Y-86881942D02*
X130270551Y-86977180D01*
X130270551Y-86977180D02*
X130232456Y-87024800D01*
X130232456Y-87024800D02*
X130156265Y-87072419D01*
X130156265Y-87072419D02*
X130080075Y-87072419D01*
X130080075Y-87072419D02*
X130003884Y-87024800D01*
X130003884Y-87024800D02*
X129965789Y-86977180D01*
X129965789Y-86977180D02*
X129927694Y-86881942D01*
X129927694Y-86881942D02*
X129889598Y-86691466D01*
X129889598Y-86691466D02*
X129889598Y-86453371D01*
X129889598Y-86453371D02*
X129927694Y-86262895D01*
X129927694Y-86262895D02*
X129965789Y-86167657D01*
X129965789Y-86167657D02*
X130003884Y-86120038D01*
X130003884Y-86120038D02*
X130080075Y-86072419D01*
X125709258Y-77324687D02*
X125661639Y-77400877D01*
X125661639Y-77400877D02*
X125661639Y-77515163D01*
X125661639Y-77515163D02*
X125709258Y-77629449D01*
X125709258Y-77629449D02*
X125804496Y-77705639D01*
X125804496Y-77705639D02*
X125899734Y-77743734D01*
X125899734Y-77743734D02*
X126090210Y-77781830D01*
X126090210Y-77781830D02*
X126233067Y-77781830D01*
X126233067Y-77781830D02*
X126423543Y-77743734D01*
X126423543Y-77743734D02*
X126518781Y-77705639D01*
X126518781Y-77705639D02*
X126614020Y-77629449D01*
X126614020Y-77629449D02*
X126661639Y-77515163D01*
X126661639Y-77515163D02*
X126661639Y-77438972D01*
X126661639Y-77438972D02*
X126614020Y-77324687D01*
X126614020Y-77324687D02*
X126566400Y-77286591D01*
X126566400Y-77286591D02*
X126233067Y-77286591D01*
X126233067Y-77286591D02*
X126233067Y-77438972D01*
X126661639Y-76943734D02*
X125661639Y-76943734D01*
X125661639Y-76943734D02*
X125661639Y-76638972D01*
X125661639Y-76638972D02*
X125709258Y-76562782D01*
X125709258Y-76562782D02*
X125756877Y-76524687D01*
X125756877Y-76524687D02*
X125852115Y-76486591D01*
X125852115Y-76486591D02*
X125994972Y-76486591D01*
X125994972Y-76486591D02*
X126090210Y-76524687D01*
X126090210Y-76524687D02*
X126137829Y-76562782D01*
X126137829Y-76562782D02*
X126185448Y-76638972D01*
X126185448Y-76638972D02*
X126185448Y-76943734D01*
X126661639Y-76143734D02*
X125661639Y-76143734D01*
X125661639Y-75610401D02*
X125661639Y-75458020D01*
X125661639Y-75458020D02*
X125709258Y-75381830D01*
X125709258Y-75381830D02*
X125804496Y-75305639D01*
X125804496Y-75305639D02*
X125994972Y-75267544D01*
X125994972Y-75267544D02*
X126328305Y-75267544D01*
X126328305Y-75267544D02*
X126518781Y-75305639D01*
X126518781Y-75305639D02*
X126614020Y-75381830D01*
X126614020Y-75381830D02*
X126661639Y-75458020D01*
X126661639Y-75458020D02*
X126661639Y-75610401D01*
X126661639Y-75610401D02*
X126614020Y-75686592D01*
X126614020Y-75686592D02*
X126518781Y-75762782D01*
X126518781Y-75762782D02*
X126328305Y-75800878D01*
X126328305Y-75800878D02*
X125994972Y-75800878D01*
X125994972Y-75800878D02*
X125804496Y-75762782D01*
X125804496Y-75762782D02*
X125709258Y-75686592D01*
X125709258Y-75686592D02*
X125661639Y-75610401D01*
X126661639Y-74505640D02*
X126661639Y-74962783D01*
X126661639Y-74734211D02*
X125661639Y-74734211D01*
X125661639Y-74734211D02*
X125804496Y-74810402D01*
X125804496Y-74810402D02*
X125899734Y-74886592D01*
X125899734Y-74886592D02*
X125947353Y-74962783D01*
X125661639Y-74010401D02*
X125661639Y-73934211D01*
X125661639Y-73934211D02*
X125709258Y-73858020D01*
X125709258Y-73858020D02*
X125756877Y-73819925D01*
X125756877Y-73819925D02*
X125852115Y-73781830D01*
X125852115Y-73781830D02*
X126042591Y-73743735D01*
X126042591Y-73743735D02*
X126280686Y-73743735D01*
X126280686Y-73743735D02*
X126471162Y-73781830D01*
X126471162Y-73781830D02*
X126566400Y-73819925D01*
X126566400Y-73819925D02*
X126614020Y-73858020D01*
X126614020Y-73858020D02*
X126661639Y-73934211D01*
X126661639Y-73934211D02*
X126661639Y-74010401D01*
X126661639Y-74010401D02*
X126614020Y-74086592D01*
X126614020Y-74086592D02*
X126566400Y-74124687D01*
X126566400Y-74124687D02*
X126471162Y-74162782D01*
X126471162Y-74162782D02*
X126280686Y-74200878D01*
X126280686Y-74200878D02*
X126042591Y-74200878D01*
X126042591Y-74200878D02*
X125852115Y-74162782D01*
X125852115Y-74162782D02*
X125756877Y-74124687D01*
X125756877Y-74124687D02*
X125709258Y-74086592D01*
X125709258Y-74086592D02*
X125661639Y-74010401D01*
X126280686Y-73400877D02*
X126280686Y-72791354D01*
X125709258Y-71991354D02*
X125661639Y-72067544D01*
X125661639Y-72067544D02*
X125661639Y-72181830D01*
X125661639Y-72181830D02*
X125709258Y-72296116D01*
X125709258Y-72296116D02*
X125804496Y-72372306D01*
X125804496Y-72372306D02*
X125899734Y-72410401D01*
X125899734Y-72410401D02*
X126090210Y-72448497D01*
X126090210Y-72448497D02*
X126233067Y-72448497D01*
X126233067Y-72448497D02*
X126423543Y-72410401D01*
X126423543Y-72410401D02*
X126518781Y-72372306D01*
X126518781Y-72372306D02*
X126614020Y-72296116D01*
X126614020Y-72296116D02*
X126661639Y-72181830D01*
X126661639Y-72181830D02*
X126661639Y-72105639D01*
X126661639Y-72105639D02*
X126614020Y-71991354D01*
X126614020Y-71991354D02*
X126566400Y-71953258D01*
X126566400Y-71953258D02*
X126233067Y-71953258D01*
X126233067Y-71953258D02*
X126233067Y-72105639D01*
X126661639Y-71610401D02*
X125661639Y-71610401D01*
X125661639Y-71610401D02*
X125661639Y-71305639D01*
X125661639Y-71305639D02*
X125709258Y-71229449D01*
X125709258Y-71229449D02*
X125756877Y-71191354D01*
X125756877Y-71191354D02*
X125852115Y-71153258D01*
X125852115Y-71153258D02*
X125994972Y-71153258D01*
X125994972Y-71153258D02*
X126090210Y-71191354D01*
X126090210Y-71191354D02*
X126137829Y-71229449D01*
X126137829Y-71229449D02*
X126185448Y-71305639D01*
X126185448Y-71305639D02*
X126185448Y-71610401D01*
X126661639Y-70810401D02*
X125661639Y-70810401D01*
X125661639Y-70277068D02*
X125661639Y-70124687D01*
X125661639Y-70124687D02*
X125709258Y-70048497D01*
X125709258Y-70048497D02*
X125804496Y-69972306D01*
X125804496Y-69972306D02*
X125994972Y-69934211D01*
X125994972Y-69934211D02*
X126328305Y-69934211D01*
X126328305Y-69934211D02*
X126518781Y-69972306D01*
X126518781Y-69972306D02*
X126614020Y-70048497D01*
X126614020Y-70048497D02*
X126661639Y-70124687D01*
X126661639Y-70124687D02*
X126661639Y-70277068D01*
X126661639Y-70277068D02*
X126614020Y-70353259D01*
X126614020Y-70353259D02*
X126518781Y-70429449D01*
X126518781Y-70429449D02*
X126328305Y-70467545D01*
X126328305Y-70467545D02*
X125994972Y-70467545D01*
X125994972Y-70467545D02*
X125804496Y-70429449D01*
X125804496Y-70429449D02*
X125709258Y-70353259D01*
X125709258Y-70353259D02*
X125661639Y-70277068D01*
X125661639Y-69438973D02*
X125661639Y-69362783D01*
X125661639Y-69362783D02*
X125709258Y-69286592D01*
X125709258Y-69286592D02*
X125756877Y-69248497D01*
X125756877Y-69248497D02*
X125852115Y-69210402D01*
X125852115Y-69210402D02*
X126042591Y-69172307D01*
X126042591Y-69172307D02*
X126280686Y-69172307D01*
X126280686Y-69172307D02*
X126471162Y-69210402D01*
X126471162Y-69210402D02*
X126566400Y-69248497D01*
X126566400Y-69248497D02*
X126614020Y-69286592D01*
X126614020Y-69286592D02*
X126661639Y-69362783D01*
X126661639Y-69362783D02*
X126661639Y-69438973D01*
X126661639Y-69438973D02*
X126614020Y-69515164D01*
X126614020Y-69515164D02*
X126566400Y-69553259D01*
X126566400Y-69553259D02*
X126471162Y-69591354D01*
X126471162Y-69591354D02*
X126280686Y-69629450D01*
X126280686Y-69629450D02*
X126042591Y-69629450D01*
X126042591Y-69629450D02*
X125852115Y-69591354D01*
X125852115Y-69591354D02*
X125756877Y-69553259D01*
X125756877Y-69553259D02*
X125709258Y-69515164D01*
X125709258Y-69515164D02*
X125661639Y-69438973D01*
X125661639Y-68486592D02*
X125661639Y-68638973D01*
X125661639Y-68638973D02*
X125709258Y-68715164D01*
X125709258Y-68715164D02*
X125756877Y-68753259D01*
X125756877Y-68753259D02*
X125899734Y-68829449D01*
X125899734Y-68829449D02*
X126090210Y-68867545D01*
X126090210Y-68867545D02*
X126471162Y-68867545D01*
X126471162Y-68867545D02*
X126566400Y-68829449D01*
X126566400Y-68829449D02*
X126614020Y-68791354D01*
X126614020Y-68791354D02*
X126661639Y-68715164D01*
X126661639Y-68715164D02*
X126661639Y-68562783D01*
X126661639Y-68562783D02*
X126614020Y-68486592D01*
X126614020Y-68486592D02*
X126566400Y-68448497D01*
X126566400Y-68448497D02*
X126471162Y-68410402D01*
X126471162Y-68410402D02*
X126233067Y-68410402D01*
X126233067Y-68410402D02*
X126137829Y-68448497D01*
X126137829Y-68448497D02*
X126090210Y-68486592D01*
X126090210Y-68486592D02*
X126042591Y-68562783D01*
X126042591Y-68562783D02*
X126042591Y-68715164D01*
X126042591Y-68715164D02*
X126090210Y-68791354D01*
X126090210Y-68791354D02*
X126137829Y-68829449D01*
X126137829Y-68829449D02*
X126233067Y-68867545D01*
D12*
X161466667Y-85163595D02*
X161200000Y-84782642D01*
X161009524Y-85163595D02*
X161009524Y-84363595D01*
X161009524Y-84363595D02*
X161314286Y-84363595D01*
X161314286Y-84363595D02*
X161390476Y-84401690D01*
X161390476Y-84401690D02*
X161428571Y-84439785D01*
X161428571Y-84439785D02*
X161466667Y-84515976D01*
X161466667Y-84515976D02*
X161466667Y-84630261D01*
X161466667Y-84630261D02*
X161428571Y-84706452D01*
X161428571Y-84706452D02*
X161390476Y-84744547D01*
X161390476Y-84744547D02*
X161314286Y-84782642D01*
X161314286Y-84782642D02*
X161009524Y-84782642D01*
X162152381Y-84630261D02*
X162152381Y-85163595D01*
X161961905Y-84325500D02*
X161771428Y-84896928D01*
X161771428Y-84896928D02*
X162266667Y-84896928D01*
D13*
X141546666Y-89844819D02*
X141546666Y-90559104D01*
X141546666Y-90559104D02*
X141499047Y-90701961D01*
X141499047Y-90701961D02*
X141403809Y-90797200D01*
X141403809Y-90797200D02*
X141260952Y-90844819D01*
X141260952Y-90844819D02*
X141165714Y-90844819D01*
X142499047Y-89844819D02*
X142022857Y-89844819D01*
X142022857Y-89844819D02*
X141975238Y-90321009D01*
X141975238Y-90321009D02*
X142022857Y-90273390D01*
X142022857Y-90273390D02*
X142118095Y-90225771D01*
X142118095Y-90225771D02*
X142356190Y-90225771D01*
X142356190Y-90225771D02*
X142451428Y-90273390D01*
X142451428Y-90273390D02*
X142499047Y-90321009D01*
X142499047Y-90321009D02*
X142546666Y-90416247D01*
X142546666Y-90416247D02*
X142546666Y-90654342D01*
X142546666Y-90654342D02*
X142499047Y-90749580D01*
X142499047Y-90749580D02*
X142451428Y-90797200D01*
X142451428Y-90797200D02*
X142356190Y-90844819D01*
X142356190Y-90844819D02*
X142118095Y-90844819D01*
X142118095Y-90844819D02*
X142022857Y-90797200D01*
X142022857Y-90797200D02*
X141975238Y-90749580D01*
X141738095Y-74354819D02*
X141738095Y-75164342D01*
X141738095Y-75164342D02*
X141785714Y-75259580D01*
X141785714Y-75259580D02*
X141833333Y-75307200D01*
X141833333Y-75307200D02*
X141928571Y-75354819D01*
X141928571Y-75354819D02*
X142119047Y-75354819D01*
X142119047Y-75354819D02*
X142214285Y-75307200D01*
X142214285Y-75307200D02*
X142261904Y-75259580D01*
X142261904Y-75259580D02*
X142309523Y-75164342D01*
X142309523Y-75164342D02*
X142309523Y-74354819D01*
X143309523Y-75354819D02*
X142738095Y-75354819D01*
X143023809Y-75354819D02*
X143023809Y-74354819D01*
X143023809Y-74354819D02*
X142928571Y-74497676D01*
X142928571Y-74497676D02*
X142833333Y-74592914D01*
X142833333Y-74592914D02*
X142738095Y-74640533D01*
X138661905Y-94454819D02*
X138661905Y-93454819D01*
X138661905Y-93454819D02*
X138900000Y-93454819D01*
X138900000Y-93454819D02*
X139042857Y-93502438D01*
X139042857Y-93502438D02*
X139138095Y-93597676D01*
X139138095Y-93597676D02*
X139185714Y-93692914D01*
X139185714Y-93692914D02*
X139233333Y-93883390D01*
X139233333Y-93883390D02*
X139233333Y-94026247D01*
X139233333Y-94026247D02*
X139185714Y-94216723D01*
X139185714Y-94216723D02*
X139138095Y-94311961D01*
X139138095Y-94311961D02*
X139042857Y-94407200D01*
X139042857Y-94407200D02*
X138900000Y-94454819D01*
X138900000Y-94454819D02*
X138661905Y-94454819D01*
X140185714Y-94454819D02*
X139614286Y-94454819D01*
X139900000Y-94454819D02*
X139900000Y-93454819D01*
X139900000Y-93454819D02*
X139804762Y-93597676D01*
X139804762Y-93597676D02*
X139709524Y-93692914D01*
X139709524Y-93692914D02*
X139614286Y-93740533D01*
D12*
X161466667Y-92263595D02*
X161200000Y-91882642D01*
X161009524Y-92263595D02*
X161009524Y-91463595D01*
X161009524Y-91463595D02*
X161314286Y-91463595D01*
X161314286Y-91463595D02*
X161390476Y-91501690D01*
X161390476Y-91501690D02*
X161428571Y-91539785D01*
X161428571Y-91539785D02*
X161466667Y-91615976D01*
X161466667Y-91615976D02*
X161466667Y-91730261D01*
X161466667Y-91730261D02*
X161428571Y-91806452D01*
X161428571Y-91806452D02*
X161390476Y-91844547D01*
X161390476Y-91844547D02*
X161314286Y-91882642D01*
X161314286Y-91882642D02*
X161009524Y-91882642D01*
X161733333Y-91463595D02*
X162228571Y-91463595D01*
X162228571Y-91463595D02*
X161961905Y-91768357D01*
X161961905Y-91768357D02*
X162076190Y-91768357D01*
X162076190Y-91768357D02*
X162152381Y-91806452D01*
X162152381Y-91806452D02*
X162190476Y-91844547D01*
X162190476Y-91844547D02*
X162228571Y-91920738D01*
X162228571Y-91920738D02*
X162228571Y-92111214D01*
X162228571Y-92111214D02*
X162190476Y-92187404D01*
X162190476Y-92187404D02*
X162152381Y-92225500D01*
X162152381Y-92225500D02*
X162076190Y-92263595D01*
X162076190Y-92263595D02*
X161847619Y-92263595D01*
X161847619Y-92263595D02*
X161771428Y-92225500D01*
X161771428Y-92225500D02*
X161733333Y-92187404D01*
D13*
X129950057Y-89695238D02*
X129902438Y-89790476D01*
X129902438Y-89790476D02*
X129807200Y-89885714D01*
X129807200Y-89885714D02*
X129664342Y-90028571D01*
X129664342Y-90028571D02*
X129616723Y-90123809D01*
X129616723Y-90123809D02*
X129616723Y-90219047D01*
X129854819Y-90171428D02*
X129807200Y-90266666D01*
X129807200Y-90266666D02*
X129711961Y-90361904D01*
X129711961Y-90361904D02*
X129521485Y-90409523D01*
X129521485Y-90409523D02*
X129188152Y-90409523D01*
X129188152Y-90409523D02*
X128997676Y-90361904D01*
X128997676Y-90361904D02*
X128902438Y-90266666D01*
X128902438Y-90266666D02*
X128854819Y-90171428D01*
X128854819Y-90171428D02*
X128854819Y-89980952D01*
X128854819Y-89980952D02*
X128902438Y-89885714D01*
X128902438Y-89885714D02*
X128997676Y-89790476D01*
X128997676Y-89790476D02*
X129188152Y-89742857D01*
X129188152Y-89742857D02*
X129521485Y-89742857D01*
X129521485Y-89742857D02*
X129711961Y-89790476D01*
X129711961Y-89790476D02*
X129807200Y-89885714D01*
X129807200Y-89885714D02*
X129854819Y-89980952D01*
X129854819Y-89980952D02*
X129854819Y-90171428D01*
X129854819Y-88790476D02*
X129854819Y-89361904D01*
X129854819Y-89076190D02*
X128854819Y-89076190D01*
X128854819Y-89076190D02*
X128997676Y-89171428D01*
X128997676Y-89171428D02*
X129092914Y-89266666D01*
X129092914Y-89266666D02*
X129140533Y-89361904D01*
X132433333Y-94654819D02*
X132100000Y-94178628D01*
X131861905Y-94654819D02*
X131861905Y-93654819D01*
X131861905Y-93654819D02*
X132242857Y-93654819D01*
X132242857Y-93654819D02*
X132338095Y-93702438D01*
X132338095Y-93702438D02*
X132385714Y-93750057D01*
X132385714Y-93750057D02*
X132433333Y-93845295D01*
X132433333Y-93845295D02*
X132433333Y-93988152D01*
X132433333Y-93988152D02*
X132385714Y-94083390D01*
X132385714Y-94083390D02*
X132338095Y-94131009D01*
X132338095Y-94131009D02*
X132242857Y-94178628D01*
X132242857Y-94178628D02*
X131861905Y-94178628D01*
X133385714Y-94654819D02*
X132814286Y-94654819D01*
X133100000Y-94654819D02*
X133100000Y-93654819D01*
X133100000Y-93654819D02*
X133004762Y-93797676D01*
X133004762Y-93797676D02*
X132909524Y-93892914D01*
X132909524Y-93892914D02*
X132814286Y-93940533D01*
D14*
G04 #@! TO.C,JP1*
X154750000Y-85500000D02*
X157550000Y-85500000D01*
X154750000Y-87500000D02*
X154750000Y-85500000D01*
X157550000Y-85500000D02*
X157550000Y-87500000D01*
X157550000Y-87500000D02*
X154750000Y-87500000D01*
G04 #@! TO.C,J4*
X155120000Y-69440000D02*
X156500000Y-69440000D01*
X155120000Y-70820000D02*
X155120000Y-69440000D01*
X155120000Y-72090000D02*
X155120000Y-82360000D01*
X155120000Y-72090000D02*
X157880000Y-72090000D01*
X155120000Y-82360000D02*
X157880000Y-82360000D01*
X157880000Y-72090000D02*
X157880000Y-82360000D01*
G04 #@! TO.C,R4*
X161372936Y-85765000D02*
X161827064Y-85765000D01*
X161372936Y-87235000D02*
X161827064Y-87235000D01*
G04 #@! TO.C,J5*
X143640000Y-87940000D02*
X143640000Y-89190000D01*
X143940000Y-88240000D02*
X143940000Y-92960000D01*
X143940000Y-89550000D02*
X144550000Y-89550000D01*
X143940000Y-90850000D02*
X144550000Y-90850000D01*
X143940000Y-92960000D02*
X150060000Y-92960000D01*
X144550000Y-88850000D02*
X144550000Y-92350000D01*
X144550000Y-92350000D02*
X149450000Y-92350000D01*
X144890000Y-87940000D02*
X143640000Y-87940000D01*
X145400000Y-88040000D02*
X145400000Y-88240000D01*
X145700000Y-88040000D02*
X145400000Y-88040000D01*
X145700000Y-88140000D02*
X145400000Y-88140000D01*
X145700000Y-88240000D02*
X145700000Y-88040000D01*
X146500000Y-88240000D02*
X146500000Y-88850000D01*
X146500000Y-88850000D02*
X144550000Y-88850000D01*
X146900000Y-91850000D02*
X147100000Y-91850000D01*
X146900000Y-92350000D02*
X146900000Y-91850000D01*
X147000000Y-92350000D02*
X147000000Y-91850000D01*
X147100000Y-91850000D02*
X147100000Y-92350000D01*
X147500000Y-88850000D02*
X147500000Y-88240000D01*
X149450000Y-88850000D02*
X147500000Y-88850000D01*
X149450000Y-92350000D02*
X149450000Y-88850000D01*
X150060000Y-88240000D02*
X143940000Y-88240000D01*
X150060000Y-89550000D02*
X149450000Y-89550000D01*
X150060000Y-90850000D02*
X149450000Y-90850000D01*
X150060000Y-92960000D02*
X150060000Y-88240000D01*
D15*
G04 #@! TO.C,U1*
X133500000Y-87000000D02*
X133500000Y-64300000D01*
X138000000Y-63000000D02*
X138000000Y-64300000D01*
X138000000Y-64300000D02*
X133500000Y-64300000D01*
X147000000Y-63000000D02*
X138000000Y-63000000D01*
X147000000Y-63000000D02*
X147000000Y-64300000D01*
X151500000Y-64300000D02*
X147000000Y-64300000D01*
X151500000Y-87000000D02*
X133500000Y-87000000D01*
X151500000Y-87000000D02*
X151500000Y-64300000D01*
D14*
G04 #@! TO.C,J1*
X160420000Y-65640000D02*
X161800000Y-65640000D01*
X160420000Y-67020000D02*
X160420000Y-65640000D01*
X160420000Y-68290000D02*
X160420000Y-81100000D01*
X160420000Y-68290000D02*
X163180000Y-68290000D01*
X160420000Y-81100000D02*
X163180000Y-81100000D01*
X163180000Y-68290000D02*
X163180000Y-81100000D01*
G04 #@! TO.C,J2*
X122320000Y-65470000D02*
X123700000Y-65470000D01*
X122320000Y-66850000D02*
X122320000Y-65470000D01*
X122320000Y-68120000D02*
X122320000Y-80930000D01*
X122320000Y-68120000D02*
X125080000Y-68120000D01*
X122320000Y-80930000D02*
X125080000Y-80930000D01*
X125080000Y-68120000D02*
X125080000Y-80930000D01*
G04 #@! TO.C,D1*
X139300000Y-90387944D02*
X139300000Y-90274315D01*
X140626371Y-91714315D02*
G75*
G02*
X137973629Y-91714315I-1326371J0D01*
G01*
X137973629Y-91714315D02*
G75*
G02*
X140626371Y-91714315I1326371J0D01*
G01*
G04 #@! TO.C,R3*
X161372936Y-89365000D02*
X161827064Y-89365000D01*
X161372936Y-90835000D02*
X161827064Y-90835000D01*
G04 #@! TO.C,J7*
X122280000Y-82520000D02*
X122280000Y-85280000D01*
X127470000Y-82520000D02*
X122280000Y-82520000D01*
X127470000Y-82520000D02*
X127470000Y-85280000D01*
X127470000Y-85280000D02*
X122280000Y-85280000D01*
X128740000Y-82520000D02*
X130120000Y-82520000D01*
X130120000Y-82520000D02*
X130120000Y-83900000D01*
G04 #@! TO.C,J3*
X127320000Y-77210000D02*
X127320000Y-66940000D01*
X130080000Y-66940000D02*
X127320000Y-66940000D01*
X130080000Y-77210000D02*
X127320000Y-77210000D01*
X130080000Y-77210000D02*
X130080000Y-66940000D01*
X130080000Y-78480000D02*
X130080000Y-79860000D01*
X130080000Y-79860000D02*
X128700000Y-79860000D01*
G04 #@! TO.C,Q1*
X130540000Y-88777500D02*
X130590000Y-88777500D01*
X130540000Y-90297500D02*
X130540000Y-88777500D01*
X131540000Y-90297500D02*
X130540000Y-90297500D01*
X131710000Y-88777500D02*
X132490000Y-88777500D01*
X133610000Y-88777500D02*
X133660000Y-88777500D01*
X133660000Y-88777500D02*
X133660000Y-90297500D01*
X133660000Y-90297500D02*
X132660000Y-90297500D01*
X132480000Y-88237500D02*
X132150000Y-88477500D01*
X132150000Y-87997500D01*
X132480000Y-88237500D01*
G36*
X132480000Y-88237500D02*
G01*
X132150000Y-88477500D01*
X132150000Y-87997500D01*
X132480000Y-88237500D01*
G37*
G04 #@! TO.C,R1*
X134512258Y-92177500D02*
X134037742Y-92177500D01*
X134512258Y-93222500D02*
X134037742Y-93222500D01*
G04 #@! TO.C,J6*
X155120000Y-64520000D02*
X156500000Y-64520000D01*
X155120000Y-65900000D02*
X155120000Y-64520000D01*
X155120000Y-67170000D02*
X155120000Y-67280000D01*
X155120000Y-67170000D02*
X157880000Y-67170000D01*
X155120000Y-67280000D02*
X157880000Y-67280000D01*
X157880000Y-67170000D02*
X157880000Y-67280000D01*
G04 #@! TO.C,JP2*
X154750000Y-89100000D02*
X157550000Y-89100000D01*
X154750000Y-91100000D02*
X154750000Y-89100000D01*
X157550000Y-89100000D02*
X157550000Y-91100000D01*
X157550000Y-91100000D02*
X154750000Y-91100000D01*
G04 #@! TD*
%LPC*%
G04 #@! TO.C,JP1*
G36*
X156000000Y-85750000D02*
G01*
X156300000Y-85750000D01*
X156300000Y-87250000D01*
X156000000Y-87250000D01*
X156000000Y-85750000D01*
G37*
G04 #@! TO.C,JP2*
G36*
X156000000Y-89350000D02*
G01*
X156300000Y-89350000D01*
X156300000Y-90850000D01*
X156000000Y-90850000D01*
X156000000Y-89350000D01*
G37*
G04 #@! TD*
D16*
G04 #@! TO.C,H2*
X124100000Y-91300000D03*
G04 #@! TD*
D17*
G04 #@! TO.C,JP1*
X155500000Y-86500000D03*
X156800000Y-86500000D03*
G04 #@! TD*
D18*
G04 #@! TO.C,J4*
X156500000Y-70820000D03*
D19*
X156500000Y-73360000D03*
X156500000Y-75900000D03*
X156500000Y-78440000D03*
X156500000Y-80980000D03*
G04 #@! TD*
D20*
G04 #@! TO.C,R4*
X160600000Y-86500000D03*
X162600000Y-86500000D03*
G04 #@! TD*
D21*
G04 #@! TO.C,J5*
X146000000Y-90050000D03*
D22*
X148000000Y-90050000D03*
G04 #@! TD*
D23*
G04 #@! TO.C,U1*
X150120000Y-83530000D03*
X150120000Y-80990000D03*
X150120000Y-78450000D03*
X150120000Y-75910000D03*
X150120000Y-70830000D03*
X150120000Y-73370000D03*
X134880000Y-65750000D03*
X150120000Y-65750000D03*
X134880000Y-68290000D03*
X134880000Y-70830000D03*
X134880000Y-73370000D03*
X134880000Y-75910000D03*
X134880000Y-78450000D03*
X134880000Y-80990000D03*
X134880000Y-83530000D03*
X150120000Y-68290000D03*
G04 #@! TD*
D18*
G04 #@! TO.C,J1*
X161800000Y-67020000D03*
D19*
X161800000Y-69560000D03*
X161800000Y-72100000D03*
X161800000Y-74640000D03*
X161800000Y-77180000D03*
X161800000Y-79720000D03*
G04 #@! TD*
D18*
G04 #@! TO.C,J2*
X123700000Y-66850000D03*
D19*
X123700000Y-69390000D03*
X123700000Y-71930000D03*
X123700000Y-74470000D03*
X123700000Y-77010000D03*
X123700000Y-79550000D03*
G04 #@! TD*
D24*
G04 #@! TO.C,D1*
X139300000Y-91714315D03*
D25*
X139300000Y-89174315D03*
G04 #@! TD*
D20*
G04 #@! TO.C,R3*
X160600000Y-90100000D03*
X162600000Y-90100000D03*
G04 #@! TD*
D16*
G04 #@! TO.C,H1*
X160500000Y-59300000D03*
G04 #@! TD*
D18*
G04 #@! TO.C,J7*
X128740000Y-83900000D03*
D19*
X126200000Y-83900000D03*
X123660000Y-83900000D03*
G04 #@! TD*
D18*
G04 #@! TO.C,J3*
X128700000Y-78480000D03*
D19*
X128700000Y-75940000D03*
X128700000Y-73400000D03*
X128700000Y-70860000D03*
X128700000Y-68320000D03*
G04 #@! TD*
D26*
G04 #@! TO.C,Q1*
X133050000Y-88600000D03*
X131150000Y-88600000D03*
X132100000Y-90475000D03*
G04 #@! TD*
D27*
G04 #@! TO.C,R1*
X135100000Y-92700000D03*
X133450000Y-92700000D03*
G04 #@! TD*
D18*
G04 #@! TO.C,J6*
X156500000Y-65900000D03*
G04 #@! TD*
D17*
G04 #@! TO.C,JP2*
X155500000Y-90100000D03*
X156800000Y-90100000D03*
G04 #@! TD*
%LPD*%
M02*
