M48
; DRILL file {KiCad 9.0.5} date 2025-11-30T17:46:52+0100
; FORMAT={-:-/ absolute / metric / decimal}
; #@! TF.CreationDate,2025-11-30T17:46:52+01:00
; #@! TF.GenerationSoftware,Kicad,Pcbnew,9.0.5
; #@! TF.FileFunction,Plated,1,2,PTH
FMAT,2
METRIC
; #@! TA.AperFunction,Plated,PTH,ViaDrill
T1C0.300
; #@! TA.AperFunction,Plated,PTH,ComponentDrill
T2C0.750
; #@! TA.AperFunction,Plated,PTH,ComponentDrill
T3C0.800
; #@! TA.AperFunction,Plated,PTH,ComponentDrill
T4C0.840
; #@! TA.AperFunction,Plated,PTH,ComponentDrill
T5C1.000
; #@! TA.AperFunction,Plated,PTH,ComponentDrill
T6C3.200
%
G90
G05
T1
X142.2Y-92.6
X144.1Y-70.1
X145.2Y-85.0
X146.4Y-82.83
X146.4Y-85.9
X148.0Y-74.9
X153.3Y-67.2
X153.3Y-70.7
X162.6Y-84.4
T2
X146.0Y-90.05
X148.0Y-90.05
T3
X139.3Y-89.174
X139.3Y-91.714
T4
X134.88Y-65.75
X134.88Y-68.29
X134.88Y-70.83
X134.88Y-73.37
X134.88Y-75.91
X134.88Y-78.45
X134.88Y-80.99
X134.88Y-83.53
X150.12Y-65.75
X150.12Y-68.29
X150.12Y-70.83
X150.12Y-73.37
X150.12Y-75.91
X150.12Y-78.45
X150.12Y-80.99
X150.12Y-83.53
T5
X123.66Y-83.9
X123.7Y-66.85
X123.7Y-69.39
X123.7Y-71.93
X123.7Y-74.47
X123.7Y-77.01
X123.7Y-79.55
X126.2Y-83.9
X128.7Y-68.32
X128.7Y-70.86
X128.7Y-73.4
X128.7Y-75.94
X128.7Y-78.48
X128.74Y-83.9
X156.5Y-65.9
X156.5Y-70.82
X156.5Y-73.36
X156.5Y-75.9
X156.5Y-78.44
X156.5Y-80.98
X161.8Y-67.02
X161.8Y-69.56
X161.8Y-72.1
X161.8Y-74.64
X161.8Y-77.18
X161.8Y-79.72
T6
X124.1Y-91.3
X160.5Y-59.3
M30
