G04 #@! TF.GenerationSoftware,KiCad,Pcbnew,9.0.5*
G04 #@! TF.CreationDate,2025-11-30T17:46:52+01:00*
G04 #@! TF.ProjectId,Sensor_all_ESP32,53656e73-6f72-45f6-916c-6c5f45535033,rev?*
G04 #@! TF.SameCoordinates,Original*
G04 #@! TF.FileFunction,Soldermask,Top*
G04 #@! TF.FilePolarity,Negative*
%FSLAX46Y46*%
G04 Gerber Fmt 4.6, Leading zero omitted, Abs format (unit mm)*
G04 Created by KiCad (PCBNEW 9.0.5) date 2025-11-30 17:46:52*
%MOMM*%
%LPD*%
G01*
G04 APERTURE LIST*
G04 Aperture macros list*
%AMRoundRect*
0 Rectangle with rounded corners*
0 $1 Rounding radius*
0 $2 $3 $4 $5 $6 $7 $8 $9 X,Y pos of 4 corners*
0 Add a 4 corners polygon primitive as box body*
4,1,4,$2,$3,$4,$5,$6,$7,$8,$9,$2,$3,0*
0 Add four circle primitives for the rounded corners*
1,1,$1+$1,$2,$3*
1,1,$1+$1,$4,$5*
1,1,$1+$1,$6,$7*
1,1,$1+$1,$8,$9*
0 Add four rect primitives between the rounded corners*
20,1,$1+$1,$2,$3,$4,$5,0*
20,1,$1+$1,$4,$5,$6,$7,0*
20,1,$1+$1,$6,$7,$8,$9,0*
20,1,$1+$1,$8,$9,$2,$3,0*%
G04 Aperture macros list end*
%ADD10C,6.400000*%
%ADD11R,1.000000X1.500000*%
%ADD12R,1.700000X1.700000*%
%ADD13C,1.700000*%
%ADD14RoundRect,0.250000X-0.350000X-0.450000X0.350000X-0.450000X0.350000X0.450000X-0.350000X0.450000X0*%
%ADD15RoundRect,0.250000X-0.350000X-0.625000X0.350000X-0.625000X0.350000X0.625000X-0.350000X0.625000X0*%
%ADD16O,1.200000X1.750000*%
%ADD17C,1.552000*%
%ADD18RoundRect,0.250000X0.550000X-0.550000X0.550000X0.550000X-0.550000X0.550000X-0.550000X-0.550000X0*%
%ADD19C,1.600000*%
%ADD20RoundRect,0.150000X-0.150000X0.587500X-0.150000X-0.587500X0.150000X-0.587500X0.150000X0.587500X0*%
%ADD21RoundRect,0.200000X0.200000X0.275000X-0.200000X0.275000X-0.200000X-0.275000X0.200000X-0.275000X0*%
G04 APERTURE END LIST*
G04 #@! TO.C,JP1*
G36*
X156000000Y-85750000D02*
G01*
X156300000Y-85750000D01*
X156300000Y-87250000D01*
X156000000Y-87250000D01*
X156000000Y-85750000D01*
G37*
G04 #@! TO.C,JP2*
G36*
X156000000Y-89350000D02*
G01*
X156300000Y-89350000D01*
X156300000Y-90850000D01*
X156000000Y-90850000D01*
X156000000Y-89350000D01*
G37*
G04 #@! TD*
D10*
G04 #@! TO.C,H2*
X124100000Y-91300000D03*
G04 #@! TD*
D11*
G04 #@! TO.C,JP1*
X155500000Y-86500000D03*
X156800000Y-86500000D03*
G04 #@! TD*
D12*
G04 #@! TO.C,J4*
X156500000Y-70820000D03*
D13*
X156500000Y-73360000D03*
X156500000Y-75900000D03*
X156500000Y-78440000D03*
X156500000Y-80980000D03*
G04 #@! TD*
D14*
G04 #@! TO.C,R4*
X160600000Y-86500000D03*
X162600000Y-86500000D03*
G04 #@! TD*
D15*
G04 #@! TO.C,J5*
X146000000Y-90050000D03*
D16*
X148000000Y-90050000D03*
G04 #@! TD*
D17*
G04 #@! TO.C,U1*
X150120000Y-83530000D03*
X150120000Y-80990000D03*
X150120000Y-78450000D03*
X150120000Y-75910000D03*
X150120000Y-70830000D03*
X150120000Y-73370000D03*
X134880000Y-65750000D03*
X150120000Y-65750000D03*
X134880000Y-68290000D03*
X134880000Y-70830000D03*
X134880000Y-73370000D03*
X134880000Y-75910000D03*
X134880000Y-78450000D03*
X134880000Y-80990000D03*
X134880000Y-83530000D03*
X150120000Y-68290000D03*
G04 #@! TD*
D12*
G04 #@! TO.C,J1*
X161800000Y-67020000D03*
D13*
X161800000Y-69560000D03*
X161800000Y-72100000D03*
X161800000Y-74640000D03*
X161800000Y-77180000D03*
X161800000Y-79720000D03*
G04 #@! TD*
D12*
G04 #@! TO.C,J2*
X123700000Y-66850000D03*
D13*
X123700000Y-69390000D03*
X123700000Y-71930000D03*
X123700000Y-74470000D03*
X123700000Y-77010000D03*
X123700000Y-79550000D03*
G04 #@! TD*
D18*
G04 #@! TO.C,D1*
X139300000Y-91714315D03*
D19*
X139300000Y-89174315D03*
G04 #@! TD*
D14*
G04 #@! TO.C,R3*
X160600000Y-90100000D03*
X162600000Y-90100000D03*
G04 #@! TD*
D10*
G04 #@! TO.C,H1*
X160500000Y-59300000D03*
G04 #@! TD*
D12*
G04 #@! TO.C,J7*
X128740000Y-83900000D03*
D13*
X126200000Y-83900000D03*
X123660000Y-83900000D03*
G04 #@! TD*
D12*
G04 #@! TO.C,J3*
X128700000Y-78480000D03*
D13*
X128700000Y-75940000D03*
X128700000Y-73400000D03*
X128700000Y-70860000D03*
X128700000Y-68320000D03*
G04 #@! TD*
D20*
G04 #@! TO.C,Q1*
X133050000Y-88600000D03*
X131150000Y-88600000D03*
X132100000Y-90475000D03*
G04 #@! TD*
D21*
G04 #@! TO.C,R1*
X135100000Y-92700000D03*
X133450000Y-92700000D03*
G04 #@! TD*
D12*
G04 #@! TO.C,J6*
X156500000Y-65900000D03*
G04 #@! TD*
D11*
G04 #@! TO.C,JP2*
X155500000Y-90100000D03*
X156800000Y-90100000D03*
G04 #@! TD*
M02*
