G04 #@! TF.GenerationSoftware,KiCad,Pcbnew,9.0.5*
G04 #@! TF.CreationDate,2025-11-30T17:46:52+01:00*
G04 #@! TF.ProjectId,Sensor_all_ESP32,53656e73-6f72-45f6-916c-6c5f45535033,rev?*
G04 #@! TF.SameCoordinates,Original*
G04 #@! TF.FileFunction,Copper,L1,Top*
G04 #@! TF.FilePolarity,Positive*
%FSLAX46Y46*%
G04 Gerber Fmt 4.6, Leading zero omitted, Abs format (unit mm)*
G04 Created by KiCad (PCBNEW 9.0.5) date 2025-11-30 17:46:52*
%MOMM*%
%LPD*%
G01*
G04 APERTURE LIST*
G04 Aperture macros list*
%AMRoundRect*
0 Rectangle with rounded corners*
0 $1 Rounding radius*
0 $2 $3 $4 $5 $6 $7 $8 $9 X,Y pos of 4 corners*
0 Add a 4 corners polygon primitive as box body*
4,1,4,$2,$3,$4,$5,$6,$7,$8,$9,$2,$3,0*
0 Add four circle primitives for the rounded corners*
1,1,$1+$1,$2,$3*
1,1,$1+$1,$4,$5*
1,1,$1+$1,$6,$7*
1,1,$1+$1,$8,$9*
0 Add four rect primitives between the rounded corners*
20,1,$1+$1,$2,$3,$4,$5,0*
20,1,$1+$1,$4,$5,$6,$7,0*
20,1,$1+$1,$6,$7,$8,$9,0*
20,1,$1+$1,$8,$9,$2,$3,0*%
G04 Aperture macros list end*
G04 #@! TA.AperFunction,Conductor*
%ADD10C,0.200000*%
G04 #@! TD*
G04 #@! TA.AperFunction,ComponentPad*
%ADD11C,6.400000*%
G04 #@! TD*
G04 #@! TA.AperFunction,SMDPad,CuDef*
%ADD12R,1.000000X1.500000*%
G04 #@! TD*
G04 #@! TA.AperFunction,ComponentPad*
%ADD13R,1.700000X1.700000*%
G04 #@! TD*
G04 #@! TA.AperFunction,ComponentPad*
%ADD14C,1.700000*%
G04 #@! TD*
G04 #@! TA.AperFunction,SMDPad,CuDef*
%ADD15RoundRect,0.250000X-0.350000X-0.450000X0.350000X-0.450000X0.350000X0.450000X-0.350000X0.450000X0*%
G04 #@! TD*
G04 #@! TA.AperFunction,ComponentPad*
%ADD16RoundRect,0.250000X-0.350000X-0.625000X0.350000X-0.625000X0.350000X0.625000X-0.350000X0.625000X0*%
G04 #@! TD*
G04 #@! TA.AperFunction,ComponentPad*
%ADD17O,1.200000X1.750000*%
G04 #@! TD*
G04 #@! TA.AperFunction,ComponentPad*
%ADD18C,1.348000*%
G04 #@! TD*
G04 #@! TA.AperFunction,ComponentPad*
%ADD19RoundRect,0.250000X0.550000X-0.550000X0.550000X0.550000X-0.550000X0.550000X-0.550000X-0.550000X0*%
G04 #@! TD*
G04 #@! TA.AperFunction,ComponentPad*
%ADD20C,1.600000*%
G04 #@! TD*
G04 #@! TA.AperFunction,SMDPad,CuDef*
%ADD21RoundRect,0.150000X-0.150000X0.587500X-0.150000X-0.587500X0.150000X-0.587500X0.150000X0.587500X0*%
G04 #@! TD*
G04 #@! TA.AperFunction,SMDPad,CuDef*
%ADD22RoundRect,0.200000X0.200000X0.275000X-0.200000X0.275000X-0.200000X-0.275000X0.200000X-0.275000X0*%
G04 #@! TD*
G04 #@! TA.AperFunction,ViaPad*
%ADD23C,0.600000*%
G04 #@! TD*
G04 #@! TA.AperFunction,Conductor*
%ADD24C,0.800000*%
G04 #@! TD*
G04 #@! TA.AperFunction,Conductor*
%ADD25C,1.000000*%
G04 #@! TD*
G04 #@! TA.AperFunction,Conductor*
%ADD26C,0.400000*%
G04 #@! TD*
G04 #@! TA.AperFunction,Conductor*
%ADD27C,0.500000*%
G04 #@! TD*
G04 APERTURE END LIST*
G04 #@! TO.N,Net-(Q1-G)*
D10*
X120150000Y-54900000D02*
X165250000Y-54900000D01*
X165250000Y-95100000D01*
X120150000Y-95100000D01*
X120150000Y-54900000D01*
G04 #@! TD*
D11*
G04 #@! TO.P,H2,1*
G04 #@! TO.N,N/C*
X124100000Y-91300000D03*
G04 #@! TD*
D12*
G04 #@! TO.P,JP1,1,A*
G04 #@! TO.N,/Steuerstromkreis/GPIO1*
X155500000Y-86500000D03*
G04 #@! TO.P,JP1,2,B*
G04 #@! TO.N,Net-(JP1-B)*
X156800000Y-86500000D03*
G04 #@! TD*
D13*
G04 #@! TO.P,J4,1,Pin_1*
G04 #@! TO.N,/Steuerstromkreis/GPIO5*
X156500000Y-70820000D03*
D14*
G04 #@! TO.P,J4,2,Pin_2*
G04 #@! TO.N,/Steuerstromkreis/GPIO4*
X156500000Y-73360000D03*
G04 #@! TO.P,J4,3,Pin_3*
G04 #@! TO.N,/Steuerstromkreis/GPIO3*
X156500000Y-75900000D03*
G04 #@! TO.P,J4,4,Pin_4*
G04 #@! TO.N,V-Mess*
X156500000Y-78440000D03*
G04 #@! TO.P,J4,5,Pin_5*
G04 #@! TO.N,/Steuerstromkreis/GPIO1*
X156500000Y-80980000D03*
G04 #@! TD*
D15*
G04 #@! TO.P,R4,1*
G04 #@! TO.N,Net-(JP1-B)*
X160600000Y-86500000D03*
G04 #@! TO.P,R4,2*
G04 #@! TO.N,VCC*
X162600000Y-86500000D03*
G04 #@! TD*
D16*
G04 #@! TO.P,J5,1,Pin_1*
G04 #@! TO.N,V-BAT*
X146000000Y-90050000D03*
D17*
G04 #@! TO.P,J5,2,Pin_2*
G04 #@! TO.N,GND*
X148000000Y-90050000D03*
G04 #@! TD*
D18*
G04 #@! TO.P,U1,0,GPIO0*
G04 #@! TO.N,/Steuerstromkreis/GPIO0*
X150120000Y-83530000D03*
G04 #@! TO.P,U1,1,GPIO1*
G04 #@! TO.N,/Steuerstromkreis/GPIO1*
X150120000Y-80990000D03*
G04 #@! TO.P,U1,2,GPIO2*
G04 #@! TO.N,V-Mess*
X150120000Y-78450000D03*
G04 #@! TO.P,U1,3,GPIO3*
G04 #@! TO.N,/Steuerstromkreis/GPIO3*
X150120000Y-75910000D03*
G04 #@! TO.P,U1,3.3,3V3*
G04 #@! TO.N,VCC*
X150120000Y-70830000D03*
G04 #@! TO.P,U1,4,GPIO4*
G04 #@! TO.N,/Steuerstromkreis/GPIO4*
X150120000Y-73370000D03*
G04 #@! TO.P,U1,5,GPIO5*
G04 #@! TO.N,/Steuerstromkreis/GPIO5*
X134880000Y-65750000D03*
G04 #@! TO.P,U1,5V,5V*
G04 #@! TO.N,5V0*
X150120000Y-65750000D03*
G04 #@! TO.P,U1,6,GPIO6*
G04 #@! TO.N,/Steuerstromkreis/GPIO6*
X134880000Y-68290000D03*
G04 #@! TO.P,U1,7,GPIO7*
G04 #@! TO.N,/Steuerstromkreis/GPIO7*
X134880000Y-70830000D03*
G04 #@! TO.P,U1,8,GPIO8*
G04 #@! TO.N,/Steuerstromkreis/GPIO8*
X134880000Y-73370000D03*
G04 #@! TO.P,U1,9,GPIO9*
G04 #@! TO.N,/Steuerstromkreis/GPIO9*
X134880000Y-75910000D03*
G04 #@! TO.P,U1,10,GPIO10*
G04 #@! TO.N,/Steuerstromkreis/GPIO10*
X134880000Y-78450000D03*
G04 #@! TO.P,U1,20,GPIO20*
G04 #@! TO.N,/Steuerstromkreis/GPIO20{slash}RXD*
X134880000Y-80990000D03*
G04 #@! TO.P,U1,21,GPIO21*
G04 #@! TO.N,/Steuerstromkreis/GPIO21{slash}TXD*
X134880000Y-83530000D03*
G04 #@! TO.P,U1,G,GND*
G04 #@! TO.N,GND*
X150120000Y-68290000D03*
G04 #@! TD*
D13*
G04 #@! TO.P,J1,1,Pin_1*
G04 #@! TO.N,GND*
X161800000Y-67020000D03*
D14*
G04 #@! TO.P,J1,2,Pin_2*
X161800000Y-69560000D03*
G04 #@! TO.P,J1,3,Pin_3*
X161800000Y-72100000D03*
G04 #@! TO.P,J1,4,Pin_4*
X161800000Y-74640000D03*
G04 #@! TO.P,J1,5,Pin_5*
X161800000Y-77180000D03*
G04 #@! TO.P,J1,6,Pin_6*
X161800000Y-79720000D03*
G04 #@! TD*
D13*
G04 #@! TO.P,J2,1,Pin_1*
G04 #@! TO.N,VCC*
X123700000Y-66850000D03*
D14*
G04 #@! TO.P,J2,2,Pin_2*
X123700000Y-69390000D03*
G04 #@! TO.P,J2,3,Pin_3*
X123700000Y-71930000D03*
G04 #@! TO.P,J2,4,Pin_4*
X123700000Y-74470000D03*
G04 #@! TO.P,J2,5,Pin_5*
X123700000Y-77010000D03*
G04 #@! TO.P,J2,6,Pin_6*
X123700000Y-79550000D03*
G04 #@! TD*
D19*
G04 #@! TO.P,D1,1,K*
G04 #@! TO.N,GND*
X139300000Y-91714315D03*
D20*
G04 #@! TO.P,D1,2,A*
G04 #@! TO.N,V-BAT*
X139300000Y-89174315D03*
G04 #@! TD*
D15*
G04 #@! TO.P,R3,1*
G04 #@! TO.N,Net-(JP2-B)*
X160600000Y-90100000D03*
G04 #@! TO.P,R3,2*
G04 #@! TO.N,VCC*
X162600000Y-90100000D03*
G04 #@! TD*
D11*
G04 #@! TO.P,H1,1*
G04 #@! TO.N,N/C*
X160500000Y-59300000D03*
G04 #@! TD*
D13*
G04 #@! TO.P,J7,1,Pin_1*
G04 #@! TO.N,/Steuerstromkreis/GPIO0*
X128740000Y-83900000D03*
D14*
G04 #@! TO.P,J7,2,Pin_2*
G04 #@! TO.N,/Steuerstromkreis/GPIO21{slash}TXD*
X126200000Y-83900000D03*
G04 #@! TO.P,J7,3,Pin_3*
G04 #@! TO.N,/Steuerstromkreis/GPIO20{slash}RXD*
X123660000Y-83900000D03*
G04 #@! TD*
D13*
G04 #@! TO.P,J3,1,Pin_1*
G04 #@! TO.N,/Steuerstromkreis/GPIO10*
X128700000Y-78480000D03*
D14*
G04 #@! TO.P,J3,2,Pin_2*
G04 #@! TO.N,/Steuerstromkreis/GPIO9*
X128700000Y-75940000D03*
G04 #@! TO.P,J3,3,Pin_3*
G04 #@! TO.N,/Steuerstromkreis/GPIO8*
X128700000Y-73400000D03*
G04 #@! TO.P,J3,4,Pin_4*
G04 #@! TO.N,/Steuerstromkreis/GPIO7*
X128700000Y-70860000D03*
G04 #@! TO.P,J3,5,Pin_5*
G04 #@! TO.N,/Steuerstromkreis/GPIO6*
X128700000Y-68320000D03*
G04 #@! TD*
D21*
G04 #@! TO.P,Q1,1,S*
G04 #@! TO.N,V-BAT*
X133050000Y-88600000D03*
G04 #@! TO.P,Q1,2,D*
G04 #@! TO.N,VCC*
X131150000Y-88600000D03*
G04 #@! TO.P,Q1,3,G*
G04 #@! TO.N,Net-(Q1-G)*
X132100000Y-90475000D03*
G04 #@! TD*
D22*
G04 #@! TO.P,R1,1*
G04 #@! TO.N,GND*
X135100000Y-92700000D03*
G04 #@! TO.P,R1,2*
G04 #@! TO.N,Net-(Q1-G)*
X133450000Y-92700000D03*
G04 #@! TD*
D13*
G04 #@! TO.P,J6,1,Pin_1*
G04 #@! TO.N,5V0*
X156500000Y-65900000D03*
G04 #@! TD*
D12*
G04 #@! TO.P,JP2,1,A*
G04 #@! TO.N,/Steuerstromkreis/GPIO0*
X155500000Y-90100000D03*
G04 #@! TO.P,JP2,2,B*
G04 #@! TO.N,Net-(JP2-B)*
X156800000Y-90100000D03*
G04 #@! TD*
D23*
G04 #@! TO.N,GND*
X142200000Y-92600000D03*
X148000000Y-74900000D03*
G04 #@! TO.N,/Steuerstromkreis/GPIO5*
X153300000Y-67200000D03*
X153300000Y-70700000D03*
G04 #@! TO.N,V-BAT*
X145200000Y-85000000D03*
X146400000Y-82830000D03*
G04 #@! TO.N,VCC*
X162600000Y-84400000D03*
X146400000Y-85900000D03*
X144100000Y-70100000D03*
G04 #@! TD*
D24*
G04 #@! TO.N,GND*
X160530000Y-68290000D02*
X161800000Y-67020000D01*
D25*
X161800000Y-74640000D02*
X161800000Y-77180000D01*
D24*
X141114315Y-91714315D02*
X139300000Y-91714315D01*
X138314315Y-92700000D02*
X139300000Y-91714315D01*
D25*
X161800000Y-77180000D02*
X161800000Y-79720000D01*
D24*
X135100000Y-92700000D02*
X138314315Y-92700000D01*
D10*
X142200000Y-92600000D02*
X142000000Y-92600000D01*
D24*
X148000000Y-90050000D02*
X148000000Y-74900000D01*
D25*
X161800000Y-69560000D02*
X161800000Y-72100000D01*
D24*
X150120000Y-68290000D02*
X160530000Y-68290000D01*
D25*
X161800000Y-72100000D02*
X161800000Y-74640000D01*
X161800000Y-67020000D02*
X161800000Y-69560000D01*
D24*
X142000000Y-92600000D02*
X141114315Y-91714315D01*
D26*
G04 #@! TO.N,/Steuerstromkreis/GPIO1*
X155500000Y-86500000D02*
X155500000Y-81980000D01*
X155500000Y-81980000D02*
X156500000Y-80980000D01*
G04 #@! TO.N,/Steuerstromkreis/GPIO5*
X153420000Y-70820000D02*
X156500000Y-70820000D01*
X153300000Y-63300000D02*
X153300000Y-67200000D01*
X134880000Y-62820000D02*
X136200000Y-61500000D01*
D10*
X153300000Y-70700000D02*
X153420000Y-70820000D01*
D26*
X136200000Y-61500000D02*
X151500000Y-61500000D01*
X151500000Y-61500000D02*
X153300000Y-63300000D01*
X134880000Y-65750000D02*
X134880000Y-62820000D01*
G04 #@! TO.N,/Steuerstromkreis/GPIO0*
X153100000Y-89200000D02*
X154000000Y-90100000D01*
X150120000Y-83530000D02*
X152430000Y-83530000D01*
X153100000Y-84200000D02*
X153100000Y-89200000D01*
X152430000Y-83530000D02*
X153100000Y-84200000D01*
X154000000Y-90100000D02*
X155500000Y-90100000D01*
G04 #@! TO.N,Net-(JP1-B)*
X160600000Y-86500000D02*
X156800000Y-86500000D01*
G04 #@! TO.N,Net-(JP2-B)*
X160600000Y-90100000D02*
X156800000Y-90100000D01*
D24*
G04 #@! TO.N,V-BAT*
X139300000Y-89174315D02*
X133624315Y-89174315D01*
D26*
X146400000Y-83800000D02*
X145200000Y-85000000D01*
D24*
X133624315Y-89174315D02*
X133050000Y-88600000D01*
D26*
X146400000Y-82830000D02*
X146400000Y-83800000D01*
D24*
X145124315Y-89174315D02*
X146000000Y-90050000D01*
X139300000Y-89174315D02*
X145124315Y-89174315D01*
G04 #@! TO.N,VCC*
X142900000Y-84300000D02*
X146000000Y-81200000D01*
D26*
X162600000Y-86500000D02*
X162600000Y-90100000D01*
D25*
X123700000Y-66850000D02*
X123700000Y-69390000D01*
X123700000Y-74470000D02*
X123700000Y-77010000D01*
D24*
X146000000Y-81200000D02*
X146000000Y-71900000D01*
D27*
X144500000Y-85900000D02*
X146400000Y-85900000D01*
D24*
X144100000Y-70100000D02*
X145900000Y-71900000D01*
D25*
X123700000Y-79550000D02*
X123700000Y-77010000D01*
D24*
X131150000Y-88600000D02*
X131150000Y-87050000D01*
D10*
X145900000Y-71900000D02*
X146000000Y-71900000D01*
D26*
X162600000Y-86500000D02*
X162600000Y-84400000D01*
D24*
X131150000Y-87050000D02*
X132000000Y-86200000D01*
X132000000Y-86200000D02*
X141000000Y-86200000D01*
X141000000Y-86200000D02*
X142900000Y-84300000D01*
X146000000Y-71900000D02*
X147070000Y-70830000D01*
D27*
X142900000Y-84300000D02*
X144500000Y-85900000D01*
D25*
X123700000Y-69390000D02*
X123700000Y-71930000D01*
X123700000Y-71930000D02*
X123700000Y-74470000D01*
D24*
X147070000Y-70830000D02*
X150120000Y-70830000D01*
G04 #@! TO.N,Net-(Q1-G)*
X132100000Y-90475000D02*
X132100000Y-91350000D01*
X132100000Y-91350000D02*
X133450000Y-92700000D01*
G04 #@! TD*
M02*
