%TF.GenerationSoftware,KiCad,Pcbnew,9.0.5*%
%TF.CreationDate,2025-11-30T17:46:52+01:00*%
%TF.ProjectId,Sensor_all_ESP32,53656e73-6f72-45f6-916c-6c5f45535033,rev?*%
%TF.SameCoordinates,Original*%
%TF.FileFunction,Drillmap*%
%TF.FilePolarity,Positive*%
%FSLAX45Y45*%
G04 Gerber Fmt 4.5, Leading zero omitted, Abs format (unit mm)*
G04 Created by KiCad (PCBNEW 9.0.5) date 2025-11-30 17:46:52*
%MOMM*%
%LPD*%
G01*
G04 APERTURE LIST*
%ADD10C,0.050000*%
%ADD11C,0.200000*%
%ADD12C,0.100000*%
%ADD13C,0.320000*%
G04 APERTURE END LIST*
D10*
X11810000Y-5300000D02*
X16700000Y-5300000D01*
X16700000Y-9700000D01*
X11810000Y-9700000D01*
X11810000Y-5300000D01*
D11*
D12*
X14205000Y-9245000D02*
X14235000Y-9275000D01*
X14235000Y-9245000D02*
X14205000Y-9275000D01*
X14395000Y-6995000D02*
X14425000Y-7025000D01*
X14425000Y-6995000D02*
X14395000Y-7025000D01*
X14505000Y-8485000D02*
X14535000Y-8515000D01*
X14535000Y-8485000D02*
X14505000Y-8515000D01*
X14625000Y-8268000D02*
X14655000Y-8298000D01*
X14655000Y-8268000D02*
X14625000Y-8298000D01*
X14625000Y-8575000D02*
X14655000Y-8605000D01*
X14655000Y-8575000D02*
X14625000Y-8605000D01*
X14785000Y-7475000D02*
X14815000Y-7505000D01*
X14815000Y-7475000D02*
X14785000Y-7505000D01*
X15315000Y-6705000D02*
X15345000Y-6735000D01*
X15345000Y-6705000D02*
X15315000Y-6735000D01*
X15315000Y-7055000D02*
X15345000Y-7085000D01*
X15345000Y-7055000D02*
X15315000Y-7085000D01*
X16245000Y-8425000D02*
X16275000Y-8455000D01*
X16275000Y-8425000D02*
X16245000Y-8455000D01*
X14637500Y-9005000D02*
G75*
G02*
X14562500Y-9005000I-37500J0D01*
G01*
X14562500Y-9005000D02*
G75*
G02*
X14637500Y-9005000I37500J0D01*
G01*
X14837500Y-9005000D02*
G75*
G02*
X14762500Y-9005000I-37500J0D01*
G01*
X14762500Y-9005000D02*
G75*
G02*
X14837500Y-9005000I37500J0D01*
G01*
X13930000Y-8877432D02*
X13930000Y-8957432D01*
X13890000Y-8917432D02*
X13970000Y-8917432D01*
X13930000Y-9131432D02*
X13930000Y-9211432D01*
X13890000Y-9171432D02*
X13970000Y-9171432D01*
X13517699Y-6604699D02*
X13517699Y-6545301D01*
X13458301Y-6545301D01*
X13458301Y-6604699D01*
X13517699Y-6604699D01*
X13517699Y-6858699D02*
X13517699Y-6799301D01*
X13458301Y-6799301D01*
X13458301Y-6858699D01*
X13517699Y-6858699D01*
X13517699Y-7112699D02*
X13517699Y-7053301D01*
X13458301Y-7053301D01*
X13458301Y-7112699D01*
X13517699Y-7112699D01*
X13517699Y-7366699D02*
X13517699Y-7307301D01*
X13458301Y-7307301D01*
X13458301Y-7366699D01*
X13517699Y-7366699D01*
X13517699Y-7620699D02*
X13517699Y-7561301D01*
X13458301Y-7561301D01*
X13458301Y-7620699D01*
X13517699Y-7620699D01*
X13517699Y-7874699D02*
X13517699Y-7815301D01*
X13458301Y-7815301D01*
X13458301Y-7874699D01*
X13517699Y-7874699D01*
X13517699Y-8128699D02*
X13517699Y-8069301D01*
X13458301Y-8069301D01*
X13458301Y-8128699D01*
X13517699Y-8128699D01*
X13517699Y-8382699D02*
X13517699Y-8323301D01*
X13458301Y-8323301D01*
X13458301Y-8382699D01*
X13517699Y-8382699D01*
X15041699Y-6604699D02*
X15041699Y-6545301D01*
X14982301Y-6545301D01*
X14982301Y-6604699D01*
X15041699Y-6604699D01*
X15041699Y-6858699D02*
X15041699Y-6799301D01*
X14982301Y-6799301D01*
X14982301Y-6858699D01*
X15041699Y-6858699D01*
X15041699Y-7112699D02*
X15041699Y-7053301D01*
X14982301Y-7053301D01*
X14982301Y-7112699D01*
X15041699Y-7112699D01*
X15041699Y-7366699D02*
X15041699Y-7307301D01*
X14982301Y-7307301D01*
X14982301Y-7366699D01*
X15041699Y-7366699D01*
X15041699Y-7620699D02*
X15041699Y-7561301D01*
X14982301Y-7561301D01*
X14982301Y-7620699D01*
X15041699Y-7620699D01*
X15041699Y-7874699D02*
X15041699Y-7815301D01*
X14982301Y-7815301D01*
X14982301Y-7874699D01*
X15041699Y-7874699D01*
X15041699Y-8128699D02*
X15041699Y-8069301D01*
X14982301Y-8069301D01*
X14982301Y-8128699D01*
X15041699Y-8128699D01*
X15041699Y-8382699D02*
X15041699Y-8323301D01*
X14982301Y-8323301D01*
X14982301Y-8382699D01*
X15041699Y-8382699D01*
X12366000Y-8440000D02*
X12416000Y-8390000D01*
X12366000Y-8340000D01*
X12316000Y-8390000D01*
X12366000Y-8440000D01*
X12370000Y-6735000D02*
X12420000Y-6685000D01*
X12370000Y-6635000D01*
X12320000Y-6685000D01*
X12370000Y-6735000D01*
X12370000Y-6989000D02*
X12420000Y-6939000D01*
X12370000Y-6889000D01*
X12320000Y-6939000D01*
X12370000Y-6989000D01*
X12370000Y-7243000D02*
X12420000Y-7193000D01*
X12370000Y-7143000D01*
X12320000Y-7193000D01*
X12370000Y-7243000D01*
X12370000Y-7497000D02*
X12420000Y-7447000D01*
X12370000Y-7397000D01*
X12320000Y-7447000D01*
X12370000Y-7497000D01*
X12370000Y-7751000D02*
X12420000Y-7701000D01*
X12370000Y-7651000D01*
X12320000Y-7701000D01*
X12370000Y-7751000D01*
X12370000Y-8005000D02*
X12420000Y-7955000D01*
X12370000Y-7905000D01*
X12320000Y-7955000D01*
X12370000Y-8005000D01*
X12620000Y-8440000D02*
X12670000Y-8390000D01*
X12620000Y-8340000D01*
X12570000Y-8390000D01*
X12620000Y-8440000D01*
X12870000Y-6882000D02*
X12920000Y-6832000D01*
X12870000Y-6782000D01*
X12820000Y-6832000D01*
X12870000Y-6882000D01*
X12870000Y-7136000D02*
X12920000Y-7086000D01*
X12870000Y-7036000D01*
X12820000Y-7086000D01*
X12870000Y-7136000D01*
X12870000Y-7390000D02*
X12920000Y-7340000D01*
X12870000Y-7290000D01*
X12820000Y-7340000D01*
X12870000Y-7390000D01*
X12870000Y-7644000D02*
X12920000Y-7594000D01*
X12870000Y-7544000D01*
X12820000Y-7594000D01*
X12870000Y-7644000D01*
X12870000Y-7898000D02*
X12920000Y-7848000D01*
X12870000Y-7798000D01*
X12820000Y-7848000D01*
X12870000Y-7898000D01*
X12874000Y-8440000D02*
X12924000Y-8390000D01*
X12874000Y-8340000D01*
X12824000Y-8390000D01*
X12874000Y-8440000D01*
X15650000Y-6640000D02*
X15700000Y-6590000D01*
X15650000Y-6540000D01*
X15600000Y-6590000D01*
X15650000Y-6640000D01*
X15650000Y-7132000D02*
X15700000Y-7082000D01*
X15650000Y-7032000D01*
X15600000Y-7082000D01*
X15650000Y-7132000D01*
X15650000Y-7386000D02*
X15700000Y-7336000D01*
X15650000Y-7286000D01*
X15600000Y-7336000D01*
X15650000Y-7386000D01*
X15650000Y-7640000D02*
X15700000Y-7590000D01*
X15650000Y-7540000D01*
X15600000Y-7590000D01*
X15650000Y-7640000D01*
X15650000Y-7894000D02*
X15700000Y-7844000D01*
X15650000Y-7794000D01*
X15600000Y-7844000D01*
X15650000Y-7894000D01*
X15650000Y-8148000D02*
X15700000Y-8098000D01*
X15650000Y-8048000D01*
X15600000Y-8098000D01*
X15650000Y-8148000D01*
X16180000Y-6752000D02*
X16230000Y-6702000D01*
X16180000Y-6652000D01*
X16130000Y-6702000D01*
X16180000Y-6752000D01*
X16180000Y-7006000D02*
X16230000Y-6956000D01*
X16180000Y-6906000D01*
X16130000Y-6956000D01*
X16180000Y-7006000D01*
X16180000Y-7260000D02*
X16230000Y-7210000D01*
X16180000Y-7160000D01*
X16130000Y-7210000D01*
X16180000Y-7260000D01*
X16180000Y-7514000D02*
X16230000Y-7464000D01*
X16180000Y-7414000D01*
X16130000Y-7464000D01*
X16180000Y-7514000D01*
X16180000Y-7768000D02*
X16230000Y-7718000D01*
X16180000Y-7668000D01*
X16130000Y-7718000D01*
X16180000Y-7768000D01*
X16180000Y-8022000D02*
X16230000Y-7972000D01*
X16180000Y-7922000D01*
X16130000Y-7972000D01*
X16180000Y-8022000D01*
D13*
X12250000Y-8970000D02*
X12570000Y-9290000D01*
X12570000Y-8970000D02*
X12250000Y-9290000D01*
X12570000Y-9130000D02*
G75*
G02*
X12250000Y-9130000I-160000J0D01*
G01*
X12250000Y-9130000D02*
G75*
G02*
X12570000Y-9130000I160000J0D01*
G01*
X15890000Y-5770000D02*
X16210000Y-6090000D01*
X16210000Y-5770000D02*
X15890000Y-6090000D01*
X16210000Y-5930000D02*
G75*
G02*
X15890000Y-5930000I-160000J0D01*
G01*
X15890000Y-5930000D02*
G75*
G02*
X16210000Y-5930000I160000J0D01*
G01*
D11*
X12068277Y-10013984D02*
X12068277Y-9813984D01*
X12068277Y-9813984D02*
X12115896Y-9813984D01*
X12115896Y-9813984D02*
X12144467Y-9823508D01*
X12144467Y-9823508D02*
X12163515Y-9842555D01*
X12163515Y-9842555D02*
X12173039Y-9861603D01*
X12173039Y-9861603D02*
X12182562Y-9899698D01*
X12182562Y-9899698D02*
X12182562Y-9928270D01*
X12182562Y-9928270D02*
X12173039Y-9966365D01*
X12173039Y-9966365D02*
X12163515Y-9985412D01*
X12163515Y-9985412D02*
X12144467Y-10004460D01*
X12144467Y-10004460D02*
X12115896Y-10013984D01*
X12115896Y-10013984D02*
X12068277Y-10013984D01*
X12268277Y-10013984D02*
X12268277Y-9880650D01*
X12268277Y-9918746D02*
X12277801Y-9899698D01*
X12277801Y-9899698D02*
X12287324Y-9890174D01*
X12287324Y-9890174D02*
X12306372Y-9880650D01*
X12306372Y-9880650D02*
X12325420Y-9880650D01*
X12392086Y-10013984D02*
X12392086Y-9880650D01*
X12392086Y-9813984D02*
X12382562Y-9823508D01*
X12382562Y-9823508D02*
X12392086Y-9833031D01*
X12392086Y-9833031D02*
X12401610Y-9823508D01*
X12401610Y-9823508D02*
X12392086Y-9813984D01*
X12392086Y-9813984D02*
X12392086Y-9833031D01*
X12515896Y-10013984D02*
X12496848Y-10004460D01*
X12496848Y-10004460D02*
X12487324Y-9985412D01*
X12487324Y-9985412D02*
X12487324Y-9813984D01*
X12620658Y-10013984D02*
X12601610Y-10004460D01*
X12601610Y-10004460D02*
X12592086Y-9985412D01*
X12592086Y-9985412D02*
X12592086Y-9813984D01*
X12849229Y-10013984D02*
X12849229Y-9813984D01*
X12849229Y-9813984D02*
X12915896Y-9956841D01*
X12915896Y-9956841D02*
X12982562Y-9813984D01*
X12982562Y-9813984D02*
X12982562Y-10013984D01*
X13163515Y-10013984D02*
X13163515Y-9909222D01*
X13163515Y-9909222D02*
X13153991Y-9890174D01*
X13153991Y-9890174D02*
X13134943Y-9880650D01*
X13134943Y-9880650D02*
X13096848Y-9880650D01*
X13096848Y-9880650D02*
X13077801Y-9890174D01*
X13163515Y-10004460D02*
X13144467Y-10013984D01*
X13144467Y-10013984D02*
X13096848Y-10013984D01*
X13096848Y-10013984D02*
X13077801Y-10004460D01*
X13077801Y-10004460D02*
X13068277Y-9985412D01*
X13068277Y-9985412D02*
X13068277Y-9966365D01*
X13068277Y-9966365D02*
X13077801Y-9947317D01*
X13077801Y-9947317D02*
X13096848Y-9937793D01*
X13096848Y-9937793D02*
X13144467Y-9937793D01*
X13144467Y-9937793D02*
X13163515Y-9928270D01*
X13258753Y-9880650D02*
X13258753Y-10080650D01*
X13258753Y-9890174D02*
X13277801Y-9880650D01*
X13277801Y-9880650D02*
X13315896Y-9880650D01*
X13315896Y-9880650D02*
X13334943Y-9890174D01*
X13334943Y-9890174D02*
X13344467Y-9899698D01*
X13344467Y-9899698D02*
X13353991Y-9918746D01*
X13353991Y-9918746D02*
X13353991Y-9975889D01*
X13353991Y-9975889D02*
X13344467Y-9994936D01*
X13344467Y-9994936D02*
X13334943Y-10004460D01*
X13334943Y-10004460D02*
X13315896Y-10013984D01*
X13315896Y-10013984D02*
X13277801Y-10013984D01*
X13277801Y-10013984D02*
X13258753Y-10004460D01*
X13439705Y-9994936D02*
X13449229Y-10004460D01*
X13449229Y-10004460D02*
X13439705Y-10013984D01*
X13439705Y-10013984D02*
X13430182Y-10004460D01*
X13430182Y-10004460D02*
X13439705Y-9994936D01*
X13439705Y-9994936D02*
X13439705Y-10013984D01*
X13439705Y-9890174D02*
X13449229Y-9899698D01*
X13449229Y-9899698D02*
X13439705Y-9909222D01*
X13439705Y-9909222D02*
X13430182Y-9899698D01*
X13430182Y-9899698D02*
X13439705Y-9890174D01*
X13439705Y-9890174D02*
X13439705Y-9909222D01*
D12*
X11777500Y-10327500D02*
X11807500Y-10357500D01*
X11807500Y-10327500D02*
X11777500Y-10357500D01*
D11*
X12106372Y-10233984D02*
X12125420Y-10233984D01*
X12125420Y-10233984D02*
X12144467Y-10243508D01*
X12144467Y-10243508D02*
X12153991Y-10253031D01*
X12153991Y-10253031D02*
X12163515Y-10272079D01*
X12163515Y-10272079D02*
X12173039Y-10310174D01*
X12173039Y-10310174D02*
X12173039Y-10357793D01*
X12173039Y-10357793D02*
X12163515Y-10395889D01*
X12163515Y-10395889D02*
X12153991Y-10414936D01*
X12153991Y-10414936D02*
X12144467Y-10424460D01*
X12144467Y-10424460D02*
X12125420Y-10433984D01*
X12125420Y-10433984D02*
X12106372Y-10433984D01*
X12106372Y-10433984D02*
X12087324Y-10424460D01*
X12087324Y-10424460D02*
X12077801Y-10414936D01*
X12077801Y-10414936D02*
X12068277Y-10395889D01*
X12068277Y-10395889D02*
X12058753Y-10357793D01*
X12058753Y-10357793D02*
X12058753Y-10310174D01*
X12058753Y-10310174D02*
X12068277Y-10272079D01*
X12068277Y-10272079D02*
X12077801Y-10253031D01*
X12077801Y-10253031D02*
X12087324Y-10243508D01*
X12087324Y-10243508D02*
X12106372Y-10233984D01*
X12258753Y-10414936D02*
X12268277Y-10424460D01*
X12268277Y-10424460D02*
X12258753Y-10433984D01*
X12258753Y-10433984D02*
X12249229Y-10424460D01*
X12249229Y-10424460D02*
X12258753Y-10414936D01*
X12258753Y-10414936D02*
X12258753Y-10433984D01*
X12334943Y-10233984D02*
X12458753Y-10233984D01*
X12458753Y-10233984D02*
X12392086Y-10310174D01*
X12392086Y-10310174D02*
X12420658Y-10310174D01*
X12420658Y-10310174D02*
X12439705Y-10319698D01*
X12439705Y-10319698D02*
X12449229Y-10329222D01*
X12449229Y-10329222D02*
X12458753Y-10348270D01*
X12458753Y-10348270D02*
X12458753Y-10395889D01*
X12458753Y-10395889D02*
X12449229Y-10414936D01*
X12449229Y-10414936D02*
X12439705Y-10424460D01*
X12439705Y-10424460D02*
X12420658Y-10433984D01*
X12420658Y-10433984D02*
X12363515Y-10433984D01*
X12363515Y-10433984D02*
X12344467Y-10424460D01*
X12344467Y-10424460D02*
X12334943Y-10414936D01*
X12582562Y-10233984D02*
X12601610Y-10233984D01*
X12601610Y-10233984D02*
X12620658Y-10243508D01*
X12620658Y-10243508D02*
X12630182Y-10253031D01*
X12630182Y-10253031D02*
X12639705Y-10272079D01*
X12639705Y-10272079D02*
X12649229Y-10310174D01*
X12649229Y-10310174D02*
X12649229Y-10357793D01*
X12649229Y-10357793D02*
X12639705Y-10395889D01*
X12639705Y-10395889D02*
X12630182Y-10414936D01*
X12630182Y-10414936D02*
X12620658Y-10424460D01*
X12620658Y-10424460D02*
X12601610Y-10433984D01*
X12601610Y-10433984D02*
X12582562Y-10433984D01*
X12582562Y-10433984D02*
X12563515Y-10424460D01*
X12563515Y-10424460D02*
X12553991Y-10414936D01*
X12553991Y-10414936D02*
X12544467Y-10395889D01*
X12544467Y-10395889D02*
X12534943Y-10357793D01*
X12534943Y-10357793D02*
X12534943Y-10310174D01*
X12534943Y-10310174D02*
X12544467Y-10272079D01*
X12544467Y-10272079D02*
X12553991Y-10253031D01*
X12553991Y-10253031D02*
X12563515Y-10243508D01*
X12563515Y-10243508D02*
X12582562Y-10233984D01*
X12773039Y-10233984D02*
X12792086Y-10233984D01*
X12792086Y-10233984D02*
X12811134Y-10243508D01*
X12811134Y-10243508D02*
X12820658Y-10253031D01*
X12820658Y-10253031D02*
X12830182Y-10272079D01*
X12830182Y-10272079D02*
X12839705Y-10310174D01*
X12839705Y-10310174D02*
X12839705Y-10357793D01*
X12839705Y-10357793D02*
X12830182Y-10395889D01*
X12830182Y-10395889D02*
X12820658Y-10414936D01*
X12820658Y-10414936D02*
X12811134Y-10424460D01*
X12811134Y-10424460D02*
X12792086Y-10433984D01*
X12792086Y-10433984D02*
X12773039Y-10433984D01*
X12773039Y-10433984D02*
X12753991Y-10424460D01*
X12753991Y-10424460D02*
X12744467Y-10414936D01*
X12744467Y-10414936D02*
X12734943Y-10395889D01*
X12734943Y-10395889D02*
X12725420Y-10357793D01*
X12725420Y-10357793D02*
X12725420Y-10310174D01*
X12725420Y-10310174D02*
X12734943Y-10272079D01*
X12734943Y-10272079D02*
X12744467Y-10253031D01*
X12744467Y-10253031D02*
X12753991Y-10243508D01*
X12753991Y-10243508D02*
X12773039Y-10233984D01*
X12925420Y-10433984D02*
X12925420Y-10300650D01*
X12925420Y-10319698D02*
X12934943Y-10310174D01*
X12934943Y-10310174D02*
X12953991Y-10300650D01*
X12953991Y-10300650D02*
X12982563Y-10300650D01*
X12982563Y-10300650D02*
X13001610Y-10310174D01*
X13001610Y-10310174D02*
X13011134Y-10329222D01*
X13011134Y-10329222D02*
X13011134Y-10433984D01*
X13011134Y-10329222D02*
X13020658Y-10310174D01*
X13020658Y-10310174D02*
X13039705Y-10300650D01*
X13039705Y-10300650D02*
X13068277Y-10300650D01*
X13068277Y-10300650D02*
X13087324Y-10310174D01*
X13087324Y-10310174D02*
X13096848Y-10329222D01*
X13096848Y-10329222D02*
X13096848Y-10433984D01*
X13192086Y-10433984D02*
X13192086Y-10300650D01*
X13192086Y-10319698D02*
X13201610Y-10310174D01*
X13201610Y-10310174D02*
X13220658Y-10300650D01*
X13220658Y-10300650D02*
X13249229Y-10300650D01*
X13249229Y-10300650D02*
X13268277Y-10310174D01*
X13268277Y-10310174D02*
X13277801Y-10329222D01*
X13277801Y-10329222D02*
X13277801Y-10433984D01*
X13277801Y-10329222D02*
X13287324Y-10310174D01*
X13287324Y-10310174D02*
X13306372Y-10300650D01*
X13306372Y-10300650D02*
X13334943Y-10300650D01*
X13334943Y-10300650D02*
X13353991Y-10310174D01*
X13353991Y-10310174D02*
X13363515Y-10329222D01*
X13363515Y-10329222D02*
X13363515Y-10433984D01*
X13753991Y-10224460D02*
X13582563Y-10481603D01*
X14011134Y-10233984D02*
X14030182Y-10233984D01*
X14030182Y-10233984D02*
X14049229Y-10243508D01*
X14049229Y-10243508D02*
X14058753Y-10253031D01*
X14058753Y-10253031D02*
X14068277Y-10272079D01*
X14068277Y-10272079D02*
X14077801Y-10310174D01*
X14077801Y-10310174D02*
X14077801Y-10357793D01*
X14077801Y-10357793D02*
X14068277Y-10395889D01*
X14068277Y-10395889D02*
X14058753Y-10414936D01*
X14058753Y-10414936D02*
X14049229Y-10424460D01*
X14049229Y-10424460D02*
X14030182Y-10433984D01*
X14030182Y-10433984D02*
X14011134Y-10433984D01*
X14011134Y-10433984D02*
X13992086Y-10424460D01*
X13992086Y-10424460D02*
X13982563Y-10414936D01*
X13982563Y-10414936D02*
X13973039Y-10395889D01*
X13973039Y-10395889D02*
X13963515Y-10357793D01*
X13963515Y-10357793D02*
X13963515Y-10310174D01*
X13963515Y-10310174D02*
X13973039Y-10272079D01*
X13973039Y-10272079D02*
X13982563Y-10253031D01*
X13982563Y-10253031D02*
X13992086Y-10243508D01*
X13992086Y-10243508D02*
X14011134Y-10233984D01*
X14163515Y-10414936D02*
X14173039Y-10424460D01*
X14173039Y-10424460D02*
X14163515Y-10433984D01*
X14163515Y-10433984D02*
X14153991Y-10424460D01*
X14153991Y-10424460D02*
X14163515Y-10414936D01*
X14163515Y-10414936D02*
X14163515Y-10433984D01*
X14296848Y-10233984D02*
X14315896Y-10233984D01*
X14315896Y-10233984D02*
X14334944Y-10243508D01*
X14334944Y-10243508D02*
X14344467Y-10253031D01*
X14344467Y-10253031D02*
X14353991Y-10272079D01*
X14353991Y-10272079D02*
X14363515Y-10310174D01*
X14363515Y-10310174D02*
X14363515Y-10357793D01*
X14363515Y-10357793D02*
X14353991Y-10395889D01*
X14353991Y-10395889D02*
X14344467Y-10414936D01*
X14344467Y-10414936D02*
X14334944Y-10424460D01*
X14334944Y-10424460D02*
X14315896Y-10433984D01*
X14315896Y-10433984D02*
X14296848Y-10433984D01*
X14296848Y-10433984D02*
X14277801Y-10424460D01*
X14277801Y-10424460D02*
X14268277Y-10414936D01*
X14268277Y-10414936D02*
X14258753Y-10395889D01*
X14258753Y-10395889D02*
X14249229Y-10357793D01*
X14249229Y-10357793D02*
X14249229Y-10310174D01*
X14249229Y-10310174D02*
X14258753Y-10272079D01*
X14258753Y-10272079D02*
X14268277Y-10253031D01*
X14268277Y-10253031D02*
X14277801Y-10243508D01*
X14277801Y-10243508D02*
X14296848Y-10233984D01*
X14553991Y-10433984D02*
X14439706Y-10433984D01*
X14496848Y-10433984D02*
X14496848Y-10233984D01*
X14496848Y-10233984D02*
X14477801Y-10262555D01*
X14477801Y-10262555D02*
X14458753Y-10281603D01*
X14458753Y-10281603D02*
X14439706Y-10291127D01*
X14744467Y-10433984D02*
X14630182Y-10433984D01*
X14687325Y-10433984D02*
X14687325Y-10233984D01*
X14687325Y-10233984D02*
X14668277Y-10262555D01*
X14668277Y-10262555D02*
X14649229Y-10281603D01*
X14649229Y-10281603D02*
X14630182Y-10291127D01*
X14858753Y-10319698D02*
X14839706Y-10310174D01*
X14839706Y-10310174D02*
X14830182Y-10300650D01*
X14830182Y-10300650D02*
X14820658Y-10281603D01*
X14820658Y-10281603D02*
X14820658Y-10272079D01*
X14820658Y-10272079D02*
X14830182Y-10253031D01*
X14830182Y-10253031D02*
X14839706Y-10243508D01*
X14839706Y-10243508D02*
X14858753Y-10233984D01*
X14858753Y-10233984D02*
X14896848Y-10233984D01*
X14896848Y-10233984D02*
X14915896Y-10243508D01*
X14915896Y-10243508D02*
X14925420Y-10253031D01*
X14925420Y-10253031D02*
X14934944Y-10272079D01*
X14934944Y-10272079D02*
X14934944Y-10281603D01*
X14934944Y-10281603D02*
X14925420Y-10300650D01*
X14925420Y-10300650D02*
X14915896Y-10310174D01*
X14915896Y-10310174D02*
X14896848Y-10319698D01*
X14896848Y-10319698D02*
X14858753Y-10319698D01*
X14858753Y-10319698D02*
X14839706Y-10329222D01*
X14839706Y-10329222D02*
X14830182Y-10338746D01*
X14830182Y-10338746D02*
X14820658Y-10357793D01*
X14820658Y-10357793D02*
X14820658Y-10395889D01*
X14820658Y-10395889D02*
X14830182Y-10414936D01*
X14830182Y-10414936D02*
X14839706Y-10424460D01*
X14839706Y-10424460D02*
X14858753Y-10433984D01*
X14858753Y-10433984D02*
X14896848Y-10433984D01*
X14896848Y-10433984D02*
X14915896Y-10424460D01*
X14915896Y-10424460D02*
X14925420Y-10414936D01*
X14925420Y-10414936D02*
X14934944Y-10395889D01*
X14934944Y-10395889D02*
X14934944Y-10357793D01*
X14934944Y-10357793D02*
X14925420Y-10338746D01*
X14925420Y-10338746D02*
X14915896Y-10329222D01*
X14915896Y-10329222D02*
X14896848Y-10319698D01*
X15011134Y-10233984D02*
X15011134Y-10272079D01*
X15087325Y-10233984D02*
X15087325Y-10272079D01*
X15382563Y-10510174D02*
X15373039Y-10500650D01*
X15373039Y-10500650D02*
X15353991Y-10472079D01*
X15353991Y-10472079D02*
X15344468Y-10453031D01*
X15344468Y-10453031D02*
X15334944Y-10424460D01*
X15334944Y-10424460D02*
X15325420Y-10376841D01*
X15325420Y-10376841D02*
X15325420Y-10338746D01*
X15325420Y-10338746D02*
X15334944Y-10291127D01*
X15334944Y-10291127D02*
X15344468Y-10262555D01*
X15344468Y-10262555D02*
X15353991Y-10243508D01*
X15353991Y-10243508D02*
X15373039Y-10214936D01*
X15373039Y-10214936D02*
X15382563Y-10205412D01*
X15468277Y-10433984D02*
X15506372Y-10433984D01*
X15506372Y-10433984D02*
X15525420Y-10424460D01*
X15525420Y-10424460D02*
X15534944Y-10414936D01*
X15534944Y-10414936D02*
X15553991Y-10386365D01*
X15553991Y-10386365D02*
X15563515Y-10348270D01*
X15563515Y-10348270D02*
X15563515Y-10272079D01*
X15563515Y-10272079D02*
X15553991Y-10253031D01*
X15553991Y-10253031D02*
X15544468Y-10243508D01*
X15544468Y-10243508D02*
X15525420Y-10233984D01*
X15525420Y-10233984D02*
X15487325Y-10233984D01*
X15487325Y-10233984D02*
X15468277Y-10243508D01*
X15468277Y-10243508D02*
X15458753Y-10253031D01*
X15458753Y-10253031D02*
X15449229Y-10272079D01*
X15449229Y-10272079D02*
X15449229Y-10319698D01*
X15449229Y-10319698D02*
X15458753Y-10338746D01*
X15458753Y-10338746D02*
X15468277Y-10348270D01*
X15468277Y-10348270D02*
X15487325Y-10357793D01*
X15487325Y-10357793D02*
X15525420Y-10357793D01*
X15525420Y-10357793D02*
X15544468Y-10348270D01*
X15544468Y-10348270D02*
X15553991Y-10338746D01*
X15553991Y-10338746D02*
X15563515Y-10319698D01*
X15801610Y-10433984D02*
X15801610Y-10233984D01*
X15887325Y-10433984D02*
X15887325Y-10329222D01*
X15887325Y-10329222D02*
X15877801Y-10310174D01*
X15877801Y-10310174D02*
X15858753Y-10300650D01*
X15858753Y-10300650D02*
X15830182Y-10300650D01*
X15830182Y-10300650D02*
X15811134Y-10310174D01*
X15811134Y-10310174D02*
X15801610Y-10319698D01*
X16011134Y-10433984D02*
X15992087Y-10424460D01*
X15992087Y-10424460D02*
X15982563Y-10414936D01*
X15982563Y-10414936D02*
X15973039Y-10395889D01*
X15973039Y-10395889D02*
X15973039Y-10338746D01*
X15973039Y-10338746D02*
X15982563Y-10319698D01*
X15982563Y-10319698D02*
X15992087Y-10310174D01*
X15992087Y-10310174D02*
X16011134Y-10300650D01*
X16011134Y-10300650D02*
X16039706Y-10300650D01*
X16039706Y-10300650D02*
X16058753Y-10310174D01*
X16058753Y-10310174D02*
X16068277Y-10319698D01*
X16068277Y-10319698D02*
X16077801Y-10338746D01*
X16077801Y-10338746D02*
X16077801Y-10395889D01*
X16077801Y-10395889D02*
X16068277Y-10414936D01*
X16068277Y-10414936D02*
X16058753Y-10424460D01*
X16058753Y-10424460D02*
X16039706Y-10433984D01*
X16039706Y-10433984D02*
X16011134Y-10433984D01*
X16192087Y-10433984D02*
X16173039Y-10424460D01*
X16173039Y-10424460D02*
X16163515Y-10405412D01*
X16163515Y-10405412D02*
X16163515Y-10233984D01*
X16344468Y-10424460D02*
X16325420Y-10433984D01*
X16325420Y-10433984D02*
X16287325Y-10433984D01*
X16287325Y-10433984D02*
X16268277Y-10424460D01*
X16268277Y-10424460D02*
X16258753Y-10405412D01*
X16258753Y-10405412D02*
X16258753Y-10329222D01*
X16258753Y-10329222D02*
X16268277Y-10310174D01*
X16268277Y-10310174D02*
X16287325Y-10300650D01*
X16287325Y-10300650D02*
X16325420Y-10300650D01*
X16325420Y-10300650D02*
X16344468Y-10310174D01*
X16344468Y-10310174D02*
X16353991Y-10329222D01*
X16353991Y-10329222D02*
X16353991Y-10348270D01*
X16353991Y-10348270D02*
X16258753Y-10367317D01*
X16430182Y-10424460D02*
X16449230Y-10433984D01*
X16449230Y-10433984D02*
X16487325Y-10433984D01*
X16487325Y-10433984D02*
X16506372Y-10424460D01*
X16506372Y-10424460D02*
X16515896Y-10405412D01*
X16515896Y-10405412D02*
X16515896Y-10395889D01*
X16515896Y-10395889D02*
X16506372Y-10376841D01*
X16506372Y-10376841D02*
X16487325Y-10367317D01*
X16487325Y-10367317D02*
X16458753Y-10367317D01*
X16458753Y-10367317D02*
X16439706Y-10357793D01*
X16439706Y-10357793D02*
X16430182Y-10338746D01*
X16430182Y-10338746D02*
X16430182Y-10329222D01*
X16430182Y-10329222D02*
X16439706Y-10310174D01*
X16439706Y-10310174D02*
X16458753Y-10300650D01*
X16458753Y-10300650D02*
X16487325Y-10300650D01*
X16487325Y-10300650D02*
X16506372Y-10310174D01*
X16582563Y-10510174D02*
X16592087Y-10500650D01*
X16592087Y-10500650D02*
X16611134Y-10472079D01*
X16611134Y-10472079D02*
X16620658Y-10453031D01*
X16620658Y-10453031D02*
X16630182Y-10424460D01*
X16630182Y-10424460D02*
X16639706Y-10376841D01*
X16639706Y-10376841D02*
X16639706Y-10338746D01*
X16639706Y-10338746D02*
X16630182Y-10291127D01*
X16630182Y-10291127D02*
X16620658Y-10262555D01*
X16620658Y-10262555D02*
X16611134Y-10243508D01*
X16611134Y-10243508D02*
X16592087Y-10214936D01*
X16592087Y-10214936D02*
X16582563Y-10205412D01*
D12*
X11807500Y-10606500D02*
G75*
G02*
X11732500Y-10606500I-37500J0D01*
G01*
X11732500Y-10606500D02*
G75*
G02*
X11807500Y-10606500I37500J0D01*
G01*
D11*
X12106372Y-10497984D02*
X12125420Y-10497984D01*
X12125420Y-10497984D02*
X12144467Y-10507508D01*
X12144467Y-10507508D02*
X12153991Y-10517031D01*
X12153991Y-10517031D02*
X12163515Y-10536079D01*
X12163515Y-10536079D02*
X12173039Y-10574174D01*
X12173039Y-10574174D02*
X12173039Y-10621793D01*
X12173039Y-10621793D02*
X12163515Y-10659889D01*
X12163515Y-10659889D02*
X12153991Y-10678936D01*
X12153991Y-10678936D02*
X12144467Y-10688460D01*
X12144467Y-10688460D02*
X12125420Y-10697984D01*
X12125420Y-10697984D02*
X12106372Y-10697984D01*
X12106372Y-10697984D02*
X12087324Y-10688460D01*
X12087324Y-10688460D02*
X12077801Y-10678936D01*
X12077801Y-10678936D02*
X12068277Y-10659889D01*
X12068277Y-10659889D02*
X12058753Y-10621793D01*
X12058753Y-10621793D02*
X12058753Y-10574174D01*
X12058753Y-10574174D02*
X12068277Y-10536079D01*
X12068277Y-10536079D02*
X12077801Y-10517031D01*
X12077801Y-10517031D02*
X12087324Y-10507508D01*
X12087324Y-10507508D02*
X12106372Y-10497984D01*
X12258753Y-10678936D02*
X12268277Y-10688460D01*
X12268277Y-10688460D02*
X12258753Y-10697984D01*
X12258753Y-10697984D02*
X12249229Y-10688460D01*
X12249229Y-10688460D02*
X12258753Y-10678936D01*
X12258753Y-10678936D02*
X12258753Y-10697984D01*
X12334943Y-10497984D02*
X12468277Y-10497984D01*
X12468277Y-10497984D02*
X12382562Y-10697984D01*
X12639705Y-10497984D02*
X12544467Y-10497984D01*
X12544467Y-10497984D02*
X12534943Y-10593222D01*
X12534943Y-10593222D02*
X12544467Y-10583698D01*
X12544467Y-10583698D02*
X12563515Y-10574174D01*
X12563515Y-10574174D02*
X12611134Y-10574174D01*
X12611134Y-10574174D02*
X12630182Y-10583698D01*
X12630182Y-10583698D02*
X12639705Y-10593222D01*
X12639705Y-10593222D02*
X12649229Y-10612270D01*
X12649229Y-10612270D02*
X12649229Y-10659889D01*
X12649229Y-10659889D02*
X12639705Y-10678936D01*
X12639705Y-10678936D02*
X12630182Y-10688460D01*
X12630182Y-10688460D02*
X12611134Y-10697984D01*
X12611134Y-10697984D02*
X12563515Y-10697984D01*
X12563515Y-10697984D02*
X12544467Y-10688460D01*
X12544467Y-10688460D02*
X12534943Y-10678936D01*
X12773039Y-10497984D02*
X12792086Y-10497984D01*
X12792086Y-10497984D02*
X12811134Y-10507508D01*
X12811134Y-10507508D02*
X12820658Y-10517031D01*
X12820658Y-10517031D02*
X12830182Y-10536079D01*
X12830182Y-10536079D02*
X12839705Y-10574174D01*
X12839705Y-10574174D02*
X12839705Y-10621793D01*
X12839705Y-10621793D02*
X12830182Y-10659889D01*
X12830182Y-10659889D02*
X12820658Y-10678936D01*
X12820658Y-10678936D02*
X12811134Y-10688460D01*
X12811134Y-10688460D02*
X12792086Y-10697984D01*
X12792086Y-10697984D02*
X12773039Y-10697984D01*
X12773039Y-10697984D02*
X12753991Y-10688460D01*
X12753991Y-10688460D02*
X12744467Y-10678936D01*
X12744467Y-10678936D02*
X12734943Y-10659889D01*
X12734943Y-10659889D02*
X12725420Y-10621793D01*
X12725420Y-10621793D02*
X12725420Y-10574174D01*
X12725420Y-10574174D02*
X12734943Y-10536079D01*
X12734943Y-10536079D02*
X12744467Y-10517031D01*
X12744467Y-10517031D02*
X12753991Y-10507508D01*
X12753991Y-10507508D02*
X12773039Y-10497984D01*
X12925420Y-10697984D02*
X12925420Y-10564650D01*
X12925420Y-10583698D02*
X12934943Y-10574174D01*
X12934943Y-10574174D02*
X12953991Y-10564650D01*
X12953991Y-10564650D02*
X12982563Y-10564650D01*
X12982563Y-10564650D02*
X13001610Y-10574174D01*
X13001610Y-10574174D02*
X13011134Y-10593222D01*
X13011134Y-10593222D02*
X13011134Y-10697984D01*
X13011134Y-10593222D02*
X13020658Y-10574174D01*
X13020658Y-10574174D02*
X13039705Y-10564650D01*
X13039705Y-10564650D02*
X13068277Y-10564650D01*
X13068277Y-10564650D02*
X13087324Y-10574174D01*
X13087324Y-10574174D02*
X13096848Y-10593222D01*
X13096848Y-10593222D02*
X13096848Y-10697984D01*
X13192086Y-10697984D02*
X13192086Y-10564650D01*
X13192086Y-10583698D02*
X13201610Y-10574174D01*
X13201610Y-10574174D02*
X13220658Y-10564650D01*
X13220658Y-10564650D02*
X13249229Y-10564650D01*
X13249229Y-10564650D02*
X13268277Y-10574174D01*
X13268277Y-10574174D02*
X13277801Y-10593222D01*
X13277801Y-10593222D02*
X13277801Y-10697984D01*
X13277801Y-10593222D02*
X13287324Y-10574174D01*
X13287324Y-10574174D02*
X13306372Y-10564650D01*
X13306372Y-10564650D02*
X13334943Y-10564650D01*
X13334943Y-10564650D02*
X13353991Y-10574174D01*
X13353991Y-10574174D02*
X13363515Y-10593222D01*
X13363515Y-10593222D02*
X13363515Y-10697984D01*
X13753991Y-10488460D02*
X13582563Y-10745603D01*
X14011134Y-10497984D02*
X14030182Y-10497984D01*
X14030182Y-10497984D02*
X14049229Y-10507508D01*
X14049229Y-10507508D02*
X14058753Y-10517031D01*
X14058753Y-10517031D02*
X14068277Y-10536079D01*
X14068277Y-10536079D02*
X14077801Y-10574174D01*
X14077801Y-10574174D02*
X14077801Y-10621793D01*
X14077801Y-10621793D02*
X14068277Y-10659889D01*
X14068277Y-10659889D02*
X14058753Y-10678936D01*
X14058753Y-10678936D02*
X14049229Y-10688460D01*
X14049229Y-10688460D02*
X14030182Y-10697984D01*
X14030182Y-10697984D02*
X14011134Y-10697984D01*
X14011134Y-10697984D02*
X13992086Y-10688460D01*
X13992086Y-10688460D02*
X13982563Y-10678936D01*
X13982563Y-10678936D02*
X13973039Y-10659889D01*
X13973039Y-10659889D02*
X13963515Y-10621793D01*
X13963515Y-10621793D02*
X13963515Y-10574174D01*
X13963515Y-10574174D02*
X13973039Y-10536079D01*
X13973039Y-10536079D02*
X13982563Y-10517031D01*
X13982563Y-10517031D02*
X13992086Y-10507508D01*
X13992086Y-10507508D02*
X14011134Y-10497984D01*
X14163515Y-10678936D02*
X14173039Y-10688460D01*
X14173039Y-10688460D02*
X14163515Y-10697984D01*
X14163515Y-10697984D02*
X14153991Y-10688460D01*
X14153991Y-10688460D02*
X14163515Y-10678936D01*
X14163515Y-10678936D02*
X14163515Y-10697984D01*
X14296848Y-10497984D02*
X14315896Y-10497984D01*
X14315896Y-10497984D02*
X14334944Y-10507508D01*
X14334944Y-10507508D02*
X14344467Y-10517031D01*
X14344467Y-10517031D02*
X14353991Y-10536079D01*
X14353991Y-10536079D02*
X14363515Y-10574174D01*
X14363515Y-10574174D02*
X14363515Y-10621793D01*
X14363515Y-10621793D02*
X14353991Y-10659889D01*
X14353991Y-10659889D02*
X14344467Y-10678936D01*
X14344467Y-10678936D02*
X14334944Y-10688460D01*
X14334944Y-10688460D02*
X14315896Y-10697984D01*
X14315896Y-10697984D02*
X14296848Y-10697984D01*
X14296848Y-10697984D02*
X14277801Y-10688460D01*
X14277801Y-10688460D02*
X14268277Y-10678936D01*
X14268277Y-10678936D02*
X14258753Y-10659889D01*
X14258753Y-10659889D02*
X14249229Y-10621793D01*
X14249229Y-10621793D02*
X14249229Y-10574174D01*
X14249229Y-10574174D02*
X14258753Y-10536079D01*
X14258753Y-10536079D02*
X14268277Y-10517031D01*
X14268277Y-10517031D02*
X14277801Y-10507508D01*
X14277801Y-10507508D02*
X14296848Y-10497984D01*
X14439706Y-10517031D02*
X14449229Y-10507508D01*
X14449229Y-10507508D02*
X14468277Y-10497984D01*
X14468277Y-10497984D02*
X14515896Y-10497984D01*
X14515896Y-10497984D02*
X14534944Y-10507508D01*
X14534944Y-10507508D02*
X14544467Y-10517031D01*
X14544467Y-10517031D02*
X14553991Y-10536079D01*
X14553991Y-10536079D02*
X14553991Y-10555127D01*
X14553991Y-10555127D02*
X14544467Y-10583698D01*
X14544467Y-10583698D02*
X14430182Y-10697984D01*
X14430182Y-10697984D02*
X14553991Y-10697984D01*
X14649229Y-10697984D02*
X14687325Y-10697984D01*
X14687325Y-10697984D02*
X14706372Y-10688460D01*
X14706372Y-10688460D02*
X14715896Y-10678936D01*
X14715896Y-10678936D02*
X14734944Y-10650365D01*
X14734944Y-10650365D02*
X14744467Y-10612270D01*
X14744467Y-10612270D02*
X14744467Y-10536079D01*
X14744467Y-10536079D02*
X14734944Y-10517031D01*
X14734944Y-10517031D02*
X14725420Y-10507508D01*
X14725420Y-10507508D02*
X14706372Y-10497984D01*
X14706372Y-10497984D02*
X14668277Y-10497984D01*
X14668277Y-10497984D02*
X14649229Y-10507508D01*
X14649229Y-10507508D02*
X14639706Y-10517031D01*
X14639706Y-10517031D02*
X14630182Y-10536079D01*
X14630182Y-10536079D02*
X14630182Y-10583698D01*
X14630182Y-10583698D02*
X14639706Y-10602746D01*
X14639706Y-10602746D02*
X14649229Y-10612270D01*
X14649229Y-10612270D02*
X14668277Y-10621793D01*
X14668277Y-10621793D02*
X14706372Y-10621793D01*
X14706372Y-10621793D02*
X14725420Y-10612270D01*
X14725420Y-10612270D02*
X14734944Y-10602746D01*
X14734944Y-10602746D02*
X14744467Y-10583698D01*
X14925420Y-10497984D02*
X14830182Y-10497984D01*
X14830182Y-10497984D02*
X14820658Y-10593222D01*
X14820658Y-10593222D02*
X14830182Y-10583698D01*
X14830182Y-10583698D02*
X14849229Y-10574174D01*
X14849229Y-10574174D02*
X14896848Y-10574174D01*
X14896848Y-10574174D02*
X14915896Y-10583698D01*
X14915896Y-10583698D02*
X14925420Y-10593222D01*
X14925420Y-10593222D02*
X14934944Y-10612270D01*
X14934944Y-10612270D02*
X14934944Y-10659889D01*
X14934944Y-10659889D02*
X14925420Y-10678936D01*
X14925420Y-10678936D02*
X14915896Y-10688460D01*
X14915896Y-10688460D02*
X14896848Y-10697984D01*
X14896848Y-10697984D02*
X14849229Y-10697984D01*
X14849229Y-10697984D02*
X14830182Y-10688460D01*
X14830182Y-10688460D02*
X14820658Y-10678936D01*
X15011134Y-10497984D02*
X15011134Y-10536079D01*
X15087325Y-10497984D02*
X15087325Y-10536079D01*
X15382563Y-10774174D02*
X15373039Y-10764650D01*
X15373039Y-10764650D02*
X15353991Y-10736079D01*
X15353991Y-10736079D02*
X15344468Y-10717031D01*
X15344468Y-10717031D02*
X15334944Y-10688460D01*
X15334944Y-10688460D02*
X15325420Y-10640841D01*
X15325420Y-10640841D02*
X15325420Y-10602746D01*
X15325420Y-10602746D02*
X15334944Y-10555127D01*
X15334944Y-10555127D02*
X15344468Y-10526555D01*
X15344468Y-10526555D02*
X15353991Y-10507508D01*
X15353991Y-10507508D02*
X15373039Y-10478936D01*
X15373039Y-10478936D02*
X15382563Y-10469412D01*
X15449229Y-10517031D02*
X15458753Y-10507508D01*
X15458753Y-10507508D02*
X15477801Y-10497984D01*
X15477801Y-10497984D02*
X15525420Y-10497984D01*
X15525420Y-10497984D02*
X15544468Y-10507508D01*
X15544468Y-10507508D02*
X15553991Y-10517031D01*
X15553991Y-10517031D02*
X15563515Y-10536079D01*
X15563515Y-10536079D02*
X15563515Y-10555127D01*
X15563515Y-10555127D02*
X15553991Y-10583698D01*
X15553991Y-10583698D02*
X15439706Y-10697984D01*
X15439706Y-10697984D02*
X15563515Y-10697984D01*
X15801610Y-10697984D02*
X15801610Y-10497984D01*
X15887325Y-10697984D02*
X15887325Y-10593222D01*
X15887325Y-10593222D02*
X15877801Y-10574174D01*
X15877801Y-10574174D02*
X15858753Y-10564650D01*
X15858753Y-10564650D02*
X15830182Y-10564650D01*
X15830182Y-10564650D02*
X15811134Y-10574174D01*
X15811134Y-10574174D02*
X15801610Y-10583698D01*
X16011134Y-10697984D02*
X15992087Y-10688460D01*
X15992087Y-10688460D02*
X15982563Y-10678936D01*
X15982563Y-10678936D02*
X15973039Y-10659889D01*
X15973039Y-10659889D02*
X15973039Y-10602746D01*
X15973039Y-10602746D02*
X15982563Y-10583698D01*
X15982563Y-10583698D02*
X15992087Y-10574174D01*
X15992087Y-10574174D02*
X16011134Y-10564650D01*
X16011134Y-10564650D02*
X16039706Y-10564650D01*
X16039706Y-10564650D02*
X16058753Y-10574174D01*
X16058753Y-10574174D02*
X16068277Y-10583698D01*
X16068277Y-10583698D02*
X16077801Y-10602746D01*
X16077801Y-10602746D02*
X16077801Y-10659889D01*
X16077801Y-10659889D02*
X16068277Y-10678936D01*
X16068277Y-10678936D02*
X16058753Y-10688460D01*
X16058753Y-10688460D02*
X16039706Y-10697984D01*
X16039706Y-10697984D02*
X16011134Y-10697984D01*
X16192087Y-10697984D02*
X16173039Y-10688460D01*
X16173039Y-10688460D02*
X16163515Y-10669412D01*
X16163515Y-10669412D02*
X16163515Y-10497984D01*
X16344468Y-10688460D02*
X16325420Y-10697984D01*
X16325420Y-10697984D02*
X16287325Y-10697984D01*
X16287325Y-10697984D02*
X16268277Y-10688460D01*
X16268277Y-10688460D02*
X16258753Y-10669412D01*
X16258753Y-10669412D02*
X16258753Y-10593222D01*
X16258753Y-10593222D02*
X16268277Y-10574174D01*
X16268277Y-10574174D02*
X16287325Y-10564650D01*
X16287325Y-10564650D02*
X16325420Y-10564650D01*
X16325420Y-10564650D02*
X16344468Y-10574174D01*
X16344468Y-10574174D02*
X16353991Y-10593222D01*
X16353991Y-10593222D02*
X16353991Y-10612270D01*
X16353991Y-10612270D02*
X16258753Y-10631317D01*
X16430182Y-10688460D02*
X16449230Y-10697984D01*
X16449230Y-10697984D02*
X16487325Y-10697984D01*
X16487325Y-10697984D02*
X16506372Y-10688460D01*
X16506372Y-10688460D02*
X16515896Y-10669412D01*
X16515896Y-10669412D02*
X16515896Y-10659889D01*
X16515896Y-10659889D02*
X16506372Y-10640841D01*
X16506372Y-10640841D02*
X16487325Y-10631317D01*
X16487325Y-10631317D02*
X16458753Y-10631317D01*
X16458753Y-10631317D02*
X16439706Y-10621793D01*
X16439706Y-10621793D02*
X16430182Y-10602746D01*
X16430182Y-10602746D02*
X16430182Y-10593222D01*
X16430182Y-10593222D02*
X16439706Y-10574174D01*
X16439706Y-10574174D02*
X16458753Y-10564650D01*
X16458753Y-10564650D02*
X16487325Y-10564650D01*
X16487325Y-10564650D02*
X16506372Y-10574174D01*
X16582563Y-10774174D02*
X16592087Y-10764650D01*
X16592087Y-10764650D02*
X16611134Y-10736079D01*
X16611134Y-10736079D02*
X16620658Y-10717031D01*
X16620658Y-10717031D02*
X16630182Y-10688460D01*
X16630182Y-10688460D02*
X16639706Y-10640841D01*
X16639706Y-10640841D02*
X16639706Y-10602746D01*
X16639706Y-10602746D02*
X16630182Y-10555127D01*
X16630182Y-10555127D02*
X16620658Y-10526555D01*
X16620658Y-10526555D02*
X16611134Y-10507508D01*
X16611134Y-10507508D02*
X16592087Y-10478936D01*
X16592087Y-10478936D02*
X16582563Y-10469412D01*
D12*
X11767500Y-10830500D02*
X11767500Y-10910500D01*
X11727500Y-10870500D02*
X11807500Y-10870500D01*
D11*
X12106372Y-10761984D02*
X12125420Y-10761984D01*
X12125420Y-10761984D02*
X12144467Y-10771508D01*
X12144467Y-10771508D02*
X12153991Y-10781031D01*
X12153991Y-10781031D02*
X12163515Y-10800079D01*
X12163515Y-10800079D02*
X12173039Y-10838174D01*
X12173039Y-10838174D02*
X12173039Y-10885793D01*
X12173039Y-10885793D02*
X12163515Y-10923889D01*
X12163515Y-10923889D02*
X12153991Y-10942936D01*
X12153991Y-10942936D02*
X12144467Y-10952460D01*
X12144467Y-10952460D02*
X12125420Y-10961984D01*
X12125420Y-10961984D02*
X12106372Y-10961984D01*
X12106372Y-10961984D02*
X12087324Y-10952460D01*
X12087324Y-10952460D02*
X12077801Y-10942936D01*
X12077801Y-10942936D02*
X12068277Y-10923889D01*
X12068277Y-10923889D02*
X12058753Y-10885793D01*
X12058753Y-10885793D02*
X12058753Y-10838174D01*
X12058753Y-10838174D02*
X12068277Y-10800079D01*
X12068277Y-10800079D02*
X12077801Y-10781031D01*
X12077801Y-10781031D02*
X12087324Y-10771508D01*
X12087324Y-10771508D02*
X12106372Y-10761984D01*
X12258753Y-10942936D02*
X12268277Y-10952460D01*
X12268277Y-10952460D02*
X12258753Y-10961984D01*
X12258753Y-10961984D02*
X12249229Y-10952460D01*
X12249229Y-10952460D02*
X12258753Y-10942936D01*
X12258753Y-10942936D02*
X12258753Y-10961984D01*
X12382562Y-10847698D02*
X12363515Y-10838174D01*
X12363515Y-10838174D02*
X12353991Y-10828650D01*
X12353991Y-10828650D02*
X12344467Y-10809603D01*
X12344467Y-10809603D02*
X12344467Y-10800079D01*
X12344467Y-10800079D02*
X12353991Y-10781031D01*
X12353991Y-10781031D02*
X12363515Y-10771508D01*
X12363515Y-10771508D02*
X12382562Y-10761984D01*
X12382562Y-10761984D02*
X12420658Y-10761984D01*
X12420658Y-10761984D02*
X12439705Y-10771508D01*
X12439705Y-10771508D02*
X12449229Y-10781031D01*
X12449229Y-10781031D02*
X12458753Y-10800079D01*
X12458753Y-10800079D02*
X12458753Y-10809603D01*
X12458753Y-10809603D02*
X12449229Y-10828650D01*
X12449229Y-10828650D02*
X12439705Y-10838174D01*
X12439705Y-10838174D02*
X12420658Y-10847698D01*
X12420658Y-10847698D02*
X12382562Y-10847698D01*
X12382562Y-10847698D02*
X12363515Y-10857222D01*
X12363515Y-10857222D02*
X12353991Y-10866746D01*
X12353991Y-10866746D02*
X12344467Y-10885793D01*
X12344467Y-10885793D02*
X12344467Y-10923889D01*
X12344467Y-10923889D02*
X12353991Y-10942936D01*
X12353991Y-10942936D02*
X12363515Y-10952460D01*
X12363515Y-10952460D02*
X12382562Y-10961984D01*
X12382562Y-10961984D02*
X12420658Y-10961984D01*
X12420658Y-10961984D02*
X12439705Y-10952460D01*
X12439705Y-10952460D02*
X12449229Y-10942936D01*
X12449229Y-10942936D02*
X12458753Y-10923889D01*
X12458753Y-10923889D02*
X12458753Y-10885793D01*
X12458753Y-10885793D02*
X12449229Y-10866746D01*
X12449229Y-10866746D02*
X12439705Y-10857222D01*
X12439705Y-10857222D02*
X12420658Y-10847698D01*
X12582562Y-10761984D02*
X12601610Y-10761984D01*
X12601610Y-10761984D02*
X12620658Y-10771508D01*
X12620658Y-10771508D02*
X12630182Y-10781031D01*
X12630182Y-10781031D02*
X12639705Y-10800079D01*
X12639705Y-10800079D02*
X12649229Y-10838174D01*
X12649229Y-10838174D02*
X12649229Y-10885793D01*
X12649229Y-10885793D02*
X12639705Y-10923889D01*
X12639705Y-10923889D02*
X12630182Y-10942936D01*
X12630182Y-10942936D02*
X12620658Y-10952460D01*
X12620658Y-10952460D02*
X12601610Y-10961984D01*
X12601610Y-10961984D02*
X12582562Y-10961984D01*
X12582562Y-10961984D02*
X12563515Y-10952460D01*
X12563515Y-10952460D02*
X12553991Y-10942936D01*
X12553991Y-10942936D02*
X12544467Y-10923889D01*
X12544467Y-10923889D02*
X12534943Y-10885793D01*
X12534943Y-10885793D02*
X12534943Y-10838174D01*
X12534943Y-10838174D02*
X12544467Y-10800079D01*
X12544467Y-10800079D02*
X12553991Y-10781031D01*
X12553991Y-10781031D02*
X12563515Y-10771508D01*
X12563515Y-10771508D02*
X12582562Y-10761984D01*
X12773039Y-10761984D02*
X12792086Y-10761984D01*
X12792086Y-10761984D02*
X12811134Y-10771508D01*
X12811134Y-10771508D02*
X12820658Y-10781031D01*
X12820658Y-10781031D02*
X12830182Y-10800079D01*
X12830182Y-10800079D02*
X12839705Y-10838174D01*
X12839705Y-10838174D02*
X12839705Y-10885793D01*
X12839705Y-10885793D02*
X12830182Y-10923889D01*
X12830182Y-10923889D02*
X12820658Y-10942936D01*
X12820658Y-10942936D02*
X12811134Y-10952460D01*
X12811134Y-10952460D02*
X12792086Y-10961984D01*
X12792086Y-10961984D02*
X12773039Y-10961984D01*
X12773039Y-10961984D02*
X12753991Y-10952460D01*
X12753991Y-10952460D02*
X12744467Y-10942936D01*
X12744467Y-10942936D02*
X12734943Y-10923889D01*
X12734943Y-10923889D02*
X12725420Y-10885793D01*
X12725420Y-10885793D02*
X12725420Y-10838174D01*
X12725420Y-10838174D02*
X12734943Y-10800079D01*
X12734943Y-10800079D02*
X12744467Y-10781031D01*
X12744467Y-10781031D02*
X12753991Y-10771508D01*
X12753991Y-10771508D02*
X12773039Y-10761984D01*
X12925420Y-10961984D02*
X12925420Y-10828650D01*
X12925420Y-10847698D02*
X12934943Y-10838174D01*
X12934943Y-10838174D02*
X12953991Y-10828650D01*
X12953991Y-10828650D02*
X12982563Y-10828650D01*
X12982563Y-10828650D02*
X13001610Y-10838174D01*
X13001610Y-10838174D02*
X13011134Y-10857222D01*
X13011134Y-10857222D02*
X13011134Y-10961984D01*
X13011134Y-10857222D02*
X13020658Y-10838174D01*
X13020658Y-10838174D02*
X13039705Y-10828650D01*
X13039705Y-10828650D02*
X13068277Y-10828650D01*
X13068277Y-10828650D02*
X13087324Y-10838174D01*
X13087324Y-10838174D02*
X13096848Y-10857222D01*
X13096848Y-10857222D02*
X13096848Y-10961984D01*
X13192086Y-10961984D02*
X13192086Y-10828650D01*
X13192086Y-10847698D02*
X13201610Y-10838174D01*
X13201610Y-10838174D02*
X13220658Y-10828650D01*
X13220658Y-10828650D02*
X13249229Y-10828650D01*
X13249229Y-10828650D02*
X13268277Y-10838174D01*
X13268277Y-10838174D02*
X13277801Y-10857222D01*
X13277801Y-10857222D02*
X13277801Y-10961984D01*
X13277801Y-10857222D02*
X13287324Y-10838174D01*
X13287324Y-10838174D02*
X13306372Y-10828650D01*
X13306372Y-10828650D02*
X13334943Y-10828650D01*
X13334943Y-10828650D02*
X13353991Y-10838174D01*
X13353991Y-10838174D02*
X13363515Y-10857222D01*
X13363515Y-10857222D02*
X13363515Y-10961984D01*
X13753991Y-10752460D02*
X13582563Y-11009603D01*
X14011134Y-10761984D02*
X14030182Y-10761984D01*
X14030182Y-10761984D02*
X14049229Y-10771508D01*
X14049229Y-10771508D02*
X14058753Y-10781031D01*
X14058753Y-10781031D02*
X14068277Y-10800079D01*
X14068277Y-10800079D02*
X14077801Y-10838174D01*
X14077801Y-10838174D02*
X14077801Y-10885793D01*
X14077801Y-10885793D02*
X14068277Y-10923889D01*
X14068277Y-10923889D02*
X14058753Y-10942936D01*
X14058753Y-10942936D02*
X14049229Y-10952460D01*
X14049229Y-10952460D02*
X14030182Y-10961984D01*
X14030182Y-10961984D02*
X14011134Y-10961984D01*
X14011134Y-10961984D02*
X13992086Y-10952460D01*
X13992086Y-10952460D02*
X13982563Y-10942936D01*
X13982563Y-10942936D02*
X13973039Y-10923889D01*
X13973039Y-10923889D02*
X13963515Y-10885793D01*
X13963515Y-10885793D02*
X13963515Y-10838174D01*
X13963515Y-10838174D02*
X13973039Y-10800079D01*
X13973039Y-10800079D02*
X13982563Y-10781031D01*
X13982563Y-10781031D02*
X13992086Y-10771508D01*
X13992086Y-10771508D02*
X14011134Y-10761984D01*
X14163515Y-10942936D02*
X14173039Y-10952460D01*
X14173039Y-10952460D02*
X14163515Y-10961984D01*
X14163515Y-10961984D02*
X14153991Y-10952460D01*
X14153991Y-10952460D02*
X14163515Y-10942936D01*
X14163515Y-10942936D02*
X14163515Y-10961984D01*
X14296848Y-10761984D02*
X14315896Y-10761984D01*
X14315896Y-10761984D02*
X14334944Y-10771508D01*
X14334944Y-10771508D02*
X14344467Y-10781031D01*
X14344467Y-10781031D02*
X14353991Y-10800079D01*
X14353991Y-10800079D02*
X14363515Y-10838174D01*
X14363515Y-10838174D02*
X14363515Y-10885793D01*
X14363515Y-10885793D02*
X14353991Y-10923889D01*
X14353991Y-10923889D02*
X14344467Y-10942936D01*
X14344467Y-10942936D02*
X14334944Y-10952460D01*
X14334944Y-10952460D02*
X14315896Y-10961984D01*
X14315896Y-10961984D02*
X14296848Y-10961984D01*
X14296848Y-10961984D02*
X14277801Y-10952460D01*
X14277801Y-10952460D02*
X14268277Y-10942936D01*
X14268277Y-10942936D02*
X14258753Y-10923889D01*
X14258753Y-10923889D02*
X14249229Y-10885793D01*
X14249229Y-10885793D02*
X14249229Y-10838174D01*
X14249229Y-10838174D02*
X14258753Y-10800079D01*
X14258753Y-10800079D02*
X14268277Y-10781031D01*
X14268277Y-10781031D02*
X14277801Y-10771508D01*
X14277801Y-10771508D02*
X14296848Y-10761984D01*
X14430182Y-10761984D02*
X14553991Y-10761984D01*
X14553991Y-10761984D02*
X14487325Y-10838174D01*
X14487325Y-10838174D02*
X14515896Y-10838174D01*
X14515896Y-10838174D02*
X14534944Y-10847698D01*
X14534944Y-10847698D02*
X14544467Y-10857222D01*
X14544467Y-10857222D02*
X14553991Y-10876270D01*
X14553991Y-10876270D02*
X14553991Y-10923889D01*
X14553991Y-10923889D02*
X14544467Y-10942936D01*
X14544467Y-10942936D02*
X14534944Y-10952460D01*
X14534944Y-10952460D02*
X14515896Y-10961984D01*
X14515896Y-10961984D02*
X14458753Y-10961984D01*
X14458753Y-10961984D02*
X14439706Y-10952460D01*
X14439706Y-10952460D02*
X14430182Y-10942936D01*
X14744467Y-10961984D02*
X14630182Y-10961984D01*
X14687325Y-10961984D02*
X14687325Y-10761984D01*
X14687325Y-10761984D02*
X14668277Y-10790555D01*
X14668277Y-10790555D02*
X14649229Y-10809603D01*
X14649229Y-10809603D02*
X14630182Y-10819127D01*
X14925420Y-10761984D02*
X14830182Y-10761984D01*
X14830182Y-10761984D02*
X14820658Y-10857222D01*
X14820658Y-10857222D02*
X14830182Y-10847698D01*
X14830182Y-10847698D02*
X14849229Y-10838174D01*
X14849229Y-10838174D02*
X14896848Y-10838174D01*
X14896848Y-10838174D02*
X14915896Y-10847698D01*
X14915896Y-10847698D02*
X14925420Y-10857222D01*
X14925420Y-10857222D02*
X14934944Y-10876270D01*
X14934944Y-10876270D02*
X14934944Y-10923889D01*
X14934944Y-10923889D02*
X14925420Y-10942936D01*
X14925420Y-10942936D02*
X14915896Y-10952460D01*
X14915896Y-10952460D02*
X14896848Y-10961984D01*
X14896848Y-10961984D02*
X14849229Y-10961984D01*
X14849229Y-10961984D02*
X14830182Y-10952460D01*
X14830182Y-10952460D02*
X14820658Y-10942936D01*
X15011134Y-10761984D02*
X15011134Y-10800079D01*
X15087325Y-10761984D02*
X15087325Y-10800079D01*
X15382563Y-11038174D02*
X15373039Y-11028650D01*
X15373039Y-11028650D02*
X15353991Y-11000079D01*
X15353991Y-11000079D02*
X15344468Y-10981031D01*
X15344468Y-10981031D02*
X15334944Y-10952460D01*
X15334944Y-10952460D02*
X15325420Y-10904841D01*
X15325420Y-10904841D02*
X15325420Y-10866746D01*
X15325420Y-10866746D02*
X15334944Y-10819127D01*
X15334944Y-10819127D02*
X15344468Y-10790555D01*
X15344468Y-10790555D02*
X15353991Y-10771508D01*
X15353991Y-10771508D02*
X15373039Y-10742936D01*
X15373039Y-10742936D02*
X15382563Y-10733412D01*
X15449229Y-10781031D02*
X15458753Y-10771508D01*
X15458753Y-10771508D02*
X15477801Y-10761984D01*
X15477801Y-10761984D02*
X15525420Y-10761984D01*
X15525420Y-10761984D02*
X15544468Y-10771508D01*
X15544468Y-10771508D02*
X15553991Y-10781031D01*
X15553991Y-10781031D02*
X15563515Y-10800079D01*
X15563515Y-10800079D02*
X15563515Y-10819127D01*
X15563515Y-10819127D02*
X15553991Y-10847698D01*
X15553991Y-10847698D02*
X15439706Y-10961984D01*
X15439706Y-10961984D02*
X15563515Y-10961984D01*
X15801610Y-10961984D02*
X15801610Y-10761984D01*
X15887325Y-10961984D02*
X15887325Y-10857222D01*
X15887325Y-10857222D02*
X15877801Y-10838174D01*
X15877801Y-10838174D02*
X15858753Y-10828650D01*
X15858753Y-10828650D02*
X15830182Y-10828650D01*
X15830182Y-10828650D02*
X15811134Y-10838174D01*
X15811134Y-10838174D02*
X15801610Y-10847698D01*
X16011134Y-10961984D02*
X15992087Y-10952460D01*
X15992087Y-10952460D02*
X15982563Y-10942936D01*
X15982563Y-10942936D02*
X15973039Y-10923889D01*
X15973039Y-10923889D02*
X15973039Y-10866746D01*
X15973039Y-10866746D02*
X15982563Y-10847698D01*
X15982563Y-10847698D02*
X15992087Y-10838174D01*
X15992087Y-10838174D02*
X16011134Y-10828650D01*
X16011134Y-10828650D02*
X16039706Y-10828650D01*
X16039706Y-10828650D02*
X16058753Y-10838174D01*
X16058753Y-10838174D02*
X16068277Y-10847698D01*
X16068277Y-10847698D02*
X16077801Y-10866746D01*
X16077801Y-10866746D02*
X16077801Y-10923889D01*
X16077801Y-10923889D02*
X16068277Y-10942936D01*
X16068277Y-10942936D02*
X16058753Y-10952460D01*
X16058753Y-10952460D02*
X16039706Y-10961984D01*
X16039706Y-10961984D02*
X16011134Y-10961984D01*
X16192087Y-10961984D02*
X16173039Y-10952460D01*
X16173039Y-10952460D02*
X16163515Y-10933412D01*
X16163515Y-10933412D02*
X16163515Y-10761984D01*
X16344468Y-10952460D02*
X16325420Y-10961984D01*
X16325420Y-10961984D02*
X16287325Y-10961984D01*
X16287325Y-10961984D02*
X16268277Y-10952460D01*
X16268277Y-10952460D02*
X16258753Y-10933412D01*
X16258753Y-10933412D02*
X16258753Y-10857222D01*
X16258753Y-10857222D02*
X16268277Y-10838174D01*
X16268277Y-10838174D02*
X16287325Y-10828650D01*
X16287325Y-10828650D02*
X16325420Y-10828650D01*
X16325420Y-10828650D02*
X16344468Y-10838174D01*
X16344468Y-10838174D02*
X16353991Y-10857222D01*
X16353991Y-10857222D02*
X16353991Y-10876270D01*
X16353991Y-10876270D02*
X16258753Y-10895317D01*
X16430182Y-10952460D02*
X16449230Y-10961984D01*
X16449230Y-10961984D02*
X16487325Y-10961984D01*
X16487325Y-10961984D02*
X16506372Y-10952460D01*
X16506372Y-10952460D02*
X16515896Y-10933412D01*
X16515896Y-10933412D02*
X16515896Y-10923889D01*
X16515896Y-10923889D02*
X16506372Y-10904841D01*
X16506372Y-10904841D02*
X16487325Y-10895317D01*
X16487325Y-10895317D02*
X16458753Y-10895317D01*
X16458753Y-10895317D02*
X16439706Y-10885793D01*
X16439706Y-10885793D02*
X16430182Y-10866746D01*
X16430182Y-10866746D02*
X16430182Y-10857222D01*
X16430182Y-10857222D02*
X16439706Y-10838174D01*
X16439706Y-10838174D02*
X16458753Y-10828650D01*
X16458753Y-10828650D02*
X16487325Y-10828650D01*
X16487325Y-10828650D02*
X16506372Y-10838174D01*
X16582563Y-11038174D02*
X16592087Y-11028650D01*
X16592087Y-11028650D02*
X16611134Y-11000079D01*
X16611134Y-11000079D02*
X16620658Y-10981031D01*
X16620658Y-10981031D02*
X16630182Y-10952460D01*
X16630182Y-10952460D02*
X16639706Y-10904841D01*
X16639706Y-10904841D02*
X16639706Y-10866746D01*
X16639706Y-10866746D02*
X16630182Y-10819127D01*
X16630182Y-10819127D02*
X16620658Y-10790555D01*
X16620658Y-10790555D02*
X16611134Y-10771508D01*
X16611134Y-10771508D02*
X16592087Y-10742936D01*
X16592087Y-10742936D02*
X16582563Y-10733412D01*
D12*
X11795199Y-11164199D02*
X11795199Y-11104801D01*
X11735801Y-11104801D01*
X11735801Y-11164199D01*
X11795199Y-11164199D01*
D11*
X12106372Y-11025984D02*
X12125420Y-11025984D01*
X12125420Y-11025984D02*
X12144467Y-11035508D01*
X12144467Y-11035508D02*
X12153991Y-11045031D01*
X12153991Y-11045031D02*
X12163515Y-11064079D01*
X12163515Y-11064079D02*
X12173039Y-11102174D01*
X12173039Y-11102174D02*
X12173039Y-11149793D01*
X12173039Y-11149793D02*
X12163515Y-11187888D01*
X12163515Y-11187888D02*
X12153991Y-11206936D01*
X12153991Y-11206936D02*
X12144467Y-11216460D01*
X12144467Y-11216460D02*
X12125420Y-11225984D01*
X12125420Y-11225984D02*
X12106372Y-11225984D01*
X12106372Y-11225984D02*
X12087324Y-11216460D01*
X12087324Y-11216460D02*
X12077801Y-11206936D01*
X12077801Y-11206936D02*
X12068277Y-11187888D01*
X12068277Y-11187888D02*
X12058753Y-11149793D01*
X12058753Y-11149793D02*
X12058753Y-11102174D01*
X12058753Y-11102174D02*
X12068277Y-11064079D01*
X12068277Y-11064079D02*
X12077801Y-11045031D01*
X12077801Y-11045031D02*
X12087324Y-11035508D01*
X12087324Y-11035508D02*
X12106372Y-11025984D01*
X12258753Y-11206936D02*
X12268277Y-11216460D01*
X12268277Y-11216460D02*
X12258753Y-11225984D01*
X12258753Y-11225984D02*
X12249229Y-11216460D01*
X12249229Y-11216460D02*
X12258753Y-11206936D01*
X12258753Y-11206936D02*
X12258753Y-11225984D01*
X12382562Y-11111698D02*
X12363515Y-11102174D01*
X12363515Y-11102174D02*
X12353991Y-11092650D01*
X12353991Y-11092650D02*
X12344467Y-11073603D01*
X12344467Y-11073603D02*
X12344467Y-11064079D01*
X12344467Y-11064079D02*
X12353991Y-11045031D01*
X12353991Y-11045031D02*
X12363515Y-11035508D01*
X12363515Y-11035508D02*
X12382562Y-11025984D01*
X12382562Y-11025984D02*
X12420658Y-11025984D01*
X12420658Y-11025984D02*
X12439705Y-11035508D01*
X12439705Y-11035508D02*
X12449229Y-11045031D01*
X12449229Y-11045031D02*
X12458753Y-11064079D01*
X12458753Y-11064079D02*
X12458753Y-11073603D01*
X12458753Y-11073603D02*
X12449229Y-11092650D01*
X12449229Y-11092650D02*
X12439705Y-11102174D01*
X12439705Y-11102174D02*
X12420658Y-11111698D01*
X12420658Y-11111698D02*
X12382562Y-11111698D01*
X12382562Y-11111698D02*
X12363515Y-11121222D01*
X12363515Y-11121222D02*
X12353991Y-11130746D01*
X12353991Y-11130746D02*
X12344467Y-11149793D01*
X12344467Y-11149793D02*
X12344467Y-11187888D01*
X12344467Y-11187888D02*
X12353991Y-11206936D01*
X12353991Y-11206936D02*
X12363515Y-11216460D01*
X12363515Y-11216460D02*
X12382562Y-11225984D01*
X12382562Y-11225984D02*
X12420658Y-11225984D01*
X12420658Y-11225984D02*
X12439705Y-11216460D01*
X12439705Y-11216460D02*
X12449229Y-11206936D01*
X12449229Y-11206936D02*
X12458753Y-11187888D01*
X12458753Y-11187888D02*
X12458753Y-11149793D01*
X12458753Y-11149793D02*
X12449229Y-11130746D01*
X12449229Y-11130746D02*
X12439705Y-11121222D01*
X12439705Y-11121222D02*
X12420658Y-11111698D01*
X12630182Y-11092650D02*
X12630182Y-11225984D01*
X12582562Y-11016460D02*
X12534943Y-11159317D01*
X12534943Y-11159317D02*
X12658753Y-11159317D01*
X12773039Y-11025984D02*
X12792086Y-11025984D01*
X12792086Y-11025984D02*
X12811134Y-11035508D01*
X12811134Y-11035508D02*
X12820658Y-11045031D01*
X12820658Y-11045031D02*
X12830182Y-11064079D01*
X12830182Y-11064079D02*
X12839705Y-11102174D01*
X12839705Y-11102174D02*
X12839705Y-11149793D01*
X12839705Y-11149793D02*
X12830182Y-11187888D01*
X12830182Y-11187888D02*
X12820658Y-11206936D01*
X12820658Y-11206936D02*
X12811134Y-11216460D01*
X12811134Y-11216460D02*
X12792086Y-11225984D01*
X12792086Y-11225984D02*
X12773039Y-11225984D01*
X12773039Y-11225984D02*
X12753991Y-11216460D01*
X12753991Y-11216460D02*
X12744467Y-11206936D01*
X12744467Y-11206936D02*
X12734943Y-11187888D01*
X12734943Y-11187888D02*
X12725420Y-11149793D01*
X12725420Y-11149793D02*
X12725420Y-11102174D01*
X12725420Y-11102174D02*
X12734943Y-11064079D01*
X12734943Y-11064079D02*
X12744467Y-11045031D01*
X12744467Y-11045031D02*
X12753991Y-11035508D01*
X12753991Y-11035508D02*
X12773039Y-11025984D01*
X12925420Y-11225984D02*
X12925420Y-11092650D01*
X12925420Y-11111698D02*
X12934943Y-11102174D01*
X12934943Y-11102174D02*
X12953991Y-11092650D01*
X12953991Y-11092650D02*
X12982563Y-11092650D01*
X12982563Y-11092650D02*
X13001610Y-11102174D01*
X13001610Y-11102174D02*
X13011134Y-11121222D01*
X13011134Y-11121222D02*
X13011134Y-11225984D01*
X13011134Y-11121222D02*
X13020658Y-11102174D01*
X13020658Y-11102174D02*
X13039705Y-11092650D01*
X13039705Y-11092650D02*
X13068277Y-11092650D01*
X13068277Y-11092650D02*
X13087324Y-11102174D01*
X13087324Y-11102174D02*
X13096848Y-11121222D01*
X13096848Y-11121222D02*
X13096848Y-11225984D01*
X13192086Y-11225984D02*
X13192086Y-11092650D01*
X13192086Y-11111698D02*
X13201610Y-11102174D01*
X13201610Y-11102174D02*
X13220658Y-11092650D01*
X13220658Y-11092650D02*
X13249229Y-11092650D01*
X13249229Y-11092650D02*
X13268277Y-11102174D01*
X13268277Y-11102174D02*
X13277801Y-11121222D01*
X13277801Y-11121222D02*
X13277801Y-11225984D01*
X13277801Y-11121222D02*
X13287324Y-11102174D01*
X13287324Y-11102174D02*
X13306372Y-11092650D01*
X13306372Y-11092650D02*
X13334943Y-11092650D01*
X13334943Y-11092650D02*
X13353991Y-11102174D01*
X13353991Y-11102174D02*
X13363515Y-11121222D01*
X13363515Y-11121222D02*
X13363515Y-11225984D01*
X13753991Y-11016460D02*
X13582563Y-11273603D01*
X14011134Y-11025984D02*
X14030182Y-11025984D01*
X14030182Y-11025984D02*
X14049229Y-11035508D01*
X14049229Y-11035508D02*
X14058753Y-11045031D01*
X14058753Y-11045031D02*
X14068277Y-11064079D01*
X14068277Y-11064079D02*
X14077801Y-11102174D01*
X14077801Y-11102174D02*
X14077801Y-11149793D01*
X14077801Y-11149793D02*
X14068277Y-11187888D01*
X14068277Y-11187888D02*
X14058753Y-11206936D01*
X14058753Y-11206936D02*
X14049229Y-11216460D01*
X14049229Y-11216460D02*
X14030182Y-11225984D01*
X14030182Y-11225984D02*
X14011134Y-11225984D01*
X14011134Y-11225984D02*
X13992086Y-11216460D01*
X13992086Y-11216460D02*
X13982563Y-11206936D01*
X13982563Y-11206936D02*
X13973039Y-11187888D01*
X13973039Y-11187888D02*
X13963515Y-11149793D01*
X13963515Y-11149793D02*
X13963515Y-11102174D01*
X13963515Y-11102174D02*
X13973039Y-11064079D01*
X13973039Y-11064079D02*
X13982563Y-11045031D01*
X13982563Y-11045031D02*
X13992086Y-11035508D01*
X13992086Y-11035508D02*
X14011134Y-11025984D01*
X14163515Y-11206936D02*
X14173039Y-11216460D01*
X14173039Y-11216460D02*
X14163515Y-11225984D01*
X14163515Y-11225984D02*
X14153991Y-11216460D01*
X14153991Y-11216460D02*
X14163515Y-11206936D01*
X14163515Y-11206936D02*
X14163515Y-11225984D01*
X14296848Y-11025984D02*
X14315896Y-11025984D01*
X14315896Y-11025984D02*
X14334944Y-11035508D01*
X14334944Y-11035508D02*
X14344467Y-11045031D01*
X14344467Y-11045031D02*
X14353991Y-11064079D01*
X14353991Y-11064079D02*
X14363515Y-11102174D01*
X14363515Y-11102174D02*
X14363515Y-11149793D01*
X14363515Y-11149793D02*
X14353991Y-11187888D01*
X14353991Y-11187888D02*
X14344467Y-11206936D01*
X14344467Y-11206936D02*
X14334944Y-11216460D01*
X14334944Y-11216460D02*
X14315896Y-11225984D01*
X14315896Y-11225984D02*
X14296848Y-11225984D01*
X14296848Y-11225984D02*
X14277801Y-11216460D01*
X14277801Y-11216460D02*
X14268277Y-11206936D01*
X14268277Y-11206936D02*
X14258753Y-11187888D01*
X14258753Y-11187888D02*
X14249229Y-11149793D01*
X14249229Y-11149793D02*
X14249229Y-11102174D01*
X14249229Y-11102174D02*
X14258753Y-11064079D01*
X14258753Y-11064079D02*
X14268277Y-11045031D01*
X14268277Y-11045031D02*
X14277801Y-11035508D01*
X14277801Y-11035508D02*
X14296848Y-11025984D01*
X14430182Y-11025984D02*
X14553991Y-11025984D01*
X14553991Y-11025984D02*
X14487325Y-11102174D01*
X14487325Y-11102174D02*
X14515896Y-11102174D01*
X14515896Y-11102174D02*
X14534944Y-11111698D01*
X14534944Y-11111698D02*
X14544467Y-11121222D01*
X14544467Y-11121222D02*
X14553991Y-11140270D01*
X14553991Y-11140270D02*
X14553991Y-11187888D01*
X14553991Y-11187888D02*
X14544467Y-11206936D01*
X14544467Y-11206936D02*
X14534944Y-11216460D01*
X14534944Y-11216460D02*
X14515896Y-11225984D01*
X14515896Y-11225984D02*
X14458753Y-11225984D01*
X14458753Y-11225984D02*
X14439706Y-11216460D01*
X14439706Y-11216460D02*
X14430182Y-11206936D01*
X14620658Y-11025984D02*
X14744467Y-11025984D01*
X14744467Y-11025984D02*
X14677801Y-11102174D01*
X14677801Y-11102174D02*
X14706372Y-11102174D01*
X14706372Y-11102174D02*
X14725420Y-11111698D01*
X14725420Y-11111698D02*
X14734944Y-11121222D01*
X14734944Y-11121222D02*
X14744467Y-11140270D01*
X14744467Y-11140270D02*
X14744467Y-11187888D01*
X14744467Y-11187888D02*
X14734944Y-11206936D01*
X14734944Y-11206936D02*
X14725420Y-11216460D01*
X14725420Y-11216460D02*
X14706372Y-11225984D01*
X14706372Y-11225984D02*
X14649229Y-11225984D01*
X14649229Y-11225984D02*
X14630182Y-11216460D01*
X14630182Y-11216460D02*
X14620658Y-11206936D01*
X14934944Y-11225984D02*
X14820658Y-11225984D01*
X14877801Y-11225984D02*
X14877801Y-11025984D01*
X14877801Y-11025984D02*
X14858753Y-11054555D01*
X14858753Y-11054555D02*
X14839706Y-11073603D01*
X14839706Y-11073603D02*
X14820658Y-11083127D01*
X15011134Y-11025984D02*
X15011134Y-11064079D01*
X15087325Y-11025984D02*
X15087325Y-11064079D01*
X15382563Y-11302174D02*
X15373039Y-11292650D01*
X15373039Y-11292650D02*
X15353991Y-11264079D01*
X15353991Y-11264079D02*
X15344468Y-11245031D01*
X15344468Y-11245031D02*
X15334944Y-11216460D01*
X15334944Y-11216460D02*
X15325420Y-11168841D01*
X15325420Y-11168841D02*
X15325420Y-11130746D01*
X15325420Y-11130746D02*
X15334944Y-11083127D01*
X15334944Y-11083127D02*
X15344468Y-11054555D01*
X15344468Y-11054555D02*
X15353991Y-11035508D01*
X15353991Y-11035508D02*
X15373039Y-11006936D01*
X15373039Y-11006936D02*
X15382563Y-10997412D01*
X15563515Y-11225984D02*
X15449229Y-11225984D01*
X15506372Y-11225984D02*
X15506372Y-11025984D01*
X15506372Y-11025984D02*
X15487325Y-11054555D01*
X15487325Y-11054555D02*
X15468277Y-11073603D01*
X15468277Y-11073603D02*
X15449229Y-11083127D01*
X15734944Y-11025984D02*
X15696848Y-11025984D01*
X15696848Y-11025984D02*
X15677801Y-11035508D01*
X15677801Y-11035508D02*
X15668277Y-11045031D01*
X15668277Y-11045031D02*
X15649229Y-11073603D01*
X15649229Y-11073603D02*
X15639706Y-11111698D01*
X15639706Y-11111698D02*
X15639706Y-11187888D01*
X15639706Y-11187888D02*
X15649229Y-11206936D01*
X15649229Y-11206936D02*
X15658753Y-11216460D01*
X15658753Y-11216460D02*
X15677801Y-11225984D01*
X15677801Y-11225984D02*
X15715896Y-11225984D01*
X15715896Y-11225984D02*
X15734944Y-11216460D01*
X15734944Y-11216460D02*
X15744468Y-11206936D01*
X15744468Y-11206936D02*
X15753991Y-11187888D01*
X15753991Y-11187888D02*
X15753991Y-11140270D01*
X15753991Y-11140270D02*
X15744468Y-11121222D01*
X15744468Y-11121222D02*
X15734944Y-11111698D01*
X15734944Y-11111698D02*
X15715896Y-11102174D01*
X15715896Y-11102174D02*
X15677801Y-11102174D01*
X15677801Y-11102174D02*
X15658753Y-11111698D01*
X15658753Y-11111698D02*
X15649229Y-11121222D01*
X15649229Y-11121222D02*
X15639706Y-11140270D01*
X15992087Y-11225984D02*
X15992087Y-11025984D01*
X16077801Y-11225984D02*
X16077801Y-11121222D01*
X16077801Y-11121222D02*
X16068277Y-11102174D01*
X16068277Y-11102174D02*
X16049230Y-11092650D01*
X16049230Y-11092650D02*
X16020658Y-11092650D01*
X16020658Y-11092650D02*
X16001610Y-11102174D01*
X16001610Y-11102174D02*
X15992087Y-11111698D01*
X16201610Y-11225984D02*
X16182563Y-11216460D01*
X16182563Y-11216460D02*
X16173039Y-11206936D01*
X16173039Y-11206936D02*
X16163515Y-11187888D01*
X16163515Y-11187888D02*
X16163515Y-11130746D01*
X16163515Y-11130746D02*
X16173039Y-11111698D01*
X16173039Y-11111698D02*
X16182563Y-11102174D01*
X16182563Y-11102174D02*
X16201610Y-11092650D01*
X16201610Y-11092650D02*
X16230182Y-11092650D01*
X16230182Y-11092650D02*
X16249230Y-11102174D01*
X16249230Y-11102174D02*
X16258753Y-11111698D01*
X16258753Y-11111698D02*
X16268277Y-11130746D01*
X16268277Y-11130746D02*
X16268277Y-11187888D01*
X16268277Y-11187888D02*
X16258753Y-11206936D01*
X16258753Y-11206936D02*
X16249230Y-11216460D01*
X16249230Y-11216460D02*
X16230182Y-11225984D01*
X16230182Y-11225984D02*
X16201610Y-11225984D01*
X16382563Y-11225984D02*
X16363515Y-11216460D01*
X16363515Y-11216460D02*
X16353991Y-11197412D01*
X16353991Y-11197412D02*
X16353991Y-11025984D01*
X16534944Y-11216460D02*
X16515896Y-11225984D01*
X16515896Y-11225984D02*
X16477801Y-11225984D01*
X16477801Y-11225984D02*
X16458753Y-11216460D01*
X16458753Y-11216460D02*
X16449230Y-11197412D01*
X16449230Y-11197412D02*
X16449230Y-11121222D01*
X16449230Y-11121222D02*
X16458753Y-11102174D01*
X16458753Y-11102174D02*
X16477801Y-11092650D01*
X16477801Y-11092650D02*
X16515896Y-11092650D01*
X16515896Y-11092650D02*
X16534944Y-11102174D01*
X16534944Y-11102174D02*
X16544468Y-11121222D01*
X16544468Y-11121222D02*
X16544468Y-11140270D01*
X16544468Y-11140270D02*
X16449230Y-11159317D01*
X16620658Y-11216460D02*
X16639706Y-11225984D01*
X16639706Y-11225984D02*
X16677801Y-11225984D01*
X16677801Y-11225984D02*
X16696849Y-11216460D01*
X16696849Y-11216460D02*
X16706372Y-11197412D01*
X16706372Y-11197412D02*
X16706372Y-11187888D01*
X16706372Y-11187888D02*
X16696849Y-11168841D01*
X16696849Y-11168841D02*
X16677801Y-11159317D01*
X16677801Y-11159317D02*
X16649230Y-11159317D01*
X16649230Y-11159317D02*
X16630182Y-11149793D01*
X16630182Y-11149793D02*
X16620658Y-11130746D01*
X16620658Y-11130746D02*
X16620658Y-11121222D01*
X16620658Y-11121222D02*
X16630182Y-11102174D01*
X16630182Y-11102174D02*
X16649230Y-11092650D01*
X16649230Y-11092650D02*
X16677801Y-11092650D01*
X16677801Y-11092650D02*
X16696849Y-11102174D01*
X16773039Y-11302174D02*
X16782563Y-11292650D01*
X16782563Y-11292650D02*
X16801611Y-11264079D01*
X16801611Y-11264079D02*
X16811134Y-11245031D01*
X16811134Y-11245031D02*
X16820658Y-11216460D01*
X16820658Y-11216460D02*
X16830182Y-11168841D01*
X16830182Y-11168841D02*
X16830182Y-11130746D01*
X16830182Y-11130746D02*
X16820658Y-11083127D01*
X16820658Y-11083127D02*
X16811134Y-11054555D01*
X16811134Y-11054555D02*
X16801611Y-11035508D01*
X16801611Y-11035508D02*
X16782563Y-11006936D01*
X16782563Y-11006936D02*
X16773039Y-10997412D01*
D12*
X11757500Y-11448500D02*
X11807500Y-11398500D01*
X11757500Y-11348500D01*
X11707500Y-11398500D01*
X11757500Y-11448500D01*
D11*
X12173039Y-11489984D02*
X12058753Y-11489984D01*
X12115896Y-11489984D02*
X12115896Y-11289984D01*
X12115896Y-11289984D02*
X12096848Y-11318555D01*
X12096848Y-11318555D02*
X12077801Y-11337603D01*
X12077801Y-11337603D02*
X12058753Y-11347127D01*
X12258753Y-11470936D02*
X12268277Y-11480460D01*
X12268277Y-11480460D02*
X12258753Y-11489984D01*
X12258753Y-11489984D02*
X12249229Y-11480460D01*
X12249229Y-11480460D02*
X12258753Y-11470936D01*
X12258753Y-11470936D02*
X12258753Y-11489984D01*
X12392086Y-11289984D02*
X12411134Y-11289984D01*
X12411134Y-11289984D02*
X12430182Y-11299508D01*
X12430182Y-11299508D02*
X12439705Y-11309031D01*
X12439705Y-11309031D02*
X12449229Y-11328079D01*
X12449229Y-11328079D02*
X12458753Y-11366174D01*
X12458753Y-11366174D02*
X12458753Y-11413793D01*
X12458753Y-11413793D02*
X12449229Y-11451888D01*
X12449229Y-11451888D02*
X12439705Y-11470936D01*
X12439705Y-11470936D02*
X12430182Y-11480460D01*
X12430182Y-11480460D02*
X12411134Y-11489984D01*
X12411134Y-11489984D02*
X12392086Y-11489984D01*
X12392086Y-11489984D02*
X12373039Y-11480460D01*
X12373039Y-11480460D02*
X12363515Y-11470936D01*
X12363515Y-11470936D02*
X12353991Y-11451888D01*
X12353991Y-11451888D02*
X12344467Y-11413793D01*
X12344467Y-11413793D02*
X12344467Y-11366174D01*
X12344467Y-11366174D02*
X12353991Y-11328079D01*
X12353991Y-11328079D02*
X12363515Y-11309031D01*
X12363515Y-11309031D02*
X12373039Y-11299508D01*
X12373039Y-11299508D02*
X12392086Y-11289984D01*
X12582562Y-11289984D02*
X12601610Y-11289984D01*
X12601610Y-11289984D02*
X12620658Y-11299508D01*
X12620658Y-11299508D02*
X12630182Y-11309031D01*
X12630182Y-11309031D02*
X12639705Y-11328079D01*
X12639705Y-11328079D02*
X12649229Y-11366174D01*
X12649229Y-11366174D02*
X12649229Y-11413793D01*
X12649229Y-11413793D02*
X12639705Y-11451888D01*
X12639705Y-11451888D02*
X12630182Y-11470936D01*
X12630182Y-11470936D02*
X12620658Y-11480460D01*
X12620658Y-11480460D02*
X12601610Y-11489984D01*
X12601610Y-11489984D02*
X12582562Y-11489984D01*
X12582562Y-11489984D02*
X12563515Y-11480460D01*
X12563515Y-11480460D02*
X12553991Y-11470936D01*
X12553991Y-11470936D02*
X12544467Y-11451888D01*
X12544467Y-11451888D02*
X12534943Y-11413793D01*
X12534943Y-11413793D02*
X12534943Y-11366174D01*
X12534943Y-11366174D02*
X12544467Y-11328079D01*
X12544467Y-11328079D02*
X12553991Y-11309031D01*
X12553991Y-11309031D02*
X12563515Y-11299508D01*
X12563515Y-11299508D02*
X12582562Y-11289984D01*
X12773039Y-11289984D02*
X12792086Y-11289984D01*
X12792086Y-11289984D02*
X12811134Y-11299508D01*
X12811134Y-11299508D02*
X12820658Y-11309031D01*
X12820658Y-11309031D02*
X12830182Y-11328079D01*
X12830182Y-11328079D02*
X12839705Y-11366174D01*
X12839705Y-11366174D02*
X12839705Y-11413793D01*
X12839705Y-11413793D02*
X12830182Y-11451888D01*
X12830182Y-11451888D02*
X12820658Y-11470936D01*
X12820658Y-11470936D02*
X12811134Y-11480460D01*
X12811134Y-11480460D02*
X12792086Y-11489984D01*
X12792086Y-11489984D02*
X12773039Y-11489984D01*
X12773039Y-11489984D02*
X12753991Y-11480460D01*
X12753991Y-11480460D02*
X12744467Y-11470936D01*
X12744467Y-11470936D02*
X12734943Y-11451888D01*
X12734943Y-11451888D02*
X12725420Y-11413793D01*
X12725420Y-11413793D02*
X12725420Y-11366174D01*
X12725420Y-11366174D02*
X12734943Y-11328079D01*
X12734943Y-11328079D02*
X12744467Y-11309031D01*
X12744467Y-11309031D02*
X12753991Y-11299508D01*
X12753991Y-11299508D02*
X12773039Y-11289984D01*
X12925420Y-11489984D02*
X12925420Y-11356650D01*
X12925420Y-11375698D02*
X12934943Y-11366174D01*
X12934943Y-11366174D02*
X12953991Y-11356650D01*
X12953991Y-11356650D02*
X12982563Y-11356650D01*
X12982563Y-11356650D02*
X13001610Y-11366174D01*
X13001610Y-11366174D02*
X13011134Y-11385222D01*
X13011134Y-11385222D02*
X13011134Y-11489984D01*
X13011134Y-11385222D02*
X13020658Y-11366174D01*
X13020658Y-11366174D02*
X13039705Y-11356650D01*
X13039705Y-11356650D02*
X13068277Y-11356650D01*
X13068277Y-11356650D02*
X13087324Y-11366174D01*
X13087324Y-11366174D02*
X13096848Y-11385222D01*
X13096848Y-11385222D02*
X13096848Y-11489984D01*
X13192086Y-11489984D02*
X13192086Y-11356650D01*
X13192086Y-11375698D02*
X13201610Y-11366174D01*
X13201610Y-11366174D02*
X13220658Y-11356650D01*
X13220658Y-11356650D02*
X13249229Y-11356650D01*
X13249229Y-11356650D02*
X13268277Y-11366174D01*
X13268277Y-11366174D02*
X13277801Y-11385222D01*
X13277801Y-11385222D02*
X13277801Y-11489984D01*
X13277801Y-11385222D02*
X13287324Y-11366174D01*
X13287324Y-11366174D02*
X13306372Y-11356650D01*
X13306372Y-11356650D02*
X13334943Y-11356650D01*
X13334943Y-11356650D02*
X13353991Y-11366174D01*
X13353991Y-11366174D02*
X13363515Y-11385222D01*
X13363515Y-11385222D02*
X13363515Y-11489984D01*
X13753991Y-11280460D02*
X13582563Y-11537603D01*
X14011134Y-11289984D02*
X14030182Y-11289984D01*
X14030182Y-11289984D02*
X14049229Y-11299508D01*
X14049229Y-11299508D02*
X14058753Y-11309031D01*
X14058753Y-11309031D02*
X14068277Y-11328079D01*
X14068277Y-11328079D02*
X14077801Y-11366174D01*
X14077801Y-11366174D02*
X14077801Y-11413793D01*
X14077801Y-11413793D02*
X14068277Y-11451888D01*
X14068277Y-11451888D02*
X14058753Y-11470936D01*
X14058753Y-11470936D02*
X14049229Y-11480460D01*
X14049229Y-11480460D02*
X14030182Y-11489984D01*
X14030182Y-11489984D02*
X14011134Y-11489984D01*
X14011134Y-11489984D02*
X13992086Y-11480460D01*
X13992086Y-11480460D02*
X13982563Y-11470936D01*
X13982563Y-11470936D02*
X13973039Y-11451888D01*
X13973039Y-11451888D02*
X13963515Y-11413793D01*
X13963515Y-11413793D02*
X13963515Y-11366174D01*
X13963515Y-11366174D02*
X13973039Y-11328079D01*
X13973039Y-11328079D02*
X13982563Y-11309031D01*
X13982563Y-11309031D02*
X13992086Y-11299508D01*
X13992086Y-11299508D02*
X14011134Y-11289984D01*
X14163515Y-11470936D02*
X14173039Y-11480460D01*
X14173039Y-11480460D02*
X14163515Y-11489984D01*
X14163515Y-11489984D02*
X14153991Y-11480460D01*
X14153991Y-11480460D02*
X14163515Y-11470936D01*
X14163515Y-11470936D02*
X14163515Y-11489984D01*
X14296848Y-11289984D02*
X14315896Y-11289984D01*
X14315896Y-11289984D02*
X14334944Y-11299508D01*
X14334944Y-11299508D02*
X14344467Y-11309031D01*
X14344467Y-11309031D02*
X14353991Y-11328079D01*
X14353991Y-11328079D02*
X14363515Y-11366174D01*
X14363515Y-11366174D02*
X14363515Y-11413793D01*
X14363515Y-11413793D02*
X14353991Y-11451888D01*
X14353991Y-11451888D02*
X14344467Y-11470936D01*
X14344467Y-11470936D02*
X14334944Y-11480460D01*
X14334944Y-11480460D02*
X14315896Y-11489984D01*
X14315896Y-11489984D02*
X14296848Y-11489984D01*
X14296848Y-11489984D02*
X14277801Y-11480460D01*
X14277801Y-11480460D02*
X14268277Y-11470936D01*
X14268277Y-11470936D02*
X14258753Y-11451888D01*
X14258753Y-11451888D02*
X14249229Y-11413793D01*
X14249229Y-11413793D02*
X14249229Y-11366174D01*
X14249229Y-11366174D02*
X14258753Y-11328079D01*
X14258753Y-11328079D02*
X14268277Y-11309031D01*
X14268277Y-11309031D02*
X14277801Y-11299508D01*
X14277801Y-11299508D02*
X14296848Y-11289984D01*
X14430182Y-11289984D02*
X14553991Y-11289984D01*
X14553991Y-11289984D02*
X14487325Y-11366174D01*
X14487325Y-11366174D02*
X14515896Y-11366174D01*
X14515896Y-11366174D02*
X14534944Y-11375698D01*
X14534944Y-11375698D02*
X14544467Y-11385222D01*
X14544467Y-11385222D02*
X14553991Y-11404269D01*
X14553991Y-11404269D02*
X14553991Y-11451888D01*
X14553991Y-11451888D02*
X14544467Y-11470936D01*
X14544467Y-11470936D02*
X14534944Y-11480460D01*
X14534944Y-11480460D02*
X14515896Y-11489984D01*
X14515896Y-11489984D02*
X14458753Y-11489984D01*
X14458753Y-11489984D02*
X14439706Y-11480460D01*
X14439706Y-11480460D02*
X14430182Y-11470936D01*
X14649229Y-11489984D02*
X14687325Y-11489984D01*
X14687325Y-11489984D02*
X14706372Y-11480460D01*
X14706372Y-11480460D02*
X14715896Y-11470936D01*
X14715896Y-11470936D02*
X14734944Y-11442365D01*
X14734944Y-11442365D02*
X14744467Y-11404269D01*
X14744467Y-11404269D02*
X14744467Y-11328079D01*
X14744467Y-11328079D02*
X14734944Y-11309031D01*
X14734944Y-11309031D02*
X14725420Y-11299508D01*
X14725420Y-11299508D02*
X14706372Y-11289984D01*
X14706372Y-11289984D02*
X14668277Y-11289984D01*
X14668277Y-11289984D02*
X14649229Y-11299508D01*
X14649229Y-11299508D02*
X14639706Y-11309031D01*
X14639706Y-11309031D02*
X14630182Y-11328079D01*
X14630182Y-11328079D02*
X14630182Y-11375698D01*
X14630182Y-11375698D02*
X14639706Y-11394746D01*
X14639706Y-11394746D02*
X14649229Y-11404269D01*
X14649229Y-11404269D02*
X14668277Y-11413793D01*
X14668277Y-11413793D02*
X14706372Y-11413793D01*
X14706372Y-11413793D02*
X14725420Y-11404269D01*
X14725420Y-11404269D02*
X14734944Y-11394746D01*
X14734944Y-11394746D02*
X14744467Y-11375698D01*
X14915896Y-11356650D02*
X14915896Y-11489984D01*
X14868277Y-11280460D02*
X14820658Y-11423317D01*
X14820658Y-11423317D02*
X14944467Y-11423317D01*
X15011134Y-11289984D02*
X15011134Y-11328079D01*
X15087325Y-11289984D02*
X15087325Y-11328079D01*
X15382563Y-11566174D02*
X15373039Y-11556650D01*
X15373039Y-11556650D02*
X15353991Y-11528079D01*
X15353991Y-11528079D02*
X15344468Y-11509031D01*
X15344468Y-11509031D02*
X15334944Y-11480460D01*
X15334944Y-11480460D02*
X15325420Y-11432841D01*
X15325420Y-11432841D02*
X15325420Y-11394746D01*
X15325420Y-11394746D02*
X15334944Y-11347127D01*
X15334944Y-11347127D02*
X15344468Y-11318555D01*
X15344468Y-11318555D02*
X15353991Y-11299508D01*
X15353991Y-11299508D02*
X15373039Y-11270936D01*
X15373039Y-11270936D02*
X15382563Y-11261412D01*
X15449229Y-11309031D02*
X15458753Y-11299508D01*
X15458753Y-11299508D02*
X15477801Y-11289984D01*
X15477801Y-11289984D02*
X15525420Y-11289984D01*
X15525420Y-11289984D02*
X15544468Y-11299508D01*
X15544468Y-11299508D02*
X15553991Y-11309031D01*
X15553991Y-11309031D02*
X15563515Y-11328079D01*
X15563515Y-11328079D02*
X15563515Y-11347127D01*
X15563515Y-11347127D02*
X15553991Y-11375698D01*
X15553991Y-11375698D02*
X15439706Y-11489984D01*
X15439706Y-11489984D02*
X15563515Y-11489984D01*
X15734944Y-11289984D02*
X15696848Y-11289984D01*
X15696848Y-11289984D02*
X15677801Y-11299508D01*
X15677801Y-11299508D02*
X15668277Y-11309031D01*
X15668277Y-11309031D02*
X15649229Y-11337603D01*
X15649229Y-11337603D02*
X15639706Y-11375698D01*
X15639706Y-11375698D02*
X15639706Y-11451888D01*
X15639706Y-11451888D02*
X15649229Y-11470936D01*
X15649229Y-11470936D02*
X15658753Y-11480460D01*
X15658753Y-11480460D02*
X15677801Y-11489984D01*
X15677801Y-11489984D02*
X15715896Y-11489984D01*
X15715896Y-11489984D02*
X15734944Y-11480460D01*
X15734944Y-11480460D02*
X15744468Y-11470936D01*
X15744468Y-11470936D02*
X15753991Y-11451888D01*
X15753991Y-11451888D02*
X15753991Y-11404269D01*
X15753991Y-11404269D02*
X15744468Y-11385222D01*
X15744468Y-11385222D02*
X15734944Y-11375698D01*
X15734944Y-11375698D02*
X15715896Y-11366174D01*
X15715896Y-11366174D02*
X15677801Y-11366174D01*
X15677801Y-11366174D02*
X15658753Y-11375698D01*
X15658753Y-11375698D02*
X15649229Y-11385222D01*
X15649229Y-11385222D02*
X15639706Y-11404269D01*
X15992087Y-11489984D02*
X15992087Y-11289984D01*
X16077801Y-11489984D02*
X16077801Y-11385222D01*
X16077801Y-11385222D02*
X16068277Y-11366174D01*
X16068277Y-11366174D02*
X16049230Y-11356650D01*
X16049230Y-11356650D02*
X16020658Y-11356650D01*
X16020658Y-11356650D02*
X16001610Y-11366174D01*
X16001610Y-11366174D02*
X15992087Y-11375698D01*
X16201610Y-11489984D02*
X16182563Y-11480460D01*
X16182563Y-11480460D02*
X16173039Y-11470936D01*
X16173039Y-11470936D02*
X16163515Y-11451888D01*
X16163515Y-11451888D02*
X16163515Y-11394746D01*
X16163515Y-11394746D02*
X16173039Y-11375698D01*
X16173039Y-11375698D02*
X16182563Y-11366174D01*
X16182563Y-11366174D02*
X16201610Y-11356650D01*
X16201610Y-11356650D02*
X16230182Y-11356650D01*
X16230182Y-11356650D02*
X16249230Y-11366174D01*
X16249230Y-11366174D02*
X16258753Y-11375698D01*
X16258753Y-11375698D02*
X16268277Y-11394746D01*
X16268277Y-11394746D02*
X16268277Y-11451888D01*
X16268277Y-11451888D02*
X16258753Y-11470936D01*
X16258753Y-11470936D02*
X16249230Y-11480460D01*
X16249230Y-11480460D02*
X16230182Y-11489984D01*
X16230182Y-11489984D02*
X16201610Y-11489984D01*
X16382563Y-11489984D02*
X16363515Y-11480460D01*
X16363515Y-11480460D02*
X16353991Y-11461412D01*
X16353991Y-11461412D02*
X16353991Y-11289984D01*
X16534944Y-11480460D02*
X16515896Y-11489984D01*
X16515896Y-11489984D02*
X16477801Y-11489984D01*
X16477801Y-11489984D02*
X16458753Y-11480460D01*
X16458753Y-11480460D02*
X16449230Y-11461412D01*
X16449230Y-11461412D02*
X16449230Y-11385222D01*
X16449230Y-11385222D02*
X16458753Y-11366174D01*
X16458753Y-11366174D02*
X16477801Y-11356650D01*
X16477801Y-11356650D02*
X16515896Y-11356650D01*
X16515896Y-11356650D02*
X16534944Y-11366174D01*
X16534944Y-11366174D02*
X16544468Y-11385222D01*
X16544468Y-11385222D02*
X16544468Y-11404269D01*
X16544468Y-11404269D02*
X16449230Y-11423317D01*
X16620658Y-11480460D02*
X16639706Y-11489984D01*
X16639706Y-11489984D02*
X16677801Y-11489984D01*
X16677801Y-11489984D02*
X16696849Y-11480460D01*
X16696849Y-11480460D02*
X16706372Y-11461412D01*
X16706372Y-11461412D02*
X16706372Y-11451888D01*
X16706372Y-11451888D02*
X16696849Y-11432841D01*
X16696849Y-11432841D02*
X16677801Y-11423317D01*
X16677801Y-11423317D02*
X16649230Y-11423317D01*
X16649230Y-11423317D02*
X16630182Y-11413793D01*
X16630182Y-11413793D02*
X16620658Y-11394746D01*
X16620658Y-11394746D02*
X16620658Y-11385222D01*
X16620658Y-11385222D02*
X16630182Y-11366174D01*
X16630182Y-11366174D02*
X16649230Y-11356650D01*
X16649230Y-11356650D02*
X16677801Y-11356650D01*
X16677801Y-11356650D02*
X16696849Y-11366174D01*
X16773039Y-11566174D02*
X16782563Y-11556650D01*
X16782563Y-11556650D02*
X16801611Y-11528079D01*
X16801611Y-11528079D02*
X16811134Y-11509031D01*
X16811134Y-11509031D02*
X16820658Y-11480460D01*
X16820658Y-11480460D02*
X16830182Y-11432841D01*
X16830182Y-11432841D02*
X16830182Y-11394746D01*
X16830182Y-11394746D02*
X16820658Y-11347127D01*
X16820658Y-11347127D02*
X16811134Y-11318555D01*
X16811134Y-11318555D02*
X16801611Y-11299508D01*
X16801611Y-11299508D02*
X16782563Y-11270936D01*
X16782563Y-11270936D02*
X16773039Y-11261412D01*
X11607500Y-11562500D02*
X11807500Y-11762500D01*
X11807500Y-11562500D02*
X11607500Y-11762500D01*
X11807500Y-11662500D02*
G75*
G02*
X11607500Y-11662500I-100000J0D01*
G01*
X11607500Y-11662500D02*
G75*
G02*
X11807500Y-11662500I100000J0D01*
G01*
X12049229Y-11553984D02*
X12173039Y-11553984D01*
X12173039Y-11553984D02*
X12106372Y-11630174D01*
X12106372Y-11630174D02*
X12134943Y-11630174D01*
X12134943Y-11630174D02*
X12153991Y-11639698D01*
X12153991Y-11639698D02*
X12163515Y-11649222D01*
X12163515Y-11649222D02*
X12173039Y-11668269D01*
X12173039Y-11668269D02*
X12173039Y-11715888D01*
X12173039Y-11715888D02*
X12163515Y-11734936D01*
X12163515Y-11734936D02*
X12153991Y-11744460D01*
X12153991Y-11744460D02*
X12134943Y-11753984D01*
X12134943Y-11753984D02*
X12077801Y-11753984D01*
X12077801Y-11753984D02*
X12058753Y-11744460D01*
X12058753Y-11744460D02*
X12049229Y-11734936D01*
X12258753Y-11734936D02*
X12268277Y-11744460D01*
X12268277Y-11744460D02*
X12258753Y-11753984D01*
X12258753Y-11753984D02*
X12249229Y-11744460D01*
X12249229Y-11744460D02*
X12258753Y-11734936D01*
X12258753Y-11734936D02*
X12258753Y-11753984D01*
X12344467Y-11573031D02*
X12353991Y-11563508D01*
X12353991Y-11563508D02*
X12373039Y-11553984D01*
X12373039Y-11553984D02*
X12420658Y-11553984D01*
X12420658Y-11553984D02*
X12439705Y-11563508D01*
X12439705Y-11563508D02*
X12449229Y-11573031D01*
X12449229Y-11573031D02*
X12458753Y-11592079D01*
X12458753Y-11592079D02*
X12458753Y-11611127D01*
X12458753Y-11611127D02*
X12449229Y-11639698D01*
X12449229Y-11639698D02*
X12334943Y-11753984D01*
X12334943Y-11753984D02*
X12458753Y-11753984D01*
X12582562Y-11553984D02*
X12601610Y-11553984D01*
X12601610Y-11553984D02*
X12620658Y-11563508D01*
X12620658Y-11563508D02*
X12630182Y-11573031D01*
X12630182Y-11573031D02*
X12639705Y-11592079D01*
X12639705Y-11592079D02*
X12649229Y-11630174D01*
X12649229Y-11630174D02*
X12649229Y-11677793D01*
X12649229Y-11677793D02*
X12639705Y-11715888D01*
X12639705Y-11715888D02*
X12630182Y-11734936D01*
X12630182Y-11734936D02*
X12620658Y-11744460D01*
X12620658Y-11744460D02*
X12601610Y-11753984D01*
X12601610Y-11753984D02*
X12582562Y-11753984D01*
X12582562Y-11753984D02*
X12563515Y-11744460D01*
X12563515Y-11744460D02*
X12553991Y-11734936D01*
X12553991Y-11734936D02*
X12544467Y-11715888D01*
X12544467Y-11715888D02*
X12534943Y-11677793D01*
X12534943Y-11677793D02*
X12534943Y-11630174D01*
X12534943Y-11630174D02*
X12544467Y-11592079D01*
X12544467Y-11592079D02*
X12553991Y-11573031D01*
X12553991Y-11573031D02*
X12563515Y-11563508D01*
X12563515Y-11563508D02*
X12582562Y-11553984D01*
X12773039Y-11553984D02*
X12792086Y-11553984D01*
X12792086Y-11553984D02*
X12811134Y-11563508D01*
X12811134Y-11563508D02*
X12820658Y-11573031D01*
X12820658Y-11573031D02*
X12830182Y-11592079D01*
X12830182Y-11592079D02*
X12839705Y-11630174D01*
X12839705Y-11630174D02*
X12839705Y-11677793D01*
X12839705Y-11677793D02*
X12830182Y-11715888D01*
X12830182Y-11715888D02*
X12820658Y-11734936D01*
X12820658Y-11734936D02*
X12811134Y-11744460D01*
X12811134Y-11744460D02*
X12792086Y-11753984D01*
X12792086Y-11753984D02*
X12773039Y-11753984D01*
X12773039Y-11753984D02*
X12753991Y-11744460D01*
X12753991Y-11744460D02*
X12744467Y-11734936D01*
X12744467Y-11734936D02*
X12734943Y-11715888D01*
X12734943Y-11715888D02*
X12725420Y-11677793D01*
X12725420Y-11677793D02*
X12725420Y-11630174D01*
X12725420Y-11630174D02*
X12734943Y-11592079D01*
X12734943Y-11592079D02*
X12744467Y-11573031D01*
X12744467Y-11573031D02*
X12753991Y-11563508D01*
X12753991Y-11563508D02*
X12773039Y-11553984D01*
X12925420Y-11753984D02*
X12925420Y-11620650D01*
X12925420Y-11639698D02*
X12934943Y-11630174D01*
X12934943Y-11630174D02*
X12953991Y-11620650D01*
X12953991Y-11620650D02*
X12982563Y-11620650D01*
X12982563Y-11620650D02*
X13001610Y-11630174D01*
X13001610Y-11630174D02*
X13011134Y-11649222D01*
X13011134Y-11649222D02*
X13011134Y-11753984D01*
X13011134Y-11649222D02*
X13020658Y-11630174D01*
X13020658Y-11630174D02*
X13039705Y-11620650D01*
X13039705Y-11620650D02*
X13068277Y-11620650D01*
X13068277Y-11620650D02*
X13087324Y-11630174D01*
X13087324Y-11630174D02*
X13096848Y-11649222D01*
X13096848Y-11649222D02*
X13096848Y-11753984D01*
X13192086Y-11753984D02*
X13192086Y-11620650D01*
X13192086Y-11639698D02*
X13201610Y-11630174D01*
X13201610Y-11630174D02*
X13220658Y-11620650D01*
X13220658Y-11620650D02*
X13249229Y-11620650D01*
X13249229Y-11620650D02*
X13268277Y-11630174D01*
X13268277Y-11630174D02*
X13277801Y-11649222D01*
X13277801Y-11649222D02*
X13277801Y-11753984D01*
X13277801Y-11649222D02*
X13287324Y-11630174D01*
X13287324Y-11630174D02*
X13306372Y-11620650D01*
X13306372Y-11620650D02*
X13334943Y-11620650D01*
X13334943Y-11620650D02*
X13353991Y-11630174D01*
X13353991Y-11630174D02*
X13363515Y-11649222D01*
X13363515Y-11649222D02*
X13363515Y-11753984D01*
X13753991Y-11544460D02*
X13582563Y-11801603D01*
X14011134Y-11553984D02*
X14030182Y-11553984D01*
X14030182Y-11553984D02*
X14049229Y-11563508D01*
X14049229Y-11563508D02*
X14058753Y-11573031D01*
X14058753Y-11573031D02*
X14068277Y-11592079D01*
X14068277Y-11592079D02*
X14077801Y-11630174D01*
X14077801Y-11630174D02*
X14077801Y-11677793D01*
X14077801Y-11677793D02*
X14068277Y-11715888D01*
X14068277Y-11715888D02*
X14058753Y-11734936D01*
X14058753Y-11734936D02*
X14049229Y-11744460D01*
X14049229Y-11744460D02*
X14030182Y-11753984D01*
X14030182Y-11753984D02*
X14011134Y-11753984D01*
X14011134Y-11753984D02*
X13992086Y-11744460D01*
X13992086Y-11744460D02*
X13982563Y-11734936D01*
X13982563Y-11734936D02*
X13973039Y-11715888D01*
X13973039Y-11715888D02*
X13963515Y-11677793D01*
X13963515Y-11677793D02*
X13963515Y-11630174D01*
X13963515Y-11630174D02*
X13973039Y-11592079D01*
X13973039Y-11592079D02*
X13982563Y-11573031D01*
X13982563Y-11573031D02*
X13992086Y-11563508D01*
X13992086Y-11563508D02*
X14011134Y-11553984D01*
X14163515Y-11734936D02*
X14173039Y-11744460D01*
X14173039Y-11744460D02*
X14163515Y-11753984D01*
X14163515Y-11753984D02*
X14153991Y-11744460D01*
X14153991Y-11744460D02*
X14163515Y-11734936D01*
X14163515Y-11734936D02*
X14163515Y-11753984D01*
X14363515Y-11753984D02*
X14249229Y-11753984D01*
X14306372Y-11753984D02*
X14306372Y-11553984D01*
X14306372Y-11553984D02*
X14287325Y-11582555D01*
X14287325Y-11582555D02*
X14268277Y-11601603D01*
X14268277Y-11601603D02*
X14249229Y-11611127D01*
X14439706Y-11573031D02*
X14449229Y-11563508D01*
X14449229Y-11563508D02*
X14468277Y-11553984D01*
X14468277Y-11553984D02*
X14515896Y-11553984D01*
X14515896Y-11553984D02*
X14534944Y-11563508D01*
X14534944Y-11563508D02*
X14544467Y-11573031D01*
X14544467Y-11573031D02*
X14553991Y-11592079D01*
X14553991Y-11592079D02*
X14553991Y-11611127D01*
X14553991Y-11611127D02*
X14544467Y-11639698D01*
X14544467Y-11639698D02*
X14430182Y-11753984D01*
X14430182Y-11753984D02*
X14553991Y-11753984D01*
X14725420Y-11553984D02*
X14687325Y-11553984D01*
X14687325Y-11553984D02*
X14668277Y-11563508D01*
X14668277Y-11563508D02*
X14658753Y-11573031D01*
X14658753Y-11573031D02*
X14639706Y-11601603D01*
X14639706Y-11601603D02*
X14630182Y-11639698D01*
X14630182Y-11639698D02*
X14630182Y-11715888D01*
X14630182Y-11715888D02*
X14639706Y-11734936D01*
X14639706Y-11734936D02*
X14649229Y-11744460D01*
X14649229Y-11744460D02*
X14668277Y-11753984D01*
X14668277Y-11753984D02*
X14706372Y-11753984D01*
X14706372Y-11753984D02*
X14725420Y-11744460D01*
X14725420Y-11744460D02*
X14734944Y-11734936D01*
X14734944Y-11734936D02*
X14744467Y-11715888D01*
X14744467Y-11715888D02*
X14744467Y-11668269D01*
X14744467Y-11668269D02*
X14734944Y-11649222D01*
X14734944Y-11649222D02*
X14725420Y-11639698D01*
X14725420Y-11639698D02*
X14706372Y-11630174D01*
X14706372Y-11630174D02*
X14668277Y-11630174D01*
X14668277Y-11630174D02*
X14649229Y-11639698D01*
X14649229Y-11639698D02*
X14639706Y-11649222D01*
X14639706Y-11649222D02*
X14630182Y-11668269D01*
X14868277Y-11553984D02*
X14887325Y-11553984D01*
X14887325Y-11553984D02*
X14906372Y-11563508D01*
X14906372Y-11563508D02*
X14915896Y-11573031D01*
X14915896Y-11573031D02*
X14925420Y-11592079D01*
X14925420Y-11592079D02*
X14934944Y-11630174D01*
X14934944Y-11630174D02*
X14934944Y-11677793D01*
X14934944Y-11677793D02*
X14925420Y-11715888D01*
X14925420Y-11715888D02*
X14915896Y-11734936D01*
X14915896Y-11734936D02*
X14906372Y-11744460D01*
X14906372Y-11744460D02*
X14887325Y-11753984D01*
X14887325Y-11753984D02*
X14868277Y-11753984D01*
X14868277Y-11753984D02*
X14849229Y-11744460D01*
X14849229Y-11744460D02*
X14839706Y-11734936D01*
X14839706Y-11734936D02*
X14830182Y-11715888D01*
X14830182Y-11715888D02*
X14820658Y-11677793D01*
X14820658Y-11677793D02*
X14820658Y-11630174D01*
X14820658Y-11630174D02*
X14830182Y-11592079D01*
X14830182Y-11592079D02*
X14839706Y-11573031D01*
X14839706Y-11573031D02*
X14849229Y-11563508D01*
X14849229Y-11563508D02*
X14868277Y-11553984D01*
X15011134Y-11553984D02*
X15011134Y-11592079D01*
X15087325Y-11553984D02*
X15087325Y-11592079D01*
X15382563Y-11830174D02*
X15373039Y-11820650D01*
X15373039Y-11820650D02*
X15353991Y-11792079D01*
X15353991Y-11792079D02*
X15344468Y-11773031D01*
X15344468Y-11773031D02*
X15334944Y-11744460D01*
X15334944Y-11744460D02*
X15325420Y-11696841D01*
X15325420Y-11696841D02*
X15325420Y-11658746D01*
X15325420Y-11658746D02*
X15334944Y-11611127D01*
X15334944Y-11611127D02*
X15344468Y-11582555D01*
X15344468Y-11582555D02*
X15353991Y-11563508D01*
X15353991Y-11563508D02*
X15373039Y-11534936D01*
X15373039Y-11534936D02*
X15382563Y-11525412D01*
X15449229Y-11573031D02*
X15458753Y-11563508D01*
X15458753Y-11563508D02*
X15477801Y-11553984D01*
X15477801Y-11553984D02*
X15525420Y-11553984D01*
X15525420Y-11553984D02*
X15544468Y-11563508D01*
X15544468Y-11563508D02*
X15553991Y-11573031D01*
X15553991Y-11573031D02*
X15563515Y-11592079D01*
X15563515Y-11592079D02*
X15563515Y-11611127D01*
X15563515Y-11611127D02*
X15553991Y-11639698D01*
X15553991Y-11639698D02*
X15439706Y-11753984D01*
X15439706Y-11753984D02*
X15563515Y-11753984D01*
X15801610Y-11753984D02*
X15801610Y-11553984D01*
X15887325Y-11753984D02*
X15887325Y-11649222D01*
X15887325Y-11649222D02*
X15877801Y-11630174D01*
X15877801Y-11630174D02*
X15858753Y-11620650D01*
X15858753Y-11620650D02*
X15830182Y-11620650D01*
X15830182Y-11620650D02*
X15811134Y-11630174D01*
X15811134Y-11630174D02*
X15801610Y-11639698D01*
X16011134Y-11753984D02*
X15992087Y-11744460D01*
X15992087Y-11744460D02*
X15982563Y-11734936D01*
X15982563Y-11734936D02*
X15973039Y-11715888D01*
X15973039Y-11715888D02*
X15973039Y-11658746D01*
X15973039Y-11658746D02*
X15982563Y-11639698D01*
X15982563Y-11639698D02*
X15992087Y-11630174D01*
X15992087Y-11630174D02*
X16011134Y-11620650D01*
X16011134Y-11620650D02*
X16039706Y-11620650D01*
X16039706Y-11620650D02*
X16058753Y-11630174D01*
X16058753Y-11630174D02*
X16068277Y-11639698D01*
X16068277Y-11639698D02*
X16077801Y-11658746D01*
X16077801Y-11658746D02*
X16077801Y-11715888D01*
X16077801Y-11715888D02*
X16068277Y-11734936D01*
X16068277Y-11734936D02*
X16058753Y-11744460D01*
X16058753Y-11744460D02*
X16039706Y-11753984D01*
X16039706Y-11753984D02*
X16011134Y-11753984D01*
X16192087Y-11753984D02*
X16173039Y-11744460D01*
X16173039Y-11744460D02*
X16163515Y-11725412D01*
X16163515Y-11725412D02*
X16163515Y-11553984D01*
X16344468Y-11744460D02*
X16325420Y-11753984D01*
X16325420Y-11753984D02*
X16287325Y-11753984D01*
X16287325Y-11753984D02*
X16268277Y-11744460D01*
X16268277Y-11744460D02*
X16258753Y-11725412D01*
X16258753Y-11725412D02*
X16258753Y-11649222D01*
X16258753Y-11649222D02*
X16268277Y-11630174D01*
X16268277Y-11630174D02*
X16287325Y-11620650D01*
X16287325Y-11620650D02*
X16325420Y-11620650D01*
X16325420Y-11620650D02*
X16344468Y-11630174D01*
X16344468Y-11630174D02*
X16353991Y-11649222D01*
X16353991Y-11649222D02*
X16353991Y-11668269D01*
X16353991Y-11668269D02*
X16258753Y-11687317D01*
X16430182Y-11744460D02*
X16449230Y-11753984D01*
X16449230Y-11753984D02*
X16487325Y-11753984D01*
X16487325Y-11753984D02*
X16506372Y-11744460D01*
X16506372Y-11744460D02*
X16515896Y-11725412D01*
X16515896Y-11725412D02*
X16515896Y-11715888D01*
X16515896Y-11715888D02*
X16506372Y-11696841D01*
X16506372Y-11696841D02*
X16487325Y-11687317D01*
X16487325Y-11687317D02*
X16458753Y-11687317D01*
X16458753Y-11687317D02*
X16439706Y-11677793D01*
X16439706Y-11677793D02*
X16430182Y-11658746D01*
X16430182Y-11658746D02*
X16430182Y-11649222D01*
X16430182Y-11649222D02*
X16439706Y-11630174D01*
X16439706Y-11630174D02*
X16458753Y-11620650D01*
X16458753Y-11620650D02*
X16487325Y-11620650D01*
X16487325Y-11620650D02*
X16506372Y-11630174D01*
X16582563Y-11830174D02*
X16592087Y-11820650D01*
X16592087Y-11820650D02*
X16611134Y-11792079D01*
X16611134Y-11792079D02*
X16620658Y-11773031D01*
X16620658Y-11773031D02*
X16630182Y-11744460D01*
X16630182Y-11744460D02*
X16639706Y-11696841D01*
X16639706Y-11696841D02*
X16639706Y-11658746D01*
X16639706Y-11658746D02*
X16630182Y-11611127D01*
X16630182Y-11611127D02*
X16620658Y-11582555D01*
X16620658Y-11582555D02*
X16611134Y-11563508D01*
X16611134Y-11563508D02*
X16592087Y-11534936D01*
X16592087Y-11534936D02*
X16582563Y-11525412D01*
M02*
