%TF.GenerationSoftware,KiCad,Pcbnew,9.0.5*%
%TF.CreationDate,2025-11-30T17:46:52+01:00*%
%TF.ProjectId,Sensor_all_ESP32,53656e73-6f72-45f6-916c-6c5f45535033,rev?*%
%TF.SameCoordinates,Original*%
%TF.FileFunction,Drillmap*%
%TF.FilePolarity,Positive*%
%FSLAX45Y45*%
G04 Gerber Fmt 4.5, Leading zero omitted, Abs format (unit mm)*
G04 Created by KiCad (PCBNEW 9.0.5) date 2025-11-30 17:46:52*
%MOMM*%
%LPD*%
G01*
G04 APERTURE LIST*
%ADD10C,0.050000*%
%ADD11C,0.200000*%
G04 APERTURE END LIST*
D10*
X11810000Y-5300000D02*
X16700000Y-5300000D01*
X16700000Y-9700000D01*
X11810000Y-9700000D01*
X11810000Y-5300000D01*
D11*
X12068277Y-10013984D02*
X12068277Y-9813984D01*
X12068277Y-9813984D02*
X12115896Y-9813984D01*
X12115896Y-9813984D02*
X12144467Y-9823508D01*
X12144467Y-9823508D02*
X12163515Y-9842555D01*
X12163515Y-9842555D02*
X12173039Y-9861603D01*
X12173039Y-9861603D02*
X12182562Y-9899698D01*
X12182562Y-9899698D02*
X12182562Y-9928270D01*
X12182562Y-9928270D02*
X12173039Y-9966365D01*
X12173039Y-9966365D02*
X12163515Y-9985412D01*
X12163515Y-9985412D02*
X12144467Y-10004460D01*
X12144467Y-10004460D02*
X12115896Y-10013984D01*
X12115896Y-10013984D02*
X12068277Y-10013984D01*
X12268277Y-10013984D02*
X12268277Y-9880650D01*
X12268277Y-9918746D02*
X12277801Y-9899698D01*
X12277801Y-9899698D02*
X12287324Y-9890174D01*
X12287324Y-9890174D02*
X12306372Y-9880650D01*
X12306372Y-9880650D02*
X12325420Y-9880650D01*
X12392086Y-10013984D02*
X12392086Y-9880650D01*
X12392086Y-9813984D02*
X12382562Y-9823508D01*
X12382562Y-9823508D02*
X12392086Y-9833031D01*
X12392086Y-9833031D02*
X12401610Y-9823508D01*
X12401610Y-9823508D02*
X12392086Y-9813984D01*
X12392086Y-9813984D02*
X12392086Y-9833031D01*
X12515896Y-10013984D02*
X12496848Y-10004460D01*
X12496848Y-10004460D02*
X12487324Y-9985412D01*
X12487324Y-9985412D02*
X12487324Y-9813984D01*
X12620658Y-10013984D02*
X12601610Y-10004460D01*
X12601610Y-10004460D02*
X12592086Y-9985412D01*
X12592086Y-9985412D02*
X12592086Y-9813984D01*
X12849229Y-10013984D02*
X12849229Y-9813984D01*
X12849229Y-9813984D02*
X12915896Y-9956841D01*
X12915896Y-9956841D02*
X12982562Y-9813984D01*
X12982562Y-9813984D02*
X12982562Y-10013984D01*
X13163515Y-10013984D02*
X13163515Y-9909222D01*
X13163515Y-9909222D02*
X13153991Y-9890174D01*
X13153991Y-9890174D02*
X13134943Y-9880650D01*
X13134943Y-9880650D02*
X13096848Y-9880650D01*
X13096848Y-9880650D02*
X13077801Y-9890174D01*
X13163515Y-10004460D02*
X13144467Y-10013984D01*
X13144467Y-10013984D02*
X13096848Y-10013984D01*
X13096848Y-10013984D02*
X13077801Y-10004460D01*
X13077801Y-10004460D02*
X13068277Y-9985412D01*
X13068277Y-9985412D02*
X13068277Y-9966365D01*
X13068277Y-9966365D02*
X13077801Y-9947317D01*
X13077801Y-9947317D02*
X13096848Y-9937793D01*
X13096848Y-9937793D02*
X13144467Y-9937793D01*
X13144467Y-9937793D02*
X13163515Y-9928270D01*
X13258753Y-9880650D02*
X13258753Y-10080650D01*
X13258753Y-9890174D02*
X13277801Y-9880650D01*
X13277801Y-9880650D02*
X13315896Y-9880650D01*
X13315896Y-9880650D02*
X13334943Y-9890174D01*
X13334943Y-9890174D02*
X13344467Y-9899698D01*
X13344467Y-9899698D02*
X13353991Y-9918746D01*
X13353991Y-9918746D02*
X13353991Y-9975889D01*
X13353991Y-9975889D02*
X13344467Y-9994936D01*
X13344467Y-9994936D02*
X13334943Y-10004460D01*
X13334943Y-10004460D02*
X13315896Y-10013984D01*
X13315896Y-10013984D02*
X13277801Y-10013984D01*
X13277801Y-10013984D02*
X13258753Y-10004460D01*
X13439705Y-9994936D02*
X13449229Y-10004460D01*
X13449229Y-10004460D02*
X13439705Y-10013984D01*
X13439705Y-10013984D02*
X13430182Y-10004460D01*
X13430182Y-10004460D02*
X13439705Y-9994936D01*
X13439705Y-9994936D02*
X13439705Y-10013984D01*
X13439705Y-9890174D02*
X13449229Y-9899698D01*
X13449229Y-9899698D02*
X13439705Y-9909222D01*
X13439705Y-9909222D02*
X13430182Y-9899698D01*
X13430182Y-9899698D02*
X13439705Y-9890174D01*
X13439705Y-9890174D02*
X13439705Y-9909222D01*
M02*
