G04 #@! TF.GenerationSoftware,KiCad,Pcbnew,9.0.5*
G04 #@! TF.CreationDate,2025-11-30T17:39:58+01:00*
G04 #@! TF.ProjectId,mod_Steuerkreis_ESP32,6d6f645f-5374-4657-9565-726b72656973,rev?*
G04 #@! TF.SameCoordinates,Original*
G04 #@! TF.FileFunction,Soldermask,Top*
G04 #@! TF.FilePolarity,Negative*
%FSLAX46Y46*%
G04 Gerber Fmt 4.6, Leading zero omitted, Abs format (unit mm)*
G04 Created by KiCad (PCBNEW 9.0.5) date 2025-11-30 17:39:58*
%MOMM*%
%LPD*%
G01*
G04 APERTURE LIST*
G04 Aperture macros list*
%AMRoundRect*
0 Rectangle with rounded corners*
0 $1 Rounding radius*
0 $2 $3 $4 $5 $6 $7 $8 $9 X,Y pos of 4 corners*
0 Add a 4 corners polygon primitive as box body*
4,1,4,$2,$3,$4,$5,$6,$7,$8,$9,$2,$3,0*
0 Add four circle primitives for the rounded corners*
1,1,$1+$1,$2,$3*
1,1,$1+$1,$4,$5*
1,1,$1+$1,$6,$7*
1,1,$1+$1,$8,$9*
0 Add four rect primitives between the rounded corners*
20,1,$1+$1,$2,$3,$4,$5,0*
20,1,$1+$1,$4,$5,$6,$7,0*
20,1,$1+$1,$6,$7,$8,$9,0*
20,1,$1+$1,$8,$9,$2,$3,0*%
G04 Aperture macros list end*
%ADD10C,1.552000*%
%ADD11C,1.000000*%
%ADD12R,1.700000X1.700000*%
%ADD13C,1.700000*%
%ADD14RoundRect,0.250000X-0.675000X-0.675000X0.675000X-0.675000X0.675000X0.675000X-0.675000X0.675000X0*%
%ADD15C,1.850000*%
%ADD16RoundRect,0.250000X0.450000X-0.350000X0.450000X0.350000X-0.450000X0.350000X-0.450000X-0.350000X0*%
%ADD17R,1.500000X1.000000*%
%ADD18C,3.500000*%
G04 APERTURE END LIST*
G04 #@! TO.C,JP2*
G36*
X122550000Y-72450000D02*
G01*
X124050000Y-72450000D01*
X124050000Y-72150000D01*
X122550000Y-72150000D01*
X122550000Y-72450000D01*
G37*
G04 #@! TO.C,JP1*
G36*
X125650000Y-72450000D02*
G01*
X127150000Y-72450000D01*
X127150000Y-72150000D01*
X125650000Y-72150000D01*
X125650000Y-72450000D01*
G37*
G04 #@! TD*
D10*
G04 #@! TO.C,U3*
X122700000Y-61640000D03*
X122700000Y-59100000D03*
X122700000Y-56560000D03*
X122700000Y-54020000D03*
X122700000Y-48940000D03*
X122700000Y-51480000D03*
X107460000Y-43860000D03*
X122700000Y-43860000D03*
X107460000Y-46400000D03*
X107460000Y-48940000D03*
X107460000Y-51480000D03*
X107460000Y-54020000D03*
X107460000Y-56560000D03*
X107460000Y-59100000D03*
X107460000Y-61640000D03*
X122700000Y-46400000D03*
G04 #@! TD*
D11*
G04 #@! TO.C,TP1*
X111900000Y-68000000D03*
G04 #@! TD*
D12*
G04 #@! TO.C,J3*
X103100000Y-54020000D03*
D13*
X103100000Y-51480000D03*
X103100000Y-48940000D03*
X103100000Y-46400000D03*
X103100000Y-43860000D03*
G04 #@! TD*
D14*
G04 #@! TO.C,J1*
X102600000Y-72000000D03*
D15*
X106100000Y-72000000D03*
X109600000Y-72000000D03*
X113200000Y-72000000D03*
X116600000Y-72000000D03*
G04 #@! TD*
D11*
G04 #@! TO.C,TP4*
X109200000Y-68000000D03*
G04 #@! TD*
D16*
G04 #@! TO.C,R4*
X126200000Y-68900000D03*
X126200000Y-66900000D03*
G04 #@! TD*
G04 #@! TO.C,R3*
X123250000Y-68900000D03*
X123250000Y-66900000D03*
G04 #@! TD*
D17*
G04 #@! TO.C,JP2*
X123300000Y-72950000D03*
X123300000Y-71650000D03*
G04 #@! TD*
D11*
G04 #@! TO.C,TP2*
X114600000Y-68000000D03*
G04 #@! TD*
G04 #@! TO.C,TP3*
X117300000Y-67800000D03*
G04 #@! TD*
D18*
G04 #@! TO.C,MH*
X102800000Y-68100000D03*
G04 #@! TD*
D17*
G04 #@! TO.C,JP1*
X126400000Y-72950000D03*
X126400000Y-71650000D03*
G04 #@! TD*
D12*
G04 #@! TO.C,J6*
X127000000Y-59850000D03*
D13*
X127000000Y-57310000D03*
X127000000Y-54770000D03*
X127000000Y-52230000D03*
X127000000Y-49690000D03*
X127000000Y-47150000D03*
G04 #@! TD*
D11*
G04 #@! TO.C,TP5*
X106500000Y-67800000D03*
G04 #@! TD*
D18*
G04 #@! TO.C,MH*
X127500000Y-42900000D03*
G04 #@! TD*
D12*
G04 #@! TO.C,J7*
X103200000Y-64180000D03*
D13*
X103200000Y-61640000D03*
X103200000Y-59100000D03*
G04 #@! TD*
M02*
