%TF.GenerationSoftware,KiCad,Pcbnew,9.0.5*%
%TF.CreationDate,2025-11-30T17:39:58+01:00*%
%TF.ProjectId,mod_Steuerkreis_ESP32,6d6f645f-5374-4657-9565-726b72656973,rev?*%
%TF.SameCoordinates,Original*%
%TF.FileFunction,Drillmap*%
%TF.FilePolarity,Positive*%
%FSLAX45Y45*%
G04 Gerber Fmt 4.5, Leading zero omitted, Abs format (unit mm)*
G04 Created by KiCad (PCBNEW 9.0.5) date 2025-11-30 17:39:58*
%MOMM*%
%LPD*%
G01*
G04 APERTURE LIST*
%ADD10C,0.050000*%
%ADD11C,0.200000*%
%ADD12C,0.100000*%
G04 APERTURE END LIST*
D10*
X9960000Y-3950000D02*
X13060000Y-3950000D01*
X13060000Y-7550000D01*
X9960000Y-7550000D01*
X9960000Y-3950000D01*
D11*
D12*
X10645000Y-6970000D02*
X10675000Y-7000000D01*
X10675000Y-6970000D02*
X10645000Y-7000000D01*
X10985000Y-6965000D02*
X11015000Y-6995000D01*
X11015000Y-6965000D02*
X10985000Y-6995000D01*
X11105000Y-4525000D02*
X11135000Y-4555000D01*
X11135000Y-4525000D02*
X11105000Y-4555000D01*
X11185000Y-6965000D02*
X11215000Y-6995000D01*
X11215000Y-6965000D02*
X11185000Y-6995000D01*
X11325000Y-4625000D02*
X11355000Y-4655000D01*
X11355000Y-4625000D02*
X11325000Y-4655000D01*
X11385000Y-6955000D02*
X11415000Y-6985000D01*
X11415000Y-6955000D02*
X11385000Y-6985000D01*
X11585000Y-6945000D02*
X11615000Y-6975000D01*
X11615000Y-6945000D02*
X11585000Y-6975000D01*
X11925000Y-7025000D02*
X11955000Y-7055000D01*
X11955000Y-7025000D02*
X11925000Y-7055000D01*
X12465000Y-6675000D02*
X12495000Y-6705000D01*
X12495000Y-6675000D02*
X12465000Y-6705000D01*
X12465000Y-7305000D02*
X12495000Y-7335000D01*
X12495000Y-7305000D02*
X12465000Y-7335000D01*
X12555000Y-6325000D02*
X12585000Y-6355000D01*
X12585000Y-6325000D02*
X12555000Y-6355000D01*
X12765000Y-7235000D02*
X12795000Y-7265000D01*
X12795000Y-7235000D02*
X12765000Y-7265000D01*
X10788000Y-4386000D02*
G75*
G02*
X10704000Y-4386000I-42000J0D01*
G01*
X10704000Y-4386000D02*
G75*
G02*
X10788000Y-4386000I42000J0D01*
G01*
X10788000Y-4640000D02*
G75*
G02*
X10704000Y-4640000I-42000J0D01*
G01*
X10704000Y-4640000D02*
G75*
G02*
X10788000Y-4640000I42000J0D01*
G01*
X10788000Y-4894000D02*
G75*
G02*
X10704000Y-4894000I-42000J0D01*
G01*
X10704000Y-4894000D02*
G75*
G02*
X10788000Y-4894000I42000J0D01*
G01*
X10788000Y-5148000D02*
G75*
G02*
X10704000Y-5148000I-42000J0D01*
G01*
X10704000Y-5148000D02*
G75*
G02*
X10788000Y-5148000I42000J0D01*
G01*
X10788000Y-5402000D02*
G75*
G02*
X10704000Y-5402000I-42000J0D01*
G01*
X10704000Y-5402000D02*
G75*
G02*
X10788000Y-5402000I42000J0D01*
G01*
X10788000Y-5656000D02*
G75*
G02*
X10704000Y-5656000I-42000J0D01*
G01*
X10704000Y-5656000D02*
G75*
G02*
X10788000Y-5656000I42000J0D01*
G01*
X10788000Y-5910000D02*
G75*
G02*
X10704000Y-5910000I-42000J0D01*
G01*
X10704000Y-5910000D02*
G75*
G02*
X10788000Y-5910000I42000J0D01*
G01*
X10788000Y-6164000D02*
G75*
G02*
X10704000Y-6164000I-42000J0D01*
G01*
X10704000Y-6164000D02*
G75*
G02*
X10788000Y-6164000I42000J0D01*
G01*
X12312000Y-4386000D02*
G75*
G02*
X12228000Y-4386000I-42000J0D01*
G01*
X12228000Y-4386000D02*
G75*
G02*
X12312000Y-4386000I42000J0D01*
G01*
X12312000Y-4640000D02*
G75*
G02*
X12228000Y-4640000I-42000J0D01*
G01*
X12228000Y-4640000D02*
G75*
G02*
X12312000Y-4640000I42000J0D01*
G01*
X12312000Y-4894000D02*
G75*
G02*
X12228000Y-4894000I-42000J0D01*
G01*
X12228000Y-4894000D02*
G75*
G02*
X12312000Y-4894000I42000J0D01*
G01*
X12312000Y-5148000D02*
G75*
G02*
X12228000Y-5148000I-42000J0D01*
G01*
X12228000Y-5148000D02*
G75*
G02*
X12312000Y-5148000I42000J0D01*
G01*
X12312000Y-5402000D02*
G75*
G02*
X12228000Y-5402000I-42000J0D01*
G01*
X12228000Y-5402000D02*
G75*
G02*
X12312000Y-5402000I42000J0D01*
G01*
X12312000Y-5656000D02*
G75*
G02*
X12228000Y-5656000I-42000J0D01*
G01*
X12228000Y-5656000D02*
G75*
G02*
X12312000Y-5656000I42000J0D01*
G01*
X12312000Y-5910000D02*
G75*
G02*
X12228000Y-5910000I-42000J0D01*
G01*
X12228000Y-5910000D02*
G75*
G02*
X12312000Y-5910000I42000J0D01*
G01*
X12312000Y-6164000D02*
G75*
G02*
X12228000Y-6164000I-42000J0D01*
G01*
X12228000Y-6164000D02*
G75*
G02*
X12312000Y-6164000I42000J0D01*
G01*
X10260000Y-7157500D02*
X10260000Y-7242500D01*
X10217500Y-7200000D02*
X10302500Y-7200000D01*
X10610000Y-7157500D02*
X10610000Y-7242500D01*
X10567500Y-7200000D02*
X10652500Y-7200000D01*
X10960000Y-7157500D02*
X10960000Y-7242500D01*
X10917500Y-7200000D02*
X11002500Y-7200000D01*
X11320000Y-7157500D02*
X11320000Y-7242500D01*
X11277500Y-7200000D02*
X11362500Y-7200000D01*
X11660000Y-7157500D02*
X11660000Y-7242500D01*
X11617500Y-7200000D02*
X11702500Y-7200000D01*
X10345356Y-4421356D02*
X10345356Y-4350644D01*
X10274644Y-4350644D01*
X10274644Y-4421356D01*
X10345356Y-4421356D01*
X10345356Y-4675356D02*
X10345356Y-4604644D01*
X10274644Y-4604644D01*
X10274644Y-4675356D01*
X10345356Y-4675356D01*
X10345356Y-4929356D02*
X10345356Y-4858644D01*
X10274644Y-4858644D01*
X10274644Y-4929356D01*
X10345356Y-4929356D01*
X10345356Y-5183356D02*
X10345356Y-5112644D01*
X10274644Y-5112644D01*
X10274644Y-5183356D01*
X10345356Y-5183356D01*
X10345356Y-5437356D02*
X10345356Y-5366644D01*
X10274644Y-5366644D01*
X10274644Y-5437356D01*
X10345356Y-5437356D01*
X10355356Y-5945356D02*
X10355356Y-5874644D01*
X10284644Y-5874644D01*
X10284644Y-5945356D01*
X10355356Y-5945356D01*
X10355356Y-6199356D02*
X10355356Y-6128644D01*
X10284644Y-6128644D01*
X10284644Y-6199356D01*
X10355356Y-6199356D01*
X10355356Y-6453356D02*
X10355356Y-6382644D01*
X10284644Y-6382644D01*
X10284644Y-6453356D01*
X10355356Y-6453356D01*
X12735356Y-4750356D02*
X12735356Y-4679644D01*
X12664644Y-4679644D01*
X12664644Y-4750356D01*
X12735356Y-4750356D01*
X12735356Y-5004356D02*
X12735356Y-4933644D01*
X12664644Y-4933644D01*
X12664644Y-5004356D01*
X12735356Y-5004356D01*
X12735356Y-5258356D02*
X12735356Y-5187644D01*
X12664644Y-5187644D01*
X12664644Y-5258356D01*
X12735356Y-5258356D01*
X12735356Y-5512356D02*
X12735356Y-5441644D01*
X12664644Y-5441644D01*
X12664644Y-5512356D01*
X12735356Y-5512356D01*
X12735356Y-5766356D02*
X12735356Y-5695644D01*
X12664644Y-5695644D01*
X12664644Y-5766356D01*
X12735356Y-5766356D01*
X12735356Y-6020356D02*
X12735356Y-5949644D01*
X12664644Y-5949644D01*
X12664644Y-6020356D01*
X12735356Y-6020356D01*
D11*
X10218277Y-7863984D02*
X10218277Y-7663984D01*
X10218277Y-7663984D02*
X10265896Y-7663984D01*
X10265896Y-7663984D02*
X10294467Y-7673508D01*
X10294467Y-7673508D02*
X10313515Y-7692555D01*
X10313515Y-7692555D02*
X10323039Y-7711603D01*
X10323039Y-7711603D02*
X10332563Y-7749698D01*
X10332563Y-7749698D02*
X10332563Y-7778269D01*
X10332563Y-7778269D02*
X10323039Y-7816365D01*
X10323039Y-7816365D02*
X10313515Y-7835412D01*
X10313515Y-7835412D02*
X10294467Y-7854460D01*
X10294467Y-7854460D02*
X10265896Y-7863984D01*
X10265896Y-7863984D02*
X10218277Y-7863984D01*
X10418277Y-7863984D02*
X10418277Y-7730650D01*
X10418277Y-7768746D02*
X10427801Y-7749698D01*
X10427801Y-7749698D02*
X10437324Y-7740174D01*
X10437324Y-7740174D02*
X10456372Y-7730650D01*
X10456372Y-7730650D02*
X10475420Y-7730650D01*
X10542086Y-7863984D02*
X10542086Y-7730650D01*
X10542086Y-7663984D02*
X10532563Y-7673508D01*
X10532563Y-7673508D02*
X10542086Y-7683031D01*
X10542086Y-7683031D02*
X10551610Y-7673508D01*
X10551610Y-7673508D02*
X10542086Y-7663984D01*
X10542086Y-7663984D02*
X10542086Y-7683031D01*
X10665896Y-7863984D02*
X10646848Y-7854460D01*
X10646848Y-7854460D02*
X10637324Y-7835412D01*
X10637324Y-7835412D02*
X10637324Y-7663984D01*
X10770658Y-7863984D02*
X10751610Y-7854460D01*
X10751610Y-7854460D02*
X10742086Y-7835412D01*
X10742086Y-7835412D02*
X10742086Y-7663984D01*
X10999229Y-7863984D02*
X10999229Y-7663984D01*
X10999229Y-7663984D02*
X11065896Y-7806841D01*
X11065896Y-7806841D02*
X11132563Y-7663984D01*
X11132563Y-7663984D02*
X11132563Y-7863984D01*
X11313515Y-7863984D02*
X11313515Y-7759222D01*
X11313515Y-7759222D02*
X11303991Y-7740174D01*
X11303991Y-7740174D02*
X11284943Y-7730650D01*
X11284943Y-7730650D02*
X11246848Y-7730650D01*
X11246848Y-7730650D02*
X11227801Y-7740174D01*
X11313515Y-7854460D02*
X11294467Y-7863984D01*
X11294467Y-7863984D02*
X11246848Y-7863984D01*
X11246848Y-7863984D02*
X11227801Y-7854460D01*
X11227801Y-7854460D02*
X11218277Y-7835412D01*
X11218277Y-7835412D02*
X11218277Y-7816365D01*
X11218277Y-7816365D02*
X11227801Y-7797317D01*
X11227801Y-7797317D02*
X11246848Y-7787793D01*
X11246848Y-7787793D02*
X11294467Y-7787793D01*
X11294467Y-7787793D02*
X11313515Y-7778269D01*
X11408753Y-7730650D02*
X11408753Y-7930650D01*
X11408753Y-7740174D02*
X11427801Y-7730650D01*
X11427801Y-7730650D02*
X11465896Y-7730650D01*
X11465896Y-7730650D02*
X11484943Y-7740174D01*
X11484943Y-7740174D02*
X11494467Y-7749698D01*
X11494467Y-7749698D02*
X11503991Y-7768746D01*
X11503991Y-7768746D02*
X11503991Y-7825888D01*
X11503991Y-7825888D02*
X11494467Y-7844936D01*
X11494467Y-7844936D02*
X11484943Y-7854460D01*
X11484943Y-7854460D02*
X11465896Y-7863984D01*
X11465896Y-7863984D02*
X11427801Y-7863984D01*
X11427801Y-7863984D02*
X11408753Y-7854460D01*
X11589705Y-7844936D02*
X11599229Y-7854460D01*
X11599229Y-7854460D02*
X11589705Y-7863984D01*
X11589705Y-7863984D02*
X11580182Y-7854460D01*
X11580182Y-7854460D02*
X11589705Y-7844936D01*
X11589705Y-7844936D02*
X11589705Y-7863984D01*
X11589705Y-7740174D02*
X11599229Y-7749698D01*
X11599229Y-7749698D02*
X11589705Y-7759222D01*
X11589705Y-7759222D02*
X11580182Y-7749698D01*
X11580182Y-7749698D02*
X11589705Y-7740174D01*
X11589705Y-7740174D02*
X11589705Y-7759222D01*
D12*
X9927500Y-8177500D02*
X9957500Y-8207500D01*
X9957500Y-8177500D02*
X9927500Y-8207500D01*
D11*
X10256372Y-8083984D02*
X10275420Y-8083984D01*
X10275420Y-8083984D02*
X10294467Y-8093508D01*
X10294467Y-8093508D02*
X10303991Y-8103031D01*
X10303991Y-8103031D02*
X10313515Y-8122079D01*
X10313515Y-8122079D02*
X10323039Y-8160174D01*
X10323039Y-8160174D02*
X10323039Y-8207793D01*
X10323039Y-8207793D02*
X10313515Y-8245888D01*
X10313515Y-8245888D02*
X10303991Y-8264936D01*
X10303991Y-8264936D02*
X10294467Y-8274460D01*
X10294467Y-8274460D02*
X10275420Y-8283984D01*
X10275420Y-8283984D02*
X10256372Y-8283984D01*
X10256372Y-8283984D02*
X10237324Y-8274460D01*
X10237324Y-8274460D02*
X10227801Y-8264936D01*
X10227801Y-8264936D02*
X10218277Y-8245888D01*
X10218277Y-8245888D02*
X10208753Y-8207793D01*
X10208753Y-8207793D02*
X10208753Y-8160174D01*
X10208753Y-8160174D02*
X10218277Y-8122079D01*
X10218277Y-8122079D02*
X10227801Y-8103031D01*
X10227801Y-8103031D02*
X10237324Y-8093508D01*
X10237324Y-8093508D02*
X10256372Y-8083984D01*
X10408753Y-8264936D02*
X10418277Y-8274460D01*
X10418277Y-8274460D02*
X10408753Y-8283984D01*
X10408753Y-8283984D02*
X10399229Y-8274460D01*
X10399229Y-8274460D02*
X10408753Y-8264936D01*
X10408753Y-8264936D02*
X10408753Y-8283984D01*
X10484944Y-8083984D02*
X10608753Y-8083984D01*
X10608753Y-8083984D02*
X10542086Y-8160174D01*
X10542086Y-8160174D02*
X10570658Y-8160174D01*
X10570658Y-8160174D02*
X10589705Y-8169698D01*
X10589705Y-8169698D02*
X10599229Y-8179222D01*
X10599229Y-8179222D02*
X10608753Y-8198269D01*
X10608753Y-8198269D02*
X10608753Y-8245888D01*
X10608753Y-8245888D02*
X10599229Y-8264936D01*
X10599229Y-8264936D02*
X10589705Y-8274460D01*
X10589705Y-8274460D02*
X10570658Y-8283984D01*
X10570658Y-8283984D02*
X10513515Y-8283984D01*
X10513515Y-8283984D02*
X10494467Y-8274460D01*
X10494467Y-8274460D02*
X10484944Y-8264936D01*
X10732563Y-8083984D02*
X10751610Y-8083984D01*
X10751610Y-8083984D02*
X10770658Y-8093508D01*
X10770658Y-8093508D02*
X10780182Y-8103031D01*
X10780182Y-8103031D02*
X10789705Y-8122079D01*
X10789705Y-8122079D02*
X10799229Y-8160174D01*
X10799229Y-8160174D02*
X10799229Y-8207793D01*
X10799229Y-8207793D02*
X10789705Y-8245888D01*
X10789705Y-8245888D02*
X10780182Y-8264936D01*
X10780182Y-8264936D02*
X10770658Y-8274460D01*
X10770658Y-8274460D02*
X10751610Y-8283984D01*
X10751610Y-8283984D02*
X10732563Y-8283984D01*
X10732563Y-8283984D02*
X10713515Y-8274460D01*
X10713515Y-8274460D02*
X10703991Y-8264936D01*
X10703991Y-8264936D02*
X10694467Y-8245888D01*
X10694467Y-8245888D02*
X10684944Y-8207793D01*
X10684944Y-8207793D02*
X10684944Y-8160174D01*
X10684944Y-8160174D02*
X10694467Y-8122079D01*
X10694467Y-8122079D02*
X10703991Y-8103031D01*
X10703991Y-8103031D02*
X10713515Y-8093508D01*
X10713515Y-8093508D02*
X10732563Y-8083984D01*
X10923039Y-8083984D02*
X10942086Y-8083984D01*
X10942086Y-8083984D02*
X10961134Y-8093508D01*
X10961134Y-8093508D02*
X10970658Y-8103031D01*
X10970658Y-8103031D02*
X10980182Y-8122079D01*
X10980182Y-8122079D02*
X10989705Y-8160174D01*
X10989705Y-8160174D02*
X10989705Y-8207793D01*
X10989705Y-8207793D02*
X10980182Y-8245888D01*
X10980182Y-8245888D02*
X10970658Y-8264936D01*
X10970658Y-8264936D02*
X10961134Y-8274460D01*
X10961134Y-8274460D02*
X10942086Y-8283984D01*
X10942086Y-8283984D02*
X10923039Y-8283984D01*
X10923039Y-8283984D02*
X10903991Y-8274460D01*
X10903991Y-8274460D02*
X10894467Y-8264936D01*
X10894467Y-8264936D02*
X10884944Y-8245888D01*
X10884944Y-8245888D02*
X10875420Y-8207793D01*
X10875420Y-8207793D02*
X10875420Y-8160174D01*
X10875420Y-8160174D02*
X10884944Y-8122079D01*
X10884944Y-8122079D02*
X10894467Y-8103031D01*
X10894467Y-8103031D02*
X10903991Y-8093508D01*
X10903991Y-8093508D02*
X10923039Y-8083984D01*
X11075420Y-8283984D02*
X11075420Y-8150650D01*
X11075420Y-8169698D02*
X11084944Y-8160174D01*
X11084944Y-8160174D02*
X11103991Y-8150650D01*
X11103991Y-8150650D02*
X11132563Y-8150650D01*
X11132563Y-8150650D02*
X11151610Y-8160174D01*
X11151610Y-8160174D02*
X11161134Y-8179222D01*
X11161134Y-8179222D02*
X11161134Y-8283984D01*
X11161134Y-8179222D02*
X11170658Y-8160174D01*
X11170658Y-8160174D02*
X11189705Y-8150650D01*
X11189705Y-8150650D02*
X11218277Y-8150650D01*
X11218277Y-8150650D02*
X11237324Y-8160174D01*
X11237324Y-8160174D02*
X11246848Y-8179222D01*
X11246848Y-8179222D02*
X11246848Y-8283984D01*
X11342086Y-8283984D02*
X11342086Y-8150650D01*
X11342086Y-8169698D02*
X11351610Y-8160174D01*
X11351610Y-8160174D02*
X11370658Y-8150650D01*
X11370658Y-8150650D02*
X11399229Y-8150650D01*
X11399229Y-8150650D02*
X11418277Y-8160174D01*
X11418277Y-8160174D02*
X11427801Y-8179222D01*
X11427801Y-8179222D02*
X11427801Y-8283984D01*
X11427801Y-8179222D02*
X11437324Y-8160174D01*
X11437324Y-8160174D02*
X11456372Y-8150650D01*
X11456372Y-8150650D02*
X11484943Y-8150650D01*
X11484943Y-8150650D02*
X11503991Y-8160174D01*
X11503991Y-8160174D02*
X11513515Y-8179222D01*
X11513515Y-8179222D02*
X11513515Y-8283984D01*
X11903991Y-8074460D02*
X11732563Y-8331603D01*
X12161134Y-8083984D02*
X12180182Y-8083984D01*
X12180182Y-8083984D02*
X12199229Y-8093508D01*
X12199229Y-8093508D02*
X12208753Y-8103031D01*
X12208753Y-8103031D02*
X12218277Y-8122079D01*
X12218277Y-8122079D02*
X12227801Y-8160174D01*
X12227801Y-8160174D02*
X12227801Y-8207793D01*
X12227801Y-8207793D02*
X12218277Y-8245888D01*
X12218277Y-8245888D02*
X12208753Y-8264936D01*
X12208753Y-8264936D02*
X12199229Y-8274460D01*
X12199229Y-8274460D02*
X12180182Y-8283984D01*
X12180182Y-8283984D02*
X12161134Y-8283984D01*
X12161134Y-8283984D02*
X12142086Y-8274460D01*
X12142086Y-8274460D02*
X12132563Y-8264936D01*
X12132563Y-8264936D02*
X12123039Y-8245888D01*
X12123039Y-8245888D02*
X12113515Y-8207793D01*
X12113515Y-8207793D02*
X12113515Y-8160174D01*
X12113515Y-8160174D02*
X12123039Y-8122079D01*
X12123039Y-8122079D02*
X12132563Y-8103031D01*
X12132563Y-8103031D02*
X12142086Y-8093508D01*
X12142086Y-8093508D02*
X12161134Y-8083984D01*
X12313515Y-8264936D02*
X12323039Y-8274460D01*
X12323039Y-8274460D02*
X12313515Y-8283984D01*
X12313515Y-8283984D02*
X12303991Y-8274460D01*
X12303991Y-8274460D02*
X12313515Y-8264936D01*
X12313515Y-8264936D02*
X12313515Y-8283984D01*
X12446848Y-8083984D02*
X12465896Y-8083984D01*
X12465896Y-8083984D02*
X12484944Y-8093508D01*
X12484944Y-8093508D02*
X12494467Y-8103031D01*
X12494467Y-8103031D02*
X12503991Y-8122079D01*
X12503991Y-8122079D02*
X12513515Y-8160174D01*
X12513515Y-8160174D02*
X12513515Y-8207793D01*
X12513515Y-8207793D02*
X12503991Y-8245888D01*
X12503991Y-8245888D02*
X12494467Y-8264936D01*
X12494467Y-8264936D02*
X12484944Y-8274460D01*
X12484944Y-8274460D02*
X12465896Y-8283984D01*
X12465896Y-8283984D02*
X12446848Y-8283984D01*
X12446848Y-8283984D02*
X12427801Y-8274460D01*
X12427801Y-8274460D02*
X12418277Y-8264936D01*
X12418277Y-8264936D02*
X12408753Y-8245888D01*
X12408753Y-8245888D02*
X12399229Y-8207793D01*
X12399229Y-8207793D02*
X12399229Y-8160174D01*
X12399229Y-8160174D02*
X12408753Y-8122079D01*
X12408753Y-8122079D02*
X12418277Y-8103031D01*
X12418277Y-8103031D02*
X12427801Y-8093508D01*
X12427801Y-8093508D02*
X12446848Y-8083984D01*
X12703991Y-8283984D02*
X12589706Y-8283984D01*
X12646848Y-8283984D02*
X12646848Y-8083984D01*
X12646848Y-8083984D02*
X12627801Y-8112555D01*
X12627801Y-8112555D02*
X12608753Y-8131603D01*
X12608753Y-8131603D02*
X12589706Y-8141127D01*
X12894467Y-8283984D02*
X12780182Y-8283984D01*
X12837325Y-8283984D02*
X12837325Y-8083984D01*
X12837325Y-8083984D02*
X12818277Y-8112555D01*
X12818277Y-8112555D02*
X12799229Y-8131603D01*
X12799229Y-8131603D02*
X12780182Y-8141127D01*
X13008753Y-8169698D02*
X12989706Y-8160174D01*
X12989706Y-8160174D02*
X12980182Y-8150650D01*
X12980182Y-8150650D02*
X12970658Y-8131603D01*
X12970658Y-8131603D02*
X12970658Y-8122079D01*
X12970658Y-8122079D02*
X12980182Y-8103031D01*
X12980182Y-8103031D02*
X12989706Y-8093508D01*
X12989706Y-8093508D02*
X13008753Y-8083984D01*
X13008753Y-8083984D02*
X13046848Y-8083984D01*
X13046848Y-8083984D02*
X13065896Y-8093508D01*
X13065896Y-8093508D02*
X13075420Y-8103031D01*
X13075420Y-8103031D02*
X13084944Y-8122079D01*
X13084944Y-8122079D02*
X13084944Y-8131603D01*
X13084944Y-8131603D02*
X13075420Y-8150650D01*
X13075420Y-8150650D02*
X13065896Y-8160174D01*
X13065896Y-8160174D02*
X13046848Y-8169698D01*
X13046848Y-8169698D02*
X13008753Y-8169698D01*
X13008753Y-8169698D02*
X12989706Y-8179222D01*
X12989706Y-8179222D02*
X12980182Y-8188746D01*
X12980182Y-8188746D02*
X12970658Y-8207793D01*
X12970658Y-8207793D02*
X12970658Y-8245888D01*
X12970658Y-8245888D02*
X12980182Y-8264936D01*
X12980182Y-8264936D02*
X12989706Y-8274460D01*
X12989706Y-8274460D02*
X13008753Y-8283984D01*
X13008753Y-8283984D02*
X13046848Y-8283984D01*
X13046848Y-8283984D02*
X13065896Y-8274460D01*
X13065896Y-8274460D02*
X13075420Y-8264936D01*
X13075420Y-8264936D02*
X13084944Y-8245888D01*
X13084944Y-8245888D02*
X13084944Y-8207793D01*
X13084944Y-8207793D02*
X13075420Y-8188746D01*
X13075420Y-8188746D02*
X13065896Y-8179222D01*
X13065896Y-8179222D02*
X13046848Y-8169698D01*
X13161134Y-8083984D02*
X13161134Y-8122079D01*
X13237325Y-8083984D02*
X13237325Y-8122079D01*
X13532563Y-8360174D02*
X13523039Y-8350650D01*
X13523039Y-8350650D02*
X13503991Y-8322079D01*
X13503991Y-8322079D02*
X13494468Y-8303031D01*
X13494468Y-8303031D02*
X13484944Y-8274460D01*
X13484944Y-8274460D02*
X13475420Y-8226841D01*
X13475420Y-8226841D02*
X13475420Y-8188746D01*
X13475420Y-8188746D02*
X13484944Y-8141127D01*
X13484944Y-8141127D02*
X13494468Y-8112555D01*
X13494468Y-8112555D02*
X13503991Y-8093508D01*
X13503991Y-8093508D02*
X13523039Y-8064936D01*
X13523039Y-8064936D02*
X13532563Y-8055412D01*
X13713515Y-8283984D02*
X13599229Y-8283984D01*
X13656372Y-8283984D02*
X13656372Y-8083984D01*
X13656372Y-8083984D02*
X13637325Y-8112555D01*
X13637325Y-8112555D02*
X13618277Y-8131603D01*
X13618277Y-8131603D02*
X13599229Y-8141127D01*
X13789706Y-8103031D02*
X13799229Y-8093508D01*
X13799229Y-8093508D02*
X13818277Y-8083984D01*
X13818277Y-8083984D02*
X13865896Y-8083984D01*
X13865896Y-8083984D02*
X13884944Y-8093508D01*
X13884944Y-8093508D02*
X13894468Y-8103031D01*
X13894468Y-8103031D02*
X13903991Y-8122079D01*
X13903991Y-8122079D02*
X13903991Y-8141127D01*
X13903991Y-8141127D02*
X13894468Y-8169698D01*
X13894468Y-8169698D02*
X13780182Y-8283984D01*
X13780182Y-8283984D02*
X13903991Y-8283984D01*
X14142087Y-8283984D02*
X14142087Y-8083984D01*
X14227801Y-8283984D02*
X14227801Y-8179222D01*
X14227801Y-8179222D02*
X14218277Y-8160174D01*
X14218277Y-8160174D02*
X14199230Y-8150650D01*
X14199230Y-8150650D02*
X14170658Y-8150650D01*
X14170658Y-8150650D02*
X14151610Y-8160174D01*
X14151610Y-8160174D02*
X14142087Y-8169698D01*
X14351610Y-8283984D02*
X14332563Y-8274460D01*
X14332563Y-8274460D02*
X14323039Y-8264936D01*
X14323039Y-8264936D02*
X14313515Y-8245888D01*
X14313515Y-8245888D02*
X14313515Y-8188746D01*
X14313515Y-8188746D02*
X14323039Y-8169698D01*
X14323039Y-8169698D02*
X14332563Y-8160174D01*
X14332563Y-8160174D02*
X14351610Y-8150650D01*
X14351610Y-8150650D02*
X14380182Y-8150650D01*
X14380182Y-8150650D02*
X14399230Y-8160174D01*
X14399230Y-8160174D02*
X14408753Y-8169698D01*
X14408753Y-8169698D02*
X14418277Y-8188746D01*
X14418277Y-8188746D02*
X14418277Y-8245888D01*
X14418277Y-8245888D02*
X14408753Y-8264936D01*
X14408753Y-8264936D02*
X14399230Y-8274460D01*
X14399230Y-8274460D02*
X14380182Y-8283984D01*
X14380182Y-8283984D02*
X14351610Y-8283984D01*
X14532563Y-8283984D02*
X14513515Y-8274460D01*
X14513515Y-8274460D02*
X14503991Y-8255412D01*
X14503991Y-8255412D02*
X14503991Y-8083984D01*
X14684944Y-8274460D02*
X14665896Y-8283984D01*
X14665896Y-8283984D02*
X14627801Y-8283984D01*
X14627801Y-8283984D02*
X14608753Y-8274460D01*
X14608753Y-8274460D02*
X14599230Y-8255412D01*
X14599230Y-8255412D02*
X14599230Y-8179222D01*
X14599230Y-8179222D02*
X14608753Y-8160174D01*
X14608753Y-8160174D02*
X14627801Y-8150650D01*
X14627801Y-8150650D02*
X14665896Y-8150650D01*
X14665896Y-8150650D02*
X14684944Y-8160174D01*
X14684944Y-8160174D02*
X14694468Y-8179222D01*
X14694468Y-8179222D02*
X14694468Y-8198269D01*
X14694468Y-8198269D02*
X14599230Y-8217317D01*
X14770658Y-8274460D02*
X14789706Y-8283984D01*
X14789706Y-8283984D02*
X14827801Y-8283984D01*
X14827801Y-8283984D02*
X14846849Y-8274460D01*
X14846849Y-8274460D02*
X14856372Y-8255412D01*
X14856372Y-8255412D02*
X14856372Y-8245888D01*
X14856372Y-8245888D02*
X14846849Y-8226841D01*
X14846849Y-8226841D02*
X14827801Y-8217317D01*
X14827801Y-8217317D02*
X14799230Y-8217317D01*
X14799230Y-8217317D02*
X14780182Y-8207793D01*
X14780182Y-8207793D02*
X14770658Y-8188746D01*
X14770658Y-8188746D02*
X14770658Y-8179222D01*
X14770658Y-8179222D02*
X14780182Y-8160174D01*
X14780182Y-8160174D02*
X14799230Y-8150650D01*
X14799230Y-8150650D02*
X14827801Y-8150650D01*
X14827801Y-8150650D02*
X14846849Y-8160174D01*
X14923039Y-8360174D02*
X14932563Y-8350650D01*
X14932563Y-8350650D02*
X14951611Y-8322079D01*
X14951611Y-8322079D02*
X14961134Y-8303031D01*
X14961134Y-8303031D02*
X14970658Y-8274460D01*
X14970658Y-8274460D02*
X14980182Y-8226841D01*
X14980182Y-8226841D02*
X14980182Y-8188746D01*
X14980182Y-8188746D02*
X14970658Y-8141127D01*
X14970658Y-8141127D02*
X14961134Y-8112555D01*
X14961134Y-8112555D02*
X14951611Y-8093508D01*
X14951611Y-8093508D02*
X14932563Y-8064936D01*
X14932563Y-8064936D02*
X14923039Y-8055412D01*
D12*
X9957500Y-8456500D02*
G75*
G02*
X9873500Y-8456500I-42000J0D01*
G01*
X9873500Y-8456500D02*
G75*
G02*
X9957500Y-8456500I42000J0D01*
G01*
D11*
X10256372Y-8347984D02*
X10275420Y-8347984D01*
X10275420Y-8347984D02*
X10294467Y-8357508D01*
X10294467Y-8357508D02*
X10303991Y-8367031D01*
X10303991Y-8367031D02*
X10313515Y-8386079D01*
X10313515Y-8386079D02*
X10323039Y-8424174D01*
X10323039Y-8424174D02*
X10323039Y-8471793D01*
X10323039Y-8471793D02*
X10313515Y-8509889D01*
X10313515Y-8509889D02*
X10303991Y-8528936D01*
X10303991Y-8528936D02*
X10294467Y-8538460D01*
X10294467Y-8538460D02*
X10275420Y-8547984D01*
X10275420Y-8547984D02*
X10256372Y-8547984D01*
X10256372Y-8547984D02*
X10237324Y-8538460D01*
X10237324Y-8538460D02*
X10227801Y-8528936D01*
X10227801Y-8528936D02*
X10218277Y-8509889D01*
X10218277Y-8509889D02*
X10208753Y-8471793D01*
X10208753Y-8471793D02*
X10208753Y-8424174D01*
X10208753Y-8424174D02*
X10218277Y-8386079D01*
X10218277Y-8386079D02*
X10227801Y-8367031D01*
X10227801Y-8367031D02*
X10237324Y-8357508D01*
X10237324Y-8357508D02*
X10256372Y-8347984D01*
X10408753Y-8528936D02*
X10418277Y-8538460D01*
X10418277Y-8538460D02*
X10408753Y-8547984D01*
X10408753Y-8547984D02*
X10399229Y-8538460D01*
X10399229Y-8538460D02*
X10408753Y-8528936D01*
X10408753Y-8528936D02*
X10408753Y-8547984D01*
X10532563Y-8433698D02*
X10513515Y-8424174D01*
X10513515Y-8424174D02*
X10503991Y-8414650D01*
X10503991Y-8414650D02*
X10494467Y-8395603D01*
X10494467Y-8395603D02*
X10494467Y-8386079D01*
X10494467Y-8386079D02*
X10503991Y-8367031D01*
X10503991Y-8367031D02*
X10513515Y-8357508D01*
X10513515Y-8357508D02*
X10532563Y-8347984D01*
X10532563Y-8347984D02*
X10570658Y-8347984D01*
X10570658Y-8347984D02*
X10589705Y-8357508D01*
X10589705Y-8357508D02*
X10599229Y-8367031D01*
X10599229Y-8367031D02*
X10608753Y-8386079D01*
X10608753Y-8386079D02*
X10608753Y-8395603D01*
X10608753Y-8395603D02*
X10599229Y-8414650D01*
X10599229Y-8414650D02*
X10589705Y-8424174D01*
X10589705Y-8424174D02*
X10570658Y-8433698D01*
X10570658Y-8433698D02*
X10532563Y-8433698D01*
X10532563Y-8433698D02*
X10513515Y-8443222D01*
X10513515Y-8443222D02*
X10503991Y-8452746D01*
X10503991Y-8452746D02*
X10494467Y-8471793D01*
X10494467Y-8471793D02*
X10494467Y-8509889D01*
X10494467Y-8509889D02*
X10503991Y-8528936D01*
X10503991Y-8528936D02*
X10513515Y-8538460D01*
X10513515Y-8538460D02*
X10532563Y-8547984D01*
X10532563Y-8547984D02*
X10570658Y-8547984D01*
X10570658Y-8547984D02*
X10589705Y-8538460D01*
X10589705Y-8538460D02*
X10599229Y-8528936D01*
X10599229Y-8528936D02*
X10608753Y-8509889D01*
X10608753Y-8509889D02*
X10608753Y-8471793D01*
X10608753Y-8471793D02*
X10599229Y-8452746D01*
X10599229Y-8452746D02*
X10589705Y-8443222D01*
X10589705Y-8443222D02*
X10570658Y-8433698D01*
X10780182Y-8414650D02*
X10780182Y-8547984D01*
X10732563Y-8338460D02*
X10684944Y-8481317D01*
X10684944Y-8481317D02*
X10808753Y-8481317D01*
X10923039Y-8347984D02*
X10942086Y-8347984D01*
X10942086Y-8347984D02*
X10961134Y-8357508D01*
X10961134Y-8357508D02*
X10970658Y-8367031D01*
X10970658Y-8367031D02*
X10980182Y-8386079D01*
X10980182Y-8386079D02*
X10989705Y-8424174D01*
X10989705Y-8424174D02*
X10989705Y-8471793D01*
X10989705Y-8471793D02*
X10980182Y-8509889D01*
X10980182Y-8509889D02*
X10970658Y-8528936D01*
X10970658Y-8528936D02*
X10961134Y-8538460D01*
X10961134Y-8538460D02*
X10942086Y-8547984D01*
X10942086Y-8547984D02*
X10923039Y-8547984D01*
X10923039Y-8547984D02*
X10903991Y-8538460D01*
X10903991Y-8538460D02*
X10894467Y-8528936D01*
X10894467Y-8528936D02*
X10884944Y-8509889D01*
X10884944Y-8509889D02*
X10875420Y-8471793D01*
X10875420Y-8471793D02*
X10875420Y-8424174D01*
X10875420Y-8424174D02*
X10884944Y-8386079D01*
X10884944Y-8386079D02*
X10894467Y-8367031D01*
X10894467Y-8367031D02*
X10903991Y-8357508D01*
X10903991Y-8357508D02*
X10923039Y-8347984D01*
X11075420Y-8547984D02*
X11075420Y-8414650D01*
X11075420Y-8433698D02*
X11084944Y-8424174D01*
X11084944Y-8424174D02*
X11103991Y-8414650D01*
X11103991Y-8414650D02*
X11132563Y-8414650D01*
X11132563Y-8414650D02*
X11151610Y-8424174D01*
X11151610Y-8424174D02*
X11161134Y-8443222D01*
X11161134Y-8443222D02*
X11161134Y-8547984D01*
X11161134Y-8443222D02*
X11170658Y-8424174D01*
X11170658Y-8424174D02*
X11189705Y-8414650D01*
X11189705Y-8414650D02*
X11218277Y-8414650D01*
X11218277Y-8414650D02*
X11237324Y-8424174D01*
X11237324Y-8424174D02*
X11246848Y-8443222D01*
X11246848Y-8443222D02*
X11246848Y-8547984D01*
X11342086Y-8547984D02*
X11342086Y-8414650D01*
X11342086Y-8433698D02*
X11351610Y-8424174D01*
X11351610Y-8424174D02*
X11370658Y-8414650D01*
X11370658Y-8414650D02*
X11399229Y-8414650D01*
X11399229Y-8414650D02*
X11418277Y-8424174D01*
X11418277Y-8424174D02*
X11427801Y-8443222D01*
X11427801Y-8443222D02*
X11427801Y-8547984D01*
X11427801Y-8443222D02*
X11437324Y-8424174D01*
X11437324Y-8424174D02*
X11456372Y-8414650D01*
X11456372Y-8414650D02*
X11484943Y-8414650D01*
X11484943Y-8414650D02*
X11503991Y-8424174D01*
X11503991Y-8424174D02*
X11513515Y-8443222D01*
X11513515Y-8443222D02*
X11513515Y-8547984D01*
X11903991Y-8338460D02*
X11732563Y-8595603D01*
X12161134Y-8347984D02*
X12180182Y-8347984D01*
X12180182Y-8347984D02*
X12199229Y-8357508D01*
X12199229Y-8357508D02*
X12208753Y-8367031D01*
X12208753Y-8367031D02*
X12218277Y-8386079D01*
X12218277Y-8386079D02*
X12227801Y-8424174D01*
X12227801Y-8424174D02*
X12227801Y-8471793D01*
X12227801Y-8471793D02*
X12218277Y-8509889D01*
X12218277Y-8509889D02*
X12208753Y-8528936D01*
X12208753Y-8528936D02*
X12199229Y-8538460D01*
X12199229Y-8538460D02*
X12180182Y-8547984D01*
X12180182Y-8547984D02*
X12161134Y-8547984D01*
X12161134Y-8547984D02*
X12142086Y-8538460D01*
X12142086Y-8538460D02*
X12132563Y-8528936D01*
X12132563Y-8528936D02*
X12123039Y-8509889D01*
X12123039Y-8509889D02*
X12113515Y-8471793D01*
X12113515Y-8471793D02*
X12113515Y-8424174D01*
X12113515Y-8424174D02*
X12123039Y-8386079D01*
X12123039Y-8386079D02*
X12132563Y-8367031D01*
X12132563Y-8367031D02*
X12142086Y-8357508D01*
X12142086Y-8357508D02*
X12161134Y-8347984D01*
X12313515Y-8528936D02*
X12323039Y-8538460D01*
X12323039Y-8538460D02*
X12313515Y-8547984D01*
X12313515Y-8547984D02*
X12303991Y-8538460D01*
X12303991Y-8538460D02*
X12313515Y-8528936D01*
X12313515Y-8528936D02*
X12313515Y-8547984D01*
X12446848Y-8347984D02*
X12465896Y-8347984D01*
X12465896Y-8347984D02*
X12484944Y-8357508D01*
X12484944Y-8357508D02*
X12494467Y-8367031D01*
X12494467Y-8367031D02*
X12503991Y-8386079D01*
X12503991Y-8386079D02*
X12513515Y-8424174D01*
X12513515Y-8424174D02*
X12513515Y-8471793D01*
X12513515Y-8471793D02*
X12503991Y-8509889D01*
X12503991Y-8509889D02*
X12494467Y-8528936D01*
X12494467Y-8528936D02*
X12484944Y-8538460D01*
X12484944Y-8538460D02*
X12465896Y-8547984D01*
X12465896Y-8547984D02*
X12446848Y-8547984D01*
X12446848Y-8547984D02*
X12427801Y-8538460D01*
X12427801Y-8538460D02*
X12418277Y-8528936D01*
X12418277Y-8528936D02*
X12408753Y-8509889D01*
X12408753Y-8509889D02*
X12399229Y-8471793D01*
X12399229Y-8471793D02*
X12399229Y-8424174D01*
X12399229Y-8424174D02*
X12408753Y-8386079D01*
X12408753Y-8386079D02*
X12418277Y-8367031D01*
X12418277Y-8367031D02*
X12427801Y-8357508D01*
X12427801Y-8357508D02*
X12446848Y-8347984D01*
X12580182Y-8347984D02*
X12703991Y-8347984D01*
X12703991Y-8347984D02*
X12637325Y-8424174D01*
X12637325Y-8424174D02*
X12665896Y-8424174D01*
X12665896Y-8424174D02*
X12684944Y-8433698D01*
X12684944Y-8433698D02*
X12694467Y-8443222D01*
X12694467Y-8443222D02*
X12703991Y-8462270D01*
X12703991Y-8462270D02*
X12703991Y-8509889D01*
X12703991Y-8509889D02*
X12694467Y-8528936D01*
X12694467Y-8528936D02*
X12684944Y-8538460D01*
X12684944Y-8538460D02*
X12665896Y-8547984D01*
X12665896Y-8547984D02*
X12608753Y-8547984D01*
X12608753Y-8547984D02*
X12589706Y-8538460D01*
X12589706Y-8538460D02*
X12580182Y-8528936D01*
X12770658Y-8347984D02*
X12894467Y-8347984D01*
X12894467Y-8347984D02*
X12827801Y-8424174D01*
X12827801Y-8424174D02*
X12856372Y-8424174D01*
X12856372Y-8424174D02*
X12875420Y-8433698D01*
X12875420Y-8433698D02*
X12884944Y-8443222D01*
X12884944Y-8443222D02*
X12894467Y-8462270D01*
X12894467Y-8462270D02*
X12894467Y-8509889D01*
X12894467Y-8509889D02*
X12884944Y-8528936D01*
X12884944Y-8528936D02*
X12875420Y-8538460D01*
X12875420Y-8538460D02*
X12856372Y-8547984D01*
X12856372Y-8547984D02*
X12799229Y-8547984D01*
X12799229Y-8547984D02*
X12780182Y-8538460D01*
X12780182Y-8538460D02*
X12770658Y-8528936D01*
X13084944Y-8547984D02*
X12970658Y-8547984D01*
X13027801Y-8547984D02*
X13027801Y-8347984D01*
X13027801Y-8347984D02*
X13008753Y-8376555D01*
X13008753Y-8376555D02*
X12989706Y-8395603D01*
X12989706Y-8395603D02*
X12970658Y-8405127D01*
X13161134Y-8347984D02*
X13161134Y-8386079D01*
X13237325Y-8347984D02*
X13237325Y-8386079D01*
X13532563Y-8624174D02*
X13523039Y-8614650D01*
X13523039Y-8614650D02*
X13503991Y-8586079D01*
X13503991Y-8586079D02*
X13494468Y-8567031D01*
X13494468Y-8567031D02*
X13484944Y-8538460D01*
X13484944Y-8538460D02*
X13475420Y-8490841D01*
X13475420Y-8490841D02*
X13475420Y-8452746D01*
X13475420Y-8452746D02*
X13484944Y-8405127D01*
X13484944Y-8405127D02*
X13494468Y-8376555D01*
X13494468Y-8376555D02*
X13503991Y-8357508D01*
X13503991Y-8357508D02*
X13523039Y-8328936D01*
X13523039Y-8328936D02*
X13532563Y-8319412D01*
X13713515Y-8547984D02*
X13599229Y-8547984D01*
X13656372Y-8547984D02*
X13656372Y-8347984D01*
X13656372Y-8347984D02*
X13637325Y-8376555D01*
X13637325Y-8376555D02*
X13618277Y-8395603D01*
X13618277Y-8395603D02*
X13599229Y-8405127D01*
X13884944Y-8347984D02*
X13846848Y-8347984D01*
X13846848Y-8347984D02*
X13827801Y-8357508D01*
X13827801Y-8357508D02*
X13818277Y-8367031D01*
X13818277Y-8367031D02*
X13799229Y-8395603D01*
X13799229Y-8395603D02*
X13789706Y-8433698D01*
X13789706Y-8433698D02*
X13789706Y-8509889D01*
X13789706Y-8509889D02*
X13799229Y-8528936D01*
X13799229Y-8528936D02*
X13808753Y-8538460D01*
X13808753Y-8538460D02*
X13827801Y-8547984D01*
X13827801Y-8547984D02*
X13865896Y-8547984D01*
X13865896Y-8547984D02*
X13884944Y-8538460D01*
X13884944Y-8538460D02*
X13894468Y-8528936D01*
X13894468Y-8528936D02*
X13903991Y-8509889D01*
X13903991Y-8509889D02*
X13903991Y-8462270D01*
X13903991Y-8462270D02*
X13894468Y-8443222D01*
X13894468Y-8443222D02*
X13884944Y-8433698D01*
X13884944Y-8433698D02*
X13865896Y-8424174D01*
X13865896Y-8424174D02*
X13827801Y-8424174D01*
X13827801Y-8424174D02*
X13808753Y-8433698D01*
X13808753Y-8433698D02*
X13799229Y-8443222D01*
X13799229Y-8443222D02*
X13789706Y-8462270D01*
X14142087Y-8547984D02*
X14142087Y-8347984D01*
X14227801Y-8547984D02*
X14227801Y-8443222D01*
X14227801Y-8443222D02*
X14218277Y-8424174D01*
X14218277Y-8424174D02*
X14199230Y-8414650D01*
X14199230Y-8414650D02*
X14170658Y-8414650D01*
X14170658Y-8414650D02*
X14151610Y-8424174D01*
X14151610Y-8424174D02*
X14142087Y-8433698D01*
X14351610Y-8547984D02*
X14332563Y-8538460D01*
X14332563Y-8538460D02*
X14323039Y-8528936D01*
X14323039Y-8528936D02*
X14313515Y-8509889D01*
X14313515Y-8509889D02*
X14313515Y-8452746D01*
X14313515Y-8452746D02*
X14323039Y-8433698D01*
X14323039Y-8433698D02*
X14332563Y-8424174D01*
X14332563Y-8424174D02*
X14351610Y-8414650D01*
X14351610Y-8414650D02*
X14380182Y-8414650D01*
X14380182Y-8414650D02*
X14399230Y-8424174D01*
X14399230Y-8424174D02*
X14408753Y-8433698D01*
X14408753Y-8433698D02*
X14418277Y-8452746D01*
X14418277Y-8452746D02*
X14418277Y-8509889D01*
X14418277Y-8509889D02*
X14408753Y-8528936D01*
X14408753Y-8528936D02*
X14399230Y-8538460D01*
X14399230Y-8538460D02*
X14380182Y-8547984D01*
X14380182Y-8547984D02*
X14351610Y-8547984D01*
X14532563Y-8547984D02*
X14513515Y-8538460D01*
X14513515Y-8538460D02*
X14503991Y-8519412D01*
X14503991Y-8519412D02*
X14503991Y-8347984D01*
X14684944Y-8538460D02*
X14665896Y-8547984D01*
X14665896Y-8547984D02*
X14627801Y-8547984D01*
X14627801Y-8547984D02*
X14608753Y-8538460D01*
X14608753Y-8538460D02*
X14599230Y-8519412D01*
X14599230Y-8519412D02*
X14599230Y-8443222D01*
X14599230Y-8443222D02*
X14608753Y-8424174D01*
X14608753Y-8424174D02*
X14627801Y-8414650D01*
X14627801Y-8414650D02*
X14665896Y-8414650D01*
X14665896Y-8414650D02*
X14684944Y-8424174D01*
X14684944Y-8424174D02*
X14694468Y-8443222D01*
X14694468Y-8443222D02*
X14694468Y-8462270D01*
X14694468Y-8462270D02*
X14599230Y-8481317D01*
X14770658Y-8538460D02*
X14789706Y-8547984D01*
X14789706Y-8547984D02*
X14827801Y-8547984D01*
X14827801Y-8547984D02*
X14846849Y-8538460D01*
X14846849Y-8538460D02*
X14856372Y-8519412D01*
X14856372Y-8519412D02*
X14856372Y-8509889D01*
X14856372Y-8509889D02*
X14846849Y-8490841D01*
X14846849Y-8490841D02*
X14827801Y-8481317D01*
X14827801Y-8481317D02*
X14799230Y-8481317D01*
X14799230Y-8481317D02*
X14780182Y-8471793D01*
X14780182Y-8471793D02*
X14770658Y-8452746D01*
X14770658Y-8452746D02*
X14770658Y-8443222D01*
X14770658Y-8443222D02*
X14780182Y-8424174D01*
X14780182Y-8424174D02*
X14799230Y-8414650D01*
X14799230Y-8414650D02*
X14827801Y-8414650D01*
X14827801Y-8414650D02*
X14846849Y-8424174D01*
X14923039Y-8624174D02*
X14932563Y-8614650D01*
X14932563Y-8614650D02*
X14951611Y-8586079D01*
X14951611Y-8586079D02*
X14961134Y-8567031D01*
X14961134Y-8567031D02*
X14970658Y-8538460D01*
X14970658Y-8538460D02*
X14980182Y-8490841D01*
X14980182Y-8490841D02*
X14980182Y-8452746D01*
X14980182Y-8452746D02*
X14970658Y-8405127D01*
X14970658Y-8405127D02*
X14961134Y-8376555D01*
X14961134Y-8376555D02*
X14951611Y-8357508D01*
X14951611Y-8357508D02*
X14932563Y-8328936D01*
X14932563Y-8328936D02*
X14923039Y-8319412D01*
D12*
X9915000Y-8678000D02*
X9915000Y-8763000D01*
X9872500Y-8720500D02*
X9957500Y-8720500D01*
D11*
X10256372Y-8611984D02*
X10275420Y-8611984D01*
X10275420Y-8611984D02*
X10294467Y-8621508D01*
X10294467Y-8621508D02*
X10303991Y-8631031D01*
X10303991Y-8631031D02*
X10313515Y-8650079D01*
X10313515Y-8650079D02*
X10323039Y-8688174D01*
X10323039Y-8688174D02*
X10323039Y-8735793D01*
X10323039Y-8735793D02*
X10313515Y-8773889D01*
X10313515Y-8773889D02*
X10303991Y-8792936D01*
X10303991Y-8792936D02*
X10294467Y-8802460D01*
X10294467Y-8802460D02*
X10275420Y-8811984D01*
X10275420Y-8811984D02*
X10256372Y-8811984D01*
X10256372Y-8811984D02*
X10237324Y-8802460D01*
X10237324Y-8802460D02*
X10227801Y-8792936D01*
X10227801Y-8792936D02*
X10218277Y-8773889D01*
X10218277Y-8773889D02*
X10208753Y-8735793D01*
X10208753Y-8735793D02*
X10208753Y-8688174D01*
X10208753Y-8688174D02*
X10218277Y-8650079D01*
X10218277Y-8650079D02*
X10227801Y-8631031D01*
X10227801Y-8631031D02*
X10237324Y-8621508D01*
X10237324Y-8621508D02*
X10256372Y-8611984D01*
X10408753Y-8792936D02*
X10418277Y-8802460D01*
X10418277Y-8802460D02*
X10408753Y-8811984D01*
X10408753Y-8811984D02*
X10399229Y-8802460D01*
X10399229Y-8802460D02*
X10408753Y-8792936D01*
X10408753Y-8792936D02*
X10408753Y-8811984D01*
X10532563Y-8697698D02*
X10513515Y-8688174D01*
X10513515Y-8688174D02*
X10503991Y-8678650D01*
X10503991Y-8678650D02*
X10494467Y-8659603D01*
X10494467Y-8659603D02*
X10494467Y-8650079D01*
X10494467Y-8650079D02*
X10503991Y-8631031D01*
X10503991Y-8631031D02*
X10513515Y-8621508D01*
X10513515Y-8621508D02*
X10532563Y-8611984D01*
X10532563Y-8611984D02*
X10570658Y-8611984D01*
X10570658Y-8611984D02*
X10589705Y-8621508D01*
X10589705Y-8621508D02*
X10599229Y-8631031D01*
X10599229Y-8631031D02*
X10608753Y-8650079D01*
X10608753Y-8650079D02*
X10608753Y-8659603D01*
X10608753Y-8659603D02*
X10599229Y-8678650D01*
X10599229Y-8678650D02*
X10589705Y-8688174D01*
X10589705Y-8688174D02*
X10570658Y-8697698D01*
X10570658Y-8697698D02*
X10532563Y-8697698D01*
X10532563Y-8697698D02*
X10513515Y-8707222D01*
X10513515Y-8707222D02*
X10503991Y-8716746D01*
X10503991Y-8716746D02*
X10494467Y-8735793D01*
X10494467Y-8735793D02*
X10494467Y-8773889D01*
X10494467Y-8773889D02*
X10503991Y-8792936D01*
X10503991Y-8792936D02*
X10513515Y-8802460D01*
X10513515Y-8802460D02*
X10532563Y-8811984D01*
X10532563Y-8811984D02*
X10570658Y-8811984D01*
X10570658Y-8811984D02*
X10589705Y-8802460D01*
X10589705Y-8802460D02*
X10599229Y-8792936D01*
X10599229Y-8792936D02*
X10608753Y-8773889D01*
X10608753Y-8773889D02*
X10608753Y-8735793D01*
X10608753Y-8735793D02*
X10599229Y-8716746D01*
X10599229Y-8716746D02*
X10589705Y-8707222D01*
X10589705Y-8707222D02*
X10570658Y-8697698D01*
X10789705Y-8611984D02*
X10694467Y-8611984D01*
X10694467Y-8611984D02*
X10684944Y-8707222D01*
X10684944Y-8707222D02*
X10694467Y-8697698D01*
X10694467Y-8697698D02*
X10713515Y-8688174D01*
X10713515Y-8688174D02*
X10761134Y-8688174D01*
X10761134Y-8688174D02*
X10780182Y-8697698D01*
X10780182Y-8697698D02*
X10789705Y-8707222D01*
X10789705Y-8707222D02*
X10799229Y-8726270D01*
X10799229Y-8726270D02*
X10799229Y-8773889D01*
X10799229Y-8773889D02*
X10789705Y-8792936D01*
X10789705Y-8792936D02*
X10780182Y-8802460D01*
X10780182Y-8802460D02*
X10761134Y-8811984D01*
X10761134Y-8811984D02*
X10713515Y-8811984D01*
X10713515Y-8811984D02*
X10694467Y-8802460D01*
X10694467Y-8802460D02*
X10684944Y-8792936D01*
X10923039Y-8611984D02*
X10942086Y-8611984D01*
X10942086Y-8611984D02*
X10961134Y-8621508D01*
X10961134Y-8621508D02*
X10970658Y-8631031D01*
X10970658Y-8631031D02*
X10980182Y-8650079D01*
X10980182Y-8650079D02*
X10989705Y-8688174D01*
X10989705Y-8688174D02*
X10989705Y-8735793D01*
X10989705Y-8735793D02*
X10980182Y-8773889D01*
X10980182Y-8773889D02*
X10970658Y-8792936D01*
X10970658Y-8792936D02*
X10961134Y-8802460D01*
X10961134Y-8802460D02*
X10942086Y-8811984D01*
X10942086Y-8811984D02*
X10923039Y-8811984D01*
X10923039Y-8811984D02*
X10903991Y-8802460D01*
X10903991Y-8802460D02*
X10894467Y-8792936D01*
X10894467Y-8792936D02*
X10884944Y-8773889D01*
X10884944Y-8773889D02*
X10875420Y-8735793D01*
X10875420Y-8735793D02*
X10875420Y-8688174D01*
X10875420Y-8688174D02*
X10884944Y-8650079D01*
X10884944Y-8650079D02*
X10894467Y-8631031D01*
X10894467Y-8631031D02*
X10903991Y-8621508D01*
X10903991Y-8621508D02*
X10923039Y-8611984D01*
X11075420Y-8811984D02*
X11075420Y-8678650D01*
X11075420Y-8697698D02*
X11084944Y-8688174D01*
X11084944Y-8688174D02*
X11103991Y-8678650D01*
X11103991Y-8678650D02*
X11132563Y-8678650D01*
X11132563Y-8678650D02*
X11151610Y-8688174D01*
X11151610Y-8688174D02*
X11161134Y-8707222D01*
X11161134Y-8707222D02*
X11161134Y-8811984D01*
X11161134Y-8707222D02*
X11170658Y-8688174D01*
X11170658Y-8688174D02*
X11189705Y-8678650D01*
X11189705Y-8678650D02*
X11218277Y-8678650D01*
X11218277Y-8678650D02*
X11237324Y-8688174D01*
X11237324Y-8688174D02*
X11246848Y-8707222D01*
X11246848Y-8707222D02*
X11246848Y-8811984D01*
X11342086Y-8811984D02*
X11342086Y-8678650D01*
X11342086Y-8697698D02*
X11351610Y-8688174D01*
X11351610Y-8688174D02*
X11370658Y-8678650D01*
X11370658Y-8678650D02*
X11399229Y-8678650D01*
X11399229Y-8678650D02*
X11418277Y-8688174D01*
X11418277Y-8688174D02*
X11427801Y-8707222D01*
X11427801Y-8707222D02*
X11427801Y-8811984D01*
X11427801Y-8707222D02*
X11437324Y-8688174D01*
X11437324Y-8688174D02*
X11456372Y-8678650D01*
X11456372Y-8678650D02*
X11484943Y-8678650D01*
X11484943Y-8678650D02*
X11503991Y-8688174D01*
X11503991Y-8688174D02*
X11513515Y-8707222D01*
X11513515Y-8707222D02*
X11513515Y-8811984D01*
X11903991Y-8602460D02*
X11732563Y-8859603D01*
X12161134Y-8611984D02*
X12180182Y-8611984D01*
X12180182Y-8611984D02*
X12199229Y-8621508D01*
X12199229Y-8621508D02*
X12208753Y-8631031D01*
X12208753Y-8631031D02*
X12218277Y-8650079D01*
X12218277Y-8650079D02*
X12227801Y-8688174D01*
X12227801Y-8688174D02*
X12227801Y-8735793D01*
X12227801Y-8735793D02*
X12218277Y-8773889D01*
X12218277Y-8773889D02*
X12208753Y-8792936D01*
X12208753Y-8792936D02*
X12199229Y-8802460D01*
X12199229Y-8802460D02*
X12180182Y-8811984D01*
X12180182Y-8811984D02*
X12161134Y-8811984D01*
X12161134Y-8811984D02*
X12142086Y-8802460D01*
X12142086Y-8802460D02*
X12132563Y-8792936D01*
X12132563Y-8792936D02*
X12123039Y-8773889D01*
X12123039Y-8773889D02*
X12113515Y-8735793D01*
X12113515Y-8735793D02*
X12113515Y-8688174D01*
X12113515Y-8688174D02*
X12123039Y-8650079D01*
X12123039Y-8650079D02*
X12132563Y-8631031D01*
X12132563Y-8631031D02*
X12142086Y-8621508D01*
X12142086Y-8621508D02*
X12161134Y-8611984D01*
X12313515Y-8792936D02*
X12323039Y-8802460D01*
X12323039Y-8802460D02*
X12313515Y-8811984D01*
X12313515Y-8811984D02*
X12303991Y-8802460D01*
X12303991Y-8802460D02*
X12313515Y-8792936D01*
X12313515Y-8792936D02*
X12313515Y-8811984D01*
X12446848Y-8611984D02*
X12465896Y-8611984D01*
X12465896Y-8611984D02*
X12484944Y-8621508D01*
X12484944Y-8621508D02*
X12494467Y-8631031D01*
X12494467Y-8631031D02*
X12503991Y-8650079D01*
X12503991Y-8650079D02*
X12513515Y-8688174D01*
X12513515Y-8688174D02*
X12513515Y-8735793D01*
X12513515Y-8735793D02*
X12503991Y-8773889D01*
X12503991Y-8773889D02*
X12494467Y-8792936D01*
X12494467Y-8792936D02*
X12484944Y-8802460D01*
X12484944Y-8802460D02*
X12465896Y-8811984D01*
X12465896Y-8811984D02*
X12446848Y-8811984D01*
X12446848Y-8811984D02*
X12427801Y-8802460D01*
X12427801Y-8802460D02*
X12418277Y-8792936D01*
X12418277Y-8792936D02*
X12408753Y-8773889D01*
X12408753Y-8773889D02*
X12399229Y-8735793D01*
X12399229Y-8735793D02*
X12399229Y-8688174D01*
X12399229Y-8688174D02*
X12408753Y-8650079D01*
X12408753Y-8650079D02*
X12418277Y-8631031D01*
X12418277Y-8631031D02*
X12427801Y-8621508D01*
X12427801Y-8621508D02*
X12446848Y-8611984D01*
X12580182Y-8611984D02*
X12703991Y-8611984D01*
X12703991Y-8611984D02*
X12637325Y-8688174D01*
X12637325Y-8688174D02*
X12665896Y-8688174D01*
X12665896Y-8688174D02*
X12684944Y-8697698D01*
X12684944Y-8697698D02*
X12694467Y-8707222D01*
X12694467Y-8707222D02*
X12703991Y-8726270D01*
X12703991Y-8726270D02*
X12703991Y-8773889D01*
X12703991Y-8773889D02*
X12694467Y-8792936D01*
X12694467Y-8792936D02*
X12684944Y-8802460D01*
X12684944Y-8802460D02*
X12665896Y-8811984D01*
X12665896Y-8811984D02*
X12608753Y-8811984D01*
X12608753Y-8811984D02*
X12589706Y-8802460D01*
X12589706Y-8802460D02*
X12580182Y-8792936D01*
X12770658Y-8611984D02*
X12894467Y-8611984D01*
X12894467Y-8611984D02*
X12827801Y-8688174D01*
X12827801Y-8688174D02*
X12856372Y-8688174D01*
X12856372Y-8688174D02*
X12875420Y-8697698D01*
X12875420Y-8697698D02*
X12884944Y-8707222D01*
X12884944Y-8707222D02*
X12894467Y-8726270D01*
X12894467Y-8726270D02*
X12894467Y-8773889D01*
X12894467Y-8773889D02*
X12884944Y-8792936D01*
X12884944Y-8792936D02*
X12875420Y-8802460D01*
X12875420Y-8802460D02*
X12856372Y-8811984D01*
X12856372Y-8811984D02*
X12799229Y-8811984D01*
X12799229Y-8811984D02*
X12780182Y-8802460D01*
X12780182Y-8802460D02*
X12770658Y-8792936D01*
X13075420Y-8611984D02*
X12980182Y-8611984D01*
X12980182Y-8611984D02*
X12970658Y-8707222D01*
X12970658Y-8707222D02*
X12980182Y-8697698D01*
X12980182Y-8697698D02*
X12999229Y-8688174D01*
X12999229Y-8688174D02*
X13046848Y-8688174D01*
X13046848Y-8688174D02*
X13065896Y-8697698D01*
X13065896Y-8697698D02*
X13075420Y-8707222D01*
X13075420Y-8707222D02*
X13084944Y-8726270D01*
X13084944Y-8726270D02*
X13084944Y-8773889D01*
X13084944Y-8773889D02*
X13075420Y-8792936D01*
X13075420Y-8792936D02*
X13065896Y-8802460D01*
X13065896Y-8802460D02*
X13046848Y-8811984D01*
X13046848Y-8811984D02*
X12999229Y-8811984D01*
X12999229Y-8811984D02*
X12980182Y-8802460D01*
X12980182Y-8802460D02*
X12970658Y-8792936D01*
X13161134Y-8611984D02*
X13161134Y-8650079D01*
X13237325Y-8611984D02*
X13237325Y-8650079D01*
X13532563Y-8888174D02*
X13523039Y-8878650D01*
X13523039Y-8878650D02*
X13503991Y-8850079D01*
X13503991Y-8850079D02*
X13494468Y-8831031D01*
X13494468Y-8831031D02*
X13484944Y-8802460D01*
X13484944Y-8802460D02*
X13475420Y-8754841D01*
X13475420Y-8754841D02*
X13475420Y-8716746D01*
X13475420Y-8716746D02*
X13484944Y-8669127D01*
X13484944Y-8669127D02*
X13494468Y-8640555D01*
X13494468Y-8640555D02*
X13503991Y-8621508D01*
X13503991Y-8621508D02*
X13523039Y-8592936D01*
X13523039Y-8592936D02*
X13532563Y-8583412D01*
X13703991Y-8611984D02*
X13608753Y-8611984D01*
X13608753Y-8611984D02*
X13599229Y-8707222D01*
X13599229Y-8707222D02*
X13608753Y-8697698D01*
X13608753Y-8697698D02*
X13627801Y-8688174D01*
X13627801Y-8688174D02*
X13675420Y-8688174D01*
X13675420Y-8688174D02*
X13694468Y-8697698D01*
X13694468Y-8697698D02*
X13703991Y-8707222D01*
X13703991Y-8707222D02*
X13713515Y-8726270D01*
X13713515Y-8726270D02*
X13713515Y-8773889D01*
X13713515Y-8773889D02*
X13703991Y-8792936D01*
X13703991Y-8792936D02*
X13694468Y-8802460D01*
X13694468Y-8802460D02*
X13675420Y-8811984D01*
X13675420Y-8811984D02*
X13627801Y-8811984D01*
X13627801Y-8811984D02*
X13608753Y-8802460D01*
X13608753Y-8802460D02*
X13599229Y-8792936D01*
X13951610Y-8811984D02*
X13951610Y-8611984D01*
X14037325Y-8811984D02*
X14037325Y-8707222D01*
X14037325Y-8707222D02*
X14027801Y-8688174D01*
X14027801Y-8688174D02*
X14008753Y-8678650D01*
X14008753Y-8678650D02*
X13980182Y-8678650D01*
X13980182Y-8678650D02*
X13961134Y-8688174D01*
X13961134Y-8688174D02*
X13951610Y-8697698D01*
X14161134Y-8811984D02*
X14142087Y-8802460D01*
X14142087Y-8802460D02*
X14132563Y-8792936D01*
X14132563Y-8792936D02*
X14123039Y-8773889D01*
X14123039Y-8773889D02*
X14123039Y-8716746D01*
X14123039Y-8716746D02*
X14132563Y-8697698D01*
X14132563Y-8697698D02*
X14142087Y-8688174D01*
X14142087Y-8688174D02*
X14161134Y-8678650D01*
X14161134Y-8678650D02*
X14189706Y-8678650D01*
X14189706Y-8678650D02*
X14208753Y-8688174D01*
X14208753Y-8688174D02*
X14218277Y-8697698D01*
X14218277Y-8697698D02*
X14227801Y-8716746D01*
X14227801Y-8716746D02*
X14227801Y-8773889D01*
X14227801Y-8773889D02*
X14218277Y-8792936D01*
X14218277Y-8792936D02*
X14208753Y-8802460D01*
X14208753Y-8802460D02*
X14189706Y-8811984D01*
X14189706Y-8811984D02*
X14161134Y-8811984D01*
X14342087Y-8811984D02*
X14323039Y-8802460D01*
X14323039Y-8802460D02*
X14313515Y-8783412D01*
X14313515Y-8783412D02*
X14313515Y-8611984D01*
X14494468Y-8802460D02*
X14475420Y-8811984D01*
X14475420Y-8811984D02*
X14437325Y-8811984D01*
X14437325Y-8811984D02*
X14418277Y-8802460D01*
X14418277Y-8802460D02*
X14408753Y-8783412D01*
X14408753Y-8783412D02*
X14408753Y-8707222D01*
X14408753Y-8707222D02*
X14418277Y-8688174D01*
X14418277Y-8688174D02*
X14437325Y-8678650D01*
X14437325Y-8678650D02*
X14475420Y-8678650D01*
X14475420Y-8678650D02*
X14494468Y-8688174D01*
X14494468Y-8688174D02*
X14503991Y-8707222D01*
X14503991Y-8707222D02*
X14503991Y-8726270D01*
X14503991Y-8726270D02*
X14408753Y-8745317D01*
X14580182Y-8802460D02*
X14599230Y-8811984D01*
X14599230Y-8811984D02*
X14637325Y-8811984D01*
X14637325Y-8811984D02*
X14656372Y-8802460D01*
X14656372Y-8802460D02*
X14665896Y-8783412D01*
X14665896Y-8783412D02*
X14665896Y-8773889D01*
X14665896Y-8773889D02*
X14656372Y-8754841D01*
X14656372Y-8754841D02*
X14637325Y-8745317D01*
X14637325Y-8745317D02*
X14608753Y-8745317D01*
X14608753Y-8745317D02*
X14589706Y-8735793D01*
X14589706Y-8735793D02*
X14580182Y-8716746D01*
X14580182Y-8716746D02*
X14580182Y-8707222D01*
X14580182Y-8707222D02*
X14589706Y-8688174D01*
X14589706Y-8688174D02*
X14608753Y-8678650D01*
X14608753Y-8678650D02*
X14637325Y-8678650D01*
X14637325Y-8678650D02*
X14656372Y-8688174D01*
X14732563Y-8888174D02*
X14742087Y-8878650D01*
X14742087Y-8878650D02*
X14761134Y-8850079D01*
X14761134Y-8850079D02*
X14770658Y-8831031D01*
X14770658Y-8831031D02*
X14780182Y-8802460D01*
X14780182Y-8802460D02*
X14789706Y-8754841D01*
X14789706Y-8754841D02*
X14789706Y-8716746D01*
X14789706Y-8716746D02*
X14780182Y-8669127D01*
X14780182Y-8669127D02*
X14770658Y-8640555D01*
X14770658Y-8640555D02*
X14761134Y-8621508D01*
X14761134Y-8621508D02*
X14742087Y-8592936D01*
X14742087Y-8592936D02*
X14732563Y-8583412D01*
D12*
X9942856Y-9019856D02*
X9942856Y-8949144D01*
X9872144Y-8949144D01*
X9872144Y-9019856D01*
X9942856Y-9019856D01*
D11*
X10323039Y-9075984D02*
X10208753Y-9075984D01*
X10265896Y-9075984D02*
X10265896Y-8875984D01*
X10265896Y-8875984D02*
X10246848Y-8904555D01*
X10246848Y-8904555D02*
X10227801Y-8923603D01*
X10227801Y-8923603D02*
X10208753Y-8933127D01*
X10408753Y-9056936D02*
X10418277Y-9066460D01*
X10418277Y-9066460D02*
X10408753Y-9075984D01*
X10408753Y-9075984D02*
X10399229Y-9066460D01*
X10399229Y-9066460D02*
X10408753Y-9056936D01*
X10408753Y-9056936D02*
X10408753Y-9075984D01*
X10542086Y-8875984D02*
X10561134Y-8875984D01*
X10561134Y-8875984D02*
X10580182Y-8885508D01*
X10580182Y-8885508D02*
X10589705Y-8895031D01*
X10589705Y-8895031D02*
X10599229Y-8914079D01*
X10599229Y-8914079D02*
X10608753Y-8952174D01*
X10608753Y-8952174D02*
X10608753Y-8999793D01*
X10608753Y-8999793D02*
X10599229Y-9037889D01*
X10599229Y-9037889D02*
X10589705Y-9056936D01*
X10589705Y-9056936D02*
X10580182Y-9066460D01*
X10580182Y-9066460D02*
X10561134Y-9075984D01*
X10561134Y-9075984D02*
X10542086Y-9075984D01*
X10542086Y-9075984D02*
X10523039Y-9066460D01*
X10523039Y-9066460D02*
X10513515Y-9056936D01*
X10513515Y-9056936D02*
X10503991Y-9037889D01*
X10503991Y-9037889D02*
X10494467Y-8999793D01*
X10494467Y-8999793D02*
X10494467Y-8952174D01*
X10494467Y-8952174D02*
X10503991Y-8914079D01*
X10503991Y-8914079D02*
X10513515Y-8895031D01*
X10513515Y-8895031D02*
X10523039Y-8885508D01*
X10523039Y-8885508D02*
X10542086Y-8875984D01*
X10732563Y-8875984D02*
X10751610Y-8875984D01*
X10751610Y-8875984D02*
X10770658Y-8885508D01*
X10770658Y-8885508D02*
X10780182Y-8895031D01*
X10780182Y-8895031D02*
X10789705Y-8914079D01*
X10789705Y-8914079D02*
X10799229Y-8952174D01*
X10799229Y-8952174D02*
X10799229Y-8999793D01*
X10799229Y-8999793D02*
X10789705Y-9037889D01*
X10789705Y-9037889D02*
X10780182Y-9056936D01*
X10780182Y-9056936D02*
X10770658Y-9066460D01*
X10770658Y-9066460D02*
X10751610Y-9075984D01*
X10751610Y-9075984D02*
X10732563Y-9075984D01*
X10732563Y-9075984D02*
X10713515Y-9066460D01*
X10713515Y-9066460D02*
X10703991Y-9056936D01*
X10703991Y-9056936D02*
X10694467Y-9037889D01*
X10694467Y-9037889D02*
X10684944Y-8999793D01*
X10684944Y-8999793D02*
X10684944Y-8952174D01*
X10684944Y-8952174D02*
X10694467Y-8914079D01*
X10694467Y-8914079D02*
X10703991Y-8895031D01*
X10703991Y-8895031D02*
X10713515Y-8885508D01*
X10713515Y-8885508D02*
X10732563Y-8875984D01*
X10923039Y-8875984D02*
X10942086Y-8875984D01*
X10942086Y-8875984D02*
X10961134Y-8885508D01*
X10961134Y-8885508D02*
X10970658Y-8895031D01*
X10970658Y-8895031D02*
X10980182Y-8914079D01*
X10980182Y-8914079D02*
X10989705Y-8952174D01*
X10989705Y-8952174D02*
X10989705Y-8999793D01*
X10989705Y-8999793D02*
X10980182Y-9037889D01*
X10980182Y-9037889D02*
X10970658Y-9056936D01*
X10970658Y-9056936D02*
X10961134Y-9066460D01*
X10961134Y-9066460D02*
X10942086Y-9075984D01*
X10942086Y-9075984D02*
X10923039Y-9075984D01*
X10923039Y-9075984D02*
X10903991Y-9066460D01*
X10903991Y-9066460D02*
X10894467Y-9056936D01*
X10894467Y-9056936D02*
X10884944Y-9037889D01*
X10884944Y-9037889D02*
X10875420Y-8999793D01*
X10875420Y-8999793D02*
X10875420Y-8952174D01*
X10875420Y-8952174D02*
X10884944Y-8914079D01*
X10884944Y-8914079D02*
X10894467Y-8895031D01*
X10894467Y-8895031D02*
X10903991Y-8885508D01*
X10903991Y-8885508D02*
X10923039Y-8875984D01*
X11075420Y-9075984D02*
X11075420Y-8942650D01*
X11075420Y-8961698D02*
X11084944Y-8952174D01*
X11084944Y-8952174D02*
X11103991Y-8942650D01*
X11103991Y-8942650D02*
X11132563Y-8942650D01*
X11132563Y-8942650D02*
X11151610Y-8952174D01*
X11151610Y-8952174D02*
X11161134Y-8971222D01*
X11161134Y-8971222D02*
X11161134Y-9075984D01*
X11161134Y-8971222D02*
X11170658Y-8952174D01*
X11170658Y-8952174D02*
X11189705Y-8942650D01*
X11189705Y-8942650D02*
X11218277Y-8942650D01*
X11218277Y-8942650D02*
X11237324Y-8952174D01*
X11237324Y-8952174D02*
X11246848Y-8971222D01*
X11246848Y-8971222D02*
X11246848Y-9075984D01*
X11342086Y-9075984D02*
X11342086Y-8942650D01*
X11342086Y-8961698D02*
X11351610Y-8952174D01*
X11351610Y-8952174D02*
X11370658Y-8942650D01*
X11370658Y-8942650D02*
X11399229Y-8942650D01*
X11399229Y-8942650D02*
X11418277Y-8952174D01*
X11418277Y-8952174D02*
X11427801Y-8971222D01*
X11427801Y-8971222D02*
X11427801Y-9075984D01*
X11427801Y-8971222D02*
X11437324Y-8952174D01*
X11437324Y-8952174D02*
X11456372Y-8942650D01*
X11456372Y-8942650D02*
X11484943Y-8942650D01*
X11484943Y-8942650D02*
X11503991Y-8952174D01*
X11503991Y-8952174D02*
X11513515Y-8971222D01*
X11513515Y-8971222D02*
X11513515Y-9075984D01*
X11903991Y-8866460D02*
X11732563Y-9123603D01*
X12161134Y-8875984D02*
X12180182Y-8875984D01*
X12180182Y-8875984D02*
X12199229Y-8885508D01*
X12199229Y-8885508D02*
X12208753Y-8895031D01*
X12208753Y-8895031D02*
X12218277Y-8914079D01*
X12218277Y-8914079D02*
X12227801Y-8952174D01*
X12227801Y-8952174D02*
X12227801Y-8999793D01*
X12227801Y-8999793D02*
X12218277Y-9037889D01*
X12218277Y-9037889D02*
X12208753Y-9056936D01*
X12208753Y-9056936D02*
X12199229Y-9066460D01*
X12199229Y-9066460D02*
X12180182Y-9075984D01*
X12180182Y-9075984D02*
X12161134Y-9075984D01*
X12161134Y-9075984D02*
X12142086Y-9066460D01*
X12142086Y-9066460D02*
X12132563Y-9056936D01*
X12132563Y-9056936D02*
X12123039Y-9037889D01*
X12123039Y-9037889D02*
X12113515Y-8999793D01*
X12113515Y-8999793D02*
X12113515Y-8952174D01*
X12113515Y-8952174D02*
X12123039Y-8914079D01*
X12123039Y-8914079D02*
X12132563Y-8895031D01*
X12132563Y-8895031D02*
X12142086Y-8885508D01*
X12142086Y-8885508D02*
X12161134Y-8875984D01*
X12313515Y-9056936D02*
X12323039Y-9066460D01*
X12323039Y-9066460D02*
X12313515Y-9075984D01*
X12313515Y-9075984D02*
X12303991Y-9066460D01*
X12303991Y-9066460D02*
X12313515Y-9056936D01*
X12313515Y-9056936D02*
X12313515Y-9075984D01*
X12446848Y-8875984D02*
X12465896Y-8875984D01*
X12465896Y-8875984D02*
X12484944Y-8885508D01*
X12484944Y-8885508D02*
X12494467Y-8895031D01*
X12494467Y-8895031D02*
X12503991Y-8914079D01*
X12503991Y-8914079D02*
X12513515Y-8952174D01*
X12513515Y-8952174D02*
X12513515Y-8999793D01*
X12513515Y-8999793D02*
X12503991Y-9037889D01*
X12503991Y-9037889D02*
X12494467Y-9056936D01*
X12494467Y-9056936D02*
X12484944Y-9066460D01*
X12484944Y-9066460D02*
X12465896Y-9075984D01*
X12465896Y-9075984D02*
X12446848Y-9075984D01*
X12446848Y-9075984D02*
X12427801Y-9066460D01*
X12427801Y-9066460D02*
X12418277Y-9056936D01*
X12418277Y-9056936D02*
X12408753Y-9037889D01*
X12408753Y-9037889D02*
X12399229Y-8999793D01*
X12399229Y-8999793D02*
X12399229Y-8952174D01*
X12399229Y-8952174D02*
X12408753Y-8914079D01*
X12408753Y-8914079D02*
X12418277Y-8895031D01*
X12418277Y-8895031D02*
X12427801Y-8885508D01*
X12427801Y-8885508D02*
X12446848Y-8875984D01*
X12580182Y-8875984D02*
X12703991Y-8875984D01*
X12703991Y-8875984D02*
X12637325Y-8952174D01*
X12637325Y-8952174D02*
X12665896Y-8952174D01*
X12665896Y-8952174D02*
X12684944Y-8961698D01*
X12684944Y-8961698D02*
X12694467Y-8971222D01*
X12694467Y-8971222D02*
X12703991Y-8990270D01*
X12703991Y-8990270D02*
X12703991Y-9037889D01*
X12703991Y-9037889D02*
X12694467Y-9056936D01*
X12694467Y-9056936D02*
X12684944Y-9066460D01*
X12684944Y-9066460D02*
X12665896Y-9075984D01*
X12665896Y-9075984D02*
X12608753Y-9075984D01*
X12608753Y-9075984D02*
X12589706Y-9066460D01*
X12589706Y-9066460D02*
X12580182Y-9056936D01*
X12799229Y-9075984D02*
X12837325Y-9075984D01*
X12837325Y-9075984D02*
X12856372Y-9066460D01*
X12856372Y-9066460D02*
X12865896Y-9056936D01*
X12865896Y-9056936D02*
X12884944Y-9028365D01*
X12884944Y-9028365D02*
X12894467Y-8990270D01*
X12894467Y-8990270D02*
X12894467Y-8914079D01*
X12894467Y-8914079D02*
X12884944Y-8895031D01*
X12884944Y-8895031D02*
X12875420Y-8885508D01*
X12875420Y-8885508D02*
X12856372Y-8875984D01*
X12856372Y-8875984D02*
X12818277Y-8875984D01*
X12818277Y-8875984D02*
X12799229Y-8885508D01*
X12799229Y-8885508D02*
X12789706Y-8895031D01*
X12789706Y-8895031D02*
X12780182Y-8914079D01*
X12780182Y-8914079D02*
X12780182Y-8961698D01*
X12780182Y-8961698D02*
X12789706Y-8980746D01*
X12789706Y-8980746D02*
X12799229Y-8990270D01*
X12799229Y-8990270D02*
X12818277Y-8999793D01*
X12818277Y-8999793D02*
X12856372Y-8999793D01*
X12856372Y-8999793D02*
X12875420Y-8990270D01*
X12875420Y-8990270D02*
X12884944Y-8980746D01*
X12884944Y-8980746D02*
X12894467Y-8961698D01*
X13065896Y-8942650D02*
X13065896Y-9075984D01*
X13018277Y-8866460D02*
X12970658Y-9009317D01*
X12970658Y-9009317D02*
X13094467Y-9009317D01*
X13161134Y-8875984D02*
X13161134Y-8914079D01*
X13237325Y-8875984D02*
X13237325Y-8914079D01*
X13532563Y-9152174D02*
X13523039Y-9142650D01*
X13523039Y-9142650D02*
X13503991Y-9114079D01*
X13503991Y-9114079D02*
X13494468Y-9095031D01*
X13494468Y-9095031D02*
X13484944Y-9066460D01*
X13484944Y-9066460D02*
X13475420Y-9018841D01*
X13475420Y-9018841D02*
X13475420Y-8980746D01*
X13475420Y-8980746D02*
X13484944Y-8933127D01*
X13484944Y-8933127D02*
X13494468Y-8904555D01*
X13494468Y-8904555D02*
X13503991Y-8885508D01*
X13503991Y-8885508D02*
X13523039Y-8856936D01*
X13523039Y-8856936D02*
X13532563Y-8847412D01*
X13713515Y-9075984D02*
X13599229Y-9075984D01*
X13656372Y-9075984D02*
X13656372Y-8875984D01*
X13656372Y-8875984D02*
X13637325Y-8904555D01*
X13637325Y-8904555D02*
X13618277Y-8923603D01*
X13618277Y-8923603D02*
X13599229Y-8933127D01*
X13884944Y-8942650D02*
X13884944Y-9075984D01*
X13837325Y-8866460D02*
X13789706Y-9009317D01*
X13789706Y-9009317D02*
X13913515Y-9009317D01*
X14142087Y-9075984D02*
X14142087Y-8875984D01*
X14227801Y-9075984D02*
X14227801Y-8971222D01*
X14227801Y-8971222D02*
X14218277Y-8952174D01*
X14218277Y-8952174D02*
X14199230Y-8942650D01*
X14199230Y-8942650D02*
X14170658Y-8942650D01*
X14170658Y-8942650D02*
X14151610Y-8952174D01*
X14151610Y-8952174D02*
X14142087Y-8961698D01*
X14351610Y-9075984D02*
X14332563Y-9066460D01*
X14332563Y-9066460D02*
X14323039Y-9056936D01*
X14323039Y-9056936D02*
X14313515Y-9037889D01*
X14313515Y-9037889D02*
X14313515Y-8980746D01*
X14313515Y-8980746D02*
X14323039Y-8961698D01*
X14323039Y-8961698D02*
X14332563Y-8952174D01*
X14332563Y-8952174D02*
X14351610Y-8942650D01*
X14351610Y-8942650D02*
X14380182Y-8942650D01*
X14380182Y-8942650D02*
X14399230Y-8952174D01*
X14399230Y-8952174D02*
X14408753Y-8961698D01*
X14408753Y-8961698D02*
X14418277Y-8980746D01*
X14418277Y-8980746D02*
X14418277Y-9037889D01*
X14418277Y-9037889D02*
X14408753Y-9056936D01*
X14408753Y-9056936D02*
X14399230Y-9066460D01*
X14399230Y-9066460D02*
X14380182Y-9075984D01*
X14380182Y-9075984D02*
X14351610Y-9075984D01*
X14532563Y-9075984D02*
X14513515Y-9066460D01*
X14513515Y-9066460D02*
X14503991Y-9047412D01*
X14503991Y-9047412D02*
X14503991Y-8875984D01*
X14684944Y-9066460D02*
X14665896Y-9075984D01*
X14665896Y-9075984D02*
X14627801Y-9075984D01*
X14627801Y-9075984D02*
X14608753Y-9066460D01*
X14608753Y-9066460D02*
X14599230Y-9047412D01*
X14599230Y-9047412D02*
X14599230Y-8971222D01*
X14599230Y-8971222D02*
X14608753Y-8952174D01*
X14608753Y-8952174D02*
X14627801Y-8942650D01*
X14627801Y-8942650D02*
X14665896Y-8942650D01*
X14665896Y-8942650D02*
X14684944Y-8952174D01*
X14684944Y-8952174D02*
X14694468Y-8971222D01*
X14694468Y-8971222D02*
X14694468Y-8990270D01*
X14694468Y-8990270D02*
X14599230Y-9009317D01*
X14770658Y-9066460D02*
X14789706Y-9075984D01*
X14789706Y-9075984D02*
X14827801Y-9075984D01*
X14827801Y-9075984D02*
X14846849Y-9066460D01*
X14846849Y-9066460D02*
X14856372Y-9047412D01*
X14856372Y-9047412D02*
X14856372Y-9037889D01*
X14856372Y-9037889D02*
X14846849Y-9018841D01*
X14846849Y-9018841D02*
X14827801Y-9009317D01*
X14827801Y-9009317D02*
X14799230Y-9009317D01*
X14799230Y-9009317D02*
X14780182Y-8999793D01*
X14780182Y-8999793D02*
X14770658Y-8980746D01*
X14770658Y-8980746D02*
X14770658Y-8971222D01*
X14770658Y-8971222D02*
X14780182Y-8952174D01*
X14780182Y-8952174D02*
X14799230Y-8942650D01*
X14799230Y-8942650D02*
X14827801Y-8942650D01*
X14827801Y-8942650D02*
X14846849Y-8952174D01*
X14923039Y-9152174D02*
X14932563Y-9142650D01*
X14932563Y-9142650D02*
X14951611Y-9114079D01*
X14951611Y-9114079D02*
X14961134Y-9095031D01*
X14961134Y-9095031D02*
X14970658Y-9066460D01*
X14970658Y-9066460D02*
X14980182Y-9018841D01*
X14980182Y-9018841D02*
X14980182Y-8980746D01*
X14980182Y-8980746D02*
X14970658Y-8933127D01*
X14970658Y-8933127D02*
X14961134Y-8904555D01*
X14961134Y-8904555D02*
X14951611Y-8885508D01*
X14951611Y-8885508D02*
X14932563Y-8856936D01*
X14932563Y-8856936D02*
X14923039Y-8847412D01*
M02*
