G04 #@! TF.GenerationSoftware,KiCad,Pcbnew,9.0.5*
G04 #@! TF.CreationDate,2025-11-30T17:39:58+01:00*
G04 #@! TF.ProjectId,mod_Steuerkreis_ESP32,6d6f645f-5374-4657-9565-726b72656973,rev?*
G04 #@! TF.SameCoordinates,Original*
G04 #@! TF.FileFunction,Copper,L1,Top*
G04 #@! TF.FilePolarity,Positive*
%FSLAX46Y46*%
G04 Gerber Fmt 4.6, Leading zero omitted, Abs format (unit mm)*
G04 Created by KiCad (PCBNEW 9.0.5) date 2025-11-30 17:39:58*
%MOMM*%
%LPD*%
G01*
G04 APERTURE LIST*
G04 Aperture macros list*
%AMRoundRect*
0 Rectangle with rounded corners*
0 $1 Rounding radius*
0 $2 $3 $4 $5 $6 $7 $8 $9 X,Y pos of 4 corners*
0 Add a 4 corners polygon primitive as box body*
4,1,4,$2,$3,$4,$5,$6,$7,$8,$9,$2,$3,0*
0 Add four circle primitives for the rounded corners*
1,1,$1+$1,$2,$3*
1,1,$1+$1,$4,$5*
1,1,$1+$1,$6,$7*
1,1,$1+$1,$8,$9*
0 Add four rect primitives between the rounded corners*
20,1,$1+$1,$2,$3,$4,$5,0*
20,1,$1+$1,$4,$5,$6,$7,0*
20,1,$1+$1,$6,$7,$8,$9,0*
20,1,$1+$1,$8,$9,$2,$3,0*%
G04 Aperture macros list end*
G04 #@! TA.AperFunction,Conductor*
%ADD10C,0.200000*%
G04 #@! TD*
G04 #@! TA.AperFunction,ComponentPad*
%ADD11C,1.348000*%
G04 #@! TD*
G04 #@! TA.AperFunction,SMDPad,CuDef*
%ADD12C,1.000000*%
G04 #@! TD*
G04 #@! TA.AperFunction,ComponentPad*
%ADD13R,1.700000X1.700000*%
G04 #@! TD*
G04 #@! TA.AperFunction,ComponentPad*
%ADD14C,1.700000*%
G04 #@! TD*
G04 #@! TA.AperFunction,ComponentPad*
%ADD15RoundRect,0.250000X-0.675000X-0.675000X0.675000X-0.675000X0.675000X0.675000X-0.675000X0.675000X0*%
G04 #@! TD*
G04 #@! TA.AperFunction,ComponentPad*
%ADD16C,1.850000*%
G04 #@! TD*
G04 #@! TA.AperFunction,SMDPad,CuDef*
%ADD17RoundRect,0.250000X0.450000X-0.350000X0.450000X0.350000X-0.450000X0.350000X-0.450000X-0.350000X0*%
G04 #@! TD*
G04 #@! TA.AperFunction,SMDPad,CuDef*
%ADD18R,1.500000X1.000000*%
G04 #@! TD*
G04 #@! TA.AperFunction,WasherPad*
%ADD19C,3.500000*%
G04 #@! TD*
G04 #@! TA.AperFunction,ViaPad*
%ADD20C,0.600000*%
G04 #@! TD*
G04 #@! TA.AperFunction,Conductor*
%ADD21C,1.000000*%
G04 #@! TD*
G04 #@! TA.AperFunction,Conductor*
%ADD22C,0.500000*%
G04 #@! TD*
G04 APERTURE END LIST*
G04 #@! TO.N,GND*
D10*
X100300000Y-40200000D02*
X129900000Y-40200000D01*
X129900000Y-74800000D01*
X100300000Y-74800000D01*
X100300000Y-40200000D01*
G04 #@! TD*
D11*
G04 #@! TO.P,U3,0,GPIO0*
G04 #@! TO.N,/GPIO0*
X122700000Y-61640000D03*
G04 #@! TO.P,U3,1,GPIO1*
G04 #@! TO.N,/GPIO1*
X122700000Y-59100000D03*
G04 #@! TO.P,U3,2,GPIO2*
G04 #@! TO.N,unconnected-(U3-GPIO2-Pad2)*
X122700000Y-56560000D03*
G04 #@! TO.P,U3,3,GPIO3*
G04 #@! TO.N,unconnected-(U3-GPIO3-Pad3)*
X122700000Y-54020000D03*
G04 #@! TO.P,U3,3.3,3V3*
G04 #@! TO.N,3V3*
X122700000Y-48940000D03*
G04 #@! TO.P,U3,4,GPIO4*
G04 #@! TO.N,unconnected-(U3-GPIO4-Pad4)*
X122700000Y-51480000D03*
G04 #@! TO.P,U3,5,GPIO5*
G04 #@! TO.N,GPIO05_Trigger_PIN2*
X107460000Y-43860000D03*
G04 #@! TO.P,U3,5V,5V*
G04 #@! TO.N,5V0*
X122700000Y-43860000D03*
G04 #@! TO.P,U3,6,GPIO6*
G04 #@! TO.N,/GPIO6*
X107460000Y-46400000D03*
G04 #@! TO.P,U3,7,GPIO7*
G04 #@! TO.N,/GPIO7*
X107460000Y-48940000D03*
G04 #@! TO.P,U3,8,GPIO8*
G04 #@! TO.N,/GPIO8*
X107460000Y-51480000D03*
G04 #@! TO.P,U3,9,GPIO9*
G04 #@! TO.N,unconnected-(U3-GPIO9-Pad9)*
X107460000Y-54020000D03*
G04 #@! TO.P,U3,10,GPIO10*
G04 #@! TO.N,GPIO10_Trigger_PIN1*
X107460000Y-56560000D03*
G04 #@! TO.P,U3,20,GPIO20*
G04 #@! TO.N,/GPIO20{slash}RXD*
X107460000Y-59100000D03*
G04 #@! TO.P,U3,21,GPIO21*
G04 #@! TO.N,/GPIO21{slash}TXD*
X107460000Y-61640000D03*
G04 #@! TO.P,U3,G,GND*
G04 #@! TO.N,GND*
X122700000Y-46400000D03*
G04 #@! TD*
D12*
G04 #@! TO.P,TP1,1,1*
G04 #@! TO.N,GND*
X111900000Y-68000000D03*
G04 #@! TD*
D13*
G04 #@! TO.P,J3,1,Pin_1*
G04 #@! TO.N,GPIO10_Trigger_PIN1*
X103100000Y-54020000D03*
D14*
G04 #@! TO.P,J3,2,Pin_2*
G04 #@! TO.N,/GPIO8*
X103100000Y-51480000D03*
G04 #@! TO.P,J3,3,Pin_3*
G04 #@! TO.N,/GPIO7*
X103100000Y-48940000D03*
G04 #@! TO.P,J3,4,Pin_4*
G04 #@! TO.N,/GPIO6*
X103100000Y-46400000D03*
G04 #@! TO.P,J3,5,Pin_5*
G04 #@! TO.N,/GPIO1*
X103100000Y-43860000D03*
G04 #@! TD*
D15*
G04 #@! TO.P,J1,1,Pin_1*
G04 #@! TO.N,GPIO10_Trigger_PIN1*
X102600000Y-72000000D03*
D16*
G04 #@! TO.P,J1,2,Pin_2*
G04 #@! TO.N,GPIO05_Trigger_PIN2*
X106100000Y-72000000D03*
G04 #@! TO.P,J1,3,Pin_3*
G04 #@! TO.N,GND*
X109600000Y-72000000D03*
G04 #@! TO.P,J1,4,Pin_4*
G04 #@! TO.N,5V0*
X113200000Y-72000000D03*
G04 #@! TO.P,J1,5,Pin_5*
G04 #@! TO.N,3V3*
X116600000Y-72000000D03*
G04 #@! TD*
D12*
G04 #@! TO.P,TP4,1,1*
G04 #@! TO.N,GPIO05_Trigger_PIN2*
X109200000Y-68000000D03*
G04 #@! TD*
D17*
G04 #@! TO.P,R4,1*
G04 #@! TO.N,Net-(JP1-B)*
X126200000Y-68900000D03*
G04 #@! TO.P,R4,2*
G04 #@! TO.N,3V3*
X126200000Y-66900000D03*
G04 #@! TD*
G04 #@! TO.P,R3,1*
G04 #@! TO.N,Net-(JP2-B)*
X123250000Y-68900000D03*
G04 #@! TO.P,R3,2*
G04 #@! TO.N,3V3*
X123250000Y-66900000D03*
G04 #@! TD*
D18*
G04 #@! TO.P,JP2,1,A*
G04 #@! TO.N,/GPIO0*
X123300000Y-72950000D03*
G04 #@! TO.P,JP2,2,B*
G04 #@! TO.N,Net-(JP2-B)*
X123300000Y-71650000D03*
G04 #@! TD*
D12*
G04 #@! TO.P,TP2,1,1*
G04 #@! TO.N,5V0*
X114600000Y-68000000D03*
G04 #@! TD*
G04 #@! TO.P,TP3,1,1*
G04 #@! TO.N,3V3*
X117300000Y-67800000D03*
G04 #@! TD*
D19*
G04 #@! TO.P,MH,*
G04 #@! TO.N,*
X102800000Y-68100000D03*
G04 #@! TD*
D18*
G04 #@! TO.P,JP1,1,A*
G04 #@! TO.N,/GPIO1*
X126400000Y-72950000D03*
G04 #@! TO.P,JP1,2,B*
G04 #@! TO.N,Net-(JP1-B)*
X126400000Y-71650000D03*
G04 #@! TD*
D13*
G04 #@! TO.P,J6,1,Pin_1*
G04 #@! TO.N,3V3*
X127000000Y-59850000D03*
D14*
G04 #@! TO.P,J6,2,Pin_2*
X127000000Y-57310000D03*
G04 #@! TO.P,J6,3,Pin_3*
G04 #@! TO.N,GND*
X127000000Y-54770000D03*
G04 #@! TO.P,J6,4,Pin_4*
X127000000Y-52230000D03*
G04 #@! TO.P,J6,5,Pin_5*
G04 #@! TO.N,5V0*
X127000000Y-49690000D03*
G04 #@! TO.P,J6,6,Pin_6*
X127000000Y-47150000D03*
G04 #@! TD*
D12*
G04 #@! TO.P,TP5,1,1*
G04 #@! TO.N,GPIO10_Trigger_PIN1*
X106500000Y-67800000D03*
G04 #@! TD*
D19*
G04 #@! TO.P,MH,*
G04 #@! TO.N,*
X127500000Y-42900000D03*
G04 #@! TD*
D13*
G04 #@! TO.P,J7,1,Pin_1*
G04 #@! TO.N,/GPIO0*
X103200000Y-64180000D03*
D14*
G04 #@! TO.P,J7,2,Pin_2*
G04 #@! TO.N,/GPIO21{slash}TXD*
X103200000Y-61640000D03*
G04 #@! TO.P,J7,3,Pin_3*
G04 #@! TO.N,/GPIO20{slash}RXD*
X103200000Y-59100000D03*
G04 #@! TD*
D20*
G04 #@! TO.N,3V3*
X116000000Y-69600000D03*
X124800000Y-66900000D03*
G04 #@! TO.N,GPIO10_Trigger_PIN1*
X106600000Y-69850000D03*
G04 #@! TO.N,5V0*
X114000000Y-69700000D03*
G04 #@! TO.N,GPIO05_Trigger_PIN2*
X110000000Y-69800000D03*
G04 #@! TO.N,GND*
X113400000Y-46400000D03*
X112000000Y-69800000D03*
G04 #@! TO.N,/GPIO1*
X111200000Y-45400000D03*
X125700000Y-63400000D03*
X127800000Y-72500000D03*
G04 #@! TO.N,/GPIO0*
X124800000Y-73200000D03*
X119400000Y-70400000D03*
G04 #@! TD*
D21*
G04 #@! TO.N,3V3*
X124800000Y-56700000D02*
X125410000Y-57310000D01*
D22*
X123250000Y-66900000D02*
X124800000Y-66900000D01*
D10*
X122700000Y-48940000D02*
X122700000Y-49200000D01*
D21*
X116000000Y-69600000D02*
X116000000Y-69100000D01*
X116000000Y-69100000D02*
X117300000Y-67800000D01*
X125410000Y-57310000D02*
X127000000Y-57310000D01*
X127000000Y-57310000D02*
X127000000Y-59850000D01*
D22*
X126200000Y-66900000D02*
X124800000Y-66900000D01*
D21*
X124800000Y-51040000D02*
X124800000Y-56700000D01*
X122700000Y-48940000D02*
X124800000Y-51040000D01*
D22*
G04 #@! TO.N,GPIO10_Trigger_PIN1*
X106600000Y-69850000D02*
X106600000Y-67900000D01*
X106600000Y-67900000D02*
X106500000Y-67800000D01*
D21*
G04 #@! TO.N,5V0*
X114000000Y-69700000D02*
X114000000Y-68600000D01*
X114000000Y-68600000D02*
X114600000Y-68000000D01*
D22*
G04 #@! TO.N,GPIO05_Trigger_PIN2*
X110000000Y-68800000D02*
X109200000Y-68000000D01*
X110000000Y-69800000D02*
X110000000Y-68800000D01*
D21*
G04 #@! TO.N,GND*
X113400000Y-46400000D02*
X122700000Y-46400000D01*
X112000000Y-68100000D02*
X111900000Y-68000000D01*
X112000000Y-69800000D02*
X112000000Y-68100000D01*
D22*
G04 #@! TO.N,/GPIO1*
X111200000Y-47600000D02*
X122700000Y-59100000D01*
X111200000Y-45400000D02*
X111200000Y-47600000D01*
X127350000Y-72950000D02*
X127800000Y-72500000D01*
X122700000Y-59100000D02*
X124600000Y-61000000D01*
X124600000Y-62300000D02*
X125700000Y-63400000D01*
X124600000Y-61000000D02*
X124600000Y-62300000D01*
X126400000Y-72950000D02*
X127350000Y-72950000D01*
G04 #@! TO.N,/GPIO0*
X118780000Y-64180000D02*
X119400000Y-64800000D01*
X119400000Y-70000000D02*
X119400000Y-70400000D01*
X123550000Y-73200000D02*
X123300000Y-72950000D01*
X118500000Y-64180000D02*
X120160000Y-64180000D01*
X120160000Y-64180000D02*
X122700000Y-61640000D01*
X103200000Y-64180000D02*
X118500000Y-64180000D01*
D10*
X118500000Y-64180000D02*
X118780000Y-64180000D01*
D22*
X124800000Y-73200000D02*
X123550000Y-73200000D01*
X119400000Y-64800000D02*
X119400000Y-70000000D01*
G04 #@! TO.N,Net-(JP1-B)*
X126200000Y-68900000D02*
X126200000Y-71450000D01*
D10*
X126200000Y-71450000D02*
X126400000Y-71650000D01*
G04 #@! TO.N,Net-(JP2-B)*
X123250000Y-71600000D02*
X123300000Y-71650000D01*
D22*
X123250000Y-68900000D02*
X123250000Y-71600000D01*
G04 #@! TD*
M02*
