G04 #@! TF.GenerationSoftware,KiCad,Pcbnew,9.0.5*
G04 #@! TF.CreationDate,2025-11-30T17:39:58+01:00*
G04 #@! TF.ProjectId,mod_Steuerkreis_ESP32,6d6f645f-5374-4657-9565-726b72656973,rev?*
G04 #@! TF.SameCoordinates,Original*
G04 #@! TF.FileFunction,Copper,L2,Bot*
G04 #@! TF.FilePolarity,Positive*
%FSLAX46Y46*%
G04 Gerber Fmt 4.6, Leading zero omitted, Abs format (unit mm)*
G04 Created by KiCad (PCBNEW 9.0.5) date 2025-11-30 17:39:58*
%MOMM*%
%LPD*%
G01*
G04 APERTURE LIST*
G04 Aperture macros list*
%AMRoundRect*
0 Rectangle with rounded corners*
0 $1 Rounding radius*
0 $2 $3 $4 $5 $6 $7 $8 $9 X,Y pos of 4 corners*
0 Add a 4 corners polygon primitive as box body*
4,1,4,$2,$3,$4,$5,$6,$7,$8,$9,$2,$3,0*
0 Add four circle primitives for the rounded corners*
1,1,$1+$1,$2,$3*
1,1,$1+$1,$4,$5*
1,1,$1+$1,$6,$7*
1,1,$1+$1,$8,$9*
0 Add four rect primitives between the rounded corners*
20,1,$1+$1,$2,$3,$4,$5,0*
20,1,$1+$1,$4,$5,$6,$7,0*
20,1,$1+$1,$6,$7,$8,$9,0*
20,1,$1+$1,$8,$9,$2,$3,0*%
G04 Aperture macros list end*
G04 #@! TA.AperFunction,Conductor*
%ADD10C,0.200000*%
G04 #@! TD*
G04 #@! TA.AperFunction,ComponentPad*
%ADD11C,1.348000*%
G04 #@! TD*
G04 #@! TA.AperFunction,ComponentPad*
%ADD12R,1.700000X1.700000*%
G04 #@! TD*
G04 #@! TA.AperFunction,ComponentPad*
%ADD13C,1.700000*%
G04 #@! TD*
G04 #@! TA.AperFunction,ComponentPad*
%ADD14RoundRect,0.250000X-0.675000X-0.675000X0.675000X-0.675000X0.675000X0.675000X-0.675000X0.675000X0*%
G04 #@! TD*
G04 #@! TA.AperFunction,ComponentPad*
%ADD15C,1.850000*%
G04 #@! TD*
G04 #@! TA.AperFunction,WasherPad*
%ADD16C,3.500000*%
G04 #@! TD*
G04 #@! TA.AperFunction,ViaPad*
%ADD17C,0.600000*%
G04 #@! TD*
G04 #@! TA.AperFunction,Conductor*
%ADD18C,0.500000*%
G04 #@! TD*
G04 #@! TA.AperFunction,Conductor*
%ADD19C,1.000000*%
G04 #@! TD*
G04 APERTURE END LIST*
G04 #@! TO.N,GND*
D10*
X100300000Y-40200000D02*
X129900000Y-40200000D01*
X129900000Y-74800000D01*
X100300000Y-74800000D01*
X100300000Y-40200000D01*
G04 #@! TD*
D11*
G04 #@! TO.P,U3,0,GPIO0*
G04 #@! TO.N,/GPIO0*
X122700000Y-61640000D03*
G04 #@! TO.P,U3,1,GPIO1*
G04 #@! TO.N,/GPIO1*
X122700000Y-59100000D03*
G04 #@! TO.P,U3,2,GPIO2*
G04 #@! TO.N,unconnected-(U3-GPIO2-Pad2)*
X122700000Y-56560000D03*
G04 #@! TO.P,U3,3,GPIO3*
G04 #@! TO.N,unconnected-(U3-GPIO3-Pad3)*
X122700000Y-54020000D03*
G04 #@! TO.P,U3,3.3,3V3*
G04 #@! TO.N,3V3*
X122700000Y-48940000D03*
G04 #@! TO.P,U3,4,GPIO4*
G04 #@! TO.N,unconnected-(U3-GPIO4-Pad4)*
X122700000Y-51480000D03*
G04 #@! TO.P,U3,5,GPIO5*
G04 #@! TO.N,GPIO05_Trigger_PIN2*
X107460000Y-43860000D03*
G04 #@! TO.P,U3,5V,5V*
G04 #@! TO.N,5V0*
X122700000Y-43860000D03*
G04 #@! TO.P,U3,6,GPIO6*
G04 #@! TO.N,/GPIO6*
X107460000Y-46400000D03*
G04 #@! TO.P,U3,7,GPIO7*
G04 #@! TO.N,/GPIO7*
X107460000Y-48940000D03*
G04 #@! TO.P,U3,8,GPIO8*
G04 #@! TO.N,/GPIO8*
X107460000Y-51480000D03*
G04 #@! TO.P,U3,9,GPIO9*
G04 #@! TO.N,unconnected-(U3-GPIO9-Pad9)*
X107460000Y-54020000D03*
G04 #@! TO.P,U3,10,GPIO10*
G04 #@! TO.N,GPIO10_Trigger_PIN1*
X107460000Y-56560000D03*
G04 #@! TO.P,U3,20,GPIO20*
G04 #@! TO.N,/GPIO20{slash}RXD*
X107460000Y-59100000D03*
G04 #@! TO.P,U3,21,GPIO21*
G04 #@! TO.N,/GPIO21{slash}TXD*
X107460000Y-61640000D03*
G04 #@! TO.P,U3,G,GND*
G04 #@! TO.N,GND*
X122700000Y-46400000D03*
G04 #@! TD*
D12*
G04 #@! TO.P,J3,1,Pin_1*
G04 #@! TO.N,GPIO10_Trigger_PIN1*
X103100000Y-54020000D03*
D13*
G04 #@! TO.P,J3,2,Pin_2*
G04 #@! TO.N,/GPIO8*
X103100000Y-51480000D03*
G04 #@! TO.P,J3,3,Pin_3*
G04 #@! TO.N,/GPIO7*
X103100000Y-48940000D03*
G04 #@! TO.P,J3,4,Pin_4*
G04 #@! TO.N,/GPIO6*
X103100000Y-46400000D03*
G04 #@! TO.P,J3,5,Pin_5*
G04 #@! TO.N,/GPIO1*
X103100000Y-43860000D03*
G04 #@! TD*
D14*
G04 #@! TO.P,J1,1,Pin_1*
G04 #@! TO.N,GPIO10_Trigger_PIN1*
X102600000Y-72000000D03*
D15*
G04 #@! TO.P,J1,2,Pin_2*
G04 #@! TO.N,GPIO05_Trigger_PIN2*
X106100000Y-72000000D03*
G04 #@! TO.P,J1,3,Pin_3*
G04 #@! TO.N,GND*
X109600000Y-72000000D03*
G04 #@! TO.P,J1,4,Pin_4*
G04 #@! TO.N,5V0*
X113200000Y-72000000D03*
G04 #@! TO.P,J1,5,Pin_5*
G04 #@! TO.N,3V3*
X116600000Y-72000000D03*
G04 #@! TD*
D16*
G04 #@! TO.P,MH,*
G04 #@! TO.N,*
X102800000Y-68100000D03*
G04 #@! TD*
D12*
G04 #@! TO.P,J6,1,Pin_1*
G04 #@! TO.N,3V3*
X127000000Y-59850000D03*
D13*
G04 #@! TO.P,J6,2,Pin_2*
X127000000Y-57310000D03*
G04 #@! TO.P,J6,3,Pin_3*
G04 #@! TO.N,GND*
X127000000Y-54770000D03*
G04 #@! TO.P,J6,4,Pin_4*
X127000000Y-52230000D03*
G04 #@! TO.P,J6,5,Pin_5*
G04 #@! TO.N,5V0*
X127000000Y-49690000D03*
G04 #@! TO.P,J6,6,Pin_6*
X127000000Y-47150000D03*
G04 #@! TD*
D16*
G04 #@! TO.P,MH,*
G04 #@! TO.N,*
X127500000Y-42900000D03*
G04 #@! TD*
D12*
G04 #@! TO.P,J7,1,Pin_1*
G04 #@! TO.N,/GPIO0*
X103200000Y-64180000D03*
D13*
G04 #@! TO.P,J7,2,Pin_2*
G04 #@! TO.N,/GPIO21{slash}TXD*
X103200000Y-61640000D03*
G04 #@! TO.P,J7,3,Pin_3*
G04 #@! TO.N,/GPIO20{slash}RXD*
X103200000Y-59100000D03*
G04 #@! TD*
D17*
G04 #@! TO.N,3V3*
X116000000Y-69600000D03*
X124800000Y-66900000D03*
G04 #@! TO.N,GPIO10_Trigger_PIN1*
X106600000Y-69850000D03*
G04 #@! TO.N,5V0*
X114000000Y-69700000D03*
G04 #@! TO.N,GPIO05_Trigger_PIN2*
X110000000Y-69800000D03*
G04 #@! TO.N,GND*
X113400000Y-46400000D03*
X112000000Y-69800000D03*
G04 #@! TO.N,/GPIO1*
X111200000Y-45400000D03*
X125700000Y-63400000D03*
X127800000Y-72500000D03*
G04 #@! TO.N,/GPIO0*
X124800000Y-73200000D03*
X119400000Y-70400000D03*
G04 #@! TD*
D18*
G04 #@! TO.N,3V3*
X127000000Y-60940000D02*
X127000000Y-59850000D01*
X124800000Y-63140000D02*
X127000000Y-60940000D01*
D19*
X122700000Y-48940000D02*
X116000000Y-55640000D01*
X116000000Y-55640000D02*
X116000000Y-69600000D01*
X116000000Y-71400000D02*
X116600000Y-72000000D01*
D18*
X124800000Y-66900000D02*
X124800000Y-63140000D01*
D19*
X116000000Y-69600000D02*
X116000000Y-71400000D01*
D18*
G04 #@! TO.N,GPIO10_Trigger_PIN1*
X108000000Y-69850000D02*
X107200000Y-69850000D01*
X109100000Y-58200000D02*
X109100000Y-66300000D01*
X107460000Y-56560000D02*
X109100000Y-58200000D01*
X107200000Y-69850000D02*
X106600000Y-69850000D01*
X109100000Y-66300000D02*
X108000000Y-67400000D01*
X103050000Y-72000000D02*
X102200000Y-72000000D01*
X107200000Y-69850000D02*
X105650000Y-69850000D01*
X104920000Y-54020000D02*
X107460000Y-56560000D01*
X105650000Y-69850000D02*
X103500000Y-72000000D01*
X103100000Y-54020000D02*
X104920000Y-54020000D01*
X108000000Y-67400000D02*
X108000000Y-69850000D01*
X103500000Y-72000000D02*
X102600000Y-72000000D01*
D19*
G04 #@! TO.N,5V0*
X114000000Y-69700000D02*
X114000000Y-71200000D01*
X123710000Y-43860000D02*
X127000000Y-47150000D01*
X114000000Y-71200000D02*
X113200000Y-72000000D01*
X114000000Y-69700000D02*
X114000000Y-50100000D01*
X122700000Y-43860000D02*
X123710000Y-43860000D01*
X127000000Y-47150000D02*
X127000000Y-49690000D01*
X120240000Y-43860000D02*
X122700000Y-43860000D01*
X114000000Y-50100000D02*
X120240000Y-43860000D01*
D18*
G04 #@! TO.N,GPIO05_Trigger_PIN2*
X109400000Y-69800000D02*
X107200000Y-72000000D01*
X110000000Y-69800000D02*
X109400000Y-69800000D01*
X110000000Y-69800000D02*
X110000000Y-69850000D01*
X107200000Y-72000000D02*
X106100000Y-72000000D01*
X110000000Y-46400000D02*
X110000000Y-69800000D01*
X107460000Y-43860000D02*
X110000000Y-46400000D01*
D19*
G04 #@! TO.N,GND*
X127000000Y-52230000D02*
X124800000Y-50030000D01*
X123500000Y-47200000D02*
X122700000Y-46400000D01*
X111300000Y-70300000D02*
X109600000Y-72000000D01*
X112000000Y-70300000D02*
X111300000Y-70300000D01*
X112000000Y-69800000D02*
X112000000Y-70300000D01*
X127000000Y-52230000D02*
X127000000Y-54770000D01*
X113400000Y-46400000D02*
X112000000Y-47800000D01*
X124800000Y-50030000D02*
X124800000Y-47200000D01*
X112000000Y-47800000D02*
X112000000Y-69800000D01*
X124800000Y-47200000D02*
X123500000Y-47200000D01*
D18*
G04 #@! TO.N,/GPIO8*
X103100000Y-51480000D02*
X107460000Y-51480000D01*
G04 #@! TO.N,/GPIO6*
X103100000Y-46400000D02*
X107460000Y-46400000D01*
G04 #@! TO.N,/GPIO7*
X103100000Y-48940000D02*
X107460000Y-48940000D01*
G04 #@! TO.N,/GPIO1*
X103100000Y-43860000D02*
X104560000Y-42400000D01*
X125700000Y-63400000D02*
X127800000Y-65500000D01*
X104560000Y-42400000D02*
X108900000Y-42400000D01*
X108900000Y-42400000D02*
X111200000Y-44700000D01*
X127800000Y-65500000D02*
X127800000Y-72500000D01*
X111200000Y-44700000D02*
X111200000Y-45400000D01*
G04 #@! TO.N,/GPIO21{slash}TXD*
X103200000Y-61640000D02*
X107460000Y-61640000D01*
G04 #@! TO.N,/GPIO0*
X123300000Y-71700000D02*
X124800000Y-73200000D01*
X120700000Y-71700000D02*
X123300000Y-71700000D01*
X119400000Y-70400000D02*
X120700000Y-71700000D01*
G04 #@! TO.N,/GPIO20{slash}RXD*
X103200000Y-59100000D02*
X107460000Y-59100000D01*
G04 #@! TD*
M02*
