M48
; DRILL file {KiCad 9.0.5} date 2025-11-30T17:39:58+0100
; FORMAT={-:-/ absolute / metric / decimal}
; #@! TF.CreationDate,2025-11-30T17:39:58+01:00
; #@! TF.GenerationSoftware,Kicad,Pcbnew,9.0.5
; #@! TF.FileFunction,Plated,1,2,PTH
FMAT,2
METRIC
; #@! TA.AperFunction,Plated,PTH,ViaDrill
T1C0.300
; #@! TA.AperFunction,Plated,PTH,ComponentDrill
T2C0.840
; #@! TA.AperFunction,Plated,PTH,ComponentDrill
T3C0.850
; #@! TA.AperFunction,Plated,PTH,ComponentDrill
T4C1.000
%
G90
G05
T1
X106.6Y-69.85
X110.0Y-69.8
X111.2Y-45.4
X112.0Y-69.8
X113.4Y-46.4
X114.0Y-69.7
X116.0Y-69.6
X119.4Y-70.4
X124.8Y-66.9
X124.8Y-73.2
X125.7Y-63.4
X127.8Y-72.5
T2
X107.46Y-43.86
X107.46Y-46.4
X107.46Y-48.94
X107.46Y-51.48
X107.46Y-54.02
X107.46Y-56.56
X107.46Y-59.1
X107.46Y-61.64
X122.7Y-43.86
X122.7Y-46.4
X122.7Y-48.94
X122.7Y-51.48
X122.7Y-54.02
X122.7Y-56.56
X122.7Y-59.1
X122.7Y-61.64
T3
X102.6Y-72.0
X106.1Y-72.0
X109.6Y-72.0
X113.2Y-72.0
X116.6Y-72.0
T4
X103.1Y-43.86
X103.1Y-46.4
X103.1Y-48.94
X103.1Y-51.48
X103.1Y-54.02
X103.2Y-59.1
X103.2Y-61.64
X103.2Y-64.18
X127.0Y-47.15
X127.0Y-49.69
X127.0Y-52.23
X127.0Y-54.77
X127.0Y-57.31
X127.0Y-59.85
M30
