G04 #@! TF.GenerationSoftware,KiCad,Pcbnew,9.0.5*
G04 #@! TF.CreationDate,2025-11-30T17:39:58+01:00*
G04 #@! TF.ProjectId,mod_Steuerkreis_ESP32,6d6f645f-5374-4657-9565-726b72656973,rev?*
G04 #@! TF.SameCoordinates,Original*
G04 #@! TF.FileFunction,Legend,Top*
G04 #@! TF.FilePolarity,Positive*
%FSLAX46Y46*%
G04 Gerber Fmt 4.6, Leading zero omitted, Abs format (unit mm)*
G04 Created by KiCad (PCBNEW 9.0.5) date 2025-11-30 17:39:58*
%MOMM*%
%LPD*%
G01*
G04 APERTURE LIST*
G04 Aperture macros list*
%AMRoundRect*
0 Rectangle with rounded corners*
0 $1 Rounding radius*
0 $2 $3 $4 $5 $6 $7 $8 $9 X,Y pos of 4 corners*
0 Add a 4 corners polygon primitive as box body*
4,1,4,$2,$3,$4,$5,$6,$7,$8,$9,$2,$3,0*
0 Add four circle primitives for the rounded corners*
1,1,$1+$1,$2,$3*
1,1,$1+$1,$4,$5*
1,1,$1+$1,$6,$7*
1,1,$1+$1,$8,$9*
0 Add four rect primitives between the rounded corners*
20,1,$1+$1,$2,$3,$4,$5,0*
20,1,$1+$1,$4,$5,$6,$7,0*
20,1,$1+$1,$6,$7,$8,$9,0*
20,1,$1+$1,$8,$9,$2,$3,0*%
G04 Aperture macros list end*
%ADD10C,0.100000*%
%ADD11C,0.062500*%
%ADD12C,0.125000*%
%ADD13C,0.150000*%
%ADD14C,0.075000*%
%ADD15C,0.127000*%
%ADD16C,0.120000*%
%ADD17C,1.552000*%
%ADD18C,1.000000*%
%ADD19R,1.700000X1.700000*%
%ADD20C,1.700000*%
%ADD21RoundRect,0.250000X-0.675000X-0.675000X0.675000X-0.675000X0.675000X0.675000X-0.675000X0.675000X0*%
%ADD22C,1.850000*%
%ADD23RoundRect,0.250000X0.450000X-0.350000X0.450000X0.350000X-0.450000X0.350000X-0.450000X-0.350000X0*%
%ADD24R,1.500000X1.000000*%
%ADD25C,3.500000*%
G04 APERTURE END LIST*
D10*
X120100000Y-72000000D02*
X120100000Y-74300000D01*
X120100000Y-70000000D02*
X120100000Y-71400000D01*
X120100000Y-72000000D02*
X120100000Y-71400000D01*
X120100000Y-70000000D02*
X120100000Y-65600000D01*
X128800000Y-65600000D02*
X120200000Y-65600000D01*
X120100000Y-65600000D02*
X120200000Y-65600000D01*
X120100000Y-74300000D02*
X128800000Y-74300000D01*
X128800000Y-74300000D02*
X128800000Y-65600000D01*
X100300000Y-40200000D02*
X129900000Y-40200000D01*
X129900000Y-74800000D01*
X100300000Y-74800000D01*
X100300000Y-40200000D01*
D11*
X127574451Y-67907702D02*
X127574451Y-68574369D01*
X127455403Y-67526750D02*
X127336356Y-68241035D01*
X127336356Y-68241035D02*
X127645879Y-68241035D01*
X127836355Y-68574369D02*
X127836355Y-67574369D01*
X128122069Y-68574369D02*
X127907784Y-68002940D01*
X128122069Y-67574369D02*
X127836355Y-68145797D01*
X128288736Y-67574369D02*
X128622069Y-67574369D01*
X128622069Y-67574369D02*
X128407784Y-68574369D01*
D12*
X111529855Y-55865936D02*
X111491759Y-55913556D01*
X111491759Y-55913556D02*
X111377474Y-55961175D01*
X111377474Y-55961175D02*
X111301283Y-55961175D01*
X111301283Y-55961175D02*
X111186997Y-55913556D01*
X111186997Y-55913556D02*
X111110807Y-55818317D01*
X111110807Y-55818317D02*
X111072712Y-55723079D01*
X111072712Y-55723079D02*
X111034616Y-55532603D01*
X111034616Y-55532603D02*
X111034616Y-55389746D01*
X111034616Y-55389746D02*
X111072712Y-55199270D01*
X111072712Y-55199270D02*
X111110807Y-55104032D01*
X111110807Y-55104032D02*
X111186997Y-55008794D01*
X111186997Y-55008794D02*
X111301283Y-54961175D01*
X111301283Y-54961175D02*
X111377474Y-54961175D01*
X111377474Y-54961175D02*
X111491759Y-55008794D01*
X111491759Y-55008794D02*
X111529855Y-55056413D01*
X112215569Y-55961175D02*
X112215569Y-55437365D01*
X112215569Y-55437365D02*
X112177474Y-55342127D01*
X112177474Y-55342127D02*
X112101283Y-55294508D01*
X112101283Y-55294508D02*
X111948902Y-55294508D01*
X111948902Y-55294508D02*
X111872712Y-55342127D01*
X112215569Y-55913556D02*
X112139378Y-55961175D01*
X112139378Y-55961175D02*
X111948902Y-55961175D01*
X111948902Y-55961175D02*
X111872712Y-55913556D01*
X111872712Y-55913556D02*
X111834616Y-55818317D01*
X111834616Y-55818317D02*
X111834616Y-55723079D01*
X111834616Y-55723079D02*
X111872712Y-55627841D01*
X111872712Y-55627841D02*
X111948902Y-55580222D01*
X111948902Y-55580222D02*
X112139378Y-55580222D01*
X112139378Y-55580222D02*
X112215569Y-55532603D01*
X112939379Y-55294508D02*
X112939379Y-55961175D01*
X112596522Y-55294508D02*
X112596522Y-55818317D01*
X112596522Y-55818317D02*
X112634617Y-55913556D01*
X112634617Y-55913556D02*
X112710807Y-55961175D01*
X112710807Y-55961175D02*
X112825093Y-55961175D01*
X112825093Y-55961175D02*
X112901284Y-55913556D01*
X112901284Y-55913556D02*
X112939379Y-55865936D01*
X113206046Y-55294508D02*
X113510808Y-55294508D01*
X113320332Y-54961175D02*
X113320332Y-55818317D01*
X113320332Y-55818317D02*
X113358427Y-55913556D01*
X113358427Y-55913556D02*
X113434617Y-55961175D01*
X113434617Y-55961175D02*
X113510808Y-55961175D01*
X113777475Y-55961175D02*
X113777475Y-55294508D01*
X113777475Y-54961175D02*
X113739379Y-55008794D01*
X113739379Y-55008794D02*
X113777475Y-55056413D01*
X113777475Y-55056413D02*
X113815570Y-55008794D01*
X113815570Y-55008794D02*
X113777475Y-54961175D01*
X113777475Y-54961175D02*
X113777475Y-55056413D01*
X114272712Y-55961175D02*
X114196522Y-55913556D01*
X114196522Y-55913556D02*
X114158427Y-55865936D01*
X114158427Y-55865936D02*
X114120331Y-55770698D01*
X114120331Y-55770698D02*
X114120331Y-55484984D01*
X114120331Y-55484984D02*
X114158427Y-55389746D01*
X114158427Y-55389746D02*
X114196522Y-55342127D01*
X114196522Y-55342127D02*
X114272712Y-55294508D01*
X114272712Y-55294508D02*
X114386998Y-55294508D01*
X114386998Y-55294508D02*
X114463189Y-55342127D01*
X114463189Y-55342127D02*
X114501284Y-55389746D01*
X114501284Y-55389746D02*
X114539379Y-55484984D01*
X114539379Y-55484984D02*
X114539379Y-55770698D01*
X114539379Y-55770698D02*
X114501284Y-55865936D01*
X114501284Y-55865936D02*
X114463189Y-55913556D01*
X114463189Y-55913556D02*
X114386998Y-55961175D01*
X114386998Y-55961175D02*
X114272712Y-55961175D01*
X114882237Y-55294508D02*
X114882237Y-55961175D01*
X114882237Y-55389746D02*
X114920332Y-55342127D01*
X114920332Y-55342127D02*
X114996522Y-55294508D01*
X114996522Y-55294508D02*
X115110808Y-55294508D01*
X115110808Y-55294508D02*
X115186999Y-55342127D01*
X115186999Y-55342127D02*
X115225094Y-55437365D01*
X115225094Y-55437365D02*
X115225094Y-55961175D01*
X115606047Y-55865936D02*
X115644142Y-55913556D01*
X115644142Y-55913556D02*
X115606047Y-55961175D01*
X115606047Y-55961175D02*
X115567951Y-55913556D01*
X115567951Y-55913556D02*
X115606047Y-55865936D01*
X115606047Y-55865936D02*
X115606047Y-55961175D01*
X115606047Y-55342127D02*
X115644142Y-55389746D01*
X115644142Y-55389746D02*
X115606047Y-55437365D01*
X115606047Y-55437365D02*
X115567951Y-55389746D01*
X115567951Y-55389746D02*
X115606047Y-55342127D01*
X115606047Y-55342127D02*
X115606047Y-55437365D01*
X111529855Y-57475880D02*
X111491759Y-57523500D01*
X111491759Y-57523500D02*
X111377474Y-57571119D01*
X111377474Y-57571119D02*
X111301283Y-57571119D01*
X111301283Y-57571119D02*
X111186997Y-57523500D01*
X111186997Y-57523500D02*
X111110807Y-57428261D01*
X111110807Y-57428261D02*
X111072712Y-57333023D01*
X111072712Y-57333023D02*
X111034616Y-57142547D01*
X111034616Y-57142547D02*
X111034616Y-56999690D01*
X111034616Y-56999690D02*
X111072712Y-56809214D01*
X111072712Y-56809214D02*
X111110807Y-56713976D01*
X111110807Y-56713976D02*
X111186997Y-56618738D01*
X111186997Y-56618738D02*
X111301283Y-56571119D01*
X111301283Y-56571119D02*
X111377474Y-56571119D01*
X111377474Y-56571119D02*
X111491759Y-56618738D01*
X111491759Y-56618738D02*
X111529855Y-56666357D01*
X111986997Y-57571119D02*
X111910807Y-57523500D01*
X111910807Y-57523500D02*
X111872712Y-57475880D01*
X111872712Y-57475880D02*
X111834616Y-57380642D01*
X111834616Y-57380642D02*
X111834616Y-57094928D01*
X111834616Y-57094928D02*
X111872712Y-56999690D01*
X111872712Y-56999690D02*
X111910807Y-56952071D01*
X111910807Y-56952071D02*
X111986997Y-56904452D01*
X111986997Y-56904452D02*
X112101283Y-56904452D01*
X112101283Y-56904452D02*
X112177474Y-56952071D01*
X112177474Y-56952071D02*
X112215569Y-56999690D01*
X112215569Y-56999690D02*
X112253664Y-57094928D01*
X112253664Y-57094928D02*
X112253664Y-57380642D01*
X112253664Y-57380642D02*
X112215569Y-57475880D01*
X112215569Y-57475880D02*
X112177474Y-57523500D01*
X112177474Y-57523500D02*
X112101283Y-57571119D01*
X112101283Y-57571119D02*
X111986997Y-57571119D01*
X112596522Y-56904452D02*
X112596522Y-57571119D01*
X112596522Y-56999690D02*
X112634617Y-56952071D01*
X112634617Y-56952071D02*
X112710807Y-56904452D01*
X112710807Y-56904452D02*
X112825093Y-56904452D01*
X112825093Y-56904452D02*
X112901284Y-56952071D01*
X112901284Y-56952071D02*
X112939379Y-57047309D01*
X112939379Y-57047309D02*
X112939379Y-57571119D01*
X113206046Y-56904452D02*
X113510808Y-56904452D01*
X113320332Y-56571119D02*
X113320332Y-57428261D01*
X113320332Y-57428261D02*
X113358427Y-57523500D01*
X113358427Y-57523500D02*
X113434617Y-57571119D01*
X113434617Y-57571119D02*
X113510808Y-57571119D01*
X114120332Y-57571119D02*
X114120332Y-57047309D01*
X114120332Y-57047309D02*
X114082237Y-56952071D01*
X114082237Y-56952071D02*
X114006046Y-56904452D01*
X114006046Y-56904452D02*
X113853665Y-56904452D01*
X113853665Y-56904452D02*
X113777475Y-56952071D01*
X114120332Y-57523500D02*
X114044141Y-57571119D01*
X114044141Y-57571119D02*
X113853665Y-57571119D01*
X113853665Y-57571119D02*
X113777475Y-57523500D01*
X113777475Y-57523500D02*
X113739379Y-57428261D01*
X113739379Y-57428261D02*
X113739379Y-57333023D01*
X113739379Y-57333023D02*
X113777475Y-57237785D01*
X113777475Y-57237785D02*
X113853665Y-57190166D01*
X113853665Y-57190166D02*
X114044141Y-57190166D01*
X114044141Y-57190166D02*
X114120332Y-57142547D01*
X114501285Y-57571119D02*
X114501285Y-56904452D01*
X114501285Y-56571119D02*
X114463189Y-56618738D01*
X114463189Y-56618738D02*
X114501285Y-56666357D01*
X114501285Y-56666357D02*
X114539380Y-56618738D01*
X114539380Y-56618738D02*
X114501285Y-56571119D01*
X114501285Y-56571119D02*
X114501285Y-56666357D01*
X114882237Y-56904452D02*
X114882237Y-57571119D01*
X114882237Y-56999690D02*
X114920332Y-56952071D01*
X114920332Y-56952071D02*
X114996522Y-56904452D01*
X114996522Y-56904452D02*
X115110808Y-56904452D01*
X115110808Y-56904452D02*
X115186999Y-56952071D01*
X115186999Y-56952071D02*
X115225094Y-57047309D01*
X115225094Y-57047309D02*
X115225094Y-57571119D01*
X115567951Y-57523500D02*
X115644142Y-57571119D01*
X115644142Y-57571119D02*
X115796523Y-57571119D01*
X115796523Y-57571119D02*
X115872713Y-57523500D01*
X115872713Y-57523500D02*
X115910809Y-57428261D01*
X115910809Y-57428261D02*
X115910809Y-57380642D01*
X115910809Y-57380642D02*
X115872713Y-57285404D01*
X115872713Y-57285404D02*
X115796523Y-57237785D01*
X115796523Y-57237785D02*
X115682237Y-57237785D01*
X115682237Y-57237785D02*
X115606047Y-57190166D01*
X115606047Y-57190166D02*
X115567951Y-57094928D01*
X115567951Y-57094928D02*
X115567951Y-57047309D01*
X115567951Y-57047309D02*
X115606047Y-56952071D01*
X115606047Y-56952071D02*
X115682237Y-56904452D01*
X115682237Y-56904452D02*
X115796523Y-56904452D01*
X115796523Y-56904452D02*
X115872713Y-56952071D01*
X116977475Y-57571119D02*
X116901285Y-57523500D01*
X116901285Y-57523500D02*
X116863190Y-57428261D01*
X116863190Y-57428261D02*
X116863190Y-56571119D01*
X117396523Y-57571119D02*
X117320333Y-57523500D01*
X117320333Y-57523500D02*
X117282238Y-57475880D01*
X117282238Y-57475880D02*
X117244142Y-57380642D01*
X117244142Y-57380642D02*
X117244142Y-57094928D01*
X117244142Y-57094928D02*
X117282238Y-56999690D01*
X117282238Y-56999690D02*
X117320333Y-56952071D01*
X117320333Y-56952071D02*
X117396523Y-56904452D01*
X117396523Y-56904452D02*
X117510809Y-56904452D01*
X117510809Y-56904452D02*
X117587000Y-56952071D01*
X117587000Y-56952071D02*
X117625095Y-56999690D01*
X117625095Y-56999690D02*
X117663190Y-57094928D01*
X117663190Y-57094928D02*
X117663190Y-57380642D01*
X117663190Y-57380642D02*
X117625095Y-57475880D01*
X117625095Y-57475880D02*
X117587000Y-57523500D01*
X117587000Y-57523500D02*
X117510809Y-57571119D01*
X117510809Y-57571119D02*
X117396523Y-57571119D01*
X118348905Y-56904452D02*
X118348905Y-57713976D01*
X118348905Y-57713976D02*
X118310810Y-57809214D01*
X118310810Y-57809214D02*
X118272714Y-57856833D01*
X118272714Y-57856833D02*
X118196524Y-57904452D01*
X118196524Y-57904452D02*
X118082238Y-57904452D01*
X118082238Y-57904452D02*
X118006048Y-57856833D01*
X118348905Y-57523500D02*
X118272714Y-57571119D01*
X118272714Y-57571119D02*
X118120333Y-57571119D01*
X118120333Y-57571119D02*
X118044143Y-57523500D01*
X118044143Y-57523500D02*
X118006048Y-57475880D01*
X118006048Y-57475880D02*
X117967952Y-57380642D01*
X117967952Y-57380642D02*
X117967952Y-57094928D01*
X117967952Y-57094928D02*
X118006048Y-56999690D01*
X118006048Y-56999690D02*
X118044143Y-56952071D01*
X118044143Y-56952071D02*
X118120333Y-56904452D01*
X118120333Y-56904452D02*
X118272714Y-56904452D01*
X118272714Y-56904452D02*
X118348905Y-56952071D01*
X118729858Y-57571119D02*
X118729858Y-56904452D01*
X118729858Y-56571119D02*
X118691762Y-56618738D01*
X118691762Y-56618738D02*
X118729858Y-56666357D01*
X118729858Y-56666357D02*
X118767953Y-56618738D01*
X118767953Y-56618738D02*
X118729858Y-56571119D01*
X118729858Y-56571119D02*
X118729858Y-56666357D01*
X119453667Y-57523500D02*
X119377476Y-57571119D01*
X119377476Y-57571119D02*
X119225095Y-57571119D01*
X119225095Y-57571119D02*
X119148905Y-57523500D01*
X119148905Y-57523500D02*
X119110810Y-57475880D01*
X119110810Y-57475880D02*
X119072714Y-57380642D01*
X119072714Y-57380642D02*
X119072714Y-57094928D01*
X119072714Y-57094928D02*
X119110810Y-56999690D01*
X119110810Y-56999690D02*
X119148905Y-56952071D01*
X119148905Y-56952071D02*
X119225095Y-56904452D01*
X119225095Y-56904452D02*
X119377476Y-56904452D01*
X119377476Y-56904452D02*
X119453667Y-56952071D01*
D10*
X101641979Y-73572419D02*
X102099122Y-73572419D01*
X101870550Y-74572419D02*
X101870550Y-73572419D01*
X102784836Y-74572419D02*
X102327693Y-74572419D01*
X102556265Y-74572419D02*
X102556265Y-73572419D01*
X102556265Y-73572419D02*
X102480074Y-73715276D01*
X102480074Y-73715276D02*
X102403884Y-73810514D01*
X102403884Y-73810514D02*
X102327693Y-73858133D01*
X105451504Y-73572419D02*
X105908647Y-73572419D01*
X105680075Y-74572419D02*
X105680075Y-73572419D01*
X106137218Y-73667657D02*
X106175314Y-73620038D01*
X106175314Y-73620038D02*
X106251504Y-73572419D01*
X106251504Y-73572419D02*
X106441980Y-73572419D01*
X106441980Y-73572419D02*
X106518171Y-73620038D01*
X106518171Y-73620038D02*
X106556266Y-73667657D01*
X106556266Y-73667657D02*
X106594361Y-73762895D01*
X106594361Y-73762895D02*
X106594361Y-73858133D01*
X106594361Y-73858133D02*
X106556266Y-74000990D01*
X106556266Y-74000990D02*
X106099123Y-74572419D01*
X106099123Y-74572419D02*
X106594361Y-74572419D01*
X109184838Y-73620038D02*
X109108648Y-73572419D01*
X109108648Y-73572419D02*
X108994362Y-73572419D01*
X108994362Y-73572419D02*
X108880076Y-73620038D01*
X108880076Y-73620038D02*
X108803886Y-73715276D01*
X108803886Y-73715276D02*
X108765791Y-73810514D01*
X108765791Y-73810514D02*
X108727695Y-74000990D01*
X108727695Y-74000990D02*
X108727695Y-74143847D01*
X108727695Y-74143847D02*
X108765791Y-74334323D01*
X108765791Y-74334323D02*
X108803886Y-74429561D01*
X108803886Y-74429561D02*
X108880076Y-74524800D01*
X108880076Y-74524800D02*
X108994362Y-74572419D01*
X108994362Y-74572419D02*
X109070553Y-74572419D01*
X109070553Y-74572419D02*
X109184838Y-74524800D01*
X109184838Y-74524800D02*
X109222934Y-74477180D01*
X109222934Y-74477180D02*
X109222934Y-74143847D01*
X109222934Y-74143847D02*
X109070553Y-74143847D01*
X109565791Y-74572419D02*
X109565791Y-73572419D01*
X109565791Y-73572419D02*
X110022934Y-74572419D01*
X110022934Y-74572419D02*
X110022934Y-73572419D01*
X110403886Y-74572419D02*
X110403886Y-73572419D01*
X110403886Y-73572419D02*
X110594362Y-73572419D01*
X110594362Y-73572419D02*
X110708648Y-73620038D01*
X110708648Y-73620038D02*
X110784838Y-73715276D01*
X110784838Y-73715276D02*
X110822933Y-73810514D01*
X110822933Y-73810514D02*
X110861029Y-74000990D01*
X110861029Y-74000990D02*
X110861029Y-74143847D01*
X110861029Y-74143847D02*
X110822933Y-74334323D01*
X110822933Y-74334323D02*
X110784838Y-74429561D01*
X110784838Y-74429561D02*
X110708648Y-74524800D01*
X110708648Y-74524800D02*
X110594362Y-74572419D01*
X110594362Y-74572419D02*
X110403886Y-74572419D01*
X112803886Y-73572419D02*
X112422934Y-73572419D01*
X112422934Y-73572419D02*
X112384838Y-74048609D01*
X112384838Y-74048609D02*
X112422934Y-74000990D01*
X112422934Y-74000990D02*
X112499124Y-73953371D01*
X112499124Y-73953371D02*
X112689600Y-73953371D01*
X112689600Y-73953371D02*
X112765791Y-74000990D01*
X112765791Y-74000990D02*
X112803886Y-74048609D01*
X112803886Y-74048609D02*
X112841981Y-74143847D01*
X112841981Y-74143847D02*
X112841981Y-74381942D01*
X112841981Y-74381942D02*
X112803886Y-74477180D01*
X112803886Y-74477180D02*
X112765791Y-74524800D01*
X112765791Y-74524800D02*
X112689600Y-74572419D01*
X112689600Y-74572419D02*
X112499124Y-74572419D01*
X112499124Y-74572419D02*
X112422934Y-74524800D01*
X112422934Y-74524800D02*
X112384838Y-74477180D01*
X113070553Y-73572419D02*
X113337220Y-74572419D01*
X113337220Y-74572419D02*
X113603886Y-73572419D01*
X114022934Y-73572419D02*
X114099124Y-73572419D01*
X114099124Y-73572419D02*
X114175315Y-73620038D01*
X114175315Y-73620038D02*
X114213410Y-73667657D01*
X114213410Y-73667657D02*
X114251505Y-73762895D01*
X114251505Y-73762895D02*
X114289600Y-73953371D01*
X114289600Y-73953371D02*
X114289600Y-74191466D01*
X114289600Y-74191466D02*
X114251505Y-74381942D01*
X114251505Y-74381942D02*
X114213410Y-74477180D01*
X114213410Y-74477180D02*
X114175315Y-74524800D01*
X114175315Y-74524800D02*
X114099124Y-74572419D01*
X114099124Y-74572419D02*
X114022934Y-74572419D01*
X114022934Y-74572419D02*
X113946743Y-74524800D01*
X113946743Y-74524800D02*
X113908648Y-74477180D01*
X113908648Y-74477180D02*
X113870553Y-74381942D01*
X113870553Y-74381942D02*
X113832457Y-74191466D01*
X113832457Y-74191466D02*
X113832457Y-73953371D01*
X113832457Y-73953371D02*
X113870553Y-73762895D01*
X113870553Y-73762895D02*
X113908648Y-73667657D01*
X113908648Y-73667657D02*
X113946743Y-73620038D01*
X113946743Y-73620038D02*
X114022934Y-73572419D01*
X115775315Y-73572419D02*
X116270553Y-73572419D01*
X116270553Y-73572419D02*
X116003887Y-73953371D01*
X116003887Y-73953371D02*
X116118172Y-73953371D01*
X116118172Y-73953371D02*
X116194363Y-74000990D01*
X116194363Y-74000990D02*
X116232458Y-74048609D01*
X116232458Y-74048609D02*
X116270553Y-74143847D01*
X116270553Y-74143847D02*
X116270553Y-74381942D01*
X116270553Y-74381942D02*
X116232458Y-74477180D01*
X116232458Y-74477180D02*
X116194363Y-74524800D01*
X116194363Y-74524800D02*
X116118172Y-74572419D01*
X116118172Y-74572419D02*
X115889601Y-74572419D01*
X115889601Y-74572419D02*
X115813410Y-74524800D01*
X115813410Y-74524800D02*
X115775315Y-74477180D01*
X116499125Y-73572419D02*
X116765792Y-74572419D01*
X116765792Y-74572419D02*
X117032458Y-73572419D01*
X117222934Y-73572419D02*
X117718172Y-73572419D01*
X117718172Y-73572419D02*
X117451506Y-73953371D01*
X117451506Y-73953371D02*
X117565791Y-73953371D01*
X117565791Y-73953371D02*
X117641982Y-74000990D01*
X117641982Y-74000990D02*
X117680077Y-74048609D01*
X117680077Y-74048609D02*
X117718172Y-74143847D01*
X117718172Y-74143847D02*
X117718172Y-74381942D01*
X117718172Y-74381942D02*
X117680077Y-74477180D01*
X117680077Y-74477180D02*
X117641982Y-74524800D01*
X117641982Y-74524800D02*
X117565791Y-74572419D01*
X117565791Y-74572419D02*
X117337220Y-74572419D01*
X117337220Y-74572419D02*
X117261029Y-74524800D01*
X117261029Y-74524800D02*
X117222934Y-74477180D01*
D13*
X110336779Y-60097970D02*
X110260588Y-60050351D01*
X110260588Y-60050351D02*
X110108207Y-60050351D01*
X110108207Y-60050351D02*
X110032017Y-60097970D01*
X110032017Y-60097970D02*
X109955826Y-60193208D01*
X109955826Y-60193208D02*
X109917731Y-60288446D01*
X109917731Y-60288446D02*
X109917731Y-60478922D01*
X109917731Y-60478922D02*
X109955826Y-60574160D01*
X109955826Y-60574160D02*
X110032017Y-60669398D01*
X110032017Y-60669398D02*
X110108207Y-60717017D01*
X110108207Y-60717017D02*
X110260588Y-60717017D01*
X110260588Y-60717017D02*
X110336779Y-60669398D01*
X110184398Y-59717017D02*
X109993922Y-59764636D01*
X109993922Y-59764636D02*
X109803445Y-59907494D01*
X109803445Y-59907494D02*
X109689160Y-60145589D01*
X109689160Y-60145589D02*
X109651064Y-60383684D01*
X109651064Y-60383684D02*
X109689160Y-60621779D01*
X109689160Y-60621779D02*
X109803445Y-60859875D01*
X109803445Y-60859875D02*
X109993922Y-61002732D01*
X109993922Y-61002732D02*
X110184398Y-61050351D01*
X110184398Y-61050351D02*
X110374874Y-61002732D01*
X110374874Y-61002732D02*
X110565350Y-60859875D01*
X110565350Y-60859875D02*
X110679636Y-60621779D01*
X110679636Y-60621779D02*
X110717731Y-60383684D01*
X110717731Y-60383684D02*
X110679636Y-60145589D01*
X110679636Y-60145589D02*
X110565350Y-59907494D01*
X110565350Y-59907494D02*
X110374874Y-59764636D01*
X110374874Y-59764636D02*
X110184398Y-59717017D01*
X111632017Y-59955113D02*
X111670113Y-59907494D01*
X111670113Y-59907494D02*
X111746303Y-59859875D01*
X111746303Y-59859875D02*
X111936779Y-59859875D01*
X111936779Y-59859875D02*
X112012970Y-59907494D01*
X112012970Y-59907494D02*
X112051065Y-59955113D01*
X112051065Y-59955113D02*
X112089160Y-60050351D01*
X112089160Y-60050351D02*
X112089160Y-60145589D01*
X112089160Y-60145589D02*
X112051065Y-60288446D01*
X112051065Y-60288446D02*
X111593922Y-60859875D01*
X111593922Y-60859875D02*
X112089160Y-60859875D01*
X112584399Y-59859875D02*
X112660589Y-59859875D01*
X112660589Y-59859875D02*
X112736780Y-59907494D01*
X112736780Y-59907494D02*
X112774875Y-59955113D01*
X112774875Y-59955113D02*
X112812970Y-60050351D01*
X112812970Y-60050351D02*
X112851065Y-60240827D01*
X112851065Y-60240827D02*
X112851065Y-60478922D01*
X112851065Y-60478922D02*
X112812970Y-60669398D01*
X112812970Y-60669398D02*
X112774875Y-60764636D01*
X112774875Y-60764636D02*
X112736780Y-60812256D01*
X112736780Y-60812256D02*
X112660589Y-60859875D01*
X112660589Y-60859875D02*
X112584399Y-60859875D01*
X112584399Y-60859875D02*
X112508208Y-60812256D01*
X112508208Y-60812256D02*
X112470113Y-60764636D01*
X112470113Y-60764636D02*
X112432018Y-60669398D01*
X112432018Y-60669398D02*
X112393922Y-60478922D01*
X112393922Y-60478922D02*
X112393922Y-60240827D01*
X112393922Y-60240827D02*
X112432018Y-60050351D01*
X112432018Y-60050351D02*
X112470113Y-59955113D01*
X112470113Y-59955113D02*
X112508208Y-59907494D01*
X112508208Y-59907494D02*
X112584399Y-59859875D01*
X113155827Y-59955113D02*
X113193923Y-59907494D01*
X113193923Y-59907494D02*
X113270113Y-59859875D01*
X113270113Y-59859875D02*
X113460589Y-59859875D01*
X113460589Y-59859875D02*
X113536780Y-59907494D01*
X113536780Y-59907494D02*
X113574875Y-59955113D01*
X113574875Y-59955113D02*
X113612970Y-60050351D01*
X113612970Y-60050351D02*
X113612970Y-60145589D01*
X113612970Y-60145589D02*
X113574875Y-60288446D01*
X113574875Y-60288446D02*
X113117732Y-60859875D01*
X113117732Y-60859875D02*
X113612970Y-60859875D01*
X114336780Y-59859875D02*
X113955828Y-59859875D01*
X113955828Y-59859875D02*
X113917732Y-60336065D01*
X113917732Y-60336065D02*
X113955828Y-60288446D01*
X113955828Y-60288446D02*
X114032018Y-60240827D01*
X114032018Y-60240827D02*
X114222494Y-60240827D01*
X114222494Y-60240827D02*
X114298685Y-60288446D01*
X114298685Y-60288446D02*
X114336780Y-60336065D01*
X114336780Y-60336065D02*
X114374875Y-60431303D01*
X114374875Y-60431303D02*
X114374875Y-60669398D01*
X114374875Y-60669398D02*
X114336780Y-60764636D01*
X114336780Y-60764636D02*
X114298685Y-60812256D01*
X114298685Y-60812256D02*
X114222494Y-60859875D01*
X114222494Y-60859875D02*
X114032018Y-60859875D01*
X114032018Y-60859875D02*
X113955828Y-60812256D01*
X113955828Y-60812256D02*
X113917732Y-60764636D01*
X115327257Y-60859875D02*
X115327257Y-59859875D01*
X115327257Y-59859875D02*
X115593923Y-60574160D01*
X115593923Y-60574160D02*
X115860590Y-59859875D01*
X115860590Y-59859875D02*
X115860590Y-60859875D01*
X116584400Y-60859875D02*
X116584400Y-60336065D01*
X116584400Y-60336065D02*
X116546305Y-60240827D01*
X116546305Y-60240827D02*
X116470114Y-60193208D01*
X116470114Y-60193208D02*
X116317733Y-60193208D01*
X116317733Y-60193208D02*
X116241543Y-60240827D01*
X116584400Y-60812256D02*
X116508209Y-60859875D01*
X116508209Y-60859875D02*
X116317733Y-60859875D01*
X116317733Y-60859875D02*
X116241543Y-60812256D01*
X116241543Y-60812256D02*
X116203447Y-60717017D01*
X116203447Y-60717017D02*
X116203447Y-60621779D01*
X116203447Y-60621779D02*
X116241543Y-60526541D01*
X116241543Y-60526541D02*
X116317733Y-60478922D01*
X116317733Y-60478922D02*
X116508209Y-60478922D01*
X116508209Y-60478922D02*
X116584400Y-60431303D01*
X116965353Y-60193208D02*
X116965353Y-60859875D01*
X116965353Y-60288446D02*
X117003448Y-60240827D01*
X117003448Y-60240827D02*
X117079638Y-60193208D01*
X117079638Y-60193208D02*
X117193924Y-60193208D01*
X117193924Y-60193208D02*
X117270115Y-60240827D01*
X117270115Y-60240827D02*
X117308210Y-60336065D01*
X117308210Y-60336065D02*
X117308210Y-60859875D01*
X118032020Y-60193208D02*
X118032020Y-60859875D01*
X117689163Y-60193208D02*
X117689163Y-60717017D01*
X117689163Y-60717017D02*
X117727258Y-60812256D01*
X117727258Y-60812256D02*
X117803448Y-60859875D01*
X117803448Y-60859875D02*
X117917734Y-60859875D01*
X117917734Y-60859875D02*
X117993925Y-60812256D01*
X117993925Y-60812256D02*
X118032020Y-60764636D01*
X118717735Y-60812256D02*
X118641544Y-60859875D01*
X118641544Y-60859875D02*
X118489163Y-60859875D01*
X118489163Y-60859875D02*
X118412973Y-60812256D01*
X118412973Y-60812256D02*
X118374877Y-60717017D01*
X118374877Y-60717017D02*
X118374877Y-60336065D01*
X118374877Y-60336065D02*
X118412973Y-60240827D01*
X118412973Y-60240827D02*
X118489163Y-60193208D01*
X118489163Y-60193208D02*
X118641544Y-60193208D01*
X118641544Y-60193208D02*
X118717735Y-60240827D01*
X118717735Y-60240827D02*
X118755830Y-60336065D01*
X118755830Y-60336065D02*
X118755830Y-60431303D01*
X118755830Y-60431303D02*
X118374877Y-60526541D01*
X119212972Y-60859875D02*
X119136782Y-60812256D01*
X119136782Y-60812256D02*
X119098687Y-60717017D01*
X119098687Y-60717017D02*
X119098687Y-59859875D01*
X120127259Y-60478922D02*
X120736783Y-60478922D01*
X109651064Y-62184104D02*
X110032017Y-62184104D01*
X109574874Y-62469819D02*
X109841541Y-61469819D01*
X109841541Y-61469819D02*
X110108207Y-62469819D01*
X110489159Y-62469819D02*
X110412969Y-62422200D01*
X110412969Y-62422200D02*
X110374874Y-62326961D01*
X110374874Y-62326961D02*
X110374874Y-61469819D01*
X110908207Y-62469819D02*
X110832017Y-62422200D01*
X110832017Y-62422200D02*
X110793922Y-62326961D01*
X110793922Y-62326961D02*
X110793922Y-61469819D01*
X111822494Y-62469819D02*
X111822494Y-61803152D01*
X111822494Y-61993628D02*
X111860589Y-61898390D01*
X111860589Y-61898390D02*
X111898684Y-61850771D01*
X111898684Y-61850771D02*
X111974875Y-61803152D01*
X111974875Y-61803152D02*
X112051065Y-61803152D01*
X112317732Y-62469819D02*
X112317732Y-61803152D01*
X112317732Y-61469819D02*
X112279636Y-61517438D01*
X112279636Y-61517438D02*
X112317732Y-61565057D01*
X112317732Y-61565057D02*
X112355827Y-61517438D01*
X112355827Y-61517438D02*
X112317732Y-61469819D01*
X112317732Y-61469819D02*
X112317732Y-61565057D01*
X113041541Y-61803152D02*
X113041541Y-62612676D01*
X113041541Y-62612676D02*
X113003446Y-62707914D01*
X113003446Y-62707914D02*
X112965350Y-62755533D01*
X112965350Y-62755533D02*
X112889160Y-62803152D01*
X112889160Y-62803152D02*
X112774874Y-62803152D01*
X112774874Y-62803152D02*
X112698684Y-62755533D01*
X113041541Y-62422200D02*
X112965350Y-62469819D01*
X112965350Y-62469819D02*
X112812969Y-62469819D01*
X112812969Y-62469819D02*
X112736779Y-62422200D01*
X112736779Y-62422200D02*
X112698684Y-62374580D01*
X112698684Y-62374580D02*
X112660588Y-62279342D01*
X112660588Y-62279342D02*
X112660588Y-61993628D01*
X112660588Y-61993628D02*
X112698684Y-61898390D01*
X112698684Y-61898390D02*
X112736779Y-61850771D01*
X112736779Y-61850771D02*
X112812969Y-61803152D01*
X112812969Y-61803152D02*
X112965350Y-61803152D01*
X112965350Y-61803152D02*
X113041541Y-61850771D01*
X113422494Y-62469819D02*
X113422494Y-61469819D01*
X113765351Y-62469819D02*
X113765351Y-61946009D01*
X113765351Y-61946009D02*
X113727256Y-61850771D01*
X113727256Y-61850771D02*
X113651065Y-61803152D01*
X113651065Y-61803152D02*
X113536779Y-61803152D01*
X113536779Y-61803152D02*
X113460589Y-61850771D01*
X113460589Y-61850771D02*
X113422494Y-61898390D01*
X114032018Y-61803152D02*
X114336780Y-61803152D01*
X114146304Y-61469819D02*
X114146304Y-62326961D01*
X114146304Y-62326961D02*
X114184399Y-62422200D01*
X114184399Y-62422200D02*
X114260589Y-62469819D01*
X114260589Y-62469819D02*
X114336780Y-62469819D01*
X114565351Y-62422200D02*
X114641542Y-62469819D01*
X114641542Y-62469819D02*
X114793923Y-62469819D01*
X114793923Y-62469819D02*
X114870113Y-62422200D01*
X114870113Y-62422200D02*
X114908209Y-62326961D01*
X114908209Y-62326961D02*
X114908209Y-62279342D01*
X114908209Y-62279342D02*
X114870113Y-62184104D01*
X114870113Y-62184104D02*
X114793923Y-62136485D01*
X114793923Y-62136485D02*
X114679637Y-62136485D01*
X114679637Y-62136485D02*
X114603447Y-62088866D01*
X114603447Y-62088866D02*
X114565351Y-61993628D01*
X114565351Y-61993628D02*
X114565351Y-61946009D01*
X114565351Y-61946009D02*
X114603447Y-61850771D01*
X114603447Y-61850771D02*
X114679637Y-61803152D01*
X114679637Y-61803152D02*
X114793923Y-61803152D01*
X114793923Y-61803152D02*
X114870113Y-61850771D01*
X115860590Y-62469819D02*
X115860590Y-61803152D01*
X115860590Y-61993628D02*
X115898685Y-61898390D01*
X115898685Y-61898390D02*
X115936780Y-61850771D01*
X115936780Y-61850771D02*
X116012971Y-61803152D01*
X116012971Y-61803152D02*
X116089161Y-61803152D01*
X116660590Y-62422200D02*
X116584399Y-62469819D01*
X116584399Y-62469819D02*
X116432018Y-62469819D01*
X116432018Y-62469819D02*
X116355828Y-62422200D01*
X116355828Y-62422200D02*
X116317732Y-62326961D01*
X116317732Y-62326961D02*
X116317732Y-61946009D01*
X116317732Y-61946009D02*
X116355828Y-61850771D01*
X116355828Y-61850771D02*
X116432018Y-61803152D01*
X116432018Y-61803152D02*
X116584399Y-61803152D01*
X116584399Y-61803152D02*
X116660590Y-61850771D01*
X116660590Y-61850771D02*
X116698685Y-61946009D01*
X116698685Y-61946009D02*
X116698685Y-62041247D01*
X116698685Y-62041247D02*
X116317732Y-62136485D01*
X117003446Y-62422200D02*
X117079637Y-62469819D01*
X117079637Y-62469819D02*
X117232018Y-62469819D01*
X117232018Y-62469819D02*
X117308208Y-62422200D01*
X117308208Y-62422200D02*
X117346304Y-62326961D01*
X117346304Y-62326961D02*
X117346304Y-62279342D01*
X117346304Y-62279342D02*
X117308208Y-62184104D01*
X117308208Y-62184104D02*
X117232018Y-62136485D01*
X117232018Y-62136485D02*
X117117732Y-62136485D01*
X117117732Y-62136485D02*
X117041542Y-62088866D01*
X117041542Y-62088866D02*
X117003446Y-61993628D01*
X117003446Y-61993628D02*
X117003446Y-61946009D01*
X117003446Y-61946009D02*
X117041542Y-61850771D01*
X117041542Y-61850771D02*
X117117732Y-61803152D01*
X117117732Y-61803152D02*
X117232018Y-61803152D01*
X117232018Y-61803152D02*
X117308208Y-61850771D01*
X117993923Y-62422200D02*
X117917732Y-62469819D01*
X117917732Y-62469819D02*
X117765351Y-62469819D01*
X117765351Y-62469819D02*
X117689161Y-62422200D01*
X117689161Y-62422200D02*
X117651065Y-62326961D01*
X117651065Y-62326961D02*
X117651065Y-61946009D01*
X117651065Y-61946009D02*
X117689161Y-61850771D01*
X117689161Y-61850771D02*
X117765351Y-61803152D01*
X117765351Y-61803152D02*
X117917732Y-61803152D01*
X117917732Y-61803152D02*
X117993923Y-61850771D01*
X117993923Y-61850771D02*
X118032018Y-61946009D01*
X118032018Y-61946009D02*
X118032018Y-62041247D01*
X118032018Y-62041247D02*
X117651065Y-62136485D01*
X118374875Y-62469819D02*
X118374875Y-61803152D01*
X118374875Y-61993628D02*
X118412970Y-61898390D01*
X118412970Y-61898390D02*
X118451065Y-61850771D01*
X118451065Y-61850771D02*
X118527256Y-61803152D01*
X118527256Y-61803152D02*
X118603446Y-61803152D01*
X118793922Y-61803152D02*
X118984398Y-62469819D01*
X118984398Y-62469819D02*
X119174875Y-61803152D01*
X119784399Y-62422200D02*
X119708208Y-62469819D01*
X119708208Y-62469819D02*
X119555827Y-62469819D01*
X119555827Y-62469819D02*
X119479637Y-62422200D01*
X119479637Y-62422200D02*
X119441541Y-62326961D01*
X119441541Y-62326961D02*
X119441541Y-61946009D01*
X119441541Y-61946009D02*
X119479637Y-61850771D01*
X119479637Y-61850771D02*
X119555827Y-61803152D01*
X119555827Y-61803152D02*
X119708208Y-61803152D01*
X119708208Y-61803152D02*
X119784399Y-61850771D01*
X119784399Y-61850771D02*
X119822494Y-61946009D01*
X119822494Y-61946009D02*
X119822494Y-62041247D01*
X119822494Y-62041247D02*
X119441541Y-62136485D01*
X120508208Y-62469819D02*
X120508208Y-61469819D01*
X120508208Y-62422200D02*
X120432017Y-62469819D01*
X120432017Y-62469819D02*
X120279636Y-62469819D01*
X120279636Y-62469819D02*
X120203446Y-62422200D01*
X120203446Y-62422200D02*
X120165351Y-62374580D01*
X120165351Y-62374580D02*
X120127255Y-62279342D01*
X120127255Y-62279342D02*
X120127255Y-61993628D01*
X120127255Y-61993628D02*
X120165351Y-61898390D01*
X120165351Y-61898390D02*
X120203446Y-61850771D01*
X120203446Y-61850771D02*
X120279636Y-61803152D01*
X120279636Y-61803152D02*
X120432017Y-61803152D01*
X120432017Y-61803152D02*
X120508208Y-61850771D01*
D14*
X119863775Y-73831610D02*
X118863775Y-73831610D01*
X118625679Y-73617324D02*
X118578060Y-73569705D01*
X118578060Y-73569705D02*
X118578060Y-73498277D01*
X118578060Y-73498277D02*
X118625679Y-73450658D01*
X118625679Y-73450658D02*
X118720917Y-73426848D01*
X118720917Y-73426848D02*
X118816156Y-73426848D01*
X118816156Y-73426848D02*
X118911394Y-73450658D01*
X118911394Y-73450658D02*
X119244727Y-73617324D01*
X119244727Y-73617324D02*
X119244727Y-73426848D01*
X119768536Y-72926849D02*
X119816156Y-72950658D01*
X119816156Y-72950658D02*
X119863775Y-73022087D01*
X119863775Y-73022087D02*
X119863775Y-73069706D01*
X119863775Y-73069706D02*
X119816156Y-73141134D01*
X119816156Y-73141134D02*
X119720917Y-73188753D01*
X119720917Y-73188753D02*
X119625679Y-73212563D01*
X119625679Y-73212563D02*
X119435203Y-73236372D01*
X119435203Y-73236372D02*
X119292346Y-73236372D01*
X119292346Y-73236372D02*
X119101870Y-73212563D01*
X119101870Y-73212563D02*
X119006632Y-73188753D01*
X119006632Y-73188753D02*
X118911394Y-73141134D01*
X118911394Y-73141134D02*
X118863775Y-73069706D01*
X118863775Y-73069706D02*
X118863775Y-73022087D01*
X118863775Y-73022087D02*
X118911394Y-72950658D01*
X118911394Y-72950658D02*
X118959013Y-72926849D01*
X119339965Y-72331611D02*
X119339965Y-72164944D01*
X119863775Y-72093516D02*
X119863775Y-72331611D01*
X119863775Y-72331611D02*
X118863775Y-72331611D01*
X118863775Y-72331611D02*
X118863775Y-72093516D01*
X119863775Y-71879230D02*
X118863775Y-71879230D01*
X118863775Y-71879230D02*
X119863775Y-71593516D01*
X119863775Y-71593516D02*
X118863775Y-71593516D01*
X121854671Y-73688753D02*
X121807052Y-73712562D01*
X121807052Y-73712562D02*
X121664195Y-73760181D01*
X121664195Y-73760181D02*
X121568957Y-73783991D01*
X121568957Y-73783991D02*
X121426100Y-73807800D01*
X121426100Y-73807800D02*
X121188004Y-73831610D01*
X121188004Y-73831610D02*
X120997528Y-73831610D01*
X120997528Y-73831610D02*
X120759433Y-73807800D01*
X120759433Y-73807800D02*
X120616576Y-73783991D01*
X120616576Y-73783991D02*
X120521338Y-73760181D01*
X120521338Y-73760181D02*
X120378480Y-73712562D01*
X120378480Y-73712562D02*
X120330861Y-73688753D01*
X121426100Y-73522086D02*
X121473719Y-73450658D01*
X121473719Y-73450658D02*
X121473719Y-73331610D01*
X121473719Y-73331610D02*
X121426100Y-73283991D01*
X121426100Y-73283991D02*
X121378480Y-73260182D01*
X121378480Y-73260182D02*
X121283242Y-73236372D01*
X121283242Y-73236372D02*
X121188004Y-73236372D01*
X121188004Y-73236372D02*
X121092766Y-73260182D01*
X121092766Y-73260182D02*
X121045147Y-73283991D01*
X121045147Y-73283991D02*
X120997528Y-73331610D01*
X120997528Y-73331610D02*
X120949909Y-73426848D01*
X120949909Y-73426848D02*
X120902290Y-73474467D01*
X120902290Y-73474467D02*
X120854671Y-73498277D01*
X120854671Y-73498277D02*
X120759433Y-73522086D01*
X120759433Y-73522086D02*
X120664195Y-73522086D01*
X120664195Y-73522086D02*
X120568957Y-73498277D01*
X120568957Y-73498277D02*
X120521338Y-73474467D01*
X120521338Y-73474467D02*
X120473719Y-73426848D01*
X120473719Y-73426848D02*
X120473719Y-73307801D01*
X120473719Y-73307801D02*
X120521338Y-73236372D01*
X121473719Y-72950658D02*
X121426100Y-72998277D01*
X121426100Y-72998277D02*
X121378480Y-73022087D01*
X121378480Y-73022087D02*
X121283242Y-73045896D01*
X121283242Y-73045896D02*
X120997528Y-73045896D01*
X120997528Y-73045896D02*
X120902290Y-73022087D01*
X120902290Y-73022087D02*
X120854671Y-72998277D01*
X120854671Y-72998277D02*
X120807052Y-72950658D01*
X120807052Y-72950658D02*
X120807052Y-72879230D01*
X120807052Y-72879230D02*
X120854671Y-72831611D01*
X120854671Y-72831611D02*
X120902290Y-72807801D01*
X120902290Y-72807801D02*
X120997528Y-72783992D01*
X120997528Y-72783992D02*
X121283242Y-72783992D01*
X121283242Y-72783992D02*
X121378480Y-72807801D01*
X121378480Y-72807801D02*
X121426100Y-72831611D01*
X121426100Y-72831611D02*
X121473719Y-72879230D01*
X121473719Y-72879230D02*
X121473719Y-72950658D01*
X121473719Y-72498277D02*
X121426100Y-72545896D01*
X121426100Y-72545896D02*
X121330861Y-72569706D01*
X121330861Y-72569706D02*
X120473719Y-72569706D01*
X121473719Y-72093515D02*
X120473719Y-72093515D01*
X121426100Y-72093515D02*
X121473719Y-72141134D01*
X121473719Y-72141134D02*
X121473719Y-72236372D01*
X121473719Y-72236372D02*
X121426100Y-72283991D01*
X121426100Y-72283991D02*
X121378480Y-72307801D01*
X121378480Y-72307801D02*
X121283242Y-72331610D01*
X121283242Y-72331610D02*
X120997528Y-72331610D01*
X120997528Y-72331610D02*
X120902290Y-72307801D01*
X120902290Y-72307801D02*
X120854671Y-72283991D01*
X120854671Y-72283991D02*
X120807052Y-72236372D01*
X120807052Y-72236372D02*
X120807052Y-72141134D01*
X120807052Y-72141134D02*
X120854671Y-72093515D01*
X121426100Y-71664944D02*
X121473719Y-71712563D01*
X121473719Y-71712563D02*
X121473719Y-71807801D01*
X121473719Y-71807801D02*
X121426100Y-71855420D01*
X121426100Y-71855420D02*
X121330861Y-71879229D01*
X121330861Y-71879229D02*
X120949909Y-71879229D01*
X120949909Y-71879229D02*
X120854671Y-71855420D01*
X120854671Y-71855420D02*
X120807052Y-71807801D01*
X120807052Y-71807801D02*
X120807052Y-71712563D01*
X120807052Y-71712563D02*
X120854671Y-71664944D01*
X120854671Y-71664944D02*
X120949909Y-71641134D01*
X120949909Y-71641134D02*
X121045147Y-71641134D01*
X121045147Y-71641134D02*
X121140385Y-71879229D01*
X121473719Y-71426849D02*
X120807052Y-71426849D01*
X120997528Y-71426849D02*
X120902290Y-71403039D01*
X120902290Y-71403039D02*
X120854671Y-71379230D01*
X120854671Y-71379230D02*
X120807052Y-71331611D01*
X120807052Y-71331611D02*
X120807052Y-71283992D01*
X120949909Y-70736373D02*
X120949909Y-70355421D01*
X121235623Y-70355421D02*
X121235623Y-70736373D01*
X120473719Y-69641135D02*
X120473719Y-69545897D01*
X120473719Y-69545897D02*
X120521338Y-69498278D01*
X120521338Y-69498278D02*
X120616576Y-69450659D01*
X120616576Y-69450659D02*
X120807052Y-69426849D01*
X120807052Y-69426849D02*
X121140385Y-69426849D01*
X121140385Y-69426849D02*
X121330861Y-69450659D01*
X121330861Y-69450659D02*
X121426100Y-69498278D01*
X121426100Y-69498278D02*
X121473719Y-69545897D01*
X121473719Y-69545897D02*
X121473719Y-69641135D01*
X121473719Y-69641135D02*
X121426100Y-69688754D01*
X121426100Y-69688754D02*
X121330861Y-69736373D01*
X121330861Y-69736373D02*
X121140385Y-69760182D01*
X121140385Y-69760182D02*
X120807052Y-69760182D01*
X120807052Y-69760182D02*
X120616576Y-69736373D01*
X120616576Y-69736373D02*
X120521338Y-69688754D01*
X120521338Y-69688754D02*
X120473719Y-69641135D01*
X121473719Y-69212563D02*
X120473719Y-69212563D01*
X120473719Y-69212563D02*
X121473719Y-68926849D01*
X121473719Y-68926849D02*
X120473719Y-68926849D01*
X121854671Y-68736372D02*
X121807052Y-68712562D01*
X121807052Y-68712562D02*
X121664195Y-68664943D01*
X121664195Y-68664943D02*
X121568957Y-68641134D01*
X121568957Y-68641134D02*
X121426100Y-68617324D01*
X121426100Y-68617324D02*
X121188004Y-68593515D01*
X121188004Y-68593515D02*
X120997528Y-68593515D01*
X120997528Y-68593515D02*
X120759433Y-68617324D01*
X120759433Y-68617324D02*
X120616576Y-68641134D01*
X120616576Y-68641134D02*
X120521338Y-68664943D01*
X120521338Y-68664943D02*
X120378480Y-68712562D01*
X120378480Y-68712562D02*
X120330861Y-68736372D01*
D11*
X120874451Y-67407702D02*
X120874451Y-68074369D01*
X120755403Y-67026750D02*
X120636356Y-67741035D01*
X120636356Y-67741035D02*
X120945879Y-67741035D01*
X121136355Y-68074369D02*
X121136355Y-67074369D01*
X121422069Y-68074369D02*
X121207784Y-67502940D01*
X121422069Y-67074369D02*
X121136355Y-67645797D01*
X121588736Y-67074369D02*
X121922069Y-67074369D01*
X121922069Y-67074369D02*
X121707784Y-68074369D01*
D10*
X128672419Y-58819925D02*
X128672419Y-58324687D01*
X128672419Y-58324687D02*
X129053371Y-58591353D01*
X129053371Y-58591353D02*
X129053371Y-58477068D01*
X129053371Y-58477068D02*
X129100990Y-58400877D01*
X129100990Y-58400877D02*
X129148609Y-58362782D01*
X129148609Y-58362782D02*
X129243847Y-58324687D01*
X129243847Y-58324687D02*
X129481942Y-58324687D01*
X129481942Y-58324687D02*
X129577180Y-58362782D01*
X129577180Y-58362782D02*
X129624800Y-58400877D01*
X129624800Y-58400877D02*
X129672419Y-58477068D01*
X129672419Y-58477068D02*
X129672419Y-58705639D01*
X129672419Y-58705639D02*
X129624800Y-58781830D01*
X129624800Y-58781830D02*
X129577180Y-58819925D01*
X128672419Y-58096115D02*
X129672419Y-57829448D01*
X129672419Y-57829448D02*
X128672419Y-57562782D01*
X128672419Y-57372306D02*
X128672419Y-56877068D01*
X128672419Y-56877068D02*
X129053371Y-57143734D01*
X129053371Y-57143734D02*
X129053371Y-57029449D01*
X129053371Y-57029449D02*
X129100990Y-56953258D01*
X129100990Y-56953258D02*
X129148609Y-56915163D01*
X129148609Y-56915163D02*
X129243847Y-56877068D01*
X129243847Y-56877068D02*
X129481942Y-56877068D01*
X129481942Y-56877068D02*
X129577180Y-56915163D01*
X129577180Y-56915163D02*
X129624800Y-56953258D01*
X129624800Y-56953258D02*
X129672419Y-57029449D01*
X129672419Y-57029449D02*
X129672419Y-57258020D01*
X129672419Y-57258020D02*
X129624800Y-57334211D01*
X129624800Y-57334211D02*
X129577180Y-57372306D01*
X128720038Y-53677067D02*
X128672419Y-53753257D01*
X128672419Y-53753257D02*
X128672419Y-53867543D01*
X128672419Y-53867543D02*
X128720038Y-53981829D01*
X128720038Y-53981829D02*
X128815276Y-54058019D01*
X128815276Y-54058019D02*
X128910514Y-54096114D01*
X128910514Y-54096114D02*
X129100990Y-54134210D01*
X129100990Y-54134210D02*
X129243847Y-54134210D01*
X129243847Y-54134210D02*
X129434323Y-54096114D01*
X129434323Y-54096114D02*
X129529561Y-54058019D01*
X129529561Y-54058019D02*
X129624800Y-53981829D01*
X129624800Y-53981829D02*
X129672419Y-53867543D01*
X129672419Y-53867543D02*
X129672419Y-53791352D01*
X129672419Y-53791352D02*
X129624800Y-53677067D01*
X129624800Y-53677067D02*
X129577180Y-53638971D01*
X129577180Y-53638971D02*
X129243847Y-53638971D01*
X129243847Y-53638971D02*
X129243847Y-53791352D01*
X129672419Y-53296114D02*
X128672419Y-53296114D01*
X128672419Y-53296114D02*
X129672419Y-52838971D01*
X129672419Y-52838971D02*
X128672419Y-52838971D01*
X129672419Y-52458019D02*
X128672419Y-52458019D01*
X128672419Y-52458019D02*
X128672419Y-52267543D01*
X128672419Y-52267543D02*
X128720038Y-52153257D01*
X128720038Y-52153257D02*
X128815276Y-52077067D01*
X128815276Y-52077067D02*
X128910514Y-52038972D01*
X128910514Y-52038972D02*
X129100990Y-52000876D01*
X129100990Y-52000876D02*
X129243847Y-52000876D01*
X129243847Y-52000876D02*
X129434323Y-52038972D01*
X129434323Y-52038972D02*
X129529561Y-52077067D01*
X129529561Y-52077067D02*
X129624800Y-52153257D01*
X129624800Y-52153257D02*
X129672419Y-52267543D01*
X129672419Y-52267543D02*
X129672419Y-52458019D01*
X128672419Y-48838971D02*
X128672419Y-49219923D01*
X128672419Y-49219923D02*
X129148609Y-49258019D01*
X129148609Y-49258019D02*
X129100990Y-49219923D01*
X129100990Y-49219923D02*
X129053371Y-49143733D01*
X129053371Y-49143733D02*
X129053371Y-48953257D01*
X129053371Y-48953257D02*
X129100990Y-48877066D01*
X129100990Y-48877066D02*
X129148609Y-48838971D01*
X129148609Y-48838971D02*
X129243847Y-48800876D01*
X129243847Y-48800876D02*
X129481942Y-48800876D01*
X129481942Y-48800876D02*
X129577180Y-48838971D01*
X129577180Y-48838971D02*
X129624800Y-48877066D01*
X129624800Y-48877066D02*
X129672419Y-48953257D01*
X129672419Y-48953257D02*
X129672419Y-49143733D01*
X129672419Y-49143733D02*
X129624800Y-49219923D01*
X129624800Y-49219923D02*
X129577180Y-49258019D01*
X128672419Y-48572304D02*
X129672419Y-48305637D01*
X129672419Y-48305637D02*
X128672419Y-48038971D01*
X128672419Y-47619923D02*
X128672419Y-47543733D01*
X128672419Y-47543733D02*
X128720038Y-47467542D01*
X128720038Y-47467542D02*
X128767657Y-47429447D01*
X128767657Y-47429447D02*
X128862895Y-47391352D01*
X128862895Y-47391352D02*
X129053371Y-47353257D01*
X129053371Y-47353257D02*
X129291466Y-47353257D01*
X129291466Y-47353257D02*
X129481942Y-47391352D01*
X129481942Y-47391352D02*
X129577180Y-47429447D01*
X129577180Y-47429447D02*
X129624800Y-47467542D01*
X129624800Y-47467542D02*
X129672419Y-47543733D01*
X129672419Y-47543733D02*
X129672419Y-47619923D01*
X129672419Y-47619923D02*
X129624800Y-47696114D01*
X129624800Y-47696114D02*
X129577180Y-47734209D01*
X129577180Y-47734209D02*
X129481942Y-47772304D01*
X129481942Y-47772304D02*
X129291466Y-47810400D01*
X129291466Y-47810400D02*
X129053371Y-47810400D01*
X129053371Y-47810400D02*
X128862895Y-47772304D01*
X128862895Y-47772304D02*
X128767657Y-47734209D01*
X128767657Y-47734209D02*
X128720038Y-47696114D01*
X128720038Y-47696114D02*
X128672419Y-47619923D01*
X101472419Y-54324687D02*
X101472419Y-54781830D01*
X101472419Y-54553258D02*
X100472419Y-54553258D01*
X100472419Y-54553258D02*
X100615276Y-54629449D01*
X100615276Y-54629449D02*
X100710514Y-54705639D01*
X100710514Y-54705639D02*
X100758133Y-54781830D01*
X100472419Y-53829448D02*
X100472419Y-53753258D01*
X100472419Y-53753258D02*
X100520038Y-53677067D01*
X100520038Y-53677067D02*
X100567657Y-53638972D01*
X100567657Y-53638972D02*
X100662895Y-53600877D01*
X100662895Y-53600877D02*
X100853371Y-53562782D01*
X100853371Y-53562782D02*
X101091466Y-53562782D01*
X101091466Y-53562782D02*
X101281942Y-53600877D01*
X101281942Y-53600877D02*
X101377180Y-53638972D01*
X101377180Y-53638972D02*
X101424800Y-53677067D01*
X101424800Y-53677067D02*
X101472419Y-53753258D01*
X101472419Y-53753258D02*
X101472419Y-53829448D01*
X101472419Y-53829448D02*
X101424800Y-53905639D01*
X101424800Y-53905639D02*
X101377180Y-53943734D01*
X101377180Y-53943734D02*
X101281942Y-53981829D01*
X101281942Y-53981829D02*
X101091466Y-54019925D01*
X101091466Y-54019925D02*
X100853371Y-54019925D01*
X100853371Y-54019925D02*
X100662895Y-53981829D01*
X100662895Y-53981829D02*
X100567657Y-53943734D01*
X100567657Y-53943734D02*
X100520038Y-53905639D01*
X100520038Y-53905639D02*
X100472419Y-53829448D01*
X100472419Y-51848495D02*
X100472419Y-51772305D01*
X100472419Y-51772305D02*
X100520038Y-51696114D01*
X100520038Y-51696114D02*
X100567657Y-51658019D01*
X100567657Y-51658019D02*
X100662895Y-51619924D01*
X100662895Y-51619924D02*
X100853371Y-51581829D01*
X100853371Y-51581829D02*
X101091466Y-51581829D01*
X101091466Y-51581829D02*
X101281942Y-51619924D01*
X101281942Y-51619924D02*
X101377180Y-51658019D01*
X101377180Y-51658019D02*
X101424800Y-51696114D01*
X101424800Y-51696114D02*
X101472419Y-51772305D01*
X101472419Y-51772305D02*
X101472419Y-51848495D01*
X101472419Y-51848495D02*
X101424800Y-51924686D01*
X101424800Y-51924686D02*
X101377180Y-51962781D01*
X101377180Y-51962781D02*
X101281942Y-52000876D01*
X101281942Y-52000876D02*
X101091466Y-52038972D01*
X101091466Y-52038972D02*
X100853371Y-52038972D01*
X100853371Y-52038972D02*
X100662895Y-52000876D01*
X100662895Y-52000876D02*
X100567657Y-51962781D01*
X100567657Y-51962781D02*
X100520038Y-51924686D01*
X100520038Y-51924686D02*
X100472419Y-51848495D01*
X100900990Y-51124686D02*
X100853371Y-51200876D01*
X100853371Y-51200876D02*
X100805752Y-51238971D01*
X100805752Y-51238971D02*
X100710514Y-51277067D01*
X100710514Y-51277067D02*
X100662895Y-51277067D01*
X100662895Y-51277067D02*
X100567657Y-51238971D01*
X100567657Y-51238971D02*
X100520038Y-51200876D01*
X100520038Y-51200876D02*
X100472419Y-51124686D01*
X100472419Y-51124686D02*
X100472419Y-50972305D01*
X100472419Y-50972305D02*
X100520038Y-50896114D01*
X100520038Y-50896114D02*
X100567657Y-50858019D01*
X100567657Y-50858019D02*
X100662895Y-50819924D01*
X100662895Y-50819924D02*
X100710514Y-50819924D01*
X100710514Y-50819924D02*
X100805752Y-50858019D01*
X100805752Y-50858019D02*
X100853371Y-50896114D01*
X100853371Y-50896114D02*
X100900990Y-50972305D01*
X100900990Y-50972305D02*
X100900990Y-51124686D01*
X100900990Y-51124686D02*
X100948609Y-51200876D01*
X100948609Y-51200876D02*
X100996228Y-51238971D01*
X100996228Y-51238971D02*
X101091466Y-51277067D01*
X101091466Y-51277067D02*
X101281942Y-51277067D01*
X101281942Y-51277067D02*
X101377180Y-51238971D01*
X101377180Y-51238971D02*
X101424800Y-51200876D01*
X101424800Y-51200876D02*
X101472419Y-51124686D01*
X101472419Y-51124686D02*
X101472419Y-50972305D01*
X101472419Y-50972305D02*
X101424800Y-50896114D01*
X101424800Y-50896114D02*
X101377180Y-50858019D01*
X101377180Y-50858019D02*
X101281942Y-50819924D01*
X101281942Y-50819924D02*
X101091466Y-50819924D01*
X101091466Y-50819924D02*
X100996228Y-50858019D01*
X100996228Y-50858019D02*
X100948609Y-50896114D01*
X100948609Y-50896114D02*
X100900990Y-50972305D01*
X100472419Y-49105637D02*
X100472419Y-49029447D01*
X100472419Y-49029447D02*
X100520038Y-48953256D01*
X100520038Y-48953256D02*
X100567657Y-48915161D01*
X100567657Y-48915161D02*
X100662895Y-48877066D01*
X100662895Y-48877066D02*
X100853371Y-48838971D01*
X100853371Y-48838971D02*
X101091466Y-48838971D01*
X101091466Y-48838971D02*
X101281942Y-48877066D01*
X101281942Y-48877066D02*
X101377180Y-48915161D01*
X101377180Y-48915161D02*
X101424800Y-48953256D01*
X101424800Y-48953256D02*
X101472419Y-49029447D01*
X101472419Y-49029447D02*
X101472419Y-49105637D01*
X101472419Y-49105637D02*
X101424800Y-49181828D01*
X101424800Y-49181828D02*
X101377180Y-49219923D01*
X101377180Y-49219923D02*
X101281942Y-49258018D01*
X101281942Y-49258018D02*
X101091466Y-49296114D01*
X101091466Y-49296114D02*
X100853371Y-49296114D01*
X100853371Y-49296114D02*
X100662895Y-49258018D01*
X100662895Y-49258018D02*
X100567657Y-49219923D01*
X100567657Y-49219923D02*
X100520038Y-49181828D01*
X100520038Y-49181828D02*
X100472419Y-49105637D01*
X100472419Y-48572304D02*
X100472419Y-48038970D01*
X100472419Y-48038970D02*
X101472419Y-48381828D01*
X100472419Y-46362779D02*
X100472419Y-46286589D01*
X100472419Y-46286589D02*
X100520038Y-46210398D01*
X100520038Y-46210398D02*
X100567657Y-46172303D01*
X100567657Y-46172303D02*
X100662895Y-46134208D01*
X100662895Y-46134208D02*
X100853371Y-46096113D01*
X100853371Y-46096113D02*
X101091466Y-46096113D01*
X101091466Y-46096113D02*
X101281942Y-46134208D01*
X101281942Y-46134208D02*
X101377180Y-46172303D01*
X101377180Y-46172303D02*
X101424800Y-46210398D01*
X101424800Y-46210398D02*
X101472419Y-46286589D01*
X101472419Y-46286589D02*
X101472419Y-46362779D01*
X101472419Y-46362779D02*
X101424800Y-46438970D01*
X101424800Y-46438970D02*
X101377180Y-46477065D01*
X101377180Y-46477065D02*
X101281942Y-46515160D01*
X101281942Y-46515160D02*
X101091466Y-46553256D01*
X101091466Y-46553256D02*
X100853371Y-46553256D01*
X100853371Y-46553256D02*
X100662895Y-46515160D01*
X100662895Y-46515160D02*
X100567657Y-46477065D01*
X100567657Y-46477065D02*
X100520038Y-46438970D01*
X100520038Y-46438970D02*
X100472419Y-46362779D01*
X100472419Y-45410398D02*
X100472419Y-45562779D01*
X100472419Y-45562779D02*
X100520038Y-45638970D01*
X100520038Y-45638970D02*
X100567657Y-45677065D01*
X100567657Y-45677065D02*
X100710514Y-45753255D01*
X100710514Y-45753255D02*
X100900990Y-45791351D01*
X100900990Y-45791351D02*
X101281942Y-45791351D01*
X101281942Y-45791351D02*
X101377180Y-45753255D01*
X101377180Y-45753255D02*
X101424800Y-45715160D01*
X101424800Y-45715160D02*
X101472419Y-45638970D01*
X101472419Y-45638970D02*
X101472419Y-45486589D01*
X101472419Y-45486589D02*
X101424800Y-45410398D01*
X101424800Y-45410398D02*
X101377180Y-45372303D01*
X101377180Y-45372303D02*
X101281942Y-45334208D01*
X101281942Y-45334208D02*
X101043847Y-45334208D01*
X101043847Y-45334208D02*
X100948609Y-45372303D01*
X100948609Y-45372303D02*
X100900990Y-45410398D01*
X100900990Y-45410398D02*
X100853371Y-45486589D01*
X100853371Y-45486589D02*
X100853371Y-45638970D01*
X100853371Y-45638970D02*
X100900990Y-45715160D01*
X100900990Y-45715160D02*
X100948609Y-45753255D01*
X100948609Y-45753255D02*
X101043847Y-45791351D01*
X100472419Y-43619921D02*
X100472419Y-43543731D01*
X100472419Y-43543731D02*
X100520038Y-43467540D01*
X100520038Y-43467540D02*
X100567657Y-43429445D01*
X100567657Y-43429445D02*
X100662895Y-43391350D01*
X100662895Y-43391350D02*
X100853371Y-43353255D01*
X100853371Y-43353255D02*
X101091466Y-43353255D01*
X101091466Y-43353255D02*
X101281942Y-43391350D01*
X101281942Y-43391350D02*
X101377180Y-43429445D01*
X101377180Y-43429445D02*
X101424800Y-43467540D01*
X101424800Y-43467540D02*
X101472419Y-43543731D01*
X101472419Y-43543731D02*
X101472419Y-43619921D01*
X101472419Y-43619921D02*
X101424800Y-43696112D01*
X101424800Y-43696112D02*
X101377180Y-43734207D01*
X101377180Y-43734207D02*
X101281942Y-43772302D01*
X101281942Y-43772302D02*
X101091466Y-43810398D01*
X101091466Y-43810398D02*
X100853371Y-43810398D01*
X100853371Y-43810398D02*
X100662895Y-43772302D01*
X100662895Y-43772302D02*
X100567657Y-43734207D01*
X100567657Y-43734207D02*
X100520038Y-43696112D01*
X100520038Y-43696112D02*
X100472419Y-43619921D01*
X101472419Y-42591350D02*
X101472419Y-43048493D01*
X101472419Y-42819921D02*
X100472419Y-42819921D01*
X100472419Y-42819921D02*
X100615276Y-42896112D01*
X100615276Y-42896112D02*
X100710514Y-42972302D01*
X100710514Y-42972302D02*
X100758133Y-43048493D01*
X100572419Y-64691353D02*
X100572419Y-64615163D01*
X100572419Y-64615163D02*
X100620038Y-64538972D01*
X100620038Y-64538972D02*
X100667657Y-64500877D01*
X100667657Y-64500877D02*
X100762895Y-64462782D01*
X100762895Y-64462782D02*
X100953371Y-64424687D01*
X100953371Y-64424687D02*
X101191466Y-64424687D01*
X101191466Y-64424687D02*
X101381942Y-64462782D01*
X101381942Y-64462782D02*
X101477180Y-64500877D01*
X101477180Y-64500877D02*
X101524800Y-64538972D01*
X101524800Y-64538972D02*
X101572419Y-64615163D01*
X101572419Y-64615163D02*
X101572419Y-64691353D01*
X101572419Y-64691353D02*
X101524800Y-64767544D01*
X101524800Y-64767544D02*
X101477180Y-64805639D01*
X101477180Y-64805639D02*
X101381942Y-64843734D01*
X101381942Y-64843734D02*
X101191466Y-64881830D01*
X101191466Y-64881830D02*
X100953371Y-64881830D01*
X100953371Y-64881830D02*
X100762895Y-64843734D01*
X100762895Y-64843734D02*
X100667657Y-64805639D01*
X100667657Y-64805639D02*
X100620038Y-64767544D01*
X100620038Y-64767544D02*
X100572419Y-64691353D01*
X100572419Y-63929448D02*
X100572419Y-63853258D01*
X100572419Y-63853258D02*
X100620038Y-63777067D01*
X100620038Y-63777067D02*
X100667657Y-63738972D01*
X100667657Y-63738972D02*
X100762895Y-63700877D01*
X100762895Y-63700877D02*
X100953371Y-63662782D01*
X100953371Y-63662782D02*
X101191466Y-63662782D01*
X101191466Y-63662782D02*
X101381942Y-63700877D01*
X101381942Y-63700877D02*
X101477180Y-63738972D01*
X101477180Y-63738972D02*
X101524800Y-63777067D01*
X101524800Y-63777067D02*
X101572419Y-63853258D01*
X101572419Y-63853258D02*
X101572419Y-63929448D01*
X101572419Y-63929448D02*
X101524800Y-64005639D01*
X101524800Y-64005639D02*
X101477180Y-64043734D01*
X101477180Y-64043734D02*
X101381942Y-64081829D01*
X101381942Y-64081829D02*
X101191466Y-64119925D01*
X101191466Y-64119925D02*
X100953371Y-64119925D01*
X100953371Y-64119925D02*
X100762895Y-64081829D01*
X100762895Y-64081829D02*
X100667657Y-64043734D01*
X100667657Y-64043734D02*
X100620038Y-64005639D01*
X100620038Y-64005639D02*
X100572419Y-63929448D01*
X100572419Y-62215162D02*
X100572419Y-61758019D01*
X101572419Y-61986591D02*
X100572419Y-61986591D01*
X100572419Y-61567543D02*
X101572419Y-61034209D01*
X100572419Y-61034209D02*
X101572419Y-61567543D01*
X101572419Y-59053256D02*
X101096228Y-59319923D01*
X101572419Y-59510399D02*
X100572419Y-59510399D01*
X100572419Y-59510399D02*
X100572419Y-59205637D01*
X100572419Y-59205637D02*
X100620038Y-59129447D01*
X100620038Y-59129447D02*
X100667657Y-59091352D01*
X100667657Y-59091352D02*
X100762895Y-59053256D01*
X100762895Y-59053256D02*
X100905752Y-59053256D01*
X100905752Y-59053256D02*
X101000990Y-59091352D01*
X101000990Y-59091352D02*
X101048609Y-59129447D01*
X101048609Y-59129447D02*
X101096228Y-59205637D01*
X101096228Y-59205637D02*
X101096228Y-59510399D01*
X100572419Y-58786590D02*
X101572419Y-58253256D01*
X100572419Y-58253256D02*
X101572419Y-58786590D01*
D13*
X110890476Y-65954819D02*
X111347619Y-65954819D01*
X111119047Y-66954819D02*
X111119047Y-65954819D01*
X111614286Y-66954819D02*
X111614286Y-65954819D01*
X111614286Y-65954819D02*
X111919048Y-65954819D01*
X111919048Y-65954819D02*
X111995238Y-66002438D01*
X111995238Y-66002438D02*
X112033333Y-66050057D01*
X112033333Y-66050057D02*
X112071429Y-66145295D01*
X112071429Y-66145295D02*
X112071429Y-66288152D01*
X112071429Y-66288152D02*
X112033333Y-66383390D01*
X112033333Y-66383390D02*
X111995238Y-66431009D01*
X111995238Y-66431009D02*
X111919048Y-66478628D01*
X111919048Y-66478628D02*
X111614286Y-66478628D01*
X112833333Y-66954819D02*
X112376190Y-66954819D01*
X112604762Y-66954819D02*
X112604762Y-65954819D01*
X112604762Y-65954819D02*
X112528571Y-66097676D01*
X112528571Y-66097676D02*
X112452381Y-66192914D01*
X112452381Y-66192914D02*
X112376190Y-66240533D01*
X102833333Y-40962295D02*
X102833333Y-41533723D01*
X102833333Y-41533723D02*
X102795238Y-41648009D01*
X102795238Y-41648009D02*
X102719047Y-41724200D01*
X102719047Y-41724200D02*
X102604762Y-41762295D01*
X102604762Y-41762295D02*
X102528571Y-41762295D01*
X103138095Y-40962295D02*
X103633333Y-40962295D01*
X103633333Y-40962295D02*
X103366667Y-41267057D01*
X103366667Y-41267057D02*
X103480952Y-41267057D01*
X103480952Y-41267057D02*
X103557143Y-41305152D01*
X103557143Y-41305152D02*
X103595238Y-41343247D01*
X103595238Y-41343247D02*
X103633333Y-41419438D01*
X103633333Y-41419438D02*
X103633333Y-41609914D01*
X103633333Y-41609914D02*
X103595238Y-41686104D01*
X103595238Y-41686104D02*
X103557143Y-41724200D01*
X103557143Y-41724200D02*
X103480952Y-41762295D01*
X103480952Y-41762295D02*
X103252381Y-41762295D01*
X103252381Y-41762295D02*
X103176190Y-41724200D01*
X103176190Y-41724200D02*
X103138095Y-41686104D01*
X108190476Y-65954819D02*
X108647619Y-65954819D01*
X108419047Y-66954819D02*
X108419047Y-65954819D01*
X108914286Y-66954819D02*
X108914286Y-65954819D01*
X108914286Y-65954819D02*
X109219048Y-65954819D01*
X109219048Y-65954819D02*
X109295238Y-66002438D01*
X109295238Y-66002438D02*
X109333333Y-66050057D01*
X109333333Y-66050057D02*
X109371429Y-66145295D01*
X109371429Y-66145295D02*
X109371429Y-66288152D01*
X109371429Y-66288152D02*
X109333333Y-66383390D01*
X109333333Y-66383390D02*
X109295238Y-66431009D01*
X109295238Y-66431009D02*
X109219048Y-66478628D01*
X109219048Y-66478628D02*
X108914286Y-66478628D01*
X110057143Y-66288152D02*
X110057143Y-66954819D01*
X109866667Y-65907200D02*
X109676190Y-66621485D01*
X109676190Y-66621485D02*
X110171429Y-66621485D01*
D12*
X127816666Y-67356119D02*
X127650000Y-66879928D01*
X127530952Y-67356119D02*
X127530952Y-66356119D01*
X127530952Y-66356119D02*
X127721428Y-66356119D01*
X127721428Y-66356119D02*
X127769047Y-66403738D01*
X127769047Y-66403738D02*
X127792857Y-66451357D01*
X127792857Y-66451357D02*
X127816666Y-66546595D01*
X127816666Y-66546595D02*
X127816666Y-66689452D01*
X127816666Y-66689452D02*
X127792857Y-66784690D01*
X127792857Y-66784690D02*
X127769047Y-66832309D01*
X127769047Y-66832309D02*
X127721428Y-66879928D01*
X127721428Y-66879928D02*
X127530952Y-66879928D01*
X128245238Y-66689452D02*
X128245238Y-67356119D01*
X128126190Y-66308500D02*
X128007143Y-67022785D01*
X128007143Y-67022785D02*
X128316666Y-67022785D01*
X121216666Y-66956119D02*
X121050000Y-66479928D01*
X120930952Y-66956119D02*
X120930952Y-65956119D01*
X120930952Y-65956119D02*
X121121428Y-65956119D01*
X121121428Y-65956119D02*
X121169047Y-66003738D01*
X121169047Y-66003738D02*
X121192857Y-66051357D01*
X121192857Y-66051357D02*
X121216666Y-66146595D01*
X121216666Y-66146595D02*
X121216666Y-66289452D01*
X121216666Y-66289452D02*
X121192857Y-66384690D01*
X121192857Y-66384690D02*
X121169047Y-66432309D01*
X121169047Y-66432309D02*
X121121428Y-66479928D01*
X121121428Y-66479928D02*
X120930952Y-66479928D01*
X121383333Y-65956119D02*
X121692857Y-65956119D01*
X121692857Y-65956119D02*
X121526190Y-66337071D01*
X121526190Y-66337071D02*
X121597619Y-66337071D01*
X121597619Y-66337071D02*
X121645238Y-66384690D01*
X121645238Y-66384690D02*
X121669047Y-66432309D01*
X121669047Y-66432309D02*
X121692857Y-66527547D01*
X121692857Y-66527547D02*
X121692857Y-66765642D01*
X121692857Y-66765642D02*
X121669047Y-66860880D01*
X121669047Y-66860880D02*
X121645238Y-66908500D01*
X121645238Y-66908500D02*
X121597619Y-66956119D01*
X121597619Y-66956119D02*
X121454762Y-66956119D01*
X121454762Y-66956119D02*
X121407143Y-66908500D01*
X121407143Y-66908500D02*
X121383333Y-66860880D01*
D13*
X113590476Y-66006819D02*
X114047619Y-66006819D01*
X113819047Y-67006819D02*
X113819047Y-66006819D01*
X114314286Y-67006819D02*
X114314286Y-66006819D01*
X114314286Y-66006819D02*
X114619048Y-66006819D01*
X114619048Y-66006819D02*
X114695238Y-66054438D01*
X114695238Y-66054438D02*
X114733333Y-66102057D01*
X114733333Y-66102057D02*
X114771429Y-66197295D01*
X114771429Y-66197295D02*
X114771429Y-66340152D01*
X114771429Y-66340152D02*
X114733333Y-66435390D01*
X114733333Y-66435390D02*
X114695238Y-66483009D01*
X114695238Y-66483009D02*
X114619048Y-66530628D01*
X114619048Y-66530628D02*
X114314286Y-66530628D01*
X115076190Y-66102057D02*
X115114286Y-66054438D01*
X115114286Y-66054438D02*
X115190476Y-66006819D01*
X115190476Y-66006819D02*
X115380952Y-66006819D01*
X115380952Y-66006819D02*
X115457143Y-66054438D01*
X115457143Y-66054438D02*
X115495238Y-66102057D01*
X115495238Y-66102057D02*
X115533333Y-66197295D01*
X115533333Y-66197295D02*
X115533333Y-66292533D01*
X115533333Y-66292533D02*
X115495238Y-66435390D01*
X115495238Y-66435390D02*
X115038095Y-67006819D01*
X115038095Y-67006819D02*
X115533333Y-67006819D01*
X116290476Y-65806819D02*
X116747619Y-65806819D01*
X116519047Y-66806819D02*
X116519047Y-65806819D01*
X117014286Y-66806819D02*
X117014286Y-65806819D01*
X117014286Y-65806819D02*
X117319048Y-65806819D01*
X117319048Y-65806819D02*
X117395238Y-65854438D01*
X117395238Y-65854438D02*
X117433333Y-65902057D01*
X117433333Y-65902057D02*
X117471429Y-65997295D01*
X117471429Y-65997295D02*
X117471429Y-66140152D01*
X117471429Y-66140152D02*
X117433333Y-66235390D01*
X117433333Y-66235390D02*
X117395238Y-66283009D01*
X117395238Y-66283009D02*
X117319048Y-66330628D01*
X117319048Y-66330628D02*
X117014286Y-66330628D01*
X117738095Y-65806819D02*
X118233333Y-65806819D01*
X118233333Y-65806819D02*
X117966667Y-66187771D01*
X117966667Y-66187771D02*
X118080952Y-66187771D01*
X118080952Y-66187771D02*
X118157143Y-66235390D01*
X118157143Y-66235390D02*
X118195238Y-66283009D01*
X118195238Y-66283009D02*
X118233333Y-66378247D01*
X118233333Y-66378247D02*
X118233333Y-66616342D01*
X118233333Y-66616342D02*
X118195238Y-66711580D01*
X118195238Y-66711580D02*
X118157143Y-66759200D01*
X118157143Y-66759200D02*
X118080952Y-66806819D01*
X118080952Y-66806819D02*
X117852381Y-66806819D01*
X117852381Y-66806819D02*
X117776190Y-66759200D01*
X117776190Y-66759200D02*
X117738095Y-66711580D01*
D12*
X126933333Y-61963595D02*
X126933333Y-62535023D01*
X126933333Y-62535023D02*
X126895238Y-62649309D01*
X126895238Y-62649309D02*
X126819047Y-62725500D01*
X126819047Y-62725500D02*
X126704762Y-62763595D01*
X126704762Y-62763595D02*
X126628571Y-62763595D01*
X127657143Y-61963595D02*
X127504762Y-61963595D01*
X127504762Y-61963595D02*
X127428571Y-62001690D01*
X127428571Y-62001690D02*
X127390476Y-62039785D01*
X127390476Y-62039785D02*
X127314286Y-62154071D01*
X127314286Y-62154071D02*
X127276190Y-62306452D01*
X127276190Y-62306452D02*
X127276190Y-62611214D01*
X127276190Y-62611214D02*
X127314286Y-62687404D01*
X127314286Y-62687404D02*
X127352381Y-62725500D01*
X127352381Y-62725500D02*
X127428571Y-62763595D01*
X127428571Y-62763595D02*
X127580952Y-62763595D01*
X127580952Y-62763595D02*
X127657143Y-62725500D01*
X127657143Y-62725500D02*
X127695238Y-62687404D01*
X127695238Y-62687404D02*
X127733333Y-62611214D01*
X127733333Y-62611214D02*
X127733333Y-62420738D01*
X127733333Y-62420738D02*
X127695238Y-62344547D01*
X127695238Y-62344547D02*
X127657143Y-62306452D01*
X127657143Y-62306452D02*
X127580952Y-62268357D01*
X127580952Y-62268357D02*
X127428571Y-62268357D01*
X127428571Y-62268357D02*
X127352381Y-62306452D01*
X127352381Y-62306452D02*
X127314286Y-62344547D01*
X127314286Y-62344547D02*
X127276190Y-62420738D01*
D13*
X105490476Y-65754819D02*
X105947619Y-65754819D01*
X105719047Y-66754819D02*
X105719047Y-65754819D01*
X106214286Y-66754819D02*
X106214286Y-65754819D01*
X106214286Y-65754819D02*
X106519048Y-65754819D01*
X106519048Y-65754819D02*
X106595238Y-65802438D01*
X106595238Y-65802438D02*
X106633333Y-65850057D01*
X106633333Y-65850057D02*
X106671429Y-65945295D01*
X106671429Y-65945295D02*
X106671429Y-66088152D01*
X106671429Y-66088152D02*
X106633333Y-66183390D01*
X106633333Y-66183390D02*
X106595238Y-66231009D01*
X106595238Y-66231009D02*
X106519048Y-66278628D01*
X106519048Y-66278628D02*
X106214286Y-66278628D01*
X107395238Y-65754819D02*
X107014286Y-65754819D01*
X107014286Y-65754819D02*
X106976190Y-66231009D01*
X106976190Y-66231009D02*
X107014286Y-66183390D01*
X107014286Y-66183390D02*
X107090476Y-66135771D01*
X107090476Y-66135771D02*
X107280952Y-66135771D01*
X107280952Y-66135771D02*
X107357143Y-66183390D01*
X107357143Y-66183390D02*
X107395238Y-66231009D01*
X107395238Y-66231009D02*
X107433333Y-66326247D01*
X107433333Y-66326247D02*
X107433333Y-66564342D01*
X107433333Y-66564342D02*
X107395238Y-66659580D01*
X107395238Y-66659580D02*
X107357143Y-66707200D01*
X107357143Y-66707200D02*
X107280952Y-66754819D01*
X107280952Y-66754819D02*
X107090476Y-66754819D01*
X107090476Y-66754819D02*
X107014286Y-66707200D01*
X107014286Y-66707200D02*
X106976190Y-66659580D01*
D12*
X102933333Y-56163595D02*
X102933333Y-56735023D01*
X102933333Y-56735023D02*
X102895238Y-56849309D01*
X102895238Y-56849309D02*
X102819047Y-56925500D01*
X102819047Y-56925500D02*
X102704762Y-56963595D01*
X102704762Y-56963595D02*
X102628571Y-56963595D01*
X103238095Y-56163595D02*
X103771429Y-56163595D01*
X103771429Y-56163595D02*
X103428571Y-56963595D01*
D15*
G04 #@! TO.C,U3*
X106080000Y-65110000D02*
X106080000Y-42410000D01*
X110580000Y-41110000D02*
X110580000Y-42410000D01*
X110580000Y-42410000D02*
X106080000Y-42410000D01*
X119580000Y-41110000D02*
X110580000Y-41110000D01*
X119580000Y-41110000D02*
X119580000Y-42410000D01*
X124080000Y-42410000D02*
X119580000Y-42410000D01*
X124080000Y-65110000D02*
X106080000Y-65110000D01*
X124080000Y-65110000D02*
X124080000Y-42410000D01*
D16*
G04 #@! TO.C,TP1*
X112600000Y-68000000D02*
G75*
G02*
X111200000Y-68000000I-700000J0D01*
G01*
X111200000Y-68000000D02*
G75*
G02*
X112600000Y-68000000I700000J0D01*
G01*
G04 #@! TO.C,J3*
X101720000Y-52750000D02*
X101720000Y-42480000D01*
X104480000Y-42480000D02*
X101720000Y-42480000D01*
X104480000Y-52750000D02*
X101720000Y-52750000D01*
X104480000Y-52750000D02*
X104480000Y-42480000D01*
X104480000Y-54020000D02*
X104480000Y-55400000D01*
X104480000Y-55400000D02*
X103100000Y-55400000D01*
G04 #@! TO.C,TP4*
X109900000Y-68000000D02*
G75*
G02*
X108500000Y-68000000I-700000J0D01*
G01*
X108500000Y-68000000D02*
G75*
G02*
X109900000Y-68000000I700000J0D01*
G01*
G04 #@! TO.C,R4*
X125465000Y-68127064D02*
X125465000Y-67672936D01*
X126935000Y-68127064D02*
X126935000Y-67672936D01*
G04 #@! TO.C,R3*
X122515000Y-68127064D02*
X122515000Y-67672936D01*
X123985000Y-68127064D02*
X123985000Y-67672936D01*
G04 #@! TO.C,JP2*
X122300000Y-70900000D02*
X124300000Y-70900000D01*
X122300000Y-73700000D02*
X122300000Y-70900000D01*
X124300000Y-70900000D02*
X124300000Y-73700000D01*
X124300000Y-73700000D02*
X122300000Y-73700000D01*
G04 #@! TO.C,TP2*
X115300000Y-68000000D02*
G75*
G02*
X113900000Y-68000000I-700000J0D01*
G01*
X113900000Y-68000000D02*
G75*
G02*
X115300000Y-68000000I700000J0D01*
G01*
G04 #@! TO.C,TP3*
X118000000Y-67800000D02*
G75*
G02*
X116600000Y-67800000I-700000J0D01*
G01*
X116600000Y-67800000D02*
G75*
G02*
X118000000Y-67800000I700000J0D01*
G01*
G04 #@! TO.C,JP1*
X125400000Y-70900000D02*
X127400000Y-70900000D01*
X125400000Y-73700000D02*
X125400000Y-70900000D01*
X127400000Y-70900000D02*
X127400000Y-73700000D01*
X127400000Y-73700000D02*
X125400000Y-73700000D01*
G04 #@! TO.C,J6*
X125620000Y-58580000D02*
X125620000Y-45770000D01*
X128380000Y-45770000D02*
X125620000Y-45770000D01*
X128380000Y-58580000D02*
X125620000Y-58580000D01*
X128380000Y-58580000D02*
X128380000Y-45770000D01*
X128380000Y-59850000D02*
X128380000Y-61230000D01*
X128380000Y-61230000D02*
X127000000Y-61230000D01*
G04 #@! TO.C,TP5*
X107200000Y-67800000D02*
G75*
G02*
X105800000Y-67800000I-700000J0D01*
G01*
X105800000Y-67800000D02*
G75*
G02*
X107200000Y-67800000I700000J0D01*
G01*
G04 #@! TO.C,J7*
X101820000Y-62910000D02*
X101820000Y-57720000D01*
X104580000Y-57720000D02*
X101820000Y-57720000D01*
X104580000Y-62910000D02*
X101820000Y-62910000D01*
X104580000Y-62910000D02*
X104580000Y-57720000D01*
X104580000Y-64180000D02*
X104580000Y-65560000D01*
X104580000Y-65560000D02*
X103200000Y-65560000D01*
G04 #@! TD*
%LPC*%
G04 #@! TO.C,JP2*
G36*
X122550000Y-72450000D02*
G01*
X124050000Y-72450000D01*
X124050000Y-72150000D01*
X122550000Y-72150000D01*
X122550000Y-72450000D01*
G37*
G04 #@! TO.C,JP1*
G36*
X125650000Y-72450000D02*
G01*
X127150000Y-72450000D01*
X127150000Y-72150000D01*
X125650000Y-72150000D01*
X125650000Y-72450000D01*
G37*
G04 #@! TD*
D17*
G04 #@! TO.C,U3*
X122700000Y-61640000D03*
X122700000Y-59100000D03*
X122700000Y-56560000D03*
X122700000Y-54020000D03*
X122700000Y-48940000D03*
X122700000Y-51480000D03*
X107460000Y-43860000D03*
X122700000Y-43860000D03*
X107460000Y-46400000D03*
X107460000Y-48940000D03*
X107460000Y-51480000D03*
X107460000Y-54020000D03*
X107460000Y-56560000D03*
X107460000Y-59100000D03*
X107460000Y-61640000D03*
X122700000Y-46400000D03*
G04 #@! TD*
D18*
G04 #@! TO.C,TP1*
X111900000Y-68000000D03*
G04 #@! TD*
D19*
G04 #@! TO.C,J3*
X103100000Y-54020000D03*
D20*
X103100000Y-51480000D03*
X103100000Y-48940000D03*
X103100000Y-46400000D03*
X103100000Y-43860000D03*
G04 #@! TD*
D21*
G04 #@! TO.C,J1*
X102600000Y-72000000D03*
D22*
X106100000Y-72000000D03*
X109600000Y-72000000D03*
X113200000Y-72000000D03*
X116600000Y-72000000D03*
G04 #@! TD*
D18*
G04 #@! TO.C,TP4*
X109200000Y-68000000D03*
G04 #@! TD*
D23*
G04 #@! TO.C,R4*
X126200000Y-68900000D03*
X126200000Y-66900000D03*
G04 #@! TD*
G04 #@! TO.C,R3*
X123250000Y-68900000D03*
X123250000Y-66900000D03*
G04 #@! TD*
D24*
G04 #@! TO.C,JP2*
X123300000Y-72950000D03*
X123300000Y-71650000D03*
G04 #@! TD*
D18*
G04 #@! TO.C,TP2*
X114600000Y-68000000D03*
G04 #@! TD*
G04 #@! TO.C,TP3*
X117300000Y-67800000D03*
G04 #@! TD*
D25*
G04 #@! TO.C,MH*
X102800000Y-68100000D03*
G04 #@! TD*
D24*
G04 #@! TO.C,JP1*
X126400000Y-72950000D03*
X126400000Y-71650000D03*
G04 #@! TD*
D19*
G04 #@! TO.C,J6*
X127000000Y-59850000D03*
D20*
X127000000Y-57310000D03*
X127000000Y-54770000D03*
X127000000Y-52230000D03*
X127000000Y-49690000D03*
X127000000Y-47150000D03*
G04 #@! TD*
D18*
G04 #@! TO.C,TP5*
X106500000Y-67800000D03*
G04 #@! TD*
D25*
G04 #@! TO.C,MH*
X127500000Y-42900000D03*
G04 #@! TD*
D19*
G04 #@! TO.C,J7*
X103200000Y-64180000D03*
D20*
X103200000Y-61640000D03*
X103200000Y-59100000D03*
G04 #@! TD*
%LPD*%
M02*
